<svg width="889" height="180" viewBox="0 0 889 180" fill="none" xmlns="http://www.w3.org/2000/svg">
<g filter="url(#filter0_d_8525_17263)">
<path d="M20 20H799C837.66 20 869 51.3401 869 90C869 128.66 837.66 160 799 160H20V20Z" fill="white" fill-opacity="0.5" shape-rendering="crispEdges"/>
<path d="M111.166 85V74.832H107.238V73.48H116.518V74.832H112.59V85H111.166ZM119.441 85.24C118.582 85.24 117.841 85.0453 117.217 84.656C116.598 84.2667 116.121 83.728 115.785 83.04C115.449 82.352 115.281 81.5627 115.281 80.672C115.281 79.7653 115.451 78.9707 115.793 78.288C116.134 77.6053 116.617 77.0747 117.241 76.696C117.865 76.312 118.598 76.12 119.441 76.12C120.305 76.12 121.049 76.3147 121.673 76.704C122.297 77.088 122.774 77.624 123.105 78.312C123.441 78.9947 123.609 79.7813 123.609 80.672C123.609 81.5733 123.441 82.368 123.105 83.056C122.769 83.7387 122.289 84.2747 121.665 84.664C121.041 85.048 120.299 85.24 119.441 85.24ZM119.441 83.888C120.337 83.888 121.003 83.5893 121.441 82.992C121.878 82.3947 122.097 81.6213 122.097 80.672C122.097 79.696 121.875 78.92 121.433 78.344C120.99 77.7627 120.326 77.472 119.441 77.472C118.838 77.472 118.342 77.608 117.953 77.88C117.563 78.152 117.273 78.528 117.081 79.008C116.889 79.488 116.793 80.0427 116.793 80.672C116.793 81.6427 117.017 82.4213 117.465 83.008C117.913 83.5947 118.571 83.888 119.441 83.888ZM127.073 85V76.36H128.345V78.448L128.137 78.176C128.238 77.9093 128.369 77.664 128.529 77.44C128.694 77.216 128.878 77.032 129.081 76.888C129.305 76.7067 129.558 76.568 129.841 76.472C130.124 76.376 130.412 76.32 130.705 76.304C130.998 76.2827 131.273 76.3013 131.529 76.36V77.696C131.23 77.616 130.902 77.5947 130.545 77.632C130.188 77.6693 129.857 77.8 129.553 78.024C129.276 78.2213 129.06 78.4613 128.905 78.744C128.756 79.0267 128.652 79.3333 128.593 79.664C128.534 79.9893 128.505 80.3227 128.505 80.664V85H127.073ZM135.88 85.24C135.032 85.24 134.29 85.0533 133.656 84.68C133.026 84.3013 132.536 83.776 132.184 83.104C131.832 82.4267 131.656 81.6373 131.656 80.736C131.656 79.792 131.829 78.976 132.176 78.288C132.522 77.5947 133.005 77.0613 133.624 76.688C134.248 76.3093 134.978 76.12 135.816 76.12C136.685 76.12 137.424 76.32 138.032 76.72C138.645 77.12 139.104 77.6907 139.408 78.432C139.717 79.1733 139.85 80.056 139.808 81.08H138.368V80.568C138.352 79.5067 138.136 78.7147 137.72 78.192C137.304 77.664 136.685 77.4 135.864 77.4C134.984 77.4 134.314 77.6827 133.856 78.248C133.397 78.8133 133.168 79.624 133.168 80.68C133.168 81.6987 133.397 82.488 133.856 83.048C134.314 83.608 134.968 83.888 135.816 83.888C136.386 83.888 136.882 83.7573 137.304 83.496C137.725 83.2347 138.056 82.8587 138.296 82.368L139.664 82.84C139.328 83.6027 138.821 84.1947 138.144 84.616C137.472 85.032 136.717 85.24 135.88 85.24ZM132.688 81.08V79.936H139.072V81.08H132.688ZM144.231 85.24C143.425 85.24 142.735 85.04 142.159 84.64C141.583 84.2347 141.137 83.688 140.823 83C140.513 82.312 140.359 81.536 140.359 80.672C140.359 79.808 140.513 79.032 140.823 78.344C141.137 77.656 141.583 77.1147 142.159 76.72C142.735 76.32 143.423 76.12 144.223 76.12C145.039 76.12 145.724 76.3173 146.279 76.712C146.833 77.1067 147.252 77.648 147.535 78.336C147.823 79.024 147.967 79.8027 147.967 80.672C147.967 81.5307 147.823 82.3067 147.535 83C147.252 83.688 146.833 84.2347 146.279 84.64C145.724 85.04 145.041 85.24 144.231 85.24ZM144.407 83.936C144.988 83.936 145.465 83.7973 145.839 83.52C146.212 83.2373 146.487 82.8507 146.663 82.36C146.844 81.864 146.935 81.3013 146.935 80.672C146.935 80.032 146.844 79.4693 146.663 78.984C146.487 78.4933 146.215 78.112 145.847 77.84C145.479 77.5627 145.012 77.424 144.447 77.424C143.86 77.424 143.375 77.568 142.991 77.856C142.612 78.144 142.329 78.5333 142.143 79.024C141.961 79.5147 141.871 80.064 141.871 80.672C141.871 81.2853 141.964 81.84 142.151 82.336C142.337 82.8267 142.617 83.216 142.991 83.504C143.369 83.792 143.841 83.936 144.407 83.936ZM146.935 85V78.64H146.775V73.48H148.207V85H146.935ZM153.442 85.24C152.594 85.24 151.853 85.0533 151.218 84.68C150.589 84.3013 150.098 83.776 149.746 83.104C149.394 82.4267 149.218 81.6373 149.218 80.736C149.218 79.792 149.391 78.976 149.738 78.288C150.085 77.5947 150.567 77.0613 151.186 76.688C151.81 76.3093 152.541 76.12 153.378 76.12C154.247 76.12 154.986 76.32 155.594 76.72C156.207 77.12 156.666 77.6907 156.97 78.432C157.279 79.1733 157.413 80.056 157.37 81.08H155.93V80.568C155.914 79.5067 155.698 78.7147 155.282 78.192C154.866 77.664 154.247 77.4 153.426 77.4C152.546 77.4 151.877 77.6827 151.418 78.248C150.959 78.8133 150.73 79.624 150.73 80.68C150.73 81.6987 150.959 82.488 151.418 83.048C151.877 83.608 152.53 83.888 153.378 83.888C153.949 83.888 154.445 83.7573 154.866 83.496C155.287 83.2347 155.618 82.8587 155.858 82.368L157.226 82.84C156.89 83.6027 156.383 84.1947 155.706 84.616C155.034 85.032 154.279 85.24 153.442 85.24ZM150.25 81.08V79.936H156.634V81.08H150.25ZM159.225 85V75.888C159.225 75.664 159.236 75.4373 159.257 75.208C159.279 74.9733 159.327 74.7467 159.401 74.528C159.476 74.304 159.599 74.0987 159.769 73.912C159.967 73.6933 160.183 73.5387 160.417 73.448C160.652 73.352 160.889 73.2933 161.129 73.272C161.375 73.2507 161.607 73.24 161.825 73.24H162.921V74.424H161.905C161.484 74.424 161.169 74.528 160.961 74.736C160.753 74.9387 160.649 75.248 160.649 75.664V85H159.225ZM157.761 77.536V76.36H162.921V77.536H157.761ZM164.601 74.832V73.36H166.025V74.832H164.601ZM164.601 85V76.36H166.025V85H164.601ZM173.835 85V80.672C173.835 80.2613 173.797 79.8667 173.723 79.488C173.653 79.1093 173.528 78.7707 173.347 78.472C173.171 78.168 172.931 77.928 172.627 77.752C172.328 77.576 171.949 77.488 171.491 77.488C171.133 77.488 170.808 77.5493 170.515 77.672C170.227 77.7893 169.979 77.9707 169.771 78.216C169.563 78.4613 169.4 78.7707 169.283 79.144C169.171 79.512 169.115 79.9467 169.115 80.448L168.179 80.16C168.179 79.3227 168.328 78.6053 168.627 78.008C168.931 77.4053 169.355 76.944 169.899 76.624C170.448 76.2987 171.093 76.136 171.835 76.136C172.395 76.136 172.872 76.224 173.267 76.4C173.661 76.576 173.989 76.8107 174.251 77.104C174.512 77.392 174.717 77.7173 174.867 78.08C175.016 78.4373 175.12 78.8027 175.179 79.176C175.243 79.544 175.275 79.8933 175.275 80.224V85H173.835ZM167.675 85V76.36H168.955V78.672H169.115V85H167.675ZM180.27 85.24C179.422 85.24 178.681 85.0533 178.046 84.68C177.417 84.3013 176.926 83.776 176.574 83.104C176.222 82.4267 176.046 81.6373 176.046 80.736C176.046 79.792 176.22 78.976 176.566 78.288C176.913 77.5947 177.396 77.0613 178.014 76.688C178.638 76.3093 179.369 76.12 180.206 76.12C181.076 76.12 181.814 76.32 182.422 76.72C183.036 77.12 183.494 77.6907 183.798 78.432C184.108 79.1733 184.241 80.056 184.198 81.08H182.758V80.568C182.742 79.5067 182.526 78.7147 182.11 78.192C181.694 77.664 181.076 77.4 180.254 77.4C179.374 77.4 178.705 77.6827 178.246 78.248C177.788 78.8133 177.558 79.624 177.558 80.68C177.558 81.6987 177.788 82.488 178.246 83.048C178.705 83.608 179.358 83.888 180.206 83.888C180.777 83.888 181.273 83.7573 181.694 83.496C182.116 83.2347 182.446 82.8587 182.686 82.368L184.054 82.84C183.718 83.6027 183.212 84.1947 182.534 84.616C181.862 85.032 181.108 85.24 180.27 85.24ZM177.078 81.08V79.936H183.462V81.08H177.078ZM191.075 85.24C190.269 85.24 189.579 85.04 189.003 84.64C188.427 84.2347 187.981 83.688 187.667 83C187.357 82.312 187.203 81.536 187.203 80.672C187.203 79.808 187.357 79.032 187.667 78.344C187.981 77.656 188.427 77.1147 189.003 76.72C189.579 76.32 190.267 76.12 191.067 76.12C191.883 76.12 192.568 76.3173 193.123 76.712C193.677 77.1067 194.096 77.648 194.379 78.336C194.667 79.024 194.811 79.8027 194.811 80.672C194.811 81.5307 194.667 82.3067 194.379 83C194.096 83.688 193.677 84.2347 193.123 84.64C192.568 85.04 191.885 85.24 191.075 85.24ZM191.251 83.936C191.832 83.936 192.309 83.7973 192.683 83.52C193.056 83.2373 193.331 82.8507 193.507 82.36C193.688 81.864 193.779 81.3013 193.779 80.672C193.779 80.032 193.688 79.4693 193.507 78.984C193.331 78.4933 193.059 78.112 192.691 77.84C192.323 77.5627 191.856 77.424 191.291 77.424C190.704 77.424 190.219 77.568 189.835 77.856C189.456 78.144 189.173 78.5333 188.987 79.024C188.805 79.5147 188.715 80.064 188.715 80.672C188.715 81.2853 188.808 81.84 188.995 82.336C189.181 82.8267 189.461 83.216 189.835 83.504C190.213 83.792 190.685 83.936 191.251 83.936ZM193.779 85V78.64H193.619V73.48H195.051V85H193.779ZM200.222 85.24C199.363 85.24 198.622 85.0453 197.998 84.656C197.379 84.2667 196.902 83.728 196.566 83.04C196.23 82.352 196.062 81.5627 196.062 80.672C196.062 79.7653 196.233 78.9707 196.574 78.288C196.915 77.6053 197.398 77.0747 198.022 76.696C198.646 76.312 199.379 76.12 200.222 76.12C201.086 76.12 201.83 76.3147 202.454 76.704C203.078 77.088 203.555 77.624 203.886 78.312C204.222 78.9947 204.39 79.7813 204.39 80.672C204.39 81.5733 204.222 82.368 203.886 83.056C203.55 83.7387 203.07 84.2747 202.446 84.664C201.822 85.048 201.081 85.24 200.222 85.24ZM200.222 83.888C201.118 83.888 201.785 83.5893 202.222 82.992C202.659 82.3947 202.878 81.6213 202.878 80.672C202.878 79.696 202.657 78.92 202.214 78.344C201.771 77.7627 201.107 77.472 200.222 77.472C199.619 77.472 199.123 77.608 198.734 77.88C198.345 78.152 198.054 78.528 197.862 79.008C197.67 79.488 197.574 80.0427 197.574 80.672C197.574 81.6427 197.798 82.4213 198.246 83.008C198.694 83.5947 199.353 83.888 200.222 83.888ZM209.041 85.24C208.167 85.24 207.423 85.0453 206.809 84.656C206.201 84.2613 205.737 83.72 205.417 83.032C205.097 82.344 204.932 81.56 204.921 80.68C204.932 79.7787 205.1 78.9867 205.425 78.304C205.756 77.616 206.228 77.08 206.841 76.696C207.455 76.312 208.193 76.12 209.057 76.12C209.969 76.12 210.753 76.344 211.409 76.792C212.071 77.24 212.513 77.8533 212.737 78.632L211.329 79.056C211.148 78.5547 210.852 78.1653 210.441 77.888C210.036 77.6107 209.569 77.472 209.041 77.472C208.449 77.472 207.961 77.6107 207.577 77.888C207.193 78.16 206.908 78.5387 206.721 79.024C206.535 79.504 206.439 80.056 206.433 80.68C206.444 81.64 206.665 82.416 207.097 83.008C207.535 83.5947 208.183 83.888 209.041 83.888C209.607 83.888 210.076 83.76 210.449 83.504C210.823 83.2427 211.105 82.8667 211.297 82.376L212.737 82.752C212.439 83.5573 211.972 84.1733 211.337 84.6C210.703 85.0267 209.937 85.24 209.041 85.24ZM216.9 85.224C216.345 85.224 215.868 85.136 215.468 84.96C215.073 84.784 214.745 84.5493 214.484 84.256C214.223 83.9627 214.017 83.6373 213.868 83.28C213.719 82.9227 213.612 82.5573 213.548 82.184C213.489 81.8107 213.46 81.4613 213.46 81.136V76.36H214.9V80.688C214.9 81.0933 214.937 81.4853 215.012 81.864C215.087 82.2427 215.212 82.584 215.388 82.888C215.569 83.192 215.809 83.432 216.108 83.608C216.412 83.784 216.791 83.872 217.244 83.872C217.601 83.872 217.927 83.8107 218.22 83.688C218.513 83.5653 218.764 83.384 218.972 83.144C219.18 82.8987 219.34 82.5893 219.452 82.216C219.564 81.8427 219.62 81.408 219.62 80.912L220.556 81.2C220.556 82.032 220.404 82.7493 220.1 83.352C219.801 83.9547 219.377 84.4187 218.828 84.744C218.284 85.064 217.641 85.224 216.9 85.224ZM219.78 85V82.688H219.62V76.36H221.052V85H219.78ZM232.87 85L232.878 79.472C232.878 78.8267 232.705 78.3227 232.358 77.96C232.017 77.592 231.571 77.408 231.022 77.408C230.702 77.408 230.398 77.4827 230.11 77.632C229.822 77.776 229.587 78.0053 229.406 78.32C229.225 78.6293 229.134 79.0267 229.134 79.512L228.382 79.208C228.371 78.5947 228.497 78.0587 228.758 77.6C229.025 77.136 229.387 76.776 229.846 76.52C230.305 76.264 230.822 76.136 231.398 76.136C232.299 76.136 233.009 76.4107 233.526 76.96C234.043 77.504 234.302 78.2373 234.302 79.16L234.294 85H232.87ZM222.534 85V76.36H223.806V78.672H223.966V85H222.534ZM227.71 85L227.718 79.528C227.718 78.8667 227.547 78.3493 227.206 77.976C226.865 77.5973 226.411 77.408 225.846 77.408C225.286 77.408 224.833 77.6 224.486 77.984C224.139 78.368 223.966 78.8773 223.966 79.512L223.214 79.064C223.214 78.504 223.347 78.0027 223.614 77.56C223.881 77.1173 224.243 76.7707 224.702 76.52C225.161 76.264 225.681 76.136 226.262 76.136C226.843 76.136 227.35 76.2587 227.782 76.504C228.214 76.7493 228.547 77.1013 228.782 77.56C229.017 78.0133 229.134 78.5547 229.134 79.184L229.126 85H227.71ZM239.302 85.24C238.454 85.24 237.712 85.0533 237.078 84.68C236.448 84.3013 235.958 83.776 235.606 83.104C235.254 82.4267 235.078 81.6373 235.078 80.736C235.078 79.792 235.251 78.976 235.598 78.288C235.944 77.5947 236.427 77.0613 237.046 76.688C237.67 76.3093 238.4 76.12 239.238 76.12C240.107 76.12 240.846 76.32 241.454 76.72C242.067 77.12 242.526 77.6907 242.83 78.432C243.139 79.1733 243.272 80.056 243.23 81.08H241.79V80.568C241.774 79.5067 241.558 78.7147 241.142 78.192C240.726 77.664 240.107 77.4 239.286 77.4C238.406 77.4 237.736 77.6827 237.278 78.248C236.819 78.8133 236.59 79.624 236.59 80.68C236.59 81.6987 236.819 82.488 237.278 83.048C237.736 83.608 238.39 83.888 239.238 83.888C239.808 83.888 240.304 83.7573 240.726 83.496C241.147 83.2347 241.478 82.8587 241.718 82.368L243.086 82.84C242.75 83.6027 242.243 84.1947 241.566 84.616C240.894 85.032 240.139 85.24 239.302 85.24ZM236.11 81.08V79.936H242.494V81.08H236.11ZM250.178 85V80.672C250.178 80.2613 250.141 79.8667 250.066 79.488C249.997 79.1093 249.872 78.7707 249.69 78.472C249.514 78.168 249.274 77.928 248.97 77.752C248.672 77.576 248.293 77.488 247.834 77.488C247.477 77.488 247.152 77.5493 246.858 77.672C246.57 77.7893 246.322 77.9707 246.114 78.216C245.906 78.4613 245.744 78.7707 245.626 79.144C245.514 79.512 245.458 79.9467 245.458 80.448L244.522 80.16C244.522 79.3227 244.672 78.6053 244.97 78.008C245.274 77.4053 245.698 76.944 246.242 76.624C246.792 76.2987 247.437 76.136 248.178 76.136C248.738 76.136 249.216 76.224 249.61 76.4C250.005 76.576 250.333 76.8107 250.594 77.104C250.856 77.392 251.061 77.7173 251.21 78.08C251.36 78.4373 251.464 78.8027 251.522 79.176C251.586 79.544 251.618 79.8933 251.618 80.224V85H250.178ZM244.018 85V76.36H245.298V78.672H245.458V85H244.018ZM257.772 85C257.26 85.1013 256.753 85.1413 256.252 85.12C255.756 85.104 255.313 85.0053 254.924 84.824C254.535 84.6373 254.239 84.3493 254.036 83.96C253.865 83.6187 253.772 83.2747 253.756 82.928C253.745 82.576 253.74 82.1787 253.74 81.736V73.96H255.164V81.672C255.164 82.024 255.167 82.3253 255.172 82.576C255.183 82.8267 255.239 83.0427 255.34 83.224C255.532 83.5653 255.836 83.7653 256.252 83.824C256.673 83.8827 257.18 83.8667 257.772 83.776V85ZM251.988 77.536V76.36H257.772V77.536H251.988ZM271.557 85L271.565 79.472C271.565 78.8267 271.392 78.3227 271.045 77.96C270.704 77.592 270.259 77.408 269.709 77.408C269.389 77.408 269.085 77.4827 268.797 77.632C268.509 77.776 268.275 78.0053 268.093 78.32C267.912 78.6293 267.821 79.0267 267.821 79.512L267.069 79.208C267.059 78.5947 267.184 78.0587 267.445 77.6C267.712 77.136 268.075 76.776 268.533 76.52C268.992 76.264 269.509 76.136 270.085 76.136C270.987 76.136 271.696 76.4107 272.213 76.96C272.731 77.504 272.989 78.2373 272.989 79.16L272.981 85H271.557ZM261.221 85V76.36H262.493V78.672H262.653V85H261.221ZM266.397 85L266.405 79.528C266.405 78.8667 266.235 78.3493 265.893 77.976C265.552 77.5973 265.099 77.408 264.533 77.408C263.973 77.408 263.52 77.6 263.173 77.984C262.827 78.368 262.653 78.8773 262.653 79.512L261.901 79.064C261.901 78.504 262.035 78.0027 262.301 77.56C262.568 77.1173 262.931 76.7707 263.389 76.52C263.848 76.264 264.368 76.136 264.949 76.136C265.531 76.136 266.037 76.2587 266.469 76.504C266.901 76.7493 267.235 77.1013 267.469 77.56C267.704 78.0133 267.821 78.5547 267.821 79.184L267.813 85H266.397ZM276.779 85.24C276.134 85.24 275.592 85.1227 275.155 84.888C274.723 84.648 274.395 84.3333 274.171 83.944C273.952 83.5547 273.843 83.128 273.843 82.664C273.843 82.2107 273.928 81.8187 274.099 81.488C274.275 81.152 274.52 80.8747 274.835 80.656C275.15 80.432 275.526 80.256 275.963 80.128C276.374 80.016 276.832 79.92 277.339 79.84C277.851 79.7547 278.368 79.6773 278.891 79.608C279.414 79.5387 279.902 79.472 280.355 79.408L279.843 79.704C279.859 78.936 279.704 78.368 279.379 78C279.059 77.632 278.504 77.448 277.715 77.448C277.192 77.448 276.734 77.568 276.339 77.808C275.95 78.0427 275.675 78.4267 275.515 78.96L274.163 78.552C274.371 77.7947 274.774 77.2 275.371 76.768C275.968 76.336 276.755 76.12 277.731 76.12C278.515 76.12 279.187 76.2613 279.747 76.544C280.312 76.8213 280.718 77.2427 280.963 77.808C281.086 78.0747 281.163 78.3653 281.195 78.68C281.227 78.9893 281.243 79.3147 281.243 79.656V85H279.979V82.928L280.275 83.12C279.95 83.8187 279.494 84.3467 278.907 84.704C278.326 85.0613 277.616 85.24 276.779 85.24ZM276.995 84.048C277.507 84.048 277.95 83.9573 278.323 83.776C278.702 83.5893 279.006 83.3467 279.235 83.048C279.464 82.744 279.614 82.4133 279.683 82.056C279.763 81.7893 279.806 81.4933 279.811 81.168C279.822 80.8373 279.827 80.584 279.827 80.408L280.323 80.624C279.859 80.688 279.403 80.7493 278.955 80.808C278.507 80.8667 278.083 80.9307 277.683 81C277.283 81.064 276.923 81.1413 276.603 81.232C276.368 81.3067 276.147 81.4027 275.939 81.52C275.736 81.6373 275.571 81.7893 275.443 81.976C275.32 82.1573 275.259 82.384 275.259 82.656C275.259 82.8907 275.318 83.1147 275.435 83.328C275.558 83.5413 275.744 83.7147 275.995 83.848C276.251 83.9813 276.584 84.048 276.995 84.048ZM288.725 85V80.672C288.725 80.2613 288.688 79.8667 288.613 79.488C288.544 79.1093 288.418 78.7707 288.237 78.472C288.061 78.168 287.821 77.928 287.517 77.752C287.218 77.576 286.84 77.488 286.381 77.488C286.024 77.488 285.698 77.5493 285.405 77.672C285.117 77.7893 284.869 77.9707 284.661 78.216C284.453 78.4613 284.29 78.7707 284.173 79.144C284.061 79.512 284.005 79.9467 284.005 80.448L283.069 80.16C283.069 79.3227 283.218 78.6053 283.517 78.008C283.821 77.4053 284.245 76.944 284.789 76.624C285.338 76.2987 285.984 76.136 286.725 76.136C287.285 76.136 287.762 76.224 288.157 76.4C288.552 76.576 288.88 76.8107 289.141 77.104C289.402 77.392 289.608 77.7173 289.757 78.08C289.906 78.4373 290.01 78.8027 290.069 79.176C290.133 79.544 290.165 79.8933 290.165 80.224V85H288.725ZM282.565 85V76.36H283.845V78.672H284.005V85H282.565ZM293.951 85.24C293.306 85.24 292.764 85.1227 292.327 84.888C291.895 84.648 291.567 84.3333 291.343 83.944C291.124 83.5547 291.015 83.128 291.015 82.664C291.015 82.2107 291.1 81.8187 291.271 81.488C291.447 81.152 291.692 80.8747 292.007 80.656C292.322 80.432 292.698 80.256 293.135 80.128C293.546 80.016 294.004 79.92 294.511 79.84C295.023 79.7547 295.54 79.6773 296.063 79.608C296.586 79.5387 297.074 79.472 297.527 79.408L297.015 79.704C297.031 78.936 296.876 78.368 296.551 78C296.231 77.632 295.676 77.448 294.887 77.448C294.364 77.448 293.906 77.568 293.511 77.808C293.122 78.0427 292.847 78.4267 292.687 78.96L291.335 78.552C291.543 77.7947 291.946 77.2 292.543 76.768C293.14 76.336 293.927 76.12 294.903 76.12C295.687 76.12 296.359 76.2613 296.919 76.544C297.484 76.8213 297.89 77.2427 298.135 77.808C298.258 78.0747 298.335 78.3653 298.367 78.68C298.399 78.9893 298.415 79.3147 298.415 79.656V85H297.151V82.928L297.447 83.12C297.122 83.8187 296.666 84.3467 296.079 84.704C295.498 85.0613 294.788 85.24 293.951 85.24ZM294.167 84.048C294.679 84.048 295.122 83.9573 295.495 83.776C295.874 83.5893 296.178 83.3467 296.407 83.048C296.636 82.744 296.786 82.4133 296.855 82.056C296.935 81.7893 296.978 81.4933 296.983 81.168C296.994 80.8373 296.999 80.584 296.999 80.408L297.495 80.624C297.031 80.688 296.575 80.7493 296.127 80.808C295.679 80.8667 295.255 80.9307 294.855 81C294.455 81.064 294.095 81.1413 293.775 81.232C293.54 81.3067 293.319 81.4027 293.111 81.52C292.908 81.6373 292.743 81.7893 292.615 81.976C292.492 82.1573 292.431 82.384 292.431 82.656C292.431 82.8907 292.49 83.1147 292.607 83.328C292.73 83.5413 292.916 83.7147 293.167 83.848C293.423 83.9813 293.756 84.048 294.167 84.048ZM303.241 89.08C302.788 89.08 302.345 89.0107 301.913 88.872C301.481 88.7333 301.084 88.5227 300.721 88.24C300.364 87.9627 300.065 87.6107 299.825 87.184L301.129 86.496C301.342 86.9173 301.644 87.224 302.033 87.416C302.428 87.608 302.833 87.704 303.249 87.704C303.798 87.704 304.254 87.6027 304.617 87.4C304.98 87.2027 305.246 86.9067 305.417 86.512C305.593 86.1173 305.678 85.6267 305.673 85.04V82.68H305.841V76.36H307.105V85.056C307.105 85.2907 307.097 85.5173 307.081 85.736C307.07 85.9547 307.044 86.1707 307.001 86.384C306.889 86.9973 306.668 87.5013 306.337 87.896C306.006 88.296 305.58 88.592 305.057 88.784C304.534 88.9813 303.929 89.08 303.241 89.08ZM303.137 85.24C302.332 85.24 301.641 85.04 301.065 84.64C300.489 84.2347 300.044 83.688 299.729 83C299.42 82.312 299.265 81.536 299.265 80.672C299.265 79.808 299.42 79.032 299.729 78.344C300.044 77.656 300.489 77.1147 301.065 76.72C301.641 76.32 302.329 76.12 303.129 76.12C303.945 76.12 304.63 76.3173 305.185 76.712C305.74 77.1067 306.158 77.648 306.441 78.336C306.729 79.024 306.873 79.8027 306.873 80.672C306.873 81.5307 306.729 82.3067 306.441 83C306.158 83.688 305.74 84.2347 305.185 84.64C304.63 85.04 303.948 85.24 303.137 85.24ZM303.313 83.936C303.894 83.936 304.372 83.7973 304.745 83.52C305.118 83.2373 305.393 82.8507 305.569 82.36C305.75 81.864 305.841 81.3013 305.841 80.672C305.841 80.032 305.75 79.4693 305.569 78.984C305.393 78.4933 305.121 78.112 304.753 77.84C304.385 77.5627 303.918 77.424 303.353 77.424C302.766 77.424 302.281 77.568 301.897 77.856C301.518 78.144 301.236 78.5333 301.049 79.024C300.868 79.5147 300.777 80.064 300.777 80.672C300.777 81.2853 300.87 81.84 301.057 82.336C301.244 82.8267 301.524 83.216 301.897 83.504C302.276 83.792 302.748 83.936 303.313 83.936ZM312.333 85.24C311.485 85.24 310.743 85.0533 310.109 84.68C309.479 84.3013 308.989 83.776 308.637 83.104C308.285 82.4267 308.109 81.6373 308.109 80.736C308.109 79.792 308.282 78.976 308.629 78.288C308.975 77.5947 309.458 77.0613 310.077 76.688C310.701 76.3093 311.431 76.12 312.269 76.12C313.138 76.12 313.877 76.32 314.485 76.72C315.098 77.12 315.557 77.6907 315.861 78.432C316.17 79.1733 316.303 80.056 316.261 81.08H314.821V80.568C314.805 79.5067 314.589 78.7147 314.173 78.192C313.757 77.664 313.138 77.4 312.317 77.4C311.437 77.4 310.767 77.6827 310.309 78.248C309.85 78.8133 309.621 79.624 309.621 80.68C309.621 81.6987 309.85 82.488 310.309 83.048C310.767 83.608 311.421 83.888 312.269 83.888C312.839 83.888 313.335 83.7573 313.757 83.496C314.178 83.2347 314.509 82.8587 314.749 82.368L316.117 82.84C315.781 83.6027 315.274 84.1947 314.597 84.616C313.925 85.032 313.17 85.24 312.333 85.24ZM309.141 81.08V79.936H315.525V81.08H309.141ZM327.386 85L327.394 79.472C327.394 78.8267 327.22 78.3227 326.874 77.96C326.532 77.592 326.087 77.408 325.538 77.408C325.218 77.408 324.914 77.4827 324.626 77.632C324.338 77.776 324.103 78.0053 323.922 78.32C323.74 78.6293 323.65 79.0267 323.65 79.512L322.898 79.208C322.887 78.5947 323.012 78.0587 323.274 77.6C323.54 77.136 323.903 76.776 324.362 76.52C324.82 76.264 325.338 76.136 325.914 76.136C326.815 76.136 327.524 76.4107 328.042 76.96C328.559 77.504 328.818 78.2373 328.818 79.16L328.81 85H327.386ZM317.05 85V76.36H318.322V78.672H318.482V85H317.05ZM322.226 85L322.234 79.528C322.234 78.8667 322.063 78.3493 321.722 77.976C321.38 77.5973 320.927 77.408 320.362 77.408C319.802 77.408 319.348 77.6 319.002 77.984C318.655 78.368 318.482 78.8773 318.482 79.512L317.73 79.064C317.73 78.504 317.863 78.0027 318.13 77.56C318.396 77.1173 318.759 76.7707 319.218 76.52C319.676 76.264 320.196 76.136 320.778 76.136C321.359 76.136 321.866 76.2587 322.298 76.504C322.73 76.7493 323.063 77.1013 323.298 77.56C323.532 78.0133 323.65 78.5547 323.65 79.184L323.642 85H322.226ZM333.817 85.24C332.969 85.24 332.228 85.0533 331.593 84.68C330.964 84.3013 330.473 83.776 330.121 83.104C329.769 82.4267 329.593 81.6373 329.593 80.736C329.593 79.792 329.766 78.976 330.113 78.288C330.46 77.5947 330.942 77.0613 331.561 76.688C332.185 76.3093 332.916 76.12 333.753 76.12C334.622 76.12 335.361 76.32 335.969 76.72C336.582 77.12 337.041 77.6907 337.345 78.432C337.654 79.1733 337.788 80.056 337.745 81.08H336.305V80.568C336.289 79.5067 336.073 78.7147 335.657 78.192C335.241 77.664 334.622 77.4 333.801 77.4C332.921 77.4 332.252 77.6827 331.793 78.248C331.334 78.8133 331.105 79.624 331.105 80.68C331.105 81.6987 331.334 82.488 331.793 83.048C332.252 83.608 332.905 83.888 333.753 83.888C334.324 83.888 334.82 83.7573 335.241 83.496C335.662 83.2347 335.993 82.8587 336.233 82.368L337.601 82.84C337.265 83.6027 336.758 84.1947 336.081 84.616C335.409 85.032 334.654 85.24 333.817 85.24ZM330.625 81.08V79.936H337.009V81.08H330.625ZM344.694 85V80.672C344.694 80.2613 344.657 79.8667 344.582 79.488C344.513 79.1093 344.387 78.7707 344.206 78.472C344.03 78.168 343.79 77.928 343.486 77.752C343.187 77.576 342.809 77.488 342.35 77.488C341.993 77.488 341.667 77.5493 341.374 77.672C341.086 77.7893 340.838 77.9707 340.63 78.216C340.422 78.4613 340.259 78.7707 340.142 79.144C340.03 79.512 339.974 79.9467 339.974 80.448L339.038 80.16C339.038 79.3227 339.187 78.6053 339.486 78.008C339.79 77.4053 340.214 76.944 340.758 76.624C341.307 76.2987 341.953 76.136 342.694 76.136C343.254 76.136 343.731 76.224 344.126 76.4C344.521 76.576 344.849 76.8107 345.11 77.104C345.371 77.392 345.577 77.7173 345.726 78.08C345.875 78.4373 345.979 78.8027 346.038 79.176C346.102 79.544 346.134 79.8933 346.134 80.224V85H344.694ZM338.534 85V76.36H339.814V78.672H339.974V85H338.534ZM352.288 85C351.776 85.1013 351.269 85.1413 350.768 85.12C350.272 85.104 349.829 85.0053 349.44 84.824C349.05 84.6373 348.754 84.3493 348.552 83.96C348.381 83.6187 348.288 83.2747 348.272 82.928C348.261 82.576 348.256 82.1787 348.256 81.736V73.96H349.68V81.672C349.68 82.024 349.682 82.3253 349.688 82.576C349.698 82.8267 349.754 83.0427 349.856 83.224C350.048 83.5653 350.352 83.7653 350.768 83.824C351.189 83.8827 351.696 83.8667 352.288 83.776V85ZM346.504 77.536V76.36H352.288V77.536H346.504ZM357.585 85L354.945 76.352L356.361 76.36L358.289 82.68L360.233 76.36H361.489L363.425 82.68L365.361 76.36H366.769L364.129 85H362.945L360.857 78.432L358.769 85H357.585ZM367.624 74.832V73.36H369.048V74.832H367.624ZM367.624 85V76.36H369.048V85H367.624ZM375.522 85C375.01 85.1013 374.503 85.1413 374.002 85.12C373.506 85.104 373.063 85.0053 372.674 84.824C372.285 84.6373 371.989 84.3493 371.786 83.96C371.615 83.6187 371.522 83.2747 371.506 82.928C371.495 82.576 371.49 82.1787 371.49 81.736V73.96H372.914V81.672C372.914 82.024 372.917 82.3253 372.922 82.576C372.933 82.8267 372.989 83.0427 373.09 83.224C373.282 83.5653 373.586 83.7653 374.002 83.824C374.423 83.8827 374.93 83.8667 375.522 83.776V85ZM369.738 77.536V76.36H375.522V77.536H369.738ZM382.678 85V80.672C382.678 80.2613 382.641 79.8667 382.566 79.488C382.497 79.1093 382.372 78.7707 382.19 78.472C382.014 78.168 381.774 77.928 381.47 77.752C381.172 77.576 380.793 77.488 380.334 77.488C379.977 77.488 379.652 77.5493 379.358 77.672C379.07 77.7893 378.822 77.9707 378.614 78.216C378.406 78.4613 378.244 78.7707 378.126 79.144C378.014 79.512 377.958 79.9467 377.958 80.448L377.022 80.16C377.022 79.3227 377.172 78.6053 377.47 78.008C377.774 77.4053 378.198 76.944 378.742 76.624C379.292 76.2987 379.937 76.136 380.678 76.136C381.238 76.136 381.716 76.224 382.11 76.4C382.505 76.576 382.833 76.8107 383.094 77.104C383.356 77.392 383.561 77.7173 383.71 78.08C383.86 78.4373 383.964 78.8027 384.022 79.176C384.086 79.544 384.118 79.8933 384.118 80.224V85H382.678ZM376.518 85V73.48H377.798V79.84H377.958V85H376.518ZM391.541 85.24C390.667 85.24 389.923 85.0453 389.309 84.656C388.701 84.2613 388.237 83.72 387.917 83.032C387.597 82.344 387.432 81.56 387.421 80.68C387.432 79.7787 387.6 78.9867 387.925 78.304C388.256 77.616 388.728 77.08 389.341 76.696C389.955 76.312 390.693 76.12 391.557 76.12C392.469 76.12 393.253 76.344 393.909 76.792C394.571 77.24 395.013 77.8533 395.237 78.632L393.829 79.056C393.648 78.5547 393.352 78.1653 392.941 77.888C392.536 77.6107 392.069 77.472 391.541 77.472C390.949 77.472 390.461 77.6107 390.077 77.888C389.693 78.16 389.408 78.5387 389.221 79.024C389.035 79.504 388.939 80.056 388.933 80.68C388.944 81.64 389.165 82.416 389.597 83.008C390.035 83.5947 390.683 83.888 391.541 83.888C392.107 83.888 392.576 83.76 392.949 83.504C393.323 83.2427 393.605 82.8667 393.797 82.376L395.237 82.752C394.939 83.5573 394.472 84.1733 393.837 84.6C393.203 85.0267 392.437 85.24 391.541 85.24ZM399.4 85.224C398.845 85.224 398.368 85.136 397.968 84.96C397.573 84.784 397.245 84.5493 396.984 84.256C396.723 83.9627 396.517 83.6373 396.368 83.28C396.219 82.9227 396.112 82.5573 396.048 82.184C395.989 81.8107 395.96 81.4613 395.96 81.136V76.36H397.4V80.688C397.4 81.0933 397.437 81.4853 397.512 81.864C397.587 82.2427 397.712 82.584 397.888 82.888C398.069 83.192 398.309 83.432 398.608 83.608C398.912 83.784 399.291 83.872 399.744 83.872C400.101 83.872 400.427 83.8107 400.72 83.688C401.013 83.5653 401.264 83.384 401.472 83.144C401.68 82.8987 401.84 82.5893 401.952 82.216C402.064 81.8427 402.12 81.408 402.12 80.912L403.056 81.2C403.056 82.032 402.904 82.7493 402.6 83.352C402.301 83.9547 401.877 84.4187 401.328 84.744C400.784 85.064 400.141 85.224 399.4 85.224ZM402.28 85V82.688H402.12V76.36H403.552V85H402.28ZM409.866 85C409.354 85.1013 408.847 85.1413 408.346 85.12C407.85 85.104 407.407 85.0053 407.018 84.824C406.629 84.6373 406.333 84.3493 406.13 83.96C405.959 83.6187 405.866 83.2747 405.85 82.928C405.839 82.576 405.834 82.1787 405.834 81.736V73.96H407.258V81.672C407.258 82.024 407.261 82.3253 407.266 82.576C407.277 82.8267 407.333 83.0427 407.434 83.224C407.626 83.5653 407.93 83.7653 408.346 83.824C408.767 83.8827 409.274 83.8667 409.866 83.776V85ZM404.082 77.536V76.36H409.866V77.536H404.082ZM415.49 85C414.978 85.1013 414.471 85.1413 413.97 85.12C413.474 85.104 413.031 85.0053 412.642 84.824C412.253 84.6373 411.957 84.3493 411.754 83.96C411.583 83.6187 411.49 83.2747 411.474 82.928C411.463 82.576 411.458 82.1787 411.458 81.736V73.96H412.882V81.672C412.882 82.024 412.885 82.3253 412.89 82.576C412.901 82.8267 412.957 83.0427 413.058 83.224C413.25 83.5653 413.554 83.7653 413.97 83.824C414.391 83.8827 414.898 83.8667 415.49 83.776V85ZM409.706 77.536V76.36H415.49V77.536H409.706ZM416.655 74.832V73.36H418.079V74.832H416.655ZM416.655 85V76.36H418.079V85H416.655ZM425.881 85V80.672C425.881 80.2613 425.844 79.8667 425.769 79.488C425.7 79.1093 425.575 78.7707 425.393 78.472C425.217 78.168 424.977 77.928 424.673 77.752C424.375 77.576 423.996 77.488 423.537 77.488C423.18 77.488 422.855 77.5493 422.561 77.672C422.273 77.7893 422.025 77.9707 421.817 78.216C421.609 78.4613 421.447 78.7707 421.329 79.144C421.217 79.512 421.161 79.9467 421.161 80.448L420.225 80.16C420.225 79.3227 420.375 78.6053 420.673 78.008C420.977 77.4053 421.401 76.944 421.945 76.624C422.495 76.2987 423.14 76.136 423.881 76.136C424.441 76.136 424.919 76.224 425.313 76.4C425.708 76.576 426.036 76.8107 426.297 77.104C426.559 77.392 426.764 77.7173 426.913 78.08C427.063 78.4373 427.167 78.8027 427.225 79.176C427.289 79.544 427.321 79.8933 427.321 80.224V85H425.881ZM419.721 85V76.36H421.001V78.672H421.161V85H419.721ZM432.147 89.08C431.694 89.08 431.251 89.0107 430.819 88.872C430.387 88.7333 429.99 88.5227 429.627 88.24C429.27 87.9627 428.971 87.6107 428.731 87.184L430.035 86.496C430.249 86.9173 430.55 87.224 430.939 87.416C431.334 87.608 431.739 87.704 432.155 87.704C432.705 87.704 433.161 87.6027 433.523 87.4C433.886 87.2027 434.153 86.9067 434.323 86.512C434.499 86.1173 434.585 85.6267 434.579 85.04V82.68H434.747V76.36H436.011V85.056C436.011 85.2907 436.003 85.5173 435.987 85.736C435.977 85.9547 435.95 86.1707 435.907 86.384C435.795 86.9973 435.574 87.5013 435.243 87.896C434.913 88.296 434.486 88.592 433.963 88.784C433.441 88.9813 432.835 89.08 432.147 89.08ZM432.043 85.24C431.238 85.24 430.547 85.04 429.971 84.64C429.395 84.2347 428.95 83.688 428.635 83C428.326 82.312 428.171 81.536 428.171 80.672C428.171 79.808 428.326 79.032 428.635 78.344C428.95 77.656 429.395 77.1147 429.971 76.72C430.547 76.32 431.235 76.12 432.035 76.12C432.851 76.12 433.537 76.3173 434.091 76.712C434.646 77.1067 435.065 77.648 435.347 78.336C435.635 79.024 435.779 79.8027 435.779 80.672C435.779 81.5307 435.635 82.3067 435.347 83C435.065 83.688 434.646 84.2347 434.091 84.64C433.537 85.04 432.854 85.24 432.043 85.24ZM432.219 83.936C432.801 83.936 433.278 83.7973 433.651 83.52C434.025 83.2373 434.299 82.8507 434.475 82.36C434.657 81.864 434.747 81.3013 434.747 80.672C434.747 80.032 434.657 79.4693 434.475 78.984C434.299 78.4933 434.027 78.112 433.659 77.84C433.291 77.5627 432.825 77.424 432.259 77.424C431.673 77.424 431.187 77.568 430.803 77.856C430.425 78.144 430.142 78.5333 429.955 79.024C429.774 79.5147 429.683 80.064 429.683 80.672C429.683 81.2853 429.777 81.84 429.963 82.336C430.15 82.8267 430.43 83.216 430.803 83.504C431.182 83.792 431.654 83.936 432.219 83.936ZM437.335 80.544V79.368H442.135V80.544H437.335ZM447.208 85.24C446.36 85.24 445.618 85.0533 444.984 84.68C444.354 84.3013 443.864 83.776 443.512 83.104C443.16 82.4267 442.984 81.6373 442.984 80.736C442.984 79.792 443.157 78.976 443.504 78.288C443.85 77.5947 444.333 77.0613 444.952 76.688C445.576 76.3093 446.306 76.12 447.144 76.12C448.013 76.12 448.752 76.32 449.36 76.72C449.973 77.12 450.432 77.6907 450.736 78.432C451.045 79.1733 451.178 80.056 451.136 81.08H449.696V80.568C449.68 79.5067 449.464 78.7147 449.048 78.192C448.632 77.664 448.013 77.4 447.192 77.4C446.312 77.4 445.642 77.6827 445.184 78.248C444.725 78.8133 444.496 79.624 444.496 80.68C444.496 81.6987 444.725 82.488 445.184 83.048C445.642 83.608 446.296 83.888 447.144 83.888C447.714 83.888 448.21 83.7573 448.632 83.496C449.053 83.2347 449.384 82.8587 449.624 82.368L450.992 82.84C450.656 83.6027 450.149 84.1947 449.472 84.616C448.8 85.032 448.045 85.24 447.208 85.24ZM444.016 81.08V79.936H450.4V81.08H444.016ZM455.559 85.24C454.754 85.24 454.063 85.04 453.487 84.64C452.911 84.2347 452.466 83.688 452.151 83C451.842 82.312 451.687 81.536 451.687 80.672C451.687 79.808 451.842 79.032 452.151 78.344C452.466 77.656 452.911 77.1147 453.487 76.72C454.063 76.32 454.751 76.12 455.551 76.12C456.367 76.12 457.052 76.3173 457.607 76.712C458.162 77.1067 458.58 77.648 458.863 78.336C459.151 79.024 459.295 79.8027 459.295 80.672C459.295 81.5307 459.151 82.3067 458.863 83C458.58 83.688 458.162 84.2347 457.607 84.64C457.052 85.04 456.37 85.24 455.559 85.24ZM455.735 83.936C456.316 83.936 456.794 83.7973 457.167 83.52C457.54 83.2373 457.815 82.8507 457.991 82.36C458.172 81.864 458.263 81.3013 458.263 80.672C458.263 80.032 458.172 79.4693 457.991 78.984C457.815 78.4933 457.543 78.112 457.175 77.84C456.807 77.5627 456.34 77.424 455.775 77.424C455.188 77.424 454.703 77.568 454.319 77.856C453.94 78.144 453.658 78.5333 453.471 79.024C453.29 79.5147 453.199 80.064 453.199 80.672C453.199 81.2853 453.292 81.84 453.479 82.336C453.666 82.8267 453.946 83.216 454.319 83.504C454.698 83.792 455.17 83.936 455.735 83.936ZM458.263 85V78.64H458.103V73.48H459.535V85H458.263ZM464.522 89.08C464.069 89.08 463.626 89.0107 463.194 88.872C462.762 88.7333 462.365 88.5227 462.002 88.24C461.645 87.9627 461.346 87.6107 461.106 87.184L462.41 86.496C462.624 86.9173 462.925 87.224 463.314 87.416C463.709 87.608 464.114 87.704 464.53 87.704C465.08 87.704 465.536 87.6027 465.898 87.4C466.261 87.2027 466.528 86.9067 466.698 86.512C466.874 86.1173 466.96 85.6267 466.954 85.04V82.68H467.122V76.36H468.386V85.056C468.386 85.2907 468.378 85.5173 468.362 85.736C468.352 85.9547 468.325 86.1707 468.282 86.384C468.17 86.9973 467.949 87.5013 467.618 87.896C467.288 88.296 466.861 88.592 466.338 88.784C465.816 88.9813 465.21 89.08 464.522 89.08ZM464.418 85.24C463.613 85.24 462.922 85.04 462.346 84.64C461.77 84.2347 461.325 83.688 461.01 83C460.701 82.312 460.546 81.536 460.546 80.672C460.546 79.808 460.701 79.032 461.01 78.344C461.325 77.656 461.77 77.1147 462.346 76.72C462.922 76.32 463.61 76.12 464.41 76.12C465.226 76.12 465.912 76.3173 466.466 76.712C467.021 77.1067 467.44 77.648 467.722 78.336C468.01 79.024 468.154 79.8027 468.154 80.672C468.154 81.5307 468.01 82.3067 467.722 83C467.44 83.688 467.021 84.2347 466.466 84.64C465.912 85.04 465.229 85.24 464.418 85.24ZM464.594 83.936C465.176 83.936 465.653 83.7973 466.026 83.52C466.4 83.2373 466.674 82.8507 466.85 82.36C467.032 81.864 467.122 81.3013 467.122 80.672C467.122 80.032 467.032 79.4693 466.85 78.984C466.674 78.4933 466.402 78.112 466.034 77.84C465.666 77.5627 465.2 77.424 464.634 77.424C464.048 77.424 463.562 77.568 463.178 77.856C462.8 78.144 462.517 78.5333 462.33 79.024C462.149 79.5147 462.058 80.064 462.058 80.672C462.058 81.2853 462.152 81.84 462.338 82.336C462.525 82.8267 462.805 83.216 463.178 83.504C463.557 83.792 464.029 83.936 464.594 83.936ZM473.614 85.24C472.766 85.24 472.025 85.0533 471.39 84.68C470.761 84.3013 470.27 83.776 469.918 83.104C469.566 82.4267 469.39 81.6373 469.39 80.736C469.39 79.792 469.563 78.976 469.91 78.288C470.257 77.5947 470.739 77.0613 471.358 76.688C471.982 76.3093 472.713 76.12 473.55 76.12C474.419 76.12 475.158 76.32 475.766 76.72C476.379 77.12 476.838 77.6907 477.142 78.432C477.451 79.1733 477.585 80.056 477.542 81.08H476.102V80.568C476.086 79.5067 475.87 78.7147 475.454 78.192C475.038 77.664 474.419 77.4 473.598 77.4C472.718 77.4 472.049 77.6827 471.59 78.248C471.131 78.8133 470.902 79.624 470.902 80.68C470.902 81.6987 471.131 82.488 471.59 83.048C472.049 83.608 472.702 83.888 473.55 83.888C474.121 83.888 474.617 83.7573 475.038 83.496C475.459 83.2347 475.79 82.8587 476.03 82.368L477.398 82.84C477.062 83.6027 476.555 84.1947 475.878 84.616C475.206 85.032 474.451 85.24 473.614 85.24ZM470.422 81.08V79.936H476.806V81.08H470.422ZM485.85 85C485.338 85.1013 484.832 85.1413 484.33 85.12C483.834 85.104 483.392 85.0053 483.002 84.824C482.613 84.6373 482.317 84.3493 482.114 83.96C481.944 83.6187 481.85 83.2747 481.834 82.928C481.824 82.576 481.818 82.1787 481.818 81.736V73.96H483.242V81.672C483.242 82.024 483.245 82.3253 483.25 82.576C483.261 82.8267 483.317 83.0427 483.418 83.224C483.61 83.5653 483.914 83.7653 484.33 83.824C484.752 83.8827 485.258 83.8667 485.85 83.776V85ZM480.066 77.536V76.36H485.85V77.536H480.066ZM490.239 85.24C489.391 85.24 488.65 85.0533 488.015 84.68C487.386 84.3013 486.895 83.776 486.543 83.104C486.191 82.4267 486.015 81.6373 486.015 80.736C486.015 79.792 486.188 78.976 486.535 78.288C486.882 77.5947 487.364 77.0613 487.983 76.688C488.607 76.3093 489.338 76.12 490.175 76.12C491.044 76.12 491.783 76.32 492.391 76.72C493.004 77.12 493.463 77.6907 493.767 78.432C494.076 79.1733 494.21 80.056 494.167 81.08H492.727V80.568C492.711 79.5067 492.495 78.7147 492.079 78.192C491.663 77.664 491.044 77.4 490.223 77.4C489.343 77.4 488.674 77.6827 488.215 78.248C487.756 78.8133 487.527 79.624 487.527 80.68C487.527 81.6987 487.756 82.488 488.215 83.048C488.674 83.608 489.327 83.888 490.175 83.888C490.746 83.888 491.242 83.7573 491.663 83.496C492.084 83.2347 492.415 82.8587 492.655 82.368L494.023 82.84C493.687 83.6027 493.18 84.1947 492.503 84.616C491.831 85.032 491.076 85.24 490.239 85.24ZM487.047 81.08V79.936H493.431V81.08H487.047ZM498.838 85.24C497.963 85.24 497.219 85.0453 496.606 84.656C495.998 84.2613 495.534 83.72 495.214 83.032C494.894 82.344 494.729 81.56 494.718 80.68C494.729 79.7787 494.897 78.9867 495.222 78.304C495.553 77.616 496.025 77.08 496.638 76.696C497.251 76.312 497.99 76.12 498.854 76.12C499.766 76.12 500.55 76.344 501.206 76.792C501.867 77.24 502.31 77.8533 502.534 78.632L501.126 79.056C500.945 78.5547 500.649 78.1653 500.238 77.888C499.833 77.6107 499.366 77.472 498.838 77.472C498.246 77.472 497.758 77.6107 497.374 77.888C496.99 78.16 496.705 78.5387 496.518 79.024C496.331 79.504 496.235 80.056 496.23 80.68C496.241 81.64 496.462 82.416 496.894 83.008C497.331 83.5947 497.979 83.888 498.838 83.888C499.403 83.888 499.873 83.76 500.246 83.504C500.619 83.2427 500.902 82.8667 501.094 82.376L502.534 82.752C502.235 83.5573 501.769 84.1733 501.134 84.6C500.499 85.0267 499.734 85.24 498.838 85.24ZM509.569 85V80.672C509.569 80.2613 509.532 79.8667 509.457 79.488C509.388 79.1093 509.262 78.7707 509.081 78.472C508.905 78.168 508.665 77.928 508.361 77.752C508.062 77.576 507.684 77.488 507.225 77.488C506.868 77.488 506.542 77.5493 506.249 77.672C505.961 77.7893 505.713 77.9707 505.505 78.216C505.297 78.4613 505.134 78.7707 505.017 79.144C504.905 79.512 504.849 79.9467 504.849 80.448L503.913 80.16C503.913 79.3227 504.062 78.6053 504.361 78.008C504.665 77.4053 505.089 76.944 505.633 76.624C506.182 76.2987 506.828 76.136 507.569 76.136C508.129 76.136 508.606 76.224 509.001 76.4C509.396 76.576 509.724 76.8107 509.985 77.104C510.246 77.392 510.452 77.7173 510.601 78.08C510.75 78.4373 510.854 78.8027 510.913 79.176C510.977 79.544 511.009 79.8933 511.009 80.224V85H509.569ZM503.409 85V73.48H504.689V79.84H504.849V85H503.409ZM518.491 85V80.672C518.491 80.2613 518.453 79.8667 518.379 79.488C518.309 79.1093 518.184 78.7707 518.003 78.472C517.827 78.168 517.587 77.928 517.283 77.752C516.984 77.576 516.605 77.488 516.147 77.488C515.789 77.488 515.464 77.5493 515.171 77.672C514.883 77.7893 514.635 77.9707 514.427 78.216C514.219 78.4613 514.056 78.7707 513.939 79.144C513.827 79.512 513.771 79.9467 513.771 80.448L512.835 80.16C512.835 79.3227 512.984 78.6053 513.283 78.008C513.587 77.4053 514.011 76.944 514.555 76.624C515.104 76.2987 515.749 76.136 516.491 76.136C517.051 76.136 517.528 76.224 517.923 76.4C518.317 76.576 518.645 76.8107 518.907 77.104C519.168 77.392 519.373 77.7173 519.523 78.08C519.672 78.4373 519.776 78.8027 519.835 79.176C519.899 79.544 519.931 79.8933 519.931 80.224V85H518.491ZM512.331 85V76.36H513.611V78.672H513.771V85H512.331ZM524.863 85.24C524.004 85.24 523.263 85.0453 522.639 84.656C522.02 84.2667 521.543 83.728 521.207 83.04C520.871 82.352 520.703 81.5627 520.703 80.672C520.703 79.7653 520.873 78.9707 521.215 78.288C521.556 77.6053 522.039 77.0747 522.663 76.696C523.287 76.312 524.02 76.12 524.863 76.12C525.727 76.12 526.471 76.3147 527.095 76.704C527.719 77.088 528.196 77.624 528.527 78.312C528.863 78.9947 529.031 79.7813 529.031 80.672C529.031 81.5733 528.863 82.368 528.527 83.056C528.191 83.7387 527.711 84.2747 527.087 84.664C526.463 85.048 525.721 85.24 524.863 85.24ZM524.863 83.888C525.759 83.888 526.425 83.5893 526.863 82.992C527.3 82.3947 527.519 81.6213 527.519 80.672C527.519 79.696 527.297 78.92 526.855 78.344C526.412 77.7627 525.748 77.472 524.863 77.472C524.26 77.472 523.764 77.608 523.375 77.88C522.985 78.152 522.695 78.528 522.503 79.008C522.311 79.488 522.215 80.0427 522.215 80.672C522.215 81.6427 522.439 82.4213 522.887 83.008C523.335 83.5947 523.993 83.888 524.863 83.888ZM530.202 85V73.24H531.626V85H530.202ZM536.956 85.24C536.098 85.24 535.356 85.0453 534.732 84.656C534.114 84.2667 533.636 83.728 533.3 83.04C532.964 82.352 532.796 81.5627 532.796 80.672C532.796 79.7653 532.967 78.9707 533.308 78.288C533.65 77.6053 534.132 77.0747 534.756 76.696C535.38 76.312 536.114 76.12 536.956 76.12C537.82 76.12 538.564 76.3147 539.188 76.704C539.812 77.088 540.29 77.624 540.62 78.312C540.956 78.9947 541.124 79.7813 541.124 80.672C541.124 81.5733 540.956 82.368 540.62 83.056C540.284 83.7387 539.804 84.2747 539.18 84.664C538.556 85.048 537.815 85.24 536.956 85.24ZM536.956 83.888C537.852 83.888 538.519 83.5893 538.956 82.992C539.394 82.3947 539.612 81.6213 539.612 80.672C539.612 79.696 539.391 78.92 538.948 78.344C538.506 77.7627 537.842 77.472 536.956 77.472C536.354 77.472 535.858 77.608 535.468 77.88C535.079 78.152 534.788 78.528 534.596 79.008C534.404 79.488 534.308 80.0427 534.308 80.672C534.308 81.6427 534.532 82.4213 534.98 83.008C535.428 83.5947 536.087 83.888 536.956 83.888ZM545.632 89.08C545.178 89.08 544.736 89.0107 544.304 88.872C543.872 88.7333 543.474 88.5227 543.112 88.24C542.754 87.9627 542.456 87.6107 542.216 87.184L543.52 86.496C543.733 86.9173 544.034 87.224 544.424 87.416C544.818 87.608 545.224 87.704 545.64 87.704C546.189 87.704 546.645 87.6027 547.008 87.4C547.37 87.2027 547.637 86.9067 547.808 86.512C547.984 86.1173 548.069 85.6267 548.064 85.04V82.68H548.232V76.36H549.496V85.056C549.496 85.2907 549.488 85.5173 549.472 85.736C549.461 85.9547 549.434 86.1707 549.392 86.384C549.28 86.9973 549.058 87.5013 548.728 87.896C548.397 88.296 547.97 88.592 547.448 88.784C546.925 88.9813 546.32 89.08 545.632 89.08ZM545.528 85.24C544.722 85.24 544.032 85.04 543.456 84.64C542.88 84.2347 542.434 83.688 542.12 83C541.81 82.312 541.656 81.536 541.656 80.672C541.656 79.808 541.81 79.032 542.12 78.344C542.434 77.656 542.88 77.1147 543.456 76.72C544.032 76.32 544.72 76.12 545.52 76.12C546.336 76.12 547.021 76.3173 547.576 76.712C548.13 77.1067 548.549 77.648 548.832 78.336C549.12 79.024 549.264 79.8027 549.264 80.672C549.264 81.5307 549.12 82.3067 548.832 83C548.549 83.688 548.13 84.2347 547.576 84.64C547.021 85.04 546.338 85.24 545.528 85.24ZM545.704 83.936C546.285 83.936 546.762 83.7973 547.136 83.52C547.509 83.2373 547.784 82.8507 547.96 82.36C548.141 81.864 548.232 81.3013 548.232 80.672C548.232 80.032 548.141 79.4693 547.96 78.984C547.784 78.4933 547.512 78.112 547.144 77.84C546.776 77.5627 546.309 77.424 545.744 77.424C545.157 77.424 544.672 77.568 544.288 77.856C543.909 78.144 543.626 78.5333 543.44 79.024C543.258 79.5147 543.168 80.064 543.168 80.672C543.168 81.2853 543.261 81.84 543.448 82.336C543.634 82.8267 543.914 83.216 544.288 83.504C544.666 83.792 545.138 83.936 545.704 83.936ZM552.179 88.84L553.851 84.296L553.875 85.64L550.099 76.36H551.595L554.555 83.824H554.043L556.819 76.36H558.267L553.563 88.84H552.179ZM566.116 85C565.604 85.1013 565.097 85.1413 564.596 85.12C564.1 85.104 563.657 85.0053 563.268 84.824C562.879 84.6373 562.583 84.3493 562.38 83.96C562.209 83.6187 562.116 83.2747 562.1 82.928C562.089 82.576 562.084 82.1787 562.084 81.736V73.96H563.508V81.672C563.508 82.024 563.511 82.3253 563.516 82.576C563.527 82.8267 563.583 83.0427 563.684 83.224C563.876 83.5653 564.18 83.7653 564.596 83.824C565.017 83.8827 565.524 83.8667 566.116 83.776V85ZM560.332 77.536V76.36H566.116V77.536H560.332ZM573.272 85V80.672C573.272 80.2613 573.235 79.8667 573.16 79.488C573.091 79.1093 572.965 78.7707 572.784 78.472C572.608 78.168 572.368 77.928 572.064 77.752C571.765 77.576 571.387 77.488 570.928 77.488C570.571 77.488 570.245 77.5493 569.952 77.672C569.664 77.7893 569.416 77.9707 569.208 78.216C569 78.4613 568.837 78.7707 568.72 79.144C568.608 79.512 568.552 79.9467 568.552 80.448L567.616 80.16C567.616 79.3227 567.765 78.6053 568.064 78.008C568.368 77.4053 568.792 76.944 569.336 76.624C569.885 76.2987 570.531 76.136 571.272 76.136C571.832 76.136 572.309 76.224 572.704 76.4C573.099 76.576 573.427 76.8107 573.688 77.104C573.949 77.392 574.155 77.7173 574.304 78.08C574.453 78.4373 574.557 78.8027 574.616 79.176C574.68 79.544 574.712 79.8933 574.712 80.224V85H573.272ZM567.112 85V73.48H568.392V79.84H568.552V85H567.112ZM578.498 85.24C577.853 85.24 577.311 85.1227 576.874 84.888C576.442 84.648 576.114 84.3333 575.89 83.944C575.671 83.5547 575.562 83.128 575.562 82.664C575.562 82.2107 575.647 81.8187 575.818 81.488C575.994 81.152 576.239 80.8747 576.554 80.656C576.869 80.432 577.245 80.256 577.682 80.128C578.093 80.016 578.551 79.92 579.058 79.84C579.57 79.7547 580.087 79.6773 580.61 79.608C581.133 79.5387 581.621 79.472 582.074 79.408L581.562 79.704C581.578 78.936 581.423 78.368 581.098 78C580.778 77.632 580.223 77.448 579.434 77.448C578.911 77.448 578.453 77.568 578.058 77.808C577.669 78.0427 577.394 78.4267 577.234 78.96L575.882 78.552C576.09 77.7947 576.493 77.2 577.09 76.768C577.687 76.336 578.474 76.12 579.45 76.12C580.234 76.12 580.906 76.2613 581.466 76.544C582.031 76.8213 582.437 77.2427 582.682 77.808C582.805 78.0747 582.882 78.3653 582.914 78.68C582.946 78.9893 582.962 79.3147 582.962 79.656V85H581.698V82.928L581.994 83.12C581.669 83.8187 581.213 84.3467 580.626 84.704C580.045 85.0613 579.335 85.24 578.498 85.24ZM578.714 84.048C579.226 84.048 579.669 83.9573 580.042 83.776C580.421 83.5893 580.725 83.3467 580.954 83.048C581.183 82.744 581.333 82.4133 581.402 82.056C581.482 81.7893 581.525 81.4933 581.53 81.168C581.541 80.8373 581.546 80.584 581.546 80.408L582.042 80.624C581.578 80.688 581.122 80.7493 580.674 80.808C580.226 80.8667 579.802 80.9307 579.402 81C579.002 81.064 578.642 81.1413 578.322 81.232C578.087 81.3067 577.866 81.4027 577.658 81.52C577.455 81.6373 577.29 81.7893 577.162 81.976C577.039 82.1573 576.978 82.384 576.978 82.656C576.978 82.8907 577.037 83.1147 577.154 83.328C577.277 83.5413 577.463 83.7147 577.714 83.848C577.97 83.9813 578.303 84.048 578.714 84.048ZM589.116 85C588.604 85.1013 588.097 85.1413 587.596 85.12C587.1 85.104 586.657 85.0053 586.268 84.824C585.879 84.6373 585.583 84.3493 585.38 83.96C585.209 83.6187 585.116 83.2747 585.1 82.928C585.089 82.576 585.084 82.1787 585.084 81.736V73.96H586.508V81.672C586.508 82.024 586.511 82.3253 586.516 82.576C586.527 82.8267 586.583 83.0427 586.684 83.224C586.876 83.5653 587.18 83.7653 587.596 83.824C588.017 83.8827 588.524 83.8667 589.116 83.776V85ZM583.332 77.536V76.36H589.116V77.536H583.332ZM330.942 107.24C330.094 107.24 329.353 107.053 328.718 106.68C328.089 106.301 327.598 105.776 327.246 105.104C326.894 104.427 326.718 103.637 326.718 102.736C326.718 101.792 326.891 100.976 327.238 100.288C327.585 99.5947 328.067 99.0613 328.686 98.688C329.31 98.3093 330.041 98.12 330.878 98.12C331.747 98.12 332.486 98.32 333.094 98.72C333.707 99.12 334.166 99.6907 334.47 100.432C334.779 101.173 334.913 102.056 334.87 103.08H333.43V102.568C333.414 101.507 333.198 100.715 332.782 100.192C332.366 99.664 331.747 99.4 330.926 99.4C330.046 99.4 329.377 99.6827 328.918 100.248C328.459 100.813 328.23 101.624 328.23 102.68C328.23 103.699 328.459 104.488 328.918 105.048C329.377 105.608 330.03 105.888 330.878 105.888C331.449 105.888 331.945 105.757 332.366 105.496C332.787 105.235 333.118 104.859 333.358 104.368L334.726 104.84C334.39 105.603 333.883 106.195 333.206 106.616C332.534 107.032 331.779 107.24 330.942 107.24ZM327.75 103.08V101.936H334.134V103.08H327.75ZM341.819 107V102.672C341.819 102.261 341.782 101.867 341.707 101.488C341.638 101.109 341.512 100.771 341.331 100.472C341.155 100.168 340.915 99.928 340.611 99.752C340.312 99.576 339.934 99.488 339.475 99.488C339.118 99.488 338.792 99.5493 338.499 99.672C338.211 99.7893 337.963 99.9707 337.755 100.216C337.547 100.461 337.384 100.771 337.267 101.144C337.155 101.512 337.099 101.947 337.099 102.448L336.163 102.16C336.163 101.323 336.312 100.605 336.611 100.008C336.915 99.4053 337.339 98.944 337.883 98.624C338.432 98.2987 339.078 98.136 339.819 98.136C340.379 98.136 340.856 98.224 341.251 98.4C341.646 98.576 341.974 98.8107 342.235 99.104C342.496 99.392 342.702 99.7173 342.851 100.08C343 100.437 343.104 100.803 343.163 101.176C343.227 101.544 343.259 101.893 343.259 102.224V107H341.819ZM335.659 107V98.36H336.939V100.672H337.099V107H335.659ZM347.853 107.232C346.823 107.232 345.978 107.008 345.317 106.56C344.661 106.107 344.258 105.475 344.109 104.664L345.565 104.432C345.682 104.901 345.951 105.275 346.373 105.552C346.794 105.824 347.317 105.96 347.941 105.96C348.533 105.96 348.997 105.837 349.333 105.592C349.669 105.347 349.837 105.013 349.837 104.592C349.837 104.347 349.781 104.149 349.669 104C349.557 103.845 349.325 103.701 348.973 103.568C348.626 103.435 348.101 103.275 347.397 103.088C346.634 102.885 346.034 102.675 345.597 102.456C345.159 102.237 344.847 101.984 344.661 101.696C344.474 101.408 344.381 101.059 344.381 100.648C344.381 100.141 344.519 99.6987 344.797 99.32C345.074 98.936 345.461 98.64 345.957 98.432C346.458 98.224 347.039 98.12 347.701 98.12C348.357 98.12 348.943 98.224 349.461 98.432C349.978 98.64 350.394 98.936 350.709 99.32C351.029 99.6987 351.218 100.141 351.277 100.648L349.821 100.912C349.751 100.448 349.527 100.083 349.149 99.816C348.775 99.5493 348.293 99.408 347.701 99.392C347.141 99.3707 346.685 99.4693 346.333 99.688C345.986 99.9067 345.813 100.203 345.813 100.576C345.813 100.784 345.877 100.963 346.005 101.112C346.138 101.261 346.381 101.403 346.733 101.536C347.09 101.669 347.607 101.821 348.285 101.992C349.047 102.184 349.647 102.395 350.085 102.624C350.527 102.848 350.842 103.115 351.029 103.424C351.215 103.728 351.309 104.104 351.309 104.552C351.309 105.384 351.002 106.04 350.389 106.52C349.775 106.995 348.93 107.232 347.853 107.232ZM355.603 107.224C355.048 107.224 354.571 107.136 354.171 106.96C353.776 106.784 353.448 106.549 353.187 106.256C352.926 105.963 352.72 105.637 352.571 105.28C352.422 104.923 352.315 104.557 352.251 104.184C352.192 103.811 352.163 103.461 352.163 103.136V98.36H353.603V102.688C353.603 103.093 353.64 103.485 353.715 103.864C353.79 104.243 353.915 104.584 354.091 104.888C354.272 105.192 354.512 105.432 354.811 105.608C355.115 105.784 355.494 105.872 355.947 105.872C356.304 105.872 356.63 105.811 356.923 105.688C357.216 105.565 357.467 105.384 357.675 105.144C357.883 104.899 358.043 104.589 358.155 104.216C358.267 103.843 358.323 103.408 358.323 102.912L359.259 103.2C359.259 104.032 359.107 104.749 358.803 105.352C358.504 105.955 358.08 106.419 357.531 106.744C356.987 107.064 356.344 107.224 355.603 107.224ZM358.483 107V104.688H358.323V98.36H359.755V107H358.483ZM361.245 107V98.36H362.517V100.448L362.309 100.176C362.41 99.9093 362.541 99.664 362.701 99.44C362.866 99.216 363.05 99.032 363.253 98.888C363.477 98.7067 363.73 98.568 364.013 98.472C364.296 98.376 364.584 98.32 364.877 98.304C365.17 98.2827 365.445 98.3013 365.701 98.36V99.696C365.402 99.616 365.074 99.5947 364.717 99.632C364.36 99.6693 364.029 99.8 363.725 100.024C363.448 100.221 363.232 100.461 363.077 100.744C362.928 101.027 362.824 101.333 362.765 101.664C362.706 101.989 362.677 102.323 362.677 102.664V107H361.245ZM370.052 107.24C369.204 107.24 368.462 107.053 367.828 106.68C367.198 106.301 366.708 105.776 366.356 105.104C366.004 104.427 365.828 103.637 365.828 102.736C365.828 101.792 366.001 100.976 366.348 100.288C366.694 99.5947 367.177 99.0613 367.796 98.688C368.42 98.3093 369.15 98.12 369.988 98.12C370.857 98.12 371.596 98.32 372.204 98.72C372.817 99.12 373.276 99.6907 373.58 100.432C373.889 101.173 374.022 102.056 373.98 103.08H372.54V102.568C372.524 101.507 372.308 100.715 371.892 100.192C371.476 99.664 370.857 99.4 370.036 99.4C369.156 99.4 368.486 99.6827 368.028 100.248C367.569 100.813 367.34 101.624 367.34 102.68C367.34 103.699 367.569 104.488 368.028 105.048C368.486 105.608 369.14 105.888 369.988 105.888C370.558 105.888 371.054 105.757 371.476 105.496C371.897 105.235 372.228 104.859 372.468 104.368L373.836 104.84C373.5 105.603 372.993 106.195 372.316 106.616C371.644 107.032 370.889 107.24 370.052 107.24ZM366.86 103.08V101.936H373.244V103.08H366.86ZM378.275 107.232C377.245 107.232 376.4 107.008 375.739 106.56C375.083 106.107 374.68 105.475 374.531 104.664L375.987 104.432C376.104 104.901 376.373 105.275 376.795 105.552C377.216 105.824 377.739 105.96 378.363 105.96C378.955 105.96 379.419 105.837 379.755 105.592C380.091 105.347 380.259 105.013 380.259 104.592C380.259 104.347 380.203 104.149 380.091 104C379.979 103.845 379.747 103.701 379.395 103.568C379.048 103.435 378.523 103.275 377.819 103.088C377.056 102.885 376.456 102.675 376.019 102.456C375.581 102.237 375.269 101.984 375.083 101.696C374.896 101.408 374.803 101.059 374.803 100.648C374.803 100.141 374.941 99.6987 375.219 99.32C375.496 98.936 375.883 98.64 376.379 98.432C376.88 98.224 377.461 98.12 378.123 98.12C378.779 98.12 379.365 98.224 379.883 98.432C380.4 98.64 380.816 98.936 381.131 99.32C381.451 99.6987 381.64 100.141 381.699 100.648L380.243 100.912C380.173 100.448 379.949 100.083 379.571 99.816C379.197 99.5493 378.715 99.408 378.123 99.392C377.563 99.3707 377.107 99.4693 376.755 99.688C376.408 99.9067 376.235 100.203 376.235 100.576C376.235 100.784 376.299 100.963 376.427 101.112C376.56 101.261 376.803 101.403 377.155 101.536C377.512 101.669 378.029 101.821 378.707 101.992C379.469 102.184 380.069 102.395 380.507 102.624C380.949 102.848 381.264 103.115 381.451 103.424C381.637 103.728 381.731 104.104 381.731 104.552C381.731 105.384 381.424 106.04 380.811 106.52C380.197 106.995 379.352 107.232 378.275 107.232ZM387.654 107.24C387.009 107.24 386.467 107.123 386.03 106.888C385.598 106.648 385.27 106.333 385.046 105.944C384.827 105.555 384.718 105.128 384.718 104.664C384.718 104.211 384.803 103.819 384.974 103.488C385.15 103.152 385.395 102.875 385.71 102.656C386.025 102.432 386.401 102.256 386.838 102.128C387.249 102.016 387.707 101.92 388.214 101.84C388.726 101.755 389.243 101.677 389.766 101.608C390.289 101.539 390.777 101.472 391.23 101.408L390.718 101.704C390.734 100.936 390.579 100.368 390.254 100C389.934 99.632 389.379 99.448 388.59 99.448C388.067 99.448 387.609 99.568 387.214 99.808C386.825 100.043 386.55 100.427 386.39 100.96L385.038 100.552C385.246 99.7947 385.649 99.2 386.246 98.768C386.843 98.336 387.63 98.12 388.606 98.12C389.39 98.12 390.062 98.2613 390.622 98.544C391.187 98.8213 391.593 99.2427 391.838 99.808C391.961 100.075 392.038 100.365 392.07 100.68C392.102 100.989 392.118 101.315 392.118 101.656V107H390.854V104.928L391.15 105.12C390.825 105.819 390.369 106.347 389.782 106.704C389.201 107.061 388.491 107.24 387.654 107.24ZM387.87 106.048C388.382 106.048 388.825 105.957 389.198 105.776C389.577 105.589 389.881 105.347 390.11 105.048C390.339 104.744 390.489 104.413 390.558 104.056C390.638 103.789 390.681 103.493 390.686 103.168C390.697 102.837 390.702 102.584 390.702 102.408L391.198 102.624C390.734 102.688 390.278 102.749 389.83 102.808C389.382 102.867 388.958 102.931 388.558 103C388.158 103.064 387.798 103.141 387.478 103.232C387.243 103.307 387.022 103.403 386.814 103.52C386.611 103.637 386.446 103.789 386.318 103.976C386.195 104.157 386.134 104.384 386.134 104.656C386.134 104.891 386.193 105.115 386.31 105.328C386.433 105.541 386.619 105.715 386.87 105.848C387.126 105.981 387.459 106.048 387.87 106.048ZM397.088 107.24C396.213 107.24 395.469 107.045 394.856 106.656C394.248 106.261 393.784 105.72 393.464 105.032C393.144 104.344 392.979 103.56 392.968 102.68C392.979 101.779 393.147 100.987 393.472 100.304C393.803 99.616 394.275 99.08 394.888 98.696C395.501 98.312 396.24 98.12 397.104 98.12C398.016 98.12 398.8 98.344 399.456 98.792C400.117 99.24 400.56 99.8533 400.784 100.632L399.376 101.056C399.195 100.555 398.899 100.165 398.488 99.888C398.083 99.6107 397.616 99.472 397.088 99.472C396.496 99.472 396.008 99.6107 395.624 99.888C395.24 100.16 394.955 100.539 394.768 101.024C394.581 101.504 394.485 102.056 394.48 102.68C394.491 103.64 394.712 104.416 395.144 105.008C395.581 105.595 396.229 105.888 397.088 105.888C397.653 105.888 398.123 105.76 398.496 105.504C398.869 105.243 399.152 104.867 399.344 104.376L400.784 104.752C400.485 105.557 400.019 106.173 399.384 106.6C398.749 107.027 397.984 107.24 397.088 107.24ZM405.073 107.24C404.198 107.24 403.454 107.045 402.841 106.656C402.233 106.261 401.769 105.72 401.449 105.032C401.129 104.344 400.963 103.56 400.953 102.68C400.963 101.779 401.131 100.987 401.457 100.304C401.787 99.616 402.259 99.08 402.873 98.696C403.486 98.312 404.225 98.12 405.089 98.12C406.001 98.12 406.785 98.344 407.441 98.792C408.102 99.24 408.545 99.8533 408.769 100.632L407.361 101.056C407.179 100.555 406.883 100.165 406.473 99.888C406.067 99.6107 405.601 99.472 405.073 99.472C404.481 99.472 403.993 99.6107 403.609 99.888C403.225 100.16 402.939 100.539 402.753 101.024C402.566 101.504 402.47 102.056 402.465 102.68C402.475 103.64 402.697 104.416 403.129 105.008C403.566 105.595 404.214 105.888 405.073 105.888C405.638 105.888 406.107 105.76 406.481 105.504C406.854 105.243 407.137 104.867 407.329 104.376L408.769 104.752C408.47 105.557 408.003 106.173 407.369 106.6C406.734 107.027 405.969 107.24 405.073 107.24ZM412.931 107.224C412.377 107.224 411.899 107.136 411.499 106.96C411.105 106.784 410.777 106.549 410.515 106.256C410.254 105.963 410.049 105.637 409.899 105.28C409.75 104.923 409.643 104.557 409.579 104.184C409.521 103.811 409.491 103.461 409.491 103.136V98.36H410.931V102.688C410.931 103.093 410.969 103.485 411.043 103.864C411.118 104.243 411.243 104.584 411.419 104.888C411.601 105.192 411.841 105.432 412.139 105.608C412.443 105.784 412.822 105.872 413.275 105.872C413.633 105.872 413.958 105.811 414.251 105.688C414.545 105.565 414.795 105.384 415.003 105.144C415.211 104.899 415.371 104.589 415.483 104.216C415.595 103.843 415.651 103.408 415.651 102.912L416.587 103.2C416.587 104.032 416.435 104.749 416.131 105.352C415.833 105.955 415.409 106.419 414.859 106.744C414.315 107.064 413.673 107.224 412.931 107.224ZM415.811 107V104.688H415.651V98.36H417.083V107H415.811ZM418.573 107V98.36H419.845V100.448L419.637 100.176C419.738 99.9093 419.869 99.664 420.029 99.44C420.194 99.216 420.378 99.032 420.581 98.888C420.805 98.7067 421.058 98.568 421.341 98.472C421.624 98.376 421.912 98.32 422.205 98.304C422.498 98.2827 422.773 98.3013 423.029 98.36V99.696C422.73 99.616 422.402 99.5947 422.045 99.632C421.688 99.6693 421.357 99.8 421.053 100.024C420.776 100.221 420.56 100.461 420.405 100.744C420.256 101.027 420.152 101.333 420.093 101.664C420.034 101.989 420.005 102.323 420.005 102.664V107H418.573ZM425.967 107.24C425.321 107.24 424.78 107.123 424.343 106.888C423.911 106.648 423.583 106.333 423.359 105.944C423.14 105.555 423.031 105.128 423.031 104.664C423.031 104.211 423.116 103.819 423.287 103.488C423.463 103.152 423.708 102.875 424.023 102.656C424.337 102.432 424.713 102.256 425.151 102.128C425.561 102.016 426.02 101.92 426.527 101.84C427.039 101.755 427.556 101.677 428.079 101.608C428.601 101.539 429.089 101.472 429.543 101.408L429.031 101.704C429.047 100.936 428.892 100.368 428.567 100C428.247 99.632 427.692 99.448 426.903 99.448C426.38 99.448 425.921 99.568 425.527 99.808C425.137 100.043 424.863 100.427 424.703 100.96L423.351 100.552C423.559 99.7947 423.961 99.2 424.559 98.768C425.156 98.336 425.943 98.12 426.919 98.12C427.703 98.12 428.375 98.2613 428.935 98.544C429.5 98.8213 429.905 99.2427 430.151 99.808C430.273 100.075 430.351 100.365 430.383 100.68C430.415 100.989 430.431 101.315 430.431 101.656V107H429.167V104.928L429.463 105.12C429.137 105.819 428.681 106.347 428.095 106.704C427.513 107.061 426.804 107.24 425.967 107.24ZM426.183 106.048C426.695 106.048 427.137 105.957 427.511 105.776C427.889 105.589 428.193 105.347 428.423 105.048C428.652 104.744 428.801 104.413 428.871 104.056C428.951 103.789 428.993 103.493 428.999 103.168C429.009 102.837 429.015 102.584 429.015 102.408L429.511 102.624C429.047 102.688 428.591 102.749 428.143 102.808C427.695 102.867 427.271 102.931 426.871 103C426.471 103.064 426.111 103.141 425.791 103.232C425.556 103.307 425.335 103.403 425.127 103.52C424.924 103.637 424.759 103.789 424.631 103.976C424.508 104.157 424.447 104.384 424.447 104.656C424.447 104.891 424.505 105.115 424.623 105.328C424.745 105.541 424.932 105.715 425.183 105.848C425.439 105.981 425.772 106.048 426.183 106.048ZM435.401 107.24C434.526 107.24 433.782 107.045 433.169 106.656C432.561 106.261 432.097 105.72 431.777 105.032C431.457 104.344 431.291 103.56 431.281 102.68C431.291 101.779 431.459 100.987 431.785 100.304C432.115 99.616 432.587 99.08 433.201 98.696C433.814 98.312 434.553 98.12 435.417 98.12C436.329 98.12 437.113 98.344 437.769 98.792C438.43 99.24 438.873 99.8533 439.097 100.632L437.689 101.056C437.507 100.555 437.211 100.165 436.801 99.888C436.395 99.6107 435.929 99.472 435.401 99.472C434.809 99.472 434.321 99.6107 433.937 99.888C433.553 100.16 433.267 100.539 433.081 101.024C432.894 101.504 432.798 102.056 432.793 102.68C432.803 103.64 433.025 104.416 433.457 105.008C433.894 105.595 434.542 105.888 435.401 105.888C435.966 105.888 436.435 105.76 436.809 105.504C437.182 105.243 437.465 104.867 437.657 104.376L439.097 104.752C438.798 105.557 438.331 106.173 437.697 106.6C437.062 107.027 436.297 107.24 435.401 107.24ZM440.867 110.84L442.539 106.296L442.563 107.64L438.787 98.36H440.283L443.243 105.824H442.731L445.507 98.36H446.955L442.251 110.84H440.867ZM446.085 108.792L446.173 108.128C446.397 108.144 446.565 108.101 446.677 108C446.789 107.899 446.861 107.76 446.893 107.584C446.925 107.408 446.93 107.213 446.909 107H446.085V105.192H447.653V107.24C447.653 107.8 447.514 108.221 447.237 108.504C446.965 108.787 446.581 108.883 446.085 108.792ZM456.145 107.24C455.297 107.24 454.556 107.053 453.921 106.68C453.292 106.301 452.801 105.776 452.449 105.104C452.097 104.427 451.921 103.637 451.921 102.736C451.921 101.792 452.095 100.976 452.441 100.288C452.788 99.5947 453.271 99.0613 453.889 98.688C454.513 98.3093 455.244 98.12 456.081 98.12C456.951 98.12 457.689 98.32 458.297 98.72C458.911 99.12 459.369 99.6907 459.673 100.432C459.983 101.173 460.116 102.056 460.073 103.08H458.633V102.568C458.617 101.507 458.401 100.715 457.985 100.192C457.569 99.664 456.951 99.4 456.129 99.4C455.249 99.4 454.58 99.6827 454.121 100.248C453.663 100.813 453.433 101.624 453.433 102.68C453.433 103.699 453.663 104.488 454.121 105.048C454.58 105.608 455.233 105.888 456.081 105.888C456.652 105.888 457.148 105.757 457.569 105.496C457.991 105.235 458.321 104.859 458.561 104.368L459.929 104.84C459.593 105.603 459.087 106.195 458.409 106.616C457.737 107.032 456.983 107.24 456.145 107.24ZM452.953 103.08V101.936H459.337V103.08H452.953ZM461.928 107V97.888C461.928 97.664 461.939 97.4373 461.96 97.208C461.982 96.9733 462.03 96.7467 462.104 96.528C462.179 96.304 462.302 96.0987 462.472 95.912C462.67 95.6933 462.886 95.5387 463.12 95.448C463.355 95.352 463.592 95.2933 463.832 95.272C464.078 95.2507 464.31 95.24 464.528 95.24H465.624V96.424H464.608C464.187 96.424 463.872 96.528 463.664 96.736C463.456 96.9387 463.352 97.248 463.352 97.664V107H461.928ZM460.464 99.536V98.36H465.624V99.536H460.464ZM467.008 107V97.888C467.008 97.664 467.019 97.4373 467.04 97.208C467.062 96.9733 467.11 96.7467 467.184 96.528C467.259 96.304 467.382 96.0987 467.552 95.912C467.75 95.6933 467.966 95.5387 468.2 95.448C468.435 95.352 468.672 95.2933 468.912 95.272C469.158 95.2507 469.39 95.24 469.608 95.24H470.704V96.424H469.688C469.267 96.424 468.952 96.528 468.744 96.736C468.536 96.9387 468.432 97.248 468.432 97.664V107H467.008ZM465.544 99.536V98.36H470.704V99.536H465.544ZM471.624 96.832V95.36H473.048V96.832H471.624ZM471.624 107V98.36H473.048V107H471.624ZM478.338 107.24C477.463 107.24 476.719 107.045 476.106 106.656C475.498 106.261 475.034 105.72 474.714 105.032C474.394 104.344 474.229 103.56 474.218 102.68C474.229 101.779 474.397 100.987 474.722 100.304C475.053 99.616 475.525 99.08 476.138 98.696C476.751 98.312 477.49 98.12 478.354 98.12C479.266 98.12 480.05 98.344 480.706 98.792C481.367 99.24 481.81 99.8533 482.034 100.632L480.626 101.056C480.445 100.555 480.149 100.165 479.738 99.888C479.333 99.6107 478.866 99.472 478.338 99.472C477.746 99.472 477.258 99.6107 476.874 99.888C476.49 100.16 476.205 100.539 476.018 101.024C475.831 101.504 475.735 102.056 475.73 102.68C475.741 103.64 475.962 104.416 476.394 105.008C476.831 105.595 477.479 105.888 478.338 105.888C478.903 105.888 479.373 105.76 479.746 105.504C480.119 105.243 480.402 104.867 480.594 104.376L482.034 104.752C481.735 105.557 481.269 106.173 480.634 106.6C479.999 107.027 479.234 107.24 478.338 107.24ZM482.843 96.832V95.36H484.267V96.832H482.843ZM482.843 107V98.36H484.267V107H482.843ZM489.661 107.24C488.813 107.24 488.072 107.053 487.437 106.68C486.808 106.301 486.317 105.776 485.965 105.104C485.613 104.427 485.437 103.637 485.437 102.736C485.437 101.792 485.61 100.976 485.957 100.288C486.304 99.5947 486.786 99.0613 487.405 98.688C488.029 98.3093 488.76 98.12 489.597 98.12C490.466 98.12 491.205 98.32 491.813 98.72C492.426 99.12 492.885 99.6907 493.189 100.432C493.498 101.173 493.632 102.056 493.589 103.08H492.149V102.568C492.133 101.507 491.917 100.715 491.501 100.192C491.085 99.664 490.466 99.4 489.645 99.4C488.765 99.4 488.096 99.6827 487.637 100.248C487.178 100.813 486.949 101.624 486.949 102.68C486.949 103.699 487.178 104.488 487.637 105.048C488.096 105.608 488.749 105.888 489.597 105.888C490.168 105.888 490.664 105.757 491.085 105.496C491.506 105.235 491.837 104.859 492.077 104.368L493.445 104.84C493.109 105.603 492.602 106.195 491.925 106.616C491.253 107.032 490.498 107.24 489.661 107.24ZM486.469 103.08V101.936H492.853V103.08H486.469ZM500.538 107V102.672C500.538 102.261 500.5 101.867 500.426 101.488C500.356 101.109 500.231 100.771 500.05 100.472C499.874 100.168 499.634 99.928 499.33 99.752C499.031 99.576 498.652 99.488 498.194 99.488C497.836 99.488 497.511 99.5493 497.218 99.672C496.93 99.7893 496.682 99.9707 496.474 100.216C496.266 100.461 496.103 100.771 495.986 101.144C495.874 101.512 495.818 101.947 495.818 102.448L494.882 102.16C494.882 101.323 495.031 100.605 495.33 100.008C495.634 99.4053 496.058 98.944 496.602 98.624C497.151 98.2987 497.796 98.136 498.538 98.136C499.098 98.136 499.575 98.224 499.97 98.4C500.364 98.576 500.692 98.8107 500.954 99.104C501.215 99.392 501.42 99.7173 501.57 100.08C501.719 100.437 501.823 100.803 501.882 101.176C501.946 101.544 501.978 101.893 501.978 102.224V107H500.538ZM494.378 107V98.36H495.658V100.672H495.818V107H494.378ZM506.869 107.24C505.995 107.24 505.251 107.045 504.637 106.656C504.029 106.261 503.565 105.72 503.245 105.032C502.925 104.344 502.76 103.56 502.749 102.68C502.76 101.779 502.928 100.987 503.253 100.304C503.584 99.616 504.056 99.08 504.669 98.696C505.283 98.312 506.021 98.12 506.885 98.12C507.797 98.12 508.581 98.344 509.237 98.792C509.899 99.24 510.341 99.8533 510.565 100.632L509.157 101.056C508.976 100.555 508.68 100.165 508.269 99.888C507.864 99.6107 507.397 99.472 506.869 99.472C506.277 99.472 505.789 99.6107 505.405 99.888C505.021 100.16 504.736 100.539 504.549 101.024C504.363 101.504 504.267 102.056 504.261 102.68C504.272 103.64 504.493 104.416 504.925 105.008C505.363 105.595 506.011 105.888 506.869 105.888C507.435 105.888 507.904 105.76 508.277 105.504C508.651 105.243 508.933 104.867 509.125 104.376L510.565 104.752C510.267 105.557 509.8 106.173 509.165 106.6C508.531 107.027 507.765 107.24 506.869 107.24ZM512.336 110.84L514.008 106.296L514.032 107.64L510.256 98.36H511.752L514.712 105.824H514.2L516.976 98.36H518.424L513.72 110.84H512.336ZM517.554 108.792L517.642 108.128C517.866 108.144 518.034 108.101 518.146 108C518.258 107.899 518.33 107.76 518.362 107.584C518.394 107.408 518.399 107.213 518.378 107H517.554V105.192H519.122V107.24C519.122 107.8 518.983 108.221 518.706 108.504C518.434 108.787 518.05 108.883 517.554 108.792ZM526.326 107.24C525.681 107.24 525.139 107.123 524.702 106.888C524.27 106.648 523.942 106.333 523.718 105.944C523.499 105.555 523.39 105.128 523.39 104.664C523.39 104.211 523.475 103.819 523.646 103.488C523.822 103.152 524.067 102.875 524.382 102.656C524.697 102.432 525.073 102.256 525.51 102.128C525.921 102.016 526.379 101.92 526.886 101.84C527.398 101.755 527.915 101.677 528.438 101.608C528.961 101.539 529.449 101.472 529.902 101.408L529.39 101.704C529.406 100.936 529.251 100.368 528.926 100C528.606 99.632 528.051 99.448 527.262 99.448C526.739 99.448 526.281 99.568 525.886 99.808C525.497 100.043 525.222 100.427 525.062 100.96L523.71 100.552C523.918 99.7947 524.321 99.2 524.918 98.768C525.515 98.336 526.302 98.12 527.278 98.12C528.062 98.12 528.734 98.2613 529.294 98.544C529.859 98.8213 530.265 99.2427 530.51 99.808C530.633 100.075 530.71 100.365 530.742 100.68C530.774 100.989 530.79 101.315 530.79 101.656V107H529.526V104.928L529.822 105.12C529.497 105.819 529.041 106.347 528.454 106.704C527.873 107.061 527.163 107.24 526.326 107.24ZM526.542 106.048C527.054 106.048 527.497 105.957 527.87 105.776C528.249 105.589 528.553 105.347 528.782 105.048C529.011 104.744 529.161 104.413 529.23 104.056C529.31 103.789 529.353 103.493 529.358 103.168C529.369 102.837 529.374 102.584 529.374 102.408L529.87 102.624C529.406 102.688 528.95 102.749 528.502 102.808C528.054 102.867 527.63 102.931 527.23 103C526.83 103.064 526.47 103.141 526.15 103.232C525.915 103.307 525.694 103.403 525.486 103.52C525.283 103.637 525.118 103.789 524.99 103.976C524.867 104.157 524.806 104.384 524.806 104.656C524.806 104.891 524.865 105.115 524.982 105.328C525.105 105.541 525.291 105.715 525.542 105.848C525.798 105.981 526.131 106.048 526.542 106.048ZM538.272 107V102.672C538.272 102.261 538.235 101.867 538.16 101.488C538.091 101.109 537.965 100.771 537.784 100.472C537.608 100.168 537.368 99.928 537.064 99.752C536.765 99.576 536.387 99.488 535.928 99.488C535.571 99.488 535.245 99.5493 534.952 99.672C534.664 99.7893 534.416 99.9707 534.208 100.216C534 100.461 533.837 100.771 533.72 101.144C533.608 101.512 533.552 101.947 533.552 102.448L532.616 102.16C532.616 101.323 532.765 100.605 533.064 100.008C533.368 99.4053 533.792 98.944 534.336 98.624C534.885 98.2987 535.531 98.136 536.272 98.136C536.832 98.136 537.309 98.224 537.704 98.4C538.099 98.576 538.427 98.8107 538.688 99.104C538.949 99.392 539.155 99.7173 539.304 100.08C539.453 100.437 539.557 100.803 539.616 101.176C539.68 101.544 539.712 101.893 539.712 102.224V107H538.272ZM532.112 107V98.36H533.392V100.672H533.552V107H532.112ZM544.356 107.24C543.55 107.24 542.86 107.04 542.284 106.64C541.708 106.235 541.262 105.688 540.948 105C540.638 104.312 540.484 103.536 540.484 102.672C540.484 101.808 540.638 101.032 540.948 100.344C541.262 99.656 541.708 99.1147 542.284 98.72C542.86 98.32 543.548 98.12 544.348 98.12C545.164 98.12 545.849 98.3173 546.404 98.712C546.958 99.1067 547.377 99.648 547.66 100.336C547.948 101.024 548.092 101.803 548.092 102.672C548.092 103.531 547.948 104.307 547.66 105C547.377 105.688 546.958 106.235 546.404 106.64C545.849 107.04 545.166 107.24 544.356 107.24ZM544.532 105.936C545.113 105.936 545.59 105.797 545.964 105.52C546.337 105.237 546.612 104.851 546.788 104.36C546.969 103.864 547.06 103.301 547.06 102.672C547.06 102.032 546.969 101.469 546.788 100.984C546.612 100.493 546.34 100.112 545.972 99.84C545.604 99.5627 545.137 99.424 544.572 99.424C543.985 99.424 543.5 99.568 543.116 99.856C542.737 100.144 542.454 100.533 542.268 101.024C542.086 101.515 541.996 102.064 541.996 102.672C541.996 103.285 542.089 103.84 542.276 104.336C542.462 104.827 542.742 105.216 543.116 105.504C543.494 105.792 543.966 105.936 544.532 105.936ZM547.06 107V100.64H546.9V95.48H548.332V107H547.06ZM557.1 107C556.588 107.101 556.082 107.141 555.58 107.12C555.084 107.104 554.642 107.005 554.252 106.824C553.863 106.637 553.567 106.349 553.364 105.96C553.194 105.619 553.1 105.275 553.084 104.928C553.074 104.576 553.068 104.179 553.068 103.736V95.96H554.492V103.672C554.492 104.024 554.495 104.325 554.5 104.576C554.511 104.827 554.567 105.043 554.668 105.224C554.86 105.565 555.164 105.765 555.58 105.824C556.002 105.883 556.508 105.867 557.1 105.776V107ZM551.316 99.536V98.36H557.1V99.536H551.316ZM558.104 107V98.36H559.376V100.448L559.168 100.176C559.27 99.9093 559.4 99.664 559.56 99.44C559.726 99.216 559.91 99.032 560.112 98.888C560.336 98.7067 560.59 98.568 560.872 98.472C561.155 98.376 561.443 98.32 561.736 98.304C562.03 98.2827 562.304 98.3013 562.56 98.36V99.696C562.262 99.616 561.934 99.5947 561.576 99.632C561.219 99.6693 560.888 99.8 560.584 100.024C560.307 100.221 560.091 100.461 559.936 100.744C559.787 101.027 559.683 101.333 559.624 101.664C559.566 101.989 559.536 102.323 559.536 102.664V107H558.104ZM566.603 107.224C566.048 107.224 565.571 107.136 565.171 106.96C564.776 106.784 564.448 106.549 564.187 106.256C563.926 105.963 563.72 105.637 563.571 105.28C563.422 104.923 563.315 104.557 563.251 104.184C563.192 103.811 563.163 103.461 563.163 103.136V98.36H564.603V102.688C564.603 103.093 564.64 103.485 564.715 103.864C564.79 104.243 564.915 104.584 565.091 104.888C565.272 105.192 565.512 105.432 565.811 105.608C566.115 105.784 566.494 105.872 566.947 105.872C567.304 105.872 567.63 105.811 567.923 105.688C568.216 105.565 568.467 105.384 568.675 105.144C568.883 104.899 569.043 104.589 569.155 104.216C569.267 103.843 569.323 103.408 569.323 102.912L570.259 103.2C570.259 104.032 570.107 104.749 569.803 105.352C569.504 105.955 569.08 106.419 568.531 106.744C567.987 107.064 567.344 107.224 566.603 107.224ZM569.483 107V104.688H569.323V98.36H570.755V107H569.483ZM575.509 107.232C574.48 107.232 573.634 107.008 572.973 106.56C572.317 106.107 571.914 105.475 571.765 104.664L573.221 104.432C573.338 104.901 573.608 105.275 574.029 105.552C574.45 105.824 574.973 105.96 575.597 105.96C576.189 105.96 576.653 105.837 576.989 105.592C577.325 105.347 577.493 105.013 577.493 104.592C577.493 104.347 577.437 104.149 577.325 104C577.213 103.845 576.981 103.701 576.629 103.568C576.282 103.435 575.757 103.275 575.053 103.088C574.29 102.885 573.69 102.675 573.253 102.456C572.816 102.237 572.504 101.984 572.317 101.696C572.13 101.408 572.037 101.059 572.037 100.648C572.037 100.141 572.176 99.6987 572.453 99.32C572.73 98.936 573.117 98.64 573.613 98.432C574.114 98.224 574.696 98.12 575.357 98.12C576.013 98.12 576.6 98.224 577.117 98.432C577.634 98.64 578.05 98.936 578.365 99.32C578.685 99.6987 578.874 100.141 578.933 100.648L577.477 100.912C577.408 100.448 577.184 100.083 576.805 99.816C576.432 99.5493 575.949 99.408 575.357 99.392C574.797 99.3707 574.341 99.4693 573.989 99.688C573.642 99.9067 573.469 100.203 573.469 100.576C573.469 100.784 573.533 100.963 573.661 101.112C573.794 101.261 574.037 101.403 574.389 101.536C574.746 101.669 575.264 101.821 575.941 101.992C576.704 102.184 577.304 102.395 577.741 102.624C578.184 102.848 578.498 103.115 578.685 103.424C578.872 103.728 578.965 104.104 578.965 104.552C578.965 105.384 578.658 106.04 578.045 106.52C577.432 106.995 576.586 107.232 575.509 107.232ZM584.803 107C584.291 107.101 583.785 107.141 583.283 107.12C582.787 107.104 582.345 107.005 581.955 106.824C581.566 106.637 581.27 106.349 581.067 105.96C580.897 105.619 580.803 105.275 580.787 104.928C580.777 104.576 580.771 104.179 580.771 103.736V95.96H582.195V103.672C582.195 104.024 582.198 104.325 582.203 104.576C582.214 104.827 582.27 105.043 582.371 105.224C582.563 105.565 582.867 105.765 583.283 105.824C583.705 105.883 584.211 105.867 584.803 105.776V107ZM579.019 99.536V98.36H584.803V99.536H579.019ZM586.064 107V105.432H587.632V107H586.064Z" fill="#696969"/>
<line x1="619" y1="52.5" x2="619" y2="127.5" stroke="#CD6028" stroke-width="4" stroke-linecap="round"/>
<path d="M654.048 79.12C652.8 79.12 651.664 78.88 650.64 78.4C649.632 77.92 648.76 77.272 648.024 76.456C647.304 75.624 646.744 74.696 646.344 73.672C645.944 72.632 645.744 71.568 645.744 70.48C645.744 69.344 645.952 68.264 646.368 67.24C646.8 66.2 647.384 65.28 648.12 64.48C648.872 63.664 649.752 63.024 650.76 62.56C651.784 62.08 652.904 61.84 654.12 61.84C655.352 61.84 656.472 62.088 657.48 62.584C658.504 63.08 659.376 63.744 660.096 64.576C660.816 65.408 661.376 66.336 661.776 67.36C662.176 68.384 662.376 69.44 662.376 70.528C662.376 71.648 662.168 72.728 661.752 73.768C661.336 74.792 660.752 75.712 660 76.528C659.264 77.328 658.384 77.96 657.36 78.424C656.352 78.888 655.248 79.12 654.048 79.12ZM649.104 70.48C649.104 71.216 649.216 71.928 649.44 72.616C649.664 73.304 649.984 73.92 650.4 74.464C650.832 74.992 651.352 75.416 651.96 75.736C652.584 76.04 653.288 76.192 654.072 76.192C654.872 76.192 655.584 76.032 656.208 75.712C656.832 75.376 657.352 74.936 657.768 74.392C658.184 73.832 658.496 73.216 658.704 72.544C658.928 71.856 659.04 71.168 659.04 70.48C659.04 69.744 658.92 69.04 658.68 68.368C658.456 67.68 658.128 67.072 657.696 66.544C657.28 66 656.76 65.576 656.136 65.272C655.528 64.952 654.84 64.792 654.072 64.792C653.256 64.792 652.536 64.96 651.912 65.296C651.304 65.616 650.792 66.048 650.376 66.592C649.96 67.136 649.64 67.744 649.416 68.416C649.208 69.088 649.104 69.776 649.104 70.48ZM664.485 74.296V66.424H667.701V73.6C667.701 74.56 667.877 75.288 668.229 75.784C668.581 76.264 669.101 76.504 669.789 76.504C670.205 76.504 670.613 76.424 671.013 76.264C671.429 76.088 671.805 75.832 672.141 75.496C672.493 75.16 672.789 74.736 673.029 74.224V66.424H676.245V75.4C676.245 75.736 676.301 75.976 676.413 76.12C676.541 76.264 676.741 76.352 677.013 76.384V79C676.693 79.048 676.421 79.08 676.197 79.096C675.989 79.128 675.797 79.144 675.621 79.144C675.045 79.144 674.573 79.016 674.205 78.76C673.853 78.488 673.645 78.12 673.581 77.656L673.509 76.648C672.949 77.496 672.229 78.144 671.349 78.592C670.469 79.024 669.501 79.24 668.445 79.24C667.149 79.24 666.165 78.824 665.493 77.992C664.821 77.144 664.485 75.912 664.485 74.296ZM686.929 69.208C685.953 69.208 685.081 69.4 684.313 69.784C683.545 70.152 682.993 70.688 682.657 71.392V79H679.441V66.424H682.393V69.112C682.841 68.248 683.409 67.568 684.097 67.072C684.785 66.576 685.513 66.304 686.281 66.256C686.457 66.256 686.593 66.256 686.689 66.256C686.785 66.256 686.865 66.264 686.929 66.28V69.208ZM648.528 99.96L653.136 113.064L657.696 99.96H661.176L654.72 117H651.528L645.048 99.96H648.528ZM662.683 117V104.424H665.899V117H662.683ZM662.683 102.672V99.48H665.899V102.672H662.683ZM673.432 117.24C672.36 117.24 671.336 117.064 670.36 116.712C669.384 116.36 668.544 115.84 667.84 115.152L668.992 113.064C669.744 113.672 670.48 114.12 671.2 114.408C671.936 114.696 672.64 114.84 673.312 114.84C673.936 114.84 674.432 114.728 674.8 114.504C675.184 114.28 675.376 113.944 675.376 113.496C675.376 113.192 675.272 112.96 675.064 112.8C674.856 112.624 674.552 112.472 674.152 112.344C673.768 112.216 673.296 112.072 672.736 111.912C671.808 111.608 671.032 111.312 670.408 111.024C669.784 110.736 669.312 110.376 668.992 109.944C668.688 109.496 668.536 108.928 668.536 108.24C668.536 107.408 668.744 106.696 669.16 106.104C669.592 105.496 670.184 105.024 670.936 104.688C671.704 104.352 672.6 104.184 673.624 104.184C674.52 104.184 675.368 104.328 676.168 104.616C676.968 104.888 677.696 105.336 678.352 105.96L677.056 108C676.416 107.504 675.808 107.144 675.232 106.92C674.656 106.68 674.072 106.56 673.48 106.56C673.144 106.56 672.824 106.6 672.52 106.68C672.232 106.76 671.992 106.896 671.8 107.088C671.624 107.264 671.536 107.52 671.536 107.856C671.536 108.16 671.616 108.4 671.776 108.576C671.952 108.736 672.208 108.88 672.544 109.008C672.896 109.136 673.32 109.28 673.816 109.44C674.824 109.728 675.672 110.024 676.36 110.328C677.064 110.632 677.592 111.008 677.944 111.456C678.296 111.888 678.472 112.488 678.472 113.256C678.472 114.504 678.016 115.48 677.104 116.184C676.192 116.888 674.968 117.24 673.432 117.24ZM680.659 117V104.424H683.875V117H680.659ZM680.659 102.672V99.48H683.875V102.672H680.659ZM692.585 117.24C691.561 117.24 690.641 117.072 689.825 116.736C689.009 116.384 688.313 115.904 687.737 115.296C687.177 114.688 686.745 113.992 686.441 113.208C686.137 112.424 685.985 111.6 685.985 110.736C685.985 109.856 686.137 109.024 686.441 108.24C686.745 107.456 687.177 106.76 687.737 106.152C688.313 105.544 689.009 105.072 689.825 104.736C690.641 104.384 691.561 104.208 692.585 104.208C693.609 104.208 694.521 104.384 695.321 104.736C696.137 105.072 696.833 105.544 697.409 106.152C697.985 106.76 698.417 107.456 698.705 108.24C699.009 109.024 699.161 109.856 699.161 110.736C699.161 111.6 699.009 112.424 698.705 113.208C698.417 113.992 697.985 114.688 697.409 115.296C696.849 115.904 696.161 116.384 695.345 116.736C694.529 117.072 693.609 117.24 692.585 117.24ZM689.297 110.736C689.297 111.472 689.441 112.128 689.729 112.704C690.017 113.264 690.409 113.704 690.905 114.024C691.401 114.344 691.961 114.504 692.585 114.504C693.193 114.504 693.745 114.344 694.241 114.024C694.737 113.688 695.129 113.24 695.417 112.68C695.721 112.104 695.873 111.448 695.873 110.712C695.873 109.992 695.721 109.344 695.417 108.768C695.129 108.192 694.737 107.744 694.241 107.424C693.745 107.104 693.193 106.944 692.585 106.944C691.961 106.944 691.401 107.112 690.905 107.448C690.409 107.768 690.017 108.216 689.729 108.792C689.441 109.352 689.297 110 689.297 110.736ZM713.019 117H709.803V109.944C709.803 108.936 709.627 108.2 709.275 107.736C708.923 107.272 708.435 107.04 707.811 107.04C707.379 107.04 706.939 107.152 706.491 107.376C706.059 107.6 705.667 107.912 705.315 108.312C704.963 108.696 704.707 109.144 704.547 109.656V117H701.331V104.424H704.235V106.752C704.555 106.208 704.963 105.752 705.459 105.384C705.955 105 706.523 104.712 707.163 104.52C707.819 104.312 708.507 104.208 709.227 104.208C710.011 104.208 710.651 104.352 711.147 104.64C711.659 104.912 712.043 105.288 712.299 105.768C712.571 106.232 712.755 106.76 712.851 107.352C712.963 107.944 713.019 108.544 713.019 109.152V117Z" fill="#141219"/>
<rect x="743" y="34" width="112" height="112" rx="56" fill="#3E6EB4"/>
<path d="M809.131 104.959H788.864C786.203 104.959 784.04 102.794 784.04 100.135V79.867C784.04 77.2074 786.203 75.0425 788.864 75.0425H809.131C811.792 75.0425 813.956 77.2074 813.956 79.867V100.135C813.956 102.794 811.792 104.959 809.131 104.959ZM788.864 77.6741C787.655 77.6741 786.671 78.6574 786.671 79.867V100.135C786.671 101.344 787.655 102.328 788.864 102.328H809.131C810.34 102.328 811.324 101.344 811.324 100.135V79.867C811.324 78.6574 810.34 77.6741 809.131 77.6741H788.864Z" fill="white"/>
<path d="M799.008 77.673C798.28 77.673 797.692 77.0835 797.692 76.3572V71.3177C797.692 70.5914 798.28 70.002 799.008 70.002C799.735 70.002 800.323 70.5914 800.323 71.3177V76.3572C800.323 77.0835 799.735 77.673 799.008 77.673Z" fill="white"/>
<path d="M799.007 72.6337C796.903 72.6337 795.19 70.9214 795.19 68.8162C795.19 66.7109 796.903 64.9995 799.007 64.9995C801.111 64.9995 802.823 66.7118 802.823 68.8162C802.823 70.9206 801.111 72.6337 799.007 72.6337ZM799.007 67.632C798.353 67.632 797.822 68.1627 797.822 68.8171C797.822 69.4714 798.353 70.003 799.007 70.003C799.66 70.003 800.192 69.4714 800.192 68.8171C800.192 68.1627 799.66 67.632 799.007 67.632Z" fill="white"/>
<path d="M785.358 91.311H780.319C779.591 91.311 779.003 90.7215 779.003 89.9952C779.003 89.2689 779.591 88.6794 780.319 88.6794H785.358C786.085 88.6794 786.674 89.2689 786.674 89.9952C786.674 90.7215 786.085 91.311 785.358 91.311Z" fill="white"/>
<path d="M777.817 93.812C775.713 93.812 774 92.0997 774 89.9953C774 87.8909 775.713 86.1777 777.817 86.1777C779.921 86.1777 781.633 87.89 781.633 89.9953C781.633 92.1005 779.921 93.812 777.817 93.812ZM777.817 88.8102C777.163 88.8102 776.632 89.3418 776.632 89.9962C776.632 90.6505 777.163 91.1812 777.817 91.1812C778.47 91.1812 779.002 90.6505 779.002 89.9962C779.002 89.3418 778.47 88.8102 777.817 88.8102Z" fill="white"/>
<path d="M817.681 91.3213H812.642C811.915 91.3213 811.326 90.7318 811.326 90.0055C811.326 89.2792 811.915 88.6897 812.642 88.6897H817.681C818.408 88.6897 818.997 89.2792 818.997 90.0055C818.997 90.7318 818.408 91.3213 817.681 91.3213Z" fill="white"/>
<path d="M820.183 93.8222C818.078 93.8222 816.366 92.1099 816.366 90.0047C816.366 87.8994 818.078 86.188 820.183 86.188C822.287 86.188 823.999 87.9003 823.999 90.0047C823.999 92.109 822.287 93.8222 820.183 93.8222ZM820.183 88.8204C819.529 88.8204 818.998 89.3511 818.998 90.0055C818.998 90.6599 819.529 91.1915 820.183 91.1915C820.836 91.1915 821.368 90.6599 821.368 90.0055C821.368 89.3511 820.836 88.8204 820.183 88.8204Z" fill="white"/>
<path d="M798.995 109.998C798.268 109.998 797.679 109.409 797.679 108.683V103.643C797.679 102.917 798.268 102.327 798.995 102.327C799.722 102.327 800.311 102.917 800.311 103.643V108.683C800.311 109.409 799.722 109.998 798.995 109.998Z" fill="white"/>
<path d="M798.994 115C796.89 115 795.178 113.288 795.178 111.184C795.178 109.079 796.89 107.366 798.994 107.366C801.098 107.366 802.811 109.078 802.811 111.184C802.811 113.289 801.098 115 798.994 115ZM798.994 109.998C798.341 109.998 797.809 110.53 797.809 111.184C797.809 111.839 798.341 112.369 798.994 112.369C799.648 112.369 800.179 111.839 800.179 111.184C800.179 110.53 799.648 109.998 798.994 109.998Z" fill="white"/>
<path d="M806.972 77.6757C806.245 77.6757 805.657 77.0862 805.657 76.3599V68.9476C805.657 68.2213 806.245 67.6318 806.972 67.6318H810.635C811.363 67.6318 811.951 68.2213 811.951 68.9476C811.951 69.6739 811.363 70.2634 810.635 70.2634H808.288V76.3599C808.288 77.0862 807.7 77.6757 806.972 77.6757Z" fill="white"/>
<path d="M820.051 83.3423H812.639C811.912 83.3423 811.324 82.7528 811.324 82.0265C811.324 81.3002 811.912 80.7107 812.639 80.7107H818.736V78.3695C818.736 77.6432 819.324 77.0537 820.051 77.0537C820.779 77.0537 821.367 77.6432 821.367 78.3695V82.0265C821.367 82.7528 820.779 83.3423 820.051 83.3423Z" fill="white"/>
<path d="M820.051 102.953C819.324 102.953 818.736 102.364 818.736 101.637V99.29H812.639C811.912 99.29 811.324 98.7006 811.324 97.9742C811.324 97.2479 811.912 96.6584 812.639 96.6584H820.051C820.779 96.6584 821.367 97.2479 821.367 97.9742V101.637C821.367 102.364 820.779 102.953 820.051 102.953Z" fill="white"/>
<path d="M810.628 112.369H806.972C806.245 112.369 805.657 111.779 805.657 111.053V103.641C805.657 102.914 806.245 102.325 806.972 102.325C807.7 102.325 808.288 102.914 808.288 103.641V109.737H810.628C811.356 109.737 811.944 110.327 811.944 111.053C811.944 111.779 811.356 112.369 810.628 112.369Z" fill="white"/>
<path d="M791.025 112.369H787.362C786.634 112.369 786.046 111.779 786.046 111.053C786.046 110.327 786.634 109.737 787.362 109.737H789.709V103.641C789.709 102.914 790.297 102.325 791.025 102.325C791.752 102.325 792.34 102.914 792.34 103.641V111.053C792.34 111.779 791.752 112.369 791.025 112.369Z" fill="white"/>
<path d="M777.946 102.947C777.219 102.947 776.63 102.357 776.63 101.631V97.974C776.63 97.2477 777.219 96.6582 777.946 96.6582H785.358C786.085 96.6582 786.674 97.2477 786.674 97.974C786.674 98.7003 786.085 99.2898 785.358 99.2898H779.262V101.631C779.262 102.357 778.673 102.947 777.946 102.947Z" fill="white"/>
<path d="M785.358 83.3423H777.946C777.219 83.3423 776.63 82.7529 776.63 82.0266V78.3634C776.63 77.6371 777.219 77.0476 777.946 77.0476C778.673 77.0476 779.262 77.6371 779.262 78.3634V80.7108H785.358C786.085 80.7108 786.674 81.3002 786.674 82.0266C786.674 82.7529 786.085 83.3423 785.358 83.3423Z" fill="white"/>
<path d="M791.024 77.6757C790.297 77.6757 789.709 77.0862 789.709 76.3599V70.2634H787.368C786.641 70.2634 786.053 69.6739 786.053 68.9476C786.053 68.2213 786.641 67.6318 787.368 67.6318H791.024C791.752 67.6318 792.34 68.2213 792.34 68.9476V76.3599C792.34 77.0862 791.752 77.6757 791.024 77.6757Z" fill="white"/>
<path fill-rule="evenodd" clip-rule="evenodd" d="M808.209 90.4382C805.989 93.6587 802.687 95.7014 798.999 95.7014C795.311 95.7014 792.009 93.6587 789.789 90.4382C792.009 87.2177 795.311 85.175 798.999 85.175C802.687 85.175 805.989 87.2177 808.209 90.4382ZM798.999 92.9069C797.898 92.9069 797.005 91.8017 797.005 90.4383C797.005 90.2546 796.884 90.1058 796.736 90.1058C796.588 90.1058 796.467 90.2546 796.467 90.4383C796.467 92.1689 797.601 93.572 798.999 93.572C799.147 93.572 799.268 93.4231 799.268 93.2395C799.268 93.0558 799.147 92.9069 798.999 92.9069ZM800.431 87.6875C800.106 87.6875 799.842 88.0136 799.842 88.4159C799.842 88.8182 800.106 89.1443 800.431 89.1443C800.756 89.1443 801.019 88.8182 801.019 88.4159C801.019 88.0136 800.756 87.6875 800.431 87.6875ZM798.999 85.8349C796.945 85.8349 795.28 87.896 795.28 90.4382C795.28 92.9805 796.945 95.0415 798.999 95.0415C801.053 95.0415 802.718 92.9805 802.718 90.4382C802.718 87.896 801.053 85.8349 798.999 85.8349ZM798.999 86.5C797.242 86.5 795.817 88.2631 795.817 90.4383C795.817 92.6134 797.242 94.3765 798.999 94.3765C800.756 94.3765 802.181 92.6133 802.181 90.4383C802.181 88.2631 800.756 86.5 798.999 86.5Z" fill="white"/>
</g>
<defs>
<filter id="filter0_d_8525_17263" x="0" y="0" width="889" height="180" filterUnits="userSpaceOnUse" color-interpolation-filters="sRGB">
<feFlood flood-opacity="0" result="BackgroundImageFix"/>
<feColorMatrix in="SourceAlpha" type="matrix" values="0 0 0 0 0 0 0 0 0 0 0 0 0 0 0 0 0 0 127 0" result="hardAlpha"/>
<feOffset/>
<feGaussianBlur stdDeviation="10"/>
<feComposite in2="hardAlpha" operator="out"/>
<feColorMatrix type="matrix" values="0 0 0 0 0 0 0 0 0 0 0 0 0 0 0 0 0 0 0.12 0"/>
<feBlend mode="normal" in2="BackgroundImageFix" result="effect1_dropShadow_8525_17263"/>
<feBlend mode="normal" in="SourceGraphic" in2="effect1_dropShadow_8525_17263" result="shape"/>
</filter>
</defs>
</svg>
