<svg width="889" height="180" viewBox="0 0 889 180" fill="none" xmlns="http://www.w3.org/2000/svg">
<g filter="url(#filter0_d_8525_17296)">
<path d="M20 90C20 51.3401 51.3401 20 90 20H869V160H90C51.34 160 20 128.66 20 90Z" fill="white" fill-opacity="0.5" shape-rendering="crispEdges"/>
<rect x="34" y="34" width="112" height="112" rx="56" fill="#3E6EB4"/>
<path d="M101.553 107.053H78.4468C75.4138 107.053 72.9468 104.585 72.9468 101.553V78.4485C72.9468 75.4165 75.4138 72.9485 78.4468 72.9485H101.553C104.586 72.9485 107.053 75.4165 107.053 78.4485V101.553C107.053 104.585 104.586 107.053 101.553 107.053ZM78.4468 75.9485C77.0688 75.9485 75.9468 77.0695 75.9468 78.4485V101.553C75.9468 102.932 77.0688 104.053 78.4468 104.053H101.553C102.931 104.053 104.053 102.932 104.053 101.553V78.4485C104.053 77.0695 102.931 75.9485 101.553 75.9485H78.4468Z" fill="white"/>
<path d="M90.0059 75.9474C89.1769 75.9474 88.5059 75.2754 88.5059 74.4474V68.7024C88.5059 67.8744 89.1769 67.2024 90.0059 67.2024C90.8349 67.2024 91.5059 67.8744 91.5059 68.7024V74.4474C91.5059 75.2754 90.8349 75.9474 90.0059 75.9474Z" fill="white"/>
<path d="M90.0058 70.2025C87.6068 70.2025 85.6548 68.2505 85.6548 65.8505C85.6548 63.4505 87.6068 61.4995 90.0058 61.4995C92.4048 61.4995 94.3568 63.4515 94.3568 65.8505C94.3568 68.2495 92.4048 70.2025 90.0058 70.2025ZM90.0058 64.5005C89.2608 64.5005 88.6548 65.1055 88.6548 65.8515C88.6548 66.5975 89.2608 67.2035 90.0058 67.2035C90.7508 67.2035 91.3568 66.5975 91.3568 65.8515C91.3568 65.1055 90.7508 64.5005 90.0058 64.5005Z" fill="white"/>
<path d="M74.4471 91.4946H68.7021C67.8731 91.4946 67.2021 90.8226 67.2021 89.9946C67.2021 89.1666 67.8731 88.4946 68.7021 88.4946H74.4471C75.2761 88.4946 75.9471 89.1666 75.9471 89.9946C75.9471 90.8226 75.2761 91.4946 74.4471 91.4946Z" fill="white"/>
<path d="M65.851 94.3456C63.452 94.3456 61.5 92.3936 61.5 89.9946C61.5 87.5956 63.452 85.6426 65.851 85.6426C68.25 85.6426 70.202 87.5946 70.202 89.9946C70.202 92.3946 68.25 94.3456 65.851 94.3456ZM65.851 88.6436C65.106 88.6436 64.5 89.2496 64.5 89.9956C64.5 90.7416 65.106 91.3466 65.851 91.3466C66.596 91.3466 67.202 90.7416 67.202 89.9956C67.202 89.2496 66.596 88.6436 65.851 88.6436Z" fill="white"/>
<path d="M111.298 91.5066H105.553C104.724 91.5066 104.053 90.8346 104.053 90.0066C104.053 89.1786 104.724 88.5066 105.553 88.5066H111.298C112.127 88.5066 112.798 89.1786 112.798 90.0066C112.798 90.8346 112.127 91.5066 111.298 91.5066Z" fill="white"/>
<path d="M114.149 94.3575C111.75 94.3575 109.798 92.4055 109.798 90.0055C109.798 87.6055 111.75 85.6545 114.149 85.6545C116.548 85.6545 118.5 87.6065 118.5 90.0055C118.5 92.4045 116.548 94.3575 114.149 94.3575ZM114.149 88.6555C113.404 88.6555 112.798 89.2605 112.798 90.0065C112.798 90.7525 113.404 91.3585 114.149 91.3585C114.894 91.3585 115.5 90.7525 115.5 90.0065C115.5 89.2605 114.894 88.6555 114.149 88.6555Z" fill="white"/>
<path d="M89.9941 112.798C89.1651 112.798 88.4941 112.126 88.4941 111.298V105.553C88.4941 104.725 89.1651 104.053 89.9941 104.053C90.8231 104.053 91.4941 104.725 91.4941 105.553V111.298C91.4941 112.126 90.8231 112.798 89.9941 112.798Z" fill="white"/>
<path d="M89.9941 118.5C87.5951 118.5 85.6431 116.548 85.6431 114.149C85.6431 111.75 87.5951 109.797 89.9941 109.797C92.3931 109.797 94.3451 111.749 94.3451 114.149C94.3451 116.549 92.3931 118.5 89.9941 118.5ZM89.9941 112.798C89.2491 112.798 88.6431 113.404 88.6431 114.15C88.6431 114.896 89.2491 115.501 89.9941 115.501C90.7391 115.501 91.3451 114.896 91.3451 114.15C91.3451 113.404 90.7391 112.798 89.9941 112.798Z" fill="white"/>
<path d="M99.0898 75.9505C98.2608 75.9505 97.5898 75.2785 97.5898 74.4505V66.0005C97.5898 65.1725 98.2608 64.5005 99.0898 64.5005H103.266C104.095 64.5005 104.766 65.1725 104.766 66.0005C104.766 66.8285 104.095 67.5005 103.266 67.5005H100.59V74.4505C100.59 75.2785 99.9188 75.9505 99.0898 75.9505Z" fill="white"/>
<path d="M114 82.4105H105.55C104.721 82.4105 104.05 81.7385 104.05 80.9105C104.05 80.0825 104.721 79.4105 105.55 79.4105H112.5V76.7415C112.5 75.9135 113.171 75.2415 114 75.2415C114.829 75.2415 115.5 75.9135 115.5 76.7415V80.9105C115.5 81.7385 114.829 82.4105 114 82.4105Z" fill="white"/>
<path d="M114 104.767C113.171 104.767 112.5 104.095 112.5 103.267V100.591H105.55C104.721 100.591 104.05 99.9186 104.05 99.0906C104.05 98.2626 104.721 97.5906 105.55 97.5906H114C114.829 97.5906 115.5 98.2626 115.5 99.0906V103.267C115.5 104.095 114.829 104.767 114 104.767Z" fill="white"/>
<path d="M103.258 115.501H99.0898C98.2608 115.501 97.5898 114.829 97.5898 114.001V105.551C97.5898 104.723 98.2608 104.051 99.0898 104.051C99.9188 104.051 100.59 104.723 100.59 105.551V112.501H103.258C104.087 112.501 104.758 113.173 104.758 114.001C104.758 114.829 104.087 115.501 103.258 115.501Z" fill="white"/>
<path d="M80.9099 115.501H76.7339C75.9049 115.501 75.2339 114.829 75.2339 114.001C75.2339 113.173 75.9049 112.501 76.7339 112.501H79.4099V105.551C79.4099 104.723 80.0809 104.051 80.9099 104.051C81.7389 104.051 82.4099 104.723 82.4099 105.551V114.001C82.4099 114.829 81.7389 115.501 80.9099 115.501Z" fill="white"/>
<path d="M66 104.76C65.171 104.76 64.5 104.088 64.5 103.26V99.0906C64.5 98.2626 65.171 97.5906 66 97.5906H74.45C75.279 97.5906 75.95 98.2626 75.95 99.0906C75.95 99.9186 75.279 100.591 74.45 100.591H67.5V103.26C67.5 104.088 66.829 104.76 66 104.76Z" fill="white"/>
<path d="M74.45 82.4104H66C65.171 82.4104 64.5 81.7384 64.5 80.9104V76.7344C64.5 75.9064 65.171 75.2344 66 75.2344C66.829 75.2344 67.5 75.9064 67.5 76.7344V79.4104H74.45C75.279 79.4104 75.95 80.0824 75.95 80.9104C75.95 81.7384 75.279 82.4104 74.45 82.4104Z" fill="white"/>
<path d="M80.9102 75.9505C80.0812 75.9505 79.4102 75.2785 79.4102 74.4505V67.5005H76.7422C75.9132 67.5005 75.2422 66.8285 75.2422 66.0005C75.2422 65.1725 75.9132 64.5005 76.7422 64.5005H80.9102C81.7392 64.5005 82.4102 65.1725 82.4102 66.0005V74.4505C82.4102 75.2785 81.7392 75.9505 80.9102 75.9505Z" fill="white"/>
<path fill-rule="evenodd" clip-rule="evenodd" d="M88.9641 88.7692C89.3685 88.7692 89.748 88.8762 90.0757 89.0634L93.8082 85.3309C93.8647 85.2744 93.8867 85.1994 93.8699 85.1215L93.4463 83.1556C93.4294 83.0776 93.4515 83.0027 93.5079 82.9462L96.8873 79.5668C97.0155 79.4387 97.2336 79.5029 97.2717 79.6801L97.7676 81.9809C97.7879 82.0752 97.9243 82.2116 98.0186 82.2318L100.319 82.7277C100.497 82.7659 100.561 82.9839 100.433 83.1121L97.0533 86.4916C96.9969 86.548 96.9219 86.5701 96.8439 86.5533L94.8781 86.1296C94.8001 86.1128 94.7251 86.1348 94.6687 86.1913L90.93 89.93C91.1075 90.2513 91.2087 90.6208 91.2087 91.0139C91.2087 92.2536 90.2037 93.2585 88.9641 93.2585C87.7244 93.2585 86.7194 92.2535 86.7194 91.0139C86.7195 89.7742 87.7245 88.7692 88.9641 88.7692ZM91.7904 85.6278C87.8005 83.5295 82.8824 86.4019 82.8824 91.0139C82.8824 94.3727 85.6053 97.0956 88.9641 97.0956C93.5618 97.0956 96.4359 92.2051 94.3651 88.2159L92.7105 89.8704C93.4704 92.3633 91.6112 94.93 88.9641 94.93C86.8013 94.93 85.048 93.1767 85.048 91.0139C85.048 88.3521 87.6418 86.4914 90.1406 87.2776L91.7904 85.6278ZM92.5144 82.2388C86.3691 79.7498 79.5 84.253 79.5 91.0139C79.5 96.2408 83.7372 100.478 88.9641 100.478C95.7113 100.478 100.215 93.6343 97.7509 87.4925C97.0442 88.0162 96.1416 87.6467 95.3488 87.4758C98.0094 92.2667 94.5741 98.3124 88.9641 98.3124C84.9332 98.3124 81.6655 95.0446 81.6655 91.0138C81.6655 85.3941 87.7306 81.9599 92.5214 84.6398L92.2567 83.4119C92.1674 82.9971 92.2634 82.5715 92.5144 82.2388Z" fill="white"/>
<path d="M226.79 79.12C225.542 79.12 224.406 78.88 223.382 78.4C222.374 77.92 221.502 77.272 220.766 76.456C220.046 75.624 219.486 74.696 219.086 73.672C218.686 72.632 218.486 71.568 218.486 70.48C218.486 69.344 218.694 68.264 219.11 67.24C219.542 66.2 220.126 65.28 220.862 64.48C221.614 63.664 222.494 63.024 223.502 62.56C224.526 62.08 225.646 61.84 226.862 61.84C228.094 61.84 229.214 62.088 230.222 62.584C231.246 63.08 232.118 63.744 232.838 64.576C233.558 65.408 234.118 66.336 234.518 67.36C234.918 68.384 235.118 69.44 235.118 70.528C235.118 71.648 234.91 72.728 234.494 73.768C234.078 74.792 233.494 75.712 232.742 76.528C232.006 77.328 231.126 77.96 230.102 78.424C229.094 78.888 227.99 79.12 226.79 79.12ZM221.846 70.48C221.846 71.216 221.958 71.928 222.182 72.616C222.406 73.304 222.726 73.92 223.142 74.464C223.574 74.992 224.094 75.416 224.702 75.736C225.326 76.04 226.03 76.192 226.814 76.192C227.614 76.192 228.326 76.032 228.95 75.712C229.574 75.376 230.094 74.936 230.51 74.392C230.926 73.832 231.238 73.216 231.446 72.544C231.67 71.856 231.782 71.168 231.782 70.48C231.782 69.744 231.662 69.04 231.422 68.368C231.198 67.68 230.87 67.072 230.438 66.544C230.022 66 229.502 65.576 228.878 65.272C228.27 64.952 227.582 64.792 226.814 64.792C225.998 64.792 225.278 64.96 224.654 65.296C224.046 65.616 223.534 66.048 223.118 66.592C222.702 67.136 222.382 67.744 222.158 68.416C221.95 69.088 221.846 69.776 221.846 70.48ZM237.227 74.296V66.424H240.443V73.6C240.443 74.56 240.619 75.288 240.971 75.784C241.323 76.264 241.843 76.504 242.531 76.504C242.947 76.504 243.355 76.424 243.755 76.264C244.171 76.088 244.547 75.832 244.883 75.496C245.235 75.16 245.531 74.736 245.771 74.224V66.424H248.987V75.4C248.987 75.736 249.043 75.976 249.155 76.12C249.283 76.264 249.483 76.352 249.755 76.384V79C249.435 79.048 249.163 79.08 248.939 79.096C248.731 79.128 248.539 79.144 248.363 79.144C247.787 79.144 247.315 79.016 246.947 78.76C246.595 78.488 246.387 78.12 246.323 77.656L246.251 76.648C245.691 77.496 244.971 78.144 244.091 78.592C243.211 79.024 242.243 79.24 241.187 79.24C239.891 79.24 238.907 78.824 238.235 77.992C237.563 77.144 237.227 75.912 237.227 74.296ZM259.671 69.208C258.695 69.208 257.823 69.4 257.055 69.784C256.287 70.152 255.735 70.688 255.399 71.392V79H252.183V66.424H255.135V69.112C255.583 68.248 256.151 67.568 256.839 67.072C257.527 66.576 258.255 66.304 259.023 66.256C259.199 66.256 259.335 66.256 259.431 66.256C259.527 66.256 259.607 66.264 259.671 66.28V69.208ZM189.914 117V105.816L185.546 114.144H183.698L179.33 105.816V117H176.018V99.96H179.57L184.61 109.656L189.698 99.96H193.226V117H189.914ZM196.472 117V104.424H199.688V117H196.472ZM196.472 102.672V99.48H199.688V102.672H196.472ZM207.221 117.24C206.149 117.24 205.125 117.064 204.149 116.712C203.173 116.36 202.333 115.84 201.629 115.152L202.781 113.064C203.533 113.672 204.269 114.12 204.989 114.408C205.725 114.696 206.429 114.84 207.101 114.84C207.725 114.84 208.221 114.728 208.589 114.504C208.973 114.28 209.165 113.944 209.165 113.496C209.165 113.192 209.061 112.96 208.853 112.8C208.645 112.624 208.341 112.472 207.941 112.344C207.557 112.216 207.085 112.072 206.525 111.912C205.597 111.608 204.821 111.312 204.197 111.024C203.573 110.736 203.101 110.376 202.781 109.944C202.477 109.496 202.325 108.928 202.325 108.24C202.325 107.408 202.533 106.696 202.949 106.104C203.381 105.496 203.973 105.024 204.725 104.688C205.493 104.352 206.389 104.184 207.413 104.184C208.309 104.184 209.157 104.328 209.957 104.616C210.757 104.888 211.485 105.336 212.141 105.96L210.845 108C210.205 107.504 209.597 107.144 209.021 106.92C208.445 106.68 207.861 106.56 207.269 106.56C206.933 106.56 206.613 106.6 206.309 106.68C206.021 106.76 205.781 106.896 205.589 107.088C205.413 107.264 205.325 107.52 205.325 107.856C205.325 108.16 205.405 108.4 205.565 108.576C205.741 108.736 205.997 108.88 206.333 109.008C206.685 109.136 207.109 109.28 207.605 109.44C208.613 109.728 209.461 110.024 210.149 110.328C210.853 110.632 211.381 111.008 211.733 111.456C212.085 111.888 212.261 112.488 212.261 113.256C212.261 114.504 211.805 115.48 210.893 116.184C209.981 116.888 208.757 117.24 207.221 117.24ZM219.08 117.24C218.008 117.24 216.984 117.064 216.008 116.712C215.032 116.36 214.192 115.84 213.488 115.152L214.64 113.064C215.392 113.672 216.128 114.12 216.848 114.408C217.584 114.696 218.288 114.84 218.96 114.84C219.584 114.84 220.08 114.728 220.448 114.504C220.832 114.28 221.024 113.944 221.024 113.496C221.024 113.192 220.92 112.96 220.712 112.8C220.504 112.624 220.2 112.472 219.8 112.344C219.416 112.216 218.944 112.072 218.384 111.912C217.456 111.608 216.68 111.312 216.056 111.024C215.432 110.736 214.96 110.376 214.64 109.944C214.336 109.496 214.184 108.928 214.184 108.24C214.184 107.408 214.392 106.696 214.808 106.104C215.24 105.496 215.832 105.024 216.584 104.688C217.352 104.352 218.248 104.184 219.272 104.184C220.168 104.184 221.016 104.328 221.816 104.616C222.616 104.888 223.344 105.336 224 105.96L222.704 108C222.064 107.504 221.456 107.144 220.88 106.92C220.304 106.68 219.72 106.56 219.128 106.56C218.792 106.56 218.472 106.6 218.168 106.68C217.88 106.76 217.64 106.896 217.448 107.088C217.272 107.264 217.184 107.52 217.184 107.856C217.184 108.16 217.264 108.4 217.424 108.576C217.6 108.736 217.856 108.88 218.192 109.008C218.544 109.136 218.968 109.28 219.464 109.44C220.472 109.728 221.32 110.024 222.008 110.328C222.712 110.632 223.24 111.008 223.592 111.456C223.944 111.888 224.12 112.488 224.12 113.256C224.12 114.504 223.664 115.48 222.752 116.184C221.84 116.888 220.616 117.24 219.08 117.24ZM226.308 117V104.424H229.524V117H226.308ZM226.308 102.672V99.48H229.524V102.672H226.308ZM238.233 117.24C237.209 117.24 236.289 117.072 235.473 116.736C234.657 116.384 233.961 115.904 233.385 115.296C232.825 114.688 232.393 113.992 232.089 113.208C231.785 112.424 231.633 111.6 231.633 110.736C231.633 109.856 231.785 109.024 232.089 108.24C232.393 107.456 232.825 106.76 233.385 106.152C233.961 105.544 234.657 105.072 235.473 104.736C236.289 104.384 237.209 104.208 238.233 104.208C239.257 104.208 240.169 104.384 240.969 104.736C241.785 105.072 242.481 105.544 243.057 106.152C243.633 106.76 244.065 107.456 244.353 108.24C244.657 109.024 244.809 109.856 244.809 110.736C244.809 111.6 244.657 112.424 244.353 113.208C244.065 113.992 243.633 114.688 243.057 115.296C242.497 115.904 241.809 116.384 240.993 116.736C240.177 117.072 239.257 117.24 238.233 117.24ZM234.945 110.736C234.945 111.472 235.089 112.128 235.377 112.704C235.665 113.264 236.057 113.704 236.553 114.024C237.049 114.344 237.609 114.504 238.233 114.504C238.841 114.504 239.393 114.344 239.889 114.024C240.385 113.688 240.777 113.24 241.065 112.68C241.369 112.104 241.521 111.448 241.521 110.712C241.521 109.992 241.369 109.344 241.065 108.768C240.777 108.192 240.385 107.744 239.889 107.424C239.393 107.104 238.841 106.944 238.233 106.944C237.609 106.944 237.049 107.112 236.553 107.448C236.057 107.768 235.665 108.216 235.377 108.792C235.089 109.352 234.945 110 234.945 110.736ZM258.668 117H255.452V109.944C255.452 108.936 255.276 108.2 254.924 107.736C254.572 107.272 254.084 107.04 253.46 107.04C253.028 107.04 252.588 107.152 252.14 107.376C251.708 107.6 251.316 107.912 250.964 108.312C250.612 108.696 250.356 109.144 250.196 109.656V117H246.98V104.424H249.884V106.752C250.204 106.208 250.612 105.752 251.108 105.384C251.604 105 252.172 104.712 252.812 104.52C253.468 104.312 254.156 104.208 254.876 104.208C255.66 104.208 256.3 104.352 256.796 104.64C257.308 104.912 257.692 105.288 257.948 105.768C258.22 106.232 258.404 106.76 258.5 107.352C258.612 107.944 258.668 108.544 258.668 109.152V117Z" fill="#141219"/>
<line x1="290" y1="52.5" x2="290" y2="127.5" stroke="#CD6028" stroke-width="4" stroke-linecap="round"/>
<path d="M320.088 85V74.832H316.16V73.48H325.44V74.832H321.512V85H320.088ZM328.363 85.24C327.504 85.24 326.763 85.0453 326.139 84.656C325.52 84.2667 325.043 83.728 324.707 83.04C324.371 82.352 324.203 81.5627 324.203 80.672C324.203 79.7653 324.373 78.9707 324.715 78.288C325.056 77.6053 325.539 77.0747 326.163 76.696C326.787 76.312 327.52 76.12 328.363 76.12C329.227 76.12 329.971 76.3147 330.595 76.704C331.219 77.088 331.696 77.624 332.027 78.312C332.363 78.9947 332.531 79.7813 332.531 80.672C332.531 81.5733 332.363 82.368 332.027 83.056C331.691 83.7387 331.211 84.2747 330.587 84.664C329.963 85.048 329.221 85.24 328.363 85.24ZM328.363 83.888C329.259 83.888 329.925 83.5893 330.363 82.992C330.8 82.3947 331.019 81.6213 331.019 80.672C331.019 79.696 330.797 78.92 330.355 78.344C329.912 77.7627 329.248 77.472 328.363 77.472C327.76 77.472 327.264 77.608 326.875 77.88C326.485 78.152 326.195 78.528 326.003 79.008C325.811 79.488 325.715 80.0427 325.715 80.672C325.715 81.6427 325.939 82.4213 326.387 83.008C326.835 83.5947 327.493 83.888 328.363 83.888ZM335.995 85V76.36H337.267V78.448L337.059 78.176C337.16 77.9093 337.291 77.664 337.451 77.44C337.616 77.216 337.8 77.032 338.003 76.888C338.227 76.7067 338.48 76.568 338.763 76.472C339.046 76.376 339.334 76.32 339.627 76.304C339.92 76.2827 340.195 76.3013 340.451 76.36V77.696C340.152 77.616 339.824 77.5947 339.467 77.632C339.11 77.6693 338.779 77.8 338.475 78.024C338.198 78.2213 337.982 78.4613 337.827 78.744C337.678 79.0267 337.574 79.3333 337.515 79.664C337.456 79.9893 337.427 80.3227 337.427 80.664V85H335.995ZM344.802 85.24C343.954 85.24 343.212 85.0533 342.578 84.68C341.948 84.3013 341.458 83.776 341.106 83.104C340.754 82.4267 340.578 81.6373 340.578 80.736C340.578 79.792 340.751 78.976 341.098 78.288C341.444 77.5947 341.927 77.0613 342.546 76.688C343.17 76.3093 343.9 76.12 344.738 76.12C345.607 76.12 346.346 76.32 346.954 76.72C347.567 77.12 348.026 77.6907 348.33 78.432C348.639 79.1733 348.772 80.056 348.73 81.08H347.29V80.568C347.274 79.5067 347.058 78.7147 346.642 78.192C346.226 77.664 345.607 77.4 344.786 77.4C343.906 77.4 343.236 77.6827 342.778 78.248C342.319 78.8133 342.09 79.624 342.09 80.68C342.09 81.6987 342.319 82.488 342.778 83.048C343.236 83.608 343.89 83.888 344.738 83.888C345.308 83.888 345.804 83.7573 346.226 83.496C346.647 83.2347 346.978 82.8587 347.218 82.368L348.586 82.84C348.25 83.6027 347.743 84.1947 347.066 84.616C346.394 85.032 345.639 85.24 344.802 85.24ZM341.61 81.08V79.936H347.994V81.08H341.61ZM353.153 85.24C352.347 85.24 351.657 85.04 351.081 84.64C350.505 84.2347 350.059 83.688 349.745 83C349.435 82.312 349.281 81.536 349.281 80.672C349.281 79.808 349.435 79.032 349.745 78.344C350.059 77.656 350.505 77.1147 351.081 76.72C351.657 76.32 352.345 76.12 353.145 76.12C353.961 76.12 354.646 76.3173 355.201 76.712C355.755 77.1067 356.174 77.648 356.457 78.336C356.745 79.024 356.889 79.8027 356.889 80.672C356.889 81.5307 356.745 82.3067 356.457 83C356.174 83.688 355.755 84.2347 355.201 84.64C354.646 85.04 353.963 85.24 353.153 85.24ZM353.329 83.936C353.91 83.936 354.387 83.7973 354.761 83.52C355.134 83.2373 355.409 82.8507 355.585 82.36C355.766 81.864 355.857 81.3013 355.857 80.672C355.857 80.032 355.766 79.4693 355.585 78.984C355.409 78.4933 355.137 78.112 354.769 77.84C354.401 77.5627 353.934 77.424 353.369 77.424C352.782 77.424 352.297 77.568 351.913 77.856C351.534 78.144 351.251 78.5333 351.065 79.024C350.883 79.5147 350.793 80.064 350.793 80.672C350.793 81.2853 350.886 81.84 351.073 82.336C351.259 82.8267 351.539 83.216 351.913 83.504C352.291 83.792 352.763 83.936 353.329 83.936ZM355.857 85V78.64H355.697V73.48H357.129V85H355.857ZM362.364 85.24C361.516 85.24 360.775 85.0533 360.14 84.68C359.511 84.3013 359.02 83.776 358.668 83.104C358.316 82.4267 358.14 81.6373 358.14 80.736C358.14 79.792 358.313 78.976 358.66 78.288C359.007 77.5947 359.489 77.0613 360.108 76.688C360.732 76.3093 361.463 76.12 362.3 76.12C363.169 76.12 363.908 76.32 364.516 76.72C365.129 77.12 365.588 77.6907 365.892 78.432C366.201 79.1733 366.335 80.056 366.292 81.08H364.852V80.568C364.836 79.5067 364.62 78.7147 364.204 78.192C363.788 77.664 363.169 77.4 362.348 77.4C361.468 77.4 360.799 77.6827 360.34 78.248C359.881 78.8133 359.652 79.624 359.652 80.68C359.652 81.6987 359.881 82.488 360.34 83.048C360.799 83.608 361.452 83.888 362.3 83.888C362.871 83.888 363.367 83.7573 363.788 83.496C364.209 83.2347 364.54 82.8587 364.78 82.368L366.148 82.84C365.812 83.6027 365.305 84.1947 364.628 84.616C363.956 85.032 363.201 85.24 362.364 85.24ZM359.172 81.08V79.936H365.556V81.08H359.172ZM368.147 85V75.888C368.147 75.664 368.158 75.4373 368.179 75.208C368.2 74.9733 368.248 74.7467 368.323 74.528C368.398 74.304 368.52 74.0987 368.691 73.912C368.888 73.6933 369.104 73.5387 369.339 73.448C369.574 73.352 369.811 73.2933 370.051 73.272C370.296 73.2507 370.528 73.24 370.747 73.24H371.843V74.424H370.827C370.406 74.424 370.091 74.528 369.883 74.736C369.675 74.9387 369.571 75.248 369.571 75.664V85H368.147ZM366.683 77.536V76.36H371.843V77.536H366.683ZM373.523 74.832V73.36H374.947V74.832H373.523ZM373.523 85V76.36H374.947V85H373.523ZM382.756 85V80.672C382.756 80.2613 382.719 79.8667 382.644 79.488C382.575 79.1093 382.45 78.7707 382.268 78.472C382.092 78.168 381.852 77.928 381.548 77.752C381.25 77.576 380.871 77.488 380.412 77.488C380.055 77.488 379.73 77.5493 379.436 77.672C379.148 77.7893 378.9 77.9707 378.692 78.216C378.484 78.4613 378.322 78.7707 378.204 79.144C378.092 79.512 378.036 79.9467 378.036 80.448L377.1 80.16C377.1 79.3227 377.25 78.6053 377.548 78.008C377.852 77.4053 378.276 76.944 378.82 76.624C379.37 76.2987 380.015 76.136 380.756 76.136C381.316 76.136 381.794 76.224 382.188 76.4C382.583 76.576 382.911 76.8107 383.172 77.104C383.434 77.392 383.639 77.7173 383.788 78.08C383.938 78.4373 384.042 78.8027 384.1 79.176C384.164 79.544 384.196 79.8933 384.196 80.224V85H382.756ZM376.596 85V76.36H377.876V78.672H378.036V85H376.596ZM389.192 85.24C388.344 85.24 387.603 85.0533 386.968 84.68C386.339 84.3013 385.848 83.776 385.496 83.104C385.144 82.4267 384.968 81.6373 384.968 80.736C384.968 79.792 385.141 78.976 385.488 78.288C385.835 77.5947 386.317 77.0613 386.936 76.688C387.56 76.3093 388.291 76.12 389.128 76.12C389.997 76.12 390.736 76.32 391.344 76.72C391.957 77.12 392.416 77.6907 392.72 78.432C393.029 79.1733 393.163 80.056 393.12 81.08H391.68V80.568C391.664 79.5067 391.448 78.7147 391.032 78.192C390.616 77.664 389.997 77.4 389.176 77.4C388.296 77.4 387.627 77.6827 387.168 78.248C386.709 78.8133 386.48 79.624 386.48 80.68C386.48 81.6987 386.709 82.488 387.168 83.048C387.627 83.608 388.28 83.888 389.128 83.888C389.699 83.888 390.195 83.7573 390.616 83.496C391.037 83.2347 391.368 82.8587 391.608 82.368L392.976 82.84C392.64 83.6027 392.133 84.1947 391.456 84.616C390.784 85.032 390.029 85.24 389.192 85.24ZM386 81.08V79.936H392.384V81.08H386ZM399.996 85.24C399.191 85.24 398.5 85.04 397.924 84.64C397.348 84.2347 396.903 83.688 396.588 83C396.279 82.312 396.124 81.536 396.124 80.672C396.124 79.808 396.279 79.032 396.588 78.344C396.903 77.656 397.348 77.1147 397.924 76.72C398.5 76.32 399.188 76.12 399.988 76.12C400.804 76.12 401.49 76.3173 402.044 76.712C402.599 77.1067 403.018 77.648 403.3 78.336C403.588 79.024 403.732 79.8027 403.732 80.672C403.732 81.5307 403.588 82.3067 403.3 83C403.018 83.688 402.599 84.2347 402.044 84.64C401.49 85.04 400.807 85.24 399.996 85.24ZM400.172 83.936C400.754 83.936 401.231 83.7973 401.604 83.52C401.978 83.2373 402.252 82.8507 402.428 82.36C402.61 81.864 402.7 81.3013 402.7 80.672C402.7 80.032 402.61 79.4693 402.428 78.984C402.252 78.4933 401.98 78.112 401.612 77.84C401.244 77.5627 400.778 77.424 400.212 77.424C399.626 77.424 399.14 77.568 398.756 77.856C398.378 78.144 398.095 78.5333 397.908 79.024C397.727 79.5147 397.636 80.064 397.636 80.672C397.636 81.2853 397.73 81.84 397.916 82.336C398.103 82.8267 398.383 83.216 398.756 83.504C399.135 83.792 399.607 83.936 400.172 83.936ZM402.7 85V78.64H402.54V73.48H403.972V85H402.7ZM409.144 85.24C408.285 85.24 407.544 85.0453 406.92 84.656C406.301 84.2667 405.824 83.728 405.488 83.04C405.152 82.352 404.984 81.5627 404.984 80.672C404.984 79.7653 405.154 78.9707 405.496 78.288C405.837 77.6053 406.32 77.0747 406.944 76.696C407.568 76.312 408.301 76.12 409.144 76.12C410.008 76.12 410.752 76.3147 411.376 76.704C412 77.088 412.477 77.624 412.808 78.312C413.144 78.9947 413.312 79.7813 413.312 80.672C413.312 81.5733 413.144 82.368 412.808 83.056C412.472 83.7387 411.992 84.2747 411.368 84.664C410.744 85.048 410.002 85.24 409.144 85.24ZM409.144 83.888C410.04 83.888 410.706 83.5893 411.144 82.992C411.581 82.3947 411.8 81.6213 411.8 80.672C411.8 79.696 411.578 78.92 411.136 78.344C410.693 77.7627 410.029 77.472 409.144 77.472C408.541 77.472 408.045 77.608 407.656 77.88C407.266 78.152 406.976 78.528 406.784 79.008C406.592 79.488 406.496 80.0427 406.496 80.672C406.496 81.6427 406.72 82.4213 407.168 83.008C407.616 83.5947 408.274 83.888 409.144 83.888ZM417.963 85.24C417.088 85.24 416.344 85.0453 415.731 84.656C415.123 84.2613 414.659 83.72 414.339 83.032C414.019 82.344 413.854 81.56 413.843 80.68C413.854 79.7787 414.022 78.9867 414.347 78.304C414.678 77.616 415.15 77.08 415.763 76.696C416.376 76.312 417.115 76.12 417.979 76.12C418.891 76.12 419.675 76.344 420.331 76.792C420.992 77.24 421.435 77.8533 421.659 78.632L420.251 79.056C420.07 78.5547 419.774 78.1653 419.363 77.888C418.958 77.6107 418.491 77.472 417.963 77.472C417.371 77.472 416.883 77.6107 416.499 77.888C416.115 78.16 415.83 78.5387 415.643 79.024C415.456 79.504 415.36 80.056 415.355 80.68C415.366 81.64 415.587 82.416 416.019 83.008C416.456 83.5947 417.104 83.888 417.963 83.888C418.528 83.888 418.998 83.76 419.371 83.504C419.744 83.2427 420.027 82.8667 420.219 82.376L421.659 82.752C421.36 83.5573 420.894 84.1733 420.259 84.6C419.624 85.0267 418.859 85.24 417.963 85.24ZM425.822 85.224C425.267 85.224 424.79 85.136 424.39 84.96C423.995 84.784 423.667 84.5493 423.406 84.256C423.145 83.9627 422.939 83.6373 422.79 83.28C422.641 82.9227 422.534 82.5573 422.47 82.184C422.411 81.8107 422.382 81.4613 422.382 81.136V76.36H423.822V80.688C423.822 81.0933 423.859 81.4853 423.934 81.864C424.009 82.2427 424.134 82.584 424.31 82.888C424.491 83.192 424.731 83.432 425.03 83.608C425.334 83.784 425.713 83.872 426.166 83.872C426.523 83.872 426.849 83.8107 427.142 83.688C427.435 83.5653 427.686 83.384 427.894 83.144C428.102 82.8987 428.262 82.5893 428.374 82.216C428.486 81.8427 428.542 81.408 428.542 80.912L429.478 81.2C429.478 82.032 429.326 82.7493 429.022 83.352C428.723 83.9547 428.299 84.4187 427.75 84.744C427.206 85.064 426.563 85.224 425.822 85.224ZM428.702 85V82.688H428.542V76.36H429.974V85H428.702ZM441.792 85L441.8 79.472C441.8 78.8267 441.626 78.3227 441.28 77.96C440.938 77.592 440.493 77.408 439.944 77.408C439.624 77.408 439.32 77.4827 439.032 77.632C438.744 77.776 438.509 78.0053 438.328 78.32C438.146 78.6293 438.056 79.0267 438.056 79.512L437.304 79.208C437.293 78.5947 437.418 78.0587 437.68 77.6C437.946 77.136 438.309 76.776 438.768 76.52C439.226 76.264 439.744 76.136 440.32 76.136C441.221 76.136 441.93 76.4107 442.448 76.96C442.965 77.504 443.224 78.2373 443.224 79.16L443.216 85H441.792ZM431.456 85V76.36H432.728V78.672H432.888V85H431.456ZM436.632 85L436.64 79.528C436.64 78.8667 436.469 78.3493 436.128 77.976C435.786 77.5973 435.333 77.408 434.768 77.408C434.208 77.408 433.754 77.6 433.408 77.984C433.061 78.368 432.888 78.8773 432.888 79.512L432.136 79.064C432.136 78.504 432.269 78.0027 432.536 77.56C432.802 77.1173 433.165 76.7707 433.624 76.52C434.082 76.264 434.602 76.136 435.184 76.136C435.765 76.136 436.272 76.2587 436.704 76.504C437.136 76.7493 437.469 77.1013 437.704 77.56C437.938 78.0133 438.056 78.5547 438.056 79.184L438.048 85H436.632ZM448.223 85.24C447.375 85.24 446.634 85.0533 445.999 84.68C445.37 84.3013 444.879 83.776 444.527 83.104C444.175 82.4267 443.999 81.6373 443.999 80.736C443.999 79.792 444.173 78.976 444.519 78.288C444.866 77.5947 445.349 77.0613 445.967 76.688C446.591 76.3093 447.322 76.12 448.159 76.12C449.029 76.12 449.767 76.32 450.375 76.72C450.989 77.12 451.447 77.6907 451.751 78.432C452.061 79.1733 452.194 80.056 452.151 81.08H450.711V80.568C450.695 79.5067 450.479 78.7147 450.063 78.192C449.647 77.664 449.029 77.4 448.207 77.4C447.327 77.4 446.658 77.6827 446.199 78.248C445.741 78.8133 445.511 79.624 445.511 80.68C445.511 81.6987 445.741 82.488 446.199 83.048C446.658 83.608 447.311 83.888 448.159 83.888C448.73 83.888 449.226 83.7573 449.647 83.496C450.069 83.2347 450.399 82.8587 450.639 82.368L452.007 82.84C451.671 83.6027 451.165 84.1947 450.487 84.616C449.815 85.032 449.061 85.24 448.223 85.24ZM445.031 81.08V79.936H451.415V81.08H445.031ZM459.1 85V80.672C459.1 80.2613 459.063 79.8667 458.988 79.488C458.919 79.1093 458.793 78.7707 458.612 78.472C458.436 78.168 458.196 77.928 457.892 77.752C457.593 77.576 457.215 77.488 456.756 77.488C456.399 77.488 456.073 77.5493 455.78 77.672C455.492 77.7893 455.244 77.9707 455.036 78.216C454.828 78.4613 454.665 78.7707 454.548 79.144C454.436 79.512 454.38 79.9467 454.38 80.448L453.444 80.16C453.444 79.3227 453.593 78.6053 453.892 78.008C454.196 77.4053 454.62 76.944 455.164 76.624C455.713 76.2987 456.359 76.136 457.1 76.136C457.66 76.136 458.137 76.224 458.532 76.4C458.927 76.576 459.255 76.8107 459.516 77.104C459.777 77.392 459.983 77.7173 460.132 78.08C460.281 78.4373 460.385 78.8027 460.444 79.176C460.508 79.544 460.54 79.8933 460.54 80.224V85H459.1ZM452.94 85V76.36H454.22V78.672H454.38V85H452.94ZM466.694 85C466.182 85.1013 465.675 85.1413 465.174 85.12C464.678 85.104 464.235 85.0053 463.846 84.824C463.457 84.6373 463.161 84.3493 462.958 83.96C462.787 83.6187 462.694 83.2747 462.678 82.928C462.667 82.576 462.662 82.1787 462.662 81.736V73.96H464.086V81.672C464.086 82.024 464.089 82.3253 464.094 82.576C464.105 82.8267 464.161 83.0427 464.262 83.224C464.454 83.5653 464.758 83.7653 465.174 83.824C465.595 83.8827 466.102 83.8667 466.694 83.776V85ZM460.91 77.536V76.36H466.694V77.536H460.91ZM480.479 85L480.487 79.472C480.487 78.8267 480.314 78.3227 479.967 77.96C479.626 77.592 479.181 77.408 478.631 77.408C478.311 77.408 478.007 77.4827 477.719 77.632C477.431 77.776 477.197 78.0053 477.015 78.32C476.834 78.6293 476.743 79.0267 476.743 79.512L475.991 79.208C475.981 78.5947 476.106 78.0587 476.367 77.6C476.634 77.136 476.997 76.776 477.455 76.52C477.914 76.264 478.431 76.136 479.007 76.136C479.909 76.136 480.618 76.4107 481.135 76.96C481.653 77.504 481.911 78.2373 481.911 79.16L481.903 85H480.479ZM470.143 85V76.36H471.415V78.672H471.575V85H470.143ZM475.319 85L475.327 79.528C475.327 78.8667 475.157 78.3493 474.815 77.976C474.474 77.5973 474.021 77.408 473.455 77.408C472.895 77.408 472.442 77.6 472.095 77.984C471.749 78.368 471.575 78.8773 471.575 79.512L470.823 79.064C470.823 78.504 470.957 78.0027 471.223 77.56C471.49 77.1173 471.853 76.7707 472.311 76.52C472.77 76.264 473.29 76.136 473.871 76.136C474.453 76.136 474.959 76.2587 475.391 76.504C475.823 76.7493 476.157 77.1013 476.391 77.56C476.626 78.0133 476.743 78.5547 476.743 79.184L476.735 85H475.319ZM485.701 85.24C485.056 85.24 484.514 85.1227 484.077 84.888C483.645 84.648 483.317 84.3333 483.093 83.944C482.874 83.5547 482.765 83.128 482.765 82.664C482.765 82.2107 482.85 81.8187 483.021 81.488C483.197 81.152 483.442 80.8747 483.757 80.656C484.072 80.432 484.448 80.256 484.885 80.128C485.296 80.016 485.754 79.92 486.261 79.84C486.773 79.7547 487.29 79.6773 487.813 79.608C488.336 79.5387 488.824 79.472 489.277 79.408L488.765 79.704C488.781 78.936 488.626 78.368 488.301 78C487.981 77.632 487.426 77.448 486.637 77.448C486.114 77.448 485.656 77.568 485.261 77.808C484.872 78.0427 484.597 78.4267 484.437 78.96L483.085 78.552C483.293 77.7947 483.696 77.2 484.293 76.768C484.89 76.336 485.677 76.12 486.653 76.12C487.437 76.12 488.109 76.2613 488.669 76.544C489.234 76.8213 489.64 77.2427 489.885 77.808C490.008 78.0747 490.085 78.3653 490.117 78.68C490.149 78.9893 490.165 79.3147 490.165 79.656V85H488.901V82.928L489.197 83.12C488.872 83.8187 488.416 84.3467 487.829 84.704C487.248 85.0613 486.538 85.24 485.701 85.24ZM485.917 84.048C486.429 84.048 486.872 83.9573 487.245 83.776C487.624 83.5893 487.928 83.3467 488.157 83.048C488.386 82.744 488.536 82.4133 488.605 82.056C488.685 81.7893 488.728 81.4933 488.733 81.168C488.744 80.8373 488.749 80.584 488.749 80.408L489.245 80.624C488.781 80.688 488.325 80.7493 487.877 80.808C487.429 80.8667 487.005 80.9307 486.605 81C486.205 81.064 485.845 81.1413 485.525 81.232C485.29 81.3067 485.069 81.4027 484.861 81.52C484.658 81.6373 484.493 81.7893 484.365 81.976C484.242 82.1573 484.181 82.384 484.181 82.656C484.181 82.8907 484.24 83.1147 484.357 83.328C484.48 83.5413 484.666 83.7147 484.917 83.848C485.173 83.9813 485.506 84.048 485.917 84.048ZM497.647 85V80.672C497.647 80.2613 497.61 79.8667 497.535 79.488C497.466 79.1093 497.34 78.7707 497.159 78.472C496.983 78.168 496.743 77.928 496.439 77.752C496.14 77.576 495.762 77.488 495.303 77.488C494.946 77.488 494.62 77.5493 494.327 77.672C494.039 77.7893 493.791 77.9707 493.583 78.216C493.375 78.4613 493.212 78.7707 493.095 79.144C492.983 79.512 492.927 79.9467 492.927 80.448L491.991 80.16C491.991 79.3227 492.14 78.6053 492.439 78.008C492.743 77.4053 493.167 76.944 493.711 76.624C494.26 76.2987 494.906 76.136 495.647 76.136C496.207 76.136 496.684 76.224 497.079 76.4C497.474 76.576 497.802 76.8107 498.063 77.104C498.324 77.392 498.53 77.7173 498.679 78.08C498.828 78.4373 498.932 78.8027 498.991 79.176C499.055 79.544 499.087 79.8933 499.087 80.224V85H497.647ZM491.487 85V76.36H492.767V78.672H492.927V85H491.487ZM502.873 85.24C502.228 85.24 501.686 85.1227 501.249 84.888C500.817 84.648 500.489 84.3333 500.265 83.944C500.046 83.5547 499.937 83.128 499.937 82.664C499.937 82.2107 500.022 81.8187 500.193 81.488C500.369 81.152 500.614 80.8747 500.929 80.656C501.244 80.432 501.62 80.256 502.057 80.128C502.468 80.016 502.926 79.92 503.433 79.84C503.945 79.7547 504.462 79.6773 504.985 79.608C505.508 79.5387 505.996 79.472 506.449 79.408L505.937 79.704C505.953 78.936 505.798 78.368 505.473 78C505.153 77.632 504.598 77.448 503.809 77.448C503.286 77.448 502.828 77.568 502.433 77.808C502.044 78.0427 501.769 78.4267 501.609 78.96L500.257 78.552C500.465 77.7947 500.868 77.2 501.465 76.768C502.062 76.336 502.849 76.12 503.825 76.12C504.609 76.12 505.281 76.2613 505.841 76.544C506.406 76.8213 506.812 77.2427 507.057 77.808C507.18 78.0747 507.257 78.3653 507.289 78.68C507.321 78.9893 507.337 79.3147 507.337 79.656V85H506.073V82.928L506.369 83.12C506.044 83.8187 505.588 84.3467 505.001 84.704C504.42 85.0613 503.71 85.24 502.873 85.24ZM503.089 84.048C503.601 84.048 504.044 83.9573 504.417 83.776C504.796 83.5893 505.1 83.3467 505.329 83.048C505.558 82.744 505.708 82.4133 505.777 82.056C505.857 81.7893 505.9 81.4933 505.905 81.168C505.916 80.8373 505.921 80.584 505.921 80.408L506.417 80.624C505.953 80.688 505.497 80.7493 505.049 80.808C504.601 80.8667 504.177 80.9307 503.777 81C503.377 81.064 503.017 81.1413 502.697 81.232C502.462 81.3067 502.241 81.4027 502.033 81.52C501.83 81.6373 501.665 81.7893 501.537 81.976C501.414 82.1573 501.353 82.384 501.353 82.656C501.353 82.8907 501.412 83.1147 501.529 83.328C501.652 83.5413 501.838 83.7147 502.089 83.848C502.345 83.9813 502.678 84.048 503.089 84.048ZM512.163 89.08C511.71 89.08 511.267 89.0107 510.835 88.872C510.403 88.7333 510.006 88.5227 509.643 88.24C509.286 87.9627 508.987 87.6107 508.747 87.184L510.051 86.496C510.264 86.9173 510.566 87.224 510.955 87.416C511.35 87.608 511.755 87.704 512.171 87.704C512.72 87.704 513.176 87.6027 513.539 87.4C513.902 87.2027 514.168 86.9067 514.339 86.512C514.515 86.1173 514.6 85.6267 514.595 85.04V82.68H514.763V76.36H516.027V85.056C516.027 85.2907 516.019 85.5173 516.003 85.736C515.992 85.9547 515.966 86.1707 515.923 86.384C515.811 86.9973 515.59 87.5013 515.259 87.896C514.928 88.296 514.502 88.592 513.979 88.784C513.456 88.9813 512.851 89.08 512.163 89.08ZM512.059 85.24C511.254 85.24 510.563 85.04 509.987 84.64C509.411 84.2347 508.966 83.688 508.651 83C508.342 82.312 508.187 81.536 508.187 80.672C508.187 79.808 508.342 79.032 508.651 78.344C508.966 77.656 509.411 77.1147 509.987 76.72C510.563 76.32 511.251 76.12 512.051 76.12C512.867 76.12 513.552 76.3173 514.107 76.712C514.662 77.1067 515.08 77.648 515.363 78.336C515.651 79.024 515.795 79.8027 515.795 80.672C515.795 81.5307 515.651 82.3067 515.363 83C515.08 83.688 514.662 84.2347 514.107 84.64C513.552 85.04 512.87 85.24 512.059 85.24ZM512.235 83.936C512.816 83.936 513.294 83.7973 513.667 83.52C514.04 83.2373 514.315 82.8507 514.491 82.36C514.672 81.864 514.763 81.3013 514.763 80.672C514.763 80.032 514.672 79.4693 514.491 78.984C514.315 78.4933 514.043 78.112 513.675 77.84C513.307 77.5627 512.84 77.424 512.275 77.424C511.688 77.424 511.203 77.568 510.819 77.856C510.44 78.144 510.158 78.5333 509.971 79.024C509.79 79.5147 509.699 80.064 509.699 80.672C509.699 81.2853 509.792 81.84 509.979 82.336C510.166 82.8267 510.446 83.216 510.819 83.504C511.198 83.792 511.67 83.936 512.235 83.936ZM521.255 85.24C520.407 85.24 519.665 85.0533 519.031 84.68C518.401 84.3013 517.911 83.776 517.559 83.104C517.207 82.4267 517.031 81.6373 517.031 80.736C517.031 79.792 517.204 78.976 517.551 78.288C517.897 77.5947 518.38 77.0613 518.999 76.688C519.623 76.3093 520.353 76.12 521.191 76.12C522.06 76.12 522.799 76.32 523.407 76.72C524.02 77.12 524.479 77.6907 524.783 78.432C525.092 79.1733 525.225 80.056 525.183 81.08H523.743V80.568C523.727 79.5067 523.511 78.7147 523.095 78.192C522.679 77.664 522.06 77.4 521.239 77.4C520.359 77.4 519.689 77.6827 519.231 78.248C518.772 78.8133 518.543 79.624 518.543 80.68C518.543 81.6987 518.772 82.488 519.231 83.048C519.689 83.608 520.343 83.888 521.191 83.888C521.761 83.888 522.257 83.7573 522.679 83.496C523.1 83.2347 523.431 82.8587 523.671 82.368L525.039 82.84C524.703 83.6027 524.196 84.1947 523.519 84.616C522.847 85.032 522.092 85.24 521.255 85.24ZM518.063 81.08V79.936H524.447V81.08H518.063ZM536.307 85L536.315 79.472C536.315 78.8267 536.142 78.3227 535.795 77.96C535.454 77.592 535.009 77.408 534.459 77.408C534.139 77.408 533.835 77.4827 533.547 77.632C533.259 77.776 533.025 78.0053 532.843 78.32C532.662 78.6293 532.571 79.0267 532.571 79.512L531.819 79.208C531.809 78.5947 531.934 78.0587 532.195 77.6C532.462 77.136 532.825 76.776 533.283 76.52C533.742 76.264 534.259 76.136 534.835 76.136C535.737 76.136 536.446 76.4107 536.963 76.96C537.481 77.504 537.739 78.2373 537.739 79.16L537.731 85H536.307ZM525.971 85V76.36H527.243V78.672H527.403V85H525.971ZM531.147 85L531.155 79.528C531.155 78.8667 530.985 78.3493 530.643 77.976C530.302 77.5973 529.849 77.408 529.283 77.408C528.723 77.408 528.27 77.6 527.923 77.984C527.577 78.368 527.403 78.8773 527.403 79.512L526.651 79.064C526.651 78.504 526.785 78.0027 527.051 77.56C527.318 77.1173 527.681 76.7707 528.139 76.52C528.598 76.264 529.118 76.136 529.699 76.136C530.281 76.136 530.787 76.2587 531.219 76.504C531.651 76.7493 531.985 77.1013 532.219 77.56C532.454 78.0133 532.571 78.5547 532.571 79.184L532.563 85H531.147ZM542.739 85.24C541.891 85.24 541.15 85.0533 540.515 84.68C539.886 84.3013 539.395 83.776 539.043 83.104C538.691 82.4267 538.515 81.6373 538.515 80.736C538.515 79.792 538.688 78.976 539.035 78.288C539.382 77.5947 539.864 77.0613 540.483 76.688C541.107 76.3093 541.838 76.12 542.675 76.12C543.544 76.12 544.283 76.32 544.891 76.72C545.504 77.12 545.963 77.6907 546.267 78.432C546.576 79.1733 546.71 80.056 546.667 81.08H545.227V80.568C545.211 79.5067 544.995 78.7147 544.579 78.192C544.163 77.664 543.544 77.4 542.723 77.4C541.843 77.4 541.174 77.6827 540.715 78.248C540.256 78.8133 540.027 79.624 540.027 80.68C540.027 81.6987 540.256 82.488 540.715 83.048C541.174 83.608 541.827 83.888 542.675 83.888C543.246 83.888 543.742 83.7573 544.163 83.496C544.584 83.2347 544.915 82.8587 545.155 82.368L546.523 82.84C546.187 83.6027 545.68 84.1947 545.003 84.616C544.331 85.032 543.576 85.24 542.739 85.24ZM539.547 81.08V79.936H545.931V81.08H539.547ZM553.616 85V80.672C553.616 80.2613 553.578 79.8667 553.504 79.488C553.434 79.1093 553.309 78.7707 553.128 78.472C552.952 78.168 552.712 77.928 552.408 77.752C552.109 77.576 551.73 77.488 551.272 77.488C550.914 77.488 550.589 77.5493 550.296 77.672C550.008 77.7893 549.76 77.9707 549.552 78.216C549.344 78.4613 549.181 78.7707 549.064 79.144C548.952 79.512 548.896 79.9467 548.896 80.448L547.96 80.16C547.96 79.3227 548.109 78.6053 548.408 78.008C548.712 77.4053 549.136 76.944 549.68 76.624C550.229 76.2987 550.874 76.136 551.616 76.136C552.176 76.136 552.653 76.224 553.048 76.4C553.442 76.576 553.77 76.8107 554.032 77.104C554.293 77.392 554.498 77.7173 554.648 78.08C554.797 78.4373 554.901 78.8027 554.96 79.176C555.024 79.544 555.056 79.8933 555.056 80.224V85H553.616ZM547.456 85V76.36H548.736V78.672H548.896V85H547.456ZM561.21 85C560.698 85.1013 560.191 85.1413 559.69 85.12C559.194 85.104 558.751 85.0053 558.362 84.824C557.972 84.6373 557.676 84.3493 557.474 83.96C557.303 83.6187 557.21 83.2747 557.194 82.928C557.183 82.576 557.178 82.1787 557.178 81.736V73.96H558.602V81.672C558.602 82.024 558.604 82.3253 558.61 82.576C558.62 82.8267 558.676 83.0427 558.778 83.224C558.97 83.5653 559.274 83.7653 559.69 83.824C560.111 83.8827 560.618 83.8667 561.21 83.776V85ZM555.426 77.536V76.36H561.21V77.536H555.426ZM566.507 85L563.867 76.352L565.283 76.36L567.211 82.68L569.155 76.36H570.411L572.347 82.68L574.283 76.36H575.691L573.051 85H571.867L569.779 78.432L567.691 85H566.507ZM576.546 74.832V73.36H577.97V74.832H576.546ZM576.546 85V76.36H577.97V85H576.546ZM584.444 85C583.932 85.1013 583.425 85.1413 582.924 85.12C582.428 85.104 581.985 85.0053 581.596 84.824C581.207 84.6373 580.911 84.3493 580.708 83.96C580.537 83.6187 580.444 83.2747 580.428 82.928C580.417 82.576 580.412 82.1787 580.412 81.736V73.96H581.836V81.672C581.836 82.024 581.839 82.3253 581.844 82.576C581.855 82.8267 581.911 83.0427 582.012 83.224C582.204 83.5653 582.508 83.7653 582.924 83.824C583.345 83.8827 583.852 83.8667 584.444 83.776V85ZM578.66 77.536V76.36H584.444V77.536H578.66ZM591.6 85V80.672C591.6 80.2613 591.563 79.8667 591.488 79.488C591.419 79.1093 591.293 78.7707 591.112 78.472C590.936 78.168 590.696 77.928 590.392 77.752C590.093 77.576 589.715 77.488 589.256 77.488C588.899 77.488 588.573 77.5493 588.28 77.672C587.992 77.7893 587.744 77.9707 587.536 78.216C587.328 78.4613 587.165 78.7707 587.048 79.144C586.936 79.512 586.88 79.9467 586.88 80.448L585.944 80.16C585.944 79.3227 586.093 78.6053 586.392 78.008C586.696 77.4053 587.12 76.944 587.664 76.624C588.213 76.2987 588.859 76.136 589.6 76.136C590.16 76.136 590.637 76.224 591.032 76.4C591.427 76.576 591.755 76.8107 592.016 77.104C592.277 77.392 592.483 77.7173 592.632 78.08C592.781 78.4373 592.885 78.8027 592.944 79.176C593.008 79.544 593.04 79.8933 593.04 80.224V85H591.6ZM585.44 85V73.48H586.72V79.84H586.88V85H585.44ZM600.463 85.24C599.588 85.24 598.844 85.0453 598.231 84.656C597.623 84.2613 597.159 83.72 596.839 83.032C596.519 82.344 596.354 81.56 596.343 80.68C596.354 79.7787 596.522 78.9867 596.847 78.304C597.178 77.616 597.65 77.08 598.263 76.696C598.876 76.312 599.615 76.12 600.479 76.12C601.391 76.12 602.175 76.344 602.831 76.792C603.492 77.24 603.935 77.8533 604.159 78.632L602.751 79.056C602.57 78.5547 602.274 78.1653 601.863 77.888C601.458 77.6107 600.991 77.472 600.463 77.472C599.871 77.472 599.383 77.6107 598.999 77.888C598.615 78.16 598.33 78.5387 598.143 79.024C597.956 79.504 597.86 80.056 597.855 80.68C597.866 81.64 598.087 82.416 598.519 83.008C598.956 83.5947 599.604 83.888 600.463 83.888C601.028 83.888 601.498 83.76 601.871 83.504C602.244 83.2427 602.527 82.8667 602.719 82.376L604.159 82.752C603.86 83.5573 603.394 84.1733 602.759 84.6C602.124 85.0267 601.359 85.24 600.463 85.24ZM608.322 85.224C607.767 85.224 607.29 85.136 606.89 84.96C606.495 84.784 606.167 84.5493 605.906 84.256C605.645 83.9627 605.439 83.6373 605.29 83.28C605.141 82.9227 605.034 82.5573 604.97 82.184C604.911 81.8107 604.882 81.4613 604.882 81.136V76.36H606.322V80.688C606.322 81.0933 606.359 81.4853 606.434 81.864C606.509 82.2427 606.634 82.584 606.81 82.888C606.991 83.192 607.231 83.432 607.53 83.608C607.834 83.784 608.213 83.872 608.666 83.872C609.023 83.872 609.349 83.8107 609.642 83.688C609.935 83.5653 610.186 83.384 610.394 83.144C610.602 82.8987 610.762 82.5893 610.874 82.216C610.986 81.8427 611.042 81.408 611.042 80.912L611.978 81.2C611.978 82.032 611.826 82.7493 611.522 83.352C611.223 83.9547 610.799 84.4187 610.25 84.744C609.706 85.064 609.063 85.224 608.322 85.224ZM611.202 85V82.688H611.042V76.36H612.474V85H611.202ZM618.788 85C618.276 85.1013 617.769 85.1413 617.268 85.12C616.772 85.104 616.329 85.0053 615.94 84.824C615.55 84.6373 615.254 84.3493 615.052 83.96C614.881 83.6187 614.788 83.2747 614.772 82.928C614.761 82.576 614.756 82.1787 614.756 81.736V73.96H616.18V81.672C616.18 82.024 616.182 82.3253 616.188 82.576C616.198 82.8267 616.254 83.0427 616.356 83.224C616.548 83.5653 616.852 83.7653 617.268 83.824C617.689 83.8827 618.196 83.8667 618.788 83.776V85ZM613.004 77.536V76.36H618.788V77.536H613.004ZM624.412 85C623.9 85.1013 623.393 85.1413 622.892 85.12C622.396 85.104 621.953 85.0053 621.564 84.824C621.174 84.6373 620.878 84.3493 620.676 83.96C620.505 83.6187 620.412 83.2747 620.396 82.928C620.385 82.576 620.38 82.1787 620.38 81.736V73.96H621.804V81.672C621.804 82.024 621.806 82.3253 621.812 82.576C621.822 82.8267 621.878 83.0427 621.98 83.224C622.172 83.5653 622.476 83.7653 622.892 83.824C623.313 83.8827 623.82 83.8667 624.412 83.776V85ZM618.628 77.536V76.36H624.412V77.536H618.628ZM625.577 74.832V73.36H627.001V74.832H625.577ZM625.577 85V76.36H627.001V85H625.577ZM634.803 85V80.672C634.803 80.2613 634.766 79.8667 634.691 79.488C634.622 79.1093 634.497 78.7707 634.315 78.472C634.139 78.168 633.899 77.928 633.595 77.752C633.297 77.576 632.918 77.488 632.459 77.488C632.102 77.488 631.777 77.5493 631.483 77.672C631.195 77.7893 630.947 77.9707 630.739 78.216C630.531 78.4613 630.369 78.7707 630.251 79.144C630.139 79.512 630.083 79.9467 630.083 80.448L629.147 80.16C629.147 79.3227 629.297 78.6053 629.595 78.008C629.899 77.4053 630.323 76.944 630.867 76.624C631.417 76.2987 632.062 76.136 632.803 76.136C633.363 76.136 633.841 76.224 634.235 76.4C634.63 76.576 634.958 76.8107 635.219 77.104C635.481 77.392 635.686 77.7173 635.835 78.08C635.985 78.4373 636.089 78.8027 636.147 79.176C636.211 79.544 636.243 79.8933 636.243 80.224V85H634.803ZM628.643 85V76.36H629.923V78.672H630.083V85H628.643ZM641.069 89.08C640.616 89.08 640.173 89.0107 639.741 88.872C639.309 88.7333 638.912 88.5227 638.549 88.24C638.192 87.9627 637.893 87.6107 637.653 87.184L638.957 86.496C639.17 86.9173 639.472 87.224 639.861 87.416C640.256 87.608 640.661 87.704 641.077 87.704C641.626 87.704 642.082 87.6027 642.445 87.4C642.808 87.2027 643.074 86.9067 643.245 86.512C643.421 86.1173 643.506 85.6267 643.501 85.04V82.68H643.669V76.36H644.933V85.056C644.933 85.2907 644.925 85.5173 644.909 85.736C644.898 85.9547 644.872 86.1707 644.829 86.384C644.717 86.9973 644.496 87.5013 644.165 87.896C643.834 88.296 643.408 88.592 642.885 88.784C642.362 88.9813 641.757 89.08 641.069 89.08ZM640.965 85.24C640.16 85.24 639.469 85.04 638.893 84.64C638.317 84.2347 637.872 83.688 637.557 83C637.248 82.312 637.093 81.536 637.093 80.672C637.093 79.808 637.248 79.032 637.557 78.344C637.872 77.656 638.317 77.1147 638.893 76.72C639.469 76.32 640.157 76.12 640.957 76.12C641.773 76.12 642.458 76.3173 643.013 76.712C643.568 77.1067 643.986 77.648 644.269 78.336C644.557 79.024 644.701 79.8027 644.701 80.672C644.701 81.5307 644.557 82.3067 644.269 83C643.986 83.688 643.568 84.2347 643.013 84.64C642.458 85.04 641.776 85.24 640.965 85.24ZM641.141 83.936C641.722 83.936 642.2 83.7973 642.573 83.52C642.946 83.2373 643.221 82.8507 643.397 82.36C643.578 81.864 643.669 81.3013 643.669 80.672C643.669 80.032 643.578 79.4693 643.397 78.984C643.221 78.4933 642.949 78.112 642.581 77.84C642.213 77.5627 641.746 77.424 641.181 77.424C640.594 77.424 640.109 77.568 639.725 77.856C639.346 78.144 639.064 78.5333 638.877 79.024C638.696 79.5147 638.605 80.064 638.605 80.672C638.605 81.2853 638.698 81.84 638.885 82.336C639.072 82.8267 639.352 83.216 639.725 83.504C640.104 83.792 640.576 83.936 641.141 83.936ZM646.257 80.544V79.368H651.057V80.544H646.257ZM656.13 85.24C655.282 85.24 654.54 85.0533 653.906 84.68C653.276 84.3013 652.786 83.776 652.434 83.104C652.082 82.4267 651.906 81.6373 651.906 80.736C651.906 79.792 652.079 78.976 652.426 78.288C652.772 77.5947 653.255 77.0613 653.874 76.688C654.498 76.3093 655.228 76.12 656.066 76.12C656.935 76.12 657.674 76.32 658.282 76.72C658.895 77.12 659.354 77.6907 659.658 78.432C659.967 79.1733 660.1 80.056 660.058 81.08H658.618V80.568C658.602 79.5067 658.386 78.7147 657.97 78.192C657.554 77.664 656.935 77.4 656.114 77.4C655.234 77.4 654.564 77.6827 654.106 78.248C653.647 78.8133 653.418 79.624 653.418 80.68C653.418 81.6987 653.647 82.488 654.106 83.048C654.564 83.608 655.218 83.888 656.066 83.888C656.636 83.888 657.132 83.7573 657.554 83.496C657.975 83.2347 658.306 82.8587 658.546 82.368L659.914 82.84C659.578 83.6027 659.071 84.1947 658.394 84.616C657.722 85.032 656.967 85.24 656.13 85.24ZM652.938 81.08V79.936H659.322V81.08H652.938ZM664.481 85.24C663.675 85.24 662.985 85.04 662.409 84.64C661.833 84.2347 661.387 83.688 661.073 83C660.763 82.312 660.609 81.536 660.609 80.672C660.609 79.808 660.763 79.032 661.073 78.344C661.387 77.656 661.833 77.1147 662.409 76.72C662.985 76.32 663.673 76.12 664.473 76.12C665.289 76.12 665.974 76.3173 666.529 76.712C667.083 77.1067 667.502 77.648 667.785 78.336C668.073 79.024 668.217 79.8027 668.217 80.672C668.217 81.5307 668.073 82.3067 667.785 83C667.502 83.688 667.083 84.2347 666.529 84.64C665.974 85.04 665.291 85.24 664.481 85.24ZM664.657 83.936C665.238 83.936 665.715 83.7973 666.089 83.52C666.462 83.2373 666.737 82.8507 666.913 82.36C667.094 81.864 667.185 81.3013 667.185 80.672C667.185 80.032 667.094 79.4693 666.913 78.984C666.737 78.4933 666.465 78.112 666.097 77.84C665.729 77.5627 665.262 77.424 664.697 77.424C664.11 77.424 663.625 77.568 663.241 77.856C662.862 78.144 662.579 78.5333 662.393 79.024C662.211 79.5147 662.121 80.064 662.121 80.672C662.121 81.2853 662.214 81.84 662.401 82.336C662.587 82.8267 662.867 83.216 663.241 83.504C663.619 83.792 664.091 83.936 664.657 83.936ZM667.185 85V78.64H667.025V73.48H668.457V85H667.185ZM673.444 89.08C672.991 89.08 672.548 89.0107 672.116 88.872C671.684 88.7333 671.287 88.5227 670.924 88.24C670.567 87.9627 670.268 87.6107 670.028 87.184L671.332 86.496C671.545 86.9173 671.847 87.224 672.236 87.416C672.631 87.608 673.036 87.704 673.452 87.704C674.001 87.704 674.457 87.6027 674.82 87.4C675.183 87.2027 675.449 86.9067 675.62 86.512C675.796 86.1173 675.881 85.6267 675.876 85.04V82.68H676.044V76.36H677.308V85.056C677.308 85.2907 677.3 85.5173 677.284 85.736C677.273 85.9547 677.247 86.1707 677.204 86.384C677.092 86.9973 676.871 87.5013 676.54 87.896C676.209 88.296 675.783 88.592 675.26 88.784C674.737 88.9813 674.132 89.08 673.444 89.08ZM673.34 85.24C672.535 85.24 671.844 85.04 671.268 84.64C670.692 84.2347 670.247 83.688 669.932 83C669.623 82.312 669.468 81.536 669.468 80.672C669.468 79.808 669.623 79.032 669.932 78.344C670.247 77.656 670.692 77.1147 671.268 76.72C671.844 76.32 672.532 76.12 673.332 76.12C674.148 76.12 674.833 76.3173 675.388 76.712C675.943 77.1067 676.361 77.648 676.644 78.336C676.932 79.024 677.076 79.8027 677.076 80.672C677.076 81.5307 676.932 82.3067 676.644 83C676.361 83.688 675.943 84.2347 675.388 84.64C674.833 85.04 674.151 85.24 673.34 85.24ZM673.516 83.936C674.097 83.936 674.575 83.7973 674.948 83.52C675.321 83.2373 675.596 82.8507 675.772 82.36C675.953 81.864 676.044 81.3013 676.044 80.672C676.044 80.032 675.953 79.4693 675.772 78.984C675.596 78.4933 675.324 78.112 674.956 77.84C674.588 77.5627 674.121 77.424 673.556 77.424C672.969 77.424 672.484 77.568 672.1 77.856C671.721 78.144 671.439 78.5333 671.252 79.024C671.071 79.5147 670.98 80.064 670.98 80.672C670.98 81.2853 671.073 81.84 671.26 82.336C671.447 82.8267 671.727 83.216 672.1 83.504C672.479 83.792 672.951 83.936 673.516 83.936ZM682.536 85.24C681.688 85.24 680.947 85.0533 680.312 84.68C679.683 84.3013 679.192 83.776 678.84 83.104C678.488 82.4267 678.312 81.6373 678.312 80.736C678.312 79.792 678.485 78.976 678.832 78.288C679.179 77.5947 679.661 77.0613 680.28 76.688C680.904 76.3093 681.635 76.12 682.472 76.12C683.341 76.12 684.08 76.32 684.688 76.72C685.301 77.12 685.76 77.6907 686.064 78.432C686.373 79.1733 686.507 80.056 686.464 81.08H685.024V80.568C685.008 79.5067 684.792 78.7147 684.376 78.192C683.96 77.664 683.341 77.4 682.52 77.4C681.64 77.4 680.971 77.6827 680.512 78.248C680.053 78.8133 679.824 79.624 679.824 80.68C679.824 81.6987 680.053 82.488 680.512 83.048C680.971 83.608 681.624 83.888 682.472 83.888C683.043 83.888 683.539 83.7573 683.96 83.496C684.381 83.2347 684.712 82.8587 684.952 82.368L686.32 82.84C685.984 83.6027 685.477 84.1947 684.8 84.616C684.128 85.032 683.373 85.24 682.536 85.24ZM679.344 81.08V79.936H685.728V81.08H679.344ZM694.772 85C694.26 85.1013 693.753 85.1413 693.252 85.12C692.756 85.104 692.313 85.0053 691.924 84.824C691.535 84.6373 691.239 84.3493 691.036 83.96C690.865 83.6187 690.772 83.2747 690.756 82.928C690.745 82.576 690.74 82.1787 690.74 81.736V73.96H692.164V81.672C692.164 82.024 692.167 82.3253 692.172 82.576C692.183 82.8267 692.239 83.0427 692.34 83.224C692.532 83.5653 692.836 83.7653 693.252 83.824C693.673 83.8827 694.18 83.8667 694.772 83.776V85ZM688.988 77.536V76.36H694.772V77.536H688.988ZM699.161 85.24C698.313 85.24 697.572 85.0533 696.937 84.68C696.308 84.3013 695.817 83.776 695.465 83.104C695.113 82.4267 694.937 81.6373 694.937 80.736C694.937 79.792 695.11 78.976 695.457 78.288C695.804 77.5947 696.286 77.0613 696.905 76.688C697.529 76.3093 698.26 76.12 699.097 76.12C699.966 76.12 700.705 76.32 701.313 76.72C701.926 77.12 702.385 77.6907 702.689 78.432C702.998 79.1733 703.132 80.056 703.089 81.08H701.649V80.568C701.633 79.5067 701.417 78.7147 701.001 78.192C700.585 77.664 699.966 77.4 699.145 77.4C698.265 77.4 697.596 77.6827 697.137 78.248C696.678 78.8133 696.449 79.624 696.449 80.68C696.449 81.6987 696.678 82.488 697.137 83.048C697.596 83.608 698.249 83.888 699.097 83.888C699.668 83.888 700.164 83.7573 700.585 83.496C701.006 83.2347 701.337 82.8587 701.577 82.368L702.945 82.84C702.609 83.6027 702.102 84.1947 701.425 84.616C700.753 85.032 699.998 85.24 699.161 85.24ZM695.969 81.08V79.936H702.353V81.08H695.969ZM707.76 85.24C706.885 85.24 706.141 85.0453 705.528 84.656C704.92 84.2613 704.456 83.72 704.136 83.032C703.816 82.344 703.651 81.56 703.64 80.68C703.651 79.7787 703.819 78.9867 704.144 78.304C704.475 77.616 704.947 77.08 705.56 76.696C706.173 76.312 706.912 76.12 707.776 76.12C708.688 76.12 709.472 76.344 710.128 76.792C710.789 77.24 711.232 77.8533 711.456 78.632L710.048 79.056C709.867 78.5547 709.571 78.1653 709.16 77.888C708.755 77.6107 708.288 77.472 707.76 77.472C707.168 77.472 706.68 77.6107 706.296 77.888C705.912 78.16 705.627 78.5387 705.44 79.024C705.253 79.504 705.157 80.056 705.152 80.68C705.163 81.64 705.384 82.416 705.816 83.008C706.253 83.5947 706.901 83.888 707.76 83.888C708.325 83.888 708.795 83.76 709.168 83.504C709.541 83.2427 709.824 82.8667 710.016 82.376L711.456 82.752C711.157 83.5573 710.691 84.1733 710.056 84.6C709.421 85.0267 708.656 85.24 707.76 85.24ZM718.491 85V80.672C718.491 80.2613 718.453 79.8667 718.379 79.488C718.309 79.1093 718.184 78.7707 718.003 78.472C717.827 78.168 717.587 77.928 717.283 77.752C716.984 77.576 716.605 77.488 716.147 77.488C715.789 77.488 715.464 77.5493 715.171 77.672C714.883 77.7893 714.635 77.9707 714.427 78.216C714.219 78.4613 714.056 78.7707 713.939 79.144C713.827 79.512 713.771 79.9467 713.771 80.448L712.835 80.16C712.835 79.3227 712.984 78.6053 713.283 78.008C713.587 77.4053 714.011 76.944 714.555 76.624C715.104 76.2987 715.749 76.136 716.491 76.136C717.051 76.136 717.528 76.224 717.923 76.4C718.317 76.576 718.645 76.8107 718.907 77.104C719.168 77.392 719.373 77.7173 719.523 78.08C719.672 78.4373 719.776 78.8027 719.835 79.176C719.899 79.544 719.931 79.8933 719.931 80.224V85H718.491ZM712.331 85V73.48H713.611V79.84H713.771V85H712.331ZM727.413 85V80.672C727.413 80.2613 727.375 79.8667 727.301 79.488C727.231 79.1093 727.106 78.7707 726.925 78.472C726.749 78.168 726.509 77.928 726.205 77.752C725.906 77.576 725.527 77.488 725.069 77.488C724.711 77.488 724.386 77.5493 724.093 77.672C723.805 77.7893 723.557 77.9707 723.349 78.216C723.141 78.4613 722.978 78.7707 722.861 79.144C722.749 79.512 722.693 79.9467 722.693 80.448L721.757 80.16C721.757 79.3227 721.906 78.6053 722.205 78.008C722.509 77.4053 722.933 76.944 723.477 76.624C724.026 76.2987 724.671 76.136 725.413 76.136C725.973 76.136 726.45 76.224 726.845 76.4C727.239 76.576 727.567 76.8107 727.829 77.104C728.09 77.392 728.295 77.7173 728.445 78.08C728.594 78.4373 728.698 78.8027 728.757 79.176C728.821 79.544 728.853 79.8933 728.853 80.224V85H727.413ZM721.253 85V76.36H722.533V78.672H722.693V85H721.253ZM733.784 85.24C732.926 85.24 732.184 85.0453 731.56 84.656C730.942 84.2667 730.464 83.728 730.128 83.04C729.792 82.352 729.624 81.5627 729.624 80.672C729.624 79.7653 729.795 78.9707 730.136 78.288C730.478 77.6053 730.96 77.0747 731.584 76.696C732.208 76.312 732.942 76.12 733.784 76.12C734.648 76.12 735.392 76.3147 736.016 76.704C736.64 77.088 737.118 77.624 737.448 78.312C737.784 78.9947 737.952 79.7813 737.952 80.672C737.952 81.5733 737.784 82.368 737.448 83.056C737.112 83.7387 736.632 84.2747 736.008 84.664C735.384 85.048 734.643 85.24 733.784 85.24ZM733.784 83.888C734.68 83.888 735.347 83.5893 735.784 82.992C736.222 82.3947 736.44 81.6213 736.44 80.672C736.44 79.696 736.219 78.92 735.776 78.344C735.334 77.7627 734.67 77.472 733.784 77.472C733.182 77.472 732.686 77.608 732.296 77.88C731.907 78.152 731.616 78.528 731.424 79.008C731.232 79.488 731.136 80.0427 731.136 80.672C731.136 81.6427 731.36 82.4213 731.808 83.008C732.256 83.5947 732.915 83.888 733.784 83.888ZM739.124 85V73.24H740.548V85H739.124ZM745.878 85.24C745.019 85.24 744.278 85.0453 743.654 84.656C743.035 84.2667 742.558 83.728 742.222 83.04C741.886 82.352 741.718 81.5627 741.718 80.672C741.718 79.7653 741.889 78.9707 742.23 78.288C742.571 77.6053 743.054 77.0747 743.678 76.696C744.302 76.312 745.035 76.12 745.878 76.12C746.742 76.12 747.486 76.3147 748.11 76.704C748.734 77.088 749.211 77.624 749.542 78.312C749.878 78.9947 750.046 79.7813 750.046 80.672C750.046 81.5733 749.878 82.368 749.542 83.056C749.206 83.7387 748.726 84.2747 748.102 84.664C747.478 85.048 746.737 85.24 745.878 85.24ZM745.878 83.888C746.774 83.888 747.441 83.5893 747.878 82.992C748.315 82.3947 748.534 81.6213 748.534 80.672C748.534 79.696 748.313 78.92 747.87 78.344C747.427 77.7627 746.763 77.472 745.878 77.472C745.275 77.472 744.779 77.608 744.39 77.88C744.001 78.152 743.71 78.528 743.518 79.008C743.326 79.488 743.23 80.0427 743.23 80.672C743.23 81.6427 743.454 82.4213 743.902 83.008C744.35 83.5947 745.009 83.888 745.878 83.888ZM754.554 89.08C754.1 89.08 753.658 89.0107 753.226 88.872C752.794 88.7333 752.396 88.5227 752.034 88.24C751.676 87.9627 751.378 87.6107 751.138 87.184L752.442 86.496C752.655 86.9173 752.956 87.224 753.346 87.416C753.74 87.608 754.146 87.704 754.562 87.704C755.111 87.704 755.567 87.6027 755.93 87.4C756.292 87.2027 756.559 86.9067 756.73 86.512C756.906 86.1173 756.991 85.6267 756.986 85.04V82.68H757.154V76.36H758.418V85.056C758.418 85.2907 758.41 85.5173 758.394 85.736C758.383 85.9547 758.356 86.1707 758.314 86.384C758.202 86.9973 757.98 87.5013 757.65 87.896C757.319 88.296 756.892 88.592 756.37 88.784C755.847 88.9813 755.242 89.08 754.554 89.08ZM754.45 85.24C753.644 85.24 752.954 85.04 752.378 84.64C751.802 84.2347 751.356 83.688 751.042 83C750.732 82.312 750.578 81.536 750.578 80.672C750.578 79.808 750.732 79.032 751.042 78.344C751.356 77.656 751.802 77.1147 752.378 76.72C752.954 76.32 753.642 76.12 754.442 76.12C755.258 76.12 755.943 76.3173 756.498 76.712C757.052 77.1067 757.471 77.648 757.754 78.336C758.042 79.024 758.186 79.8027 758.186 80.672C758.186 81.5307 758.042 82.3067 757.754 83C757.471 83.688 757.052 84.2347 756.498 84.64C755.943 85.04 755.26 85.24 754.45 85.24ZM754.626 83.936C755.207 83.936 755.684 83.7973 756.058 83.52C756.431 83.2373 756.706 82.8507 756.882 82.36C757.063 81.864 757.154 81.3013 757.154 80.672C757.154 80.032 757.063 79.4693 756.882 78.984C756.706 78.4933 756.434 78.112 756.066 77.84C755.698 77.5627 755.231 77.424 754.666 77.424C754.079 77.424 753.594 77.568 753.21 77.856C752.831 78.144 752.548 78.5333 752.362 79.024C752.18 79.5147 752.09 80.064 752.09 80.672C752.09 81.2853 752.183 81.84 752.37 82.336C752.556 82.8267 752.836 83.216 753.21 83.504C753.588 83.792 754.06 83.936 754.626 83.936ZM761.101 88.84L762.773 84.296L762.797 85.64L759.021 76.36H760.517L763.477 83.824H762.965L765.741 76.36H767.189L762.485 88.84H761.101ZM775.038 85C774.526 85.1013 774.019 85.1413 773.518 85.12C773.022 85.104 772.579 85.0053 772.19 84.824C771.8 84.6373 771.504 84.3493 771.302 83.96C771.131 83.6187 771.038 83.2747 771.022 82.928C771.011 82.576 771.006 82.1787 771.006 81.736V73.96H772.43V81.672C772.43 82.024 772.432 82.3253 772.438 82.576C772.448 82.8267 772.504 83.0427 772.606 83.224C772.798 83.5653 773.102 83.7653 773.518 83.824C773.939 83.8827 774.446 83.8667 775.038 83.776V85ZM769.254 77.536V76.36H775.038V77.536H769.254ZM782.194 85V80.672C782.194 80.2613 782.157 79.8667 782.082 79.488C782.013 79.1093 781.887 78.7707 781.706 78.472C781.53 78.168 781.29 77.928 780.986 77.752C780.687 77.576 780.309 77.488 779.85 77.488C779.493 77.488 779.167 77.5493 778.874 77.672C778.586 77.7893 778.338 77.9707 778.13 78.216C777.922 78.4613 777.759 78.7707 777.642 79.144C777.53 79.512 777.474 79.9467 777.474 80.448L776.538 80.16C776.538 79.3227 776.687 78.6053 776.986 78.008C777.29 77.4053 777.714 76.944 778.258 76.624C778.807 76.2987 779.453 76.136 780.194 76.136C780.754 76.136 781.231 76.224 781.626 76.4C782.021 76.576 782.349 76.8107 782.61 77.104C782.871 77.392 783.077 77.7173 783.226 78.08C783.375 78.4373 783.479 78.8027 783.538 79.176C783.602 79.544 783.634 79.8933 783.634 80.224V85H782.194ZM776.034 85V73.48H777.314V79.84H777.474V85H776.034ZM787.42 85.24C786.774 85.24 786.233 85.1227 785.796 84.888C785.364 84.648 785.036 84.3333 784.812 83.944C784.593 83.5547 784.484 83.128 784.484 82.664C784.484 82.2107 784.569 81.8187 784.74 81.488C784.916 81.152 785.161 80.8747 785.476 80.656C785.79 80.432 786.166 80.256 786.604 80.128C787.014 80.016 787.473 79.92 787.98 79.84C788.492 79.7547 789.009 79.6773 789.532 79.608C790.054 79.5387 790.542 79.472 790.996 79.408L790.484 79.704C790.5 78.936 790.345 78.368 790.02 78C789.7 77.632 789.145 77.448 788.356 77.448C787.833 77.448 787.374 77.568 786.98 77.808C786.59 78.0427 786.316 78.4267 786.156 78.96L784.804 78.552C785.012 77.7947 785.414 77.2 786.012 76.768C786.609 76.336 787.396 76.12 788.372 76.12C789.156 76.12 789.828 76.2613 790.388 76.544C790.953 76.8213 791.358 77.2427 791.604 77.808C791.726 78.0747 791.804 78.3653 791.836 78.68C791.868 78.9893 791.884 79.3147 791.884 79.656V85H790.62V82.928L790.916 83.12C790.59 83.8187 790.134 84.3467 789.548 84.704C788.966 85.0613 788.257 85.24 787.42 85.24ZM787.636 84.048C788.148 84.048 788.59 83.9573 788.964 83.776C789.342 83.5893 789.646 83.3467 789.876 83.048C790.105 82.744 790.254 82.4133 790.324 82.056C790.404 81.7893 790.446 81.4933 790.452 81.168C790.462 80.8373 790.468 80.584 790.468 80.408L790.964 80.624C790.5 80.688 790.044 80.7493 789.596 80.808C789.148 80.8667 788.724 80.9307 788.324 81C787.924 81.064 787.564 81.1413 787.244 81.232C787.009 81.3067 786.788 81.4027 786.58 81.52C786.377 81.6373 786.212 81.7893 786.084 81.976C785.961 82.1573 785.9 82.384 785.9 82.656C785.9 82.8907 785.958 83.1147 786.076 83.328C786.198 83.5413 786.385 83.7147 786.636 83.848C786.892 83.9813 787.225 84.048 787.636 84.048ZM798.038 85C797.526 85.1013 797.019 85.1413 796.518 85.12C796.022 85.104 795.579 85.0053 795.19 84.824C794.8 84.6373 794.504 84.3493 794.302 83.96C794.131 83.6187 794.038 83.2747 794.022 82.928C794.011 82.576 794.006 82.1787 794.006 81.736V73.96H795.43V81.672C795.43 82.024 795.432 82.3253 795.438 82.576C795.448 82.8267 795.504 83.0427 795.606 83.224C795.798 83.5653 796.102 83.7653 796.518 83.824C796.939 83.8827 797.446 83.8667 798.038 83.776V85ZM792.254 77.536V76.36H798.038V77.536H792.254ZM320.864 107.24C320.016 107.24 319.275 107.053 318.64 106.68C318.011 106.301 317.52 105.776 317.168 105.104C316.816 104.427 316.64 103.637 316.64 102.736C316.64 101.792 316.813 100.976 317.16 100.288C317.507 99.5947 317.989 99.0613 318.608 98.688C319.232 98.3093 319.963 98.12 320.8 98.12C321.669 98.12 322.408 98.32 323.016 98.72C323.629 99.12 324.088 99.6907 324.392 100.432C324.701 101.173 324.835 102.056 324.792 103.08H323.352V102.568C323.336 101.507 323.12 100.715 322.704 100.192C322.288 99.664 321.669 99.4 320.848 99.4C319.968 99.4 319.299 99.6827 318.84 100.248C318.381 100.813 318.152 101.624 318.152 102.68C318.152 103.699 318.381 104.488 318.84 105.048C319.299 105.608 319.952 105.888 320.8 105.888C321.371 105.888 321.867 105.757 322.288 105.496C322.709 105.235 323.04 104.859 323.28 104.368L324.648 104.84C324.312 105.603 323.805 106.195 323.128 106.616C322.456 107.032 321.701 107.24 320.864 107.24ZM317.672 103.08V101.936H324.056V103.08H317.672ZM331.741 107V102.672C331.741 102.261 331.703 101.867 331.629 101.488C331.559 101.109 331.434 100.771 331.253 100.472C331.077 100.168 330.837 99.928 330.533 99.752C330.234 99.576 329.855 99.488 329.397 99.488C329.039 99.488 328.714 99.5493 328.421 99.672C328.133 99.7893 327.885 99.9707 327.677 100.216C327.469 100.461 327.306 100.771 327.189 101.144C327.077 101.512 327.021 101.947 327.021 102.448L326.085 102.16C326.085 101.323 326.234 100.605 326.533 100.008C326.837 99.4053 327.261 98.944 327.805 98.624C328.354 98.2987 328.999 98.136 329.741 98.136C330.301 98.136 330.778 98.224 331.173 98.4C331.567 98.576 331.895 98.8107 332.157 99.104C332.418 99.392 332.623 99.7173 332.773 100.08C332.922 100.437 333.026 100.803 333.085 101.176C333.149 101.544 333.181 101.893 333.181 102.224V107H331.741ZM325.581 107V98.36H326.861V100.672H327.021V107H325.581ZM337.775 107.232C336.745 107.232 335.9 107.008 335.239 106.56C334.583 106.107 334.18 105.475 334.031 104.664L335.487 104.432C335.604 104.901 335.873 105.275 336.295 105.552C336.716 105.824 337.239 105.96 337.863 105.96C338.455 105.96 338.919 105.837 339.255 105.592C339.591 105.347 339.759 105.013 339.759 104.592C339.759 104.347 339.703 104.149 339.591 104C339.479 103.845 339.247 103.701 338.895 103.568C338.548 103.435 338.023 103.275 337.319 103.088C336.556 102.885 335.956 102.675 335.519 102.456C335.081 102.237 334.769 101.984 334.583 101.696C334.396 101.408 334.303 101.059 334.303 100.648C334.303 100.141 334.441 99.6987 334.719 99.32C334.996 98.936 335.383 98.64 335.879 98.432C336.38 98.224 336.961 98.12 337.623 98.12C338.279 98.12 338.865 98.224 339.383 98.432C339.9 98.64 340.316 98.936 340.631 99.32C340.951 99.6987 341.14 100.141 341.199 100.648L339.743 100.912C339.673 100.448 339.449 100.083 339.071 99.816C338.697 99.5493 338.215 99.408 337.623 99.392C337.063 99.3707 336.607 99.4693 336.255 99.688C335.908 99.9067 335.735 100.203 335.735 100.576C335.735 100.784 335.799 100.963 335.927 101.112C336.06 101.261 336.303 101.403 336.655 101.536C337.012 101.669 337.529 101.821 338.207 101.992C338.969 102.184 339.569 102.395 340.007 102.624C340.449 102.848 340.764 103.115 340.951 103.424C341.137 103.728 341.231 104.104 341.231 104.552C341.231 105.384 340.924 106.04 340.311 106.52C339.697 106.995 338.852 107.232 337.775 107.232ZM345.525 107.224C344.97 107.224 344.493 107.136 344.093 106.96C343.698 106.784 343.37 106.549 343.109 106.256C342.848 105.963 342.642 105.637 342.493 105.28C342.344 104.923 342.237 104.557 342.173 104.184C342.114 103.811 342.085 103.461 342.085 103.136V98.36H343.525V102.688C343.525 103.093 343.562 103.485 343.637 103.864C343.712 104.243 343.837 104.584 344.013 104.888C344.194 105.192 344.434 105.432 344.733 105.608C345.037 105.784 345.416 105.872 345.869 105.872C346.226 105.872 346.552 105.811 346.845 105.688C347.138 105.565 347.389 105.384 347.597 105.144C347.805 104.899 347.965 104.589 348.077 104.216C348.189 103.843 348.245 103.408 348.245 102.912L349.181 103.2C349.181 104.032 349.029 104.749 348.725 105.352C348.426 105.955 348.002 106.419 347.453 106.744C346.909 107.064 346.266 107.224 345.525 107.224ZM348.405 107V104.688H348.245V98.36H349.677V107H348.405ZM351.167 107V98.36H352.439V100.448L352.231 100.176C352.332 99.9093 352.463 99.664 352.623 99.44C352.788 99.216 352.972 99.032 353.175 98.888C353.399 98.7067 353.652 98.568 353.935 98.472C354.218 98.376 354.506 98.32 354.799 98.304C355.092 98.2827 355.367 98.3013 355.623 98.36V99.696C355.324 99.616 354.996 99.5947 354.639 99.632C354.282 99.6693 353.951 99.8 353.647 100.024C353.37 100.221 353.154 100.461 352.999 100.744C352.85 101.027 352.746 101.333 352.687 101.664C352.628 101.989 352.599 102.323 352.599 102.664V107H351.167ZM359.973 107.24C359.125 107.24 358.384 107.053 357.749 106.68C357.12 106.301 356.629 105.776 356.277 105.104C355.925 104.427 355.749 103.637 355.749 102.736C355.749 101.792 355.923 100.976 356.269 100.288C356.616 99.5947 357.099 99.0613 357.717 98.688C358.341 98.3093 359.072 98.12 359.909 98.12C360.779 98.12 361.517 98.32 362.125 98.72C362.739 99.12 363.197 99.6907 363.501 100.432C363.811 101.173 363.944 102.056 363.901 103.08H362.461V102.568C362.445 101.507 362.229 100.715 361.813 100.192C361.397 99.664 360.779 99.4 359.957 99.4C359.077 99.4 358.408 99.6827 357.949 100.248C357.491 100.813 357.261 101.624 357.261 102.68C357.261 103.699 357.491 104.488 357.949 105.048C358.408 105.608 359.061 105.888 359.909 105.888C360.48 105.888 360.976 105.757 361.397 105.496C361.819 105.235 362.149 104.859 362.389 104.368L363.757 104.84C363.421 105.603 362.915 106.195 362.237 106.616C361.565 107.032 360.811 107.24 359.973 107.24ZM356.781 103.08V101.936H363.165V103.08H356.781ZM368.197 107.232C367.167 107.232 366.322 107.008 365.661 106.56C365.005 106.107 364.602 105.475 364.453 104.664L365.909 104.432C366.026 104.901 366.295 105.275 366.717 105.552C367.138 105.824 367.661 105.96 368.285 105.96C368.877 105.96 369.341 105.837 369.677 105.592C370.013 105.347 370.181 105.013 370.181 104.592C370.181 104.347 370.125 104.149 370.013 104C369.901 103.845 369.669 103.701 369.317 103.568C368.97 103.435 368.445 103.275 367.741 103.088C366.978 102.885 366.378 102.675 365.941 102.456C365.503 102.237 365.191 101.984 365.005 101.696C364.818 101.408 364.725 101.059 364.725 100.648C364.725 100.141 364.863 99.6987 365.141 99.32C365.418 98.936 365.805 98.64 366.301 98.432C366.802 98.224 367.383 98.12 368.045 98.12C368.701 98.12 369.287 98.224 369.805 98.432C370.322 98.64 370.738 98.936 371.053 99.32C371.373 99.6987 371.562 100.141 371.621 100.648L370.165 100.912C370.095 100.448 369.871 100.083 369.493 99.816C369.119 99.5493 368.637 99.408 368.045 99.392C367.485 99.3707 367.029 99.4693 366.677 99.688C366.33 99.9067 366.157 100.203 366.157 100.576C366.157 100.784 366.221 100.963 366.349 101.112C366.482 101.261 366.725 101.403 367.077 101.536C367.434 101.669 367.951 101.821 368.629 101.992C369.391 102.184 369.991 102.395 370.429 102.624C370.871 102.848 371.186 103.115 371.373 103.424C371.559 103.728 371.653 104.104 371.653 104.552C371.653 105.384 371.346 106.04 370.733 106.52C370.119 106.995 369.274 107.232 368.197 107.232ZM377.576 107.24C376.931 107.24 376.389 107.123 375.952 106.888C375.52 106.648 375.192 106.333 374.968 105.944C374.749 105.555 374.64 105.128 374.64 104.664C374.64 104.211 374.725 103.819 374.896 103.488C375.072 103.152 375.317 102.875 375.632 102.656C375.947 102.432 376.323 102.256 376.76 102.128C377.171 102.016 377.629 101.92 378.136 101.84C378.648 101.755 379.165 101.677 379.688 101.608C380.211 101.539 380.699 101.472 381.152 101.408L380.64 101.704C380.656 100.936 380.501 100.368 380.176 100C379.856 99.632 379.301 99.448 378.512 99.448C377.989 99.448 377.531 99.568 377.136 99.808C376.747 100.043 376.472 100.427 376.312 100.96L374.96 100.552C375.168 99.7947 375.571 99.2 376.168 98.768C376.765 98.336 377.552 98.12 378.528 98.12C379.312 98.12 379.984 98.2613 380.544 98.544C381.109 98.8213 381.515 99.2427 381.76 99.808C381.883 100.075 381.96 100.365 381.992 100.68C382.024 100.989 382.04 101.315 382.04 101.656V107H380.776V104.928L381.072 105.12C380.747 105.819 380.291 106.347 379.704 106.704C379.123 107.061 378.413 107.24 377.576 107.24ZM377.792 106.048C378.304 106.048 378.747 105.957 379.12 105.776C379.499 105.589 379.803 105.347 380.032 105.048C380.261 104.744 380.411 104.413 380.48 104.056C380.56 103.789 380.603 103.493 380.608 103.168C380.619 102.837 380.624 102.584 380.624 102.408L381.12 102.624C380.656 102.688 380.2 102.749 379.752 102.808C379.304 102.867 378.88 102.931 378.48 103C378.08 103.064 377.72 103.141 377.4 103.232C377.165 103.307 376.944 103.403 376.736 103.52C376.533 103.637 376.368 103.789 376.24 103.976C376.117 104.157 376.056 104.384 376.056 104.656C376.056 104.891 376.115 105.115 376.232 105.328C376.355 105.541 376.541 105.715 376.792 105.848C377.048 105.981 377.381 106.048 377.792 106.048ZM387.01 107.24C386.135 107.24 385.391 107.045 384.778 106.656C384.17 106.261 383.706 105.72 383.386 105.032C383.066 104.344 382.901 103.56 382.89 102.68C382.901 101.779 383.069 100.987 383.394 100.304C383.725 99.616 384.197 99.08 384.81 98.696C385.423 98.312 386.162 98.12 387.026 98.12C387.938 98.12 388.722 98.344 389.378 98.792C390.039 99.24 390.482 99.8533 390.706 100.632L389.298 101.056C389.117 100.555 388.821 100.165 388.41 99.888C388.005 99.6107 387.538 99.472 387.01 99.472C386.418 99.472 385.93 99.6107 385.546 99.888C385.162 100.16 384.877 100.539 384.69 101.024C384.503 101.504 384.407 102.056 384.402 102.68C384.413 103.64 384.634 104.416 385.066 105.008C385.503 105.595 386.151 105.888 387.01 105.888C387.575 105.888 388.045 105.76 388.418 105.504C388.791 105.243 389.074 104.867 389.266 104.376L390.706 104.752C390.407 105.557 389.941 106.173 389.306 106.6C388.671 107.027 387.906 107.24 387.01 107.24ZM394.994 107.24C394.12 107.24 393.376 107.045 392.762 106.656C392.154 106.261 391.69 105.72 391.37 105.032C391.05 104.344 390.885 103.56 390.874 102.68C390.885 101.779 391.053 100.987 391.378 100.304C391.709 99.616 392.181 99.08 392.794 98.696C393.408 98.312 394.146 98.12 395.01 98.12C395.922 98.12 396.706 98.344 397.362 98.792C398.024 99.24 398.466 99.8533 398.69 100.632L397.282 101.056C397.101 100.555 396.805 100.165 396.394 99.888C395.989 99.6107 395.522 99.472 394.994 99.472C394.402 99.472 393.914 99.6107 393.53 99.888C393.146 100.16 392.861 100.539 392.674 101.024C392.488 101.504 392.392 102.056 392.386 102.68C392.397 103.64 392.618 104.416 393.05 105.008C393.488 105.595 394.136 105.888 394.994 105.888C395.56 105.888 396.029 105.76 396.402 105.504C396.776 105.243 397.058 104.867 397.25 104.376L398.69 104.752C398.392 105.557 397.925 106.173 397.29 106.6C396.656 107.027 395.89 107.24 394.994 107.24ZM402.853 107.224C402.298 107.224 401.821 107.136 401.421 106.96C401.026 106.784 400.698 106.549 400.437 106.256C400.176 105.963 399.97 105.637 399.821 105.28C399.672 104.923 399.565 104.557 399.501 104.184C399.442 103.811 399.413 103.461 399.413 103.136V98.36H400.853V102.688C400.853 103.093 400.89 103.485 400.965 103.864C401.04 104.243 401.165 104.584 401.341 104.888C401.522 105.192 401.762 105.432 402.061 105.608C402.365 105.784 402.744 105.872 403.197 105.872C403.554 105.872 403.88 105.811 404.173 105.688C404.466 105.565 404.717 105.384 404.925 105.144C405.133 104.899 405.293 104.589 405.405 104.216C405.517 103.843 405.573 103.408 405.573 102.912L406.509 103.2C406.509 104.032 406.357 104.749 406.053 105.352C405.754 105.955 405.33 106.419 404.781 106.744C404.237 107.064 403.594 107.224 402.853 107.224ZM405.733 107V104.688H405.573V98.36H407.005V107H405.733ZM408.495 107V98.36H409.767V100.448L409.559 100.176C409.66 99.9093 409.791 99.664 409.951 99.44C410.116 99.216 410.3 99.032 410.503 98.888C410.727 98.7067 410.98 98.568 411.263 98.472C411.546 98.376 411.834 98.32 412.127 98.304C412.42 98.2827 412.695 98.3013 412.951 98.36V99.696C412.652 99.616 412.324 99.5947 411.967 99.632C411.61 99.6693 411.279 99.8 410.975 100.024C410.698 100.221 410.482 100.461 410.327 100.744C410.178 101.027 410.074 101.333 410.015 101.664C409.956 101.989 409.927 102.323 409.927 102.664V107H408.495ZM415.889 107.24C415.243 107.24 414.702 107.123 414.265 106.888C413.833 106.648 413.505 106.333 413.281 105.944C413.062 105.555 412.953 105.128 412.953 104.664C412.953 104.211 413.038 103.819 413.209 103.488C413.385 103.152 413.63 102.875 413.945 102.656C414.259 102.432 414.635 102.256 415.073 102.128C415.483 102.016 415.942 101.92 416.449 101.84C416.961 101.755 417.478 101.677 418.001 101.608C418.523 101.539 419.011 101.472 419.465 101.408L418.953 101.704C418.969 100.936 418.814 100.368 418.489 100C418.169 99.632 417.614 99.448 416.825 99.448C416.302 99.448 415.843 99.568 415.449 99.808C415.059 100.043 414.785 100.427 414.625 100.96L413.273 100.552C413.481 99.7947 413.883 99.2 414.481 98.768C415.078 98.336 415.865 98.12 416.841 98.12C417.625 98.12 418.297 98.2613 418.857 98.544C419.422 98.8213 419.827 99.2427 420.073 99.808C420.195 100.075 420.273 100.365 420.305 100.68C420.337 100.989 420.352 101.315 420.352 101.656V107H419.089V104.928L419.385 105.12C419.059 105.819 418.603 106.347 418.017 106.704C417.435 107.061 416.726 107.24 415.889 107.24ZM416.105 106.048C416.617 106.048 417.059 105.957 417.433 105.776C417.811 105.589 418.115 105.347 418.345 105.048C418.574 104.744 418.723 104.413 418.793 104.056C418.873 103.789 418.915 103.493 418.921 103.168C418.931 102.837 418.937 102.584 418.937 102.408L419.433 102.624C418.969 102.688 418.513 102.749 418.065 102.808C417.617 102.867 417.193 102.931 416.793 103C416.393 103.064 416.033 103.141 415.713 103.232C415.478 103.307 415.257 103.403 415.049 103.52C414.846 103.637 414.681 103.789 414.553 103.976C414.43 104.157 414.368 104.384 414.368 104.656C414.368 104.891 414.427 105.115 414.545 105.328C414.667 105.541 414.854 105.715 415.105 105.848C415.361 105.981 415.694 106.048 416.105 106.048ZM425.323 107.24C424.448 107.24 423.704 107.045 423.091 106.656C422.483 106.261 422.019 105.72 421.699 105.032C421.379 104.344 421.213 103.56 421.203 102.68C421.213 101.779 421.381 100.987 421.707 100.304C422.037 99.616 422.509 99.08 423.123 98.696C423.736 98.312 424.475 98.12 425.339 98.12C426.251 98.12 427.035 98.344 427.691 98.792C428.352 99.24 428.795 99.8533 429.019 100.632L427.611 101.056C427.429 100.555 427.133 100.165 426.723 99.888C426.317 99.6107 425.851 99.472 425.323 99.472C424.731 99.472 424.243 99.6107 423.859 99.888C423.475 100.16 423.189 100.539 423.003 101.024C422.816 101.504 422.72 102.056 422.715 102.68C422.725 103.64 422.947 104.416 423.379 105.008C423.816 105.595 424.464 105.888 425.323 105.888C425.888 105.888 426.357 105.76 426.731 105.504C427.104 105.243 427.387 104.867 427.579 104.376L429.019 104.752C428.72 105.557 428.253 106.173 427.619 106.6C426.984 107.027 426.219 107.24 425.323 107.24ZM430.789 110.84L432.461 106.296L432.485 107.64L428.709 98.36H430.205L433.165 105.824H432.653L435.429 98.36H436.877L432.173 110.84H430.789ZM436.007 108.792L436.095 108.128C436.319 108.144 436.487 108.101 436.599 108C436.711 107.899 436.783 107.76 436.815 107.584C436.847 107.408 436.852 107.213 436.831 107H436.007V105.192H437.575V107.24C437.575 107.8 437.436 108.221 437.159 108.504C436.887 108.787 436.503 108.883 436.007 108.792ZM446.067 107.24C445.219 107.24 444.478 107.053 443.843 106.68C443.214 106.301 442.723 105.776 442.371 105.104C442.019 104.427 441.843 103.637 441.843 102.736C441.843 101.792 442.016 100.976 442.363 100.288C442.71 99.5947 443.192 99.0613 443.811 98.688C444.435 98.3093 445.166 98.12 446.003 98.12C446.872 98.12 447.611 98.32 448.219 98.72C448.832 99.12 449.291 99.6907 449.595 100.432C449.904 101.173 450.038 102.056 449.995 103.08H448.555V102.568C448.539 101.507 448.323 100.715 447.907 100.192C447.491 99.664 446.872 99.4 446.051 99.4C445.171 99.4 444.502 99.6827 444.043 100.248C443.584 100.813 443.355 101.624 443.355 102.68C443.355 103.699 443.584 104.488 444.043 105.048C444.502 105.608 445.155 105.888 446.003 105.888C446.574 105.888 447.07 105.757 447.491 105.496C447.912 105.235 448.243 104.859 448.483 104.368L449.851 104.84C449.515 105.603 449.008 106.195 448.331 106.616C447.659 107.032 446.904 107.24 446.067 107.24ZM442.875 103.08V101.936H449.259V103.08H442.875ZM451.85 107V97.888C451.85 97.664 451.861 97.4373 451.882 97.208C451.904 96.9733 451.952 96.7467 452.026 96.528C452.101 96.304 452.224 96.0987 452.394 95.912C452.592 95.6933 452.808 95.5387 453.042 95.448C453.277 95.352 453.514 95.2933 453.754 95.272C454 95.2507 454.232 95.24 454.45 95.24H455.546V96.424H454.53C454.109 96.424 453.794 96.528 453.586 96.736C453.378 96.9387 453.274 97.248 453.274 97.664V107H451.85ZM450.386 99.536V98.36H455.546V99.536H450.386ZM456.93 107V97.888C456.93 97.664 456.941 97.4373 456.962 97.208C456.984 96.9733 457.032 96.7467 457.106 96.528C457.181 96.304 457.304 96.0987 457.474 95.912C457.672 95.6933 457.888 95.5387 458.122 95.448C458.357 95.352 458.594 95.2933 458.834 95.272C459.08 95.2507 459.312 95.24 459.53 95.24H460.626V96.424H459.61C459.189 96.424 458.874 96.528 458.666 96.736C458.458 96.9387 458.354 97.248 458.354 97.664V107H456.93ZM455.466 99.536V98.36H460.626V99.536H455.466ZM461.546 96.832V95.36H462.97V96.832H461.546ZM461.546 107V98.36H462.97V107H461.546ZM468.26 107.24C467.385 107.24 466.641 107.045 466.028 106.656C465.42 106.261 464.956 105.72 464.636 105.032C464.316 104.344 464.151 103.56 464.14 102.68C464.151 101.779 464.319 100.987 464.644 100.304C464.975 99.616 465.447 99.08 466.06 98.696C466.673 98.312 467.412 98.12 468.276 98.12C469.188 98.12 469.972 98.344 470.628 98.792C471.289 99.24 471.732 99.8533 471.956 100.632L470.548 101.056C470.367 100.555 470.071 100.165 469.66 99.888C469.255 99.6107 468.788 99.472 468.26 99.472C467.668 99.472 467.18 99.6107 466.796 99.888C466.412 100.16 466.127 100.539 465.94 101.024C465.753 101.504 465.657 102.056 465.652 102.68C465.663 103.64 465.884 104.416 466.316 105.008C466.753 105.595 467.401 105.888 468.26 105.888C468.825 105.888 469.295 105.76 469.668 105.504C470.041 105.243 470.324 104.867 470.516 104.376L471.956 104.752C471.657 105.557 471.191 106.173 470.556 106.6C469.921 107.027 469.156 107.24 468.26 107.24ZM472.764 96.832V95.36H474.188V96.832H472.764ZM472.764 107V98.36H474.188V107H472.764ZM479.583 107.24C478.735 107.24 477.993 107.053 477.359 106.68C476.729 106.301 476.239 105.776 475.887 105.104C475.535 104.427 475.359 103.637 475.359 102.736C475.359 101.792 475.532 100.976 475.879 100.288C476.225 99.5947 476.708 99.0613 477.327 98.688C477.951 98.3093 478.681 98.12 479.519 98.12C480.388 98.12 481.127 98.32 481.735 98.72C482.348 99.12 482.807 99.6907 483.111 100.432C483.42 101.173 483.553 102.056 483.511 103.08H482.071V102.568C482.055 101.507 481.839 100.715 481.423 100.192C481.007 99.664 480.388 99.4 479.567 99.4C478.687 99.4 478.017 99.6827 477.559 100.248C477.1 100.813 476.871 101.624 476.871 102.68C476.871 103.699 477.1 104.488 477.559 105.048C478.017 105.608 478.671 105.888 479.519 105.888C480.089 105.888 480.585 105.757 481.007 105.496C481.428 105.235 481.759 104.859 481.999 104.368L483.367 104.84C483.031 105.603 482.524 106.195 481.847 106.616C481.175 107.032 480.42 107.24 479.583 107.24ZM476.391 103.08V101.936H482.775V103.08H476.391ZM490.46 107V102.672C490.46 102.261 490.422 101.867 490.348 101.488C490.278 101.109 490.153 100.771 489.972 100.472C489.796 100.168 489.556 99.928 489.252 99.752C488.953 99.576 488.574 99.488 488.116 99.488C487.758 99.488 487.433 99.5493 487.14 99.672C486.852 99.7893 486.604 99.9707 486.396 100.216C486.188 100.461 486.025 100.771 485.908 101.144C485.796 101.512 485.74 101.947 485.74 102.448L484.804 102.16C484.804 101.323 484.953 100.605 485.252 100.008C485.556 99.4053 485.98 98.944 486.524 98.624C487.073 98.2987 487.718 98.136 488.46 98.136C489.02 98.136 489.497 98.224 489.892 98.4C490.286 98.576 490.614 98.8107 490.876 99.104C491.137 99.392 491.342 99.7173 491.492 100.08C491.641 100.437 491.745 100.803 491.804 101.176C491.868 101.544 491.9 101.893 491.9 102.224V107H490.46ZM484.3 107V98.36H485.58V100.672H485.74V107H484.3ZM496.791 107.24C495.917 107.24 495.173 107.045 494.559 106.656C493.951 106.261 493.487 105.72 493.167 105.032C492.847 104.344 492.682 103.56 492.671 102.68C492.682 101.779 492.85 100.987 493.175 100.304C493.506 99.616 493.978 99.08 494.591 98.696C495.205 98.312 495.943 98.12 496.807 98.12C497.719 98.12 498.503 98.344 499.159 98.792C499.821 99.24 500.263 99.8533 500.487 100.632L499.079 101.056C498.898 100.555 498.602 100.165 498.191 99.888C497.786 99.6107 497.319 99.472 496.791 99.472C496.199 99.472 495.711 99.6107 495.327 99.888C494.943 100.16 494.658 100.539 494.471 101.024C494.285 101.504 494.189 102.056 494.183 102.68C494.194 103.64 494.415 104.416 494.847 105.008C495.285 105.595 495.933 105.888 496.791 105.888C497.357 105.888 497.826 105.76 498.199 105.504C498.573 105.243 498.855 104.867 499.047 104.376L500.487 104.752C500.189 105.557 499.722 106.173 499.087 106.6C498.453 107.027 497.687 107.24 496.791 107.24ZM502.258 110.84L503.93 106.296L503.954 107.64L500.178 98.36H501.674L504.634 105.824H504.122L506.898 98.36H508.345L503.642 110.84H502.258ZM507.476 108.792L507.564 108.128C507.788 108.144 507.956 108.101 508.068 108C508.18 107.899 508.252 107.76 508.284 107.584C508.316 107.408 508.321 107.213 508.3 107H507.476V105.192H509.044V107.24C509.044 107.8 508.905 108.221 508.628 108.504C508.356 108.787 507.972 108.883 507.476 108.792ZM516.248 107.24C515.603 107.24 515.061 107.123 514.624 106.888C514.192 106.648 513.864 106.333 513.64 105.944C513.421 105.555 513.312 105.128 513.312 104.664C513.312 104.211 513.397 103.819 513.568 103.488C513.744 103.152 513.989 102.875 514.304 102.656C514.619 102.432 514.995 102.256 515.432 102.128C515.843 102.016 516.301 101.92 516.808 101.84C517.32 101.755 517.837 101.677 518.36 101.608C518.883 101.539 519.371 101.472 519.824 101.408L519.312 101.704C519.328 100.936 519.173 100.368 518.848 100C518.528 99.632 517.973 99.448 517.184 99.448C516.661 99.448 516.203 99.568 515.808 99.808C515.419 100.043 515.144 100.427 514.984 100.96L513.632 100.552C513.84 99.7947 514.243 99.2 514.84 98.768C515.437 98.336 516.224 98.12 517.2 98.12C517.984 98.12 518.656 98.2613 519.216 98.544C519.781 98.8213 520.187 99.2427 520.432 99.808C520.555 100.075 520.632 100.365 520.664 100.68C520.696 100.989 520.712 101.315 520.712 101.656V107H519.448V104.928L519.744 105.12C519.419 105.819 518.963 106.347 518.376 106.704C517.795 107.061 517.085 107.24 516.248 107.24ZM516.464 106.048C516.976 106.048 517.419 105.957 517.792 105.776C518.171 105.589 518.475 105.347 518.704 105.048C518.933 104.744 519.083 104.413 519.152 104.056C519.232 103.789 519.275 103.493 519.28 103.168C519.291 102.837 519.296 102.584 519.296 102.408L519.792 102.624C519.328 102.688 518.872 102.749 518.424 102.808C517.976 102.867 517.552 102.931 517.152 103C516.752 103.064 516.392 103.141 516.072 103.232C515.837 103.307 515.616 103.403 515.408 103.52C515.205 103.637 515.04 103.789 514.912 103.976C514.789 104.157 514.728 104.384 514.728 104.656C514.728 104.891 514.787 105.115 514.904 105.328C515.027 105.541 515.213 105.715 515.464 105.848C515.72 105.981 516.053 106.048 516.464 106.048ZM528.194 107V102.672C528.194 102.261 528.157 101.867 528.082 101.488C528.013 101.109 527.887 100.771 527.706 100.472C527.53 100.168 527.29 99.928 526.986 99.752C526.687 99.576 526.309 99.488 525.85 99.488C525.493 99.488 525.167 99.5493 524.874 99.672C524.586 99.7893 524.338 99.9707 524.13 100.216C523.922 100.461 523.759 100.771 523.642 101.144C523.53 101.512 523.474 101.947 523.474 102.448L522.538 102.16C522.538 101.323 522.687 100.605 522.986 100.008C523.29 99.4053 523.714 98.944 524.258 98.624C524.807 98.2987 525.453 98.136 526.194 98.136C526.754 98.136 527.231 98.224 527.626 98.4C528.021 98.576 528.349 98.8107 528.61 99.104C528.871 99.392 529.077 99.7173 529.226 100.08C529.375 100.437 529.479 100.803 529.538 101.176C529.602 101.544 529.634 101.893 529.634 102.224V107H528.194ZM522.034 107V98.36H523.314V100.672H523.474V107H522.034ZM534.278 107.24C533.472 107.24 532.782 107.04 532.206 106.64C531.63 106.235 531.184 105.688 530.87 105C530.56 104.312 530.406 103.536 530.406 102.672C530.406 101.808 530.56 101.032 530.87 100.344C531.184 99.656 531.63 99.1147 532.206 98.72C532.782 98.32 533.47 98.12 534.27 98.12C535.086 98.12 535.771 98.3173 536.326 98.712C536.88 99.1067 537.299 99.648 537.582 100.336C537.87 101.024 538.014 101.803 538.014 102.672C538.014 103.531 537.87 104.307 537.582 105C537.299 105.688 536.88 106.235 536.326 106.64C535.771 107.04 535.088 107.24 534.278 107.24ZM534.454 105.936C535.035 105.936 535.512 105.797 535.886 105.52C536.259 105.237 536.534 104.851 536.71 104.36C536.891 103.864 536.982 103.301 536.982 102.672C536.982 102.032 536.891 101.469 536.71 100.984C536.534 100.493 536.262 100.112 535.894 99.84C535.526 99.5627 535.059 99.424 534.494 99.424C533.907 99.424 533.422 99.568 533.038 99.856C532.659 100.144 532.376 100.533 532.19 101.024C532.008 101.515 531.918 102.064 531.918 102.672C531.918 103.285 532.011 103.84 532.198 104.336C532.384 104.827 532.664 105.216 533.038 105.504C533.416 105.792 533.888 105.936 534.454 105.936ZM536.982 107V100.64H536.822V95.48H538.254V107H536.982ZM547.022 107C546.51 107.101 546.003 107.141 545.502 107.12C545.006 107.104 544.563 107.005 544.174 106.824C543.785 106.637 543.489 106.349 543.286 105.96C543.115 105.619 543.022 105.275 543.006 104.928C542.995 104.576 542.99 104.179 542.99 103.736V95.96H544.414V103.672C544.414 104.024 544.417 104.325 544.422 104.576C544.433 104.827 544.489 105.043 544.59 105.224C544.782 105.565 545.086 105.765 545.502 105.824C545.923 105.883 546.43 105.867 547.022 105.776V107ZM541.238 99.536V98.36H547.022V99.536H541.238ZM548.026 107V98.36H549.298V100.448L549.09 100.176C549.192 99.9093 549.322 99.664 549.482 99.44C549.648 99.216 549.832 99.032 550.034 98.888C550.258 98.7067 550.512 98.568 550.794 98.472C551.077 98.376 551.365 98.32 551.658 98.304C551.952 98.2827 552.226 98.3013 552.482 98.36V99.696C552.184 99.616 551.856 99.5947 551.498 99.632C551.141 99.6693 550.81 99.8 550.506 100.024C550.229 100.221 550.013 100.461 549.858 100.744C549.709 101.027 549.605 101.333 549.546 101.664C549.488 101.989 549.458 102.323 549.458 102.664V107H548.026ZM556.525 107.224C555.97 107.224 555.493 107.136 555.093 106.96C554.698 106.784 554.37 106.549 554.109 106.256C553.848 105.963 553.642 105.637 553.493 105.28C553.344 104.923 553.237 104.557 553.173 104.184C553.114 103.811 553.085 103.461 553.085 103.136V98.36H554.525V102.688C554.525 103.093 554.562 103.485 554.637 103.864C554.712 104.243 554.837 104.584 555.013 104.888C555.194 105.192 555.434 105.432 555.733 105.608C556.037 105.784 556.416 105.872 556.869 105.872C557.226 105.872 557.552 105.811 557.845 105.688C558.138 105.565 558.389 105.384 558.597 105.144C558.805 104.899 558.965 104.589 559.077 104.216C559.189 103.843 559.245 103.408 559.245 102.912L560.181 103.2C560.181 104.032 560.029 104.749 559.725 105.352C559.426 105.955 559.002 106.419 558.453 106.744C557.909 107.064 557.266 107.224 556.525 107.224ZM559.405 107V104.688H559.245V98.36H560.677V107H559.405ZM565.431 107.232C564.402 107.232 563.556 107.008 562.895 106.56C562.239 106.107 561.836 105.475 561.687 104.664L563.143 104.432C563.26 104.901 563.53 105.275 563.951 105.552C564.372 105.824 564.895 105.96 565.519 105.96C566.111 105.96 566.575 105.837 566.911 105.592C567.247 105.347 567.415 105.013 567.415 104.592C567.415 104.347 567.359 104.149 567.247 104C567.135 103.845 566.903 103.701 566.551 103.568C566.204 103.435 565.679 103.275 564.975 103.088C564.212 102.885 563.612 102.675 563.175 102.456C562.738 102.237 562.426 101.984 562.239 101.696C562.052 101.408 561.959 101.059 561.959 100.648C561.959 100.141 562.098 99.6987 562.375 99.32C562.652 98.936 563.039 98.64 563.535 98.432C564.036 98.224 564.618 98.12 565.279 98.12C565.935 98.12 566.522 98.224 567.039 98.432C567.556 98.64 567.972 98.936 568.287 99.32C568.607 99.6987 568.796 100.141 568.855 100.648L567.399 100.912C567.33 100.448 567.106 100.083 566.727 99.816C566.354 99.5493 565.871 99.408 565.279 99.392C564.719 99.3707 564.263 99.4693 563.911 99.688C563.564 99.9067 563.391 100.203 563.391 100.576C563.391 100.784 563.455 100.963 563.583 101.112C563.716 101.261 563.959 101.403 564.311 101.536C564.668 101.669 565.186 101.821 565.863 101.992C566.626 102.184 567.226 102.395 567.663 102.624C568.106 102.848 568.42 103.115 568.607 103.424C568.794 103.728 568.887 104.104 568.887 104.552C568.887 105.384 568.58 106.04 567.967 106.52C567.354 106.995 566.508 107.232 565.431 107.232ZM574.725 107C574.213 107.101 573.707 107.141 573.205 107.12C572.709 107.104 572.267 107.005 571.877 106.824C571.488 106.637 571.192 106.349 570.989 105.96C570.819 105.619 570.725 105.275 570.709 104.928C570.699 104.576 570.693 104.179 570.693 103.736V95.96H572.117V103.672C572.117 104.024 572.12 104.325 572.125 104.576C572.136 104.827 572.192 105.043 572.293 105.224C572.485 105.565 572.789 105.765 573.205 105.824C573.627 105.883 574.133 105.867 574.725 105.776V107ZM568.941 99.536V98.36H574.725V99.536H568.941ZM575.985 107V105.432H577.553V107H575.985Z" fill="#696969"/>
</g>
<defs>
<filter id="filter0_d_8525_17296" x="0" y="0" width="889" height="180" filterUnits="userSpaceOnUse" color-interpolation-filters="sRGB">
<feFlood flood-opacity="0" result="BackgroundImageFix"/>
<feColorMatrix in="SourceAlpha" type="matrix" values="0 0 0 0 0 0 0 0 0 0 0 0 0 0 0 0 0 0 127 0" result="hardAlpha"/>
<feOffset/>
<feGaussianBlur stdDeviation="10"/>
<feComposite in2="hardAlpha" operator="out"/>
<feColorMatrix type="matrix" values="0 0 0 0 0 0 0 0 0 0 0 0 0 0 0 0 0 0 0.12 0"/>
<feBlend mode="normal" in2="BackgroundImageFix" result="effect1_dropShadow_8525_17296"/>
<feBlend mode="normal" in="SourceGraphic" in2="effect1_dropShadow_8525_17296" result="shape"/>
</filter>
</defs>
</svg>
