<svg width="582" height="239" viewBox="0 0 582 239" fill="none" xmlns="http://www.w3.org/2000/svg">
<g filter="url(#filter0_d_8525_17260)">
<rect x="20" y="20" width="542" height="199" rx="15" fill="white" fill-opacity="0.5" shape-rendering="crispEdges"/>
<path d="M203.602 80.92H208.69L221.938 115H216.274L212.674 105.736H199.522L195.97 115H190.258L203.602 80.92ZM211.618 101.752L206.146 86.824L200.482 101.752H211.618ZM238.017 115.48C236.097 115.48 234.353 115.032 232.785 114.136C231.249 113.208 230.033 111.976 229.137 110.44V115H224.48V79.96H229.761V94.648C230.753 93.048 231.985 91.784 233.457 90.856C234.961 89.928 236.721 89.464 238.737 89.464C240.401 89.464 241.921 89.816 243.297 90.52C244.673 91.224 245.841 92.184 246.801 93.4C247.793 94.616 248.545 96.008 249.057 97.576C249.601 99.144 249.873 100.808 249.873 102.568C249.873 104.328 249.569 105.992 248.961 107.56C248.385 109.128 247.553 110.504 246.465 111.688C245.377 112.872 244.113 113.8 242.673 114.472C241.265 115.144 239.713 115.48 238.017 115.48ZM236.625 110.968C237.777 110.968 238.833 110.744 239.793 110.296C240.753 109.816 241.585 109.192 242.289 108.424C242.993 107.656 243.521 106.76 243.873 105.736C244.257 104.712 244.449 103.656 244.449 102.568C244.449 101.064 244.129 99.656 243.489 98.344C242.881 97.032 242.017 95.976 240.897 95.176C239.777 94.376 238.481 93.976 237.009 93.976C235.953 93.976 234.961 94.232 234.033 94.744C233.105 95.224 232.273 95.88 231.537 96.712C230.833 97.512 230.241 98.408 229.761 99.4V106.024C229.953 106.76 230.289 107.432 230.769 108.04C231.249 108.616 231.809 109.128 232.449 109.576C233.089 109.992 233.777 110.328 234.513 110.584C235.249 110.84 235.953 110.968 236.625 110.968ZM264.901 115.48C262.917 115.48 261.141 115.144 259.573 114.472C258.005 113.768 256.645 112.808 255.493 111.592C254.373 110.376 253.509 109 252.901 107.464C252.293 105.896 251.989 104.232 251.989 102.472C251.989 100.712 252.293 99.048 252.901 97.48C253.509 95.912 254.373 94.536 255.493 93.352C256.645 92.136 258.005 91.192 259.573 90.52C261.173 89.816 262.949 89.464 264.901 89.464C266.853 89.464 268.613 89.816 270.181 90.52C271.781 91.192 273.141 92.136 274.261 93.352C275.413 94.536 276.293 95.912 276.901 97.48C277.509 99.048 277.813 100.712 277.813 102.472C277.813 104.232 277.509 105.896 276.901 107.464C276.293 109 275.413 110.376 274.261 111.592C273.141 112.808 271.781 113.768 270.181 114.472C268.613 115.144 266.853 115.48 264.901 115.48ZM257.413 102.52C257.413 104.12 257.749 105.56 258.421 106.84C259.093 108.12 259.989 109.128 261.109 109.864C262.229 110.6 263.493 110.968 264.901 110.968C266.277 110.968 267.525 110.6 268.645 109.864C269.797 109.096 270.709 108.072 271.381 106.792C272.053 105.48 272.389 104.04 272.389 102.472C272.389 100.872 272.053 99.432 271.381 98.152C270.709 96.872 269.797 95.864 268.645 95.128C267.525 94.36 266.277 93.976 264.901 93.976C263.493 93.976 262.229 94.36 261.109 95.128C259.989 95.896 259.093 96.92 258.421 98.2C257.749 99.448 257.413 100.888 257.413 102.52ZM281.256 105.256V89.896H286.536V104.2C286.536 106.44 286.936 108.136 287.736 109.288C288.568 110.408 289.768 110.968 291.336 110.968C292.328 110.968 293.288 110.76 294.216 110.344C295.176 109.928 296.04 109.32 296.808 108.52C297.608 107.688 298.248 106.696 298.728 105.544V89.896H304.008V109.048C304.008 109.656 304.12 110.088 304.344 110.344C304.568 110.6 304.936 110.744 305.448 110.776V115C304.904 115.096 304.456 115.16 304.104 115.192C303.752 115.224 303.416 115.24 303.096 115.24C302.136 115.24 301.336 114.984 300.696 114.472C300.056 113.928 299.688 113.24 299.592 112.408L299.496 109.912C298.376 111.736 296.92 113.128 295.128 114.088C293.336 115.016 291.368 115.48 289.224 115.48C286.6 115.48 284.616 114.616 283.272 112.888C281.928 111.16 281.256 108.616 281.256 105.256ZM323.667 113.704C323.219 113.928 322.659 114.168 321.987 114.424C321.315 114.68 320.547 114.904 319.683 115.096C318.851 115.288 317.987 115.384 317.091 115.384C316.003 115.384 314.995 115.192 314.067 114.808C313.139 114.424 312.387 113.816 311.811 112.984C311.267 112.12 310.995 111.016 310.995 109.672V93.976H307.683V89.896H310.995V81.64H316.275V89.896H321.747V93.976H316.275V107.992C316.339 108.856 316.611 109.496 317.091 109.912C317.603 110.328 318.227 110.536 318.963 110.536C319.699 110.536 320.403 110.408 321.075 110.152C321.747 109.896 322.243 109.688 322.563 109.528L323.667 113.704ZM352.064 115.24C349.344 115.24 347.04 114.776 345.152 113.848C343.296 112.92 341.792 111.656 340.64 110.056C339.52 108.456 338.688 106.632 338.144 104.584C337.632 102.536 337.376 100.408 337.376 98.2V80.92H342.752V98.2C342.752 99.768 342.912 101.288 343.232 102.76C343.552 104.2 344.064 105.496 344.768 106.648C345.472 107.8 346.416 108.712 347.6 109.384C348.816 110.056 350.304 110.392 352.064 110.392C353.856 110.392 355.344 110.056 356.528 109.384C357.744 108.68 358.688 107.752 359.36 106.6C360.064 105.416 360.576 104.104 360.896 102.664C361.216 101.224 361.376 99.736 361.376 98.2V80.92H366.8V98.2C366.8 100.536 366.512 102.744 365.936 104.824C365.392 106.872 364.528 108.68 363.344 110.248C362.192 111.784 360.688 113 358.832 113.896C356.976 114.792 354.72 115.24 352.064 115.24ZM380.596 115.48C378.484 115.48 376.484 115.144 374.596 114.472C372.708 113.768 371.092 112.728 369.748 111.352L371.716 107.8C373.156 109.08 374.596 110.008 376.036 110.584C377.508 111.16 378.964 111.448 380.404 111.448C381.876 111.448 383.076 111.176 384.004 110.632C384.932 110.056 385.396 109.224 385.396 108.136C385.396 107.336 385.156 106.744 384.676 106.36C384.196 105.976 383.492 105.64 382.564 105.352C381.668 105.064 380.58 104.744 379.3 104.392C377.508 103.848 376.004 103.288 374.788 102.712C373.572 102.104 372.66 101.368 372.052 100.504C371.444 99.64 371.14 98.536 371.14 97.192C371.14 95.56 371.556 94.168 372.388 93.016C373.22 91.864 374.372 90.984 375.844 90.376C377.348 89.768 379.076 89.464 381.028 89.464C382.852 89.464 384.532 89.752 386.068 90.328C387.636 90.872 389.012 91.736 390.196 92.92L387.94 96.424C386.82 95.4 385.668 94.648 384.484 94.168C383.332 93.688 382.084 93.448 380.74 93.448C379.972 93.448 379.236 93.544 378.532 93.736C377.828 93.896 377.236 94.216 376.756 94.696C376.308 95.144 376.084 95.784 376.084 96.616C376.084 97.288 376.276 97.832 376.66 98.248C377.044 98.664 377.62 99.016 378.388 99.304C379.156 99.592 380.1 99.912 381.22 100.264C383.172 100.84 384.836 101.416 386.212 101.992C387.588 102.536 388.644 103.256 389.38 104.152C390.148 105.016 390.532 106.216 390.532 107.752C390.532 110.184 389.62 112.088 387.796 113.464C386.004 114.808 383.604 115.48 380.596 115.48Z" fill="#141219"/>
<path d="M71.4234 163V148.6H72.7734L78.4334 160.71L84.0634 148.6H85.4334V162.99H84.0334V151.88L78.9034 163H77.9534L72.8334 151.88V163H71.4234ZM92.8098 163.3C91.7565 163.3 90.8432 163.067 90.0698 162.6C89.3032 162.133 88.7065 161.477 88.2798 160.63C87.8532 159.783 87.6398 158.79 87.6398 157.65C87.6398 156.47 87.8498 155.45 88.2698 154.59C88.6898 153.73 89.2798 153.067 90.0398 152.6C90.8065 152.133 91.7098 151.9 92.7498 151.9C93.8165 151.9 94.7265 152.147 95.4798 152.64C96.2332 153.127 96.8032 153.827 97.1898 154.74C97.5765 155.653 97.7532 156.743 97.7198 158.01H96.2198V157.49C96.1932 156.09 95.8898 155.033 95.3098 154.32C94.7365 153.607 93.8965 153.25 92.7898 153.25C91.6298 153.25 90.7398 153.627 90.1198 154.38C89.5065 155.133 89.1998 156.207 89.1998 157.6C89.1998 158.96 89.5065 160.017 90.1198 160.77C90.7398 161.517 91.6165 161.89 92.7498 161.89C93.5232 161.89 94.1965 161.713 94.7698 161.36C95.3498 161 95.8065 160.483 96.1398 159.81L97.5098 160.34C97.0832 161.28 96.4532 162.01 95.6198 162.53C94.7932 163.043 93.8565 163.3 92.8098 163.3ZM88.6798 158.01V156.78H96.9298V158.01H88.6798ZM104.509 163.3C103.456 163.3 102.542 163.067 101.769 162.6C101.002 162.133 100.406 161.477 99.9791 160.63C99.5524 159.783 99.3391 158.79 99.3391 157.65C99.3391 156.47 99.5491 155.45 99.9691 154.59C100.389 153.73 100.979 153.067 101.739 152.6C102.506 152.133 103.409 151.9 104.449 151.9C105.516 151.9 106.426 152.147 107.179 152.64C107.932 153.127 108.502 153.827 108.889 154.74C109.276 155.653 109.452 156.743 109.419 158.01H107.919V157.49C107.892 156.09 107.589 155.033 107.009 154.32C106.436 153.607 105.596 153.25 104.489 153.25C103.329 153.25 102.439 153.627 101.819 154.38C101.206 155.133 100.899 156.207 100.899 157.6C100.899 158.96 101.206 160.017 101.819 160.77C102.439 161.517 103.316 161.89 104.449 161.89C105.222 161.89 105.896 161.713 106.469 161.36C107.049 161 107.506 160.483 107.839 159.81L109.209 160.34C108.782 161.28 108.152 162.01 107.319 162.53C106.492 163.043 105.556 163.3 104.509 163.3ZM100.379 158.01V156.78H108.629V158.01H100.379ZM117.518 163C116.912 163.127 116.312 163.177 115.718 163.15C115.132 163.123 114.605 162.997 114.138 162.77C113.678 162.543 113.328 162.19 113.088 161.71C112.895 161.31 112.788 160.907 112.768 160.5C112.755 160.087 112.748 159.617 112.748 159.09V149.2H114.208V159.03C114.208 159.483 114.212 159.863 114.218 160.17C114.232 160.47 114.302 160.737 114.428 160.97C114.668 161.417 115.048 161.683 115.568 161.77C116.095 161.857 116.745 161.837 117.518 161.71V163ZM110.438 153.46V152.2H117.518V153.46H110.438ZM129.53 163C128.923 163.127 128.323 163.177 127.73 163.15C127.143 163.123 126.617 162.997 126.15 162.77C125.69 162.543 125.34 162.19 125.1 161.71C124.907 161.31 124.8 160.907 124.78 160.5C124.767 160.087 124.76 159.617 124.76 159.09V149.2H126.22V159.03C126.22 159.483 126.223 159.863 126.23 160.17C126.243 160.47 126.313 160.737 126.44 160.97C126.68 161.417 127.06 161.683 127.58 161.77C128.107 161.857 128.757 161.837 129.53 161.71V163ZM122.45 153.46V152.2H129.53V153.46H122.45ZM139.458 163V157.49C139.458 156.89 139.401 156.34 139.288 155.84C139.174 155.333 138.991 154.893 138.738 154.52C138.491 154.14 138.168 153.847 137.768 153.64C137.374 153.433 136.894 153.33 136.328 153.33C135.808 153.33 135.348 153.42 134.948 153.6C134.554 153.78 134.221 154.04 133.948 154.38C133.681 154.713 133.478 155.12 133.338 155.6C133.198 156.08 133.128 156.627 133.128 157.24L132.088 157.01C132.088 155.903 132.281 154.973 132.668 154.22C133.054 153.467 133.588 152.897 134.268 152.51C134.948 152.123 135.728 151.93 136.608 151.93C137.254 151.93 137.818 152.03 138.298 152.23C138.784 152.43 139.194 152.7 139.528 153.04C139.868 153.38 140.141 153.77 140.348 154.21C140.554 154.643 140.704 155.107 140.798 155.6C140.891 156.087 140.938 156.573 140.938 157.06V163H139.458ZM131.648 163V148.6H132.978V156.73H133.128V163H131.648ZM148.103 163.3C147.049 163.3 146.136 163.067 145.363 162.6C144.596 162.133 143.999 161.477 143.573 160.63C143.146 159.783 142.933 158.79 142.933 157.65C142.933 156.47 143.143 155.45 143.563 154.59C143.983 153.73 144.573 153.067 145.333 152.6C146.099 152.133 147.003 151.9 148.043 151.9C149.109 151.9 150.019 152.147 150.773 152.64C151.526 153.127 152.096 153.827 152.483 154.74C152.869 155.653 153.046 156.743 153.013 158.01H151.513V157.49C151.486 156.09 151.183 155.033 150.603 154.32C150.029 153.607 149.189 153.25 148.083 153.25C146.923 153.25 146.033 153.627 145.413 154.38C144.799 155.133 144.493 156.207 144.493 157.6C144.493 158.96 144.799 160.017 145.413 160.77C146.033 161.517 146.909 161.89 148.043 161.89C148.816 161.89 149.489 161.713 150.063 161.36C150.643 161 151.099 160.483 151.433 159.81L152.803 160.34C152.376 161.28 151.746 162.01 150.913 162.53C150.086 163.043 149.149 163.3 148.103 163.3ZM143.973 158.01V156.78H152.223V158.01H143.973ZM159.236 163V148.6H160.586L166.246 160.71L171.876 148.6H173.246V162.99H171.846V151.88L166.716 163H165.766L160.646 151.88V163H159.236ZM176.252 150.15V148.5H177.722V150.15H176.252ZM176.252 163V152.2H177.722V163H176.252ZM188.52 163V157.49C188.52 156.89 188.464 156.34 188.35 155.84C188.237 155.333 188.054 154.893 187.8 154.52C187.554 154.14 187.23 153.847 186.83 153.64C186.437 153.433 185.957 153.33 185.39 153.33C184.87 153.33 184.41 153.42 184.01 153.6C183.617 153.78 183.284 154.04 183.01 154.38C182.744 154.713 182.54 155.12 182.4 155.6C182.26 156.08 182.19 156.627 182.19 157.24L181.15 157.01C181.15 155.903 181.344 154.973 181.73 154.22C182.117 153.467 182.65 152.897 183.33 152.51C184.01 152.123 184.79 151.93 185.67 151.93C186.317 151.93 186.88 152.03 187.36 152.23C187.847 152.43 188.257 152.7 188.59 153.04C188.93 153.38 189.204 153.77 189.41 154.21C189.617 154.643 189.767 155.107 189.86 155.6C189.954 156.087 190 156.573 190 157.06V163H188.52ZM180.71 163V152.2H182.04V154.86H182.19V163H180.71ZM196.727 163.3C195.72 163.3 194.86 163.05 194.147 162.55C193.433 162.043 192.887 161.36 192.507 160.5C192.127 159.64 191.937 158.67 191.937 157.59C191.937 156.517 192.123 155.55 192.497 154.69C192.877 153.83 193.42 153.15 194.127 152.65C194.833 152.15 195.68 151.9 196.667 151.9C197.68 151.9 198.533 152.147 199.227 152.64C199.92 153.133 200.443 153.81 200.797 154.67C201.157 155.523 201.337 156.497 201.337 157.59C201.337 158.663 201.16 159.633 200.807 160.5C200.453 161.36 199.933 162.043 199.247 162.55C198.56 163.05 197.72 163.3 196.727 163.3ZM196.877 161.93C197.643 161.93 198.277 161.743 198.777 161.37C199.277 160.997 199.65 160.483 199.897 159.83C200.143 159.17 200.267 158.423 200.267 157.59C200.267 156.743 200.143 155.997 199.897 155.35C199.65 154.697 199.277 154.187 198.777 153.82C198.283 153.453 197.66 153.27 196.907 153.27C196.133 153.27 195.493 153.46 194.987 153.84C194.48 154.22 194.103 154.737 193.857 155.39C193.617 156.043 193.497 156.777 193.497 157.59C193.497 158.41 193.62 159.15 193.867 159.81C194.12 160.463 194.497 160.98 194.997 161.36C195.497 161.74 196.123 161.93 196.877 161.93ZM200.267 163V154.87H200.107V148.6H201.587V163H200.267ZM208.422 163.29C207.156 163.29 206.112 163.017 205.292 162.47C204.479 161.923 203.979 161.163 203.792 160.19L205.292 159.94C205.452 160.553 205.816 161.043 206.382 161.41C206.956 161.77 207.662 161.95 208.502 161.95C209.322 161.95 209.969 161.78 210.442 161.44C210.916 161.093 211.152 160.623 211.152 160.03C211.152 159.697 211.076 159.427 210.922 159.22C210.776 159.007 210.472 158.81 210.012 158.63C209.552 158.45 208.866 158.237 207.952 157.99C206.972 157.723 206.206 157.457 205.652 157.19C205.099 156.923 204.706 156.617 204.472 156.27C204.239 155.917 204.122 155.487 204.122 154.98C204.122 154.367 204.296 153.83 204.642 153.37C204.989 152.903 205.469 152.543 206.082 152.29C206.696 152.03 207.409 151.9 208.222 151.9C209.036 151.9 209.762 152.033 210.402 152.3C211.049 152.56 211.569 152.927 211.962 153.4C212.356 153.873 212.589 154.423 212.662 155.05L211.162 155.32C211.062 154.687 210.746 154.187 210.212 153.82C209.686 153.447 209.016 153.253 208.202 153.24C207.436 153.22 206.812 153.367 206.332 153.68C205.852 153.987 205.612 154.397 205.612 154.91C205.612 155.197 205.699 155.443 205.872 155.65C206.046 155.85 206.359 156.04 206.812 156.22C207.272 156.4 207.926 156.597 208.772 156.81C209.766 157.063 210.546 157.33 211.112 157.61C211.679 157.89 212.082 158.22 212.322 158.6C212.562 158.98 212.682 159.45 212.682 160.01C212.682 161.03 212.302 161.833 211.542 162.42C210.789 163 209.749 163.29 208.422 163.29ZM223.904 163.3C222.897 163.3 221.991 163.133 221.184 162.8C220.384 162.46 219.721 161.98 219.194 161.36C218.674 160.74 218.334 160.003 218.174 159.15L219.674 158.9C219.914 159.833 220.421 160.567 221.194 161.1C221.967 161.627 222.891 161.89 223.964 161.89C224.671 161.89 225.304 161.78 225.864 161.56C226.424 161.333 226.864 161.013 227.184 160.6C227.504 160.187 227.664 159.697 227.664 159.13C227.664 158.757 227.597 158.44 227.464 158.18C227.331 157.913 227.154 157.693 226.934 157.52C226.714 157.347 226.474 157.203 226.214 157.09C225.954 156.97 225.701 156.873 225.454 156.8L221.804 155.71C221.364 155.583 220.957 155.423 220.584 155.23C220.211 155.03 219.884 154.793 219.604 154.52C219.331 154.24 219.117 153.913 218.964 153.54C218.811 153.167 218.734 152.74 218.734 152.26C218.734 151.447 218.947 150.743 219.374 150.15C219.801 149.557 220.384 149.1 221.124 148.78C221.864 148.46 222.707 148.303 223.654 148.31C224.614 148.31 225.471 148.48 226.224 148.82C226.984 149.16 227.611 149.647 228.104 150.28C228.597 150.907 228.924 151.65 229.084 152.51L227.544 152.79C227.444 152.163 227.214 151.62 226.854 151.16C226.494 150.7 226.034 150.347 225.474 150.1C224.921 149.847 224.311 149.717 223.644 149.71C222.997 149.71 222.421 149.82 221.914 150.04C221.414 150.253 221.017 150.547 220.724 150.92C220.431 151.293 220.284 151.72 220.284 152.2C220.284 152.687 220.417 153.077 220.684 153.37C220.957 153.663 221.291 153.893 221.684 154.06C222.084 154.227 222.471 154.363 222.844 154.47L225.664 155.3C225.957 155.38 226.301 155.497 226.694 155.65C227.094 155.797 227.481 156.01 227.854 156.29C228.234 156.563 228.547 156.923 228.794 157.37C229.041 157.817 229.164 158.383 229.164 159.07C229.164 159.737 229.031 160.333 228.764 160.86C228.504 161.387 228.134 161.83 227.654 162.19C227.181 162.55 226.624 162.823 225.984 163.01C225.351 163.203 224.657 163.3 223.904 163.3ZM239.028 163V157.49C239.028 156.89 238.971 156.34 238.858 155.84C238.745 155.333 238.561 154.893 238.308 154.52C238.061 154.14 237.738 153.847 237.338 153.64C236.945 153.433 236.465 153.33 235.898 153.33C235.378 153.33 234.918 153.42 234.518 153.6C234.125 153.78 233.791 154.04 233.518 154.38C233.251 154.713 233.048 155.12 232.908 155.6C232.768 156.08 232.698 156.627 232.698 157.24L231.658 157.01C231.658 155.903 231.851 154.973 232.238 154.22C232.625 153.467 233.158 152.897 233.838 152.51C234.518 152.123 235.298 151.93 236.178 151.93C236.825 151.93 237.388 152.03 237.868 152.23C238.355 152.43 238.765 152.7 239.098 153.04C239.438 153.38 239.711 153.77 239.918 154.21C240.125 154.643 240.275 155.107 240.368 155.6C240.461 156.087 240.508 156.573 240.508 157.06V163H239.028ZM231.218 163V148.6H232.548V156.73H232.698V163H231.218ZM246.193 163.3C245.38 163.3 244.696 163.153 244.143 162.86C243.596 162.567 243.186 162.177 242.913 161.69C242.64 161.203 242.503 160.673 242.503 160.1C242.503 159.513 242.62 159.013 242.853 158.6C243.093 158.18 243.416 157.837 243.823 157.57C244.236 157.303 244.713 157.1 245.253 156.96C245.8 156.827 246.403 156.71 247.063 156.61C247.73 156.503 248.38 156.413 249.013 156.34C249.653 156.26 250.213 156.183 250.693 156.11L250.173 156.43C250.193 155.363 249.986 154.573 249.553 154.06C249.12 153.547 248.366 153.29 247.293 153.29C246.553 153.29 245.926 153.457 245.413 153.79C244.906 154.123 244.55 154.65 244.343 155.37L242.913 154.95C243.16 153.983 243.656 153.233 244.403 152.7C245.15 152.167 246.12 151.9 247.313 151.9C248.3 151.9 249.136 152.087 249.823 152.46C250.516 152.827 251.006 153.36 251.293 154.06C251.426 154.373 251.513 154.723 251.553 155.11C251.593 155.497 251.613 155.89 251.613 156.29V163H250.303V160.29L250.683 160.45C250.316 161.377 249.746 162.083 248.973 162.57C248.2 163.057 247.273 163.3 246.193 163.3ZM246.363 162.03C247.05 162.03 247.65 161.907 248.163 161.66C248.676 161.413 249.09 161.077 249.403 160.65C249.716 160.217 249.92 159.73 250.013 159.19C250.093 158.843 250.136 158.463 250.143 158.05C250.15 157.63 250.153 157.317 250.153 157.11L250.713 157.4C250.213 157.467 249.67 157.533 249.083 157.6C248.503 157.667 247.93 157.743 247.363 157.83C246.803 157.917 246.296 158.02 245.843 158.14C245.536 158.227 245.24 158.35 244.953 158.51C244.666 158.663 244.43 158.87 244.243 159.13C244.063 159.39 243.973 159.713 243.973 160.1C243.973 160.413 244.05 160.717 244.203 161.01C244.363 161.303 244.616 161.547 244.963 161.74C245.316 161.933 245.783 162.03 246.363 162.03ZM259.066 163.3C258.073 163.3 257.233 163.05 256.546 162.55C255.86 162.043 255.34 161.36 254.986 160.5C254.633 159.633 254.456 158.663 254.456 157.59C254.456 156.497 254.633 155.523 254.986 154.67C255.346 153.81 255.873 153.133 256.566 152.64C257.26 152.147 258.113 151.9 259.126 151.9C260.113 151.9 260.96 152.15 261.666 152.65C262.373 153.15 262.913 153.83 263.286 154.69C263.666 155.55 263.856 156.517 263.856 157.59C263.856 158.67 263.666 159.64 263.286 160.5C262.906 161.36 262.36 162.043 261.646 162.55C260.933 163.05 260.073 163.3 259.066 163.3ZM254.206 167.8V152.2H255.526V160.33H255.686V167.8H254.206ZM258.916 161.93C259.67 161.93 260.296 161.74 260.796 161.36C261.296 160.98 261.67 160.463 261.916 159.81C262.17 159.15 262.296 158.41 262.296 157.59C262.296 156.777 262.173 156.043 261.926 155.39C261.68 154.737 261.303 154.22 260.796 153.84C260.296 153.46 259.66 153.27 258.886 153.27C258.133 153.27 257.506 153.453 257.006 153.82C256.513 154.187 256.143 154.697 255.896 155.35C255.65 155.997 255.526 156.743 255.526 157.59C255.526 158.423 255.65 159.17 255.896 159.83C256.143 160.483 256.516 160.997 257.016 161.37C257.516 161.743 258.15 161.93 258.916 161.93ZM266.252 150.15V148.5H267.722V150.15H266.252ZM266.252 163V152.2H267.722V163H266.252ZM278.52 163V157.49C278.52 156.89 278.464 156.34 278.35 155.84C278.237 155.333 278.054 154.893 277.8 154.52C277.554 154.14 277.23 153.847 276.83 153.64C276.437 153.433 275.957 153.33 275.39 153.33C274.87 153.33 274.41 153.42 274.01 153.6C273.617 153.78 273.284 154.04 273.01 154.38C272.744 154.713 272.54 155.12 272.4 155.6C272.26 156.08 272.19 156.627 272.19 157.24L271.15 157.01C271.15 155.903 271.344 154.973 271.73 154.22C272.117 153.467 272.65 152.897 273.33 152.51C274.01 152.123 274.79 151.93 275.67 151.93C276.317 151.93 276.88 152.03 277.36 152.23C277.847 152.43 278.257 152.7 278.59 153.04C278.93 153.38 279.204 153.77 279.41 154.21C279.617 154.643 279.767 155.107 279.86 155.6C279.954 156.087 280 156.573 280 157.06V163H278.52ZM270.71 163V152.2H272.04V154.86H272.19V163H270.71ZM286.885 168.1C286.332 168.1 285.785 168.017 285.245 167.85C284.712 167.69 284.219 167.433 283.765 167.08C283.312 166.733 282.932 166.28 282.625 165.72L283.955 164.98C284.255 165.58 284.675 166.01 285.215 166.27C285.762 166.537 286.319 166.67 286.885 166.67C287.665 166.67 288.295 166.523 288.775 166.23C289.262 165.943 289.615 165.517 289.835 164.95C290.055 164.383 290.162 163.677 290.155 162.83V159.95H290.325V152.2H291.635V162.85C291.635 163.157 291.625 163.45 291.605 163.73C291.592 164.017 291.562 164.297 291.515 164.57C291.389 165.377 291.125 166.04 290.725 166.56C290.332 167.08 289.812 167.467 289.165 167.72C288.525 167.973 287.765 168.1 286.885 168.1ZM286.785 163.3C285.779 163.3 284.919 163.05 284.205 162.55C283.492 162.043 282.945 161.36 282.565 160.5C282.185 159.64 281.995 158.67 281.995 157.59C281.995 156.517 282.182 155.55 282.555 154.69C282.935 153.83 283.479 153.15 284.185 152.65C284.892 152.15 285.739 151.9 286.725 151.9C287.739 151.9 288.592 152.147 289.285 152.64C289.979 153.133 290.502 153.81 290.855 154.67C291.215 155.523 291.395 156.497 291.395 157.59C291.395 158.663 291.219 159.633 290.865 160.5C290.512 161.36 289.992 162.043 289.305 162.55C288.619 163.05 287.779 163.3 286.785 163.3ZM286.935 161.93C287.702 161.93 288.335 161.743 288.835 161.37C289.335 160.997 289.709 160.483 289.955 159.83C290.202 159.17 290.325 158.423 290.325 157.59C290.325 156.743 290.202 155.997 289.955 155.35C289.709 154.697 289.335 154.187 288.835 153.82C288.342 153.453 287.719 153.27 286.965 153.27C286.192 153.27 285.552 153.46 285.045 153.84C284.539 154.22 284.162 154.737 283.915 155.39C283.675 156.043 283.555 156.777 283.555 157.59C283.555 158.41 283.679 159.15 283.925 159.81C284.179 160.463 284.555 160.98 285.055 161.36C285.555 161.74 286.182 161.93 286.935 161.93ZM298.435 163V148.6H302.805C302.958 148.6 303.218 148.603 303.585 148.61C303.958 148.617 304.315 148.643 304.655 148.69C305.748 148.843 306.662 149.25 307.395 149.91C308.128 150.57 308.678 151.41 309.045 152.43C309.412 153.45 309.595 154.573 309.595 155.8C309.595 157.027 309.412 158.15 309.045 159.17C308.678 160.19 308.128 161.03 307.395 161.69C306.662 162.35 305.748 162.757 304.655 162.91C304.322 162.95 303.965 162.977 303.585 162.99C303.205 162.997 302.945 163 302.805 163H298.435ZM299.955 161.59H302.805C303.078 161.59 303.372 161.583 303.685 161.57C304.005 161.55 304.278 161.517 304.505 161.47C305.345 161.323 306.022 160.983 306.535 160.45C307.055 159.917 307.435 159.25 307.675 158.45C307.915 157.643 308.035 156.76 308.035 155.8C308.035 154.833 307.915 153.947 307.675 153.14C307.435 152.333 307.055 151.667 306.535 151.14C306.015 150.613 305.338 150.277 304.505 150.13C304.278 150.083 304.002 150.053 303.675 150.04C303.355 150.02 303.065 150.01 302.805 150.01H299.955V161.59ZM316.383 163.3C315.309 163.3 314.393 163.057 313.633 162.57C312.873 162.083 312.289 161.41 311.883 160.55C311.476 159.69 311.273 158.703 311.273 157.59C311.273 156.457 311.479 155.463 311.893 154.61C312.306 153.757 312.893 153.093 313.653 152.62C314.419 152.14 315.329 151.9 316.383 151.9C317.463 151.9 318.383 152.143 319.143 152.63C319.909 153.11 320.493 153.78 320.893 154.64C321.299 155.493 321.503 156.477 321.503 157.59C321.503 158.723 321.299 159.72 320.893 160.58C320.486 161.433 319.899 162.1 319.133 162.58C318.366 163.06 317.449 163.3 316.383 163.3ZM316.383 161.89C317.583 161.89 318.476 161.493 319.063 160.7C319.649 159.9 319.943 158.863 319.943 157.59C319.943 156.283 319.646 155.243 319.053 154.47C318.466 153.697 317.576 153.31 316.383 153.31C315.576 153.31 314.909 153.493 314.383 153.86C313.863 154.22 313.473 154.723 313.213 155.37C312.959 156.01 312.833 156.75 312.833 157.59C312.833 158.89 313.133 159.933 313.733 160.72C314.333 161.5 315.216 161.89 316.383 161.89ZM328.189 163.3C327.102 163.3 326.182 163.057 325.429 162.57C324.675 162.083 324.102 161.413 323.709 160.56C323.322 159.7 323.122 158.713 323.109 157.6C323.122 156.467 323.329 155.473 323.729 154.62C324.129 153.76 324.705 153.093 325.459 152.62C326.212 152.14 327.125 151.9 328.199 151.9C329.292 151.9 330.242 152.167 331.049 152.7C331.862 153.233 332.419 153.963 332.719 154.89L331.279 155.35C331.025 154.703 330.622 154.203 330.069 153.85C329.522 153.49 328.895 153.31 328.189 153.31C327.395 153.31 326.739 153.493 326.219 153.86C325.699 154.22 325.312 154.723 325.059 155.37C324.805 156.017 324.675 156.76 324.669 157.6C324.682 158.893 324.982 159.933 325.569 160.72C326.155 161.5 327.029 161.89 328.189 161.89C328.922 161.89 329.545 161.723 330.059 161.39C330.579 161.05 330.972 160.557 331.239 159.91L332.719 160.35C332.319 161.31 331.732 162.043 330.959 162.55C330.185 163.05 329.262 163.3 328.189 163.3ZM338.913 163.27C338.266 163.27 337.699 163.17 337.213 162.97C336.733 162.77 336.323 162.5 335.983 162.16C335.649 161.82 335.379 161.433 335.173 161C334.966 160.56 334.816 160.097 334.723 159.61C334.629 159.117 334.583 158.627 334.583 158.14V152.2H336.063V157.71C336.063 158.303 336.119 158.853 336.233 159.36C336.346 159.867 336.526 160.31 336.773 160.69C337.026 161.063 337.349 161.353 337.743 161.56C338.143 161.767 338.626 161.87 339.193 161.87C339.713 161.87 340.169 161.78 340.563 161.6C340.963 161.42 341.296 161.163 341.563 160.83C341.836 160.49 342.043 160.08 342.183 159.6C342.323 159.113 342.393 158.567 342.393 157.96L343.433 158.19C343.433 159.297 343.239 160.227 342.853 160.98C342.466 161.733 341.933 162.303 341.253 162.69C340.573 163.077 339.793 163.27 338.913 163.27ZM342.543 163V160.34H342.393V152.2H343.863V163H342.543ZM359.538 163L359.548 155.91C359.548 155.077 359.314 154.423 358.848 153.95C358.388 153.47 357.801 153.23 357.088 153.23C356.681 153.23 356.284 153.323 355.898 153.51C355.511 153.697 355.191 153.997 354.938 154.41C354.691 154.823 354.568 155.363 354.568 156.03L353.698 155.78C353.678 155.007 353.828 154.33 354.148 153.75C354.474 153.17 354.921 152.72 355.488 152.4C356.061 152.073 356.708 151.91 357.428 151.91C358.514 151.91 359.384 152.247 360.038 152.92C360.691 153.587 361.018 154.49 361.018 155.63L361.008 163H359.538ZM346.648 163V152.2H347.968V154.86H348.128V163H346.648ZM353.108 163L353.118 156.01C353.118 155.15 352.888 154.473 352.428 153.98C351.974 153.48 351.374 153.23 350.628 153.23C349.881 153.23 349.278 153.487 348.818 154C348.358 154.507 348.128 155.183 348.128 156.03L347.248 155.55C347.248 154.857 347.411 154.237 347.738 153.69C348.064 153.137 348.511 152.703 349.078 152.39C349.644 152.07 350.288 151.91 351.008 151.91C351.694 151.91 352.304 152.057 352.838 152.35C353.378 152.643 353.801 153.07 354.108 153.63C354.414 154.19 354.568 154.87 354.568 155.67L354.558 163H353.108ZM368.122 163.3C367.069 163.3 366.156 163.067 365.382 162.6C364.616 162.133 364.019 161.477 363.592 160.63C363.166 159.783 362.952 158.79 362.952 157.65C362.952 156.47 363.162 155.45 363.582 154.59C364.002 153.73 364.592 153.067 365.352 152.6C366.119 152.133 367.022 151.9 368.062 151.9C369.129 151.9 370.039 152.147 370.792 152.64C371.546 153.127 372.116 153.827 372.502 154.74C372.889 155.653 373.066 156.743 373.032 158.01H371.532V157.49C371.506 156.09 371.202 155.033 370.622 154.32C370.049 153.607 369.209 153.25 368.102 153.25C366.942 153.25 366.052 153.627 365.432 154.38C364.819 155.133 364.512 156.207 364.512 157.6C364.512 158.96 364.819 160.017 365.432 160.77C366.052 161.517 366.929 161.89 368.062 161.89C368.836 161.89 369.509 161.713 370.082 161.36C370.662 161 371.119 160.483 371.452 159.81L372.822 160.34C372.396 161.28 371.766 162.01 370.932 162.53C370.106 163.043 369.169 163.3 368.122 163.3ZM363.992 158.01V156.78H372.242V158.01H363.992ZM382.759 163V157.49C382.759 156.89 382.702 156.34 382.589 155.84C382.475 155.333 382.292 154.893 382.039 154.52C381.792 154.14 381.469 153.847 381.069 153.64C380.675 153.433 380.195 153.33 379.629 153.33C379.109 153.33 378.649 153.42 378.249 153.6C377.855 153.78 377.522 154.04 377.249 154.38C376.982 154.713 376.779 155.12 376.639 155.6C376.499 156.08 376.429 156.627 376.429 157.24L375.389 157.01C375.389 155.903 375.582 154.973 375.969 154.22C376.355 153.467 376.889 152.897 377.569 152.51C378.249 152.123 379.029 151.93 379.909 151.93C380.555 151.93 381.119 152.03 381.599 152.23C382.085 152.43 382.495 152.7 382.829 153.04C383.169 153.38 383.442 153.77 383.649 154.21C383.855 154.643 384.005 155.107 384.099 155.6C384.192 156.087 384.239 156.573 384.239 157.06V163H382.759ZM374.949 163V152.2H376.279V154.86H376.429V163H374.949ZM392.714 163C392.107 163.127 391.507 163.177 390.914 163.15C390.327 163.123 389.8 162.997 389.334 162.77C388.874 162.543 388.524 162.19 388.284 161.71C388.09 161.31 387.984 160.907 387.964 160.5C387.95 160.087 387.944 159.617 387.944 159.09V149.2H389.404V159.03C389.404 159.483 389.407 159.863 389.414 160.17C389.427 160.47 389.497 160.737 389.624 160.97C389.864 161.417 390.244 161.683 390.764 161.77C391.29 161.857 391.94 161.837 392.714 161.71V163ZM385.634 153.46V152.2H392.714V153.46H385.634ZM397.845 163L402.805 148.6H404.755L409.715 163H408.185L403.475 149.42H404.055L399.375 163H397.845ZM400.055 159.51V158.13H407.495V159.51H400.055ZM415.651 163.27C415.004 163.27 414.438 163.17 413.951 162.97C413.471 162.77 413.061 162.5 412.721 162.16C412.388 161.82 412.118 161.433 411.911 161C411.704 160.56 411.554 160.097 411.461 159.61C411.368 159.117 411.321 158.627 411.321 158.14V152.2H412.801V157.71C412.801 158.303 412.858 158.853 412.971 159.36C413.084 159.867 413.264 160.31 413.511 160.69C413.764 161.063 414.088 161.353 414.481 161.56C414.881 161.767 415.364 161.87 415.931 161.87C416.451 161.87 416.908 161.78 417.301 161.6C417.701 161.42 418.034 161.163 418.301 160.83C418.574 160.49 418.781 160.08 418.921 159.6C419.061 159.113 419.131 158.567 419.131 157.96L420.171 158.19C420.171 159.297 419.978 160.227 419.591 160.98C419.204 161.733 418.671 162.303 417.991 162.69C417.311 163.077 416.531 163.27 415.651 163.27ZM419.281 163V160.34H419.131V152.2H420.601V163H419.281ZM429.276 163C428.669 163.127 428.069 163.177 427.476 163.15C426.889 163.123 426.363 162.997 425.896 162.77C425.436 162.543 425.086 162.19 424.846 161.71C424.653 161.31 424.546 160.907 424.526 160.5C424.513 160.087 424.506 159.617 424.506 159.09V149.2H425.966V159.03C425.966 159.483 425.969 159.863 425.976 160.17C425.989 160.47 426.059 160.737 426.186 160.97C426.426 161.417 426.806 161.683 427.326 161.77C427.853 161.857 428.503 161.837 429.276 161.71V163ZM422.196 153.46V152.2H429.276V153.46H422.196ZM435.523 163.3C434.45 163.3 433.533 163.057 432.773 162.57C432.013 162.083 431.43 161.41 431.023 160.55C430.617 159.69 430.413 158.703 430.413 157.59C430.413 156.457 430.62 155.463 431.033 154.61C431.447 153.757 432.033 153.093 432.793 152.62C433.56 152.14 434.47 151.9 435.523 151.9C436.603 151.9 437.523 152.143 438.283 152.63C439.05 153.11 439.633 153.78 440.033 154.64C440.44 155.493 440.643 156.477 440.643 157.59C440.643 158.723 440.44 159.72 440.033 160.58C439.627 161.433 439.04 162.1 438.273 162.58C437.507 163.06 436.59 163.3 435.523 163.3ZM435.523 161.89C436.723 161.89 437.617 161.493 438.203 160.7C438.79 159.9 439.083 158.863 439.083 157.59C439.083 156.283 438.787 155.243 438.193 154.47C437.607 153.697 436.717 153.31 435.523 153.31C434.717 153.31 434.05 153.493 433.523 153.86C433.003 154.22 432.613 154.723 432.353 155.37C432.1 156.01 431.973 156.75 431.973 157.59C431.973 158.89 432.273 159.933 432.873 160.72C433.473 161.5 434.357 161.89 435.523 161.89ZM455.729 163L455.739 155.91C455.739 155.077 455.506 154.423 455.039 153.95C454.579 153.47 453.993 153.23 453.279 153.23C452.873 153.23 452.476 153.323 452.089 153.51C451.703 153.697 451.383 153.997 451.129 154.41C450.883 154.823 450.759 155.363 450.759 156.03L449.889 155.78C449.869 155.007 450.019 154.33 450.339 153.75C450.666 153.17 451.113 152.72 451.679 152.4C452.253 152.073 452.899 151.91 453.619 151.91C454.706 151.91 455.576 152.247 456.229 152.92C456.883 153.587 457.209 154.49 457.209 155.63L457.199 163H455.729ZM442.839 163V152.2H444.159V154.86H444.319V163H442.839ZM449.299 163L449.309 156.01C449.309 155.15 449.079 154.473 448.619 153.98C448.166 153.48 447.566 153.23 446.819 153.23C446.073 153.23 445.469 153.487 445.009 154C444.549 154.507 444.319 155.183 444.319 156.03L443.439 155.55C443.439 154.857 443.603 154.237 443.929 153.69C444.256 153.137 444.703 152.703 445.269 152.39C445.836 152.07 446.479 151.91 447.199 151.91C447.886 151.91 448.496 152.057 449.029 152.35C449.569 152.643 449.993 153.07 450.299 153.63C450.606 154.19 450.759 154.87 450.759 155.67L450.749 163H449.299ZM462.892 163.3C462.079 163.3 461.396 163.153 460.842 162.86C460.296 162.567 459.886 162.177 459.612 161.69C459.339 161.203 459.202 160.673 459.202 160.1C459.202 159.513 459.319 159.013 459.552 158.6C459.792 158.18 460.116 157.837 460.522 157.57C460.936 157.303 461.412 157.1 461.952 156.96C462.499 156.827 463.102 156.71 463.762 156.61C464.429 156.503 465.079 156.413 465.712 156.34C466.352 156.26 466.912 156.183 467.392 156.11L466.872 156.43C466.892 155.363 466.686 154.573 466.252 154.06C465.819 153.547 465.066 153.29 463.992 153.29C463.252 153.29 462.626 153.457 462.112 153.79C461.606 154.123 461.249 154.65 461.042 155.37L459.612 154.95C459.859 153.983 460.356 153.233 461.102 152.7C461.849 152.167 462.819 151.9 464.012 151.9C464.999 151.9 465.836 152.087 466.522 152.46C467.216 152.827 467.706 153.36 467.992 154.06C468.126 154.373 468.212 154.723 468.252 155.11C468.292 155.497 468.312 155.89 468.312 156.29V163H467.002V160.29L467.382 160.45C467.016 161.377 466.446 162.083 465.672 162.57C464.899 163.057 463.972 163.3 462.892 163.3ZM463.062 162.03C463.749 162.03 464.349 161.907 464.862 161.66C465.376 161.413 465.789 161.077 466.102 160.65C466.416 160.217 466.619 159.73 466.712 159.19C466.792 158.843 466.836 158.463 466.842 158.05C466.849 157.63 466.852 157.317 466.852 157.11L467.412 157.4C466.912 157.467 466.369 157.533 465.782 157.6C465.202 157.667 464.629 157.743 464.062 157.83C463.502 157.917 462.996 158.02 462.542 158.14C462.236 158.227 461.939 158.35 461.652 158.51C461.366 158.663 461.129 158.87 460.942 159.13C460.762 159.39 460.672 159.713 460.672 160.1C460.672 160.413 460.749 160.717 460.902 161.01C461.062 161.303 461.316 161.547 461.662 161.74C462.016 161.933 462.482 162.03 463.062 162.03ZM476.796 163C476.189 163.127 475.589 163.177 474.996 163.15C474.409 163.123 473.882 162.997 473.416 162.77C472.956 162.543 472.606 162.19 472.366 161.71C472.172 161.31 472.066 160.907 472.046 160.5C472.032 160.087 472.026 159.617 472.026 159.09V149.2H473.486V159.03C473.486 159.483 473.489 159.863 473.496 160.17C473.509 160.47 473.579 160.737 473.706 160.97C473.946 161.417 474.326 161.683 474.846 161.77C475.372 161.857 476.022 161.837 476.796 161.71V163ZM469.716 153.46V152.2H476.796V153.46H469.716ZM479.123 150.15V148.5H480.593V150.15H479.123ZM479.123 163V152.2H480.593V163H479.123ZM488.101 163.3C487.028 163.3 486.111 163.057 485.351 162.57C484.591 162.083 484.008 161.41 483.601 160.55C483.195 159.69 482.991 158.703 482.991 157.59C482.991 156.457 483.198 155.463 483.611 154.61C484.025 153.757 484.611 153.093 485.371 152.62C486.138 152.14 487.048 151.9 488.101 151.9C489.181 151.9 490.101 152.143 490.861 152.63C491.628 153.11 492.211 153.78 492.611 154.64C493.018 155.493 493.221 156.477 493.221 157.59C493.221 158.723 493.018 159.72 492.611 160.58C492.205 161.433 491.618 162.1 490.851 162.58C490.085 163.06 489.168 163.3 488.101 163.3ZM488.101 161.89C489.301 161.89 490.195 161.493 490.781 160.7C491.368 159.9 491.661 158.863 491.661 157.59C491.661 156.283 491.365 155.243 490.771 154.47C490.185 153.697 489.295 153.31 488.101 153.31C487.295 153.31 486.628 153.493 486.101 153.86C485.581 154.22 485.191 154.723 484.931 155.37C484.678 156.01 484.551 156.75 484.551 157.59C484.551 158.89 484.851 159.933 485.451 160.72C486.051 161.5 486.935 161.89 488.101 161.89ZM503.227 163V157.49C503.227 156.89 503.171 156.34 503.057 155.84C502.944 155.333 502.761 154.893 502.507 154.52C502.261 154.14 501.937 153.847 501.537 153.64C501.144 153.433 500.664 153.33 500.097 153.33C499.577 153.33 499.117 153.42 498.717 153.6C498.324 153.78 497.991 154.04 497.717 154.38C497.451 154.713 497.247 155.12 497.107 155.6C496.967 156.08 496.897 156.627 496.897 157.24L495.857 157.01C495.857 155.903 496.051 154.973 496.437 154.22C496.824 153.467 497.357 152.897 498.037 152.51C498.717 152.123 499.497 151.93 500.377 151.93C501.024 151.93 501.587 152.03 502.067 152.23C502.554 152.43 502.964 152.7 503.297 153.04C503.637 153.38 503.911 153.77 504.117 154.21C504.324 154.643 504.474 155.107 504.567 155.6C504.661 156.087 504.707 156.573 504.707 157.06V163H503.227ZM495.417 163V152.2H496.747V154.86H496.897V163H495.417ZM507.702 163V160.53H510.172V163H507.702Z" fill="url(#paint0_linear_8525_17260)"/>
</g>
<defs>
<filter id="filter0_d_8525_17260" x="0" y="0" width="582" height="239" filterUnits="userSpaceOnUse" color-interpolation-filters="sRGB">
<feFlood flood-opacity="0" result="BackgroundImageFix"/>
<feColorMatrix in="SourceAlpha" type="matrix" values="0 0 0 0 0 0 0 0 0 0 0 0 0 0 0 0 0 0 127 0" result="hardAlpha"/>
<feOffset/>
<feGaussianBlur stdDeviation="10"/>
<feComposite in2="hardAlpha" operator="out"/>
<feColorMatrix type="matrix" values="0 0 0 0 0 0 0 0 0 0 0 0 0 0 0 0 0 0 0.12 0"/>
<feBlend mode="normal" in2="BackgroundImageFix" result="effect1_dropShadow_8525_17260"/>
<feBlend mode="normal" in="SourceGraphic" in2="effect1_dropShadow_8525_17260" result="shape"/>
</filter>
<linearGradient id="paint0_linear_8525_17260" x1="70" y1="155.5" x2="512" y2="155.5" gradientUnits="userSpaceOnUse">
<stop offset="0.11" stop-color="#CD6028"/>
<stop offset="1" stop-color="#3E6EB4"/>
</linearGradient>
</defs>
</svg>
