<svg width="189" height="122" viewBox="0 0 189 122" fill="none" xmlns="http://www.w3.org/2000/svg">
<path d="M3.76118 7.71077C5.83842 7.71077 7.52236 6.02683 7.52236 3.94959C7.52236 1.87235 5.83842 0.188408 3.76118 0.188408C1.68394 0.188408 0 1.87235 0 3.94959C0 6.02683 1.68394 7.71077 3.76118 7.71077Z" fill="#D8D8D8"/>
<path d="M34.0385 7.71084C36.1158 7.71084 37.7997 6.0269 37.7997 3.94966C37.7997 1.87241 36.1158 0.188477 34.0385 0.188477C31.9613 0.188477 30.2773 1.87241 30.2773 3.94966C30.2773 6.0269 31.9613 7.71084 34.0385 7.71084Z" fill="#D8D8D8"/>
<path d="M64.1284 7.52236C66.2056 7.52236 67.8896 5.83842 67.8896 3.76118C67.8896 1.68394 66.2056 0 64.1284 0C62.0511 0 60.3672 1.68394 60.3672 3.76118C60.3672 5.83842 62.0511 7.52236 64.1284 7.52236Z" fill="#D8D8D8"/>
<path d="M94.4057 7.89834C96.483 7.89834 98.1669 6.2144 98.1669 4.13716C98.1669 2.05991 96.483 0.375977 94.4057 0.375977C92.3285 0.375977 90.6445 2.05991 90.6445 4.13716C90.6445 6.2144 92.3285 7.89834 94.4057 7.89834Z" fill="#D8D8D8"/>
<path d="M124.496 7.89834C126.573 7.89834 128.257 6.2144 128.257 4.13716C128.257 2.05991 126.573 0.375977 124.496 0.375977C122.418 0.375977 120.734 2.05991 120.734 4.13716C120.734 6.2144 122.418 7.89834 124.496 7.89834Z" fill="#D8D8D8"/>
<path d="M154.773 7.71084C156.85 7.71084 158.534 6.0269 158.534 3.94966C158.534 1.87241 156.85 0.188477 154.773 0.188477C152.696 0.188477 151.012 1.87241 151.012 3.94966C151.012 6.0269 152.696 7.71084 154.773 7.71084Z" fill="#D8D8D8"/>
<path d="M184.863 7.52236C186.94 7.52236 188.624 5.83842 188.624 3.76118C188.624 1.68394 186.94 0 184.863 0C182.786 0 181.102 1.68394 181.102 3.76118C181.102 5.83842 182.786 7.52236 184.863 7.52236Z" fill="#D8D8D8"/>
<path d="M3.76118 25.9521C5.83842 25.9521 7.52236 24.2681 7.52236 22.1909C7.52236 20.1136 5.83842 18.4297 3.76118 18.4297C1.68394 18.4297 0 20.1136 0 22.1909C0 24.2681 1.68394 25.9521 3.76118 25.9521Z" fill="#D8D8D8"/>
<path d="M34.0385 25.9521C36.1158 25.9521 37.7997 24.2681 37.7997 22.1909C37.7997 20.1136 36.1158 18.4297 34.0385 18.4297C31.9613 18.4297 30.2773 20.1136 30.2773 22.1909C30.2773 24.2681 31.9613 25.9521 34.0385 25.9521Z" fill="#D8D8D8"/>
<path d="M64.1284 25.7644C66.2056 25.7644 67.8896 24.0805 67.8896 22.0032C67.8896 19.926 66.2056 18.242 64.1284 18.242C62.0511 18.242 60.3672 19.926 60.3672 22.0032C60.3672 24.0805 62.0511 25.7644 64.1284 25.7644Z" fill="#D8D8D8"/>
<path d="M94.4057 26.1405C96.483 26.1405 98.1669 24.4566 98.1669 22.3793C98.1669 20.3021 96.483 18.6182 94.4057 18.6182C92.3285 18.6182 90.6445 20.3021 90.6445 22.3793C90.6445 24.4566 92.3285 26.1405 94.4057 26.1405Z" fill="#D8D8D8"/>
<path d="M124.496 26.1405C126.573 26.1405 128.257 24.4566 128.257 22.3793C128.257 20.3021 126.573 18.6182 124.496 18.6182C122.418 18.6182 120.734 20.3021 120.734 22.3793C120.734 24.4566 122.418 26.1405 124.496 26.1405Z" fill="#D8D8D8"/>
<path d="M154.773 25.9521C156.85 25.9521 158.534 24.2681 158.534 22.1909C158.534 20.1136 156.85 18.4297 154.773 18.4297C152.696 18.4297 151.012 20.1136 151.012 22.1909C151.012 24.2681 152.696 25.9521 154.773 25.9521Z" fill="#D8D8D8"/>
<path d="M184.863 25.7644C186.94 25.7644 188.624 24.0805 188.624 22.0032C188.624 19.926 186.94 18.242 184.863 18.242C182.786 18.242 181.102 19.926 181.102 22.0032C181.102 24.0805 182.786 25.7644 184.863 25.7644Z" fill="#D8D8D8"/>
<path d="M3.94868 44.5692C6.02592 44.5692 7.70986 42.8853 7.70986 40.8081C7.70986 38.7308 6.02592 37.0469 3.94868 37.0469C1.87144 37.0469 0.1875 38.7308 0.1875 40.8081C0.1875 42.8853 1.87144 44.5692 3.94868 44.5692Z" fill="#D8D8D8"/>
<path d="M34.226 44.5692C36.3033 44.5692 37.9872 42.8853 37.9872 40.8081C37.9872 38.7308 36.3033 37.0469 34.226 37.0469C32.1488 37.0469 30.4648 38.7308 30.4648 40.8081C30.4648 42.8853 32.1488 44.5692 34.226 44.5692Z" fill="#D8D8D8"/>
<path d="M64.3159 44.3817C66.3931 44.3817 68.0771 42.6978 68.0771 40.6206C68.0771 38.5433 66.3931 36.8594 64.3159 36.8594C62.2386 36.8594 60.5547 38.5433 60.5547 40.6206C60.5547 42.6978 62.2386 44.3817 64.3159 44.3817Z" fill="#D8D8D8"/>
<path d="M94.5932 44.7577C96.6705 44.7577 98.3544 43.0738 98.3544 40.9965C98.3544 38.9193 96.6705 37.2354 94.5932 37.2354C92.516 37.2354 90.832 38.9193 90.832 40.9965C90.832 43.0738 92.516 44.7577 94.5932 44.7577Z" fill="#D8D8D8"/>
<path d="M124.683 44.7577C126.76 44.7577 128.444 43.0738 128.444 40.9965C128.444 38.9193 126.76 37.2354 124.683 37.2354C122.606 37.2354 120.922 38.9193 120.922 40.9965C120.922 43.0738 122.606 44.7577 124.683 44.7577Z" fill="#D8D8D8"/>
<path d="M154.96 44.5692C157.038 44.5692 158.722 42.8853 158.722 40.8081C158.722 38.7308 157.038 37.0469 154.96 37.0469C152.883 37.0469 151.199 38.7308 151.199 40.8081C151.199 42.8853 152.883 44.5692 154.96 44.5692Z" fill="#D8D8D8"/>
<path d="M185.05 44.3817C187.127 44.3817 188.811 42.6978 188.811 40.6206C188.811 38.5433 187.127 36.8594 185.05 36.8594C182.973 36.8594 181.289 38.5433 181.289 40.6206C181.289 42.6978 182.973 44.3817 185.05 44.3817Z" fill="#D8D8D8"/>
<path d="M4.13618 63.5644C6.21342 63.5644 7.89736 61.8804 7.89736 59.8032C7.89736 57.7259 6.21342 56.042 4.13618 56.042C2.05894 56.042 0.375 57.7259 0.375 59.8032C0.375 61.8804 2.05894 63.5644 4.13618 63.5644Z" fill="#D8D8D8"/>
<path d="M34.4135 63.5644C36.4908 63.5644 38.1747 61.8804 38.1747 59.8032C38.1747 57.7259 36.4908 56.042 34.4135 56.042C32.3363 56.042 30.6523 57.7259 30.6523 59.8032C30.6523 61.8804 32.3363 63.5644 34.4135 63.5644Z" fill="#D8D8D8"/>
<path d="M64.5034 63.3759C66.5806 63.3759 68.2646 61.6919 68.2646 59.6147C68.2646 57.5375 66.5806 55.8535 64.5034 55.8535C62.4261 55.8535 60.7422 57.5375 60.7422 59.6147C60.7422 61.6919 62.4261 63.3759 64.5034 63.3759Z" fill="#D8D8D8"/>
<path d="M94.7807 63.7528C96.858 63.7528 98.5419 62.0689 98.5419 59.9917C98.5419 57.9144 96.858 56.2305 94.7807 56.2305C92.7035 56.2305 91.0195 57.9144 91.0195 59.9917C91.0195 62.0689 92.7035 63.7528 94.7807 63.7528Z" fill="#D8D8D8"/>
<path d="M124.871 63.7528C126.948 63.7528 128.632 62.0689 128.632 59.9917C128.632 57.9144 126.948 56.2305 124.871 56.2305C122.793 56.2305 121.109 57.9144 121.109 59.9917C121.109 62.0689 122.793 63.7528 124.871 63.7528Z" fill="#D8D8D8"/>
<path d="M155.148 63.5644C157.225 63.5644 158.909 61.8804 158.909 59.8032C158.909 57.7259 157.225 56.042 155.148 56.042C153.071 56.042 151.387 57.7259 151.387 59.8032C151.387 61.8804 153.071 63.5644 155.148 63.5644Z" fill="#D8D8D8"/>
<path d="M185.238 63.3759C187.315 63.3759 188.999 61.6919 188.999 59.6147C188.999 57.5375 187.315 55.8535 185.238 55.8535C183.161 55.8535 181.477 57.5375 181.477 59.6147C181.477 61.6919 183.161 63.3759 185.238 63.3759Z" fill="#D8D8D8"/>
<path d="M3.76118 82.9345C5.83842 82.9345 7.52236 81.2505 7.52236 79.1733C7.52236 77.096 5.83842 75.4121 3.76118 75.4121C1.68394 75.4121 0 77.096 0 79.1733C0 81.2505 1.68394 82.9345 3.76118 82.9345Z" fill="#D8D8D8"/>
<path d="M34.0385 82.9345C36.1158 82.9345 37.7997 81.2505 37.7997 79.1733C37.7997 77.096 36.1158 75.4121 34.0385 75.4121C31.9613 75.4121 30.2773 77.096 30.2773 79.1733C30.2773 81.2505 31.9613 82.9345 34.0385 82.9345Z" fill="#D8D8D8"/>
<path d="M64.1284 82.7458C66.2056 82.7458 67.8896 81.0619 67.8896 78.9846C67.8896 76.9074 66.2056 75.2234 64.1284 75.2234C62.0511 75.2234 60.3672 76.9074 60.3672 78.9846C60.3672 81.0619 62.0511 82.7458 64.1284 82.7458Z" fill="#D8D8D8"/>
<path d="M94.4057 83.122C96.483 83.122 98.1669 81.438 98.1669 79.3608C98.1669 77.2835 96.483 75.5996 94.4057 75.5996C92.3285 75.5996 90.6445 77.2835 90.6445 79.3608C90.6445 81.438 92.3285 83.122 94.4057 83.122Z" fill="#D8D8D8"/>
<path d="M124.496 83.122C126.573 83.122 128.257 81.438 128.257 79.3608C128.257 77.2835 126.573 75.5996 124.496 75.5996C122.418 75.5996 120.734 77.2835 120.734 79.3608C120.734 81.438 122.418 83.122 124.496 83.122Z" fill="#D8D8D8"/>
<path d="M154.773 82.9345C156.85 82.9345 158.534 81.2505 158.534 79.1733C158.534 77.096 156.85 75.4121 154.773 75.4121C152.696 75.4121 151.012 77.096 151.012 79.1733C151.012 81.2505 152.696 82.9345 154.773 82.9345Z" fill="#D8D8D8"/>
<path d="M184.863 82.7458C186.94 82.7458 188.624 81.0619 188.624 78.9846C188.624 76.9074 186.94 75.2234 184.863 75.2234C182.786 75.2234 181.102 76.9074 181.102 78.9846C181.102 81.0619 182.786 82.7458 184.863 82.7458Z" fill="#D8D8D8"/>
<path d="M3.76118 101.928C5.83842 101.928 7.52236 100.244 7.52236 98.1665C7.52236 96.0892 5.83842 94.4053 3.76118 94.4053C1.68394 94.4053 0 96.0892 0 98.1665C0 100.244 1.68394 101.928 3.76118 101.928Z" fill="#D8D8D8"/>
<path d="M34.0385 101.928C36.1158 101.928 37.7997 100.244 37.7997 98.1665C37.7997 96.0892 36.1158 94.4053 34.0385 94.4053C31.9613 94.4053 30.2773 96.0892 30.2773 98.1665C30.2773 100.244 31.9613 101.928 34.0385 101.928Z" fill="#D8D8D8"/>
<path d="M64.1284 101.74C66.2056 101.74 67.8896 100.056 67.8896 97.9792C67.8896 95.902 66.2056 94.218 64.1284 94.218C62.0511 94.218 60.3672 95.902 60.3672 97.9792C60.3672 100.056 62.0511 101.74 64.1284 101.74Z" fill="#D8D8D8"/>
<path d="M94.4057 102.116C96.483 102.116 98.1669 100.432 98.1669 98.3549C98.1669 96.2777 96.483 94.5938 94.4057 94.5938C92.3285 94.5938 90.6445 96.2777 90.6445 98.3549C90.6445 100.432 92.3285 102.116 94.4057 102.116Z" fill="#D8D8D8"/>
<path d="M124.496 102.116C126.573 102.116 128.257 100.432 128.257 98.3549C128.257 96.2776 126.573 94.5937 124.496 94.5937C122.418 94.5937 120.734 96.2776 120.734 98.3549C120.734 100.432 122.418 102.116 124.496 102.116Z" fill="#D8D8D8"/>
<path d="M154.773 101.928C156.85 101.928 158.534 100.244 158.534 98.1665C158.534 96.0892 156.85 94.4053 154.773 94.4053C152.696 94.4053 151.012 96.0892 151.012 98.1665C151.012 100.244 152.696 101.928 154.773 101.928Z" fill="#D8D8D8"/>
<path d="M184.863 101.74C186.94 101.74 188.624 100.056 188.624 97.9792C188.624 95.902 186.94 94.218 184.863 94.218C182.786 94.218 181.102 95.902 181.102 97.9792C181.102 100.056 182.786 101.74 184.863 101.74Z" fill="#D8D8D8"/>
<path d="M3.76118 120.922C5.83842 120.922 7.52236 119.238 7.52236 117.161C7.52236 115.083 5.83842 113.399 3.76118 113.399C1.68394 113.399 0 115.083 0 117.161C0 119.238 1.68394 120.922 3.76118 120.922Z" fill="#D8D8D8"/>
<path d="M34.0385 120.922C36.1158 120.922 37.7997 119.238 37.7997 117.161C37.7997 115.083 36.1158 113.399 34.0385 113.399C31.9613 113.399 30.2773 115.083 30.2773 117.161C30.2773 119.238 31.9613 120.922 34.0385 120.922Z" fill="#D8D8D8"/>
<path d="M64.1284 120.734C66.2056 120.734 67.8896 119.05 67.8896 116.973C67.8896 114.896 66.2056 113.212 64.1284 113.212C62.0511 113.212 60.3672 114.896 60.3672 116.973C60.3672 119.05 62.0511 120.734 64.1284 120.734Z" fill="#D8D8D8"/>
<path d="M94.4057 121.11C96.483 121.11 98.1669 119.426 98.1669 117.349C98.1669 115.272 96.483 113.588 94.4057 113.588C92.3285 113.588 90.6445 115.272 90.6445 117.349C90.6445 119.426 92.3285 121.11 94.4057 121.11Z" fill="#D8D8D8"/>
<path d="M124.496 121.11C126.573 121.11 128.257 119.426 128.257 117.349C128.257 115.272 126.573 113.588 124.496 113.588C122.418 113.588 120.734 115.272 120.734 117.349C120.734 119.426 122.418 121.11 124.496 121.11Z" fill="#D8D8D8"/>
<path d="M154.773 120.922C156.85 120.922 158.534 119.238 158.534 117.161C158.534 115.083 156.85 113.399 154.773 113.399C152.696 113.399 151.012 115.083 151.012 117.161C151.012 119.238 152.696 120.922 154.773 120.922Z" fill="#D8D8D8"/>
<path d="M184.863 120.734C186.94 120.734 188.624 119.05 188.624 116.973C188.624 114.896 186.94 113.212 184.863 113.212C182.786 113.212 181.102 114.896 181.102 116.973C181.102 119.05 182.786 120.734 184.863 120.734Z" fill="#D8D8D8"/>
</svg>
