<svg width="264" height="63" viewBox="0 0 264 63" fill="none" xmlns="http://www.w3.org/2000/svg">
<path d="M5.25896 10.7807C8.16341 10.7807 10.5179 8.4262 10.5179 5.52175C10.5179 2.61731 8.16341 0.262787 5.25896 0.262787C2.35452 0.262787 0 2.61731 0 5.52175C0 8.4262 2.35452 10.7807 5.25896 10.7807Z" fill="#D8D8D8"/>
<path d="M47.5949 10.7806C50.4993 10.7806 52.8539 8.42611 52.8539 5.52166C52.8539 2.61721 50.4993 0.262695 47.5949 0.262695C44.6905 0.262695 42.3359 2.61721 42.3359 5.52166C42.3359 8.42611 44.6905 10.7806 47.5949 10.7806Z" fill="#D8D8D8"/>
<path d="M89.6652 10.5179C92.5697 10.5179 94.9242 8.16341 94.9242 5.25896C94.9242 2.35452 92.5697 0 89.6652 0C86.7608 0 84.4062 2.35452 84.4062 5.25896C84.4062 8.16341 86.7608 10.5179 89.6652 10.5179Z" fill="#D8D8D8"/>
<path d="M132.001 11.0433C134.906 11.0433 137.26 8.6888 137.26 5.78436C137.26 2.87991 134.906 0.525391 132.001 0.525391C129.097 0.525391 126.742 2.87991 126.742 5.78436C126.742 8.6888 129.097 11.0433 132.001 11.0433Z" fill="#D8D8D8"/>
<path d="M174.071 11.0433C176.976 11.0433 179.33 8.6888 179.33 5.78436C179.33 2.87991 176.976 0.525391 174.071 0.525391C171.167 0.525391 168.812 2.87991 168.812 5.78436C168.812 8.6888 171.167 11.0433 174.071 11.0433Z" fill="#D8D8D8"/>
<path d="M216.407 10.7806C219.312 10.7806 221.666 8.42611 221.666 5.52166C221.666 2.61721 219.312 0.262695 216.407 0.262695C213.503 0.262695 211.148 2.61721 211.148 5.52166C211.148 8.42611 213.503 10.7806 216.407 10.7806Z" fill="#D8D8D8"/>
<path d="M258.478 10.5179C261.382 10.5179 263.737 8.16341 263.737 5.25896C263.737 2.35452 261.382 0 258.478 0C255.573 0 253.219 2.35452 253.219 5.25896C253.219 8.16341 255.573 10.5179 258.478 10.5179Z" fill="#D8D8D8"/>
<path d="M5.25896 36.2865C8.16341 36.2865 10.5179 33.932 10.5179 31.0275C10.5179 28.1231 8.16341 25.7686 5.25896 25.7686C2.35452 25.7686 0 28.1231 0 31.0275C0 33.932 2.35452 36.2865 5.25896 36.2865Z" fill="#D8D8D8"/>
<path d="M47.5949 36.2865C50.4993 36.2865 52.8539 33.932 52.8539 31.0275C52.8539 28.1231 50.4993 25.7686 47.5949 25.7686C44.6905 25.7686 42.3359 28.1231 42.3359 31.0275C42.3359 33.932 44.6905 36.2865 47.5949 36.2865Z" fill="#D8D8D8"/>
<path d="M89.6652 36.0238C92.5697 36.0238 94.9242 33.6693 94.9242 30.7648C94.9242 27.8604 92.5697 25.5059 89.6652 25.5059C86.7608 25.5059 84.4062 27.8604 84.4062 30.7648C84.4062 33.6693 86.7608 36.0238 89.6652 36.0238Z" fill="#D8D8D8"/>
<path d="M132.001 36.5492C134.906 36.5492 137.26 34.1947 137.26 31.2902C137.26 28.3858 134.906 26.0312 132.001 26.0312C129.097 26.0312 126.742 28.3858 126.742 31.2902C126.742 34.1947 129.097 36.5492 132.001 36.5492Z" fill="#D8D8D8"/>
<path d="M174.071 36.5492C176.976 36.5492 179.33 34.1947 179.33 31.2902C179.33 28.3858 176.976 26.0312 174.071 26.0312C171.167 26.0312 168.812 28.3858 168.812 31.2902C168.812 34.1947 171.167 36.5492 174.071 36.5492Z" fill="#D8D8D8"/>
<path d="M216.407 36.2865C219.312 36.2865 221.666 33.932 221.666 31.0275C221.666 28.1231 219.312 25.7686 216.407 25.7686C213.503 25.7686 211.148 28.1231 211.148 31.0275C211.148 33.932 213.503 36.2865 216.407 36.2865Z" fill="#D8D8D8"/>
<path d="M258.478 36.0238C261.382 36.0238 263.737 33.6693 263.737 30.7648C263.737 27.8604 261.382 25.5059 258.478 25.5059C255.573 25.5059 253.219 27.8604 253.219 30.7648C253.219 33.6693 255.573 36.0238 258.478 36.0238Z" fill="#D8D8D8"/>
<path d="M5.52068 62.3187C8.42513 62.3187 10.7796 59.9642 10.7796 57.0597C10.7796 54.1553 8.42513 51.8008 5.52068 51.8008C2.61624 51.8008 0.261719 54.1553 0.261719 57.0597C0.261719 59.9642 2.61624 62.3187 5.52068 62.3187Z" fill="#D8D8D8"/>
<path d="M47.8566 62.3187C50.7611 62.3187 53.1156 59.9642 53.1156 57.0597C53.1156 54.1553 50.7611 51.8008 47.8566 51.8008C44.9522 51.8008 42.5977 54.1553 42.5977 57.0597C42.5977 59.9642 44.9522 62.3187 47.8566 62.3187Z" fill="#D8D8D8"/>
<path d="M89.9269 62.056C92.8314 62.056 95.1859 59.7015 95.1859 56.7971C95.1859 53.8926 92.8314 51.5381 89.9269 51.5381C87.0225 51.5381 84.668 53.8926 84.668 56.7971C84.668 59.7015 87.0225 62.056 89.9269 62.056Z" fill="#D8D8D8"/>
<path d="M132.263 62.5824C135.167 62.5824 137.522 60.2279 137.522 57.3234C137.522 54.419 135.167 52.0645 132.263 52.0645C129.358 52.0645 127.004 54.419 127.004 57.3234C127.004 60.2279 129.358 62.5824 132.263 62.5824Z" fill="#D8D8D8"/>
<path d="M174.333 62.5824C177.238 62.5824 179.592 60.2279 179.592 57.3234C179.592 54.419 177.238 52.0645 174.333 52.0645C171.429 52.0645 169.074 54.419 169.074 57.3234C169.074 60.2279 171.429 62.5824 174.333 62.5824Z" fill="#D8D8D8"/>
<path d="M216.669 62.3187C219.574 62.3187 221.928 59.9642 221.928 57.0597C221.928 54.1553 219.574 51.8008 216.669 51.8008C213.765 51.8008 211.41 54.1553 211.41 57.0597C211.41 59.9642 213.765 62.3187 216.669 62.3187Z" fill="#D8D8D8"/>
<path d="M258.739 62.056C261.644 62.056 263.998 59.7015 263.998 56.7971C263.998 53.8926 261.644 51.5381 258.739 51.5381C255.835 51.5381 253.48 53.8926 253.48 56.7971C253.48 59.7015 255.835 62.056 258.739 62.056Z" fill="#D8D8D8"/>
</svg>
