<svg width="239" height="35" viewBox="0 0 239 35" fill="none" xmlns="http://www.w3.org/2000/svg">
<path d="M7.33137e-06 16.992C7.33137e-06 14.944 0.368007 12.912 1.10401 10.896C1.84001 8.84797 2.91201 7.02397 4.32001 5.42397C5.76001 3.79197 7.50401 2.47997 9.55201 1.48797C11.6 0.495971 13.92 -2.95639e-05 16.512 -2.95639e-05C19.616 -2.95639e-05 22.272 0.687971 24.48 2.06397C26.688 3.43997 28.352 5.23197 29.472 7.43997L25.248 10.272C24.768 9.24797 24.192 8.38397 23.52 7.67997C22.848 6.97597 22.112 6.41597 21.312 5.99997C20.512 5.58397 19.68 5.29597 18.816 5.13597C17.952 4.94397 17.12 4.84797 16.32 4.84797C14.528 4.84797 12.96 5.21597 11.616 5.95197C10.272 6.65597 9.13601 7.59997 8.20801 8.78397C7.31201 9.96797 6.62401 11.296 6.14401 12.768C5.69601 14.24 5.47201 15.712 5.47201 17.184C5.47201 18.848 5.74401 20.432 6.28801 21.936C6.83201 23.44 7.58401 24.768 8.54401 25.92C9.53601 27.072 10.704 28 12.048 28.704C13.392 29.376 14.864 29.712 16.464 29.712C17.296 29.712 18.144 29.616 19.008 29.424C19.904 29.2 20.752 28.864 21.552 28.416C22.384 27.936 23.136 27.344 23.808 26.64C24.512 25.936 25.088 25.088 25.536 24.096L30 26.64C29.456 27.92 28.688 29.056 27.696 30.048C26.704 31.008 25.584 31.824 24.336 32.496C23.088 33.168 21.76 33.68 20.352 34.032C18.976 34.384 17.616 34.56 16.272 34.56C13.872 34.56 11.68 34.048 9.69601 33.024C7.71201 32 6.00001 30.672 4.56001 29.04C3.12001 27.376 2.00001 25.504 1.20001 23.424C0.400007 21.312 7.33137e-06 19.168 7.33137e-06 16.992ZM44.5805 34.752C42.5965 34.752 40.8045 34.4 39.2045 33.696C37.6365 32.992 36.2925 32.048 35.1725 30.864C34.0525 29.68 33.1885 28.304 32.5805 26.736C31.9725 25.136 31.6685 23.472 31.6685 21.744C31.6685 20.016 31.9725 18.368 32.5805 16.8C33.1885 15.2 34.0525 13.808 35.1725 12.624C36.3245 11.44 37.6845 10.496 39.2525 9.79197C40.8525 9.08797 42.6285 8.73597 44.5805 8.73597C46.5325 8.73597 48.2925 9.08797 49.8605 9.79197C51.4605 10.496 52.8205 11.44 53.9405 12.624C55.0925 13.808 55.9725 15.2 56.5805 16.8C57.1885 18.368 57.4925 20.016 57.4925 21.744C57.4925 23.472 57.1885 25.136 56.5805 26.736C55.9725 28.304 55.0925 29.68 53.9405 30.864C52.8205 32.048 51.4605 32.992 49.8605 33.696C48.2925 34.4 46.5325 34.752 44.5805 34.752ZM37.0925 21.792C37.0925 23.008 37.2845 24.128 37.6685 25.152C38.0525 26.176 38.5805 27.072 39.2525 27.84C39.9245 28.576 40.7085 29.168 41.6045 29.616C42.5325 30.032 43.5245 30.24 44.5805 30.24C45.6365 30.24 46.6125 30.032 47.5085 29.616C48.4365 29.168 49.2365 28.56 49.9085 27.792C50.5805 27.024 51.1085 26.128 51.4925 25.104C51.8765 24.08 52.0685 22.96 52.0685 21.744C52.0685 20.56 51.8765 19.456 51.4925 18.432C51.1085 17.376 50.5805 16.464 49.9085 15.696C49.2365 14.928 48.4365 14.336 47.5085 13.92C46.6125 13.472 45.6365 13.248 44.5805 13.248C43.5565 13.248 42.5805 13.472 41.6525 13.92C40.7565 14.368 39.9725 14.976 39.3005 15.744C38.6285 16.512 38.0845 17.424 37.6685 18.48C37.2845 19.504 37.0925 20.608 37.0925 21.792ZM83.6875 34.272H78.4075V20.208C78.4075 17.84 78.0235 16.128 77.2555 15.072C76.5195 13.984 75.4155 13.44 73.9435 13.44C73.1755 13.44 72.4075 13.584 71.6395 13.872C70.8715 14.16 70.1515 14.576 69.4795 15.12C68.8075 15.632 68.1995 16.256 67.6555 16.992C67.1435 17.696 66.7435 18.48 66.4555 19.344V34.272H61.1755V9.16797H65.9755V14.208C66.9355 12.512 68.3275 11.184 70.1515 10.224C71.9755 9.23197 73.9915 8.73597 76.1995 8.73597C77.7035 8.73597 78.9355 9.00797 79.8955 9.55197C80.8555 10.096 81.6075 10.848 82.1515 11.808C82.7275 12.736 83.1275 13.824 83.3515 15.072C83.5755 16.288 83.6875 17.584 83.6875 18.96V34.272ZM102.55 32.976C101.878 33.296 100.95 33.664 99.7658 34.08C98.5818 34.464 97.3178 34.656 95.9738 34.656C95.1418 34.656 94.3578 34.544 93.6218 34.32C92.8858 34.096 92.2298 33.76 91.6538 33.312C91.1098 32.864 90.6778 32.288 90.3578 31.584C90.0378 30.848 89.8778 29.968 89.8778 28.944V13.248H86.5658V9.16797H89.8778V0.91197H95.1578V9.16797H100.63V13.248H95.1578V27.264C95.2218 28.16 95.4938 28.816 95.9738 29.232C96.4858 29.616 97.1098 29.808 97.8458 29.808C98.5818 29.808 99.2858 29.68 99.9578 29.424C100.63 29.168 101.126 28.96 101.446 28.8L102.55 32.976ZM111.879 34.752C110.663 34.752 109.527 34.56 108.471 34.176C107.447 33.76 106.551 33.2 105.783 32.496C105.047 31.792 104.455 30.96 104.007 30C103.591 29.04 103.383 28 103.383 26.88C103.383 25.696 103.639 24.624 104.151 23.664C104.663 22.704 105.383 21.872 106.311 21.168C107.271 20.464 108.391 19.92 109.671 19.536C110.983 19.152 112.423 18.96 113.991 18.96C115.175 18.96 116.343 19.072 117.495 19.296C118.647 19.488 119.687 19.76 120.615 20.112V18.384C120.615 16.528 120.087 15.088 119.031 14.064C117.975 13.008 116.455 12.48 114.471 12.48C113.127 12.48 111.799 12.736 110.487 13.248C109.207 13.728 107.879 14.432 106.503 15.36L104.871 12C108.103 9.82397 111.463 8.73597 114.951 8.73597C118.407 8.73597 121.095 9.61597 123.015 11.376C124.935 13.136 125.895 15.664 125.895 18.96V28.032C125.895 29.152 126.359 29.728 127.287 29.76V34.272C126.775 34.368 126.327 34.432 125.943 34.464C125.591 34.496 125.239 34.512 124.887 34.512C123.863 34.512 123.063 34.256 122.487 33.744C121.943 33.232 121.607 32.576 121.479 31.776L121.335 30.192C120.215 31.664 118.823 32.8 117.159 33.6C115.527 34.368 113.767 34.752 111.879 34.752ZM113.319 30.864C114.599 30.864 115.799 30.64 116.919 30.192C118.071 29.712 118.967 29.056 119.607 28.224C120.279 27.648 120.615 27.04 120.615 26.4V23.088C119.719 22.736 118.759 22.464 117.735 22.272C116.743 22.08 115.767 21.984 114.807 21.984C112.919 21.984 111.367 22.4 110.151 23.232C108.967 24.032 108.375 25.104 108.375 26.448C108.375 27.696 108.839 28.752 109.767 29.616C110.695 30.448 111.879 30.864 113.319 30.864ZM129.669 21.696C129.669 19.936 129.973 18.272 130.581 16.704C131.189 15.136 132.053 13.76 133.173 12.576C134.325 11.392 135.701 10.464 137.301 9.79197C138.901 9.08797 140.693 8.73597 142.677 8.73597C145.269 8.73597 147.493 9.31197 149.349 10.464C151.237 11.584 152.645 13.088 153.573 14.976L148.437 16.608C147.829 15.552 147.013 14.736 145.989 14.16C144.965 13.552 143.829 13.248 142.581 13.248C141.525 13.248 140.533 13.456 139.605 13.872C138.709 14.288 137.925 14.88 137.253 15.648C136.581 16.384 136.053 17.264 135.669 18.288C135.285 19.312 135.093 20.448 135.093 21.696C135.093 22.912 135.285 24.048 135.669 25.104C136.085 26.128 136.629 27.024 137.301 27.792C138.005 28.56 138.805 29.168 139.701 29.616C140.629 30.032 141.605 30.24 142.629 30.24C143.269 30.24 143.909 30.16 144.549 30C145.189 29.808 145.765 29.552 146.277 29.232C146.821 28.912 147.285 28.544 147.669 28.128C148.085 27.712 148.389 27.264 148.581 26.784L153.765 28.32C152.933 30.208 151.541 31.76 149.589 32.976C147.637 34.16 145.333 34.752 142.677 34.752C140.725 34.752 138.949 34.4 137.349 33.696C135.749 32.992 134.373 32.048 133.221 30.864C132.101 29.648 131.221 28.256 130.581 26.688C129.973 25.12 129.669 23.456 129.669 21.696ZM171.081 32.976C170.409 33.296 169.481 33.664 168.297 34.08C167.113 34.464 165.849 34.656 164.505 34.656C163.673 34.656 162.889 34.544 162.153 34.32C161.417 34.096 160.761 33.76 160.185 33.312C159.641 32.864 159.209 32.288 158.889 31.584C158.569 30.848 158.409 29.968 158.409 28.944V13.248H155.097V9.16797H158.409V0.91197H163.689V9.16797H169.161V13.248H163.689V27.264C163.753 28.16 164.025 28.816 164.505 29.232C165.017 29.616 165.641 29.808 166.377 29.808C167.113 29.808 167.817 29.68 168.489 29.424C169.161 29.168 169.657 28.96 169.977 28.8L171.081 32.976ZM199.477 29.664C201.269 29.664 202.757 29.312 203.941 28.608C205.125 27.904 206.069 26.992 206.773 25.872C207.509 24.72 208.021 23.424 208.309 21.984C208.629 20.512 208.789 19.008 208.789 17.472V0.191971H214.213V17.472C214.213 19.808 213.941 22.016 213.397 24.096C212.853 26.144 211.989 27.952 210.805 29.52C209.621 31.056 208.085 32.272 206.197 33.168C204.341 34.064 202.101 34.512 199.477 34.512C196.757 34.512 194.453 34.048 192.565 33.12C190.709 32.16 189.205 30.896 188.053 29.328C186.901 27.728 186.069 25.904 185.557 23.856C185.045 21.808 184.789 19.68 184.789 17.472V0.191971H190.165V17.472C190.165 19.04 190.309 20.56 190.597 22.032C190.917 23.472 191.429 24.768 192.133 25.92C192.869 27.04 193.829 27.952 195.013 28.656C196.229 29.328 197.717 29.664 199.477 29.664ZM228.249 34.752C226.233 34.752 224.217 34.432 222.201 33.792C220.217 33.12 218.505 32.176 217.065 30.96L219.177 27.6C220.681 28.688 222.169 29.52 223.641 30.096C225.113 30.64 226.617 30.912 228.153 30.912C229.721 30.912 230.953 30.608 231.849 30C232.777 29.392 233.241 28.528 233.241 27.408C233.241 26.352 232.729 25.584 231.705 25.104C230.681 24.624 229.081 24.096 226.905 23.52C225.337 23.104 223.993 22.704 222.873 22.32C221.753 21.936 220.841 21.488 220.137 20.976C219.433 20.464 218.921 19.872 218.601 19.2C218.281 18.528 218.121 17.712 218.121 16.752C218.121 15.472 218.361 14.336 218.841 13.344C219.353 12.352 220.041 11.52 220.905 10.848C221.801 10.144 222.841 9.61597 224.025 9.26397C225.209 8.91197 226.489 8.73597 227.865 8.73597C229.753 8.73597 231.513 9.02397 233.145 9.59997C234.777 10.176 236.233 11.008 237.513 12.096L235.257 15.264C232.921 13.408 230.441 12.48 227.817 12.48C226.473 12.48 225.337 12.768 224.409 13.344C223.513 13.888 223.065 14.768 223.065 15.984C223.065 16.496 223.161 16.928 223.353 17.28C223.545 17.632 223.849 17.936 224.265 18.192C224.713 18.448 225.273 18.688 225.945 18.912C226.649 19.104 227.513 19.328 228.537 19.584C230.233 20 231.689 20.416 232.905 20.832C234.153 21.248 235.177 21.744 235.977 22.32C236.777 22.864 237.369 23.52 237.753 24.288C238.137 25.024 238.329 25.92 238.329 26.976C238.329 29.376 237.417 31.28 235.593 32.688C233.801 34.064 231.353 34.752 228.249 34.752Z" fill="#141219"/>
</svg>
