<svg width="533" height="47" viewBox="0 0 533 47" fill="none" xmlns="http://www.w3.org/2000/svg">
<path d="M1.39999 14.7V0.299951H2.86999V13.29H9.70999V14.7H1.39999ZM15.9248 15C14.8515 15 13.9348 14.7566 13.1748 14.27C12.4148 13.7833 11.8315 13.11 11.4248 12.25C11.0182 11.39 10.8148 10.4033 10.8148 9.28995C10.8148 8.15662 11.0215 7.16328 11.4348 6.30995C11.8482 5.45662 12.4348 4.79328 13.1948 4.31995C13.9615 3.83995 14.8715 3.59995 15.9248 3.59995C17.0048 3.59995 17.9248 3.84328 18.6848 4.32995C19.4515 4.80995 20.0348 5.47995 20.4348 6.33995C20.8415 7.19328 21.0448 8.17662 21.0448 9.28995C21.0448 10.4233 20.8415 11.42 20.4348 12.28C20.0282 13.1333 19.4415 13.8 18.6748 14.28C17.9082 14.76 16.9915 15 15.9248 15ZM15.9248 13.59C17.1248 13.59 18.0182 13.1933 18.6048 12.4C19.1915 11.6 19.4848 10.5633 19.4848 9.28995C19.4848 7.98328 19.1882 6.94328 18.5948 6.16995C18.0082 5.39662 17.1182 5.00995 15.9248 5.00995C15.1182 5.00995 14.4515 5.19328 13.9248 5.55995C13.4048 5.91995 13.0148 6.42328 12.7548 7.06995C12.5015 7.70995 12.3748 8.44995 12.3748 9.28995C12.3748 10.59 12.6748 11.6333 13.2748 12.42C13.8748 13.2 14.7582 13.59 15.9248 13.59ZM23.2508 14.7V3.89995H24.5708V6.49995L24.3108 6.15995C24.4308 5.83995 24.5874 5.54662 24.7808 5.27995C24.9741 5.00662 25.1841 4.78328 25.4108 4.60995C25.6908 4.36328 26.0174 4.17662 26.3908 4.04995C26.7641 3.91662 27.1408 3.83995 27.5208 3.81995C27.9008 3.79328 28.2474 3.81995 28.5608 3.89995V5.27995C28.1674 5.17995 27.7374 5.15662 27.2708 5.20995C26.8041 5.26328 26.3741 5.44995 25.9808 5.76995C25.6208 6.04995 25.3508 6.38662 25.1708 6.77995C24.9908 7.16662 24.8708 7.57995 24.8108 8.01995C24.7508 8.45328 24.7208 8.88328 24.7208 9.30995V14.7H23.2508ZM34.8325 15C33.7792 15 32.8658 14.7666 32.0925 14.3C31.3258 13.8333 30.7292 13.1766 30.3025 12.33C29.8758 11.4833 29.6625 10.49 29.6625 9.34995C29.6625 8.16995 29.8725 7.14995 30.2925 6.28995C30.7125 5.42995 31.3025 4.76662 32.0625 4.29995C32.8292 3.83328 33.7325 3.59995 34.7725 3.59995C35.8392 3.59995 36.7492 3.84662 37.5025 4.33995C38.2558 4.82662 38.8258 5.52662 39.2125 6.43995C39.5992 7.35328 39.7758 8.44328 39.7425 9.70995H38.2425V9.18995C38.2158 7.78995 37.9125 6.73328 37.3325 6.01995C36.7592 5.30662 35.9192 4.94995 34.8125 4.94995C33.6525 4.94995 32.7625 5.32662 32.1425 6.07995C31.5292 6.83328 31.2225 7.90662 31.2225 9.29995C31.2225 10.66 31.5292 11.7166 32.1425 12.47C32.7625 13.2166 33.6392 13.59 34.7725 13.59C35.5458 13.59 36.2192 13.4133 36.7925 13.06C37.3725 12.7 37.8292 12.1833 38.1625 11.51L39.5325 12.04C39.1058 12.98 38.4758 13.71 37.6425 14.23C36.8158 14.7433 35.8792 15 34.8325 15ZM30.7025 9.70995V8.47995H38.9525V9.70995H30.7025ZM54.5487 14.7L54.5587 7.60995C54.5587 6.77662 54.3254 6.12328 53.8587 5.64995C53.3987 5.16995 52.8121 4.92995 52.0987 4.92995C51.6921 4.92995 51.2954 5.02328 50.9087 5.20995C50.5221 5.39662 50.2021 5.69662 49.9487 6.10995C49.7021 6.52328 49.5787 7.06328 49.5787 7.72995L48.7087 7.47995C48.6887 6.70662 48.8387 6.02995 49.1587 5.44995C49.4854 4.86995 49.9321 4.41995 50.4987 4.09995C51.0721 3.77328 51.7187 3.60995 52.4387 3.60995C53.5254 3.60995 54.3954 3.94662 55.0487 4.61995C55.7021 5.28662 56.0287 6.18995 56.0287 7.32995L56.0187 14.7H54.5487ZM41.6587 14.7V3.89995H42.9787V6.55995H43.1387V14.7H41.6587ZM48.1187 14.7L48.1287 7.70995C48.1287 6.84995 47.8987 6.17328 47.4387 5.67995C46.9854 5.17995 46.3854 4.92995 45.6387 4.92995C44.8921 4.92995 44.2887 5.18662 43.8287 5.69995C43.3687 6.20662 43.1387 6.88328 43.1387 7.72995L42.2587 7.24995C42.2587 6.55662 42.4221 5.93662 42.7487 5.38995C43.0754 4.83662 43.5221 4.40328 44.0887 4.08995C44.6554 3.76995 45.2987 3.60995 46.0187 3.60995C46.7054 3.60995 47.3154 3.75662 47.8487 4.04995C48.3887 4.34328 48.8121 4.76995 49.1187 5.32995C49.4254 5.88995 49.5787 6.56995 49.5787 7.36995L49.5687 14.7H48.1187ZM62.8258 14.7V0.299951H64.2958V14.7H62.8258ZM72.1437 15C71.1504 15 70.3104 14.75 69.6237 14.25C68.9371 13.7433 68.4171 13.06 68.0637 12.2C67.7104 11.3333 67.5337 10.3633 67.5337 9.28995C67.5337 8.19662 67.7104 7.22328 68.0637 6.36995C68.4237 5.50995 68.9504 4.83328 69.6437 4.33995C70.3371 3.84662 71.1904 3.59995 72.2037 3.59995C73.1904 3.59995 74.0371 3.84995 74.7437 4.34995C75.4504 4.84995 75.9904 5.52995 76.3637 6.38995C76.7437 7.24995 76.9337 8.21662 76.9337 9.28995C76.9337 10.37 76.7437 11.34 76.3637 12.2C75.9837 13.06 75.4371 13.7433 74.7237 14.25C74.0104 14.75 73.1504 15 72.1437 15ZM67.2837 19.5V3.89995H68.6037V12.03H68.7637V19.5H67.2837ZM71.9937 13.63C72.7471 13.63 73.3737 13.44 73.8737 13.06C74.3737 12.68 74.7471 12.1633 74.9937 11.51C75.2471 10.85 75.3737 10.11 75.3737 9.28995C75.3737 8.47662 75.2504 7.74328 75.0037 7.08995C74.7571 6.43662 74.3804 5.91995 73.8737 5.53995C73.3737 5.15995 72.7371 4.96995 71.9637 4.96995C71.2104 4.96995 70.5837 5.15328 70.0837 5.51995C69.5904 5.88662 69.2204 6.39662 68.9737 7.04995C68.7271 7.69662 68.6037 8.44328 68.6037 9.28995C68.6037 10.1233 68.7271 10.87 68.9737 11.53C69.2204 12.1833 69.5937 12.6966 70.0937 13.07C70.5937 13.4433 71.2271 13.63 71.9937 13.63ZM83.062 14.99C81.7954 14.99 80.752 14.7166 79.932 14.17C79.1187 13.6233 78.6187 12.8633 78.432 11.89L79.932 11.64C80.092 12.2533 80.4554 12.7433 81.022 13.11C81.5954 13.47 82.302 13.65 83.142 13.65C83.962 13.65 84.6087 13.48 85.082 13.14C85.5554 12.7933 85.792 12.3233 85.792 11.73C85.792 11.3966 85.7154 11.1266 85.562 10.92C85.4154 10.7066 85.112 10.51 84.652 10.33C84.192 10.15 83.5054 9.93662 82.592 9.68995C81.612 9.42328 80.8454 9.15662 80.292 8.88995C79.7387 8.62328 79.3454 8.31662 79.112 7.96995C78.8787 7.61662 78.762 7.18662 78.762 6.67995C78.762 6.06662 78.9354 5.52995 79.282 5.06995C79.6287 4.60328 80.1087 4.24328 80.722 3.98995C81.3354 3.72995 82.0487 3.59995 82.862 3.59995C83.6754 3.59995 84.402 3.73328 85.042 3.99995C85.6887 4.25995 86.2087 4.62662 86.602 5.09995C86.9954 5.57328 87.2287 6.12328 87.302 6.74995L85.802 7.01995C85.702 6.38662 85.3854 5.88662 84.852 5.51995C84.3254 5.14662 83.6554 4.95328 82.842 4.93995C82.0754 4.91995 81.452 5.06662 80.972 5.37995C80.492 5.68662 80.252 6.09662 80.252 6.60995C80.252 6.89662 80.3387 7.14328 80.512 7.34995C80.6854 7.54995 80.9987 7.73995 81.452 7.91995C81.912 8.09995 82.5654 8.29662 83.412 8.50995C84.4054 8.76328 85.1854 9.02995 85.752 9.30995C86.3187 9.58995 86.722 9.91995 86.962 10.3C87.202 10.68 87.322 11.15 87.322 11.71C87.322 12.73 86.942 13.5333 86.182 14.12C85.4287 14.7 84.3887 14.99 83.062 14.99ZM93.6698 14.97C93.0232 14.97 92.4565 14.87 91.9698 14.67C91.4898 14.47 91.0798 14.2 90.7398 13.86C90.4065 13.52 90.1365 13.1333 89.9298 12.7C89.7232 12.26 89.5732 11.7966 89.4798 11.31C89.3865 10.8166 89.3398 10.3266 89.3398 9.83995V3.89995H90.8198V9.40995C90.8198 10.0033 90.8765 10.5533 90.9898 11.06C91.1032 11.5666 91.2832 12.01 91.5298 12.39C91.7832 12.7633 92.1065 13.0533 92.4998 13.26C92.8998 13.4666 93.3832 13.57 93.9498 13.57C94.4698 13.57 94.9265 13.48 95.3198 13.3C95.7198 13.12 96.0532 12.8633 96.3198 12.53C96.5932 12.19 96.7998 11.78 96.9398 11.3C97.0798 10.8133 97.1498 10.2666 97.1498 9.65995L98.1898 9.88995C98.1898 10.9966 97.9965 11.9266 97.6098 12.68C97.2232 13.4333 96.6898 14.0033 96.0098 14.39C95.3298 14.7766 94.5498 14.97 93.6698 14.97ZM97.2998 14.7V12.04H97.1498V3.89995H98.6198V14.7H97.2998ZM114.295 14.7L114.305 7.60995C114.305 6.77662 114.071 6.12328 113.605 5.64995C113.145 5.16995 112.558 4.92995 111.845 4.92995C111.438 4.92995 111.041 5.02328 110.655 5.20995C110.268 5.39662 109.948 5.69662 109.695 6.10995C109.448 6.52328 109.325 7.06328 109.325 7.72995L108.455 7.47995C108.435 6.70662 108.585 6.02995 108.905 5.44995C109.231 4.86995 109.678 4.41995 110.245 4.09995C110.818 3.77328 111.465 3.60995 112.185 3.60995C113.271 3.60995 114.141 3.94662 114.795 4.61995C115.448 5.28662 115.775 6.18995 115.775 7.32995L115.765 14.7H114.295ZM101.405 14.7V3.89995H102.725V6.55995H102.885V14.7H101.405ZM107.865 14.7L107.875 7.70995C107.875 6.84995 107.645 6.17328 107.185 5.67995C106.731 5.17995 106.131 4.92995 105.385 4.92995C104.638 4.92995 104.035 5.18662 103.575 5.69995C103.115 6.20662 102.885 6.88328 102.885 7.72995L102.005 7.24995C102.005 6.55662 102.168 5.93662 102.495 5.38995C102.821 4.83662 103.268 4.40328 103.835 4.08995C104.401 3.76995 105.045 3.60995 105.765 3.60995C106.451 3.60995 107.061 3.75662 107.595 4.04995C108.135 4.34328 108.558 4.76995 108.865 5.32995C109.171 5.88995 109.325 6.56995 109.325 7.36995L109.315 14.7H107.865ZM122.572 1.84995V0.199951H124.042V1.84995H122.572ZM122.572 14.7V3.89995H124.042V14.7H122.572ZM131.07 14.99C129.803 14.99 128.76 14.7166 127.94 14.17C127.126 13.6233 126.626 12.8633 126.44 11.89L127.94 11.64C128.1 12.2533 128.463 12.7433 129.03 13.11C129.603 13.47 130.31 13.65 131.15 13.65C131.97 13.65 132.616 13.48 133.09 13.14C133.563 12.7933 133.8 12.3233 133.8 11.73C133.8 11.3966 133.723 11.1266 133.57 10.92C133.423 10.7066 133.12 10.51 132.66 10.33C132.2 10.15 131.513 9.93662 130.6 9.68995C129.62 9.42328 128.853 9.15662 128.3 8.88995C127.746 8.62328 127.353 8.31662 127.12 7.96995C126.886 7.61662 126.77 7.18662 126.77 6.67995C126.77 6.06662 126.943 5.52995 127.29 5.06995C127.636 4.60328 128.116 4.24328 128.73 3.98995C129.343 3.72995 130.056 3.59995 130.87 3.59995C131.683 3.59995 132.41 3.73328 133.05 3.99995C133.696 4.25995 134.216 4.62662 134.61 5.09995C135.003 5.57328 135.236 6.12328 135.31 6.74995L133.81 7.01995C133.71 6.38662 133.393 5.88662 132.86 5.51995C132.333 5.14662 131.663 4.95328 130.85 4.93995C130.083 4.91995 129.46 5.06662 128.98 5.37995C128.5 5.68662 128.26 6.09662 128.26 6.60995C128.26 6.89662 128.346 7.14328 128.52 7.34995C128.693 7.54995 129.006 7.73995 129.46 7.91995C129.92 8.09995 130.573 8.29662 131.42 8.50995C132.413 8.76328 133.193 9.02995 133.76 9.30995C134.326 9.58995 134.73 9.91995 134.97 10.3C135.21 10.68 135.33 11.15 135.33 11.71C135.33 12.73 134.95 13.5333 134.19 14.12C133.436 14.7 132.396 14.99 131.07 14.99ZM145.582 14.99C144.315 14.99 143.272 14.7166 142.452 14.17C141.638 13.6233 141.138 12.8633 140.952 11.89L142.452 11.64C142.612 12.2533 142.975 12.7433 143.542 13.11C144.115 13.47 144.822 13.65 145.662 13.65C146.482 13.65 147.128 13.48 147.602 13.14C148.075 12.7933 148.312 12.3233 148.312 11.73C148.312 11.3966 148.235 11.1266 148.082 10.92C147.935 10.7066 147.632 10.51 147.172 10.33C146.712 10.15 146.025 9.93662 145.112 9.68995C144.132 9.42328 143.365 9.15662 142.812 8.88995C142.258 8.62328 141.865 8.31662 141.632 7.96995C141.398 7.61662 141.282 7.18662 141.282 6.67995C141.282 6.06662 141.455 5.52995 141.802 5.06995C142.148 4.60328 142.628 4.24328 143.242 3.98995C143.855 3.72995 144.568 3.59995 145.382 3.59995C146.195 3.59995 146.922 3.73328 147.562 3.99995C148.208 4.25995 148.728 4.62662 149.122 5.09995C149.515 5.57328 149.748 6.12328 149.822 6.74995L148.322 7.01995C148.222 6.38662 147.905 5.88662 147.372 5.51995C146.845 5.14662 146.175 4.95328 145.362 4.93995C144.595 4.91995 143.972 5.06662 143.492 5.37995C143.012 5.68662 142.772 6.09662 142.772 6.60995C142.772 6.89662 142.858 7.14328 143.032 7.34995C143.205 7.54995 143.518 7.73995 143.972 7.91995C144.432 8.09995 145.085 8.29662 145.932 8.50995C146.925 8.76328 147.705 9.02995 148.272 9.30995C148.838 9.58995 149.242 9.91995 149.482 10.3C149.722 10.68 149.842 11.15 149.842 11.71C149.842 12.73 149.462 13.5333 148.702 14.12C147.948 14.7 146.908 14.99 145.582 14.99ZM152.259 1.84995V0.199951H153.729V1.84995H152.259ZM152.259 14.7V3.89995H153.729V14.7H152.259ZM169.607 14.7L169.617 7.60995C169.617 6.77662 169.384 6.12328 168.917 5.64995C168.457 5.16995 167.871 4.92995 167.157 4.92995C166.751 4.92995 166.354 5.02328 165.967 5.20995C165.581 5.39662 165.261 5.69662 165.007 6.10995C164.761 6.52328 164.637 7.06328 164.637 7.72995L163.767 7.47995C163.747 6.70662 163.897 6.02995 164.217 5.44995C164.544 4.86995 164.991 4.41995 165.557 4.09995C166.131 3.77328 166.777 3.60995 167.497 3.60995C168.584 3.60995 169.454 3.94662 170.107 4.61995C170.761 5.28662 171.087 6.18995 171.087 7.32995L171.077 14.7H169.607ZM156.717 14.7V3.89995H158.037V6.55995H158.197V14.7H156.717ZM163.177 14.7L163.187 7.70995C163.187 6.84995 162.957 6.17328 162.497 5.67995C162.044 5.17995 161.444 4.92995 160.697 4.92995C159.951 4.92995 159.347 5.18662 158.887 5.69995C158.427 6.20662 158.197 6.88328 158.197 7.72995L157.317 7.24995C157.317 6.55662 157.481 5.93662 157.807 5.38995C158.134 4.83662 158.581 4.40328 159.147 4.08995C159.714 3.76995 160.357 3.60995 161.077 3.60995C161.764 3.60995 162.374 3.75662 162.907 4.04995C163.447 4.34328 163.871 4.76995 164.177 5.32995C164.484 5.88995 164.637 6.56995 164.637 7.36995L164.627 14.7H163.177ZM178.53 15C177.537 15 176.697 14.75 176.01 14.25C175.324 13.7433 174.804 13.06 174.45 12.2C174.097 11.3333 173.92 10.3633 173.92 9.28995C173.92 8.19662 174.097 7.22328 174.45 6.36995C174.81 5.50995 175.337 4.83328 176.03 4.33995C176.724 3.84662 177.577 3.59995 178.59 3.59995C179.577 3.59995 180.424 3.84995 181.13 4.34995C181.837 4.84995 182.377 5.52995 182.75 6.38995C183.13 7.24995 183.32 8.21662 183.32 9.28995C183.32 10.37 183.13 11.34 182.75 12.2C182.37 13.06 181.824 13.7433 181.11 14.25C180.397 14.75 179.537 15 178.53 15ZM173.67 19.5V3.89995H174.99V12.03H175.15V19.5H173.67ZM178.38 13.63C179.134 13.63 179.76 13.44 180.26 13.06C180.76 12.68 181.134 12.1633 181.38 11.51C181.634 10.85 181.76 10.11 181.76 9.28995C181.76 8.47662 181.637 7.74328 181.39 7.08995C181.144 6.43662 180.767 5.91995 180.26 5.53995C179.76 5.15995 179.124 4.96995 178.35 4.96995C177.597 4.96995 176.97 5.15328 176.47 5.51995C175.977 5.88662 175.607 6.39662 175.36 7.04995C175.114 7.69662 174.99 8.44328 174.99 9.28995C174.99 10.1233 175.114 10.87 175.36 11.53C175.607 12.1833 175.98 12.6966 176.48 13.07C176.98 13.4433 177.614 13.63 178.38 13.63ZM185.716 14.7V-4.91142e-05H187.186V14.7H185.716ZM191.724 19.5L193.814 13.83L193.844 15.51L189.114 3.89995H190.674L194.554 13.61H193.914L197.494 3.89995H198.994L193.194 19.5H191.724ZM208.925 15C207.918 15 207.058 14.75 206.345 14.25C205.632 13.7433 205.085 13.06 204.705 12.2C204.325 11.34 204.135 10.37 204.135 9.28995C204.135 8.21662 204.322 7.24995 204.695 6.38995C205.075 5.52995 205.618 4.84995 206.325 4.34995C207.032 3.84995 207.878 3.59995 208.865 3.59995C209.878 3.59995 210.732 3.84662 211.425 4.33995C212.118 4.83328 212.642 5.50995 212.995 6.36995C213.355 7.22328 213.535 8.19662 213.535 9.28995C213.535 10.3633 213.358 11.3333 213.005 12.2C212.652 13.06 212.132 13.7433 211.445 14.25C210.758 14.75 209.918 15 208.925 15ZM209.075 13.63C209.842 13.63 210.475 13.4433 210.975 13.07C211.475 12.6966 211.848 12.1833 212.095 11.53C212.342 10.87 212.465 10.1233 212.465 9.28995C212.465 8.44328 212.342 7.69662 212.095 7.04995C211.848 6.39662 211.475 5.88662 210.975 5.51995C210.482 5.15328 209.858 4.96995 209.105 4.96995C208.332 4.96995 207.692 5.15995 207.185 5.53995C206.678 5.91995 206.302 6.43662 206.055 7.08995C205.815 7.74328 205.695 8.47662 205.695 9.28995C205.695 10.11 205.818 10.85 206.065 11.51C206.318 12.1633 206.695 12.68 207.195 13.06C207.695 13.44 208.322 13.63 209.075 13.63ZM212.465 14.7V6.56995H212.305V0.299951H213.785V14.7H212.465ZM220.721 14.97C220.074 14.97 219.507 14.87 219.021 14.67C218.541 14.47 218.131 14.2 217.791 13.86C217.457 13.52 217.187 13.1333 216.981 12.7C216.774 12.26 216.624 11.7966 216.531 11.31C216.437 10.8166 216.391 10.3266 216.391 9.83995V3.89995H217.871V9.40995C217.871 10.0033 217.927 10.5533 218.041 11.06C218.154 11.5666 218.334 12.01 218.581 12.39C218.834 12.7633 219.157 13.0533 219.551 13.26C219.951 13.4666 220.434 13.57 221.001 13.57C221.521 13.57 221.977 13.48 222.371 13.3C222.771 13.12 223.104 12.8633 223.371 12.53C223.644 12.19 223.851 11.78 223.991 11.3C224.131 10.8133 224.201 10.2666 224.201 9.65995L225.241 9.88995C225.241 10.9966 225.047 11.9266 224.661 12.68C224.274 13.4333 223.741 14.0033 223.061 14.39C222.381 14.7766 221.601 14.97 220.721 14.97ZM224.351 14.7V12.04H224.201V3.89995H225.671V14.7H224.351ZM241.346 14.7L241.356 7.60995C241.356 6.77662 241.122 6.12328 240.656 5.64995C240.196 5.16995 239.609 4.92995 238.896 4.92995C238.489 4.92995 238.092 5.02328 237.706 5.20995C237.319 5.39662 236.999 5.69662 236.746 6.10995C236.499 6.52328 236.376 7.06328 236.376 7.72995L235.506 7.47995C235.486 6.70662 235.636 6.02995 235.956 5.44995C236.282 4.86995 236.729 4.41995 237.296 4.09995C237.869 3.77328 238.516 3.60995 239.236 3.60995C240.322 3.60995 241.192 3.94662 241.846 4.61995C242.499 5.28662 242.826 6.18995 242.826 7.32995L242.816 14.7H241.346ZM228.456 14.7V3.89995H229.776V6.55995H229.936V14.7H228.456ZM234.916 14.7L234.926 7.70995C234.926 6.84995 234.696 6.17328 234.236 5.67995C233.782 5.17995 233.182 4.92995 232.436 4.92995C231.689 4.92995 231.086 5.18662 230.626 5.69995C230.166 6.20662 229.936 6.88328 229.936 7.72995L229.056 7.24995C229.056 6.55662 229.219 5.93662 229.546 5.38995C229.872 4.83662 230.319 4.40328 230.886 4.08995C231.452 3.76995 232.096 3.60995 232.816 3.60995C233.502 3.60995 234.112 3.75662 234.646 4.04995C235.186 4.34328 235.609 4.76995 235.916 5.32995C236.222 5.88995 236.376 6.56995 236.376 7.36995L236.366 14.7H234.916ZM258.299 14.7L258.309 7.60995C258.309 6.77662 258.075 6.12328 257.609 5.64995C257.149 5.16995 256.562 4.92995 255.849 4.92995C255.442 4.92995 255.045 5.02328 254.659 5.20995C254.272 5.39662 253.952 5.69662 253.699 6.10995C253.452 6.52328 253.329 7.06328 253.329 7.72995L252.459 7.47995C252.439 6.70662 252.589 6.02995 252.909 5.44995C253.235 4.86995 253.682 4.41995 254.249 4.09995C254.822 3.77328 255.469 3.60995 256.189 3.60995C257.275 3.60995 258.145 3.94662 258.799 4.61995C259.452 5.28662 259.779 6.18995 259.779 7.32995L259.769 14.7H258.299ZM245.409 14.7V3.89995H246.729V6.55995H246.889V14.7H245.409ZM251.869 14.7L251.879 7.70995C251.879 6.84995 251.649 6.17328 251.189 5.67995C250.735 5.17995 250.135 4.92995 249.389 4.92995C248.642 4.92995 248.039 5.18662 247.579 5.69995C247.119 6.20662 246.889 6.88328 246.889 7.72995L246.009 7.24995C246.009 6.55662 246.172 5.93662 246.499 5.38995C246.825 4.83662 247.272 4.40328 247.839 4.08995C248.405 3.76995 249.049 3.60995 249.769 3.60995C250.455 3.60995 251.065 3.75662 251.599 4.04995C252.139 4.34328 252.562 4.76995 252.869 5.32995C253.175 5.88995 253.329 6.56995 253.329 7.36995L253.319 14.7H251.869ZM263.521 19.5L265.611 13.83L265.641 15.51L260.911 3.89995H262.471L266.351 13.61H265.711L269.291 3.89995H270.791L264.991 19.5H263.521ZM282.412 14.7C281.805 14.8266 281.205 14.8766 280.612 14.85C280.025 14.8233 279.499 14.6966 279.032 14.47C278.572 14.2433 278.222 13.89 277.982 13.41C277.789 13.01 277.682 12.6066 277.662 12.2C277.649 11.7866 277.642 11.3166 277.642 10.79V0.89995H279.102V10.73C279.102 11.1833 279.105 11.5633 279.112 11.87C279.125 12.17 279.195 12.4366 279.322 12.67C279.562 13.1166 279.942 13.3833 280.462 13.47C280.989 13.5566 281.639 13.5366 282.412 13.41V14.7ZM275.332 5.15995V3.89995H282.412V5.15995H275.332ZM288.719 15C287.666 15 286.753 14.7666 285.979 14.3C285.213 13.8333 284.616 13.1766 284.189 12.33C283.763 11.4833 283.549 10.49 283.549 9.34995C283.549 8.16995 283.759 7.14995 284.179 6.28995C284.599 5.42995 285.189 4.76662 285.949 4.29995C286.716 3.83328 287.619 3.59995 288.659 3.59995C289.726 3.59995 290.636 3.84662 291.389 4.33995C292.143 4.82662 292.713 5.52662 293.099 6.43995C293.486 7.35328 293.663 8.44328 293.629 9.70995H292.129V9.18995C292.103 7.78995 291.799 6.73328 291.219 6.01995C290.646 5.30662 289.806 4.94995 288.699 4.94995C287.539 4.94995 286.649 5.32662 286.029 6.07995C285.416 6.83328 285.109 7.90662 285.109 9.29995C285.109 10.66 285.416 11.7166 286.029 12.47C286.649 13.2166 287.526 13.59 288.659 13.59C289.433 13.59 290.106 13.4133 290.679 13.06C291.259 12.7 291.716 12.1833 292.049 11.51L293.419 12.04C292.993 12.98 292.363 13.71 291.529 14.23C290.703 14.7433 289.766 15 288.719 15ZM284.589 9.70995V8.47995H292.839V9.70995H284.589ZM294.258 14.7L298.478 9.23995L294.348 3.89995H296.108L299.338 8.10995L302.538 3.89995H304.298L300.168 9.23995L304.398 14.7H302.628L299.338 10.37L296.028 14.7H294.258ZM311.885 14.7C311.278 14.8266 310.678 14.8766 310.085 14.85C309.498 14.8233 308.971 14.6966 308.505 14.47C308.045 14.2433 307.695 13.89 307.455 13.41C307.261 13.01 307.155 12.6066 307.135 12.2C307.121 11.7866 307.115 11.3166 307.115 10.79V0.89995H308.575V10.73C308.575 11.1833 308.578 11.5633 308.585 11.87C308.598 12.17 308.668 12.4366 308.795 12.67C309.035 13.1166 309.415 13.3833 309.935 13.47C310.461 13.5566 311.111 13.5366 311.885 13.41V14.7ZM304.805 5.15995V3.89995H311.885V5.15995H304.805ZM322.526 15C321.453 15 320.536 14.7566 319.776 14.27C319.016 13.7833 318.433 13.11 318.026 12.25C317.62 11.39 317.416 10.4033 317.416 9.28995C317.416 8.15662 317.623 7.16328 318.036 6.30995C318.45 5.45662 319.036 4.79328 319.796 4.31995C320.563 3.83995 321.473 3.59995 322.526 3.59995C323.606 3.59995 324.526 3.84328 325.286 4.32995C326.053 4.80995 326.636 5.47995 327.036 6.33995C327.443 7.19328 327.646 8.17662 327.646 9.28995C327.646 10.4233 327.443 11.42 327.036 12.28C326.63 13.1333 326.043 13.8 325.276 14.28C324.51 14.76 323.593 15 322.526 15ZM322.526 13.59C323.726 13.59 324.62 13.1933 325.206 12.4C325.793 11.6 326.086 10.5633 326.086 9.28995C326.086 7.98328 325.79 6.94328 325.196 6.16995C324.61 5.39662 323.72 5.00995 322.526 5.00995C321.72 5.00995 321.053 5.19328 320.526 5.55995C320.006 5.91995 319.616 6.42328 319.356 7.06995C319.103 7.70995 318.976 8.44995 318.976 9.28995C318.976 10.59 319.276 11.6333 319.876 12.42C320.476 13.2 321.36 13.59 322.526 13.59ZM330.922 14.7V3.09995C330.922 2.81995 330.936 2.54328 330.962 2.26995C330.996 1.99662 331.059 1.73662 331.152 1.48995C331.246 1.23662 331.392 1.00328 331.592 0.789951C331.812 0.549951 332.052 0.376617 332.312 0.26995C332.572 0.156617 332.842 0.0832841 333.122 0.0499508C333.409 0.0166175 333.689 -4.91142e-05 333.962 -4.91142e-05H335.342V1.23995H334.062C333.502 1.23995 333.082 1.37662 332.802 1.64995C332.529 1.92328 332.392 2.35328 332.392 2.93995V14.7H330.922ZM329.052 5.15995V3.89995H335.342V5.15995H329.052ZM346.826 14.7C346.219 14.8266 345.619 14.8766 345.026 14.85C344.439 14.8233 343.913 14.6966 343.446 14.47C342.986 14.2433 342.636 13.89 342.396 13.41C342.203 13.01 342.096 12.6066 342.076 12.2C342.063 11.7866 342.056 11.3166 342.056 10.79V0.89995H343.516V10.73C343.516 11.1833 343.519 11.5633 343.526 11.87C343.539 12.17 343.609 12.4366 343.736 12.67C343.976 13.1166 344.356 13.3833 344.876 13.47C345.403 13.5566 346.053 13.5366 346.826 13.41V14.7ZM339.746 5.15995V3.89995H346.826V5.15995H339.746ZM356.754 14.7V9.18995C356.754 8.58995 356.697 8.03995 356.584 7.53995C356.471 7.03328 356.287 6.59328 356.034 6.21995C355.787 5.83995 355.464 5.54662 355.064 5.33995C354.671 5.13328 354.191 5.02995 353.624 5.02995C353.104 5.02995 352.644 5.11995 352.244 5.29995C351.851 5.47995 351.517 5.73995 351.244 6.07995C350.977 6.41328 350.774 6.81995 350.634 7.29995C350.494 7.77995 350.424 8.32662 350.424 8.93995L349.384 8.70995C349.384 7.60328 349.577 6.67328 349.964 5.91995C350.351 5.16662 350.884 4.59662 351.564 4.20995C352.244 3.82328 353.024 3.62995 353.904 3.62995C354.551 3.62995 355.114 3.72995 355.594 3.92995C356.081 4.12995 356.491 4.39995 356.824 4.73995C357.164 5.07995 357.437 5.46995 357.644 5.90995C357.851 6.34328 358.001 6.80662 358.094 7.29995C358.187 7.78662 358.234 8.27328 358.234 8.75995V14.7H356.754ZM348.944 14.7V0.299951H350.274V8.42995H350.424V14.7H348.944ZM365.399 15C364.346 15 363.432 14.7666 362.659 14.3C361.892 13.8333 361.296 13.1766 360.869 12.33C360.442 11.4833 360.229 10.49 360.229 9.34995C360.229 8.16995 360.439 7.14995 360.859 6.28995C361.279 5.42995 361.869 4.76662 362.629 4.29995C363.396 3.83328 364.299 3.59995 365.339 3.59995C366.406 3.59995 367.316 3.84662 368.069 4.33995C368.822 4.82662 369.392 5.52662 369.779 6.43995C370.166 7.35328 370.342 8.44328 370.309 9.70995H368.809V9.18995C368.782 7.78995 368.479 6.73328 367.899 6.01995C367.326 5.30662 366.486 4.94995 365.379 4.94995C364.219 4.94995 363.329 5.32662 362.709 6.07995C362.096 6.83328 361.789 7.90662 361.789 9.29995C361.789 10.66 362.096 11.7166 362.709 12.47C363.329 13.2166 364.206 13.59 365.339 13.59C366.112 13.59 366.786 13.4133 367.359 13.06C367.939 12.7 368.396 12.1833 368.729 11.51L370.099 12.04C369.672 12.98 369.042 13.71 368.209 14.23C367.382 14.7433 366.446 15 365.399 15ZM361.269 9.70995V8.47995H369.519V9.70995H361.269ZM381.382 15C380.389 15 379.549 14.75 378.862 14.25C378.175 13.7433 377.655 13.06 377.302 12.2C376.949 11.3333 376.772 10.3633 376.772 9.28995C376.772 8.19662 376.949 7.22328 377.302 6.36995C377.662 5.50995 378.189 4.83328 378.882 4.33995C379.575 3.84662 380.429 3.59995 381.442 3.59995C382.429 3.59995 383.275 3.84995 383.982 4.34995C384.689 4.84995 385.229 5.52995 385.602 6.38995C385.982 7.24995 386.172 8.21662 386.172 9.28995C386.172 10.37 385.982 11.34 385.602 12.2C385.222 13.06 384.675 13.7433 383.962 14.25C383.249 14.75 382.389 15 381.382 15ZM376.522 19.5V3.89995H377.842V12.03H378.002V19.5H376.522ZM381.232 13.63C381.985 13.63 382.612 13.44 383.112 13.06C383.612 12.68 383.985 12.1633 384.232 11.51C384.485 10.85 384.612 10.11 384.612 9.28995C384.612 8.47662 384.489 7.74328 384.242 7.08995C383.995 6.43662 383.619 5.91995 383.112 5.53995C382.612 5.15995 381.975 4.96995 381.202 4.96995C380.449 4.96995 379.822 5.15328 379.322 5.51995C378.829 5.88662 378.459 6.39662 378.212 7.04995C377.965 7.69662 377.842 8.44328 377.842 9.28995C377.842 10.1233 377.965 10.87 378.212 11.53C378.459 12.1833 378.832 12.6966 379.332 13.07C379.832 13.4433 380.465 13.63 381.232 13.63ZM388.368 14.7V3.89995H389.688V6.49995L389.428 6.15995C389.548 5.83995 389.705 5.54662 389.898 5.27995C390.091 5.00662 390.301 4.78328 390.528 4.60995C390.808 4.36328 391.135 4.17662 391.508 4.04995C391.881 3.91662 392.258 3.83995 392.638 3.81995C393.018 3.79328 393.365 3.81995 393.678 3.89995V5.27995C393.285 5.17995 392.855 5.15662 392.388 5.20995C391.921 5.26328 391.491 5.44995 391.098 5.76995C390.738 6.04995 390.468 6.38662 390.288 6.77995C390.108 7.16662 389.988 7.57995 389.928 8.01995C389.868 8.45328 389.838 8.88328 389.838 9.30995V14.7H388.368ZM395.775 1.84995V0.199951H397.245V1.84995H395.775ZM395.775 14.7V3.89995H397.245V14.7H395.775ZM408.043 14.7V9.18995C408.043 8.58995 407.986 8.03995 407.873 7.53995C407.76 7.03328 407.576 6.59328 407.323 6.21995C407.076 5.83995 406.753 5.54662 406.353 5.33995C405.96 5.13328 405.48 5.02995 404.913 5.02995C404.393 5.02995 403.933 5.11995 403.533 5.29995C403.14 5.47995 402.806 5.73995 402.533 6.07995C402.266 6.41328 402.063 6.81995 401.923 7.29995C401.783 7.77995 401.713 8.32662 401.713 8.93995L400.673 8.70995C400.673 7.60328 400.866 6.67328 401.253 5.91995C401.64 5.16662 402.173 4.59662 402.853 4.20995C403.533 3.82328 404.313 3.62995 405.193 3.62995C405.84 3.62995 406.403 3.72995 406.883 3.92995C407.37 4.12995 407.78 4.39995 408.113 4.73995C408.453 5.07995 408.726 5.46995 408.933 5.90995C409.14 6.34328 409.29 6.80662 409.383 7.29995C409.476 7.78662 409.523 8.27328 409.523 8.75995V14.7H408.043ZM400.233 14.7V3.89995H401.563V6.55995H401.713V14.7H400.233ZM417.998 14.7C417.391 14.8266 416.791 14.8766 416.198 14.85C415.611 14.8233 415.085 14.6966 414.618 14.47C414.158 14.2433 413.808 13.89 413.568 13.41C413.375 13.01 413.268 12.6066 413.248 12.2C413.235 11.7866 413.228 11.3166 413.228 10.79V0.89995H414.688V10.73C414.688 11.1833 414.691 11.5633 414.698 11.87C414.711 12.17 414.781 12.4366 414.908 12.67C415.148 13.1166 415.528 13.3833 416.048 13.47C416.575 13.5566 417.225 13.5366 417.998 13.41V14.7ZM410.918 5.15995V3.89995H417.998V5.15995H410.918ZM420.326 1.84995V0.199951H421.796V1.84995H420.326ZM420.326 14.7V3.89995H421.796V14.7H420.326ZM432.594 14.7V9.18995C432.594 8.58995 432.537 8.03995 432.424 7.53995C432.31 7.03328 432.127 6.59328 431.874 6.21995C431.627 5.83995 431.304 5.54662 430.904 5.33995C430.51 5.13328 430.03 5.02995 429.464 5.02995C428.944 5.02995 428.484 5.11995 428.084 5.29995C427.69 5.47995 427.357 5.73995 427.084 6.07995C426.817 6.41328 426.614 6.81995 426.474 7.29995C426.334 7.77995 426.264 8.32662 426.264 8.93995L425.224 8.70995C425.224 7.60328 425.417 6.67328 425.804 5.91995C426.19 5.16662 426.724 4.59662 427.404 4.20995C428.084 3.82328 428.864 3.62995 429.744 3.62995C430.39 3.62995 430.954 3.72995 431.434 3.92995C431.92 4.12995 432.33 4.39995 432.664 4.73995C433.004 5.07995 433.277 5.46995 433.484 5.90995C433.69 6.34328 433.84 6.80662 433.934 7.29995C434.027 7.78662 434.074 8.27328 434.074 8.75995V14.7H432.594ZM424.784 14.7V3.89995H426.114V6.55995H426.264V14.7H424.784ZM440.959 19.8C440.405 19.8 439.859 19.7166 439.319 19.55C438.785 19.39 438.292 19.1333 437.839 18.78C437.385 18.4333 437.005 17.98 436.699 17.42L438.029 16.68C438.329 17.28 438.749 17.71 439.289 17.97C439.835 18.2366 440.392 18.37 440.959 18.37C441.739 18.37 442.369 18.2233 442.849 17.93C443.335 17.6433 443.689 17.2166 443.909 16.65C444.129 16.0833 444.235 15.3766 444.229 14.53V11.65H444.399V3.89995H445.709V14.55C445.709 14.8566 445.699 15.15 445.679 15.43C445.665 15.7166 445.635 15.9966 445.589 16.27C445.462 17.0766 445.199 17.74 444.799 18.26C444.405 18.78 443.885 19.1666 443.239 19.42C442.599 19.6733 441.839 19.8 440.959 19.8ZM440.859 15C439.852 15 438.992 14.75 438.279 14.25C437.565 13.7433 437.019 13.06 436.639 12.2C436.259 11.34 436.069 10.37 436.069 9.28995C436.069 8.21662 436.255 7.24995 436.629 6.38995C437.009 5.52995 437.552 4.84995 438.259 4.34995C438.965 3.84995 439.812 3.59995 440.799 3.59995C441.812 3.59995 442.665 3.84662 443.359 4.33995C444.052 4.83328 444.575 5.50995 444.929 6.36995C445.289 7.22328 445.469 8.19662 445.469 9.28995C445.469 10.3633 445.292 11.3333 444.939 12.2C444.585 13.06 444.065 13.7433 443.379 14.25C442.692 14.75 441.852 15 440.859 15ZM441.009 13.63C441.775 13.63 442.409 13.4433 442.909 13.07C443.409 12.6966 443.782 12.1833 444.029 11.53C444.275 10.87 444.399 10.1233 444.399 9.28995C444.399 8.44328 444.275 7.69662 444.029 7.04995C443.782 6.39662 443.409 5.88662 442.909 5.51995C442.415 5.15328 441.792 4.96995 441.039 4.96995C440.265 4.96995 439.625 5.15995 439.119 5.53995C438.612 5.91995 438.235 6.43662 437.989 7.08995C437.749 7.74328 437.629 8.47662 437.629 9.28995C437.629 10.11 437.752 10.85 437.999 11.51C438.252 12.1633 438.629 12.68 439.129 13.06C439.629 13.44 440.255 13.63 441.009 13.63ZM455.599 15C454.785 15 454.102 14.8533 453.549 14.56C453.002 14.2666 452.592 13.8766 452.319 13.39C452.045 12.9033 451.909 12.3733 451.909 11.8C451.909 11.2133 452.025 10.7133 452.259 10.3C452.499 9.87995 452.822 9.53662 453.229 9.26995C453.642 9.00328 454.119 8.79995 454.659 8.65995C455.205 8.52662 455.809 8.40995 456.469 8.30995C457.135 8.20328 457.785 8.11328 458.419 8.03995C459.059 7.95995 459.619 7.88328 460.099 7.80995L459.579 8.12995C459.599 7.06328 459.392 6.27328 458.959 5.75995C458.525 5.24662 457.772 4.98995 456.699 4.98995C455.959 4.98995 455.332 5.15662 454.819 5.48995C454.312 5.82328 453.955 6.34995 453.749 7.06995L452.319 6.64995C452.565 5.68328 453.062 4.93328 453.809 4.39995C454.555 3.86662 455.525 3.59995 456.719 3.59995C457.705 3.59995 458.542 3.78662 459.229 4.15995C459.922 4.52662 460.412 5.05995 460.699 5.75995C460.832 6.07328 460.919 6.42328 460.959 6.80995C460.999 7.19662 461.019 7.58995 461.019 7.98995V14.7H459.709V11.99L460.089 12.15C459.722 13.0766 459.152 13.7833 458.379 14.27C457.605 14.7566 456.679 15 455.599 15ZM455.769 13.73C456.455 13.73 457.055 13.6066 457.569 13.36C458.082 13.1133 458.495 12.7766 458.809 12.35C459.122 11.9166 459.325 11.43 459.419 10.89C459.499 10.5433 459.542 10.1633 459.549 9.74995C459.555 9.32995 459.559 9.01662 459.559 8.80995L460.119 9.09995C459.619 9.16662 459.075 9.23328 458.489 9.29995C457.909 9.36662 457.335 9.44328 456.769 9.52995C456.209 9.61662 455.702 9.71995 455.249 9.83995C454.942 9.92662 454.645 10.05 454.359 10.21C454.072 10.3633 453.835 10.57 453.649 10.83C453.469 11.09 453.379 11.4133 453.379 11.8C453.379 12.1133 453.455 12.4166 453.609 12.71C453.769 13.0033 454.022 13.2466 454.369 13.44C454.722 13.6333 455.189 13.73 455.769 13.73ZM471.422 14.7V9.18995C471.422 8.58995 471.365 8.03995 471.252 7.53995C471.139 7.03328 470.955 6.59328 470.702 6.21995C470.455 5.83995 470.132 5.54662 469.732 5.33995C469.339 5.13328 468.859 5.02995 468.292 5.02995C467.772 5.02995 467.312 5.11995 466.912 5.29995C466.519 5.47995 466.185 5.73995 465.912 6.07995C465.645 6.41328 465.442 6.81995 465.302 7.29995C465.162 7.77995 465.092 8.32662 465.092 8.93995L464.052 8.70995C464.052 7.60328 464.245 6.67328 464.632 5.91995C465.019 5.16662 465.552 4.59662 466.232 4.20995C466.912 3.82328 467.692 3.62995 468.572 3.62995C469.219 3.62995 469.782 3.72995 470.262 3.92995C470.749 4.12995 471.159 4.39995 471.492 4.73995C471.832 5.07995 472.105 5.46995 472.312 5.90995C472.519 6.34328 472.669 6.80662 472.762 7.29995C472.855 7.78662 472.902 8.27328 472.902 8.75995V14.7H471.422ZM463.612 14.7V3.89995H464.942V6.55995H465.092V14.7H463.612ZM479.628 15C478.622 15 477.762 14.75 477.048 14.25C476.335 13.7433 475.788 13.06 475.408 12.2C475.028 11.34 474.838 10.37 474.838 9.28995C474.838 8.21662 475.025 7.24995 475.398 6.38995C475.778 5.52995 476.322 4.84995 477.028 4.34995C477.735 3.84995 478.582 3.59995 479.568 3.59995C480.582 3.59995 481.435 3.84662 482.128 4.33995C482.822 4.83328 483.345 5.50995 483.698 6.36995C484.058 7.22328 484.238 8.19662 484.238 9.28995C484.238 10.3633 484.062 11.3333 483.708 12.2C483.355 13.06 482.835 13.7433 482.148 14.25C481.462 14.75 480.622 15 479.628 15ZM479.778 13.63C480.545 13.63 481.178 13.4433 481.678 13.07C482.178 12.6966 482.552 12.1833 482.798 11.53C483.045 10.87 483.168 10.1233 483.168 9.28995C483.168 8.44328 483.045 7.69662 482.798 7.04995C482.552 6.39662 482.178 5.88662 481.678 5.51995C481.185 5.15328 480.562 4.96995 479.808 4.96995C479.035 4.96995 478.395 5.15995 477.888 5.53995C477.382 5.91995 477.005 6.43662 476.758 7.08995C476.518 7.74328 476.398 8.47662 476.398 9.28995C476.398 10.11 476.522 10.85 476.768 11.51C477.022 12.1633 477.398 12.68 477.898 13.06C478.398 13.44 479.025 13.63 479.778 13.63ZM483.168 14.7V6.56995H483.008V0.299951H484.488V14.7H483.168ZM7.07999 41.7C6.47332 41.8266 5.87332 41.8766 5.27999 41.85C4.69332 41.8233 4.16665 41.6966 3.69999 41.47C3.23999 41.2433 2.88999 40.89 2.64999 40.41C2.45665 40.01 2.34999 39.6066 2.32999 39.2C2.31665 38.7866 2.30999 38.3166 2.30999 37.79V27.9H3.76999V37.73C3.76999 38.1833 3.77332 38.5633 3.77999 38.87C3.79332 39.17 3.86332 39.4366 3.98999 39.67C4.22999 40.1166 4.60999 40.3833 5.12999 40.47C5.65665 40.5566 6.30665 40.5366 7.07999 40.41V41.7ZM-1.21929e-05 32.16V30.9H7.07999V32.16H-1.21929e-05ZM10.4548 46.5L12.5448 40.83L12.5748 42.51L7.84483 30.9H9.40483L13.2848 40.61H12.6448L16.2248 30.9H17.7248L11.9248 46.5H10.4548ZM24.3117 42C23.3184 42 22.4784 41.75 21.7917 41.25C21.105 40.7433 20.585 40.06 20.2317 39.2C19.8784 38.3333 19.7017 37.3633 19.7017 36.29C19.7017 35.1966 19.8784 34.2233 20.2317 33.37C20.5917 32.51 21.1184 31.8333 21.8117 31.34C22.505 30.8466 23.3584 30.6 24.3717 30.6C25.3584 30.6 26.205 30.85 26.9117 31.35C27.6184 31.85 28.1584 32.53 28.5317 33.39C28.9117 34.25 29.1017 35.2166 29.1017 36.29C29.1017 37.37 28.9117 38.34 28.5317 39.2C28.1517 40.06 27.605 40.7433 26.8917 41.25C26.1784 41.75 25.3184 42 24.3117 42ZM19.4517 46.5V30.9H20.7717V39.03H20.9317V46.5H19.4517ZM24.1617 40.63C24.915 40.63 25.5417 40.44 26.0417 40.06C26.5417 39.68 26.915 39.1633 27.1617 38.51C27.415 37.85 27.5417 37.11 27.5417 36.29C27.5417 35.4766 27.4184 34.7433 27.1717 34.09C26.925 33.4366 26.5484 32.92 26.0417 32.54C25.5417 32.16 24.905 31.97 24.1317 31.97C23.3784 31.97 22.7517 32.1533 22.2517 32.52C21.7584 32.8866 21.3884 33.3966 21.1417 34.05C20.895 34.6966 20.7717 35.4433 20.7717 36.29C20.7717 37.1233 20.895 37.87 21.1417 38.53C21.3884 39.1833 21.7617 39.6966 22.2617 40.07C22.7617 40.4433 23.395 40.63 24.1617 40.63ZM35.8676 42C34.8143 42 33.901 41.7666 33.1276 41.3C32.361 40.8333 31.7643 40.1766 31.3376 39.33C30.911 38.4833 30.6976 37.49 30.6976 36.35C30.6976 35.17 30.9076 34.15 31.3276 33.29C31.7476 32.43 32.3376 31.7666 33.0976 31.3C33.8643 30.8333 34.7676 30.6 35.8076 30.6C36.8743 30.6 37.7843 30.8466 38.5376 31.34C39.291 31.8266 39.861 32.5266 40.2476 33.44C40.6343 34.3533 40.811 35.4433 40.7776 36.71H39.2776V36.19C39.251 34.79 38.9476 33.7333 38.3676 33.02C37.7943 32.3066 36.9543 31.95 35.8476 31.95C34.6876 31.95 33.7976 32.3266 33.1776 33.08C32.5643 33.8333 32.2576 34.9066 32.2576 36.3C32.2576 37.66 32.5643 38.7166 33.1776 39.47C33.7976 40.2166 34.6743 40.59 35.8076 40.59C36.581 40.59 37.2543 40.4133 37.8276 40.06C38.4076 39.7 38.8643 39.1833 39.1976 38.51L40.5676 39.04C40.141 39.98 39.511 40.71 38.6776 41.23C37.851 41.7433 36.9143 42 35.8676 42ZM31.7376 36.71V35.48H39.9876V36.71H31.7376ZM47.0269 41.99C45.7602 41.99 44.7169 41.7166 43.8969 41.17C43.0835 40.6233 42.5835 39.8633 42.3969 38.89L43.8969 38.64C44.0569 39.2533 44.4202 39.7433 44.9869 40.11C45.5602 40.47 46.2669 40.65 47.1069 40.65C47.9269 40.65 48.5735 40.48 49.0469 40.14C49.5202 39.7933 49.7569 39.3233 49.7569 38.73C49.7569 38.3966 49.6802 38.1266 49.5269 37.92C49.3802 37.7066 49.0769 37.51 48.6169 37.33C48.1569 37.15 47.4702 36.9366 46.5569 36.69C45.5769 36.4233 44.8102 36.1566 44.2569 35.89C43.7035 35.6233 43.3102 35.3166 43.0769 34.97C42.8435 34.6166 42.7269 34.1866 42.7269 33.68C42.7269 33.0666 42.9002 32.53 43.2469 32.07C43.5935 31.6033 44.0735 31.2433 44.6869 30.99C45.3002 30.73 46.0135 30.6 46.8269 30.6C47.6402 30.6 48.3669 30.7333 49.0069 31C49.6535 31.26 50.1735 31.6266 50.5669 32.1C50.9602 32.5733 51.1935 33.1233 51.2669 33.75L49.7669 34.02C49.6669 33.3866 49.3502 32.8866 48.8169 32.52C48.2902 32.1466 47.6202 31.9533 46.8069 31.94C46.0402 31.92 45.4169 32.0666 44.9369 32.38C44.4569 32.6866 44.2169 33.0966 44.2169 33.61C44.2169 33.8966 44.3035 34.1433 44.4769 34.35C44.6502 34.55 44.9635 34.74 45.4169 34.92C45.8769 35.1 46.5302 35.2966 47.3769 35.51C48.3702 35.7633 49.1502 36.03 49.7169 36.31C50.2835 36.59 50.6869 36.92 50.9269 37.3C51.1669 37.68 51.2869 38.15 51.2869 38.71C51.2869 39.73 50.9069 40.5333 50.1469 41.12C49.3935 41.7 48.3535 41.99 47.0269 41.99ZM58.0747 42C57.0213 42 56.108 41.7666 55.3347 41.3C54.568 40.8333 53.9713 40.1766 53.5447 39.33C53.118 38.4833 52.9047 37.49 52.9047 36.35C52.9047 35.17 53.1147 34.15 53.5347 33.29C53.9547 32.43 54.5447 31.7666 55.3047 31.3C56.0713 30.8333 56.9747 30.6 58.0147 30.6C59.0813 30.6 59.9913 30.8466 60.7447 31.34C61.498 31.8266 62.068 32.5266 62.4547 33.44C62.8413 34.3533 63.018 35.4433 62.9847 36.71H61.4847V36.19C61.458 34.79 61.1547 33.7333 60.5747 33.02C60.0013 32.3066 59.1613 31.95 58.0547 31.95C56.8947 31.95 56.0047 32.3266 55.3847 33.08C54.7713 33.8333 54.4647 34.9066 54.4647 36.3C54.4647 37.66 54.7713 38.7166 55.3847 39.47C56.0047 40.2166 56.8813 40.59 58.0147 40.59C58.788 40.59 59.4613 40.4133 60.0347 40.06C60.6147 39.7 61.0713 39.1833 61.4047 38.51L62.7747 39.04C62.348 39.98 61.718 40.71 60.8847 41.23C60.058 41.7433 59.1213 42 58.0747 42ZM53.9447 36.71V35.48H62.1947V36.71H53.9447ZM71.0839 41.7C70.4772 41.8266 69.8772 41.8766 69.2839 41.85C68.6972 41.8233 68.1706 41.6966 67.7039 41.47C67.2439 41.2433 66.8939 40.89 66.6539 40.41C66.4606 40.01 66.3539 39.6066 66.3339 39.2C66.3206 38.7866 66.3139 38.3166 66.3139 37.79V27.9H67.7739V37.73C67.7739 38.1833 67.7772 38.5633 67.7839 38.87C67.7972 39.17 67.8672 39.4366 67.9939 39.67C68.2339 40.1166 68.6139 40.3833 69.1339 40.47C69.6606 40.5566 70.3106 40.5366 71.0839 40.41V41.7ZM64.0039 32.16V30.9H71.0839V32.16H64.0039ZM77.8939 41.7C77.2872 41.8266 76.6872 41.8766 76.0939 41.85C75.5072 41.8233 74.9806 41.6966 74.5139 41.47C74.0539 41.2433 73.7039 40.89 73.4639 40.41C73.2706 40.01 73.1639 39.6066 73.1439 39.2C73.1306 38.7866 73.1239 38.3166 73.1239 37.79V27.9H74.5839V37.73C74.5839 38.1833 74.5872 38.5633 74.5939 38.87C74.6072 39.17 74.6772 39.4366 74.8039 39.67C75.0439 40.1166 75.4239 40.3833 75.9439 40.47C76.4706 40.5566 77.1206 40.5366 77.8939 40.41V41.7ZM70.8139 32.16V30.9H77.8939V32.16H70.8139ZM80.2281 28.85V27.2H81.6981V28.85H80.2281ZM80.2281 41.7V30.9H81.6981V41.7H80.2281ZM92.4961 41.7V36.19C92.4961 35.59 92.4394 35.04 92.3261 34.54C92.2127 34.0333 92.0294 33.5933 91.7761 33.22C91.5294 32.84 91.2061 32.5466 90.8061 32.34C90.4127 32.1333 89.9327 32.03 89.3661 32.03C88.8461 32.03 88.3861 32.12 87.9861 32.3C87.5927 32.48 87.2594 32.74 86.9861 33.08C86.7194 33.4133 86.5161 33.82 86.3761 34.3C86.2361 34.78 86.1661 35.3266 86.1661 35.94L85.1261 35.71C85.1261 34.6033 85.3194 33.6733 85.7061 32.92C86.0927 32.1666 86.6261 31.5966 87.3061 31.21C87.9861 30.8233 88.7661 30.63 89.6461 30.63C90.2927 30.63 90.8561 30.73 91.3361 30.93C91.8227 31.13 92.2327 31.4 92.5661 31.74C92.9061 32.08 93.1794 32.47 93.3861 32.91C93.5927 33.3433 93.7427 33.8066 93.8361 34.3C93.9294 34.7866 93.9761 35.2733 93.9761 35.76V41.7H92.4961ZM84.6861 41.7V30.9H86.0161V33.56H86.1661V41.7H84.6861ZM100.861 46.8C100.308 46.8 99.7611 46.7166 99.2211 46.55C98.6877 46.39 98.1944 46.1333 97.7411 45.78C97.2877 45.4333 96.9077 44.98 96.6011 44.42L97.9311 43.68C98.2311 44.28 98.6511 44.71 99.1911 44.97C99.7377 45.2366 100.294 45.37 100.861 45.37C101.641 45.37 102.271 45.2233 102.751 44.93C103.238 44.6433 103.591 44.2166 103.811 43.65C104.031 43.0833 104.138 42.3766 104.131 41.53V38.65H104.301V30.9H105.611V41.55C105.611 41.8566 105.601 42.15 105.581 42.43C105.568 42.7166 105.538 42.9966 105.491 43.27C105.364 44.0766 105.101 44.74 104.701 45.26C104.308 45.78 103.788 46.1666 103.141 46.42C102.501 46.6733 101.741 46.8 100.861 46.8ZM100.761 42C99.7544 42 98.8944 41.75 98.1811 41.25C97.4677 40.7433 96.9211 40.06 96.5411 39.2C96.1611 38.34 95.9711 37.37 95.9711 36.29C95.9711 35.2166 96.1577 34.25 96.5311 33.39C96.9111 32.53 97.4544 31.85 98.1611 31.35C98.8677 30.85 99.7144 30.6 100.701 30.6C101.714 30.6 102.568 30.8466 103.261 31.34C103.954 31.8333 104.478 32.51 104.831 33.37C105.191 34.2233 105.371 35.1966 105.371 36.29C105.371 37.3633 105.194 38.3333 104.841 39.2C104.488 40.06 103.968 40.7433 103.281 41.25C102.594 41.75 101.754 42 100.761 42ZM100.911 40.63C101.678 40.63 102.311 40.4433 102.811 40.07C103.311 39.6966 103.684 39.1833 103.931 38.53C104.178 37.87 104.301 37.1233 104.301 36.29C104.301 35.4433 104.178 34.6966 103.931 34.05C103.684 33.3966 103.311 32.8866 102.811 32.52C102.318 32.1533 101.694 31.97 100.941 31.97C100.168 31.97 99.5277 32.16 99.0211 32.54C98.5144 32.92 98.1377 33.4366 97.8911 34.09C97.6511 34.7433 97.5311 35.4766 97.5311 36.29C97.5311 37.11 97.6544 37.85 97.9011 38.51C98.1544 39.1633 98.5311 39.68 99.0311 40.06C99.5311 40.44 100.158 40.63 100.911 40.63ZM112.611 28.85V27.2H114.081V28.85H112.611ZM112.611 41.7V30.9H114.081V41.7H112.611ZM124.879 41.7V36.19C124.879 35.59 124.822 35.04 124.709 34.54C124.596 34.0333 124.412 33.5933 124.159 33.22C123.912 32.84 123.589 32.5466 123.189 32.34C122.796 32.1333 122.316 32.03 121.749 32.03C121.229 32.03 120.769 32.12 120.369 32.3C119.976 32.48 119.642 32.74 119.369 33.08C119.102 33.4133 118.899 33.82 118.759 34.3C118.619 34.78 118.549 35.3266 118.549 35.94L117.509 35.71C117.509 34.6033 117.702 33.6733 118.089 32.92C118.476 32.1666 119.009 31.5966 119.689 31.21C120.369 30.8233 121.149 30.63 122.029 30.63C122.676 30.63 123.239 30.73 123.719 30.93C124.206 31.13 124.616 31.4 124.949 31.74C125.289 32.08 125.562 32.47 125.769 32.91C125.976 33.3433 126.126 33.8066 126.219 34.3C126.312 34.7866 126.359 35.2733 126.359 35.76V41.7H124.879ZM117.069 41.7V30.9H118.399V33.56H118.549V41.7H117.069ZM133.085 42C132.079 42 131.219 41.75 130.505 41.25C129.792 40.7433 129.245 40.06 128.865 39.2C128.485 38.34 128.295 37.37 128.295 36.29C128.295 35.2166 128.482 34.25 128.855 33.39C129.235 32.53 129.779 31.85 130.485 31.35C131.192 30.85 132.039 30.6 133.025 30.6C134.039 30.6 134.892 30.8466 135.585 31.34C136.279 31.8333 136.802 32.51 137.155 33.37C137.515 34.2233 137.695 35.1966 137.695 36.29C137.695 37.3633 137.519 38.3333 137.165 39.2C136.812 40.06 136.292 40.7433 135.605 41.25C134.919 41.75 134.079 42 133.085 42ZM133.235 40.63C134.002 40.63 134.635 40.4433 135.135 40.07C135.635 39.6966 136.009 39.1833 136.255 38.53C136.502 37.87 136.625 37.1233 136.625 36.29C136.625 35.4433 136.502 34.6966 136.255 34.05C136.009 33.3966 135.635 32.8866 135.135 32.52C134.642 32.1533 134.019 31.97 133.265 31.97C132.492 31.97 131.852 32.16 131.345 32.54C130.839 32.92 130.462 33.4366 130.215 34.09C129.975 34.7433 129.855 35.4766 129.855 36.29C129.855 37.11 129.979 37.85 130.225 38.51C130.479 39.1633 130.855 39.68 131.355 40.06C131.855 40.44 132.482 40.63 133.235 40.63ZM136.625 41.7V33.57H136.465V27.3H137.945V41.7H136.625ZM144.881 41.97C144.234 41.97 143.667 41.87 143.181 41.67C142.701 41.47 142.291 41.2 141.951 40.86C141.617 40.52 141.347 40.1333 141.141 39.7C140.934 39.26 140.784 38.7966 140.691 38.31C140.597 37.8166 140.551 37.3266 140.551 36.84V30.9H142.031V36.41C142.031 37.0033 142.087 37.5533 142.201 38.06C142.314 38.5666 142.494 39.01 142.741 39.39C142.994 39.7633 143.317 40.0533 143.711 40.26C144.111 40.4666 144.594 40.57 145.161 40.57C145.681 40.57 146.137 40.48 146.531 40.3C146.931 40.12 147.264 39.8633 147.531 39.53C147.804 39.19 148.011 38.78 148.151 38.3C148.291 37.8133 148.361 37.2666 148.361 36.66L149.401 36.89C149.401 37.9966 149.207 38.9266 148.821 39.68C148.434 40.4333 147.901 41.0033 147.221 41.39C146.541 41.7766 145.761 41.97 144.881 41.97ZM148.511 41.7V39.04H148.361V30.9H149.831V41.7H148.511ZM156.656 41.99C155.389 41.99 154.346 41.7166 153.526 41.17C152.712 40.6233 152.212 39.8633 152.026 38.89L153.526 38.64C153.686 39.2533 154.049 39.7433 154.616 40.11C155.189 40.47 155.896 40.65 156.736 40.65C157.556 40.65 158.202 40.48 158.676 40.14C159.149 39.7933 159.386 39.3233 159.386 38.73C159.386 38.3966 159.309 38.1266 159.156 37.92C159.009 37.7066 158.706 37.51 158.246 37.33C157.786 37.15 157.099 36.9366 156.186 36.69C155.206 36.4233 154.439 36.1566 153.886 35.89C153.332 35.6233 152.939 35.3166 152.706 34.97C152.472 34.6166 152.356 34.1866 152.356 33.68C152.356 33.0666 152.529 32.53 152.876 32.07C153.222 31.6033 153.702 31.2433 154.316 30.99C154.929 30.73 155.642 30.6 156.456 30.6C157.269 30.6 157.996 30.7333 158.636 31C159.282 31.26 159.802 31.6266 160.196 32.1C160.589 32.5733 160.822 33.1233 160.896 33.75L159.396 34.02C159.296 33.3866 158.979 32.8866 158.446 32.52C157.919 32.1466 157.249 31.9533 156.436 31.94C155.669 31.92 155.046 32.0666 154.566 32.38C154.086 32.6866 153.846 33.0966 153.846 33.61C153.846 33.8966 153.932 34.1433 154.106 34.35C154.279 34.55 154.592 34.74 155.046 34.92C155.506 35.1 156.159 35.2966 157.006 35.51C157.999 35.7633 158.779 36.03 159.346 36.31C159.912 36.59 160.316 36.92 160.556 37.3C160.796 37.68 160.916 38.15 160.916 38.71C160.916 39.73 160.536 40.5333 159.776 41.12C159.022 41.7 157.982 41.99 156.656 41.99ZM169.014 41.7C168.407 41.8266 167.807 41.8766 167.214 41.85C166.627 41.8233 166.1 41.6966 165.634 41.47C165.174 41.2433 164.824 40.89 164.584 40.41C164.39 40.01 164.284 39.6066 164.264 39.2C164.25 38.7866 164.244 38.3166 164.244 37.79V27.9H165.704V37.73C165.704 38.1833 165.707 38.5633 165.714 38.87C165.727 39.17 165.797 39.4366 165.924 39.67C166.164 40.1166 166.544 40.3833 167.064 40.47C167.59 40.5566 168.24 40.5366 169.014 40.41V41.7ZM161.934 32.16V30.9H169.014V32.16H161.934ZM171.141 41.7V30.9H172.461V33.5L172.201 33.16C172.321 32.84 172.478 32.5466 172.671 32.28C172.865 32.0066 173.075 31.7833 173.301 31.61C173.581 31.3633 173.908 31.1766 174.281 31.05C174.655 30.9166 175.031 30.84 175.411 30.82C175.791 30.7933 176.138 30.82 176.451 30.9V32.28C176.058 32.18 175.628 32.1566 175.161 32.21C174.695 32.2633 174.265 32.45 173.871 32.77C173.511 33.05 173.241 33.3866 173.061 33.78C172.881 34.1666 172.761 34.58 172.701 35.02C172.641 35.4533 172.611 35.8833 172.611 36.31V41.7H171.141ZM179.752 46.5L181.842 40.83L181.872 42.51L177.142 30.9H178.702L182.582 40.61H181.942L185.522 30.9H187.022L181.222 46.5H179.752ZM187.437 41.7V39.99H189.147V41.7H187.437ZM196.439 41.7V27.3H197.909V40.29H204.749V41.7H196.439ZM210.964 42C209.891 42 208.974 41.7566 208.214 41.27C207.454 40.7833 206.871 40.11 206.464 39.25C206.057 38.39 205.854 37.4033 205.854 36.29C205.854 35.1566 206.061 34.1633 206.474 33.31C206.887 32.4566 207.474 31.7933 208.234 31.32C209.001 30.84 209.911 30.6 210.964 30.6C212.044 30.6 212.964 30.8433 213.724 31.33C214.491 31.81 215.074 32.48 215.474 33.34C215.881 34.1933 216.084 35.1766 216.084 36.29C216.084 37.4233 215.881 38.42 215.474 39.28C215.067 40.1333 214.481 40.8 213.714 41.28C212.947 41.76 212.031 42 210.964 42ZM210.964 40.59C212.164 40.59 213.057 40.1933 213.644 39.4C214.231 38.6 214.524 37.5633 214.524 36.29C214.524 34.9833 214.227 33.9433 213.634 33.17C213.047 32.3966 212.157 32.01 210.964 32.01C210.157 32.01 209.491 32.1933 208.964 32.56C208.444 32.92 208.054 33.4233 207.794 34.07C207.541 34.71 207.414 35.45 207.414 36.29C207.414 37.59 207.714 38.6333 208.314 39.42C208.914 40.2 209.797 40.59 210.964 40.59ZM218.29 41.7V30.9H219.61V33.5L219.35 33.16C219.47 32.84 219.626 32.5466 219.82 32.28C220.013 32.0066 220.223 31.7833 220.45 31.61C220.73 31.3633 221.056 31.1766 221.43 31.05C221.803 30.9166 222.18 30.84 222.56 30.82C222.94 30.7933 223.286 30.82 223.6 30.9V32.28C223.206 32.18 222.776 32.1566 222.31 32.21C221.843 32.2633 221.413 32.45 221.02 32.77C220.66 33.05 220.39 33.3866 220.21 33.78C220.03 34.1666 219.91 34.58 219.85 35.02C219.79 35.4533 219.76 35.8833 219.76 36.31V41.7H218.29ZM229.872 42C228.818 42 227.905 41.7666 227.132 41.3C226.365 40.8333 225.768 40.1766 225.342 39.33C224.915 38.4833 224.702 37.49 224.702 36.35C224.702 35.17 224.912 34.15 225.332 33.29C225.752 32.43 226.342 31.7666 227.102 31.3C227.868 30.8333 228.772 30.6 229.812 30.6C230.878 30.6 231.788 30.8466 232.542 31.34C233.295 31.8266 233.865 32.5266 234.252 33.44C234.638 34.3533 234.815 35.4433 234.782 36.71H233.282V36.19C233.255 34.79 232.952 33.7333 232.372 33.02C231.798 32.3066 230.958 31.95 229.852 31.95C228.692 31.95 227.802 32.3266 227.182 33.08C226.568 33.8333 226.262 34.9066 226.262 36.3C226.262 37.66 226.568 38.7166 227.182 39.47C227.802 40.2166 228.678 40.59 229.812 40.59C230.585 40.59 231.258 40.4133 231.832 40.06C232.412 39.7 232.868 39.1833 233.202 38.51L234.572 39.04C234.145 39.98 233.515 40.71 232.682 41.23C231.855 41.7433 230.918 42 229.872 42ZM225.742 36.71V35.48H233.992V36.71H225.742ZM249.588 41.7L249.598 34.61C249.598 33.7766 249.364 33.1233 248.898 32.65C248.438 32.17 247.851 31.93 247.138 31.93C246.731 31.93 246.334 32.0233 245.948 32.21C245.561 32.3966 245.241 32.6966 244.988 33.11C244.741 33.5233 244.618 34.0633 244.618 34.73L243.748 34.48C243.728 33.7066 243.878 33.03 244.198 32.45C244.524 31.87 244.971 31.42 245.538 31.1C246.111 30.7733 246.758 30.61 247.478 30.61C248.564 30.61 249.434 30.9466 250.088 31.62C250.741 32.2866 251.068 33.19 251.068 34.33L251.058 41.7H249.588ZM236.698 41.7V30.9H238.018V33.56H238.178V41.7H236.698ZM243.158 41.7L243.168 34.71C243.168 33.85 242.938 33.1733 242.478 32.68C242.024 32.18 241.424 31.93 240.678 31.93C239.931 31.93 239.328 32.1866 238.868 32.7C238.408 33.2066 238.178 33.8833 238.178 34.73L237.298 34.25C237.298 33.5566 237.461 32.9366 237.788 32.39C238.114 31.8366 238.561 31.4033 239.128 31.09C239.694 30.77 240.338 30.61 241.058 30.61C241.744 30.61 242.354 30.7566 242.888 31.05C243.428 31.3433 243.851 31.77 244.158 32.33C244.464 32.89 244.618 33.57 244.618 34.37L244.608 41.7H243.158ZM257.865 41.7V27.3H259.335V41.7H257.865ZM267.183 42C266.189 42 265.349 41.75 264.663 41.25C263.976 40.7433 263.456 40.06 263.103 39.2C262.749 38.3333 262.573 37.3633 262.573 36.29C262.573 35.1966 262.749 34.2233 263.103 33.37C263.463 32.51 263.989 31.8333 264.683 31.34C265.376 30.8466 266.229 30.6 267.243 30.6C268.229 30.6 269.076 30.85 269.783 31.35C270.489 31.85 271.029 32.53 271.403 33.39C271.783 34.25 271.973 35.2166 271.973 36.29C271.973 37.37 271.783 38.34 271.403 39.2C271.023 40.06 270.476 40.7433 269.763 41.25C269.049 41.75 268.189 42 267.183 42ZM262.323 46.5V30.9H263.643V39.03H263.803V46.5H262.323ZM267.033 40.63C267.786 40.63 268.413 40.44 268.913 40.06C269.413 39.68 269.786 39.1633 270.033 38.51C270.286 37.85 270.413 37.11 270.413 36.29C270.413 35.4766 270.289 34.7433 270.043 34.09C269.796 33.4366 269.419 32.92 268.913 32.54C268.413 32.16 267.776 31.97 267.003 31.97C266.249 31.97 265.623 32.1533 265.123 32.52C264.629 32.8866 264.259 33.3966 264.013 34.05C263.766 34.6966 263.643 35.4433 263.643 36.29C263.643 37.1233 263.766 37.87 264.013 38.53C264.259 39.1833 264.633 39.6966 265.133 40.07C265.633 40.4433 266.266 40.63 267.033 40.63ZM278.101 41.99C276.834 41.99 275.791 41.7166 274.971 41.17C274.158 40.6233 273.658 39.8633 273.471 38.89L274.971 38.64C275.131 39.2533 275.494 39.7433 276.061 40.11C276.634 40.47 277.341 40.65 278.181 40.65C279.001 40.65 279.648 40.48 280.121 40.14C280.594 39.7933 280.831 39.3233 280.831 38.73C280.831 38.3966 280.754 38.1266 280.601 37.92C280.454 37.7066 280.151 37.51 279.691 37.33C279.231 37.15 278.544 36.9366 277.631 36.69C276.651 36.4233 275.884 36.1566 275.331 35.89C274.778 35.6233 274.384 35.3166 274.151 34.97C273.918 34.6166 273.801 34.1866 273.801 33.68C273.801 33.0666 273.974 32.53 274.321 32.07C274.668 31.6033 275.148 31.2433 275.761 30.99C276.374 30.73 277.088 30.6 277.901 30.6C278.714 30.6 279.441 30.7333 280.081 31C280.728 31.26 281.248 31.6266 281.641 32.1C282.034 32.5733 282.268 33.1233 282.341 33.75L280.841 34.02C280.741 33.3866 280.424 32.8866 279.891 32.52C279.364 32.1466 278.694 31.9533 277.881 31.94C277.114 31.92 276.491 32.0666 276.011 32.38C275.531 32.6866 275.291 33.0966 275.291 33.61C275.291 33.8966 275.378 34.1433 275.551 34.35C275.724 34.55 276.038 34.74 276.491 34.92C276.951 35.1 277.604 35.2966 278.451 35.51C279.444 35.7633 280.224 36.03 280.791 36.31C281.358 36.59 281.761 36.92 282.001 37.3C282.241 37.68 282.361 38.15 282.361 38.71C282.361 39.73 281.981 40.5333 281.221 41.12C280.468 41.7 279.428 41.99 278.101 41.99ZM288.709 41.97C288.062 41.97 287.496 41.87 287.009 41.67C286.529 41.47 286.119 41.2 285.779 40.86C285.446 40.52 285.176 40.1333 284.969 39.7C284.762 39.26 284.612 38.7966 284.519 38.31C284.426 37.8166 284.379 37.3266 284.379 36.84V30.9H285.859V36.41C285.859 37.0033 285.916 37.5533 286.029 38.06C286.142 38.5666 286.322 39.01 286.569 39.39C286.822 39.7633 287.146 40.0533 287.539 40.26C287.939 40.4666 288.422 40.57 288.989 40.57C289.509 40.57 289.966 40.48 290.359 40.3C290.759 40.12 291.092 39.8633 291.359 39.53C291.632 39.19 291.839 38.78 291.979 38.3C292.119 37.8133 292.189 37.2666 292.189 36.66L293.229 36.89C293.229 37.9966 293.036 38.9266 292.649 39.68C292.262 40.4333 291.729 41.0033 291.049 41.39C290.369 41.7766 289.589 41.97 288.709 41.97ZM292.339 41.7V39.04H292.189V30.9H293.659V41.7H292.339ZM309.334 41.7L309.344 34.61C309.344 33.7766 309.111 33.1233 308.644 32.65C308.184 32.17 307.597 31.93 306.884 31.93C306.477 31.93 306.081 32.0233 305.694 32.21C305.307 32.3966 304.987 32.6966 304.734 33.11C304.487 33.5233 304.364 34.0633 304.364 34.73L303.494 34.48C303.474 33.7066 303.624 33.03 303.944 32.45C304.271 31.87 304.717 31.42 305.284 31.1C305.857 30.7733 306.504 30.61 307.224 30.61C308.311 30.61 309.181 30.9466 309.834 31.62C310.487 32.2866 310.814 33.19 310.814 34.33L310.804 41.7H309.334ZM296.444 41.7V30.9H297.764V33.56H297.924V41.7H296.444ZM302.904 41.7L302.914 34.71C302.914 33.85 302.684 33.1733 302.224 32.68C301.771 32.18 301.171 31.93 300.424 31.93C299.677 31.93 299.074 32.1866 298.614 32.7C298.154 33.2066 297.924 33.8833 297.924 34.73L297.044 34.25C297.044 33.5566 297.207 32.9366 297.534 32.39C297.861 31.8366 298.307 31.4033 298.874 31.09C299.441 30.77 300.084 30.61 300.804 30.61C301.491 30.61 302.101 30.7566 302.634 31.05C303.174 31.3433 303.597 31.77 303.904 32.33C304.211 32.89 304.364 33.57 304.364 34.37L304.354 41.7H302.904ZM325.211 41.7V36.19C325.211 35.59 325.154 35.04 325.041 34.54C324.928 34.0333 324.744 33.5933 324.491 33.22C324.244 32.84 323.921 32.5466 323.521 32.34C323.128 32.1333 322.648 32.03 322.081 32.03C321.561 32.03 321.101 32.12 320.701 32.3C320.308 32.48 319.974 32.74 319.701 33.08C319.434 33.4133 319.231 33.82 319.091 34.3C318.951 34.78 318.881 35.3266 318.881 35.94L317.841 35.71C317.841 34.6033 318.034 33.6733 318.421 32.92C318.808 32.1666 319.341 31.5966 320.021 31.21C320.701 30.8233 321.481 30.63 322.361 30.63C323.008 30.63 323.571 30.73 324.051 30.93C324.538 31.13 324.948 31.4 325.281 31.74C325.621 32.08 325.894 32.47 326.101 32.91C326.308 33.3433 326.458 33.8066 326.551 34.3C326.644 34.7866 326.691 35.2733 326.691 35.76V41.7H325.211ZM317.401 41.7V27.3H318.731V35.43H318.881V41.7H317.401ZM332.376 42C331.563 42 330.879 41.8533 330.326 41.56C329.779 41.2666 329.369 40.8766 329.096 40.39C328.823 39.9033 328.686 39.3733 328.686 38.8C328.686 38.2133 328.803 37.7133 329.036 37.3C329.276 36.88 329.599 36.5366 330.006 36.27C330.419 36.0033 330.896 35.8 331.436 35.66C331.983 35.5266 332.586 35.41 333.246 35.31C333.913 35.2033 334.563 35.1133 335.196 35.04C335.836 34.96 336.396 34.8833 336.876 34.81L336.356 35.13C336.376 34.0633 336.169 33.2733 335.736 32.76C335.303 32.2466 334.549 31.99 333.476 31.99C332.736 31.99 332.109 32.1566 331.596 32.49C331.089 32.8233 330.733 33.35 330.526 34.07L329.096 33.65C329.343 32.6833 329.839 31.9333 330.586 31.4C331.333 30.8666 332.303 30.6 333.496 30.6C334.483 30.6 335.319 30.7866 336.006 31.16C336.699 31.5266 337.189 32.06 337.476 32.76C337.609 33.0733 337.696 33.4233 337.736 33.81C337.776 34.1966 337.796 34.59 337.796 34.99V41.7H336.486V38.99L336.866 39.15C336.499 40.0766 335.929 40.7833 335.156 41.27C334.383 41.7566 333.456 42 332.376 42ZM332.546 40.73C333.233 40.73 333.833 40.6066 334.346 40.36C334.859 40.1133 335.273 39.7766 335.586 39.35C335.899 38.9166 336.103 38.43 336.196 37.89C336.276 37.5433 336.319 37.1633 336.326 36.75C336.333 36.33 336.336 36.0166 336.336 35.81L336.896 36.1C336.396 36.1666 335.853 36.2333 335.266 36.3C334.686 36.3666 334.113 36.4433 333.546 36.53C332.986 36.6166 332.479 36.72 332.026 36.84C331.719 36.9266 331.423 37.05 331.136 37.21C330.849 37.3633 330.613 37.57 330.426 37.83C330.246 38.09 330.156 38.4133 330.156 38.8C330.156 39.1133 330.233 39.4166 330.386 39.71C330.546 40.0033 330.799 40.2466 331.146 40.44C331.499 40.6333 331.966 40.73 332.546 40.73ZM344.429 41.99C343.163 41.99 342.119 41.7166 341.299 41.17C340.486 40.6233 339.986 39.8633 339.799 38.89L341.299 38.64C341.459 39.2533 341.823 39.7433 342.389 40.11C342.963 40.47 343.669 40.65 344.509 40.65C345.329 40.65 345.976 40.48 346.449 40.14C346.923 39.7933 347.159 39.3233 347.159 38.73C347.159 38.3966 347.083 38.1266 346.929 37.92C346.783 37.7066 346.479 37.51 346.019 37.33C345.559 37.15 344.873 36.9366 343.959 36.69C342.979 36.4233 342.213 36.1566 341.659 35.89C341.106 35.6233 340.713 35.3166 340.479 34.97C340.246 34.6166 340.129 34.1866 340.129 33.68C340.129 33.0666 340.303 32.53 340.649 32.07C340.996 31.6033 341.476 31.2433 342.089 30.99C342.703 30.73 343.416 30.6 344.229 30.6C345.043 30.6 345.769 30.7333 346.409 31C347.056 31.26 347.576 31.6266 347.969 32.1C348.363 32.5733 348.596 33.1233 348.669 33.75L347.169 34.02C347.069 33.3866 346.753 32.8866 346.219 32.52C345.693 32.1466 345.023 31.9533 344.209 31.94C343.443 31.92 342.819 32.0666 342.339 32.38C341.859 32.6866 341.619 33.0966 341.619 33.61C341.619 33.8966 341.706 34.1433 341.879 34.35C342.053 34.55 342.366 34.74 342.819 34.92C343.279 35.1 343.933 35.2966 344.779 35.51C345.773 35.7633 346.553 36.03 347.119 36.31C347.686 36.59 348.089 36.92 348.329 37.3C348.569 37.68 348.689 38.15 348.689 38.71C348.689 39.73 348.309 40.5333 347.549 41.12C346.796 41.7 345.756 41.99 344.429 41.99ZM359.761 42C358.768 42 357.928 41.75 357.241 41.25C356.554 40.7433 356.034 40.06 355.681 39.2C355.328 38.3333 355.151 37.3633 355.151 36.29C355.151 35.1966 355.328 34.2233 355.681 33.37C356.041 32.51 356.568 31.8333 357.261 31.34C357.954 30.8466 358.808 30.6 359.821 30.6C360.808 30.6 361.654 30.85 362.361 31.35C363.068 31.85 363.608 32.53 363.981 33.39C364.361 34.25 364.551 35.2166 364.551 36.29C364.551 37.37 364.361 38.34 363.981 39.2C363.601 40.06 363.054 40.7433 362.341 41.25C361.628 41.75 360.768 42 359.761 42ZM354.901 41.7V27.3H356.381V33.57H356.221V41.7H354.901ZM359.611 40.63C360.364 40.63 360.991 40.44 361.491 40.06C361.991 39.68 362.364 39.1633 362.611 38.51C362.864 37.85 362.991 37.11 362.991 36.29C362.991 35.4766 362.868 34.7433 362.621 34.09C362.374 33.4366 361.998 32.92 361.491 32.54C360.991 32.16 360.354 31.97 359.581 31.97C358.828 31.97 358.201 32.1533 357.701 32.52C357.208 32.8866 356.838 33.3966 356.591 34.05C356.344 34.6966 356.221 35.4433 356.221 36.29C356.221 37.1233 356.344 37.87 356.591 38.53C356.838 39.1833 357.211 39.6966 357.711 40.07C358.211 40.4433 358.844 40.63 359.611 40.63ZM371.317 42C370.264 42 369.35 41.7666 368.577 41.3C367.81 40.8333 367.214 40.1766 366.787 39.33C366.36 38.4833 366.147 37.49 366.147 36.35C366.147 35.17 366.357 34.15 366.777 33.29C367.197 32.43 367.787 31.7666 368.547 31.3C369.314 30.8333 370.217 30.6 371.257 30.6C372.324 30.6 373.234 30.8466 373.987 31.34C374.74 31.8266 375.31 32.5266 375.697 33.44C376.084 34.3533 376.26 35.4433 376.227 36.71H374.727V36.19C374.7 34.79 374.397 33.7333 373.817 33.02C373.244 32.3066 372.404 31.95 371.297 31.95C370.137 31.95 369.247 32.3266 368.627 33.08C368.014 33.8333 367.707 34.9066 367.707 36.3C367.707 37.66 368.014 38.7166 368.627 39.47C369.247 40.2166 370.124 40.59 371.257 40.59C372.03 40.59 372.704 40.4133 373.277 40.06C373.857 39.7 374.314 39.1833 374.647 38.51L376.017 39.04C375.59 39.98 374.96 40.71 374.127 41.23C373.3 41.7433 372.364 42 371.317 42ZM367.187 36.71V35.48H375.437V36.71H367.187ZM383.016 42C381.963 42 381.049 41.7666 380.276 41.3C379.509 40.8333 378.913 40.1766 378.486 39.33C378.059 38.4833 377.846 37.49 377.846 36.35C377.846 35.17 378.056 34.15 378.476 33.29C378.896 32.43 379.486 31.7666 380.246 31.3C381.013 30.8333 381.916 30.6 382.956 30.6C384.023 30.6 384.933 30.8466 385.686 31.34C386.439 31.8266 387.009 32.5266 387.396 33.44C387.783 34.3533 387.959 35.4433 387.926 36.71H386.426V36.19C386.399 34.79 386.096 33.7333 385.516 33.02C384.943 32.3066 384.103 31.95 382.996 31.95C381.836 31.95 380.946 32.3266 380.326 33.08C379.713 33.8333 379.406 34.9066 379.406 36.3C379.406 37.66 379.713 38.7166 380.326 39.47C380.946 40.2166 381.823 40.59 382.956 40.59C383.729 40.59 384.403 40.4133 384.976 40.06C385.556 39.7 386.013 39.1833 386.346 38.51L387.716 39.04C387.289 39.98 386.659 40.71 385.826 41.23C384.999 41.7433 384.063 42 383.016 42ZM378.886 36.71V35.48H387.136V36.71H378.886ZM397.652 41.7V36.19C397.652 35.59 397.596 35.04 397.482 34.54C397.369 34.0333 397.186 33.5933 396.932 33.22C396.686 32.84 396.362 32.5466 395.962 32.34C395.569 32.1333 395.089 32.03 394.522 32.03C394.002 32.03 393.542 32.12 393.142 32.3C392.749 32.48 392.416 32.74 392.142 33.08C391.876 33.4133 391.672 33.82 391.532 34.3C391.392 34.78 391.322 35.3266 391.322 35.94L390.282 35.71C390.282 34.6033 390.476 33.6733 390.862 32.92C391.249 32.1666 391.782 31.5966 392.462 31.21C393.142 30.8233 393.922 30.63 394.802 30.63C395.449 30.63 396.012 30.73 396.492 30.93C396.979 31.13 397.389 31.4 397.722 31.74C398.062 32.08 398.336 32.47 398.542 32.91C398.749 33.3433 398.899 33.8066 398.992 34.3C399.086 34.7866 399.132 35.2733 399.132 35.76V41.7H397.652ZM389.842 41.7V30.9H391.172V33.56H391.322V41.7H389.842ZM411.611 41.7C411.005 41.8266 410.405 41.8766 409.811 41.85C409.225 41.8233 408.698 41.6966 408.231 41.47C407.771 41.2433 407.421 40.89 407.181 40.41C406.988 40.01 406.881 39.6066 406.861 39.2C406.848 38.7866 406.841 38.3166 406.841 37.79V27.9H408.301V37.73C408.301 38.1833 408.305 38.5633 408.311 38.87C408.325 39.17 408.395 39.4366 408.521 39.67C408.761 40.1166 409.141 40.3833 409.661 40.47C410.188 40.5566 410.838 40.5366 411.611 40.41V41.7ZM404.531 32.16V30.9H411.611V32.16H404.531ZM421.539 41.7V36.19C421.539 35.59 421.482 35.04 421.369 34.54C421.256 34.0333 421.072 33.5933 420.819 33.22C420.572 32.84 420.249 32.5466 419.849 32.34C419.456 32.1333 418.976 32.03 418.409 32.03C417.889 32.03 417.429 32.12 417.029 32.3C416.636 32.48 416.302 32.74 416.029 33.08C415.762 33.4133 415.559 33.82 415.419 34.3C415.279 34.78 415.209 35.3266 415.209 35.94L414.169 35.71C414.169 34.6033 414.362 33.6733 414.749 32.92C415.136 32.1666 415.669 31.5966 416.349 31.21C417.029 30.8233 417.809 30.63 418.689 30.63C419.336 30.63 419.899 30.73 420.379 30.93C420.866 31.13 421.276 31.4 421.609 31.74C421.949 32.08 422.222 32.47 422.429 32.91C422.636 33.3433 422.786 33.8066 422.879 34.3C422.972 34.7866 423.019 35.2733 423.019 35.76V41.7H421.539ZM413.729 41.7V27.3H415.059V35.43H415.209V41.7H413.729ZM430.184 42C429.131 42 428.217 41.7666 427.444 41.3C426.677 40.8333 426.081 40.1766 425.654 39.33C425.227 38.4833 425.014 37.49 425.014 36.35C425.014 35.17 425.224 34.15 425.644 33.29C426.064 32.43 426.654 31.7666 427.414 31.3C428.181 30.8333 429.084 30.6 430.124 30.6C431.191 30.6 432.101 30.8466 432.854 31.34C433.607 31.8266 434.177 32.5266 434.564 33.44C434.951 34.3533 435.127 35.4433 435.094 36.71H433.594V36.19C433.567 34.79 433.264 33.7333 432.684 33.02C432.111 32.3066 431.271 31.95 430.164 31.95C429.004 31.95 428.114 32.3266 427.494 33.08C426.881 33.8333 426.574 34.9066 426.574 36.3C426.574 37.66 426.881 38.7166 427.494 39.47C428.114 40.2166 428.991 40.59 430.124 40.59C430.897 40.59 431.571 40.4133 432.144 40.06C432.724 39.7 433.181 39.1833 433.514 38.51L434.884 39.04C434.457 39.98 433.827 40.71 432.994 41.23C432.167 41.7433 431.231 42 430.184 42ZM426.054 36.71V35.48H434.304V36.71H426.054ZM441.517 28.85V27.2H442.987V28.85H441.517ZM441.517 41.7V30.9H442.987V41.7H441.517ZM453.785 41.7V36.19C453.785 35.59 453.728 35.04 453.615 34.54C453.502 34.0333 453.318 33.5933 453.065 33.22C452.818 32.84 452.495 32.5466 452.095 32.34C451.702 32.1333 451.222 32.03 450.655 32.03C450.135 32.03 449.675 32.12 449.275 32.3C448.882 32.48 448.548 32.74 448.275 33.08C448.008 33.4133 447.805 33.82 447.665 34.3C447.525 34.78 447.455 35.3266 447.455 35.94L446.415 35.71C446.415 34.6033 446.608 33.6733 446.995 32.92C447.382 32.1666 447.915 31.5966 448.595 31.21C449.275 30.8233 450.055 30.63 450.935 30.63C451.582 30.63 452.145 30.73 452.625 30.93C453.112 31.13 453.522 31.4 453.855 31.74C454.195 32.08 454.468 32.47 454.675 32.91C454.882 33.3433 455.032 33.8066 455.125 34.3C455.218 34.7866 455.265 35.2733 455.265 35.76V41.7H453.785ZM445.975 41.7V30.9H447.305V33.56H447.455V41.7H445.975ZM461.992 42C460.985 42 460.125 41.75 459.412 41.25C458.698 40.7433 458.152 40.06 457.772 39.2C457.392 38.34 457.202 37.37 457.202 36.29C457.202 35.2166 457.388 34.25 457.762 33.39C458.142 32.53 458.685 31.85 459.392 31.35C460.098 30.85 460.945 30.6 461.932 30.6C462.945 30.6 463.798 30.8466 464.492 31.34C465.185 31.8333 465.708 32.51 466.062 33.37C466.422 34.2233 466.602 35.1966 466.602 36.29C466.602 37.3633 466.425 38.3333 466.072 39.2C465.718 40.06 465.198 40.7433 464.512 41.25C463.825 41.75 462.985 42 461.992 42ZM462.142 40.63C462.908 40.63 463.542 40.4433 464.042 40.07C464.542 39.6966 464.915 39.1833 465.162 38.53C465.408 37.87 465.532 37.1233 465.532 36.29C465.532 35.4433 465.408 34.6966 465.162 34.05C464.915 33.3966 464.542 32.8866 464.042 32.52C463.548 32.1533 462.925 31.97 462.172 31.97C461.398 31.97 460.758 32.16 460.252 32.54C459.745 32.92 459.368 33.4366 459.122 34.09C458.882 34.7433 458.762 35.4766 458.762 36.29C458.762 37.11 458.885 37.85 459.132 38.51C459.385 39.1633 459.762 39.68 460.262 40.06C460.762 40.44 461.388 40.63 462.142 40.63ZM465.532 41.7V33.57H465.372V27.3H466.852V41.7H465.532ZM473.787 41.97C473.14 41.97 472.574 41.87 472.087 41.67C471.607 41.47 471.197 41.2 470.857 40.86C470.524 40.52 470.254 40.1333 470.047 39.7C469.84 39.26 469.69 38.7966 469.597 38.31C469.504 37.8166 469.457 37.3266 469.457 36.84V30.9H470.937V36.41C470.937 37.0033 470.994 37.5533 471.107 38.06C471.22 38.5666 471.4 39.01 471.647 39.39C471.9 39.7633 472.224 40.0533 472.617 40.26C473.017 40.4666 473.5 40.57 474.067 40.57C474.587 40.57 475.044 40.48 475.437 40.3C475.837 40.12 476.17 39.8633 476.437 39.53C476.71 39.19 476.917 38.78 477.057 38.3C477.197 37.8133 477.267 37.2666 477.267 36.66L478.307 36.89C478.307 37.9966 478.114 38.9266 477.727 39.68C477.34 40.4333 476.807 41.0033 476.127 41.39C475.447 41.7766 474.667 41.97 473.787 41.97ZM477.417 41.7V39.04H477.267V30.9H478.737V41.7H477.417ZM485.562 41.99C484.295 41.99 483.252 41.7166 482.432 41.17C481.619 40.6233 481.119 39.8633 480.932 38.89L482.432 38.64C482.592 39.2533 482.955 39.7433 483.522 40.11C484.095 40.47 484.802 40.65 485.642 40.65C486.462 40.65 487.109 40.48 487.582 40.14C488.055 39.7933 488.292 39.3233 488.292 38.73C488.292 38.3966 488.215 38.1266 488.062 37.92C487.915 37.7066 487.612 37.51 487.152 37.33C486.692 37.15 486.005 36.9366 485.092 36.69C484.112 36.4233 483.345 36.1566 482.792 35.89C482.239 35.6233 481.845 35.3166 481.612 34.97C481.379 34.6166 481.262 34.1866 481.262 33.68C481.262 33.0666 481.435 32.53 481.782 32.07C482.129 31.6033 482.609 31.2433 483.222 30.99C483.835 30.73 484.549 30.6 485.362 30.6C486.175 30.6 486.902 30.7333 487.542 31C488.189 31.26 488.709 31.6266 489.102 32.1C489.495 32.5733 489.729 33.1233 489.802 33.75L488.302 34.02C488.202 33.3866 487.885 32.8866 487.352 32.52C486.825 32.1466 486.155 31.9533 485.342 31.94C484.575 31.92 483.952 32.0666 483.472 32.38C482.992 32.6866 482.752 33.0966 482.752 33.61C482.752 33.8966 482.839 34.1433 483.012 34.35C483.185 34.55 483.499 34.74 483.952 34.92C484.412 35.1 485.065 35.2966 485.912 35.51C486.905 35.7633 487.685 36.03 488.252 36.31C488.819 36.59 489.222 36.92 489.462 37.3C489.702 37.68 489.822 38.15 489.822 38.71C489.822 39.73 489.442 40.5333 488.682 41.12C487.929 41.7 486.889 41.99 485.562 41.99ZM497.92 41.7C497.313 41.8266 496.713 41.8766 496.12 41.85C495.533 41.8233 495.006 41.6966 494.54 41.47C494.08 41.2433 493.73 40.89 493.49 40.41C493.296 40.01 493.19 39.6066 493.17 39.2C493.156 38.7866 493.15 38.3166 493.15 37.79V27.9H494.61V37.73C494.61 38.1833 494.613 38.5633 494.62 38.87C494.633 39.17 494.703 39.4366 494.83 39.67C495.07 40.1166 495.45 40.3833 495.97 40.47C496.496 40.5566 497.146 40.5366 497.92 40.41V41.7ZM490.84 32.16V30.9H497.92V32.16H490.84ZM500.048 41.7V30.9H501.368V33.5L501.108 33.16C501.228 32.84 501.384 32.5466 501.578 32.28C501.771 32.0066 501.981 31.7833 502.208 31.61C502.488 31.3633 502.814 31.1766 503.188 31.05C503.561 30.9166 503.938 30.84 504.318 30.82C504.698 30.7933 505.044 30.82 505.358 30.9V32.28C504.964 32.18 504.534 32.1566 504.068 32.21C503.601 32.2633 503.171 32.45 502.778 32.77C502.418 33.05 502.148 33.3866 501.968 33.78C501.788 34.1666 501.668 34.58 501.608 35.02C501.548 35.4533 501.518 35.8833 501.518 36.31V41.7H500.048ZM508.658 46.5L510.748 40.83L510.778 42.51L506.048 30.9H507.608L511.488 40.61H510.848L514.428 30.9H515.928L510.128 46.5H508.658ZM517.465 30.9V27.3H518.935V30.9H517.465ZM524.371 41.99C523.104 41.99 522.061 41.7166 521.241 41.17C520.427 40.6233 519.927 39.8633 519.741 38.89L521.241 38.64C521.401 39.2533 521.764 39.7433 522.331 40.11C522.904 40.47 523.611 40.65 524.451 40.65C525.271 40.65 525.917 40.48 526.391 40.14C526.864 39.7933 527.101 39.3233 527.101 38.73C527.101 38.3966 527.024 38.1266 526.871 37.92C526.724 37.7066 526.421 37.51 525.961 37.33C525.501 37.15 524.814 36.9366 523.901 36.69C522.921 36.4233 522.154 36.1566 521.601 35.89C521.047 35.6233 520.654 35.3166 520.421 34.97C520.187 34.6166 520.071 34.1866 520.071 33.68C520.071 33.0666 520.244 32.53 520.591 32.07C520.937 31.6033 521.417 31.2433 522.031 30.99C522.644 30.73 523.357 30.6 524.171 30.6C524.984 30.6 525.711 30.7333 526.351 31C526.997 31.26 527.517 31.6266 527.911 32.1C528.304 32.5733 528.537 33.1233 528.611 33.75L527.111 34.02C527.011 33.3866 526.694 32.8866 526.161 32.52C525.634 32.1466 524.964 31.9533 524.151 31.94C523.384 31.92 522.761 32.0666 522.281 32.38C521.801 32.6866 521.561 33.0966 521.561 33.61C521.561 33.8966 521.647 34.1433 521.821 34.35C521.994 34.55 522.307 34.74 522.761 34.92C523.221 35.1 523.874 35.2966 524.721 35.51C525.714 35.7633 526.494 36.03 527.061 36.31C527.627 36.59 528.031 36.92 528.271 37.3C528.511 37.68 528.631 38.15 528.631 38.71C528.631 39.73 528.251 40.5333 527.491 41.12C526.737 41.7 525.697 41.99 524.371 41.99ZM531.128 41.7V39.99H532.838V41.7H531.128Z" fill="url(#paint0_linear_0_3326)"/>
<defs>
<linearGradient id="paint0_linear_0_3326" x1="-0.200012" y1="20.7" x2="535.8" y2="20.7" gradientUnits="userSpaceOnUse">
<stop offset="0.11" stop-color="#CD6028"/>
<stop offset="1" stop-color="#3E6EB4"/>
</linearGradient>
</defs>
</svg>
