<svg width="821" height="105" viewBox="0 0 821 105" fill="none" xmlns="http://www.w3.org/2000/svg">
<path d="M0.48 26L5.928 8.72H10.164L15.612 26H12.636L7.692 10.496H8.34L3.456 26H0.48ZM3.516 22.256V19.556H12.588V22.256H3.516ZM18.0216 26V8.72H20.9136V26H18.0216ZM24.2681 19.568V17.3H31.4681V19.568H24.2681ZM39.7823 26.36C38.5903 26.36 37.5503 26.06 36.6623 25.46C35.7743 24.86 35.0863 24.044 34.5983 23.012C34.1103 21.98 33.8663 20.816 33.8663 19.52C33.8663 18.208 34.1103 17.04 34.5983 16.016C35.0943 14.984 35.7943 14.172 36.6983 13.58C37.6023 12.98 38.6663 12.68 39.8903 12.68C41.1223 12.68 42.1543 12.98 42.9863 13.58C43.8263 14.172 44.4623 14.984 44.8943 16.016C45.3263 17.048 45.5423 18.216 45.5423 19.52C45.5423 20.808 45.3263 21.972 44.8943 23.012C44.4623 24.044 43.8183 24.86 42.9623 25.46C42.1063 26.06 41.0463 26.36 39.7823 26.36ZM40.2263 23.768C41.0023 23.768 41.6263 23.592 42.0983 23.24C42.5783 22.88 42.9263 22.38 43.1423 21.74C43.3663 21.1 43.4783 20.36 43.4783 19.52C43.4783 18.672 43.3663 17.932 43.1423 17.3C42.9263 16.66 42.5863 16.164 42.1223 15.812C41.6583 15.452 41.0583 15.272 40.3223 15.272C39.5463 15.272 38.9063 15.464 38.4023 15.848C37.8983 16.224 37.5263 16.736 37.2863 17.384C37.0463 18.024 36.9263 18.736 36.9263 19.52C36.9263 20.312 37.0423 21.032 37.2743 21.68C37.5143 22.32 37.8783 22.828 38.3663 23.204C38.8543 23.58 39.4743 23.768 40.2263 23.768ZM43.4783 26V16.904H43.1183V8.72H46.0343V26H43.4783ZM49.3988 26V13.04H51.9548V16.196L51.6428 15.788C51.8028 15.356 52.0148 14.964 52.2788 14.612C52.5508 14.252 52.8748 13.956 53.2508 13.724C53.5708 13.508 53.9228 13.34 54.3068 13.22C54.6988 13.092 55.0988 13.016 55.5068 12.992C55.9148 12.96 56.3108 12.976 56.6948 13.04V15.74C56.3108 15.628 55.8668 15.592 55.3628 15.632C54.8668 15.672 54.4188 15.812 54.0188 16.052C53.6188 16.268 53.2908 16.544 53.0348 16.88C52.7868 17.216 52.6028 17.6 52.4828 18.032C52.3628 18.456 52.3028 18.916 52.3028 19.412V26H49.3988ZM59.2247 11.072V8.42H62.1167V11.072H59.2247ZM59.2247 26V13.04H62.1167V26H59.2247ZM69.2153 26L64.5113 13.04H67.4033L70.6673 22.436L73.9193 13.04H76.8233L72.1193 26H69.2153ZM84.4001 26.36C83.0881 26.36 81.9361 26.076 80.9441 25.508C79.9521 24.94 79.1761 24.152 78.6161 23.144C78.0641 22.136 77.7881 20.976 77.7881 19.664C77.7881 18.248 78.0601 17.02 78.6041 15.98C79.1481 14.932 79.9041 14.12 80.8721 13.544C81.8401 12.968 82.9601 12.68 84.2321 12.68C85.5761 12.68 86.7161 12.996 87.6521 13.628C88.5961 14.252 89.2961 15.136 89.7521 16.28C90.2081 17.424 90.3801 18.772 90.2681 20.324H87.4001V19.268C87.3921 17.86 87.1441 16.832 86.6561 16.184C86.1681 15.536 85.4001 15.212 84.3521 15.212C83.1681 15.212 82.2881 15.58 81.7121 16.316C81.1361 17.044 80.8481 18.112 80.8481 19.52C80.8481 20.832 81.1361 21.848 81.7121 22.568C82.2881 23.288 83.1281 23.648 84.2321 23.648C84.9441 23.648 85.5561 23.492 86.0681 23.18C86.5881 22.86 86.9881 22.4 87.2681 21.8L90.1241 22.664C89.6281 23.832 88.8601 24.74 87.8201 25.388C86.7881 26.036 85.6481 26.36 84.4001 26.36ZM79.9361 20.324V18.14H88.8521V20.324H79.9361ZM101.558 26V19.76C101.558 19.352 101.53 18.9 101.474 18.404C101.418 17.908 101.286 17.432 101.078 16.976C100.878 16.512 100.574 16.132 100.166 15.836C99.7661 15.54 99.2221 15.392 98.5341 15.392C98.1661 15.392 97.8021 15.452 97.4421 15.572C97.0821 15.692 96.7541 15.9 96.4581 16.196C96.1701 16.484 95.9381 16.884 95.7621 17.396C95.5861 17.9 95.4981 18.548 95.4981 19.34L93.7821 18.608C93.7821 17.504 93.9941 16.504 94.4181 15.608C94.8501 14.712 95.4821 14 96.3141 13.472C97.1461 12.936 98.1701 12.668 99.3861 12.668C100.346 12.668 101.138 12.828 101.762 13.148C102.386 13.468 102.882 13.876 103.25 14.372C103.618 14.868 103.89 15.396 104.066 15.956C104.242 16.516 104.354 17.048 104.402 17.552C104.458 18.048 104.486 18.452 104.486 18.764V26H101.558ZM92.5701 26V13.04H95.1501V17.06H95.4981V26H92.5701ZM112.662 11.072V8.42H115.554V11.072H112.662ZM112.662 26V13.04H115.554V26H112.662ZM128.113 26V19.76C128.113 19.352 128.085 18.9 128.029 18.404C127.973 17.908 127.841 17.432 127.633 16.976C127.433 16.512 127.129 16.132 126.721 15.836C126.321 15.54 125.777 15.392 125.089 15.392C124.721 15.392 124.357 15.452 123.997 15.572C123.637 15.692 123.309 15.9 123.013 16.196C122.725 16.484 122.493 16.884 122.317 17.396C122.141 17.9 122.053 18.548 122.053 19.34L120.337 18.608C120.337 17.504 120.549 16.504 120.973 15.608C121.405 14.712 122.037 14 122.869 13.472C123.701 12.936 124.725 12.668 125.941 12.668C126.901 12.668 127.693 12.828 128.317 13.148C128.941 13.468 129.437 13.876 129.805 14.372C130.173 14.868 130.445 15.396 130.621 15.956C130.797 16.516 130.909 17.048 130.957 17.552C131.013 18.048 131.041 18.452 131.041 18.764V26H128.113ZM119.125 26V13.04H121.705V17.06H122.053V26H119.125ZM143.136 26V19.76C143.136 19.352 143.108 18.9 143.052 18.404C142.996 17.908 142.864 17.432 142.656 16.976C142.456 16.512 142.152 16.132 141.744 15.836C141.344 15.54 140.8 15.392 140.112 15.392C139.744 15.392 139.38 15.452 139.02 15.572C138.66 15.692 138.332 15.9 138.036 16.196C137.748 16.484 137.516 16.884 137.34 17.396C137.164 17.9 137.076 18.548 137.076 19.34L135.36 18.608C135.36 17.504 135.572 16.504 135.996 15.608C136.428 14.712 137.06 14 137.892 13.472C138.724 12.936 139.748 12.668 140.964 12.668C141.924 12.668 142.716 12.828 143.34 13.148C143.964 13.468 144.46 13.876 144.828 14.372C145.196 14.868 145.468 15.396 145.644 15.956C145.82 16.516 145.932 17.048 145.98 17.552C146.036 18.048 146.064 18.452 146.064 18.764V26H143.136ZM134.148 26V13.04H136.728V17.06H137.076V26H134.148ZM154.709 26.36C153.413 26.36 152.281 26.068 151.313 25.484C150.345 24.9 149.593 24.096 149.057 23.072C148.529 22.04 148.265 20.856 148.265 19.52C148.265 18.16 148.537 16.968 149.081 15.944C149.625 14.92 150.381 14.12 151.349 13.544C152.317 12.968 153.437 12.68 154.709 12.68C156.013 12.68 157.149 12.972 158.117 13.556C159.085 14.14 159.837 14.948 160.373 15.98C160.909 17.004 161.177 18.184 161.177 19.52C161.177 20.864 160.905 22.052 160.361 23.084C159.825 24.108 159.073 24.912 158.105 25.496C157.137 26.072 156.005 26.36 154.709 26.36ZM154.709 23.648C155.861 23.648 156.717 23.264 157.277 22.496C157.837 21.728 158.117 20.736 158.117 19.52C158.117 18.264 157.833 17.264 157.265 16.52C156.697 15.768 155.845 15.392 154.709 15.392C153.933 15.392 153.293 15.568 152.789 15.92C152.293 16.264 151.925 16.748 151.685 17.372C151.445 17.988 151.325 18.704 151.325 19.52C151.325 20.776 151.609 21.78 152.177 22.532C152.753 23.276 153.597 23.648 154.709 23.648ZM166.856 26L162.152 13.04H165.044L168.308 22.436L171.56 13.04H174.464L169.76 26H166.856ZM179.515 26.36C178.579 26.36 177.787 26.184 177.139 25.832C176.491 25.472 175.999 24.996 175.663 24.404C175.335 23.812 175.171 23.16 175.171 22.448C175.171 21.824 175.275 21.264 175.483 20.768C175.691 20.264 176.011 19.832 176.443 19.472C176.875 19.104 177.435 18.804 178.123 18.572C178.643 18.404 179.251 18.252 179.947 18.116C180.651 17.98 181.411 17.856 182.227 17.744C183.051 17.624 183.911 17.496 184.807 17.36L183.775 17.948C183.783 17.052 183.583 16.392 183.175 15.968C182.767 15.544 182.079 15.332 181.111 15.332C180.527 15.332 179.963 15.468 179.419 15.74C178.875 16.012 178.495 16.48 178.279 17.144L175.639 16.316C175.959 15.22 176.567 14.34 177.463 13.676C178.367 13.012 179.583 12.68 181.111 12.68C182.263 12.68 183.275 12.868 184.147 13.244C185.027 13.62 185.679 14.236 186.103 15.092C186.335 15.548 186.475 16.016 186.523 16.496C186.571 16.968 186.595 17.484 186.595 18.044V26H184.063V23.192L184.483 23.648C183.899 24.584 183.215 25.272 182.431 25.712C181.655 26.144 180.683 26.36 179.515 26.36ZM180.091 24.056C180.747 24.056 181.307 23.94 181.771 23.708C182.235 23.476 182.603 23.192 182.875 22.856C183.155 22.52 183.343 22.204 183.439 21.908C183.591 21.54 183.675 21.12 183.691 20.648C183.715 20.168 183.727 19.78 183.727 19.484L184.615 19.748C183.743 19.884 182.995 20.004 182.371 20.108C181.747 20.212 181.211 20.312 180.763 20.408C180.315 20.496 179.919 20.596 179.575 20.708C179.239 20.828 178.955 20.968 178.723 21.128C178.491 21.288 178.311 21.472 178.183 21.68C178.063 21.888 178.003 22.132 178.003 22.412C178.003 22.732 178.083 23.016 178.243 23.264C178.403 23.504 178.635 23.696 178.939 23.84C179.251 23.984 179.635 24.056 180.091 24.056ZM197.315 26C196.459 26.16 195.619 26.228 194.795 26.204C193.979 26.188 193.247 26.04 192.599 25.76C191.951 25.472 191.459 25.02 191.123 24.404C190.827 23.844 190.671 23.272 190.655 22.688C190.639 22.104 190.631 21.444 190.631 20.708V9.44H193.511V20.54C193.511 21.06 193.515 21.516 193.523 21.908C193.539 22.3 193.623 22.62 193.775 22.868C194.063 23.348 194.523 23.616 195.155 23.672C195.787 23.728 196.507 23.696 197.315 23.576V26ZM188.279 15.308V13.04H197.315V15.308H188.279ZM200.342 11.072V8.42H203.234V11.072H200.342ZM200.342 26V13.04H203.234V26H200.342ZM212.552 26.36C211.256 26.36 210.124 26.068 209.156 25.484C208.188 24.9 207.436 24.096 206.9 23.072C206.372 22.04 206.108 20.856 206.108 19.52C206.108 18.16 206.38 16.968 206.924 15.944C207.468 14.92 208.224 14.12 209.192 13.544C210.16 12.968 211.28 12.68 212.552 12.68C213.856 12.68 214.992 12.972 215.96 13.556C216.928 14.14 217.68 14.948 218.216 15.98C218.752 17.004 219.02 18.184 219.02 19.52C219.02 20.864 218.748 22.052 218.204 23.084C217.668 24.108 216.916 24.912 215.948 25.496C214.98 26.072 213.848 26.36 212.552 26.36ZM212.552 23.648C213.704 23.648 214.56 23.264 215.12 22.496C215.68 21.728 215.96 20.736 215.96 19.52C215.96 18.264 215.676 17.264 215.108 16.52C214.54 15.768 213.688 15.392 212.552 15.392C211.776 15.392 211.136 15.568 210.632 15.92C210.136 16.264 209.768 16.748 209.528 17.372C209.288 17.988 209.168 18.704 209.168 19.52C209.168 20.776 209.452 21.78 210.02 22.532C210.596 23.276 211.44 23.648 212.552 23.648ZM230.628 26V19.76C230.628 19.352 230.6 18.9 230.544 18.404C230.488 17.908 230.356 17.432 230.148 16.976C229.948 16.512 229.644 16.132 229.236 15.836C228.836 15.54 228.292 15.392 227.604 15.392C227.236 15.392 226.872 15.452 226.512 15.572C226.152 15.692 225.824 15.9 225.528 16.196C225.24 16.484 225.008 16.884 224.832 17.396C224.656 17.9 224.568 18.548 224.568 19.34L222.852 18.608C222.852 17.504 223.064 16.504 223.488 15.608C223.92 14.712 224.552 14 225.384 13.472C226.216 12.936 227.24 12.668 228.456 12.668C229.416 12.668 230.208 12.828 230.832 13.148C231.456 13.468 231.952 13.876 232.32 14.372C232.688 14.868 232.96 15.396 233.136 15.956C233.312 16.516 233.424 17.048 233.472 17.552C233.528 18.048 233.556 18.452 233.556 18.764V26H230.628ZM221.64 26V13.04H224.22V17.06H224.568V26H221.64ZM242.621 26V12.836C242.621 12.508 242.633 12.148 242.657 11.756C242.681 11.356 242.749 10.96 242.861 10.568C242.973 10.176 243.177 9.82 243.473 9.5C243.841 9.092 244.237 8.812 244.661 8.66C245.093 8.5 245.517 8.412 245.933 8.396C246.349 8.372 246.713 8.36 247.025 8.36H248.645V10.712H247.145C246.593 10.712 246.181 10.852 245.909 11.132C245.645 11.404 245.513 11.764 245.513 12.212V26H242.621ZM240.533 15.308V13.04H248.645V15.308H240.533ZM255.818 26.36C254.522 26.36 253.39 26.068 252.422 25.484C251.454 24.9 250.702 24.096 250.166 23.072C249.638 22.04 249.374 20.856 249.374 19.52C249.374 18.16 249.646 16.968 250.19 15.944C250.734 14.92 251.49 14.12 252.458 13.544C253.426 12.968 254.546 12.68 255.818 12.68C257.122 12.68 258.258 12.972 259.226 13.556C260.194 14.14 260.946 14.948 261.482 15.98C262.018 17.004 262.286 18.184 262.286 19.52C262.286 20.864 262.014 22.052 261.47 23.084C260.934 24.108 260.182 24.912 259.214 25.496C258.246 26.072 257.114 26.36 255.818 26.36ZM255.818 23.648C256.97 23.648 257.826 23.264 258.386 22.496C258.946 21.728 259.226 20.736 259.226 19.52C259.226 18.264 258.942 17.264 258.374 16.52C257.806 15.768 256.954 15.392 255.818 15.392C255.042 15.392 254.402 15.568 253.898 15.92C253.402 16.264 253.034 16.748 252.794 17.372C252.554 17.988 252.434 18.704 252.434 19.52C252.434 20.776 252.718 21.78 253.286 22.532C253.862 23.276 254.706 23.648 255.818 23.648ZM264.93 26V13.04H267.486V16.196L267.174 15.788C267.334 15.356 267.546 14.964 267.81 14.612C268.082 14.252 268.406 13.956 268.782 13.724C269.102 13.508 269.454 13.34 269.838 13.22C270.23 13.092 270.63 13.016 271.038 12.992C271.446 12.96 271.842 12.976 272.226 13.04V15.74C271.842 15.628 271.398 15.592 270.894 15.632C270.398 15.672 269.95 15.812 269.55 16.052C269.15 16.268 268.822 16.544 268.566 16.88C268.318 17.216 268.134 17.6 268.014 18.032C267.894 18.456 267.834 18.916 267.834 19.412V26H264.93ZM284.769 32.12C284.049 32.12 283.357 32.008 282.693 31.784C282.037 31.56 281.445 31.236 280.917 30.812C280.389 30.396 279.957 29.892 279.621 29.3L282.285 27.98C282.533 28.452 282.881 28.8 283.329 29.024C283.785 29.256 284.269 29.372 284.781 29.372C285.381 29.372 285.917 29.264 286.389 29.048C286.861 28.84 287.225 28.528 287.481 28.112C287.745 27.704 287.869 27.192 287.853 26.576V22.892H288.213V13.04H290.745V26.624C290.745 26.952 290.729 27.264 290.697 27.56C290.673 27.864 290.629 28.16 290.565 28.448C290.373 29.288 290.005 29.976 289.461 30.512C288.917 31.056 288.241 31.46 287.433 31.724C286.633 31.988 285.745 32.12 284.769 32.12ZM284.517 26.36C283.325 26.36 282.285 26.06 281.397 25.46C280.509 24.86 279.821 24.044 279.333 23.012C278.845 21.98 278.601 20.816 278.601 19.52C278.601 18.208 278.845 17.04 279.333 16.016C279.829 14.984 280.529 14.172 281.433 13.58C282.337 12.98 283.401 12.68 284.625 12.68C285.857 12.68 286.889 12.98 287.721 13.58C288.561 14.172 289.197 14.984 289.629 16.016C290.061 17.048 290.277 18.216 290.277 19.52C290.277 20.808 290.061 21.972 289.629 23.012C289.197 24.044 288.553 24.86 287.697 25.46C286.841 26.06 285.781 26.36 284.517 26.36ZM284.961 23.768C285.737 23.768 286.361 23.592 286.833 23.24C287.313 22.88 287.661 22.38 287.877 21.74C288.101 21.1 288.213 20.36 288.213 19.52C288.213 18.672 288.101 17.932 287.877 17.3C287.661 16.66 287.321 16.164 286.857 15.812C286.393 15.452 285.793 15.272 285.057 15.272C284.281 15.272 283.641 15.464 283.137 15.848C282.633 16.224 282.261 16.736 282.021 17.384C281.781 18.024 281.661 18.736 281.661 19.52C281.661 20.312 281.777 21.032 282.009 21.68C282.249 22.32 282.613 22.828 283.101 23.204C283.589 23.58 284.209 23.768 284.961 23.768ZM294.11 26V13.04H296.666V16.196L296.354 15.788C296.514 15.356 296.726 14.964 296.99 14.612C297.262 14.252 297.586 13.956 297.962 13.724C298.282 13.508 298.634 13.34 299.018 13.22C299.41 13.092 299.81 13.016 300.218 12.992C300.626 12.96 301.022 12.976 301.406 13.04V15.74C301.022 15.628 300.578 15.592 300.074 15.632C299.578 15.672 299.13 15.812 298.73 16.052C298.33 16.268 298.002 16.544 297.746 16.88C297.498 17.216 297.314 17.6 297.194 18.032C297.074 18.456 297.014 18.916 297.014 19.412V26H294.11ZM309.185 26.36C307.889 26.36 306.757 26.068 305.789 25.484C304.821 24.9 304.069 24.096 303.533 23.072C303.005 22.04 302.741 20.856 302.741 19.52C302.741 18.16 303.013 16.968 303.557 15.944C304.101 14.92 304.857 14.12 305.825 13.544C306.793 12.968 307.913 12.68 309.185 12.68C310.489 12.68 311.625 12.972 312.593 13.556C313.561 14.14 314.313 14.948 314.849 15.98C315.385 17.004 315.653 18.184 315.653 19.52C315.653 20.864 315.381 22.052 314.837 23.084C314.301 24.108 313.549 24.912 312.581 25.496C311.613 26.072 310.481 26.36 309.185 26.36ZM309.185 23.648C310.337 23.648 311.193 23.264 311.753 22.496C312.313 21.728 312.593 20.736 312.593 19.52C312.593 18.264 312.309 17.264 311.741 16.52C311.173 15.768 310.321 15.392 309.185 15.392C308.409 15.392 307.769 15.568 307.265 15.92C306.769 16.264 306.401 16.748 306.161 17.372C305.921 17.988 305.801 18.704 305.801 19.52C305.801 20.776 306.085 21.78 306.653 22.532C307.229 23.276 308.073 23.648 309.185 23.648ZM320.588 26L316.628 13.016L319.46 13.04L321.992 21.356L324.56 13.04H326.996L329.552 21.356L332.096 13.04H334.928L330.968 26H328.712L325.772 17.084L322.844 26H320.588ZM344.69 26C343.834 26.16 342.994 26.228 342.17 26.204C341.354 26.188 340.622 26.04 339.974 25.76C339.326 25.472 338.834 25.02 338.498 24.404C338.202 23.844 338.046 23.272 338.03 22.688C338.014 22.104 338.006 21.444 338.006 20.708V9.44H340.886V20.54C340.886 21.06 340.89 21.516 340.898 21.908C340.914 22.3 340.998 22.62 341.15 22.868C341.438 23.348 341.898 23.616 342.53 23.672C343.162 23.728 343.882 23.696 344.69 23.576V26ZM335.654 15.308V13.04H344.69V15.308H335.654ZM356.441 26V19.76C356.441 19.352 356.413 18.9 356.357 18.404C356.301 17.908 356.169 17.432 355.961 16.976C355.761 16.512 355.457 16.132 355.049 15.836C354.649 15.54 354.105 15.392 353.417 15.392C353.049 15.392 352.685 15.452 352.325 15.572C351.965 15.692 351.637 15.9 351.341 16.196C351.053 16.484 350.821 16.884 350.645 17.396C350.469 17.9 350.381 18.548 350.381 19.34L348.665 18.608C348.665 17.504 348.877 16.504 349.301 15.608C349.733 14.712 350.365 14 351.197 13.472C352.029 12.936 353.053 12.668 354.269 12.668C355.229 12.668 356.021 12.828 356.645 13.148C357.269 13.468 357.765 13.876 358.133 14.372C358.501 14.868 358.773 15.396 358.949 15.956C359.125 16.516 359.237 17.048 359.285 17.552C359.341 18.048 359.369 18.452 359.369 18.764V26H356.441ZM347.453 26V8.72H350.033V17.816H350.381V26H347.453ZM362.98 26V23.036H365.944V26H362.98Z" fill="url(#paint0_linear_0_2117)"/>
<path d="M3.84 94V59.92H9.216V94H3.84ZM37.7581 94H32.4781V79.936C32.4781 77.6 32.0941 75.888 31.3261 74.8C30.5901 73.712 29.4861 73.168 28.0141 73.168C26.9901 73.168 25.9661 73.424 24.9421 73.936C23.9501 74.448 23.0541 75.152 22.2541 76.048C21.4541 76.912 20.8781 77.92 20.5261 79.072V94H15.2461V68.896H20.0461V73.936C20.6861 72.816 21.5181 71.856 22.5421 71.056C23.5981 70.224 24.7821 69.584 26.0941 69.136C27.4061 68.688 28.7981 68.464 30.2701 68.464C31.7741 68.464 33.0061 68.736 33.9661 69.28C34.9581 69.824 35.7261 70.576 36.2701 71.536C36.8461 72.464 37.2301 73.552 37.4221 74.8C37.6461 76.016 37.7581 77.312 37.7581 78.688V94ZM41.3027 81.472C41.3027 79.072 41.7828 76.896 42.7428 74.944C43.7348 72.96 45.0788 71.392 46.7747 70.24C48.4708 69.056 50.4228 68.464 52.6308 68.464C54.5508 68.464 56.2788 68.96 57.8148 69.952C59.3828 70.944 60.5988 72.176 61.4628 73.648V58.96H66.7428V88.048C66.7428 88.656 66.8548 89.088 67.0788 89.344C67.3028 89.6 67.6708 89.744 68.1828 89.776V94C67.1908 94.16 66.4228 94.24 65.8788 94.24C64.8868 94.24 64.0388 93.952 63.3348 93.376C62.6628 92.8 62.3108 92.112 62.2788 91.312L62.2308 89.44C61.2708 91.04 59.9748 92.288 58.3428 93.184C56.7108 94.048 55.0148 94.48 53.2548 94.48C51.5268 94.48 49.9268 94.144 48.4548 93.472C47.0148 92.8 45.7508 91.856 44.6628 90.64C43.6068 89.424 42.7748 88.032 42.1668 86.464C41.5908 84.896 41.3027 83.232 41.3027 81.472ZM61.4628 84.976V78.4C61.1108 77.376 60.5348 76.464 59.7348 75.664C58.9668 74.832 58.0868 74.176 57.0948 73.696C56.1348 73.216 55.1748 72.976 54.2148 72.976C53.0948 72.976 52.0708 73.216 51.1428 73.696C50.2468 74.176 49.4628 74.816 48.7908 75.616C48.1508 76.416 47.6548 77.328 47.3028 78.352C46.9508 79.376 46.7747 80.448 46.7747 81.568C46.7747 82.72 46.9668 83.808 47.3508 84.832C47.7348 85.824 48.2788 86.72 48.9828 87.52C49.7188 88.288 50.5508 88.896 51.4788 89.344C52.4388 89.76 53.4788 89.968 54.5988 89.968C55.3028 89.968 56.0068 89.84 56.7108 89.584C57.4468 89.328 58.1348 88.976 58.7748 88.528C59.4468 88.08 60.0068 87.552 60.4548 86.944C60.9348 86.336 61.2708 85.68 61.4628 84.976ZM72.2093 84.256V68.896H77.4893V83.2C77.4893 85.44 77.8893 87.136 78.6893 88.288C79.5213 89.408 80.7213 89.968 82.2893 89.968C83.2813 89.968 84.2413 89.76 85.1693 89.344C86.1293 88.928 86.9933 88.32 87.7613 87.52C88.5613 86.688 89.2013 85.696 89.6813 84.544V68.896H94.9613V88.048C94.9613 88.656 95.0733 89.088 95.2973 89.344C95.5213 89.6 95.8893 89.744 96.4012 89.776V94C95.8573 94.096 95.4093 94.16 95.0573 94.192C94.7053 94.224 94.3693 94.24 94.0493 94.24C93.0893 94.24 92.2893 93.984 91.6493 93.472C91.0093 92.928 90.6413 92.24 90.5453 91.408L90.4493 88.912C89.3293 90.736 87.8733 92.128 86.0813 93.088C84.2893 94.016 82.3213 94.48 80.1773 94.48C77.5533 94.48 75.5693 93.616 74.2253 91.888C72.8813 90.16 72.2093 87.616 72.2093 84.256ZM109.627 94.48C107.515 94.48 105.515 94.144 103.627 93.472C101.739 92.768 100.123 91.728 98.7793 90.352L100.747 86.8C102.187 88.08 103.627 89.008 105.067 89.584C106.539 90.16 107.995 90.448 109.435 90.448C110.907 90.448 112.107 90.176 113.035 89.632C113.963 89.056 114.427 88.224 114.427 87.136C114.427 86.336 114.187 85.744 113.707 85.36C113.227 84.976 112.523 84.64 111.595 84.352C110.699 84.064 109.611 83.744 108.331 83.392C106.539 82.848 105.035 82.288 103.819 81.712C102.603 81.104 101.691 80.368 101.083 79.504C100.475 78.64 100.171 77.536 100.171 76.192C100.171 74.56 100.587 73.168 101.419 72.016C102.251 70.864 103.403 69.984 104.875 69.376C106.379 68.768 108.107 68.464 110.059 68.464C111.883 68.464 113.563 68.752 115.099 69.328C116.667 69.872 118.043 70.736 119.227 71.92L116.971 75.424C115.851 74.4 114.699 73.648 113.515 73.168C112.363 72.688 111.115 72.448 109.771 72.448C109.003 72.448 108.267 72.544 107.563 72.736C106.859 72.896 106.267 73.216 105.787 73.696C105.339 74.144 105.115 74.784 105.115 75.616C105.115 76.288 105.307 76.832 105.691 77.248C106.075 77.664 106.651 78.016 107.419 78.304C108.187 78.592 109.131 78.912 110.251 79.264C112.203 79.84 113.867 80.416 115.243 80.992C116.619 81.536 117.675 82.256 118.411 83.152C119.179 84.016 119.563 85.216 119.563 86.752C119.563 89.184 118.651 91.088 116.827 92.464C115.035 93.808 112.635 94.48 109.627 94.48ZM137.199 92.704C136.751 92.928 136.191 93.168 135.519 93.424C134.847 93.68 134.079 93.904 133.215 94.096C132.383 94.288 131.519 94.384 130.623 94.384C129.535 94.384 128.527 94.192 127.599 93.808C126.671 93.424 125.919 92.816 125.343 91.984C124.799 91.12 124.527 90.016 124.527 88.672V72.976H121.215V68.896H124.527V60.64H129.807V68.896H135.279V72.976H129.807V86.992C129.871 87.856 130.143 88.496 130.623 88.912C131.135 89.328 131.759 89.536 132.495 89.536C133.231 89.536 133.935 89.408 134.607 89.152C135.279 88.896 135.775 88.688 136.095 88.528L137.199 92.704ZM153.968 73.456C151.92 73.488 150.096 73.952 148.496 74.848C146.928 75.744 145.808 77.008 145.136 78.64V94H139.855V68.896H144.752V74.512C145.616 72.784 146.752 71.408 148.16 70.384C149.568 69.328 151.056 68.752 152.624 68.656C152.944 68.656 153.2 68.656 153.392 68.656C153.616 68.656 153.808 68.672 153.968 68.704V73.456ZM156.809 94V68.896H162.089V94H156.809ZM156.809 64.768V58.96H162.089V64.768H156.809ZM178.81 94.48C176.858 94.48 175.082 94.144 173.482 93.472C171.914 92.768 170.554 91.824 169.402 90.64C168.25 89.424 167.354 88.048 166.714 86.512C166.106 84.944 165.802 83.28 165.802 81.52C165.802 79.152 166.346 76.992 167.434 75.04C168.522 73.056 170.042 71.472 171.994 70.288C173.946 69.072 176.234 68.464 178.858 68.464C181.482 68.464 183.738 69.072 185.626 70.288C187.546 71.472 189.034 73.04 190.09 74.992C191.146 76.944 191.674 79.04 191.674 81.28C191.674 81.664 191.658 82.032 191.626 82.384C191.594 82.704 191.562 82.976 191.53 83.2H171.418C171.514 84.672 171.914 85.968 172.618 87.088C173.354 88.176 174.282 89.04 175.402 89.68C176.522 90.288 177.722 90.592 179.002 90.592C180.41 90.592 181.738 90.24 182.986 89.536C184.266 88.832 185.13 87.904 185.578 86.752L190.09 88.048C189.546 89.264 188.714 90.368 187.594 91.36C186.506 92.32 185.21 93.088 183.706 93.664C182.202 94.208 180.57 94.48 178.81 94.48ZM171.274 79.696H186.442C186.346 78.256 185.93 76.992 185.194 75.904C184.49 74.784 183.578 73.92 182.458 73.312C181.37 72.672 180.154 72.352 178.81 72.352C177.498 72.352 176.282 72.672 175.162 73.312C174.074 73.92 173.178 74.784 172.474 75.904C171.77 76.992 171.37 78.256 171.274 79.696ZM203.909 94.48C201.797 94.48 199.797 94.144 197.909 93.472C196.021 92.768 194.405 91.728 193.061 90.352L195.029 86.8C196.469 88.08 197.909 89.008 199.349 89.584C200.821 90.16 202.277 90.448 203.717 90.448C205.189 90.448 206.389 90.176 207.317 89.632C208.245 89.056 208.709 88.224 208.709 87.136C208.709 86.336 208.469 85.744 207.989 85.36C207.509 84.976 206.805 84.64 205.877 84.352C204.981 84.064 203.893 83.744 202.613 83.392C200.821 82.848 199.317 82.288 198.101 81.712C196.885 81.104 195.973 80.368 195.365 79.504C194.757 78.64 194.453 77.536 194.453 76.192C194.453 74.56 194.869 73.168 195.701 72.016C196.533 70.864 197.685 69.984 199.157 69.376C200.661 68.768 202.389 68.464 204.341 68.464C206.165 68.464 207.845 68.752 209.381 69.328C210.949 69.872 212.325 70.736 213.509 71.92L211.253 75.424C210.133 74.4 208.981 73.648 207.797 73.168C206.645 72.688 205.397 72.448 204.053 72.448C203.285 72.448 202.549 72.544 201.845 72.736C201.141 72.896 200.549 73.216 200.069 73.696C199.621 74.144 199.397 74.784 199.397 75.616C199.397 76.288 199.589 76.832 199.973 77.248C200.357 77.664 200.933 78.016 201.701 78.304C202.469 78.592 203.413 78.912 204.533 79.264C206.485 79.84 208.149 80.416 209.525 80.992C210.901 81.536 211.957 82.256 212.693 83.152C213.461 84.016 213.845 85.216 213.845 86.752C213.845 89.184 212.933 91.088 211.109 92.464C209.317 93.808 206.917 94.48 203.909 94.48ZM239.499 60.064H244.539L248.763 71.632L253.035 60.064H258.075L252.219 75.232L257.307 87.76L267.915 59.92H273.819L259.851 94H255.195L248.811 78.736L242.379 94H237.674L223.755 59.92H229.611L240.267 87.76L245.355 75.232L239.499 60.064ZM284.216 94.48C282.264 94.48 280.488 94.144 278.888 93.472C277.32 92.768 275.96 91.824 274.808 90.64C273.656 89.424 272.76 88.048 272.12 86.512C271.512 84.944 271.208 83.28 271.208 81.52C271.208 79.152 271.752 76.992 272.84 75.04C273.928 73.056 275.448 71.472 277.4 70.288C279.352 69.072 281.64 68.464 284.264 68.464C286.888 68.464 289.144 69.072 291.032 70.288C292.952 71.472 294.44 73.04 295.496 74.992C296.552 76.944 297.08 79.04 297.08 81.28C297.08 81.664 297.064 82.032 297.032 82.384C297 82.704 296.968 82.976 296.936 83.2H276.824C276.92 84.672 277.32 85.968 278.024 87.088C278.76 88.176 279.688 89.04 280.808 89.68C281.928 90.288 283.128 90.592 284.408 90.592C285.816 90.592 287.144 90.24 288.392 89.536C289.672 88.832 290.536 87.904 290.984 86.752L295.496 88.048C294.952 89.264 294.12 90.368 293 91.36C291.912 92.32 290.616 93.088 289.112 93.664C287.608 94.208 285.976 94.48 284.216 94.48ZM276.68 79.696H291.848C291.752 78.256 291.336 76.992 290.6 75.904C289.896 74.784 288.984 73.92 287.864 73.312C286.776 72.672 285.56 72.352 284.216 72.352C282.904 72.352 281.688 72.672 280.568 73.312C279.48 73.92 278.584 74.784 277.88 75.904C277.176 76.992 276.776 78.256 276.68 79.696ZM335.294 89.248V94H311.918V59.92H334.862V64.672H317.294V74.368H332.51V78.832H317.294V89.248H335.294ZM377.381 94H372.101V79.936C372.101 77.6 371.717 75.888 370.949 74.8C370.181 73.712 369.061 73.168 367.589 73.168C366.117 73.168 364.741 73.728 363.461 74.848C362.213 75.936 361.333 77.36 360.821 79.12V94H355.541V79.936C355.541 77.6 355.157 75.888 354.389 74.8C353.621 73.712 352.517 73.168 351.077 73.168C349.605 73.168 348.229 73.712 346.949 74.8C345.701 75.888 344.805 77.312 344.261 79.072V94H338.98V68.896H343.781V73.936C344.773 72.176 346.069 70.832 347.669 69.904C349.301 68.944 351.157 68.464 353.237 68.464C355.317 68.464 356.949 69.008 358.133 70.096C359.349 71.184 360.101 72.544 360.389 74.176C361.477 72.32 362.805 70.912 364.373 69.952C365.973 68.96 367.797 68.464 369.845 68.464C371.317 68.464 372.549 68.736 373.541 69.28C374.533 69.824 375.301 70.576 375.845 71.536C376.389 72.464 376.773 73.552 376.997 74.8C377.253 76.016 377.381 77.312 377.381 78.688V94ZM396.721 94.48C394.705 94.48 392.929 94 391.393 93.04C389.857 92.08 388.641 90.832 387.745 89.296V104.224H382.465V68.896H387.121V73.408C388.081 71.904 389.329 70.704 390.865 69.808C392.401 68.912 394.113 68.464 396.001 68.464C397.729 68.464 399.313 68.816 400.753 69.52C402.193 70.192 403.441 71.136 404.497 72.352C405.553 73.568 406.369 74.96 406.945 76.528C407.553 78.064 407.857 79.696 407.857 81.424C407.857 83.824 407.377 86.016 406.417 88C405.489 89.984 404.177 91.568 402.481 92.752C400.817 93.904 398.897 94.48 396.721 94.48ZM394.993 89.968C396.113 89.968 397.121 89.728 398.017 89.248C398.945 88.768 399.729 88.128 400.369 87.328C401.041 86.528 401.553 85.616 401.905 84.592C402.257 83.568 402.433 82.512 402.433 81.424C402.433 80.272 402.241 79.184 401.857 78.16C401.473 77.136 400.913 76.24 400.177 75.472C399.473 74.704 398.641 74.096 397.681 73.648C396.753 73.2 395.729 72.976 394.609 72.976C393.937 72.976 393.233 73.104 392.497 73.36C391.761 73.616 391.073 73.968 390.433 74.416C389.793 74.864 389.233 75.392 388.753 76C388.273 76.608 387.937 77.248 387.745 77.92V84.496C388.193 85.52 388.785 86.448 389.521 87.28C390.257 88.08 391.105 88.736 392.065 89.248C393.025 89.728 394.001 89.968 394.993 89.968ZM422.886 94.48C420.902 94.48 419.126 94.144 417.558 93.472C415.99 92.768 414.63 91.808 413.478 90.592C412.358 89.376 411.494 88 410.886 86.464C410.278 84.896 409.974 83.232 409.974 81.472C409.974 79.712 410.278 78.048 410.886 76.48C411.494 74.912 412.358 73.536 413.478 72.352C414.63 71.136 415.99 70.192 417.558 69.52C419.158 68.816 420.934 68.464 422.886 68.464C424.838 68.464 426.598 68.816 428.166 69.52C429.766 70.192 431.126 71.136 432.246 72.352C433.398 73.536 434.278 74.912 434.885 76.48C435.494 78.048 435.798 79.712 435.798 81.472C435.798 83.232 435.494 84.896 434.885 86.464C434.278 88 433.398 89.376 432.246 90.592C431.126 91.808 429.766 92.768 428.166 93.472C426.598 94.144 424.838 94.48 422.886 94.48ZM415.398 81.52C415.398 83.12 415.734 84.56 416.406 85.84C417.078 87.12 417.974 88.128 419.094 88.864C420.214 89.6 421.478 89.968 422.886 89.968C424.262 89.968 425.51 89.6 426.63 88.864C427.782 88.096 428.694 87.072 429.366 85.792C430.038 84.48 430.374 83.04 430.374 81.472C430.374 79.872 430.038 78.432 429.366 77.152C428.694 75.872 427.782 74.864 426.63 74.128C425.51 73.36 424.262 72.976 422.886 72.976C421.478 72.976 420.214 73.36 419.094 74.128C417.974 74.896 417.078 75.92 416.406 77.2C415.734 78.448 415.398 79.888 415.398 81.52ZM469.933 68.896H474.973L464.413 94H459.901L455.389 82.672L450.877 94H446.365L435.757 68.896H440.797L448.861 88.864L452.413 79.6L448.093 68.944H452.557L455.389 76.768L458.173 68.944H462.637L458.365 79.6L461.917 88.864L469.933 68.896ZM488.013 94.48C486.061 94.48 484.285 94.144 482.685 93.472C481.117 92.768 479.757 91.824 478.605 90.64C477.453 89.424 476.557 88.048 475.917 86.512C475.309 84.944 475.005 83.28 475.005 81.52C475.005 79.152 475.549 76.992 476.637 75.04C477.725 73.056 479.245 71.472 481.197 70.288C483.149 69.072 485.437 68.464 488.061 68.464C490.685 68.464 492.941 69.072 494.829 70.288C496.749 71.472 498.237 73.04 499.293 74.992C500.349 76.944 500.877 79.04 500.877 81.28C500.877 81.664 500.861 82.032 500.829 82.384C500.797 82.704 500.765 82.976 500.733 83.2H480.621C480.717 84.672 481.117 85.968 481.821 87.088C482.557 88.176 483.485 89.04 484.605 89.68C485.725 90.288 486.925 90.592 488.205 90.592C489.613 90.592 490.941 90.24 492.189 89.536C493.469 88.832 494.333 87.904 494.781 86.752L499.293 88.048C498.749 89.264 497.917 90.368 496.797 91.36C495.709 92.32 494.413 93.088 492.909 93.664C491.405 94.208 489.773 94.48 488.013 94.48ZM480.477 79.696H495.645C495.549 78.256 495.133 76.992 494.397 75.904C493.693 74.784 492.781 73.92 491.661 73.312C490.573 72.672 489.357 72.352 488.013 72.352C486.701 72.352 485.485 72.672 484.365 73.312C483.277 73.92 482.381 74.784 481.677 75.904C480.973 76.992 480.573 78.256 480.477 79.696ZM518.296 73.456C516.248 73.488 514.424 73.952 512.824 74.848C511.256 75.744 510.136 77.008 509.464 78.64V94H504.184V68.896H509.08V74.512C509.944 72.784 511.08 71.408 512.488 70.384C513.896 69.328 515.384 68.752 516.952 68.656C517.272 68.656 517.528 68.656 517.72 68.656C517.944 68.656 518.136 68.672 518.296 68.704V73.456Z" fill="#141219"/>
<defs>
<linearGradient id="paint0_linear_0_2117" x1="0" y1="16.5" x2="821" y2="16.5" gradientUnits="userSpaceOnUse">
<stop offset="0.11" stop-color="#CD6028"/>
<stop offset="1" stop-color="#3E6EB4"/>
</linearGradient>
</defs>
</svg>
