<svg width="360" height="360" viewBox="0 0 360 360" fill="none" xmlns="http://www.w3.org/2000/svg">
<g filter="url(#filter0_d_0_2182)">
<rect x="20" y="20" width="320" height="320" rx="20" fill="white" shape-rendering="crispEdges"/>
<path d="M191.553 134.053H168.447C165.414 134.053 162.947 131.585 162.947 128.553V105.448C162.947 102.416 165.414 99.9485 168.447 99.9485H191.553C194.586 99.9485 197.053 102.416 197.053 105.448V128.553C197.053 131.585 194.586 134.053 191.553 134.053ZM168.447 102.948C167.069 102.948 165.947 104.069 165.947 105.448V128.553C165.947 129.932 167.069 131.053 168.447 131.053H191.553C192.931 131.053 194.053 129.932 194.053 128.553V105.448C194.053 104.069 192.931 102.948 191.553 102.948H168.447Z" fill="#CD6028"/>
<path d="M185.858 118.305H190.548C188.146 123.603 182.743 127.401 180.768 127.895C180.654 127.923 180.531 127.942 180.417 127.942C180.265 127.942 180.113 127.914 179.971 127.867C179.895 127.838 173.201 124.714 170.353 118.638H175.204C175.641 118.638 176.059 118.438 176.334 118.087L177.853 116.112L180.626 120.698C180.844 121.059 181.215 121.306 181.632 121.372C181.699 121.382 181.775 121.382 181.841 121.382C182.193 121.382 182.525 121.258 182.791 121.03L185.858 118.305Z" fill="#3E6EB4"/>
<path d="M191.621 114.688C191.583 114.944 191.545 115.201 191.488 115.457H185.316C184.965 115.457 184.633 115.59 184.367 115.818L182.183 117.764L179.221 112.865C178.983 112.457 178.556 112.2 178.091 112.172C177.616 112.143 177.16 112.352 176.875 112.722L174.502 115.789H169.384C169.308 115.428 169.242 115.049 169.194 114.669C168.701 110.729 170.884 107.424 174.521 106.646C177.151 106.086 179.154 107.225 180.408 108.526C181.661 107.225 183.664 106.086 186.294 106.646C189.978 107.434 192.171 110.738 191.621 114.688Z" fill="#3E6EB4"/>
<path d="M180.006 102.947C179.177 102.947 178.506 102.275 178.506 101.447V95.7024C178.506 94.8744 179.177 94.2024 180.006 94.2024C180.835 94.2024 181.506 94.8744 181.506 95.7024V101.447C181.506 102.275 180.835 102.947 180.006 102.947Z" fill="#CD6028"/>
<path d="M180.006 97.2025C177.607 97.2025 175.655 95.2505 175.655 92.8505C175.655 90.4505 177.607 88.4995 180.006 88.4995C182.405 88.4995 184.357 90.4515 184.357 92.8505C184.357 95.2495 182.405 97.2025 180.006 97.2025ZM180.006 91.5005C179.261 91.5005 178.655 92.1055 178.655 92.8515C178.655 93.5975 179.261 94.2035 180.006 94.2035C180.751 94.2035 181.357 93.5975 181.357 92.8515C181.357 92.1055 180.751 91.5005 180.006 91.5005Z" fill="#CD6028"/>
<path d="M164.447 118.495H158.702C157.873 118.495 157.202 117.823 157.202 116.995C157.202 116.167 157.873 115.495 158.702 115.495H164.447C165.276 115.495 165.947 116.167 165.947 116.995C165.947 117.823 165.276 118.495 164.447 118.495Z" fill="#CD6028"/>
<path d="M155.851 121.346C153.452 121.346 151.5 119.394 151.5 116.995C151.5 114.596 153.452 112.643 155.851 112.643C158.25 112.643 160.202 114.595 160.202 116.995C160.202 119.395 158.25 121.346 155.851 121.346ZM155.851 115.644C155.106 115.644 154.5 116.25 154.5 116.996C154.5 117.742 155.106 118.347 155.851 118.347C156.596 118.347 157.202 117.742 157.202 116.996C157.202 116.25 156.596 115.644 155.851 115.644Z" fill="#CD6028"/>
<path d="M201.298 118.507H195.553C194.724 118.507 194.053 117.835 194.053 117.007C194.053 116.179 194.724 115.507 195.553 115.507H201.298C202.127 115.507 202.798 116.179 202.798 117.007C202.798 117.835 202.127 118.507 201.298 118.507Z" fill="#CD6028"/>
<path d="M204.149 121.358C201.75 121.358 199.798 119.406 199.798 117.006C199.798 114.606 201.75 112.655 204.149 112.655C206.548 112.655 208.5 114.607 208.5 117.006C208.5 119.405 206.548 121.358 204.149 121.358ZM204.149 115.656C203.404 115.656 202.798 116.261 202.798 117.007C202.798 117.753 203.404 118.359 204.149 118.359C204.894 118.359 205.5 117.753 205.5 117.007C205.5 116.261 204.894 115.656 204.149 115.656Z" fill="#CD6028"/>
<path d="M179.994 139.798C179.165 139.798 178.494 139.126 178.494 138.298V132.553C178.494 131.725 179.165 131.053 179.994 131.053C180.823 131.053 181.494 131.725 181.494 132.553V138.298C181.494 139.126 180.823 139.798 179.994 139.798Z" fill="#CD6028"/>
<path d="M179.994 145.5C177.595 145.5 175.643 143.548 175.643 141.149C175.643 138.75 177.595 136.797 179.994 136.797C182.393 136.797 184.345 138.749 184.345 141.149C184.345 143.549 182.393 145.5 179.994 145.5ZM179.994 139.798C179.249 139.798 178.643 140.404 178.643 141.15C178.643 141.896 179.249 142.501 179.994 142.501C180.739 142.501 181.345 141.896 181.345 141.15C181.345 140.404 180.739 139.798 179.994 139.798Z" fill="#CD6028"/>
<path d="M189.09 102.95C188.261 102.95 187.59 102.278 187.59 101.45V93.0005C187.59 92.1725 188.261 91.5005 189.09 91.5005H193.266C194.095 91.5005 194.766 92.1725 194.766 93.0005C194.766 93.8285 194.095 94.5005 193.266 94.5005H190.59V101.45C190.59 102.278 189.919 102.95 189.09 102.95Z" fill="#CD6028"/>
<path d="M204 109.41H195.55C194.721 109.41 194.05 108.738 194.05 107.91C194.05 107.082 194.721 106.41 195.55 106.41H202.5V103.741C202.5 102.913 203.171 102.241 204 102.241C204.829 102.241 205.5 102.913 205.5 103.741V107.91C205.5 108.738 204.829 109.41 204 109.41Z" fill="#CD6028"/>
<path d="M204 131.767C203.171 131.767 202.5 131.095 202.5 130.267V127.591H195.55C194.721 127.591 194.05 126.919 194.05 126.091C194.05 125.263 194.721 124.591 195.55 124.591H204C204.829 124.591 205.5 125.263 205.5 126.091V130.267C205.5 131.095 204.829 131.767 204 131.767Z" fill="#CD6028"/>
<path d="M193.258 142.501H189.09C188.261 142.501 187.59 141.829 187.59 141.001V132.551C187.59 131.723 188.261 131.051 189.09 131.051C189.919 131.051 190.59 131.723 190.59 132.551V139.501H193.258C194.087 139.501 194.758 140.173 194.758 141.001C194.758 141.829 194.087 142.501 193.258 142.501Z" fill="#CD6028"/>
<path d="M170.91 142.501H166.734C165.905 142.501 165.234 141.829 165.234 141.001C165.234 140.173 165.905 139.501 166.734 139.501H169.41V132.551C169.41 131.723 170.081 131.051 170.91 131.051C171.739 131.051 172.41 131.723 172.41 132.551V141.001C172.41 141.829 171.739 142.501 170.91 142.501Z" fill="#CD6028"/>
<path d="M156 131.76C155.171 131.76 154.5 131.088 154.5 130.26V126.091C154.5 125.263 155.171 124.591 156 124.591H164.45C165.279 124.591 165.95 125.263 165.95 126.091C165.95 126.919 165.279 127.591 164.45 127.591H157.5V130.26C157.5 131.088 156.829 131.76 156 131.76Z" fill="#CD6028"/>
<path d="M164.45 109.41H156C155.171 109.41 154.5 108.738 154.5 107.91V103.734C154.5 102.906 155.171 102.234 156 102.234C156.829 102.234 157.5 102.906 157.5 103.734V106.41H164.45C165.279 106.41 165.95 107.082 165.95 107.91C165.95 108.738 165.279 109.41 164.45 109.41Z" fill="#CD6028"/>
<path d="M170.91 102.95C170.081 102.95 169.41 102.278 169.41 101.45V94.5005H166.742C165.913 94.5005 165.242 93.8285 165.242 93.0005C165.242 92.1725 165.913 91.5005 166.742 91.5005H170.91C171.739 91.5005 172.41 92.1725 172.41 93.0005V101.45C172.41 102.278 171.739 102.95 170.91 102.95Z" fill="#CD6028"/>
<path d="M133.205 166.46V183.5H130.493V175.988H121.901V183.5H119.213V166.46H121.901V173.588H130.493V166.46H133.205ZM142.237 183.74C141.261 183.74 140.373 183.572 139.573 183.236C138.773 182.884 138.085 182.412 137.509 181.82C136.949 181.228 136.509 180.54 136.189 179.756C135.885 178.972 135.733 178.14 135.733 177.26C135.733 176.38 135.885 175.548 136.189 174.764C136.509 173.964 136.949 173.268 137.509 172.676C138.085 172.068 138.773 171.596 139.573 171.26C140.373 170.908 141.269 170.732 142.261 170.732C143.237 170.732 144.117 170.908 144.901 171.26C145.701 171.612 146.381 172.084 146.941 172.676C147.501 173.252 147.925 173.932 148.213 174.716C148.517 175.484 148.669 176.292 148.669 177.14C148.669 177.332 148.661 177.516 148.645 177.692C148.629 177.852 148.613 177.988 148.597 178.1H138.541C138.589 178.66 138.717 179.164 138.925 179.612C139.149 180.06 139.429 180.452 139.765 180.788C140.117 181.108 140.509 181.356 140.941 181.532C141.389 181.708 141.853 181.796 142.333 181.796C142.685 181.796 143.029 181.756 143.365 181.676C143.717 181.58 144.037 181.452 144.325 181.292C144.613 181.116 144.869 180.908 145.093 180.668C145.317 180.428 145.493 180.164 145.621 179.876L147.877 180.524C147.445 181.468 146.725 182.244 145.717 182.852C144.725 183.444 143.565 183.74 142.237 183.74ZM146.053 176.276C146.005 175.748 145.869 175.26 145.645 174.812C145.437 174.364 145.165 173.988 144.829 173.684C144.493 173.364 144.101 173.116 143.653 172.94C143.205 172.764 142.733 172.676 142.237 172.676C141.741 172.676 141.269 172.764 140.821 172.94C140.389 173.116 140.005 173.364 139.669 173.684C139.333 173.988 139.061 174.364 138.853 174.812C138.645 175.26 138.517 175.748 138.469 176.276H146.053ZM154.158 183.74C153.55 183.74 152.982 183.644 152.454 183.452C151.942 183.244 151.494 182.964 151.11 182.612C150.742 182.26 150.446 181.844 150.222 181.364C150.014 180.884 149.91 180.364 149.91 179.804C149.91 179.212 150.038 178.676 150.294 178.196C150.55 177.716 150.91 177.3 151.374 176.948C151.854 176.596 152.414 176.324 153.054 176.132C153.71 175.94 154.43 175.844 155.214 175.844C155.806 175.844 156.39 175.9 156.966 176.012C157.542 176.108 158.062 176.244 158.526 176.42V175.556C158.526 174.628 158.262 173.908 157.734 173.396C157.206 172.868 156.446 172.604 155.454 172.604C154.782 172.604 154.118 172.732 153.462 172.988C152.822 173.228 152.158 173.58 151.47 174.044L150.654 172.364C152.27 171.276 153.95 170.732 155.694 170.732C157.422 170.732 158.766 171.172 159.726 172.052C160.686 172.932 161.166 174.196 161.166 175.844V180.38C161.166 180.94 161.398 181.228 161.862 181.244V183.5C161.606 183.548 161.382 183.58 161.19 183.596C161.014 183.612 160.838 183.62 160.662 183.62C160.15 183.62 159.75 183.492 159.462 183.236C159.19 182.98 159.022 182.652 158.958 182.252L158.886 181.46C158.326 182.196 157.63 182.764 156.798 183.164C155.982 183.548 155.102 183.74 154.158 183.74ZM154.878 181.796C155.518 181.796 156.118 181.684 156.678 181.46C157.254 181.22 157.702 180.892 158.022 180.476C158.358 180.188 158.526 179.884 158.526 179.564V177.908C158.078 177.732 157.598 177.596 157.086 177.5C156.59 177.404 156.102 177.356 155.622 177.356C154.678 177.356 153.902 177.564 153.294 177.98C152.702 178.38 152.406 178.916 152.406 179.588C152.406 180.212 152.638 180.74 153.102 181.172C153.566 181.588 154.158 181.796 154.878 181.796ZM164.393 165.98H167.033V179.876C167.033 180.34 167.153 180.708 167.393 180.98C167.633 181.236 167.969 181.364 168.401 181.364C168.577 181.364 168.777 181.332 169.001 181.268C169.241 181.204 169.465 181.132 169.673 181.052L170.057 183.116C169.673 183.292 169.217 183.428 168.689 183.524C168.161 183.636 167.689 183.692 167.273 183.692C166.361 183.692 165.649 183.444 165.137 182.948C164.641 182.452 164.393 181.748 164.393 180.836V165.98ZM178.572 182.852C178.236 183.012 177.772 183.196 177.18 183.404C176.588 183.596 175.956 183.692 175.284 183.692C174.868 183.692 174.476 183.636 174.108 183.524C173.74 183.412 173.412 183.244 173.124 183.02C172.852 182.796 172.636 182.508 172.476 182.156C172.316 181.788 172.236 181.348 172.236 180.836V172.988H170.58V170.948H172.236V166.82H174.876V170.948H177.612V172.988H174.876V179.996C174.908 180.444 175.044 180.772 175.284 180.98C175.54 181.172 175.852 181.268 176.22 181.268C176.588 181.268 176.94 181.204 177.276 181.076C177.612 180.948 177.86 180.844 178.02 180.764L178.572 182.852ZM191.656 183.5H189.016V176.468C189.016 175.316 188.808 174.468 188.392 173.924C187.992 173.364 187.408 173.084 186.64 173.084C186.272 173.084 185.904 173.156 185.536 173.3C185.168 173.444 184.816 173.652 184.48 173.924C184.16 174.18 183.872 174.492 183.616 174.86C183.36 175.212 183.168 175.604 183.04 176.036V183.5H180.4V165.98H183.04V173.468C183.52 172.604 184.168 171.932 184.984 171.452C185.816 170.972 186.72 170.732 187.696 170.732C188.48 170.732 189.12 170.876 189.616 171.164C190.128 171.436 190.536 171.804 190.84 172.268C191.144 172.732 191.352 173.276 191.464 173.9C191.592 174.508 191.656 175.156 191.656 175.844V183.5ZM193.905 177.212C193.905 176.332 194.057 175.5 194.361 174.716C194.665 173.932 195.097 173.244 195.657 172.652C196.233 172.06 196.921 171.596 197.721 171.26C198.521 170.908 199.417 170.732 200.409 170.732C201.705 170.732 202.817 171.02 203.745 171.596C204.689 172.156 205.393 172.908 205.857 173.852L203.289 174.668C202.985 174.14 202.577 173.732 202.065 173.444C201.553 173.14 200.985 172.988 200.361 172.988C199.833 172.988 199.337 173.092 198.873 173.3C198.425 173.508 198.033 173.804 197.697 174.188C197.361 174.556 197.097 174.996 196.905 175.508C196.713 176.02 196.617 176.588 196.617 177.212C196.617 177.82 196.713 178.388 196.905 178.916C197.113 179.428 197.385 179.876 197.721 180.26C198.073 180.644 198.473 180.948 198.921 181.172C199.385 181.38 199.873 181.484 200.385 181.484C200.705 181.484 201.025 181.444 201.345 181.364C201.665 181.268 201.953 181.14 202.209 180.98C202.481 180.82 202.713 180.636 202.905 180.428C203.113 180.22 203.265 179.996 203.361 179.756L205.953 180.524C205.537 181.468 204.841 182.244 203.865 182.852C202.889 183.444 201.737 183.74 200.409 183.74C199.433 183.74 198.545 183.564 197.745 183.212C196.945 182.86 196.257 182.388 195.681 181.796C195.121 181.188 194.681 180.492 194.361 179.708C194.057 178.924 193.905 178.092 193.905 177.212ZM211.463 183.74C210.855 183.74 210.287 183.644 209.759 183.452C209.247 183.244 208.799 182.964 208.415 182.612C208.047 182.26 207.751 181.844 207.527 181.364C207.319 180.884 207.215 180.364 207.215 179.804C207.215 179.212 207.343 178.676 207.599 178.196C207.855 177.716 208.215 177.3 208.679 176.948C209.159 176.596 209.719 176.324 210.359 176.132C211.015 175.94 211.735 175.844 212.519 175.844C213.111 175.844 213.695 175.9 214.271 176.012C214.847 176.108 215.367 176.244 215.831 176.42V175.556C215.831 174.628 215.567 173.908 215.039 173.396C214.511 172.868 213.751 172.604 212.759 172.604C212.087 172.604 211.423 172.732 210.767 172.988C210.127 173.228 209.463 173.58 208.775 174.044L207.959 172.364C209.575 171.276 211.255 170.732 212.999 170.732C214.727 170.732 216.071 171.172 217.031 172.052C217.991 172.932 218.471 174.196 218.471 175.844V180.38C218.471 180.94 218.703 181.228 219.167 181.244V183.5C218.911 183.548 218.687 183.58 218.495 183.596C218.319 183.612 218.143 183.62 217.967 183.62C217.455 183.62 217.055 183.492 216.767 183.236C216.495 182.98 216.327 182.652 216.263 182.252L216.191 181.46C215.631 182.196 214.935 182.764 214.103 183.164C213.287 183.548 212.407 183.74 211.463 183.74ZM212.183 181.796C212.823 181.796 213.423 181.684 213.983 181.46C214.559 181.22 215.007 180.892 215.327 180.476C215.663 180.188 215.831 179.884 215.831 179.564V177.908C215.383 177.732 214.903 177.596 214.391 177.5C213.895 177.404 213.407 177.356 212.927 177.356C211.983 177.356 211.207 177.564 210.599 177.98C210.007 178.38 209.711 178.916 209.711 179.588C209.711 180.212 209.943 180.74 210.407 181.172C210.871 181.588 211.463 181.796 212.183 181.796ZM228.73 173.228C227.706 173.26 226.794 173.5 225.994 173.948C225.21 174.38 224.65 175.004 224.314 175.82V183.5H221.674V170.948H224.122V173.756C224.554 172.892 225.114 172.204 225.802 171.692C226.506 171.164 227.258 170.876 228.058 170.828C228.218 170.828 228.346 170.828 228.442 170.828C228.554 170.828 228.65 170.836 228.73 170.852V173.228ZM235.706 183.74C234.73 183.74 233.842 183.572 233.042 183.236C232.242 182.884 231.554 182.412 230.978 181.82C230.418 181.228 229.978 180.54 229.658 179.756C229.354 178.972 229.202 178.14 229.202 177.26C229.202 176.38 229.354 175.548 229.658 174.764C229.978 173.964 230.418 173.268 230.978 172.676C231.554 172.068 232.242 171.596 233.042 171.26C233.842 170.908 234.738 170.732 235.73 170.732C236.706 170.732 237.586 170.908 238.37 171.26C239.17 171.612 239.85 172.084 240.41 172.676C240.97 173.252 241.394 173.932 241.682 174.716C241.986 175.484 242.138 176.292 242.138 177.14C242.138 177.332 242.13 177.516 242.114 177.692C242.098 177.852 242.082 177.988 242.066 178.1H232.01C232.058 178.66 232.186 179.164 232.394 179.612C232.618 180.06 232.898 180.452 233.234 180.788C233.586 181.108 233.978 181.356 234.41 181.532C234.858 181.708 235.322 181.796 235.802 181.796C236.154 181.796 236.498 181.756 236.834 181.676C237.186 181.58 237.506 181.452 237.794 181.292C238.082 181.116 238.338 180.908 238.562 180.668C238.786 180.428 238.962 180.164 239.09 179.876L241.346 180.524C240.914 181.468 240.194 182.244 239.186 182.852C238.194 183.444 237.034 183.74 235.706 183.74ZM239.522 176.276C239.474 175.748 239.338 175.26 239.114 174.812C238.906 174.364 238.634 173.988 238.298 173.684C237.962 173.364 237.57 173.116 237.122 172.94C236.674 172.764 236.202 172.676 235.706 172.676C235.21 172.676 234.738 172.764 234.29 172.94C233.858 173.116 233.474 173.364 233.138 173.684C232.802 173.988 232.53 174.364 232.322 174.812C232.114 175.26 231.986 175.748 231.938 176.276H239.522Z" fill="#141219"/>
<path d="M51.4814 222.74C50.6654 222.74 49.9294 222.602 49.2734 222.324C48.6228 222.047 48.0841 221.652 47.6574 221.14C47.2361 220.623 46.9614 220.012 46.8334 219.308L48.3054 219.076C48.4921 219.802 48.8788 220.37 49.4654 220.78C50.0574 221.186 50.7534 221.388 51.5534 221.388C52.0708 221.388 52.5374 221.308 52.9534 221.148C53.3748 220.983 53.7081 220.748 53.9534 220.444C54.1988 220.14 54.3214 219.78 54.3214 219.364C54.3214 219.108 54.2761 218.89 54.1854 218.708C54.1001 218.522 53.9801 218.364 53.8254 218.236C53.6761 218.103 53.5054 217.991 53.3134 217.9C53.1214 217.81 52.9214 217.735 52.7134 217.676L49.7774 216.804C49.4574 216.708 49.1481 216.588 48.8494 216.444C48.5508 216.295 48.2841 216.111 48.0494 215.892C47.8148 215.668 47.6281 215.402 47.4894 215.092C47.3508 214.778 47.2814 214.407 47.2814 213.98C47.2814 213.298 47.4574 212.716 47.8094 212.236C48.1668 211.751 48.6494 211.38 49.2574 211.124C49.8654 210.868 50.5508 210.743 51.3134 210.748C52.0868 210.754 52.7774 210.892 53.3854 211.164C53.9988 211.431 54.5054 211.815 54.9054 212.316C55.3108 212.818 55.5828 213.418 55.7214 214.116L54.2094 214.38C54.1294 213.911 53.9508 213.508 53.6734 213.172C53.4014 212.831 53.0601 212.57 52.6494 212.388C52.2388 212.202 51.7881 212.106 51.2974 212.1C50.8281 212.095 50.4041 212.17 50.0254 212.324C49.6468 212.479 49.3454 212.695 49.1214 212.972C48.8974 213.244 48.7854 213.559 48.7854 213.916C48.7854 214.268 48.8868 214.554 49.0894 214.772C49.2921 214.986 49.5401 215.156 49.8334 215.284C50.1321 215.407 50.4228 215.508 50.7054 215.588L52.8974 216.22C53.1481 216.29 53.4361 216.386 53.7614 216.508C54.0921 216.631 54.4121 216.804 54.7214 217.028C55.0308 217.247 55.2868 217.54 55.4894 217.908C55.6921 218.271 55.7934 218.73 55.7934 219.284C55.7934 219.839 55.6814 220.332 55.4574 220.764C55.2388 221.196 54.9321 221.559 54.5374 221.852C54.1428 222.14 53.6841 222.359 53.1614 222.508C52.6388 222.663 52.0788 222.74 51.4814 222.74ZM61.5456 222.5C61.0336 222.602 60.5269 222.642 60.0256 222.62C59.5296 222.604 59.0869 222.506 58.6976 222.324C58.3082 222.138 58.0122 221.85 57.8096 221.46C57.6389 221.119 57.5456 220.775 57.5296 220.428C57.5189 220.076 57.5136 219.679 57.5136 219.236V211.46H58.9376V219.172C58.9376 219.524 58.9402 219.826 58.9456 220.076C58.9562 220.327 59.0122 220.543 59.1136 220.724C59.3056 221.066 59.6096 221.266 60.0256 221.324C60.4469 221.383 60.9536 221.367 61.5456 221.276V222.5ZM55.7616 215.036V213.86H61.5456V215.036H55.7616ZM62.5497 222.5V213.86H63.8217V215.948L63.6137 215.676C63.715 215.41 63.8457 215.164 64.0057 214.94C64.171 214.716 64.355 214.532 64.5577 214.388C64.7817 214.207 65.035 214.068 65.3177 213.972C65.6004 213.876 65.8884 213.82 66.1817 213.804C66.475 213.783 66.7497 213.802 67.0057 213.86V215.196C66.707 215.116 66.379 215.095 66.0217 215.132C65.6644 215.17 65.3337 215.3 65.0297 215.524C64.7524 215.722 64.5364 215.962 64.3817 216.244C64.2324 216.527 64.1284 216.834 64.0697 217.164C64.011 217.49 63.9817 217.823 63.9817 218.164V222.5H62.5497ZM71.3562 222.74C70.5082 222.74 69.7669 222.554 69.1322 222.18C68.5029 221.802 68.0122 221.276 67.6602 220.604C67.3082 219.927 67.1322 219.138 67.1322 218.236C67.1322 217.292 67.3055 216.476 67.6522 215.788C67.9989 215.095 68.4815 214.562 69.1002 214.188C69.7242 213.81 70.4549 213.62 71.2922 213.62C72.1615 213.62 72.9002 213.82 73.5082 214.22C74.1215 214.62 74.5802 215.191 74.8842 215.932C75.1935 216.674 75.3269 217.556 75.2842 218.58H73.8442V218.068C73.8282 217.007 73.6122 216.215 73.1962 215.692C72.7802 215.164 72.1615 214.9 71.3402 214.9C70.4602 214.9 69.7909 215.183 69.3322 215.748C68.8735 216.314 68.6442 217.124 68.6442 218.18C68.6442 219.199 68.8735 219.988 69.3322 220.548C69.7909 221.108 70.4442 221.388 71.2922 221.388C71.8629 221.388 72.3589 221.258 72.7802 220.996C73.2015 220.735 73.5322 220.359 73.7722 219.868L75.1402 220.34C74.8042 221.103 74.2975 221.695 73.6202 222.116C72.9482 222.532 72.1935 222.74 71.3562 222.74ZM68.1642 218.58V217.436H74.5482V218.58H68.1642ZM78.6151 222.74C77.9697 222.74 77.4284 222.623 76.9911 222.388C76.5591 222.148 76.2311 221.834 76.0071 221.444C75.7884 221.055 75.6791 220.628 75.6791 220.164C75.6791 219.711 75.7644 219.319 75.9351 218.988C76.1111 218.652 76.3564 218.375 76.6711 218.156C76.9857 217.932 77.3617 217.756 77.7991 217.628C78.2097 217.516 78.6684 217.42 79.1751 217.34C79.6871 217.255 80.2044 217.178 80.7271 217.108C81.2497 217.039 81.7377 216.972 82.1911 216.908L81.6791 217.204C81.6951 216.436 81.5404 215.868 81.2151 215.5C80.8951 215.132 80.3404 214.948 79.5511 214.948C79.0284 214.948 78.5697 215.068 78.1751 215.308C77.7857 215.543 77.5111 215.927 77.3511 216.46L75.9991 216.052C76.2071 215.295 76.6097 214.7 77.2071 214.268C77.8044 213.836 78.5911 213.62 79.5671 213.62C80.3511 213.62 81.0231 213.762 81.5831 214.044C82.1484 214.322 82.5537 214.743 82.7991 215.308C82.9217 215.575 82.9991 215.866 83.0311 216.18C83.0631 216.49 83.0791 216.815 83.0791 217.156V222.5H81.8151V220.428L82.1111 220.62C81.7857 221.319 81.3297 221.847 80.7431 222.204C80.1617 222.562 79.4524 222.74 78.6151 222.74ZM78.8311 221.548C79.3431 221.548 79.7857 221.458 80.1591 221.276C80.5377 221.09 80.8417 220.847 81.0711 220.548C81.3004 220.244 81.4497 219.914 81.5191 219.556C81.5991 219.29 81.6417 218.994 81.6471 218.668C81.6577 218.338 81.6631 218.084 81.6631 217.908L82.1591 218.124C81.6951 218.188 81.2391 218.25 80.7911 218.308C80.3431 218.367 79.9191 218.431 79.5191 218.5C79.1191 218.564 78.7591 218.642 78.4391 218.732C78.2044 218.807 77.9831 218.903 77.7751 219.02C77.5724 219.138 77.4071 219.29 77.2791 219.476C77.1564 219.658 77.0951 219.884 77.0951 220.156C77.0951 220.391 77.1537 220.615 77.2711 220.828C77.3937 221.042 77.5804 221.215 77.8311 221.348C78.0871 221.482 78.4204 221.548 78.8311 221.548ZM94.7371 222.5L94.7451 216.972C94.7451 216.327 94.5717 215.823 94.2251 215.46C93.8837 215.092 93.4384 214.908 92.8891 214.908C92.5691 214.908 92.2651 214.983 91.9771 215.132C91.6891 215.276 91.4544 215.506 91.2731 215.82C91.0917 216.13 91.0011 216.527 91.0011 217.012L90.2491 216.708C90.2384 216.095 90.3637 215.559 90.6251 215.1C90.8917 214.636 91.2544 214.276 91.7131 214.02C92.1717 213.764 92.6891 213.636 93.2651 213.636C94.1664 213.636 94.8757 213.911 95.3931 214.46C95.9104 215.004 96.1691 215.738 96.1691 216.66L96.1611 222.5H94.7371ZM84.4011 222.5V213.86H85.6731V216.172H85.8331V222.5H84.4011ZM89.5771 222.5L89.5851 217.028C89.5851 216.367 89.4144 215.85 89.0731 215.476C88.7317 215.098 88.2784 214.908 87.7131 214.908C87.1531 214.908 86.6997 215.1 86.3531 215.484C86.0064 215.868 85.8331 216.378 85.8331 217.012L85.0811 216.564C85.0811 216.004 85.2144 215.503 85.4811 215.06C85.7477 214.618 86.1104 214.271 86.5691 214.02C87.0277 213.764 87.5477 213.636 88.1291 213.636C88.7104 213.636 89.2171 213.759 89.6491 214.004C90.0811 214.25 90.4144 214.602 90.6491 215.06C90.8837 215.514 91.0011 216.055 91.0011 216.684L90.9931 222.5H89.5771ZM97.6628 222.5V210.74H99.0868V222.5H97.6628ZM100.897 212.332V210.86H102.321V212.332H100.897ZM100.897 222.5V213.86H102.321V222.5H100.897ZM110.124 222.5V218.172C110.124 217.762 110.086 217.367 110.012 216.988C109.942 216.61 109.817 216.271 109.636 215.972C109.46 215.668 109.22 215.428 108.916 215.252C108.617 215.076 108.238 214.988 107.78 214.988C107.422 214.988 107.097 215.05 106.804 215.172C106.516 215.29 106.268 215.471 106.06 215.716C105.852 215.962 105.689 216.271 105.572 216.644C105.46 217.012 105.404 217.447 105.404 217.948L104.468 217.66C104.468 216.823 104.617 216.106 104.916 215.508C105.22 214.906 105.644 214.444 106.188 214.124C106.737 213.799 107.382 213.636 108.124 213.636C108.684 213.636 109.161 213.724 109.556 213.9C109.95 214.076 110.278 214.311 110.54 214.604C110.801 214.892 111.006 215.218 111.156 215.58C111.305 215.938 111.409 216.303 111.468 216.676C111.532 217.044 111.564 217.394 111.564 217.724V222.5H110.124ZM103.964 222.5V213.86H105.244V216.172H105.404V222.5H103.964ZM116.559 222.74C115.711 222.74 114.97 222.554 114.335 222.18C113.706 221.802 113.215 221.276 112.863 220.604C112.511 219.927 112.335 219.138 112.335 218.236C112.335 217.292 112.509 216.476 112.855 215.788C113.202 215.095 113.685 214.562 114.303 214.188C114.927 213.81 115.658 213.62 116.495 213.62C117.365 213.62 118.103 213.82 118.711 214.22C119.325 214.62 119.783 215.191 120.087 215.932C120.397 216.674 120.53 217.556 120.487 218.58H119.047V218.068C119.031 217.007 118.815 216.215 118.399 215.692C117.983 215.164 117.365 214.9 116.543 214.9C115.663 214.9 114.994 215.183 114.535 215.748C114.077 216.314 113.847 217.124 113.847 218.18C113.847 219.199 114.077 219.988 114.535 220.548C114.994 221.108 115.647 221.388 116.495 221.388C117.066 221.388 117.562 221.258 117.983 220.996C118.405 220.735 118.735 220.359 118.975 219.868L120.343 220.34C120.007 221.103 119.501 221.695 118.823 222.116C118.151 222.532 117.397 222.74 116.559 222.74ZM113.367 218.58V217.436H119.751V218.58H113.367ZM127.94 222.74C127.129 222.74 126.446 222.54 125.892 222.14C125.337 221.735 124.916 221.188 124.628 220.5C124.345 219.807 124.204 219.031 124.204 218.172C124.204 217.303 124.345 216.524 124.628 215.836C124.916 215.148 125.337 214.607 125.892 214.212C126.452 213.818 127.137 213.62 127.948 213.62C128.748 213.62 129.436 213.82 130.012 214.22C130.593 214.615 131.038 215.156 131.348 215.844C131.657 216.532 131.812 217.308 131.812 218.172C131.812 219.036 131.657 219.812 131.348 220.5C131.038 221.188 130.593 221.735 130.012 222.14C129.436 222.54 128.745 222.74 127.94 222.74ZM123.964 226.34V213.86H125.236V220.22H125.396V226.34H123.964ZM127.764 221.436C128.334 221.436 128.806 221.292 129.18 221.004C129.553 220.716 129.833 220.327 130.02 219.836C130.206 219.34 130.3 218.786 130.3 218.172C130.3 217.564 130.206 217.015 130.02 216.524C129.838 216.034 129.556 215.644 129.172 215.356C128.793 215.068 128.31 214.924 127.724 214.924C127.164 214.924 126.7 215.063 126.332 215.34C125.964 215.612 125.689 215.994 125.508 216.484C125.326 216.97 125.236 217.532 125.236 218.172C125.236 218.802 125.324 219.364 125.5 219.86C125.681 220.351 125.958 220.738 126.332 221.02C126.705 221.298 127.182 221.436 127.764 221.436ZM135.271 222.74C134.626 222.74 134.085 222.623 133.647 222.388C133.215 222.148 132.887 221.834 132.663 221.444C132.445 221.055 132.335 220.628 132.335 220.164C132.335 219.711 132.421 219.319 132.591 218.988C132.767 218.652 133.013 218.375 133.327 218.156C133.642 217.932 134.018 217.756 134.455 217.628C134.866 217.516 135.325 217.42 135.831 217.34C136.343 217.255 136.861 217.178 137.383 217.108C137.906 217.039 138.394 216.972 138.847 216.908L138.335 217.204C138.351 216.436 138.197 215.868 137.871 215.5C137.551 215.132 136.997 214.948 136.207 214.948C135.685 214.948 135.226 215.068 134.831 215.308C134.442 215.543 134.167 215.927 134.007 216.46L132.655 216.052C132.863 215.295 133.266 214.7 133.863 214.268C134.461 213.836 135.247 213.62 136.223 213.62C137.007 213.62 137.679 213.762 138.239 214.044C138.805 214.322 139.21 214.743 139.455 215.308C139.578 215.575 139.655 215.866 139.687 216.18C139.719 216.49 139.735 216.815 139.735 217.156V222.5H138.471V220.428L138.767 220.62C138.442 221.319 137.986 221.847 137.399 222.204C136.818 222.562 136.109 222.74 135.271 222.74ZM135.487 221.548C135.999 221.548 136.442 221.458 136.815 221.276C137.194 221.09 137.498 220.847 137.727 220.548C137.957 220.244 138.106 219.914 138.175 219.556C138.255 219.29 138.298 218.994 138.303 218.668C138.314 218.338 138.319 218.084 138.319 217.908L138.815 218.124C138.351 218.188 137.895 218.25 137.447 218.308C136.999 218.367 136.575 218.431 136.175 218.5C135.775 218.564 135.415 218.642 135.095 218.732C134.861 218.807 134.639 218.903 134.431 219.02C134.229 219.138 134.063 219.29 133.935 219.476C133.813 219.658 133.751 219.884 133.751 220.156C133.751 220.391 133.81 220.615 133.927 220.828C134.05 221.042 134.237 221.215 134.487 221.348C134.743 221.482 135.077 221.548 135.487 221.548ZM145.889 222.5C145.377 222.602 144.871 222.642 144.369 222.62C143.873 222.604 143.431 222.506 143.041 222.324C142.652 222.138 142.356 221.85 142.153 221.46C141.983 221.119 141.889 220.775 141.873 220.428C141.863 220.076 141.857 219.679 141.857 219.236V211.46H143.281V219.172C143.281 219.524 143.284 219.826 143.289 220.076C143.3 220.327 143.356 220.543 143.457 220.724C143.649 221.066 143.953 221.266 144.369 221.324C144.791 221.383 145.297 221.367 145.889 221.276V222.5ZM140.105 215.036V213.86H145.889V215.036H140.105ZM147.053 212.332V210.86H148.477V212.332H147.053ZM147.053 222.5V213.86H148.477V222.5H147.053ZM153.872 222.74C153.024 222.74 152.282 222.554 151.648 222.18C151.018 221.802 150.528 221.276 150.176 220.604C149.824 219.927 149.648 219.138 149.648 218.236C149.648 217.292 149.821 216.476 150.168 215.788C150.514 215.095 150.997 214.562 151.616 214.188C152.24 213.81 152.97 213.62 153.808 213.62C154.677 213.62 155.416 213.82 156.024 214.22C156.637 214.62 157.096 215.191 157.4 215.932C157.709 216.674 157.842 217.556 157.8 218.58H156.36V218.068C156.344 217.007 156.128 216.215 155.712 215.692C155.296 215.164 154.677 214.9 153.856 214.9C152.976 214.9 152.306 215.183 151.848 215.748C151.389 216.314 151.16 217.124 151.16 218.18C151.16 219.199 151.389 219.988 151.848 220.548C152.306 221.108 152.96 221.388 153.808 221.388C154.378 221.388 154.874 221.258 155.296 220.996C155.717 220.735 156.048 220.359 156.288 219.868L157.656 220.34C157.32 221.103 156.813 221.695 156.136 222.116C155.464 222.532 154.709 222.74 153.872 222.74ZM150.68 218.58V217.436H157.064V218.58H150.68ZM164.749 222.5V218.172C164.749 217.762 164.711 217.367 164.637 216.988C164.567 216.61 164.442 216.271 164.261 215.972C164.085 215.668 163.845 215.428 163.541 215.252C163.242 215.076 162.863 214.988 162.405 214.988C162.047 214.988 161.722 215.05 161.429 215.172C161.141 215.29 160.893 215.471 160.685 215.716C160.477 215.962 160.314 216.271 160.197 216.644C160.085 217.012 160.029 217.447 160.029 217.948L159.093 217.66C159.093 216.823 159.242 216.106 159.541 215.508C159.845 214.906 160.269 214.444 160.813 214.124C161.362 213.799 162.007 213.636 162.749 213.636C163.309 213.636 163.786 213.724 164.181 213.9C164.575 214.076 164.903 214.311 165.165 214.604C165.426 214.892 165.631 215.218 165.781 215.58C165.93 215.938 166.034 216.303 166.093 216.676C166.157 217.044 166.189 217.394 166.189 217.724V222.5H164.749ZM158.589 222.5V213.86H159.869V216.172H160.029V222.5H158.589ZM172.342 222.5C171.83 222.602 171.324 222.642 170.822 222.62C170.326 222.604 169.884 222.506 169.494 222.324C169.105 222.138 168.809 221.85 168.606 221.46C168.436 221.119 168.342 220.775 168.326 220.428C168.316 220.076 168.31 219.679 168.31 219.236V211.46H169.734V219.172C169.734 219.524 169.737 219.826 169.742 220.076C169.753 220.327 169.809 220.543 169.91 220.724C170.102 221.066 170.406 221.266 170.822 221.324C171.244 221.383 171.75 221.367 172.342 221.276V222.5ZM166.558 215.036V213.86H172.342V215.036H166.558ZM175.8 222.5V213.86H177.072V215.948L176.864 215.676C176.965 215.41 177.096 215.164 177.256 214.94C177.421 214.716 177.605 214.532 177.808 214.388C178.032 214.207 178.285 214.068 178.568 213.972C178.85 213.876 179.138 213.82 179.432 213.804C179.725 213.783 180 213.802 180.256 213.86V215.196C179.957 215.116 179.629 215.095 179.272 215.132C178.914 215.17 178.584 215.3 178.28 215.524C178.002 215.722 177.786 215.962 177.632 216.244C177.482 216.527 177.378 216.834 177.32 217.164C177.261 217.49 177.232 217.823 177.232 218.164V222.5H175.8ZM184.606 222.74C183.758 222.74 183.017 222.554 182.382 222.18C181.753 221.802 181.262 221.276 180.91 220.604C180.558 219.927 180.382 219.138 180.382 218.236C180.382 217.292 180.556 216.476 180.902 215.788C181.249 215.095 181.732 214.562 182.35 214.188C182.974 213.81 183.705 213.62 184.542 213.62C185.412 213.62 186.15 213.82 186.758 214.22C187.372 214.62 187.83 215.191 188.134 215.932C188.444 216.674 188.577 217.556 188.534 218.58H187.094V218.068C187.078 217.007 186.862 216.215 186.446 215.692C186.03 215.164 185.412 214.9 184.59 214.9C183.71 214.9 183.041 215.183 182.582 215.748C182.124 216.314 181.894 217.124 181.894 218.18C181.894 219.199 182.124 219.988 182.582 220.548C183.041 221.108 183.694 221.388 184.542 221.388C185.113 221.388 185.609 221.258 186.03 220.996C186.452 220.735 186.782 220.359 187.022 219.868L188.39 220.34C188.054 221.103 187.548 221.695 186.87 222.116C186.198 222.532 185.444 222.74 184.606 222.74ZM181.414 218.58V217.436H187.798V218.58H181.414ZM193.205 222.74C192.331 222.74 191.587 222.546 190.973 222.156C190.365 221.762 189.901 221.22 189.581 220.532C189.261 219.844 189.096 219.06 189.085 218.18C189.096 217.279 189.264 216.487 189.589 215.804C189.92 215.116 190.392 214.58 191.005 214.196C191.619 213.812 192.357 213.62 193.221 213.62C194.133 213.62 194.917 213.844 195.573 214.292C196.235 214.74 196.677 215.354 196.901 216.132L195.493 216.556C195.312 216.055 195.016 215.666 194.605 215.388C194.2 215.111 193.733 214.972 193.205 214.972C192.613 214.972 192.125 215.111 191.741 215.388C191.357 215.66 191.072 216.039 190.885 216.524C190.699 217.004 190.603 217.556 190.597 218.18C190.608 219.14 190.829 219.916 191.261 220.508C191.699 221.095 192.347 221.388 193.205 221.388C193.771 221.388 194.24 221.26 194.613 221.004C194.987 220.743 195.269 220.367 195.461 219.876L196.901 220.252C196.603 221.058 196.136 221.674 195.501 222.1C194.867 222.527 194.101 222.74 193.205 222.74ZM201.23 222.74C200.371 222.74 199.63 222.546 199.006 222.156C198.387 221.767 197.91 221.228 197.574 220.54C197.238 219.852 197.07 219.063 197.07 218.172C197.07 217.266 197.24 216.471 197.582 215.788C197.923 215.106 198.406 214.575 199.03 214.196C199.654 213.812 200.387 213.62 201.23 213.62C202.094 213.62 202.838 213.815 203.462 214.204C204.086 214.588 204.563 215.124 204.894 215.812C205.23 216.495 205.398 217.282 205.398 218.172C205.398 219.074 205.23 219.868 204.894 220.556C204.558 221.239 204.078 221.775 203.454 222.164C202.83 222.548 202.088 222.74 201.23 222.74ZM201.23 221.388C202.126 221.388 202.792 221.09 203.23 220.492C203.667 219.895 203.886 219.122 203.886 218.172C203.886 217.196 203.664 216.42 203.222 215.844C202.779 215.263 202.115 214.972 201.23 214.972C200.627 214.972 200.131 215.108 199.742 215.38C199.352 215.652 199.062 216.028 198.87 216.508C198.678 216.988 198.582 217.543 198.582 218.172C198.582 219.143 198.806 219.922 199.254 220.508C199.702 221.095 200.36 221.388 201.23 221.388ZM206.409 222.5V213.86H207.681V215.948L207.473 215.676C207.574 215.41 207.705 215.164 207.865 214.94C208.03 214.716 208.214 214.532 208.417 214.388C208.641 214.207 208.894 214.068 209.177 213.972C209.46 213.876 209.748 213.82 210.041 213.804C210.334 213.783 210.609 213.802 210.865 213.86V215.196C210.566 215.116 210.238 215.095 209.881 215.132C209.524 215.17 209.193 215.3 208.889 215.524C208.612 215.722 208.396 215.962 208.241 216.244C208.092 216.527 207.988 216.834 207.929 217.164C207.87 217.49 207.841 217.823 207.841 218.164V222.5H206.409ZM214.864 222.74C214.058 222.74 213.368 222.54 212.792 222.14C212.216 221.735 211.77 221.188 211.456 220.5C211.146 219.812 210.992 219.036 210.992 218.172C210.992 217.308 211.146 216.532 211.456 215.844C211.77 215.156 212.216 214.615 212.792 214.22C213.368 213.82 214.056 213.62 214.856 213.62C215.672 213.62 216.357 213.818 216.912 214.212C217.466 214.607 217.885 215.148 218.168 215.836C218.456 216.524 218.6 217.303 218.6 218.172C218.6 219.031 218.456 219.807 218.168 220.5C217.885 221.188 217.466 221.735 216.912 222.14C216.357 222.54 215.674 222.74 214.864 222.74ZM215.04 221.436C215.621 221.436 216.098 221.298 216.472 221.02C216.845 220.738 217.12 220.351 217.296 219.86C217.477 219.364 217.568 218.802 217.568 218.172C217.568 217.532 217.477 216.97 217.296 216.484C217.12 215.994 216.848 215.612 216.48 215.34C216.112 215.063 215.645 214.924 215.08 214.924C214.493 214.924 214.008 215.068 213.624 215.356C213.245 215.644 212.962 216.034 212.776 216.524C212.594 217.015 212.504 217.564 212.504 218.172C212.504 218.786 212.597 219.34 212.784 219.836C212.97 220.327 213.25 220.716 213.624 221.004C214.002 221.292 214.474 221.436 215.04 221.436ZM217.568 222.5V216.14H217.408V210.98H218.84V222.5H217.568ZM233.112 222.5L233.12 216.972C233.12 216.327 232.947 215.823 232.6 215.46C232.259 215.092 231.813 214.908 231.264 214.908C230.944 214.908 230.64 214.983 230.352 215.132C230.064 215.276 229.829 215.506 229.648 215.82C229.467 216.13 229.376 216.527 229.376 217.012L228.624 216.708C228.613 216.095 228.739 215.559 229 215.1C229.267 214.636 229.629 214.276 230.088 214.02C230.547 213.764 231.064 213.636 231.64 213.636C232.541 213.636 233.251 213.911 233.768 214.46C234.285 215.004 234.544 215.738 234.544 216.66L234.536 222.5H233.112ZM222.776 222.5V213.86H224.048V216.172H224.208V222.5H222.776ZM227.952 222.5L227.96 217.028C227.96 216.367 227.789 215.85 227.448 215.476C227.107 215.098 226.653 214.908 226.088 214.908C225.528 214.908 225.075 215.1 224.728 215.484C224.381 215.868 224.208 216.378 224.208 217.012L223.456 216.564C223.456 216.004 223.589 215.503 223.856 215.06C224.123 214.618 224.485 214.271 224.944 214.02C225.403 213.764 225.923 213.636 226.504 213.636C227.085 213.636 227.592 213.759 228.024 214.004C228.456 214.25 228.789 214.602 229.024 215.06C229.259 215.514 229.376 216.055 229.376 216.684L229.368 222.5H227.952ZM238.334 222.74C237.688 222.74 237.147 222.623 236.71 222.388C236.278 222.148 235.95 221.834 235.726 221.444C235.507 221.055 235.398 220.628 235.398 220.164C235.398 219.711 235.483 219.319 235.654 218.988C235.83 218.652 236.075 218.375 236.39 218.156C236.704 217.932 237.08 217.756 237.518 217.628C237.928 217.516 238.387 217.42 238.894 217.34C239.406 217.255 239.923 217.178 240.446 217.108C240.968 217.039 241.456 216.972 241.91 216.908L241.398 217.204C241.414 216.436 241.259 215.868 240.934 215.5C240.614 215.132 240.059 214.948 239.27 214.948C238.747 214.948 238.288 215.068 237.894 215.308C237.504 215.543 237.23 215.927 237.07 216.46L235.718 216.052C235.926 215.295 236.328 214.7 236.926 214.268C237.523 213.836 238.31 213.62 239.286 213.62C240.07 213.62 240.742 213.762 241.302 214.044C241.867 214.322 242.272 214.743 242.518 215.308C242.64 215.575 242.718 215.866 242.75 216.18C242.782 216.49 242.798 216.815 242.798 217.156V222.5H241.534V220.428L241.83 220.62C241.504 221.319 241.048 221.847 240.462 222.204C239.88 222.562 239.171 222.74 238.334 222.74ZM238.55 221.548C239.062 221.548 239.504 221.458 239.878 221.276C240.256 221.09 240.56 220.847 240.79 220.548C241.019 220.244 241.168 219.914 241.238 219.556C241.318 219.29 241.36 218.994 241.366 218.668C241.376 218.338 241.382 218.084 241.382 217.908L241.878 218.124C241.414 218.188 240.958 218.25 240.51 218.308C240.062 218.367 239.638 218.431 239.238 218.5C238.838 218.564 238.478 218.642 238.158 218.732C237.923 218.807 237.702 218.903 237.494 219.02C237.291 219.138 237.126 219.29 236.998 219.476C236.875 219.658 236.814 219.884 236.814 220.156C236.814 220.391 236.872 220.615 236.99 220.828C237.112 221.042 237.299 221.215 237.55 221.348C237.806 221.482 238.139 221.548 238.55 221.548ZM250.28 222.5V218.172C250.28 217.762 250.242 217.367 250.168 216.988C250.098 216.61 249.973 216.271 249.792 215.972C249.616 215.668 249.376 215.428 249.072 215.252C248.773 215.076 248.394 214.988 247.936 214.988C247.578 214.988 247.253 215.05 246.96 215.172C246.672 215.29 246.424 215.471 246.216 215.716C246.008 215.962 245.845 216.271 245.728 216.644C245.616 217.012 245.56 217.447 245.56 217.948L244.624 217.66C244.624 216.823 244.773 216.106 245.072 215.508C245.376 214.906 245.8 214.444 246.344 214.124C246.893 213.799 247.538 213.636 248.28 213.636C248.84 213.636 249.317 213.724 249.712 213.9C250.106 214.076 250.434 214.311 250.696 214.604C250.957 214.892 251.162 215.218 251.312 215.58C251.461 215.938 251.565 216.303 251.624 216.676C251.688 217.044 251.72 217.394 251.72 217.724V222.5H250.28ZM244.12 222.5V213.86H245.4V216.172H245.56V222.5H244.12ZM255.506 222.74C254.86 222.74 254.319 222.623 253.882 222.388C253.45 222.148 253.122 221.834 252.898 221.444C252.679 221.055 252.57 220.628 252.57 220.164C252.57 219.711 252.655 219.319 252.826 218.988C253.002 218.652 253.247 218.375 253.562 218.156C253.876 217.932 254.252 217.756 254.69 217.628C255.1 217.516 255.559 217.42 256.066 217.34C256.578 217.255 257.095 217.178 257.618 217.108C258.14 217.039 258.628 216.972 259.082 216.908L258.57 217.204C258.586 216.436 258.431 215.868 258.106 215.5C257.786 215.132 257.231 214.948 256.442 214.948C255.919 214.948 255.46 215.068 255.066 215.308C254.676 215.543 254.402 215.927 254.242 216.46L252.89 216.052C253.098 215.295 253.5 214.7 254.098 214.268C254.695 213.836 255.482 213.62 256.458 213.62C257.242 213.62 257.914 213.762 258.474 214.044C259.039 214.322 259.444 214.743 259.69 215.308C259.812 215.575 259.89 215.866 259.922 216.18C259.954 216.49 259.97 216.815 259.97 217.156V222.5H258.706V220.428L259.002 220.62C258.676 221.319 258.22 221.847 257.634 222.204C257.052 222.562 256.343 222.74 255.506 222.74ZM255.722 221.548C256.234 221.548 256.676 221.458 257.05 221.276C257.428 221.09 257.732 220.847 257.962 220.548C258.191 220.244 258.34 219.914 258.41 219.556C258.49 219.29 258.532 218.994 258.538 218.668C258.548 218.338 258.554 218.084 258.554 217.908L259.05 218.124C258.586 218.188 258.13 218.25 257.682 218.308C257.234 218.367 256.81 218.431 256.41 218.5C256.01 218.564 255.65 218.642 255.33 218.732C255.095 218.807 254.874 218.903 254.666 219.02C254.463 219.138 254.298 219.29 254.17 219.476C254.047 219.658 253.986 219.884 253.986 220.156C253.986 220.391 254.044 220.615 254.162 220.828C254.284 221.042 254.471 221.215 254.722 221.348C254.978 221.482 255.311 221.548 255.722 221.548ZM264.796 226.58C264.342 226.58 263.9 226.511 263.468 226.372C263.036 226.234 262.638 226.023 262.276 225.74C261.918 225.463 261.62 225.111 261.38 224.684L262.684 223.996C262.897 224.418 263.198 224.724 263.588 224.916C263.982 225.108 264.388 225.204 264.804 225.204C265.353 225.204 265.809 225.103 266.172 224.9C266.534 224.703 266.801 224.407 266.972 224.012C267.148 223.618 267.233 223.127 267.228 222.54V220.18H267.396V213.86H268.66V222.556C268.66 222.791 268.652 223.018 268.636 223.236C268.625 223.455 268.598 223.671 268.556 223.884C268.444 224.498 268.222 225.002 267.892 225.396C267.561 225.796 267.134 226.092 266.612 226.284C266.089 226.482 265.484 226.58 264.796 226.58ZM264.692 222.74C263.886 222.74 263.196 222.54 262.62 222.14C262.044 221.735 261.598 221.188 261.284 220.5C260.974 219.812 260.82 219.036 260.82 218.172C260.82 217.308 260.974 216.532 261.284 215.844C261.598 215.156 262.044 214.615 262.62 214.22C263.196 213.82 263.884 213.62 264.684 213.62C265.5 213.62 266.185 213.818 266.74 214.212C267.294 214.607 267.713 215.148 267.996 215.836C268.284 216.524 268.428 217.303 268.428 218.172C268.428 219.031 268.284 219.807 267.996 220.5C267.713 221.188 267.294 221.735 266.74 222.14C266.185 222.54 265.502 222.74 264.692 222.74ZM264.868 221.436C265.449 221.436 265.926 221.298 266.3 221.02C266.673 220.738 266.948 220.351 267.124 219.86C267.305 219.364 267.396 218.802 267.396 218.172C267.396 217.532 267.305 216.97 267.124 216.484C266.948 215.994 266.676 215.612 266.308 215.34C265.94 215.063 265.473 214.924 264.908 214.924C264.321 214.924 263.836 215.068 263.452 215.356C263.073 215.644 262.79 216.034 262.604 216.524C262.422 217.015 262.332 217.564 262.332 218.172C262.332 218.786 262.425 219.34 262.612 219.836C262.798 220.327 263.078 220.716 263.452 221.004C263.83 221.292 264.302 221.436 264.868 221.436ZM273.887 222.74C273.039 222.74 272.298 222.554 271.663 222.18C271.034 221.802 270.543 221.276 270.191 220.604C269.839 219.927 269.663 219.138 269.663 218.236C269.663 217.292 269.837 216.476 270.183 215.788C270.53 215.095 271.013 214.562 271.631 214.188C272.255 213.81 272.986 213.62 273.823 213.62C274.693 213.62 275.431 213.82 276.039 214.22C276.653 214.62 277.111 215.191 277.415 215.932C277.725 216.674 277.858 217.556 277.815 218.58H276.375V218.068C276.359 217.007 276.143 216.215 275.727 215.692C275.311 215.164 274.693 214.9 273.871 214.9C272.991 214.9 272.322 215.183 271.863 215.748C271.405 216.314 271.175 217.124 271.175 218.18C271.175 219.199 271.405 219.988 271.863 220.548C272.322 221.108 272.975 221.388 273.823 221.388C274.394 221.388 274.89 221.258 275.311 220.996C275.733 220.735 276.063 220.359 276.303 219.868L277.671 220.34C277.335 221.103 276.829 221.695 276.151 222.116C275.479 222.532 274.725 222.74 273.887 222.74ZM270.695 218.58V217.436H277.079V218.58H270.695ZM288.94 222.5L288.948 216.972C288.948 216.327 288.775 215.823 288.428 215.46C288.087 215.092 287.642 214.908 287.092 214.908C286.772 214.908 286.468 214.983 286.18 215.132C285.892 215.276 285.658 215.506 285.476 215.82C285.295 216.13 285.204 216.527 285.204 217.012L284.452 216.708C284.442 216.095 284.567 215.559 284.828 215.1C285.095 214.636 285.458 214.276 285.916 214.02C286.375 213.764 286.892 213.636 287.468 213.636C288.37 213.636 289.079 213.911 289.596 214.46C290.114 215.004 290.372 215.738 290.372 216.66L290.364 222.5H288.94ZM278.604 222.5V213.86H279.876V216.172H280.036V222.5H278.604ZM283.78 222.5L283.788 217.028C283.788 216.367 283.618 215.85 283.276 215.476C282.935 215.098 282.482 214.908 281.916 214.908C281.356 214.908 280.903 215.1 280.556 215.484C280.21 215.868 280.036 216.378 280.036 217.012L279.284 216.564C279.284 216.004 279.418 215.503 279.684 215.06C279.951 214.618 280.314 214.271 280.772 214.02C281.231 213.764 281.751 213.636 282.332 213.636C282.914 213.636 283.42 213.759 283.852 214.004C284.284 214.25 284.618 214.602 284.852 215.06C285.087 215.514 285.204 216.055 285.204 216.684L285.196 222.5H283.78ZM295.372 222.74C294.524 222.74 293.782 222.554 293.148 222.18C292.518 221.802 292.028 221.276 291.676 220.604C291.324 219.927 291.148 219.138 291.148 218.236C291.148 217.292 291.321 216.476 291.668 215.788C292.014 215.095 292.497 214.562 293.116 214.188C293.74 213.81 294.47 213.62 295.308 213.62C296.177 213.62 296.916 213.82 297.524 214.22C298.137 214.62 298.596 215.191 298.9 215.932C299.209 216.674 299.342 217.556 299.3 218.58H297.86V218.068C297.844 217.007 297.628 216.215 297.212 215.692C296.796 215.164 296.177 214.9 295.356 214.9C294.476 214.9 293.806 215.183 293.348 215.748C292.889 216.314 292.66 217.124 292.66 218.18C292.66 219.199 292.889 219.988 293.348 220.548C293.806 221.108 294.46 221.388 295.308 221.388C295.878 221.388 296.374 221.258 296.796 220.996C297.217 220.735 297.548 220.359 297.788 219.868L299.156 220.34C298.82 221.103 298.313 221.695 297.636 222.116C296.964 222.532 296.209 222.74 295.372 222.74ZM292.18 218.58V217.436H298.564V218.58H292.18ZM306.249 222.5V218.172C306.249 217.762 306.211 217.367 306.137 216.988C306.067 216.61 305.942 216.271 305.761 215.972C305.585 215.668 305.345 215.428 305.041 215.252C304.742 215.076 304.363 214.988 303.905 214.988C303.547 214.988 303.222 215.05 302.929 215.172C302.641 215.29 302.393 215.471 302.185 215.716C301.977 215.962 301.814 216.271 301.697 216.644C301.585 217.012 301.529 217.447 301.529 217.948L300.593 217.66C300.593 216.823 300.742 216.106 301.041 215.508C301.345 214.906 301.769 214.444 302.313 214.124C302.862 213.799 303.507 213.636 304.249 213.636C304.809 213.636 305.286 213.724 305.681 213.9C306.075 214.076 306.403 214.311 306.665 214.604C306.926 214.892 307.131 215.218 307.281 215.58C307.43 215.938 307.534 216.303 307.593 216.676C307.657 217.044 307.689 217.394 307.689 217.724V222.5H306.249ZM300.089 222.5V213.86H301.369V216.172H301.529V222.5H300.089ZM313.842 222.5C313.33 222.602 312.824 222.642 312.322 222.62C311.826 222.604 311.384 222.506 310.994 222.324C310.605 222.138 310.309 221.85 310.106 221.46C309.936 221.119 309.842 220.775 309.826 220.428C309.816 220.076 309.81 219.679 309.81 219.236V211.46H311.234V219.172C311.234 219.524 311.237 219.826 311.242 220.076C311.253 220.327 311.309 220.543 311.41 220.724C311.602 221.066 311.906 221.266 312.322 221.324C312.744 221.383 313.25 221.367 313.842 221.276V222.5ZM308.058 215.036V213.86H313.842V215.036H308.058ZM66.5916 244.74C65.9463 244.74 65.405 244.623 64.9676 244.388C64.5356 244.148 64.2076 243.834 63.9836 243.444C63.765 243.055 63.6556 242.628 63.6556 242.164C63.6556 241.711 63.741 241.319 63.9116 240.988C64.0876 240.652 64.333 240.375 64.6476 240.156C64.9623 239.932 65.3383 239.756 65.7756 239.628C66.1863 239.516 66.645 239.42 67.1516 239.34C67.6636 239.255 68.181 239.178 68.7036 239.108C69.2263 239.039 69.7143 238.972 70.1676 238.908L69.6556 239.204C69.6716 238.436 69.517 237.868 69.1916 237.5C68.8716 237.132 68.317 236.948 67.5276 236.948C67.005 236.948 66.5463 237.068 66.1516 237.308C65.7623 237.543 65.4876 237.927 65.3276 238.46L63.9756 238.052C64.1836 237.295 64.5863 236.7 65.1836 236.268C65.781 235.836 66.5676 235.62 67.5436 235.62C68.3276 235.62 68.9996 235.762 69.5596 236.044C70.125 236.322 70.5303 236.743 70.7756 237.308C70.8983 237.575 70.9756 237.866 71.0076 238.18C71.0396 238.49 71.0556 238.815 71.0556 239.156V244.5H69.7916V242.428L70.0876 242.62C69.7623 243.319 69.3063 243.847 68.7196 244.204C68.1383 244.562 67.429 244.74 66.5916 244.74ZM66.8076 243.548C67.3196 243.548 67.7623 243.458 68.1356 243.276C68.5143 243.09 68.8183 242.847 69.0476 242.548C69.277 242.244 69.4263 241.914 69.4956 241.556C69.5756 241.29 69.6183 240.994 69.6236 240.668C69.6343 240.338 69.6396 240.084 69.6396 239.908L70.1356 240.124C69.6716 240.188 69.2156 240.25 68.7676 240.308C68.3196 240.367 67.8956 240.431 67.4956 240.5C67.0956 240.564 66.7356 240.642 66.4156 240.732C66.181 240.807 65.9596 240.903 65.7516 241.02C65.549 241.138 65.3836 241.29 65.2556 241.476C65.133 241.658 65.0716 241.884 65.0716 242.156C65.0716 242.391 65.1303 242.615 65.2476 242.828C65.3703 243.042 65.557 243.215 65.8076 243.348C66.0636 243.482 66.397 243.548 66.8076 243.548ZM78.5376 244.5V240.172C78.5376 239.762 78.5003 239.367 78.4256 238.988C78.3563 238.61 78.231 238.271 78.0496 237.972C77.8736 237.668 77.6336 237.428 77.3296 237.252C77.031 237.076 76.6523 236.988 76.1936 236.988C75.8363 236.988 75.511 237.05 75.2176 237.172C74.9296 237.29 74.6816 237.471 74.4736 237.716C74.2656 237.962 74.103 238.271 73.9856 238.644C73.8736 239.012 73.8176 239.447 73.8176 239.948L72.8816 239.66C72.8816 238.823 73.031 238.106 73.3296 237.508C73.6336 236.906 74.0576 236.444 74.6016 236.124C75.151 235.799 75.7963 235.636 76.5376 235.636C77.0976 235.636 77.575 235.724 77.9696 235.9C78.3643 236.076 78.6923 236.311 78.9536 236.604C79.215 236.892 79.4203 237.218 79.5696 237.58C79.719 237.938 79.823 238.303 79.8816 238.676C79.9456 239.044 79.9776 239.394 79.9776 239.724V244.5H78.5376ZM72.3776 244.5V235.86H73.6576V238.172H73.8176V244.5H72.3776ZM84.6214 244.74C83.816 244.74 83.1254 244.54 82.5494 244.14C81.9734 243.735 81.528 243.188 81.2134 242.5C80.904 241.812 80.7494 241.036 80.7494 240.172C80.7494 239.308 80.904 238.532 81.2134 237.844C81.528 237.156 81.9734 236.615 82.5494 236.22C83.1254 235.82 83.8134 235.62 84.6134 235.62C85.4294 235.62 86.1147 235.818 86.6694 236.212C87.224 236.607 87.6427 237.148 87.9254 237.836C88.2134 238.524 88.3574 239.303 88.3574 240.172C88.3574 241.031 88.2134 241.807 87.9254 242.5C87.6427 243.188 87.224 243.735 86.6694 244.14C86.1147 244.54 85.432 244.74 84.6214 244.74ZM84.7974 243.436C85.3787 243.436 85.856 243.298 86.2294 243.02C86.6027 242.738 86.8774 242.351 87.0534 241.86C87.2347 241.364 87.3254 240.802 87.3254 240.172C87.3254 239.532 87.2347 238.97 87.0534 238.484C86.8774 237.994 86.6054 237.612 86.2374 237.34C85.8694 237.063 85.4027 236.924 84.8374 236.924C84.2507 236.924 83.7654 237.068 83.3814 237.356C83.0027 237.644 82.72 238.034 82.5334 238.524C82.352 239.015 82.2614 239.564 82.2614 240.172C82.2614 240.786 82.3547 241.34 82.5414 241.836C82.728 242.327 83.008 242.716 83.3814 243.004C83.76 243.292 84.232 243.436 84.7974 243.436ZM87.3254 244.5V238.14H87.1654V232.98H88.5974V244.5H87.3254ZM96.2859 244.74C95.4379 244.74 94.6965 244.554 94.0619 244.18C93.4325 243.802 92.9419 243.276 92.5899 242.604C92.2379 241.927 92.0619 241.138 92.0619 240.236C92.0619 239.292 92.2352 238.476 92.5819 237.788C92.9285 237.095 93.4112 236.562 94.0299 236.188C94.6539 235.81 95.3845 235.62 96.2219 235.62C97.0912 235.62 97.8299 235.82 98.4379 236.22C99.0512 236.62 99.5099 237.191 99.8139 237.932C100.123 238.674 100.257 239.556 100.214 240.58H98.7739V240.068C98.7579 239.007 98.5419 238.215 98.1259 237.692C97.7099 237.164 97.0912 236.9 96.2699 236.9C95.3899 236.9 94.7205 237.183 94.2619 237.748C93.8032 238.314 93.5739 239.124 93.5739 240.18C93.5739 241.199 93.8032 241.988 94.2619 242.548C94.7205 243.108 95.3739 243.388 96.2219 243.388C96.7925 243.388 97.2885 243.258 97.7099 242.996C98.1312 242.735 98.4619 242.359 98.7019 241.868L100.07 242.34C99.7339 243.103 99.2272 243.695 98.5499 244.116C97.8779 244.532 97.1232 244.74 96.2859 244.74ZM93.0939 240.58V239.436H99.4779V240.58H93.0939ZM107.163 244.5V240.172C107.163 239.762 107.125 239.367 107.051 238.988C106.981 238.61 106.856 238.271 106.675 237.972C106.499 237.668 106.259 237.428 105.955 237.252C105.656 237.076 105.277 236.988 104.819 236.988C104.461 236.988 104.136 237.05 103.843 237.172C103.555 237.29 103.307 237.471 103.099 237.716C102.891 237.962 102.728 238.271 102.611 238.644C102.499 239.012 102.443 239.447 102.443 239.948L101.507 239.66C101.507 238.823 101.656 238.106 101.955 237.508C102.259 236.906 102.683 236.444 103.227 236.124C103.776 235.799 104.421 235.636 105.163 235.636C105.723 235.636 106.2 235.724 106.595 235.9C106.989 236.076 107.317 236.311 107.579 236.604C107.84 236.892 108.045 237.218 108.195 237.58C108.344 237.938 108.448 238.303 108.507 238.676C108.571 239.044 108.603 239.394 108.603 239.724V244.5H107.163ZM101.003 244.5V235.86H102.283V238.172H102.443V244.5H101.003ZM113.197 244.732C112.167 244.732 111.322 244.508 110.661 244.06C110.005 243.607 109.602 242.975 109.453 242.164L110.909 241.932C111.026 242.402 111.295 242.775 111.717 243.052C112.138 243.324 112.661 243.46 113.285 243.46C113.877 243.46 114.341 243.338 114.677 243.092C115.013 242.847 115.181 242.514 115.181 242.092C115.181 241.847 115.125 241.65 115.013 241.5C114.901 241.346 114.669 241.202 114.317 241.068C113.97 240.935 113.445 240.775 112.741 240.588C111.978 240.386 111.378 240.175 110.941 239.956C110.503 239.738 110.191 239.484 110.005 239.196C109.818 238.908 109.725 238.559 109.725 238.148C109.725 237.642 109.863 237.199 110.141 236.82C110.418 236.436 110.805 236.14 111.301 235.932C111.802 235.724 112.383 235.62 113.045 235.62C113.701 235.62 114.287 235.724 114.805 235.932C115.322 236.14 115.738 236.436 116.053 236.82C116.373 237.199 116.562 237.642 116.621 238.148L115.165 238.412C115.095 237.948 114.871 237.583 114.493 237.316C114.119 237.05 113.637 236.908 113.045 236.892C112.485 236.871 112.029 236.97 111.677 237.188C111.33 237.407 111.157 237.703 111.157 238.076C111.157 238.284 111.221 238.463 111.349 238.612C111.482 238.762 111.725 238.903 112.077 239.036C112.434 239.17 112.951 239.322 113.629 239.492C114.391 239.684 114.991 239.895 115.429 240.124C115.871 240.348 116.186 240.615 116.373 240.924C116.559 241.228 116.653 241.604 116.653 242.052C116.653 242.884 116.346 243.54 115.733 244.02C115.119 244.495 114.274 244.732 113.197 244.732ZM120.947 244.724C120.392 244.724 119.915 244.636 119.515 244.46C119.12 244.284 118.792 244.05 118.531 243.756C118.27 243.463 118.064 243.138 117.915 242.78C117.766 242.423 117.659 242.058 117.595 241.684C117.536 241.311 117.507 240.962 117.507 240.636V235.86H118.947V240.188C118.947 240.594 118.984 240.986 119.059 241.364C119.134 241.743 119.259 242.084 119.435 242.388C119.616 242.692 119.856 242.932 120.155 243.108C120.459 243.284 120.838 243.372 121.291 243.372C121.648 243.372 121.974 243.311 122.267 243.188C122.56 243.066 122.811 242.884 123.019 242.644C123.227 242.399 123.387 242.09 123.499 241.716C123.611 241.343 123.667 240.908 123.667 240.412L124.603 240.7C124.603 241.532 124.451 242.25 124.147 242.852C123.848 243.455 123.424 243.919 122.875 244.244C122.331 244.564 121.688 244.724 120.947 244.724ZM123.827 244.5V242.188H123.667V235.86H125.099V244.5H123.827ZM126.589 244.5V235.86H127.861V237.948L127.653 237.676C127.754 237.41 127.885 237.164 128.045 236.94C128.21 236.716 128.394 236.532 128.597 236.388C128.821 236.207 129.074 236.068 129.357 235.972C129.639 235.876 129.927 235.82 130.221 235.804C130.514 235.783 130.789 235.802 131.045 235.86V237.196C130.746 237.116 130.418 237.095 130.061 237.132C129.703 237.17 129.373 237.3 129.069 237.524C128.791 237.722 128.575 237.962 128.421 238.244C128.271 238.527 128.167 238.834 128.109 239.164C128.05 239.49 128.021 239.823 128.021 240.164V244.5H126.589ZM135.395 244.74C134.547 244.74 133.806 244.554 133.171 244.18C132.542 243.802 132.051 243.276 131.699 242.604C131.347 241.927 131.171 241.138 131.171 240.236C131.171 239.292 131.345 238.476 131.691 237.788C132.038 237.095 132.521 236.562 133.139 236.188C133.763 235.81 134.494 235.62 135.331 235.62C136.201 235.62 136.939 235.82 137.547 236.22C138.161 236.62 138.619 237.191 138.923 237.932C139.233 238.674 139.366 239.556 139.323 240.58H137.883V240.068C137.867 239.007 137.651 238.215 137.235 237.692C136.819 237.164 136.201 236.9 135.379 236.9C134.499 236.9 133.83 237.183 133.371 237.748C132.913 238.314 132.683 239.124 132.683 240.18C132.683 241.199 132.913 241.988 133.371 242.548C133.83 243.108 134.483 243.388 135.331 243.388C135.902 243.388 136.398 243.258 136.819 242.996C137.241 242.735 137.571 242.359 137.811 241.868L139.179 242.34C138.843 243.103 138.337 243.695 137.659 244.116C136.987 244.532 136.233 244.74 135.395 244.74ZM132.203 240.58V239.436H138.587V240.58H132.203ZM146.448 244.74C145.573 244.74 144.829 244.546 144.216 244.156C143.608 243.762 143.144 243.22 142.824 242.532C142.504 241.844 142.338 241.06 142.328 240.18C142.338 239.279 142.506 238.487 142.832 237.804C143.162 237.116 143.634 236.58 144.248 236.196C144.861 235.812 145.6 235.62 146.464 235.62C147.376 235.62 148.16 235.844 148.816 236.292C149.477 236.74 149.92 237.354 150.144 238.132L148.736 238.556C148.554 238.055 148.258 237.666 147.848 237.388C147.442 237.111 146.976 236.972 146.448 236.972C145.856 236.972 145.368 237.111 144.984 237.388C144.6 237.66 144.314 238.039 144.128 238.524C143.941 239.004 143.845 239.556 143.84 240.18C143.85 241.14 144.072 241.916 144.504 242.508C144.941 243.095 145.589 243.388 146.448 243.388C147.013 243.388 147.482 243.26 147.856 243.004C148.229 242.743 148.512 242.367 148.704 241.876L150.144 242.252C149.845 243.058 149.378 243.674 148.744 244.1C148.109 244.527 147.344 244.74 146.448 244.74ZM154.472 244.74C153.613 244.74 152.872 244.546 152.248 244.156C151.629 243.767 151.152 243.228 150.816 242.54C150.48 241.852 150.312 241.063 150.312 240.172C150.312 239.266 150.483 238.471 150.824 237.788C151.165 237.106 151.648 236.575 152.272 236.196C152.896 235.812 153.629 235.62 154.472 235.62C155.336 235.62 156.08 235.815 156.704 236.204C157.328 236.588 157.805 237.124 158.136 237.812C158.472 238.495 158.64 239.282 158.64 240.172C158.64 241.074 158.472 241.868 158.136 242.556C157.8 243.239 157.32 243.775 156.696 244.164C156.072 244.548 155.331 244.74 154.472 244.74ZM154.472 243.388C155.368 243.388 156.035 243.09 156.472 242.492C156.909 241.895 157.128 241.122 157.128 240.172C157.128 239.196 156.907 238.42 156.464 237.844C156.021 237.263 155.357 236.972 154.472 236.972C153.869 236.972 153.373 237.108 152.984 237.38C152.595 237.652 152.304 238.028 152.112 238.508C151.92 238.988 151.824 239.543 151.824 240.172C151.824 241.143 152.048 241.922 152.496 242.508C152.944 243.095 153.603 243.388 154.472 243.388ZM169.979 244.5L169.987 238.972C169.987 238.327 169.814 237.823 169.467 237.46C169.126 237.092 168.681 236.908 168.131 236.908C167.811 236.908 167.507 236.983 167.219 237.132C166.931 237.276 166.697 237.506 166.515 237.82C166.334 238.13 166.243 238.527 166.243 239.012L165.491 238.708C165.481 238.095 165.606 237.559 165.867 237.1C166.134 236.636 166.497 236.276 166.955 236.02C167.414 235.764 167.931 235.636 168.507 235.636C169.409 235.636 170.118 235.911 170.635 236.46C171.153 237.004 171.411 237.738 171.411 238.66L171.403 244.5H169.979ZM159.643 244.5V235.86H160.915V238.172H161.075V244.5H159.643ZM164.819 244.5L164.827 239.028C164.827 238.367 164.657 237.85 164.315 237.476C163.974 237.098 163.521 236.908 162.955 236.908C162.395 236.908 161.942 237.1 161.595 237.484C161.249 237.868 161.075 238.378 161.075 239.012L160.323 238.564C160.323 238.004 160.457 237.503 160.723 237.06C160.99 236.618 161.353 236.271 161.811 236.02C162.27 235.764 162.79 235.636 163.371 235.636C163.953 235.636 164.459 235.759 164.891 236.004C165.323 236.25 165.657 236.602 165.891 237.06C166.126 237.514 166.243 238.055 166.243 238.684L166.235 244.5H164.819ZM176.713 244.74C175.902 244.74 175.22 244.54 174.665 244.14C174.11 243.735 173.689 243.188 173.401 242.5C173.118 241.807 172.977 241.031 172.977 240.172C172.977 239.303 173.118 238.524 173.401 237.836C173.689 237.148 174.11 236.607 174.665 236.212C175.225 235.818 175.91 235.62 176.721 235.62C177.521 235.62 178.209 235.82 178.785 236.22C179.366 236.615 179.812 237.156 180.121 237.844C180.43 238.532 180.585 239.308 180.585 240.172C180.585 241.036 180.43 241.812 180.121 242.5C179.812 243.188 179.366 243.735 178.785 244.14C178.209 244.54 177.518 244.74 176.713 244.74ZM172.737 248.34V235.86H174.009V242.22H174.169V248.34H172.737ZM176.537 243.436C177.108 243.436 177.58 243.292 177.953 243.004C178.326 242.716 178.606 242.327 178.793 241.836C178.98 241.34 179.073 240.786 179.073 240.172C179.073 239.564 178.98 239.015 178.793 238.524C178.612 238.034 178.329 237.644 177.945 237.356C177.566 237.068 177.084 236.924 176.497 236.924C175.937 236.924 175.473 237.063 175.105 237.34C174.737 237.612 174.462 237.994 174.281 238.484C174.1 238.97 174.009 239.532 174.009 240.172C174.009 240.802 174.097 241.364 174.273 241.86C174.454 242.351 174.732 242.738 175.105 243.02C175.478 243.298 175.956 243.436 176.537 243.436ZM181.749 244.5V232.74H183.173V244.5H181.749ZM184.983 234.332V232.86H186.407V234.332H184.983ZM184.983 244.5V235.86H186.407V244.5H184.983ZM190.514 244.74C189.868 244.74 189.327 244.623 188.89 244.388C188.458 244.148 188.13 243.834 187.906 243.444C187.687 243.055 187.578 242.628 187.578 242.164C187.578 241.711 187.663 241.319 187.834 240.988C188.01 240.652 188.255 240.375 188.57 240.156C188.884 239.932 189.26 239.756 189.698 239.628C190.108 239.516 190.567 239.42 191.074 239.34C191.586 239.255 192.103 239.178 192.626 239.108C193.148 239.039 193.636 238.972 194.09 238.908L193.578 239.204C193.594 238.436 193.439 237.868 193.114 237.5C192.794 237.132 192.239 236.948 191.45 236.948C190.927 236.948 190.468 237.068 190.074 237.308C189.684 237.543 189.41 237.927 189.25 238.46L187.898 238.052C188.106 237.295 188.508 236.7 189.106 236.268C189.703 235.836 190.49 235.62 191.466 235.62C192.25 235.62 192.922 235.762 193.482 236.044C194.047 236.322 194.452 236.743 194.698 237.308C194.82 237.575 194.898 237.866 194.93 238.18C194.962 238.49 194.977 238.815 194.977 239.156V244.5H193.714V242.428L194.01 242.62C193.684 243.319 193.228 243.847 192.642 244.204C192.06 244.562 191.351 244.74 190.514 244.74ZM190.73 243.548C191.242 243.548 191.684 243.458 192.058 243.276C192.436 243.09 192.74 242.847 192.97 242.548C193.199 242.244 193.348 241.914 193.418 241.556C193.498 241.29 193.54 240.994 193.546 240.668C193.556 240.338 193.562 240.084 193.562 239.908L194.058 240.124C193.594 240.188 193.138 240.25 192.69 240.308C192.242 240.367 191.818 240.431 191.418 240.5C191.018 240.564 190.658 240.642 190.338 240.732C190.103 240.807 189.882 240.903 189.674 241.02C189.471 241.138 189.306 241.29 189.178 241.476C189.055 241.658 188.993 241.884 188.993 242.156C188.993 242.391 189.052 242.615 189.17 242.828C189.292 243.042 189.479 243.215 189.73 243.348C189.986 243.482 190.319 243.548 190.73 243.548ZM202.46 244.5V240.172C202.46 239.762 202.422 239.367 202.348 238.988C202.278 238.61 202.153 238.271 201.972 237.972C201.796 237.668 201.556 237.428 201.252 237.252C200.953 237.076 200.574 236.988 200.116 236.988C199.758 236.988 199.433 237.05 199.14 237.172C198.852 237.29 198.604 237.471 198.396 237.716C198.188 237.962 198.025 238.271 197.908 238.644C197.796 239.012 197.74 239.447 197.74 239.948L196.804 239.66C196.804 238.823 196.953 238.106 197.252 237.508C197.556 236.906 197.98 236.444 198.524 236.124C199.073 235.799 199.718 235.636 200.46 235.636C201.02 235.636 201.497 235.724 201.892 235.9C202.286 236.076 202.614 236.311 202.876 236.604C203.137 236.892 203.342 237.218 203.492 237.58C203.641 237.938 203.745 238.303 203.804 238.676C203.868 239.044 203.9 239.394 203.9 239.724V244.5H202.46ZM196.3 244.5V235.86H197.58V238.172H197.74V244.5H196.3ZM208.791 244.74C207.917 244.74 207.173 244.546 206.559 244.156C205.951 243.762 205.487 243.22 205.167 242.532C204.847 241.844 204.682 241.06 204.671 240.18C204.682 239.279 204.85 238.487 205.175 237.804C205.506 237.116 205.978 236.58 206.591 236.196C207.205 235.812 207.943 235.62 208.807 235.62C209.719 235.62 210.503 235.844 211.159 236.292C211.821 236.74 212.263 237.354 212.487 238.132L211.079 238.556C210.898 238.055 210.602 237.666 210.191 237.388C209.786 237.111 209.319 236.972 208.791 236.972C208.199 236.972 207.711 237.111 207.327 237.388C206.943 237.66 206.658 238.039 206.471 238.524C206.285 239.004 206.189 239.556 206.183 240.18C206.194 241.14 206.415 241.916 206.847 242.508C207.285 243.095 207.933 243.388 208.791 243.388C209.357 243.388 209.826 243.26 210.199 243.004C210.573 242.743 210.855 242.367 211.047 241.876L212.487 242.252C212.189 243.058 211.722 243.674 211.087 244.1C210.453 244.527 209.687 244.74 208.791 244.74ZM216.88 244.74C216.032 244.74 215.29 244.554 214.656 244.18C214.026 243.802 213.536 243.276 213.184 242.604C212.832 241.927 212.656 241.138 212.656 240.236C212.656 239.292 212.829 238.476 213.176 237.788C213.522 237.095 214.005 236.562 214.624 236.188C215.248 235.81 215.978 235.62 216.816 235.62C217.685 235.62 218.424 235.82 219.032 236.22C219.645 236.62 220.104 237.191 220.408 237.932C220.717 238.674 220.85 239.556 220.808 240.58H219.368V240.068C219.352 239.007 219.136 238.215 218.72 237.692C218.304 237.164 217.685 236.9 216.864 236.9C215.984 236.9 215.314 237.183 214.856 237.748C214.397 238.314 214.168 239.124 214.168 240.18C214.168 241.199 214.397 241.988 214.856 242.548C215.314 243.108 215.968 243.388 216.816 243.388C217.386 243.388 217.882 243.258 218.304 242.996C218.725 242.735 219.056 242.359 219.296 241.868L220.664 242.34C220.328 243.103 219.821 243.695 219.144 244.116C218.472 244.532 217.717 244.74 216.88 244.74ZM213.688 240.58V239.436H220.072V240.58H213.688ZM226.132 244.5L223.492 235.852L224.908 235.86L226.836 242.18L228.78 235.86H230.036L231.972 242.18L233.908 235.86H235.316L232.676 244.5H231.492L229.404 237.932L227.316 244.5H226.132ZM236.171 234.332V232.86H237.595V234.332H236.171ZM236.171 244.5V235.86H237.595V244.5H236.171ZM244.069 244.5C243.557 244.602 243.05 244.642 242.549 244.62C242.053 244.604 241.61 244.506 241.221 244.324C240.832 244.138 240.536 243.85 240.333 243.46C240.162 243.119 240.069 242.775 240.053 242.428C240.042 242.076 240.037 241.679 240.037 241.236V233.46H241.461V241.172C241.461 241.524 241.464 241.826 241.469 242.076C241.48 242.327 241.536 242.543 241.637 242.724C241.829 243.066 242.133 243.266 242.549 243.324C242.97 243.383 243.477 243.367 244.069 243.276V244.5ZM238.285 237.036V235.86H244.069V237.036H238.285ZM251.225 244.5V240.172C251.225 239.762 251.188 239.367 251.113 238.988C251.044 238.61 250.918 238.271 250.737 237.972C250.561 237.668 250.321 237.428 250.017 237.252C249.718 237.076 249.34 236.988 248.881 236.988C248.524 236.988 248.198 237.05 247.905 237.172C247.617 237.29 247.369 237.471 247.161 237.716C246.953 237.962 246.79 238.271 246.673 238.644C246.561 239.012 246.505 239.447 246.505 239.948L245.569 239.66C245.569 238.823 245.718 238.106 246.017 237.508C246.321 236.906 246.745 236.444 247.289 236.124C247.838 235.799 248.484 235.636 249.225 235.636C249.785 235.636 250.262 235.724 250.657 235.9C251.052 236.076 251.38 236.311 251.641 236.604C251.902 236.892 252.108 237.218 252.257 237.58C252.406 237.938 252.51 238.303 252.569 238.676C252.633 239.044 252.665 239.394 252.665 239.724V244.5H251.225ZM245.065 244.5V232.98H246.345V239.34H246.505V244.5H245.065ZM256.448 244.5V232.98H257.872V238.06H263.936V232.98H265.36V244.5H263.936V239.412H257.872V244.5H256.448ZM267.014 244.5V232.98H268.438V244.5H267.014ZM270.089 244.5V232.98H274.641C274.753 232.98 274.886 232.986 275.041 232.996C275.195 233.002 275.345 233.018 275.489 233.044C276.113 233.14 276.635 233.354 277.057 233.684C277.483 234.015 277.803 234.434 278.017 234.94C278.23 235.442 278.337 235.999 278.337 236.612C278.337 237.22 278.227 237.778 278.009 238.284C277.795 238.786 277.475 239.204 277.049 239.54C276.627 239.871 276.107 240.084 275.489 240.18C275.345 240.202 275.195 240.218 275.041 240.228C274.886 240.239 274.753 240.244 274.641 240.244H271.513V244.5H270.089ZM271.513 238.892H274.593C274.694 238.892 274.809 238.887 274.937 238.876C275.07 238.866 275.195 238.847 275.313 238.82C275.681 238.735 275.979 238.58 276.209 238.356C276.443 238.127 276.614 237.86 276.721 237.556C276.827 237.247 276.881 236.932 276.881 236.612C276.881 236.292 276.827 235.98 276.721 235.676C276.614 235.367 276.443 235.098 276.209 234.868C275.979 234.639 275.681 234.484 275.313 234.404C275.195 234.372 275.07 234.354 274.937 234.348C274.809 234.338 274.694 234.332 274.593 234.332H271.513V238.892ZM277.586 244.5L281.442 232.98H283.426L287.282 244.5H285.802L282.194 233.812H282.642L279.066 244.5H277.586ZM279.442 241.804V240.468H285.426V241.804H279.442ZM287.726 244.5L291.582 232.98H293.566L297.422 244.5H295.942L292.334 233.812H292.782L289.206 244.5H287.726ZM289.582 241.804V240.468H295.566V241.804H289.582ZM147.517 266.732C146.487 266.732 145.642 266.508 144.981 266.06C144.325 265.607 143.922 264.975 143.773 264.164L145.229 263.932C145.346 264.402 145.615 264.775 146.037 265.052C146.458 265.324 146.981 265.46 147.605 265.46C148.197 265.46 148.661 265.338 148.997 265.092C149.333 264.847 149.501 264.514 149.501 264.092C149.501 263.847 149.445 263.65 149.333 263.5C149.221 263.346 148.989 263.202 148.637 263.068C148.29 262.935 147.765 262.775 147.061 262.588C146.298 262.386 145.698 262.175 145.261 261.956C144.823 261.738 144.511 261.484 144.325 261.196C144.138 260.908 144.045 260.559 144.045 260.148C144.045 259.642 144.183 259.199 144.461 258.82C144.738 258.436 145.125 258.14 145.621 257.932C146.122 257.724 146.703 257.62 147.365 257.62C148.021 257.62 148.607 257.724 149.125 257.932C149.642 258.14 150.058 258.436 150.373 258.82C150.693 259.199 150.882 259.642 150.941 260.148L149.485 260.412C149.415 259.948 149.191 259.583 148.813 259.316C148.439 259.05 147.957 258.908 147.365 258.892C146.805 258.871 146.349 258.97 145.997 259.188C145.65 259.407 145.477 259.703 145.477 260.076C145.477 260.284 145.541 260.463 145.669 260.612C145.802 260.762 146.045 260.903 146.397 261.036C146.754 261.17 147.271 261.322 147.949 261.492C148.711 261.684 149.311 261.895 149.749 262.124C150.191 262.348 150.506 262.615 150.693 262.924C150.879 263.228 150.973 263.604 150.973 264.052C150.973 264.884 150.666 265.54 150.053 266.02C149.439 266.495 148.594 266.732 147.517 266.732ZM156.811 266.5C156.299 266.602 155.793 266.642 155.291 266.62C154.795 266.604 154.353 266.506 153.963 266.324C153.574 266.138 153.278 265.85 153.075 265.46C152.905 265.119 152.811 264.775 152.795 264.428C152.785 264.076 152.779 263.679 152.779 263.236V255.46H154.203V263.172C154.203 263.524 154.206 263.826 154.211 264.076C154.222 264.327 154.278 264.543 154.379 264.724C154.571 265.066 154.875 265.266 155.291 265.324C155.713 265.383 156.219 265.367 156.811 265.276V266.5ZM151.027 259.036V257.86H156.811V259.036H151.027ZM160.271 266.74C159.626 266.74 159.085 266.623 158.647 266.388C158.215 266.148 157.887 265.834 157.663 265.444C157.445 265.055 157.335 264.628 157.335 264.164C157.335 263.711 157.421 263.319 157.591 262.988C157.767 262.652 158.013 262.375 158.327 262.156C158.642 261.932 159.018 261.756 159.455 261.628C159.866 261.516 160.325 261.42 160.831 261.34C161.343 261.255 161.861 261.178 162.383 261.108C162.906 261.039 163.394 260.972 163.847 260.908L163.335 261.204C163.351 260.436 163.197 259.868 162.871 259.5C162.551 259.132 161.997 258.948 161.207 258.948C160.685 258.948 160.226 259.068 159.831 259.308C159.442 259.543 159.167 259.927 159.007 260.46L157.655 260.052C157.863 259.295 158.266 258.7 158.863 258.268C159.461 257.836 160.247 257.62 161.223 257.62C162.007 257.62 162.679 257.762 163.239 258.044C163.805 258.322 164.21 258.743 164.455 259.308C164.578 259.575 164.655 259.866 164.687 260.18C164.719 260.49 164.735 260.815 164.735 261.156V266.5H163.471V264.428L163.767 264.62C163.442 265.319 162.986 265.847 162.399 266.204C161.818 266.562 161.109 266.74 160.271 266.74ZM160.487 265.548C160.999 265.548 161.442 265.458 161.815 265.276C162.194 265.09 162.498 264.847 162.727 264.548C162.957 264.244 163.106 263.914 163.175 263.556C163.255 263.29 163.298 262.994 163.303 262.668C163.314 262.338 163.319 262.084 163.319 261.908L163.815 262.124C163.351 262.188 162.895 262.25 162.447 262.308C161.999 262.367 161.575 262.431 161.175 262.5C160.775 262.564 160.415 262.642 160.095 262.732C159.861 262.807 159.639 262.903 159.431 263.02C159.229 263.138 159.063 263.29 158.935 263.476C158.813 263.658 158.751 263.884 158.751 264.156C158.751 264.391 158.81 264.615 158.927 264.828C159.05 265.042 159.237 265.215 159.487 265.348C159.743 265.482 160.077 265.548 160.487 265.548ZM172.217 266.5V262.172C172.217 261.762 172.18 261.367 172.105 260.988C172.036 260.61 171.911 260.271 171.729 259.972C171.553 259.668 171.313 259.428 171.009 259.252C170.711 259.076 170.332 258.988 169.873 258.988C169.516 258.988 169.191 259.05 168.897 259.172C168.609 259.29 168.361 259.471 168.153 259.716C167.945 259.962 167.783 260.271 167.665 260.644C167.553 261.012 167.497 261.447 167.497 261.948L166.561 261.66C166.561 260.823 166.711 260.106 167.009 259.508C167.313 258.906 167.737 258.444 168.281 258.124C168.831 257.799 169.476 257.636 170.217 257.636C170.777 257.636 171.255 257.724 171.649 257.9C172.044 258.076 172.372 258.311 172.633 258.604C172.895 258.892 173.1 259.218 173.249 259.58C173.399 259.938 173.503 260.303 173.561 260.676C173.625 261.044 173.657 261.394 173.657 261.724V266.5H172.217ZM166.057 266.5V257.86H167.337V260.172H167.497V266.5H166.057ZM178.301 266.74C177.496 266.74 176.805 266.54 176.229 266.14C175.653 265.735 175.208 265.188 174.893 264.5C174.584 263.812 174.429 263.036 174.429 262.172C174.429 261.308 174.584 260.532 174.893 259.844C175.208 259.156 175.653 258.615 176.229 258.22C176.805 257.82 177.493 257.62 178.293 257.62C179.109 257.62 179.794 257.818 180.349 258.212C180.904 258.607 181.322 259.148 181.605 259.836C181.893 260.524 182.037 261.303 182.037 262.172C182.037 263.031 181.893 263.807 181.605 264.5C181.322 265.188 180.904 265.735 180.349 266.14C179.794 266.54 179.112 266.74 178.301 266.74ZM178.477 265.436C179.058 265.436 179.536 265.298 179.909 265.02C180.282 264.738 180.557 264.351 180.733 263.86C180.914 263.364 181.005 262.802 181.005 262.172C181.005 261.532 180.914 260.97 180.733 260.484C180.557 259.994 180.285 259.612 179.917 259.34C179.549 259.063 179.082 258.924 178.517 258.924C177.93 258.924 177.445 259.068 177.061 259.356C176.682 259.644 176.4 260.034 176.213 260.524C176.032 261.015 175.941 261.564 175.941 262.172C175.941 262.786 176.034 263.34 176.221 263.836C176.408 264.327 176.688 264.716 177.061 265.004C177.44 265.292 177.912 265.436 178.477 265.436ZM181.005 266.5V260.14H180.845V254.98H182.277V266.5H181.005ZM186.224 266.74C185.579 266.74 185.038 266.623 184.6 266.388C184.168 266.148 183.84 265.834 183.616 265.444C183.398 265.055 183.288 264.628 183.288 264.164C183.288 263.711 183.374 263.319 183.544 262.988C183.72 262.652 183.966 262.375 184.28 262.156C184.595 261.932 184.971 261.756 185.408 261.628C185.819 261.516 186.278 261.42 186.784 261.34C187.296 261.255 187.814 261.178 188.336 261.108C188.859 261.039 189.347 260.972 189.8 260.908L189.288 261.204C189.304 260.436 189.15 259.868 188.824 259.5C188.504 259.132 187.95 258.948 187.16 258.948C186.638 258.948 186.179 259.068 185.784 259.308C185.395 259.543 185.12 259.927 184.96 260.46L183.608 260.052C183.816 259.295 184.219 258.7 184.816 258.268C185.414 257.836 186.2 257.62 187.176 257.62C187.96 257.62 188.632 257.762 189.192 258.044C189.758 258.322 190.163 258.743 190.408 259.308C190.531 259.575 190.608 259.866 190.64 260.18C190.672 260.49 190.688 260.815 190.688 261.156V266.5H189.424V264.428L189.72 264.62C189.395 265.319 188.939 265.847 188.352 266.204C187.771 266.562 187.062 266.74 186.224 266.74ZM186.44 265.548C186.952 265.548 187.395 265.458 187.768 265.276C188.147 265.09 188.451 264.847 188.68 264.548C188.91 264.244 189.059 263.914 189.128 263.556C189.208 263.29 189.251 262.994 189.256 262.668C189.267 262.338 189.272 262.084 189.272 261.908L189.768 262.124C189.304 262.188 188.848 262.25 188.4 262.308C187.952 262.367 187.528 262.431 187.128 262.5C186.728 262.564 186.368 262.642 186.048 262.732C185.814 262.807 185.592 262.903 185.384 263.02C185.182 263.138 185.016 263.29 184.888 263.476C184.766 263.658 184.704 263.884 184.704 264.156C184.704 264.391 184.763 264.615 184.88 264.828C185.003 265.042 185.19 265.215 185.44 265.348C185.696 265.482 186.03 265.548 186.44 265.548ZM192.018 266.5V257.86H193.29V259.948L193.082 259.676C193.184 259.41 193.314 259.164 193.474 258.94C193.64 258.716 193.824 258.532 194.026 258.388C194.25 258.207 194.504 258.068 194.786 257.972C195.069 257.876 195.357 257.82 195.65 257.804C195.944 257.783 196.218 257.802 196.474 257.86V259.196C196.176 259.116 195.848 259.095 195.49 259.132C195.133 259.17 194.802 259.3 194.498 259.524C194.221 259.722 194.005 259.962 193.85 260.244C193.701 260.527 193.597 260.834 193.538 261.164C193.48 261.49 193.45 261.823 193.45 262.164V266.5H192.018ZM200.473 266.74C199.668 266.74 198.977 266.54 198.401 266.14C197.825 265.735 197.38 265.188 197.065 264.5C196.756 263.812 196.601 263.036 196.601 262.172C196.601 261.308 196.756 260.532 197.065 259.844C197.38 259.156 197.825 258.615 198.401 258.22C198.977 257.82 199.665 257.62 200.465 257.62C201.281 257.62 201.966 257.818 202.521 258.212C203.076 258.607 203.494 259.148 203.777 259.836C204.065 260.524 204.209 261.303 204.209 262.172C204.209 263.031 204.065 263.807 203.777 264.5C203.494 265.188 203.076 265.735 202.521 266.14C201.966 266.54 201.284 266.74 200.473 266.74ZM200.649 265.436C201.23 265.436 201.708 265.298 202.081 265.02C202.454 264.738 202.729 264.351 202.905 263.86C203.086 263.364 203.177 262.802 203.177 262.172C203.177 261.532 203.086 260.97 202.905 260.484C202.729 259.994 202.457 259.612 202.089 259.34C201.721 259.063 201.254 258.924 200.689 258.924C200.102 258.924 199.617 259.068 199.233 259.356C198.854 259.644 198.572 260.034 198.385 260.524C198.204 261.015 198.113 261.564 198.113 262.172C198.113 262.786 198.206 263.34 198.393 263.836C198.58 264.327 198.86 264.716 199.233 265.004C199.612 265.292 200.084 265.436 200.649 265.436ZM203.177 266.5V260.14H203.017V254.98H204.449V266.5H203.177ZM209.204 266.732C208.175 266.732 207.33 266.508 206.668 266.06C206.012 265.607 205.61 264.975 205.46 264.164L206.916 263.932C207.034 264.402 207.303 264.775 207.724 265.052C208.146 265.324 208.668 265.46 209.292 265.46C209.884 265.46 210.348 265.338 210.684 265.092C211.02 264.847 211.188 264.514 211.188 264.092C211.188 263.847 211.132 263.65 211.02 263.5C210.908 263.346 210.676 263.202 210.324 263.068C209.978 262.935 209.452 262.775 208.748 262.588C207.986 262.386 207.386 262.175 206.948 261.956C206.511 261.738 206.199 261.484 206.012 261.196C205.826 260.908 205.732 260.559 205.732 260.148C205.732 259.642 205.871 259.199 206.148 258.82C206.426 258.436 206.812 258.14 207.308 257.932C207.81 257.724 208.391 257.62 209.052 257.62C209.708 257.62 210.295 257.724 210.812 257.932C211.33 258.14 211.746 258.436 212.06 258.82C212.38 259.199 212.57 259.642 212.628 260.148L211.172 260.412C211.103 259.948 210.879 259.583 210.5 259.316C210.127 259.05 209.644 258.908 209.052 258.892C208.492 258.871 208.036 258.97 207.684 259.188C207.338 259.407 207.164 259.703 207.164 260.076C207.164 260.284 207.228 260.463 207.356 260.612C207.49 260.762 207.732 260.903 208.084 261.036C208.442 261.17 208.959 261.322 209.636 261.492C210.399 261.684 210.999 261.895 211.436 262.124C211.879 262.348 212.194 262.615 212.38 262.924C212.567 263.228 212.66 263.604 212.66 264.052C212.66 264.884 212.354 265.54 211.74 266.02C211.127 266.495 210.282 266.732 209.204 266.732ZM213.931 266.5V264.932H215.499V266.5H213.931Z" fill="#696969"/>
</g>
<defs>
<filter id="filter0_d_0_2182" x="0" y="0" width="360" height="360" filterUnits="userSpaceOnUse" color-interpolation-filters="sRGB">
<feFlood flood-opacity="0" result="BackgroundImageFix"/>
<feColorMatrix in="SourceAlpha" type="matrix" values="0 0 0 0 0 0 0 0 0 0 0 0 0 0 0 0 0 0 127 0" result="hardAlpha"/>
<feOffset/>
<feGaussianBlur stdDeviation="10"/>
<feComposite in2="hardAlpha" operator="out"/>
<feColorMatrix type="matrix" values="0 0 0 0 0 0 0 0 0 0 0 0 0 0 0 0 0 0 0.12 0"/>
<feBlend mode="normal" in2="BackgroundImageFix" result="effect1_dropShadow_0_2182"/>
<feBlend mode="normal" in="SourceGraphic" in2="effect1_dropShadow_0_2182" result="shape"/>
</filter>
</defs>
</svg>
