<svg width="360" height="360" viewBox="0 0 360 360" fill="none" xmlns="http://www.w3.org/2000/svg">
<g filter="url(#filter0_d_0_2120)">
<rect x="20" y="20" width="320" height="320" rx="20" fill="white" shape-rendering="crispEdges"/>
<path d="M191.553 145.053H168.447C165.414 145.053 162.947 142.585 162.947 139.553V116.448C162.947 113.416 165.414 110.948 168.447 110.948H191.553C194.586 110.948 197.053 113.416 197.053 116.448V139.553C197.053 142.585 194.586 145.053 191.553 145.053ZM168.447 113.948C167.069 113.948 165.947 115.069 165.947 116.448V139.553C165.947 140.932 167.069 142.053 168.447 142.053H191.553C192.931 142.053 194.053 140.932 194.053 139.553V116.448C194.053 115.069 192.931 113.948 191.553 113.948H168.447Z" fill="#CD6028"/>
<path d="M180.006 113.947C179.177 113.947 178.506 113.275 178.506 112.447V106.702C178.506 105.874 179.177 105.202 180.006 105.202C180.835 105.202 181.506 105.874 181.506 106.702V112.447C181.506 113.275 180.835 113.947 180.006 113.947Z" fill="#CD6028"/>
<path d="M180.006 108.203C177.607 108.203 175.655 106.251 175.655 103.851C175.655 101.451 177.607 99.4995 180.006 99.4995C182.405 99.4995 184.357 101.452 184.357 103.851C184.357 106.25 182.405 108.203 180.006 108.203ZM180.006 102.501C179.261 102.501 178.655 103.106 178.655 103.852C178.655 104.598 179.261 105.204 180.006 105.204C180.751 105.204 181.357 104.598 181.357 103.852C181.357 103.106 180.751 102.501 180.006 102.501Z" fill="#CD6028"/>
<path d="M164.447 129.495H158.702C157.873 129.495 157.202 128.823 157.202 127.995C157.202 127.167 157.873 126.495 158.702 126.495H164.447C165.276 126.495 165.947 127.167 165.947 127.995C165.947 128.823 165.276 129.495 164.447 129.495Z" fill="#CD6028"/>
<path d="M155.851 132.346C153.452 132.346 151.5 130.394 151.5 127.995C151.5 125.596 153.452 123.643 155.851 123.643C158.25 123.643 160.202 125.595 160.202 127.995C160.202 130.395 158.25 132.346 155.851 132.346ZM155.851 126.644C155.106 126.644 154.5 127.25 154.5 127.996C154.5 128.742 155.106 129.347 155.851 129.347C156.596 129.347 157.202 128.742 157.202 127.996C157.202 127.25 156.596 126.644 155.851 126.644Z" fill="#CD6028"/>
<path d="M201.298 129.507H195.553C194.724 129.507 194.053 128.835 194.053 128.007C194.053 127.179 194.724 126.507 195.553 126.507H201.298C202.127 126.507 202.798 127.179 202.798 128.007C202.798 128.835 202.127 129.507 201.298 129.507Z" fill="#CD6028"/>
<path d="M204.149 132.358C201.75 132.358 199.798 130.406 199.798 128.006C199.798 125.606 201.75 123.655 204.149 123.655C206.548 123.655 208.5 125.607 208.5 128.006C208.5 130.405 206.548 132.358 204.149 132.358ZM204.149 126.656C203.404 126.656 202.798 127.261 202.798 128.007C202.798 128.753 203.404 129.359 204.149 129.359C204.894 129.359 205.5 128.753 205.5 128.007C205.5 127.261 204.894 126.656 204.149 126.656Z" fill="#CD6028"/>
<path d="M179.994 150.798C179.165 150.798 178.494 150.126 178.494 149.298V143.553C178.494 142.725 179.165 142.053 179.994 142.053C180.823 142.053 181.494 142.725 181.494 143.553V149.298C181.494 150.126 180.823 150.798 179.994 150.798Z" fill="#CD6028"/>
<path d="M179.994 156.5C177.595 156.5 175.643 154.548 175.643 152.149C175.643 149.75 177.595 147.797 179.994 147.797C182.393 147.797 184.345 149.749 184.345 152.149C184.345 154.549 182.393 156.5 179.994 156.5ZM179.994 150.798C179.249 150.798 178.643 151.404 178.643 152.15C178.643 152.896 179.249 153.501 179.994 153.501C180.739 153.501 181.345 152.896 181.345 152.15C181.345 151.404 180.739 150.798 179.994 150.798Z" fill="#CD6028"/>
<path d="M189.09 113.95C188.261 113.95 187.59 113.278 187.59 112.45V104C187.59 103.172 188.261 102.5 189.09 102.5H193.266C194.095 102.5 194.766 103.172 194.766 104C194.766 104.828 194.095 105.5 193.266 105.5H190.59V112.45C190.59 113.278 189.919 113.95 189.09 113.95Z" fill="#CD6028"/>
<path d="M204 120.41H195.55C194.721 120.41 194.05 119.738 194.05 118.91C194.05 118.082 194.721 117.41 195.55 117.41H202.5V114.741C202.5 113.913 203.171 113.241 204 113.241C204.829 113.241 205.5 113.913 205.5 114.741V118.91C205.5 119.738 204.829 120.41 204 120.41Z" fill="#CD6028"/>
<path d="M204 142.767C203.171 142.767 202.5 142.095 202.5 141.267V138.591H195.55C194.721 138.591 194.05 137.919 194.05 137.091C194.05 136.263 194.721 135.591 195.55 135.591H204C204.829 135.591 205.5 136.263 205.5 137.091V141.267C205.5 142.095 204.829 142.767 204 142.767Z" fill="#CD6028"/>
<path d="M193.258 153.501H189.09C188.261 153.501 187.59 152.829 187.59 152.001V143.551C187.59 142.723 188.261 142.051 189.09 142.051C189.919 142.051 190.59 142.723 190.59 143.551V150.501H193.258C194.087 150.501 194.758 151.173 194.758 152.001C194.758 152.829 194.087 153.501 193.258 153.501Z" fill="#CD6028"/>
<path d="M170.91 153.501H166.734C165.905 153.501 165.234 152.829 165.234 152.001C165.234 151.173 165.905 150.501 166.734 150.501H169.41V143.551C169.41 142.723 170.081 142.051 170.91 142.051C171.739 142.051 172.41 142.723 172.41 143.551V152.001C172.41 152.829 171.739 153.501 170.91 153.501Z" fill="#CD6028"/>
<path d="M156 142.76C155.171 142.76 154.5 142.088 154.5 141.26V137.091C154.5 136.263 155.171 135.591 156 135.591H164.45C165.279 135.591 165.95 136.263 165.95 137.091C165.95 137.919 165.279 138.591 164.45 138.591H157.5V141.26C157.5 142.088 156.829 142.76 156 142.76Z" fill="#CD6028"/>
<path d="M164.45 120.41H156C155.171 120.41 154.5 119.738 154.5 118.91V114.734C154.5 113.906 155.171 113.234 156 113.234C156.829 113.234 157.5 113.906 157.5 114.734V117.41H164.45C165.279 117.41 165.95 118.082 165.95 118.91C165.95 119.738 165.279 120.41 164.45 120.41Z" fill="#CD6028"/>
<path d="M170.91 113.95C170.081 113.95 169.41 113.278 169.41 112.45V105.5H166.742C165.913 105.5 165.242 104.828 165.242 104C165.242 103.172 165.913 102.5 166.742 102.5H170.91C171.739 102.5 172.41 103.172 172.41 104V112.45C172.41 113.278 171.739 113.95 170.91 113.95Z" fill="#CD6028"/>
<path d="M180.526 117.758C180.286 117.59 179.999 117.5 179.705 117.5C179.411 117.5 179.124 117.59 178.884 117.758C177.342 118.841 174.269 120.668 171.017 120.732C170.642 120.743 170.286 120.898 170.026 121.166C169.766 121.434 169.622 121.793 169.625 122.165C169.674 126.946 170.706 133.796 179.056 138.064C179.257 138.166 179.48 138.22 179.705 138.22C179.931 138.22 180.154 138.166 180.355 138.064C188.704 133.796 189.736 126.946 189.785 122.164C189.788 121.792 189.644 121.434 189.384 121.166C189.123 120.898 188.767 120.742 188.393 120.732C185.142 120.668 182.068 118.841 180.526 117.758ZM184.51 126.541L179.808 130.963C179.547 131.209 179.199 131.343 178.84 131.338C178.48 131.334 178.137 131.19 177.882 130.937L175.593 128.663C175.347 128.404 175.212 128.06 175.217 127.704C175.222 127.348 175.367 127.008 175.62 126.755C175.874 126.503 176.217 126.359 176.576 126.354C176.935 126.349 177.281 126.482 177.543 126.726L178.884 128.057L182.611 124.552C182.742 124.424 182.897 124.323 183.068 124.255C183.238 124.187 183.421 124.153 183.604 124.156C183.788 124.159 183.969 124.199 184.138 124.272C184.306 124.345 184.457 124.451 184.584 124.584C184.71 124.716 184.809 124.872 184.874 125.043C184.938 125.213 184.968 125.395 184.961 125.577C184.955 125.76 184.911 125.939 184.834 126.104C184.756 126.269 184.646 126.418 184.51 126.54V126.541Z" fill="#3E6EB4"/>
<path d="M126.104 194.5V177.46H128.792V194.5H126.104ZM143.563 194.5H140.923V187.468C140.923 186.284 140.731 185.428 140.347 184.9C139.979 184.356 139.427 184.084 138.691 184.084C138.307 184.084 137.923 184.156 137.539 184.3C137.155 184.444 136.795 184.652 136.459 184.924C136.123 185.18 135.819 185.492 135.547 185.86C135.291 186.212 135.091 186.604 134.947 187.036V194.5H132.307V181.948H134.707V184.468C135.187 183.62 135.883 182.956 136.795 182.476C137.707 181.98 138.715 181.732 139.819 181.732C140.571 181.732 141.187 181.868 141.667 182.14C142.147 182.412 142.523 182.788 142.795 183.268C143.083 183.732 143.283 184.276 143.395 184.9C143.507 185.508 143.563 186.156 143.563 186.844V194.5ZM151.187 194.74C150.179 194.74 149.171 194.58 148.163 194.26C147.171 193.924 146.315 193.452 145.595 192.844L146.651 191.164C147.403 191.708 148.147 192.124 148.883 192.412C149.619 192.684 150.371 192.82 151.139 192.82C151.923 192.82 152.539 192.668 152.987 192.364C153.451 192.06 153.683 191.628 153.683 191.068C153.683 190.54 153.427 190.156 152.915 189.916C152.403 189.676 151.603 189.412 150.515 189.124C149.731 188.916 149.059 188.716 148.499 188.524C147.939 188.332 147.483 188.108 147.131 187.852C146.779 187.596 146.523 187.3 146.363 186.964C146.203 186.628 146.123 186.22 146.123 185.74C146.123 185.1 146.243 184.532 146.483 184.036C146.739 183.54 147.083 183.124 147.515 182.788C147.963 182.436 148.483 182.172 149.075 181.996C149.667 181.82 150.307 181.732 150.995 181.732C151.939 181.732 152.819 181.876 153.635 182.164C154.451 182.452 155.179 182.868 155.819 183.412L154.691 184.996C153.523 184.068 152.283 183.604 150.971 183.604C150.299 183.604 149.731 183.748 149.267 184.036C148.819 184.308 148.595 184.748 148.595 185.356C148.595 185.612 148.643 185.828 148.739 186.004C148.835 186.18 148.987 186.332 149.195 186.46C149.419 186.588 149.699 186.708 150.035 186.82C150.387 186.916 150.819 187.028 151.331 187.156C152.179 187.364 152.907 187.572 153.515 187.78C154.139 187.988 154.651 188.236 155.051 188.524C155.451 188.796 155.747 189.124 155.939 189.508C156.131 189.876 156.227 190.324 156.227 190.852C156.227 192.052 155.771 193.004 154.859 193.708C153.963 194.396 152.739 194.74 151.187 194.74ZM162.397 194.74C161.085 194.74 160.093 194.316 159.421 193.468C158.749 192.604 158.413 191.324 158.413 189.628V181.948H161.053V189.1C161.053 191.356 161.853 192.484 163.453 192.484C164.205 192.484 164.917 192.252 165.589 191.788C166.261 191.324 166.781 190.652 167.149 189.772V181.948H169.789V191.38C169.789 191.684 169.837 191.9 169.933 192.028C170.045 192.156 170.237 192.228 170.509 192.244V194.5C170.237 194.548 170.013 194.58 169.837 194.596C169.661 194.612 169.493 194.62 169.333 194.62C168.853 194.62 168.445 194.492 168.109 194.236C167.773 193.964 167.597 193.62 167.581 193.204L167.533 191.956C166.973 192.868 166.245 193.564 165.349 194.044C164.453 194.508 163.469 194.74 162.397 194.74ZM180.214 184.228C179.19 184.26 178.278 184.5 177.478 184.948C176.694 185.38 176.134 186.004 175.798 186.82V194.5H173.158V181.948H175.606V184.756C176.038 183.892 176.598 183.204 177.286 182.692C177.99 182.164 178.742 181.876 179.542 181.828C179.702 181.828 179.83 181.828 179.926 181.828C180.038 181.828 180.134 181.836 180.214 181.852V184.228ZM185.307 194.74C184.699 194.74 184.131 194.644 183.603 194.452C183.091 194.244 182.643 193.964 182.259 193.612C181.891 193.26 181.595 192.844 181.371 192.364C181.163 191.884 181.059 191.364 181.059 190.804C181.059 190.212 181.187 189.676 181.443 189.196C181.699 188.716 182.059 188.3 182.523 187.948C183.003 187.596 183.563 187.324 184.203 187.132C184.859 186.94 185.579 186.844 186.363 186.844C186.955 186.844 187.539 186.9 188.115 187.012C188.691 187.108 189.211 187.244 189.675 187.42V186.556C189.675 185.628 189.411 184.908 188.883 184.396C188.355 183.868 187.595 183.604 186.603 183.604C185.931 183.604 185.267 183.732 184.611 183.988C183.971 184.228 183.307 184.58 182.619 185.044L181.803 183.364C183.419 182.276 185.099 181.732 186.843 181.732C188.571 181.732 189.915 182.172 190.875 183.052C191.835 183.932 192.315 185.196 192.315 186.844V191.38C192.315 191.94 192.547 192.228 193.011 192.244V194.5C192.755 194.548 192.531 194.58 192.339 194.596C192.163 194.612 191.987 194.62 191.811 194.62C191.299 194.62 190.899 194.492 190.611 194.236C190.339 193.98 190.171 193.652 190.107 193.252L190.035 192.46C189.475 193.196 188.779 193.764 187.947 194.164C187.131 194.548 186.251 194.74 185.307 194.74ZM186.027 192.796C186.667 192.796 187.267 192.684 187.827 192.46C188.403 192.22 188.851 191.892 189.171 191.476C189.507 191.188 189.675 190.884 189.675 190.564V188.908C189.227 188.732 188.747 188.596 188.235 188.5C187.739 188.404 187.251 188.356 186.771 188.356C185.827 188.356 185.051 188.564 184.443 188.98C183.851 189.38 183.555 189.916 183.555 190.588C183.555 191.212 183.787 191.74 184.251 192.172C184.715 192.588 185.307 192.796 186.027 192.796ZM206.774 194.5H204.134V187.468C204.134 186.284 203.942 185.428 203.558 184.9C203.19 184.356 202.638 184.084 201.902 184.084C201.518 184.084 201.134 184.156 200.75 184.3C200.366 184.444 200.006 184.652 199.67 184.924C199.334 185.18 199.03 185.492 198.758 185.86C198.502 186.212 198.302 186.604 198.158 187.036V194.5H195.518V181.948H197.918V184.468C198.398 183.62 199.094 182.956 200.006 182.476C200.918 181.98 201.926 181.732 203.03 181.732C203.782 181.732 204.398 181.868 204.878 182.14C205.358 182.412 205.734 182.788 206.006 183.268C206.294 183.732 206.494 184.276 206.606 184.9C206.718 185.508 206.774 186.156 206.774 186.844V194.5ZM209.022 188.212C209.022 187.332 209.174 186.5 209.478 185.716C209.782 184.932 210.214 184.244 210.774 183.652C211.35 183.06 212.038 182.596 212.838 182.26C213.638 181.908 214.534 181.732 215.526 181.732C216.822 181.732 217.934 182.02 218.862 182.596C219.806 183.156 220.51 183.908 220.974 184.852L218.406 185.668C218.102 185.14 217.694 184.732 217.182 184.444C216.67 184.14 216.102 183.988 215.478 183.988C214.95 183.988 214.454 184.092 213.99 184.3C213.542 184.508 213.15 184.804 212.814 185.188C212.478 185.556 212.214 185.996 212.022 186.508C211.83 187.02 211.734 187.588 211.734 188.212C211.734 188.82 211.83 189.388 212.022 189.916C212.23 190.428 212.502 190.876 212.838 191.26C213.19 191.644 213.59 191.948 214.038 192.172C214.502 192.38 214.99 192.484 215.502 192.484C215.822 192.484 216.142 192.444 216.462 192.364C216.782 192.268 217.07 192.14 217.326 191.98C217.598 191.82 217.83 191.636 218.022 191.428C218.23 191.22 218.382 190.996 218.478 190.756L221.07 191.524C220.654 192.468 219.958 193.244 218.982 193.852C218.006 194.444 216.854 194.74 215.526 194.74C214.55 194.74 213.662 194.564 212.862 194.212C212.062 193.86 211.374 193.388 210.798 192.796C210.238 192.188 209.798 191.492 209.478 190.708C209.174 189.924 209.022 189.092 209.022 188.212ZM228.815 194.74C227.839 194.74 226.951 194.572 226.151 194.236C225.351 193.884 224.663 193.412 224.087 192.82C223.527 192.228 223.087 191.54 222.767 190.756C222.463 189.972 222.311 189.14 222.311 188.26C222.311 187.38 222.463 186.548 222.767 185.764C223.087 184.964 223.527 184.268 224.087 183.676C224.663 183.068 225.351 182.596 226.151 182.26C226.951 181.908 227.847 181.732 228.839 181.732C229.815 181.732 230.695 181.908 231.479 182.26C232.279 182.612 232.959 183.084 233.519 183.676C234.079 184.252 234.503 184.932 234.791 185.716C235.095 186.484 235.247 187.292 235.247 188.14C235.247 188.332 235.239 188.516 235.223 188.692C235.207 188.852 235.191 188.988 235.175 189.1H225.119C225.167 189.66 225.295 190.164 225.503 190.612C225.727 191.06 226.007 191.452 226.343 191.788C226.695 192.108 227.087 192.356 227.519 192.532C227.967 192.708 228.431 192.796 228.911 192.796C229.263 192.796 229.607 192.756 229.943 192.676C230.295 192.58 230.615 192.452 230.903 192.292C231.191 192.116 231.447 191.908 231.671 191.668C231.895 191.428 232.071 191.164 232.199 190.876L234.455 191.524C234.023 192.468 233.303 193.244 232.295 193.852C231.303 194.444 230.143 194.74 228.815 194.74ZM232.631 187.276C232.583 186.748 232.447 186.26 232.223 185.812C232.015 185.364 231.743 184.988 231.407 184.684C231.071 184.364 230.679 184.116 230.231 183.94C229.783 183.764 229.311 183.676 228.815 183.676C228.319 183.676 227.847 183.764 227.399 183.94C226.967 184.116 226.583 184.364 226.247 184.684C225.911 184.988 225.639 185.364 225.431 185.812C225.223 186.26 225.095 186.748 225.047 187.276H232.631Z" fill="#141219"/>
<path d="M67.8903 233.5L71.7463 221.98H73.7303L77.5863 233.5H76.1063L72.4983 222.812H72.9463L69.3703 233.5H67.8903ZM69.7463 230.804V229.468H75.7303V230.804H69.7463ZM81.5484 233.724C80.9938 233.724 80.5164 233.636 80.1164 233.46C79.7218 233.284 79.3938 233.05 79.1324 232.756C78.8711 232.463 78.6658 232.138 78.5164 231.78C78.3671 231.423 78.2604 231.058 78.1964 230.684C78.1378 230.311 78.1084 229.962 78.1084 229.636V224.86H79.5484V229.188C79.5484 229.594 79.5858 229.986 79.6604 230.364C79.7351 230.743 79.8604 231.084 80.0364 231.388C80.2178 231.692 80.4578 231.932 80.7564 232.108C81.0604 232.284 81.4391 232.372 81.8924 232.372C82.2498 232.372 82.5751 232.311 82.8684 232.188C83.1618 232.066 83.4124 231.884 83.6204 231.644C83.8284 231.399 83.9884 231.09 84.1004 230.716C84.2124 230.343 84.2684 229.908 84.2684 229.412L85.2044 229.7C85.2044 230.532 85.0524 231.25 84.7484 231.852C84.4498 232.455 84.0258 232.919 83.4764 233.244C82.9324 233.564 82.2898 233.724 81.5484 233.724ZM84.4284 233.5V231.188H84.2684V224.86H85.7004V233.5H84.4284ZM92.0143 233.5C91.5023 233.602 90.9956 233.642 90.4943 233.62C89.9983 233.604 89.5556 233.506 89.1663 233.324C88.777 233.138 88.481 232.85 88.2783 232.46C88.1076 232.119 88.0143 231.775 87.9983 231.428C87.9876 231.076 87.9823 230.679 87.9823 230.236V222.46H89.4063V230.172C89.4063 230.524 89.409 230.826 89.4143 231.076C89.425 231.327 89.481 231.543 89.5823 231.724C89.7743 232.066 90.0783 232.266 90.4943 232.324C90.9156 232.383 91.4223 232.367 92.0143 232.276V233.5ZM86.2303 226.036V224.86H92.0143V226.036H86.2303ZM96.3391 233.74C95.4804 233.74 94.7391 233.546 94.1151 233.156C93.4964 232.767 93.0191 232.228 92.6831 231.54C92.3471 230.852 92.1791 230.063 92.1791 229.172C92.1791 228.266 92.3497 227.471 92.6911 226.788C93.0324 226.106 93.5151 225.575 94.1391 225.196C94.7631 224.812 95.4964 224.62 96.3391 224.62C97.2031 224.62 97.9471 224.815 98.5711 225.204C99.1951 225.588 99.6724 226.124 100.003 226.812C100.339 227.495 100.507 228.282 100.507 229.172C100.507 230.074 100.339 230.868 100.003 231.556C99.6671 232.239 99.1871 232.775 98.5631 233.164C97.9391 233.548 97.1977 233.74 96.3391 233.74ZM96.3391 232.388C97.2351 232.388 97.9017 232.09 98.3391 231.492C98.7764 230.895 98.9951 230.122 98.9951 229.172C98.9951 228.196 98.7737 227.42 98.3311 226.844C97.8884 226.263 97.2244 225.972 96.3391 225.972C95.7364 225.972 95.2404 226.108 94.8511 226.38C94.4617 226.652 94.1711 227.028 93.9791 227.508C93.7871 227.988 93.6911 228.543 93.6911 229.172C93.6911 230.143 93.9151 230.922 94.3631 231.508C94.8111 232.095 95.4697 232.388 96.3391 232.388ZM111.846 233.5L111.854 227.972C111.854 227.327 111.681 226.823 111.334 226.46C110.993 226.092 110.548 225.908 109.998 225.908C109.678 225.908 109.374 225.983 109.086 226.132C108.798 226.276 108.564 226.506 108.382 226.82C108.201 227.13 108.11 227.527 108.11 228.012L107.358 227.708C107.348 227.095 107.473 226.559 107.734 226.1C108.001 225.636 108.364 225.276 108.822 225.02C109.281 224.764 109.798 224.636 110.374 224.636C111.276 224.636 111.985 224.911 112.502 225.46C113.02 226.004 113.278 226.738 113.278 227.66L113.27 233.5H111.846ZM101.51 233.5V224.86H102.782V227.172H102.942V233.5H101.51ZM106.686 233.5L106.694 228.028C106.694 227.367 106.524 226.85 106.182 226.476C105.841 226.098 105.388 225.908 104.822 225.908C104.262 225.908 103.809 226.1 103.462 226.484C103.116 226.868 102.942 227.378 102.942 228.012L102.19 227.564C102.19 227.004 102.324 226.503 102.59 226.06C102.857 225.618 103.22 225.271 103.678 225.02C104.137 224.764 104.657 224.636 105.238 224.636C105.82 224.636 106.326 224.759 106.758 225.004C107.19 225.25 107.524 225.602 107.758 226.06C107.993 226.514 108.11 227.055 108.11 227.684L108.102 233.5H106.686ZM117.068 233.74C116.423 233.74 115.882 233.623 115.444 233.388C115.012 233.148 114.684 232.834 114.46 232.444C114.242 232.055 114.132 231.628 114.132 231.164C114.132 230.711 114.218 230.319 114.388 229.988C114.564 229.652 114.81 229.375 115.124 229.156C115.439 228.932 115.815 228.756 116.252 228.628C116.663 228.516 117.122 228.42 117.628 228.34C118.14 228.255 118.658 228.178 119.18 228.108C119.703 228.039 120.191 227.972 120.644 227.908L120.132 228.204C120.148 227.436 119.994 226.868 119.668 226.5C119.348 226.132 118.794 225.948 118.004 225.948C117.482 225.948 117.023 226.068 116.628 226.308C116.239 226.543 115.964 226.927 115.804 227.46L114.452 227.052C114.66 226.295 115.063 225.7 115.66 225.268C116.258 224.836 117.044 224.62 118.02 224.62C118.804 224.62 119.476 224.762 120.036 225.044C120.602 225.322 121.007 225.743 121.252 226.308C121.375 226.575 121.452 226.866 121.484 227.18C121.516 227.49 121.532 227.815 121.532 228.156V233.5H120.268V231.428L120.564 231.62C120.239 232.319 119.783 232.847 119.196 233.204C118.615 233.562 117.906 233.74 117.068 233.74ZM117.284 232.548C117.796 232.548 118.239 232.458 118.612 232.276C118.991 232.09 119.295 231.847 119.524 231.548C119.754 231.244 119.903 230.914 119.972 230.556C120.052 230.29 120.095 229.994 120.1 229.668C120.111 229.338 120.116 229.084 120.116 228.908L120.612 229.124C120.148 229.188 119.692 229.25 119.244 229.308C118.796 229.367 118.372 229.431 117.972 229.5C117.572 229.564 117.212 229.642 116.892 229.732C116.658 229.807 116.436 229.903 116.228 230.02C116.026 230.138 115.86 230.29 115.732 230.476C115.61 230.658 115.548 230.884 115.548 231.156C115.548 231.391 115.607 231.615 115.724 231.828C115.847 232.042 116.034 232.215 116.284 232.348C116.54 232.482 116.874 232.548 117.284 232.548ZM127.686 233.5C127.174 233.602 126.668 233.642 126.166 233.62C125.67 233.604 125.228 233.506 124.838 233.324C124.449 233.138 124.153 232.85 123.95 232.46C123.78 232.119 123.686 231.775 123.67 231.428C123.66 231.076 123.654 230.679 123.654 230.236V222.46H125.078V230.172C125.078 230.524 125.081 230.826 125.086 231.076C125.097 231.327 125.153 231.543 125.254 231.724C125.446 232.066 125.75 232.266 126.166 232.324C126.588 232.383 127.094 232.367 127.686 232.276V233.5ZM121.902 226.036V224.86H127.686V226.036H121.902ZM132.075 233.74C131.227 233.74 130.486 233.554 129.851 233.18C129.222 232.802 128.731 232.276 128.379 231.604C128.027 230.927 127.851 230.138 127.851 229.236C127.851 228.292 128.024 227.476 128.371 226.788C128.718 226.095 129.2 225.562 129.819 225.188C130.443 224.81 131.174 224.62 132.011 224.62C132.88 224.62 133.619 224.82 134.227 225.22C134.84 225.62 135.299 226.191 135.603 226.932C135.912 227.674 136.046 228.556 136.003 229.58H134.563V229.068C134.547 228.007 134.331 227.215 133.915 226.692C133.499 226.164 132.88 225.9 132.059 225.9C131.179 225.9 130.51 226.183 130.051 226.748C129.592 227.314 129.363 228.124 129.363 229.18C129.363 230.199 129.592 230.988 130.051 231.548C130.51 232.108 131.163 232.388 132.011 232.388C132.582 232.388 133.078 232.258 133.499 231.996C133.92 231.735 134.251 231.359 134.491 230.868L135.859 231.34C135.523 232.103 135.016 232.695 134.339 233.116C133.667 233.532 132.912 233.74 132.075 233.74ZM128.883 229.58V228.436H135.267V229.58H128.883ZM143.127 233.74C142.253 233.74 141.509 233.546 140.895 233.156C140.287 232.762 139.823 232.22 139.503 231.532C139.183 230.844 139.018 230.06 139.007 229.18C139.018 228.279 139.186 227.487 139.511 226.804C139.842 226.116 140.314 225.58 140.927 225.196C141.541 224.812 142.279 224.62 143.143 224.62C144.055 224.62 144.839 224.844 145.495 225.292C146.157 225.74 146.599 226.354 146.823 227.132L145.415 227.556C145.234 227.055 144.938 226.666 144.527 226.388C144.122 226.111 143.655 225.972 143.127 225.972C142.535 225.972 142.047 226.111 141.663 226.388C141.279 226.66 140.994 227.039 140.807 227.524C140.621 228.004 140.525 228.556 140.519 229.18C140.53 230.14 140.751 230.916 141.183 231.508C141.621 232.095 142.269 232.388 143.127 232.388C143.693 232.388 144.162 232.26 144.535 232.004C144.909 231.743 145.191 231.367 145.383 230.876L146.823 231.252C146.525 232.058 146.058 232.674 145.423 233.1C144.789 233.527 144.023 233.74 143.127 233.74ZM147.632 233.5V221.74H149.056V233.5H147.632ZM153.162 233.74C152.517 233.74 151.975 233.623 151.538 233.388C151.106 233.148 150.778 232.834 150.554 232.444C150.335 232.055 150.226 231.628 150.226 231.164C150.226 230.711 150.311 230.319 150.482 229.988C150.658 229.652 150.903 229.375 151.218 229.156C151.533 228.932 151.909 228.756 152.346 228.628C152.757 228.516 153.215 228.42 153.722 228.34C154.234 228.255 154.751 228.178 155.274 228.108C155.797 228.039 156.285 227.972 156.738 227.908L156.226 228.204C156.242 227.436 156.087 226.868 155.762 226.5C155.442 226.132 154.887 225.948 154.098 225.948C153.575 225.948 153.117 226.068 152.722 226.308C152.333 226.543 152.058 226.927 151.898 227.46L150.546 227.052C150.754 226.295 151.157 225.7 151.754 225.268C152.351 224.836 153.138 224.62 154.114 224.62C154.898 224.62 155.57 224.762 156.13 225.044C156.695 225.322 157.101 225.743 157.346 226.308C157.469 226.575 157.546 226.866 157.578 227.18C157.61 227.49 157.626 227.815 157.626 228.156V233.5H156.362V231.428L156.658 231.62C156.333 232.319 155.877 232.847 155.29 233.204C154.709 233.562 153.999 233.74 153.162 233.74ZM153.378 232.548C153.89 232.548 154.333 232.458 154.706 232.276C155.085 232.09 155.389 231.847 155.618 231.548C155.847 231.244 155.997 230.914 156.066 230.556C156.146 230.29 156.189 229.994 156.194 229.668C156.205 229.338 156.21 229.084 156.21 228.908L156.706 229.124C156.242 229.188 155.786 229.25 155.338 229.308C154.89 229.367 154.466 229.431 154.066 229.5C153.666 229.564 153.306 229.642 152.986 229.732C152.751 229.807 152.53 229.903 152.322 230.02C152.119 230.138 151.954 230.29 151.826 230.476C151.703 230.658 151.642 230.884 151.642 231.156C151.642 231.391 151.701 231.615 151.818 231.828C151.941 232.042 152.127 232.215 152.378 232.348C152.634 232.482 152.967 232.548 153.378 232.548ZM159.116 223.332V221.86H160.54V223.332H159.116ZM159.116 233.5V224.86H160.54V233.5H159.116ZM172.518 233.5L172.526 227.972C172.526 227.327 172.353 226.823 172.006 226.46C171.665 226.092 171.22 225.908 170.67 225.908C170.35 225.908 170.046 225.983 169.758 226.132C169.47 226.276 169.236 226.506 169.054 226.82C168.873 227.13 168.782 227.527 168.782 228.012L168.03 227.708C168.02 227.095 168.145 226.559 168.406 226.1C168.673 225.636 169.036 225.276 169.494 225.02C169.953 224.764 170.47 224.636 171.046 224.636C171.948 224.636 172.657 224.911 173.174 225.46C173.692 226.004 173.95 226.738 173.95 227.66L173.942 233.5H172.518ZM162.182 233.5V224.86H163.454V227.172H163.614V233.5H162.182ZM167.358 233.5L167.366 228.028C167.366 227.367 167.196 226.85 166.854 226.476C166.513 226.098 166.06 225.908 165.494 225.908C164.934 225.908 164.481 226.1 164.134 226.484C163.788 226.868 163.614 227.378 163.614 228.012L162.862 227.564C162.862 227.004 162.996 226.503 163.262 226.06C163.529 225.618 163.892 225.271 164.35 225.02C164.809 224.764 165.329 224.636 165.91 224.636C166.492 224.636 166.998 224.759 167.43 225.004C167.862 225.25 168.196 225.602 168.43 226.06C168.665 226.514 168.782 227.055 168.782 227.684L168.774 233.5H167.358ZM178.548 233.732C177.519 233.732 176.673 233.508 176.012 233.06C175.356 232.607 174.953 231.975 174.804 231.164L176.26 230.932C176.377 231.402 176.647 231.775 177.068 232.052C177.489 232.324 178.012 232.46 178.636 232.46C179.228 232.46 179.692 232.338 180.028 232.092C180.364 231.847 180.532 231.514 180.532 231.092C180.532 230.847 180.476 230.65 180.364 230.5C180.252 230.346 180.02 230.202 179.668 230.068C179.321 229.935 178.796 229.775 178.092 229.588C177.329 229.386 176.729 229.175 176.292 228.956C175.855 228.738 175.543 228.484 175.356 228.196C175.169 227.908 175.076 227.559 175.076 227.148C175.076 226.642 175.215 226.199 175.492 225.82C175.769 225.436 176.156 225.14 176.652 224.932C177.153 224.724 177.735 224.62 178.396 224.62C179.052 224.62 179.639 224.724 180.156 224.932C180.673 225.14 181.089 225.436 181.404 225.82C181.724 226.199 181.913 226.642 181.972 227.148L180.516 227.412C180.447 226.948 180.223 226.583 179.844 226.316C179.471 226.05 178.988 225.908 178.396 225.892C177.836 225.871 177.38 225.97 177.028 226.188C176.681 226.407 176.508 226.703 176.508 227.076C176.508 227.284 176.572 227.463 176.7 227.612C176.833 227.762 177.076 227.903 177.428 228.036C177.785 228.17 178.303 228.322 178.98 228.492C179.743 228.684 180.343 228.895 180.78 229.124C181.223 229.348 181.537 229.615 181.724 229.924C181.911 230.228 182.004 230.604 182.004 231.052C182.004 231.884 181.697 232.54 181.084 233.02C180.471 233.495 179.625 233.732 178.548 233.732ZM189.44 233.74C188.629 233.74 187.946 233.54 187.392 233.14C186.837 232.735 186.416 232.188 186.128 231.5C185.845 230.807 185.704 230.031 185.704 229.172C185.704 228.303 185.845 227.524 186.128 226.836C186.416 226.148 186.837 225.607 187.392 225.212C187.952 224.818 188.637 224.62 189.448 224.62C190.248 224.62 190.936 224.82 191.512 225.22C192.093 225.615 192.538 226.156 192.848 226.844C193.157 227.532 193.312 228.308 193.312 229.172C193.312 230.036 193.157 230.812 192.848 231.5C192.538 232.188 192.093 232.735 191.512 233.14C190.936 233.54 190.245 233.74 189.44 233.74ZM185.464 237.34V224.86H186.736V231.22H186.896V237.34H185.464ZM189.264 232.436C189.834 232.436 190.306 232.292 190.68 232.004C191.053 231.716 191.333 231.327 191.52 230.836C191.706 230.34 191.8 229.786 191.8 229.172C191.8 228.564 191.706 228.015 191.52 227.524C191.338 227.034 191.056 226.644 190.672 226.356C190.293 226.068 189.81 225.924 189.224 225.924C188.664 225.924 188.2 226.063 187.832 226.34C187.464 226.612 187.189 226.994 187.008 227.484C186.826 227.97 186.736 228.532 186.736 229.172C186.736 229.802 186.824 230.364 187 230.86C187.181 231.351 187.458 231.738 187.832 232.02C188.205 232.298 188.682 232.436 189.264 232.436ZM194.315 233.5V224.86H195.587V226.948L195.379 226.676C195.481 226.41 195.611 226.164 195.771 225.94C195.937 225.716 196.121 225.532 196.323 225.388C196.547 225.207 196.801 225.068 197.083 224.972C197.366 224.876 197.654 224.82 197.947 224.804C198.241 224.783 198.515 224.802 198.771 224.86V226.196C198.473 226.116 198.145 226.095 197.787 226.132C197.43 226.17 197.099 226.3 196.795 226.524C196.518 226.722 196.302 226.962 196.147 227.244C195.998 227.527 195.894 227.834 195.835 228.164C195.777 228.49 195.747 228.823 195.747 229.164V233.5H194.315ZM203.058 233.74C202.199 233.74 201.458 233.546 200.834 233.156C200.215 232.767 199.738 232.228 199.402 231.54C199.066 230.852 198.898 230.063 198.898 229.172C198.898 228.266 199.068 227.471 199.41 226.788C199.751 226.106 200.234 225.575 200.858 225.196C201.482 224.812 202.215 224.62 203.058 224.62C203.922 224.62 204.666 224.815 205.29 225.204C205.914 225.588 206.391 226.124 206.722 226.812C207.058 227.495 207.226 228.282 207.226 229.172C207.226 230.074 207.058 230.868 206.722 231.556C206.386 232.239 205.906 232.775 205.282 233.164C204.658 233.548 203.916 233.74 203.058 233.74ZM203.058 232.388C203.954 232.388 204.62 232.09 205.058 231.492C205.495 230.895 205.714 230.122 205.714 229.172C205.714 228.196 205.492 227.42 205.05 226.844C204.607 226.263 203.943 225.972 203.058 225.972C202.455 225.972 201.959 226.108 201.57 226.38C201.18 226.652 200.89 227.028 200.698 227.508C200.506 227.988 200.41 228.543 200.41 229.172C200.41 230.143 200.634 230.922 201.082 231.508C201.53 232.095 202.188 232.388 203.058 232.388ZM211.877 233.74C211.003 233.74 210.259 233.546 209.645 233.156C209.037 232.762 208.573 232.22 208.253 231.532C207.933 230.844 207.768 230.06 207.757 229.18C207.768 228.279 207.936 227.487 208.261 226.804C208.592 226.116 209.064 225.58 209.677 225.196C210.291 224.812 211.029 224.62 211.893 224.62C212.805 224.62 213.589 224.844 214.245 225.292C214.907 225.74 215.349 226.354 215.573 227.132L214.165 227.556C213.984 227.055 213.688 226.666 213.277 226.388C212.872 226.111 212.405 225.972 211.877 225.972C211.285 225.972 210.797 226.111 210.413 226.388C210.029 226.66 209.744 227.039 209.557 227.524C209.371 228.004 209.275 228.556 209.269 229.18C209.28 230.14 209.501 230.916 209.933 231.508C210.371 232.095 211.019 232.388 211.877 232.388C212.443 232.388 212.912 232.26 213.285 232.004C213.659 231.743 213.941 231.367 214.133 230.876L215.573 231.252C215.275 232.058 214.808 232.674 214.173 233.1C213.539 233.527 212.773 233.74 211.877 233.74ZM219.966 233.74C219.118 233.74 218.376 233.554 217.742 233.18C217.112 232.802 216.622 232.276 216.27 231.604C215.918 230.927 215.742 230.138 215.742 229.236C215.742 228.292 215.915 227.476 216.262 226.788C216.608 226.095 217.091 225.562 217.71 225.188C218.334 224.81 219.064 224.62 219.902 224.62C220.771 224.62 221.51 224.82 222.118 225.22C222.731 225.62 223.19 226.191 223.494 226.932C223.803 227.674 223.936 228.556 223.894 229.58H222.454V229.068C222.438 228.007 222.222 227.215 221.806 226.692C221.39 226.164 220.771 225.9 219.95 225.9C219.07 225.9 218.4 226.183 217.942 226.748C217.483 227.314 217.254 228.124 217.254 229.18C217.254 230.199 217.483 230.988 217.942 231.548C218.4 232.108 219.054 232.388 219.902 232.388C220.472 232.388 220.968 232.258 221.39 231.996C221.811 231.735 222.142 231.359 222.382 230.868L223.75 231.34C223.414 232.103 222.907 232.695 222.23 233.116C221.558 233.532 220.803 233.74 219.966 233.74ZM216.774 229.58V228.436H223.158V229.58H216.774ZM228.189 233.732C227.159 233.732 226.314 233.508 225.653 233.06C224.997 232.607 224.594 231.975 224.445 231.164L225.901 230.932C226.018 231.402 226.287 231.775 226.709 232.052C227.13 232.324 227.653 232.46 228.277 232.46C228.869 232.46 229.333 232.338 229.669 232.092C230.005 231.847 230.173 231.514 230.173 231.092C230.173 230.847 230.117 230.65 230.005 230.5C229.893 230.346 229.661 230.202 229.309 230.068C228.962 229.935 228.437 229.775 227.733 229.588C226.97 229.386 226.37 229.175 225.933 228.956C225.495 228.738 225.183 228.484 224.997 228.196C224.81 227.908 224.717 227.559 224.717 227.148C224.717 226.642 224.855 226.199 225.133 225.82C225.41 225.436 225.797 225.14 226.293 224.932C226.794 224.724 227.375 224.62 228.037 224.62C228.693 224.62 229.279 224.724 229.797 224.932C230.314 225.14 230.73 225.436 231.045 225.82C231.365 226.199 231.554 226.642 231.613 227.148L230.157 227.412C230.087 226.948 229.863 226.583 229.485 226.316C229.111 226.05 228.629 225.908 228.037 225.892C227.477 225.871 227.021 225.97 226.669 226.188C226.322 226.407 226.149 226.703 226.149 227.076C226.149 227.284 226.213 227.463 226.341 227.612C226.474 227.762 226.717 227.903 227.069 228.036C227.426 228.17 227.943 228.322 228.621 228.492C229.383 228.684 229.983 228.895 230.421 229.124C230.863 229.348 231.178 229.615 231.365 229.924C231.551 230.228 231.645 230.604 231.645 231.052C231.645 231.884 231.338 232.54 230.725 233.02C230.111 233.495 229.266 233.732 228.189 233.732ZM235.923 233.732C234.894 233.732 234.048 233.508 233.387 233.06C232.731 232.607 232.328 231.975 232.179 231.164L233.635 230.932C233.752 231.402 234.022 231.775 234.443 232.052C234.864 232.324 235.387 232.46 236.011 232.46C236.603 232.46 237.067 232.338 237.403 232.092C237.739 231.847 237.907 231.514 237.907 231.092C237.907 230.847 237.851 230.65 237.739 230.5C237.627 230.346 237.395 230.202 237.043 230.068C236.696 229.935 236.171 229.775 235.467 229.588C234.704 229.386 234.104 229.175 233.667 228.956C233.23 228.738 232.918 228.484 232.731 228.196C232.544 227.908 232.451 227.559 232.451 227.148C232.451 226.642 232.59 226.199 232.867 225.82C233.144 225.436 233.531 225.14 234.027 224.932C234.528 224.724 235.11 224.62 235.771 224.62C236.427 224.62 237.014 224.724 237.531 224.932C238.048 225.14 238.464 225.436 238.779 225.82C239.099 226.199 239.288 226.642 239.347 227.148L237.891 227.412C237.822 226.948 237.598 226.583 237.219 226.316C236.846 226.05 236.363 225.908 235.771 225.892C235.211 225.871 234.755 225.97 234.403 226.188C234.056 226.407 233.883 226.703 233.883 227.076C233.883 227.284 233.947 227.463 234.075 227.612C234.208 227.762 234.451 227.903 234.803 228.036C235.16 228.17 235.678 228.322 236.355 228.492C237.118 228.684 237.718 228.895 238.155 229.124C238.598 229.348 238.912 229.615 239.099 229.924C239.286 230.228 239.379 230.604 239.379 231.052C239.379 231.884 239.072 232.54 238.459 233.02C237.846 233.495 237 233.732 235.923 233.732ZM240.553 223.332V221.86H241.977V223.332H240.553ZM240.553 233.5V224.86H241.977V233.5H240.553ZM249.78 233.5V229.172C249.78 228.762 249.742 228.367 249.668 227.988C249.598 227.61 249.473 227.271 249.292 226.972C249.116 226.668 248.876 226.428 248.572 226.252C248.273 226.076 247.894 225.988 247.436 225.988C247.078 225.988 246.753 226.05 246.46 226.172C246.172 226.29 245.924 226.471 245.716 226.716C245.508 226.962 245.345 227.271 245.228 227.644C245.116 228.012 245.06 228.447 245.06 228.948L244.124 228.66C244.124 227.823 244.273 227.106 244.572 226.508C244.876 225.906 245.3 225.444 245.844 225.124C246.393 224.799 247.038 224.636 247.78 224.636C248.34 224.636 248.817 224.724 249.212 224.9C249.606 225.076 249.934 225.311 250.196 225.604C250.457 225.892 250.662 226.218 250.812 226.58C250.961 226.938 251.065 227.303 251.124 227.676C251.188 228.044 251.22 228.394 251.22 228.724V233.5H249.78ZM243.62 233.5V224.86H244.9V227.172H245.06V233.5H243.62ZM256.046 237.58C255.592 237.58 255.15 237.511 254.718 237.372C254.286 237.234 253.888 237.023 253.526 236.74C253.168 236.463 252.87 236.111 252.63 235.684L253.934 234.996C254.147 235.418 254.448 235.724 254.838 235.916C255.232 236.108 255.638 236.204 256.054 236.204C256.603 236.204 257.059 236.103 257.422 235.9C257.784 235.703 258.051 235.407 258.222 235.012C258.398 234.618 258.483 234.127 258.478 233.54V231.18H258.646V224.86H259.91V233.556C259.91 233.791 259.902 234.018 259.886 234.236C259.875 234.455 259.848 234.671 259.806 234.884C259.694 235.498 259.472 236.002 259.142 236.396C258.811 236.796 258.384 237.092 257.862 237.284C257.339 237.482 256.734 237.58 256.046 237.58ZM255.942 233.74C255.136 233.74 254.446 233.54 253.87 233.14C253.294 232.735 252.848 232.188 252.534 231.5C252.224 230.812 252.07 230.036 252.07 229.172C252.07 228.308 252.224 227.532 252.534 226.844C252.848 226.156 253.294 225.615 253.87 225.22C254.446 224.82 255.134 224.62 255.934 224.62C256.75 224.62 257.435 224.818 257.99 225.212C258.544 225.607 258.963 226.148 259.246 226.836C259.534 227.524 259.678 228.303 259.678 229.172C259.678 230.031 259.534 230.807 259.246 231.5C258.963 232.188 258.544 232.735 257.99 233.14C257.435 233.54 256.752 233.74 255.942 233.74ZM256.118 232.436C256.699 232.436 257.176 232.298 257.55 232.02C257.923 231.738 258.198 231.351 258.374 230.86C258.555 230.364 258.646 229.802 258.646 229.172C258.646 228.532 258.555 227.97 258.374 227.484C258.198 226.994 257.926 226.612 257.558 226.34C257.19 226.063 256.723 225.924 256.158 225.924C255.571 225.924 255.086 226.068 254.702 226.356C254.323 226.644 254.04 227.034 253.854 227.524C253.672 228.015 253.582 228.564 253.582 229.172C253.582 229.786 253.675 230.34 253.862 230.836C254.048 231.327 254.328 231.716 254.702 232.004C255.08 232.292 255.552 232.436 256.118 232.436ZM265.687 233.5L263.047 224.852L264.463 224.86L266.391 231.18L268.335 224.86H269.591L271.527 231.18L273.463 224.86H274.871L272.231 233.5H271.047L268.959 226.932L266.871 233.5H265.687ZM275.725 223.332V221.86H277.149V223.332H275.725ZM275.725 233.5V224.86H277.149V233.5H275.725ZM283.624 233.5C283.112 233.602 282.605 233.642 282.104 233.62C281.608 233.604 281.165 233.506 280.776 233.324C280.386 233.138 280.09 232.85 279.888 232.46C279.717 232.119 279.624 231.775 279.608 231.428C279.597 231.076 279.592 230.679 279.592 230.236V222.46H281.016V230.172C281.016 230.524 281.018 230.826 281.024 231.076C281.034 231.327 281.09 231.543 281.192 231.724C281.384 232.066 281.688 232.266 282.104 232.324C282.525 232.383 283.032 232.367 283.624 232.276V233.5ZM277.84 226.036V224.86H283.624V226.036H277.84ZM290.78 233.5V229.172C290.78 228.762 290.742 228.367 290.668 227.988C290.598 227.61 290.473 227.271 290.292 226.972C290.116 226.668 289.876 226.428 289.572 226.252C289.273 226.076 288.894 225.988 288.436 225.988C288.078 225.988 287.753 226.05 287.46 226.172C287.172 226.29 286.924 226.471 286.716 226.716C286.508 226.962 286.345 227.271 286.228 227.644C286.116 228.012 286.06 228.447 286.06 228.948L285.124 228.66C285.124 227.823 285.273 227.106 285.572 226.508C285.876 225.906 286.3 225.444 286.844 225.124C287.393 224.799 288.038 224.636 288.78 224.636C289.34 224.636 289.817 224.724 290.212 224.9C290.606 225.076 290.934 225.311 291.196 225.604C291.457 225.892 291.662 226.218 291.812 226.58C291.961 226.938 292.065 227.303 292.124 227.676C292.188 228.044 292.22 228.394 292.22 228.724V233.5H290.78ZM284.62 233.5V221.98H285.9V228.34H286.06V233.5H284.62ZM80.1463 255.74C79.501 255.74 78.9596 255.623 78.5223 255.388C78.0903 255.148 77.7623 254.834 77.5383 254.444C77.3196 254.055 77.2103 253.628 77.2103 253.164C77.2103 252.711 77.2956 252.319 77.4663 251.988C77.6423 251.652 77.8876 251.375 78.2023 251.156C78.517 250.932 78.893 250.756 79.3303 250.628C79.741 250.516 80.1996 250.42 80.7063 250.34C81.2183 250.255 81.7356 250.178 82.2583 250.108C82.781 250.039 83.269 249.972 83.7223 249.908L83.2103 250.204C83.2263 249.436 83.0716 248.868 82.7463 248.5C82.4263 248.132 81.8716 247.948 81.0823 247.948C80.5596 247.948 80.101 248.068 79.7063 248.308C79.317 248.543 79.0423 248.927 78.8823 249.46L77.5303 249.052C77.7383 248.295 78.141 247.7 78.7383 247.268C79.3356 246.836 80.1223 246.62 81.0983 246.62C81.8823 246.62 82.5543 246.762 83.1143 247.044C83.6796 247.322 84.085 247.743 84.3303 248.308C84.453 248.575 84.5303 248.866 84.5623 249.18C84.5943 249.49 84.6103 249.815 84.6103 250.156V255.5H83.3463V253.428L83.6423 253.62C83.317 254.319 82.861 254.847 82.2743 255.204C81.693 255.562 80.9836 255.74 80.1463 255.74ZM80.3623 254.548C80.8743 254.548 81.317 254.458 81.6903 254.276C82.069 254.09 82.373 253.847 82.6023 253.548C82.8316 253.244 82.981 252.914 83.0503 252.556C83.1303 252.29 83.173 251.994 83.1783 251.668C83.189 251.338 83.1943 251.084 83.1943 250.908L83.6903 251.124C83.2263 251.188 82.7703 251.25 82.3223 251.308C81.8743 251.367 81.4503 251.431 81.0503 251.5C80.6503 251.564 80.2903 251.642 79.9703 251.732C79.7356 251.807 79.5143 251.903 79.3063 252.02C79.1036 252.138 78.9383 252.29 78.8103 252.476C78.6876 252.658 78.6263 252.884 78.6263 253.156C78.6263 253.391 78.685 253.615 78.8023 253.828C78.925 254.042 79.1116 254.215 79.3623 254.348C79.6183 254.482 79.9516 254.548 80.3623 254.548ZM89.5803 255.74C88.7056 255.74 87.9616 255.546 87.3483 255.156C86.7403 254.762 86.2763 254.22 85.9563 253.532C85.6363 252.844 85.471 252.06 85.4603 251.18C85.471 250.279 85.639 249.487 85.9643 248.804C86.295 248.116 86.767 247.58 87.3803 247.196C87.9936 246.812 88.7323 246.62 89.5963 246.62C90.5083 246.62 91.2923 246.844 91.9483 247.292C92.6096 247.74 93.0523 248.354 93.2763 249.132L91.8683 249.556C91.687 249.055 91.391 248.666 90.9803 248.388C90.575 248.111 90.1083 247.972 89.5803 247.972C88.9883 247.972 88.5003 248.111 88.1163 248.388C87.7323 248.66 87.447 249.039 87.2603 249.524C87.0736 250.004 86.9776 250.556 86.9723 251.18C86.983 252.14 87.2043 252.916 87.6363 253.508C88.0736 254.095 88.7216 254.388 89.5803 254.388C90.1456 254.388 90.615 254.26 90.9883 254.004C91.3616 253.743 91.6443 253.367 91.8363 252.876L93.2763 253.252C92.9776 254.058 92.511 254.674 91.8763 255.1C91.2416 255.527 90.4763 255.74 89.5803 255.74ZM97.5647 255.74C96.69 255.74 95.946 255.546 95.3327 255.156C94.7247 254.762 94.2607 254.22 93.9407 253.532C93.6207 252.844 93.4554 252.06 93.4447 251.18C93.4554 250.279 93.6234 249.487 93.9487 248.804C94.2794 248.116 94.7514 247.58 95.3647 247.196C95.978 246.812 96.7167 246.62 97.5807 246.62C98.4927 246.62 99.2767 246.844 99.9327 247.292C100.594 247.74 101.037 248.354 101.261 249.132L99.8527 249.556C99.6714 249.055 99.3754 248.666 98.9647 248.388C98.5594 248.111 98.0927 247.972 97.5647 247.972C96.9727 247.972 96.4847 248.111 96.1007 248.388C95.7167 248.66 95.4314 249.039 95.2447 249.524C95.058 250.004 94.962 250.556 94.9567 251.18C94.9674 252.14 95.1887 252.916 95.6207 253.508C96.058 254.095 96.706 254.388 97.5647 254.388C98.13 254.388 98.5994 254.26 98.9727 254.004C99.346 253.743 99.6287 253.367 99.8207 252.876L101.261 253.252C100.962 254.058 100.495 254.674 99.8607 255.1C99.226 255.527 98.4607 255.74 97.5647 255.74ZM105.423 255.724C104.869 255.724 104.391 255.636 103.991 255.46C103.597 255.284 103.269 255.05 103.007 254.756C102.746 254.463 102.541 254.138 102.391 253.78C102.242 253.423 102.135 253.058 102.071 252.684C102.013 252.311 101.983 251.962 101.983 251.636V246.86H103.423V251.188C103.423 251.594 103.461 251.986 103.535 252.364C103.61 252.743 103.735 253.084 103.911 253.388C104.093 253.692 104.333 253.932 104.631 254.108C104.935 254.284 105.314 254.372 105.767 254.372C106.125 254.372 106.45 254.311 106.743 254.188C107.037 254.066 107.287 253.884 107.495 253.644C107.703 253.399 107.863 253.09 107.975 252.716C108.087 252.343 108.143 251.908 108.143 251.412L109.079 251.7C109.079 252.532 108.927 253.25 108.623 253.852C108.325 254.455 107.901 254.919 107.351 255.244C106.807 255.564 106.165 255.724 105.423 255.724ZM108.303 255.5V253.188H108.143V246.86H109.575V255.5H108.303ZM111.065 255.5V246.86H112.337V248.948L112.129 248.676C112.231 248.41 112.361 248.164 112.521 247.94C112.687 247.716 112.871 247.532 113.073 247.388C113.297 247.207 113.551 247.068 113.833 246.972C114.116 246.876 114.404 246.82 114.697 246.804C114.991 246.783 115.265 246.802 115.521 246.86V248.196C115.223 248.116 114.895 248.095 114.537 248.132C114.18 248.17 113.849 248.3 113.545 248.524C113.268 248.722 113.052 248.962 112.897 249.244C112.748 249.527 112.644 249.834 112.585 250.164C112.527 250.49 112.497 250.823 112.497 251.164V255.5H111.065ZM118.459 255.74C117.813 255.74 117.272 255.623 116.835 255.388C116.403 255.148 116.075 254.834 115.851 254.444C115.632 254.055 115.523 253.628 115.523 253.164C115.523 252.711 115.608 252.319 115.779 251.988C115.955 251.652 116.2 251.375 116.515 251.156C116.829 250.932 117.205 250.756 117.643 250.628C118.053 250.516 118.512 250.42 119.019 250.34C119.531 250.255 120.048 250.178 120.571 250.108C121.093 250.039 121.581 249.972 122.035 249.908L121.523 250.204C121.539 249.436 121.384 248.868 121.059 248.5C120.739 248.132 120.184 247.948 119.395 247.948C118.872 247.948 118.413 248.068 118.019 248.308C117.629 248.543 117.355 248.927 117.195 249.46L115.843 249.052C116.051 248.295 116.453 247.7 117.051 247.268C117.648 246.836 118.435 246.62 119.411 246.62C120.195 246.62 120.867 246.762 121.427 247.044C121.992 247.322 122.397 247.743 122.643 248.308C122.765 248.575 122.843 248.866 122.875 249.18C122.907 249.49 122.923 249.815 122.923 250.156V255.5H121.659V253.428L121.955 253.62C121.629 254.319 121.173 254.847 120.587 255.204C120.005 255.562 119.296 255.74 118.459 255.74ZM118.675 254.548C119.187 254.548 119.629 254.458 120.003 254.276C120.381 254.09 120.685 253.847 120.915 253.548C121.144 253.244 121.293 252.914 121.363 252.556C121.443 252.29 121.485 251.994 121.491 251.668C121.501 251.338 121.507 251.084 121.507 250.908L122.003 251.124C121.539 251.188 121.083 251.25 120.635 251.308C120.187 251.367 119.763 251.431 119.363 251.5C118.963 251.564 118.603 251.642 118.283 251.732C118.048 251.807 117.827 251.903 117.619 252.02C117.416 252.138 117.251 252.29 117.123 252.476C117 252.658 116.939 252.884 116.939 253.156C116.939 253.391 116.997 253.615 117.115 253.828C117.237 254.042 117.424 254.215 117.675 254.348C117.931 254.482 118.264 254.548 118.675 254.548ZM129.077 255.5C128.565 255.602 128.058 255.642 127.557 255.62C127.061 255.604 126.618 255.506 126.229 255.324C125.839 255.138 125.543 254.85 125.341 254.46C125.17 254.119 125.077 253.775 125.061 253.428C125.05 253.076 125.045 252.679 125.045 252.236V244.46H126.469V252.172C126.469 252.524 126.471 252.826 126.477 253.076C126.487 253.327 126.543 253.543 126.645 253.724C126.837 254.066 127.141 254.266 127.557 254.324C127.978 254.383 128.485 254.367 129.077 254.276V255.5ZM123.293 248.036V246.86H129.077V248.036H123.293ZM133.466 255.74C132.618 255.74 131.876 255.554 131.242 255.18C130.612 254.802 130.122 254.276 129.77 253.604C129.418 252.927 129.242 252.138 129.242 251.236C129.242 250.292 129.415 249.476 129.762 248.788C130.108 248.095 130.591 247.562 131.21 247.188C131.834 246.81 132.564 246.62 133.402 246.62C134.271 246.62 135.01 246.82 135.618 247.22C136.231 247.62 136.69 248.191 136.994 248.932C137.303 249.674 137.436 250.556 137.394 251.58H135.954V251.068C135.938 250.007 135.722 249.215 135.306 248.692C134.89 248.164 134.271 247.9 133.45 247.9C132.57 247.9 131.9 248.183 131.442 248.748C130.983 249.314 130.754 250.124 130.754 251.18C130.754 252.199 130.983 252.988 131.442 253.548C131.9 254.108 132.554 254.388 133.402 254.388C133.972 254.388 134.468 254.258 134.89 253.996C135.311 253.735 135.642 253.359 135.882 252.868L137.25 253.34C136.914 254.103 136.407 254.695 135.73 255.116C135.058 255.532 134.303 255.74 133.466 255.74ZM130.274 251.58V250.436H136.658V251.58H130.274ZM144.27 255.74C143.464 255.74 142.774 255.54 142.198 255.14C141.622 254.735 141.176 254.188 140.862 253.5C140.552 252.812 140.398 252.036 140.398 251.172C140.398 250.308 140.552 249.532 140.862 248.844C141.176 248.156 141.622 247.615 142.198 247.22C142.774 246.82 143.462 246.62 144.262 246.62C145.078 246.62 145.763 246.818 146.318 247.212C146.872 247.607 147.291 248.148 147.574 248.836C147.862 249.524 148.006 250.303 148.006 251.172C148.006 252.031 147.862 252.807 147.574 253.5C147.291 254.188 146.872 254.735 146.318 255.14C145.763 255.54 145.08 255.74 144.27 255.74ZM144.446 254.436C145.027 254.436 145.504 254.298 145.878 254.02C146.251 253.738 146.526 253.351 146.702 252.86C146.883 252.364 146.974 251.802 146.974 251.172C146.974 250.532 146.883 249.97 146.702 249.484C146.526 248.994 146.254 248.612 145.886 248.34C145.518 248.063 145.051 247.924 144.486 247.924C143.899 247.924 143.414 248.068 143.03 248.356C142.651 248.644 142.368 249.034 142.182 249.524C142 250.015 141.91 250.564 141.91 251.172C141.91 251.786 142.003 252.34 142.19 252.836C142.376 253.327 142.656 253.716 143.03 254.004C143.408 254.292 143.88 254.436 144.446 254.436ZM146.974 255.5V249.14H146.814V243.98H148.246V255.5H146.974ZM153.417 255.74C152.559 255.74 151.817 255.546 151.193 255.156C150.575 254.767 150.097 254.228 149.761 253.54C149.425 252.852 149.257 252.063 149.257 251.172C149.257 250.266 149.428 249.471 149.769 248.788C150.111 248.106 150.593 247.575 151.217 247.196C151.841 246.812 152.575 246.62 153.417 246.62C154.281 246.62 155.025 246.815 155.649 247.204C156.273 247.588 156.751 248.124 157.081 248.812C157.417 249.495 157.585 250.282 157.585 251.172C157.585 252.074 157.417 252.868 157.081 253.556C156.745 254.239 156.265 254.775 155.641 255.164C155.017 255.548 154.276 255.74 153.417 255.74ZM153.417 254.388C154.313 254.388 154.98 254.09 155.417 253.492C155.855 252.895 156.073 252.122 156.073 251.172C156.073 250.196 155.852 249.42 155.409 248.844C154.967 248.263 154.303 247.972 153.417 247.972C152.815 247.972 152.319 248.108 151.929 248.38C151.54 248.652 151.249 249.028 151.057 249.508C150.865 249.988 150.769 250.543 150.769 251.172C150.769 252.143 150.993 252.922 151.441 253.508C151.889 254.095 152.548 254.388 153.417 254.388ZM162.237 255.74C161.362 255.74 160.618 255.546 160.005 255.156C159.397 254.762 158.933 254.22 158.613 253.532C158.293 252.844 158.127 252.06 158.117 251.18C158.127 250.279 158.295 249.487 158.621 248.804C158.951 248.116 159.423 247.58 160.037 247.196C160.65 246.812 161.389 246.62 162.253 246.62C163.165 246.62 163.949 246.844 164.605 247.292C165.266 247.74 165.709 248.354 165.933 249.132L164.525 249.556C164.343 249.055 164.047 248.666 163.637 248.388C163.231 248.111 162.765 247.972 162.237 247.972C161.645 247.972 161.157 248.111 160.773 248.388C160.389 248.66 160.103 249.039 159.917 249.524C159.73 250.004 159.634 250.556 159.629 251.18C159.639 252.14 159.861 252.916 160.293 253.508C160.73 254.095 161.378 254.388 162.237 254.388C162.802 254.388 163.271 254.26 163.645 254.004C164.018 253.743 164.301 253.367 164.493 252.876L165.933 253.252C165.634 254.058 165.167 254.674 164.533 255.1C163.898 255.527 163.133 255.74 162.237 255.74ZM170.095 255.724C169.541 255.724 169.063 255.636 168.663 255.46C168.269 255.284 167.941 255.05 167.679 254.756C167.418 254.463 167.213 254.138 167.063 253.78C166.914 253.423 166.807 253.058 166.743 252.684C166.685 252.311 166.655 251.962 166.655 251.636V246.86H168.095V251.188C168.095 251.594 168.133 251.986 168.207 252.364C168.282 252.743 168.407 253.084 168.583 253.388C168.765 253.692 169.005 253.932 169.303 254.108C169.607 254.284 169.986 254.372 170.439 254.372C170.797 254.372 171.122 254.311 171.415 254.188C171.709 254.066 171.959 253.884 172.167 253.644C172.375 253.399 172.535 253.09 172.647 252.716C172.759 252.343 172.815 251.908 172.815 251.412L173.751 251.7C173.751 252.532 173.599 253.25 173.295 253.852C172.997 254.455 172.573 254.919 172.023 255.244C171.479 255.564 170.837 255.724 170.095 255.724ZM172.975 255.5V253.188H172.815V246.86H174.247V255.5H172.975ZM186.065 255.5L186.073 249.972C186.073 249.327 185.9 248.823 185.553 248.46C185.212 248.092 184.767 247.908 184.217 247.908C183.897 247.908 183.593 247.983 183.305 248.132C183.017 248.276 182.783 248.506 182.601 248.82C182.42 249.13 182.329 249.527 182.329 250.012L181.577 249.708C181.567 249.095 181.692 248.559 181.953 248.1C182.22 247.636 182.583 247.276 183.041 247.02C183.5 246.764 184.017 246.636 184.593 246.636C185.495 246.636 186.204 246.911 186.721 247.46C187.239 248.004 187.497 248.738 187.497 249.66L187.489 255.5H186.065ZM175.729 255.5V246.86H177.001V249.172H177.161V255.5H175.729ZM180.905 255.5L180.913 250.028C180.913 249.367 180.743 248.85 180.401 248.476C180.06 248.098 179.607 247.908 179.041 247.908C178.481 247.908 178.028 248.1 177.681 248.484C177.335 248.868 177.161 249.378 177.161 250.012L176.409 249.564C176.409 249.004 176.543 248.503 176.809 248.06C177.076 247.618 177.439 247.271 177.897 247.02C178.356 246.764 178.876 246.636 179.457 246.636C180.039 246.636 180.545 246.759 180.977 247.004C181.409 247.25 181.743 247.602 181.977 248.06C182.212 248.514 182.329 249.055 182.329 249.684L182.321 255.5H180.905ZM192.497 255.74C191.649 255.74 190.907 255.554 190.273 255.18C189.643 254.802 189.153 254.276 188.801 253.604C188.449 252.927 188.273 252.138 188.273 251.236C188.273 250.292 188.446 249.476 188.793 248.788C189.139 248.095 189.622 247.562 190.241 247.188C190.865 246.81 191.595 246.62 192.433 246.62C193.302 246.62 194.041 246.82 194.649 247.22C195.262 247.62 195.721 248.191 196.025 248.932C196.334 249.674 196.467 250.556 196.425 251.58H194.985V251.068C194.969 250.007 194.753 249.215 194.337 248.692C193.921 248.164 193.302 247.9 192.481 247.9C191.601 247.9 190.931 248.183 190.473 248.748C190.014 249.314 189.785 250.124 189.785 251.18C189.785 252.199 190.014 252.988 190.473 253.548C190.931 254.108 191.585 254.388 192.433 254.388C193.003 254.388 193.499 254.258 193.921 253.996C194.342 253.735 194.673 253.359 194.913 252.868L196.281 253.34C195.945 254.103 195.438 254.695 194.761 255.116C194.089 255.532 193.334 255.74 192.497 255.74ZM189.305 251.58V250.436H195.689V251.58H189.305ZM203.374 255.5V251.172C203.374 250.762 203.336 250.367 203.262 249.988C203.192 249.61 203.067 249.271 202.886 248.972C202.71 248.668 202.47 248.428 202.166 248.252C201.867 248.076 201.488 247.988 201.03 247.988C200.672 247.988 200.347 248.05 200.054 248.172C199.766 248.29 199.518 248.471 199.31 248.716C199.102 248.962 198.939 249.271 198.822 249.644C198.71 250.012 198.654 250.447 198.654 250.948L197.718 250.66C197.718 249.823 197.867 249.106 198.166 248.508C198.47 247.906 198.894 247.444 199.438 247.124C199.987 246.799 200.632 246.636 201.374 246.636C201.934 246.636 202.411 246.724 202.806 246.9C203.2 247.076 203.528 247.311 203.79 247.604C204.051 247.892 204.256 248.218 204.406 248.58C204.555 248.938 204.659 249.303 204.718 249.676C204.782 250.044 204.814 250.394 204.814 250.724V255.5H203.374ZM197.214 255.5V246.86H198.494V249.172H198.654V255.5H197.214ZM210.967 255.5C210.455 255.602 209.949 255.642 209.447 255.62C208.951 255.604 208.509 255.506 208.119 255.324C207.73 255.138 207.434 254.85 207.231 254.46C207.061 254.119 206.967 253.775 206.951 253.428C206.941 253.076 206.935 252.679 206.935 252.236V244.46H208.359V252.172C208.359 252.524 208.362 252.826 208.367 253.076C208.378 253.327 208.434 253.543 208.535 253.724C208.727 254.066 209.031 254.266 209.447 254.324C209.869 254.383 210.375 254.367 210.967 254.276V255.5ZM205.183 248.036V246.86H210.967V248.036H205.183ZM216.761 255.5L213.625 246.86H215.065L217.489 253.684L219.905 246.86H221.353L218.217 255.5H216.761ZM224.021 255.74C223.376 255.74 222.835 255.623 222.397 255.388C221.965 255.148 221.637 254.834 221.413 254.444C221.195 254.055 221.085 253.628 221.085 253.164C221.085 252.711 221.171 252.319 221.341 251.988C221.517 251.652 221.763 251.375 222.077 251.156C222.392 250.932 222.768 250.756 223.205 250.628C223.616 250.516 224.075 250.42 224.581 250.34C225.093 250.255 225.611 250.178 226.133 250.108C226.656 250.039 227.144 249.972 227.597 249.908L227.085 250.204C227.101 249.436 226.947 248.868 226.621 248.5C226.301 248.132 225.747 247.948 224.957 247.948C224.435 247.948 223.976 248.068 223.581 248.308C223.192 248.543 222.917 248.927 222.757 249.46L221.405 249.052C221.613 248.295 222.016 247.7 222.613 247.268C223.211 246.836 223.997 246.62 224.973 246.62C225.757 246.62 226.429 246.762 226.989 247.044C227.555 247.322 227.96 247.743 228.205 248.308C228.328 248.575 228.405 248.866 228.437 249.18C228.469 249.49 228.485 249.815 228.485 250.156V255.5H227.221V253.428L227.517 253.62C227.192 254.319 226.736 254.847 226.149 255.204C225.568 255.562 224.859 255.74 224.021 255.74ZM224.237 254.548C224.749 254.548 225.192 254.458 225.565 254.276C225.944 254.09 226.248 253.847 226.477 253.548C226.707 253.244 226.856 252.914 226.925 252.556C227.005 252.29 227.048 251.994 227.053 251.668C227.064 251.338 227.069 251.084 227.069 250.908L227.565 251.124C227.101 251.188 226.645 251.25 226.197 251.308C225.749 251.367 225.325 251.431 224.925 251.5C224.525 251.564 224.165 251.642 223.845 251.732C223.611 251.807 223.389 251.903 223.181 252.02C222.979 252.138 222.813 252.29 222.685 252.476C222.563 252.658 222.501 252.884 222.501 253.156C222.501 253.391 222.56 253.615 222.677 253.828C222.8 254.042 222.987 254.215 223.237 254.348C223.493 254.482 223.827 254.548 224.237 254.548ZM229.975 255.5V243.74H231.399V255.5H229.975ZM233.21 245.332V243.86H234.634V245.332H233.21ZM233.21 255.5V246.86H234.634V255.5H233.21ZM239.676 255.74C238.871 255.74 238.18 255.54 237.604 255.14C237.028 254.735 236.583 254.188 236.268 253.5C235.959 252.812 235.804 252.036 235.804 251.172C235.804 250.308 235.959 249.532 236.268 248.844C236.583 248.156 237.028 247.615 237.604 247.22C238.18 246.82 238.868 246.62 239.668 246.62C240.484 246.62 241.169 246.818 241.724 247.212C242.279 247.607 242.697 248.148 242.98 248.836C243.268 249.524 243.412 250.303 243.412 251.172C243.412 252.031 243.268 252.807 242.98 253.5C242.697 254.188 242.279 254.735 241.724 255.14C241.169 255.54 240.487 255.74 239.676 255.74ZM239.852 254.436C240.433 254.436 240.911 254.298 241.284 254.02C241.657 253.738 241.932 253.351 242.108 252.86C242.289 252.364 242.38 251.802 242.38 251.172C242.38 250.532 242.289 249.97 242.108 249.484C241.932 248.994 241.66 248.612 241.292 248.34C240.924 248.063 240.457 247.924 239.892 247.924C239.305 247.924 238.82 248.068 238.436 248.356C238.057 248.644 237.775 249.034 237.588 249.524C237.407 250.015 237.316 250.564 237.316 251.172C237.316 251.786 237.409 252.34 237.596 252.836C237.783 253.327 238.063 253.716 238.436 254.004C238.815 254.292 239.287 254.436 239.852 254.436ZM242.38 255.5V249.14H242.22V243.98H243.652V255.5H242.38ZM247.599 255.74C246.954 255.74 246.413 255.623 245.975 255.388C245.543 255.148 245.215 254.834 244.991 254.444C244.773 254.055 244.663 253.628 244.663 253.164C244.663 252.711 244.749 252.319 244.919 251.988C245.095 251.652 245.341 251.375 245.655 251.156C245.97 250.932 246.346 250.756 246.783 250.628C247.194 250.516 247.653 250.42 248.159 250.34C248.671 250.255 249.189 250.178 249.711 250.108C250.234 250.039 250.722 249.972 251.175 249.908L250.663 250.204C250.679 249.436 250.525 248.868 250.199 248.5C249.879 248.132 249.325 247.948 248.535 247.948C248.013 247.948 247.554 248.068 247.159 248.308C246.77 248.543 246.495 248.927 246.335 249.46L244.983 249.052C245.191 248.295 245.594 247.7 246.191 247.268C246.789 246.836 247.575 246.62 248.551 246.62C249.335 246.62 250.007 246.762 250.567 247.044C251.133 247.322 251.538 247.743 251.783 248.308C251.906 248.575 251.983 248.866 252.015 249.18C252.047 249.49 252.063 249.815 252.063 250.156V255.5H250.799V253.428L251.095 253.62C250.77 254.319 250.314 254.847 249.727 255.204C249.146 255.562 248.437 255.74 247.599 255.74ZM247.815 254.548C248.327 254.548 248.77 254.458 249.143 254.276C249.522 254.09 249.826 253.847 250.055 253.548C250.285 253.244 250.434 252.914 250.503 252.556C250.583 252.29 250.626 251.994 250.631 251.668C250.642 251.338 250.647 251.084 250.647 250.908L251.143 251.124C250.679 251.188 250.223 251.25 249.775 251.308C249.327 251.367 248.903 251.431 248.503 251.5C248.103 251.564 247.743 251.642 247.423 251.732C247.189 251.807 246.967 251.903 246.759 252.02C246.557 252.138 246.391 252.29 246.263 252.476C246.141 252.658 246.079 252.884 246.079 253.156C246.079 253.391 246.138 253.615 246.255 253.828C246.378 254.042 246.565 254.215 246.815 254.348C247.071 254.482 247.405 254.548 247.815 254.548ZM258.217 255.5C257.705 255.602 257.199 255.642 256.697 255.62C256.201 255.604 255.759 255.506 255.369 255.324C254.98 255.138 254.684 254.85 254.481 254.46C254.311 254.119 254.217 253.775 254.201 253.428C254.191 253.076 254.185 252.679 254.185 252.236V244.46H255.609V252.172C255.609 252.524 255.612 252.826 255.617 253.076C255.628 253.327 255.684 253.543 255.785 253.724C255.977 254.066 256.281 254.266 256.697 254.324C257.119 254.383 257.625 254.367 258.217 254.276V255.5ZM252.433 248.036V246.86H258.217V248.036H252.433ZM259.382 245.332V243.86H260.806V245.332H259.382ZM259.382 255.5V246.86H260.806V255.5H259.382ZM266.136 255.74C265.277 255.74 264.536 255.546 263.912 255.156C263.293 254.767 262.816 254.228 262.48 253.54C262.144 252.852 261.976 252.063 261.976 251.172C261.976 250.266 262.147 249.471 262.488 248.788C262.829 248.106 263.312 247.575 263.936 247.196C264.56 246.812 265.293 246.62 266.136 246.62C267 246.62 267.744 246.815 268.368 247.204C268.992 247.588 269.469 248.124 269.8 248.812C270.136 249.495 270.304 250.282 270.304 251.172C270.304 252.074 270.136 252.868 269.8 253.556C269.464 254.239 268.984 254.775 268.36 255.164C267.736 255.548 266.995 255.74 266.136 255.74ZM266.136 254.388C267.032 254.388 267.699 254.09 268.136 253.492C268.573 252.895 268.792 252.122 268.792 251.172C268.792 250.196 268.571 249.42 268.128 248.844C267.685 248.263 267.021 247.972 266.136 247.972C265.533 247.972 265.037 248.108 264.648 248.38C264.259 248.652 263.968 249.028 263.776 249.508C263.584 249.988 263.488 250.543 263.488 251.172C263.488 252.143 263.712 252.922 264.16 253.508C264.608 254.095 265.267 254.388 266.136 254.388ZM277.467 255.5V251.172C277.467 250.762 277.43 250.367 277.355 249.988C277.286 249.61 277.161 249.271 276.979 248.972C276.803 248.668 276.563 248.428 276.259 248.252C275.961 248.076 275.582 247.988 275.123 247.988C274.766 247.988 274.441 248.05 274.147 248.172C273.859 248.29 273.611 248.471 273.403 248.716C273.195 248.962 273.033 249.271 272.915 249.644C272.803 250.012 272.747 250.447 272.747 250.948L271.811 250.66C271.811 249.823 271.961 249.106 272.259 248.508C272.563 247.906 272.987 247.444 273.531 247.124C274.081 246.799 274.726 246.636 275.467 246.636C276.027 246.636 276.505 246.724 276.899 246.9C277.294 247.076 277.622 247.311 277.883 247.604C278.145 247.892 278.35 248.218 278.499 248.58C278.649 248.938 278.753 249.303 278.811 249.676C278.875 250.044 278.907 250.394 278.907 250.724V255.5H277.467ZM271.307 255.5V246.86H272.587V249.172H272.747V255.5H271.307ZM280.493 255.5V253.932H282.061V255.5H280.493Z" fill="#696969"/>
</g>
<defs>
<filter id="filter0_d_0_2120" x="0" y="0" width="360" height="360" filterUnits="userSpaceOnUse" color-interpolation-filters="sRGB">
<feFlood flood-opacity="0" result="BackgroundImageFix"/>
<feColorMatrix in="SourceAlpha" type="matrix" values="0 0 0 0 0 0 0 0 0 0 0 0 0 0 0 0 0 0 127 0" result="hardAlpha"/>
<feOffset/>
<feGaussianBlur stdDeviation="10"/>
<feComposite in2="hardAlpha" operator="out"/>
<feColorMatrix type="matrix" values="0 0 0 0 0 0 0 0 0 0 0 0 0 0 0 0 0 0 0.12 0"/>
<feBlend mode="normal" in2="BackgroundImageFix" result="effect1_dropShadow_0_2120"/>
<feBlend mode="normal" in="SourceGraphic" in2="effect1_dropShadow_0_2120" result="shape"/>
</filter>
</defs>
</svg>
