<svg width="360" height="360" viewBox="0 0 360 360" fill="none" xmlns="http://www.w3.org/2000/svg">
<g filter="url(#filter0_d_0_2151)">
<rect x="20" y="20" width="320" height="320" rx="20" fill="white" shape-rendering="crispEdges"/>
<path d="M191.553 145.053H168.447C165.414 145.053 162.947 142.585 162.947 139.553V116.448C162.947 113.416 165.414 110.948 168.447 110.948H191.553C194.586 110.948 197.053 113.416 197.053 116.448V139.553C197.053 142.585 194.586 145.053 191.553 145.053ZM168.447 113.948C167.069 113.948 165.947 115.069 165.947 116.448V139.553C165.947 140.932 167.069 142.053 168.447 142.053H191.553C192.931 142.053 194.053 140.932 194.053 139.553V116.448C194.053 115.069 192.931 113.948 191.553 113.948H168.447Z" fill="#CD6028"/>
<path d="M180.006 113.947C179.177 113.947 178.506 113.275 178.506 112.447V106.702C178.506 105.874 179.177 105.202 180.006 105.202C180.835 105.202 181.506 105.874 181.506 106.702V112.447C181.506 113.275 180.835 113.947 180.006 113.947Z" fill="#CD6028"/>
<path d="M180.006 108.203C177.607 108.203 175.655 106.251 175.655 103.851C175.655 101.451 177.607 99.4995 180.006 99.4995C182.405 99.4995 184.357 101.452 184.357 103.851C184.357 106.25 182.405 108.203 180.006 108.203ZM180.006 102.501C179.261 102.501 178.655 103.106 178.655 103.852C178.655 104.598 179.261 105.204 180.006 105.204C180.751 105.204 181.357 104.598 181.357 103.852C181.357 103.106 180.751 102.501 180.006 102.501Z" fill="#CD6028"/>
<path d="M164.447 129.495H158.702C157.873 129.495 157.202 128.823 157.202 127.995C157.202 127.167 157.873 126.495 158.702 126.495H164.447C165.276 126.495 165.947 127.167 165.947 127.995C165.947 128.823 165.276 129.495 164.447 129.495Z" fill="#CD6028"/>
<path d="M155.851 132.346C153.452 132.346 151.5 130.394 151.5 127.995C151.5 125.596 153.452 123.643 155.851 123.643C158.25 123.643 160.202 125.595 160.202 127.995C160.202 130.395 158.25 132.346 155.851 132.346ZM155.851 126.644C155.106 126.644 154.5 127.25 154.5 127.996C154.5 128.742 155.106 129.347 155.851 129.347C156.596 129.347 157.202 128.742 157.202 127.996C157.202 127.25 156.596 126.644 155.851 126.644Z" fill="#CD6028"/>
<path d="M201.298 129.507H195.553C194.724 129.507 194.053 128.835 194.053 128.007C194.053 127.179 194.724 126.507 195.553 126.507H201.298C202.127 126.507 202.798 127.179 202.798 128.007C202.798 128.835 202.127 129.507 201.298 129.507Z" fill="#CD6028"/>
<path d="M204.149 132.358C201.75 132.358 199.798 130.406 199.798 128.006C199.798 125.606 201.75 123.655 204.149 123.655C206.548 123.655 208.5 125.607 208.5 128.006C208.5 130.405 206.548 132.358 204.149 132.358ZM204.149 126.656C203.404 126.656 202.798 127.261 202.798 128.007C202.798 128.753 203.404 129.359 204.149 129.359C204.894 129.359 205.5 128.753 205.5 128.007C205.5 127.261 204.894 126.656 204.149 126.656Z" fill="#CD6028"/>
<path d="M179.994 150.798C179.165 150.798 178.494 150.126 178.494 149.298V143.553C178.494 142.725 179.165 142.053 179.994 142.053C180.823 142.053 181.494 142.725 181.494 143.553V149.298C181.494 150.126 180.823 150.798 179.994 150.798Z" fill="#CD6028"/>
<path d="M179.994 156.5C177.595 156.5 175.643 154.548 175.643 152.149C175.643 149.75 177.595 147.797 179.994 147.797C182.393 147.797 184.345 149.749 184.345 152.149C184.345 154.549 182.393 156.5 179.994 156.5ZM179.994 150.798C179.249 150.798 178.643 151.404 178.643 152.15C178.643 152.896 179.249 153.501 179.994 153.501C180.739 153.501 181.345 152.896 181.345 152.15C181.345 151.404 180.739 150.798 179.994 150.798Z" fill="#CD6028"/>
<path d="M189.09 113.95C188.261 113.95 187.59 113.278 187.59 112.45V104C187.59 103.172 188.261 102.5 189.09 102.5H193.266C194.095 102.5 194.766 103.172 194.766 104C194.766 104.828 194.095 105.5 193.266 105.5H190.59V112.45C190.59 113.278 189.919 113.95 189.09 113.95Z" fill="#CD6028"/>
<path d="M204 120.41H195.55C194.721 120.41 194.05 119.738 194.05 118.91C194.05 118.082 194.721 117.41 195.55 117.41H202.5V114.741C202.5 113.913 203.171 113.241 204 113.241C204.829 113.241 205.5 113.913 205.5 114.741V118.91C205.5 119.738 204.829 120.41 204 120.41Z" fill="#CD6028"/>
<path d="M204 142.767C203.171 142.767 202.5 142.095 202.5 141.267V138.591H195.55C194.721 138.591 194.05 137.919 194.05 137.091C194.05 136.263 194.721 135.591 195.55 135.591H204C204.829 135.591 205.5 136.263 205.5 137.091V141.267C205.5 142.095 204.829 142.767 204 142.767Z" fill="#CD6028"/>
<path d="M193.258 153.501H189.09C188.261 153.501 187.59 152.829 187.59 152.001V143.551C187.59 142.723 188.261 142.051 189.09 142.051C189.919 142.051 190.59 142.723 190.59 143.551V150.501H193.258C194.087 150.501 194.758 151.173 194.758 152.001C194.758 152.829 194.087 153.501 193.258 153.501Z" fill="#CD6028"/>
<path d="M170.91 153.501H166.734C165.905 153.501 165.234 152.829 165.234 152.001C165.234 151.173 165.905 150.501 166.734 150.501H169.41V143.551C169.41 142.723 170.081 142.051 170.91 142.051C171.739 142.051 172.41 142.723 172.41 143.551V152.001C172.41 152.829 171.739 153.501 170.91 153.501Z" fill="#CD6028"/>
<path d="M156 142.76C155.171 142.76 154.5 142.088 154.5 141.26V137.091C154.5 136.263 155.171 135.591 156 135.591H164.45C165.279 135.591 165.95 136.263 165.95 137.091C165.95 137.919 165.279 138.591 164.45 138.591H157.5V141.26C157.5 142.088 156.829 142.76 156 142.76Z" fill="#CD6028"/>
<path d="M164.45 120.41H156C155.171 120.41 154.5 119.738 154.5 118.91V114.734C154.5 113.906 155.171 113.234 156 113.234C156.829 113.234 157.5 113.906 157.5 114.734V117.41H164.45C165.279 117.41 165.95 118.082 165.95 118.91C165.95 119.738 165.279 120.41 164.45 120.41Z" fill="#CD6028"/>
<path d="M170.91 113.95C170.081 113.95 169.41 113.278 169.41 112.45V105.5H166.742C165.913 105.5 165.242 104.828 165.242 104C165.242 103.172 165.913 102.5 166.742 102.5H170.91C171.739 102.5 172.41 103.172 172.41 104V112.45C172.41 113.278 171.739 113.95 170.91 113.95Z" fill="#CD6028"/>
<path fill-rule="evenodd" clip-rule="evenodd" d="M181.489 135.899V136.78C181.489 137.575 180.845 138.22 180.05 138.22C179.255 138.22 178.611 137.575 178.611 136.78V135.957C177.363 135.753 176.221 135.048 175.48 134.024C175.014 133.381 175.158 132.482 175.8 132.016C176.443 131.551 177.342 131.694 177.807 132.337C178.179 132.851 178.733 133.14 179.368 133.14H180.425C181.479 133.14 182.346 132.273 182.346 131.219C182.346 130.166 181.479 129.299 180.425 129.299H179.674C177.032 129.299 174.875 127.142 174.875 124.5C174.875 122.263 176.437 120.315 178.61 119.82V118.939C178.61 118.144 179.255 117.5 180.05 117.5C180.845 117.5 181.489 118.144 181.489 118.939V119.762C182.736 119.966 183.879 120.671 184.62 121.695C185.085 122.338 184.942 123.237 184.299 123.702C183.656 124.168 182.758 124.025 182.292 123.382C181.921 122.868 181.367 122.579 180.732 122.579H179.674C178.621 122.579 177.754 123.446 177.754 124.5C177.754 125.553 178.621 126.42 179.674 126.42H180.425C183.068 126.42 185.225 128.577 185.225 131.219C185.225 133.457 183.663 135.404 181.489 135.899Z" fill="#3E6EB4"/>
<path d="M135.619 194.5V177.46H138.307V192.124H147.451V194.5H135.619ZM154.471 194.74C153.495 194.74 152.607 194.572 151.807 194.236C151.007 193.884 150.319 193.412 149.743 192.82C149.183 192.228 148.743 191.54 148.423 190.756C148.119 189.972 147.967 189.14 147.967 188.26C147.967 187.38 148.119 186.548 148.423 185.764C148.743 184.964 149.183 184.268 149.743 183.676C150.319 183.068 151.007 182.596 151.807 182.26C152.607 181.908 153.503 181.732 154.495 181.732C155.471 181.732 156.351 181.908 157.135 182.26C157.935 182.612 158.615 183.084 159.175 183.676C159.735 184.252 160.159 184.932 160.447 185.716C160.751 186.484 160.903 187.292 160.903 188.14C160.903 188.332 160.895 188.516 160.879 188.692C160.863 188.852 160.847 188.988 160.831 189.1H150.775C150.823 189.66 150.951 190.164 151.159 190.612C151.383 191.06 151.663 191.452 151.999 191.788C152.351 192.108 152.743 192.356 153.175 192.532C153.623 192.708 154.087 192.796 154.567 192.796C154.919 192.796 155.263 192.756 155.599 192.676C155.951 192.58 156.271 192.452 156.559 192.292C156.847 192.116 157.103 191.908 157.327 191.668C157.551 191.428 157.727 191.164 157.855 190.876L160.111 191.524C159.679 192.468 158.959 193.244 157.951 193.852C156.959 194.444 155.799 194.74 154.471 194.74ZM158.287 187.276C158.239 186.748 158.103 186.26 157.879 185.812C157.671 185.364 157.399 184.988 157.063 184.684C156.727 184.364 156.335 184.116 155.887 183.94C155.439 183.764 154.967 183.676 154.471 183.676C153.975 183.676 153.503 183.764 153.055 183.94C152.623 184.116 152.239 184.364 151.903 184.684C151.567 184.988 151.295 185.364 151.087 185.812C150.879 186.26 150.751 186.748 150.703 187.276H158.287ZM174.313 194.5H171.673V187.468C171.673 186.284 171.481 185.428 171.097 184.9C170.729 184.356 170.177 184.084 169.441 184.084C169.057 184.084 168.673 184.156 168.289 184.3C167.905 184.444 167.545 184.652 167.209 184.924C166.873 185.18 166.569 185.492 166.297 185.86C166.041 186.212 165.841 186.604 165.697 187.036V194.5H163.057V181.948H165.457V184.468C165.937 183.62 166.633 182.956 167.545 182.476C168.457 181.98 169.465 181.732 170.569 181.732C171.321 181.732 171.937 181.868 172.417 182.14C172.897 182.412 173.273 182.788 173.545 183.268C173.833 183.732 174.033 184.276 174.145 184.9C174.257 185.508 174.313 186.156 174.313 186.844V194.5ZM182.489 194.74C181.641 194.74 180.857 194.572 180.137 194.236C179.417 193.884 178.793 193.412 178.265 192.82C177.737 192.228 177.321 191.54 177.017 190.756C176.729 189.956 176.585 189.1 176.585 188.188C176.585 187.308 176.721 186.484 176.993 185.716C177.281 184.932 177.673 184.244 178.169 183.652C178.681 183.06 179.273 182.596 179.945 182.26C180.633 181.908 181.385 181.732 182.201 181.732C183.209 181.732 184.097 181.98 184.865 182.476C185.633 182.956 186.233 183.572 186.665 184.324V176.98H189.305V191.38C189.305 191.684 189.353 191.9 189.449 192.028C189.561 192.156 189.753 192.228 190.025 192.244V194.5C189.753 194.548 189.529 194.58 189.353 194.596C189.193 194.612 189.057 194.62 188.945 194.62C188.417 194.62 187.985 194.484 187.649 194.212C187.313 193.94 187.129 193.588 187.097 193.156L187.049 192.22C186.585 193.004 185.953 193.62 185.153 194.068C184.353 194.516 183.465 194.74 182.489 194.74ZM183.137 192.484C183.521 192.484 183.905 192.42 184.289 192.292C184.673 192.164 185.025 191.988 185.345 191.764C185.665 191.54 185.937 191.276 186.161 190.972C186.401 190.668 186.569 190.34 186.665 189.988V186.7C186.521 186.3 186.313 185.932 186.041 185.596C185.785 185.26 185.489 184.972 185.153 184.732C184.817 184.492 184.457 184.308 184.073 184.18C183.705 184.052 183.329 183.988 182.945 183.988C182.417 183.988 181.929 184.108 181.481 184.348C181.049 184.588 180.673 184.908 180.353 185.308C180.033 185.708 179.777 186.164 179.585 186.676C179.409 187.188 179.321 187.716 179.321 188.26C179.321 188.836 179.417 189.38 179.609 189.892C179.817 190.404 180.097 190.852 180.449 191.236C180.801 191.62 181.201 191.924 181.649 192.148C182.113 192.372 182.609 192.484 183.137 192.484ZM192.658 194.5V181.948H195.298V194.5H192.658ZM192.658 179.884V176.98H195.298V179.884H192.658ZM209.727 194.5H207.087V187.468C207.087 186.284 206.895 185.428 206.511 184.9C206.143 184.356 205.591 184.084 204.855 184.084C204.471 184.084 204.087 184.156 203.703 184.3C203.319 184.444 202.959 184.652 202.623 184.924C202.287 185.18 201.983 185.492 201.711 185.86C201.455 186.212 201.255 186.604 201.111 187.036V194.5H198.471V181.948H200.871V184.468C201.351 183.62 202.047 182.956 202.959 182.476C203.871 181.98 204.879 181.732 205.983 181.732C206.735 181.732 207.351 181.868 207.831 182.14C208.311 182.412 208.687 182.788 208.959 183.268C209.247 183.732 209.447 184.276 209.559 184.9C209.671 185.508 209.727 186.156 209.727 186.844V194.5ZM217.759 194.62C216.911 194.62 216.135 194.452 215.431 194.116C214.727 193.764 214.119 193.292 213.607 192.7C213.111 192.108 212.719 191.428 212.431 190.66C212.159 189.892 212.023 189.084 212.023 188.236C212.023 187.34 212.167 186.5 212.455 185.716C212.743 184.916 213.143 184.228 213.655 183.652C214.167 183.06 214.775 182.596 215.479 182.26C216.199 181.908 216.991 181.732 217.855 181.732C218.863 181.732 219.743 181.972 220.495 182.452C221.263 182.932 221.895 183.556 222.391 184.324V181.948H224.719V194.14C224.719 195.052 224.551 195.86 224.215 196.564C223.879 197.268 223.407 197.86 222.799 198.34C222.207 198.836 221.503 199.212 220.687 199.468C219.871 199.724 218.991 199.852 218.047 199.852C216.655 199.852 215.495 199.612 214.567 199.132C213.655 198.668 212.887 198.012 212.263 197.164L213.751 195.772C214.231 196.444 214.847 196.956 215.599 197.308C216.367 197.66 217.183 197.836 218.047 197.836C218.591 197.836 219.103 197.764 219.583 197.62C220.079 197.476 220.511 197.252 220.879 196.948C221.247 196.644 221.535 196.26 221.743 195.796C221.967 195.332 222.079 194.78 222.079 194.14V192.22C221.631 192.988 221.015 193.58 220.231 193.996C219.447 194.412 218.623 194.62 217.759 194.62ZM218.623 192.484C219.023 192.484 219.407 192.42 219.775 192.292C220.143 192.148 220.479 191.964 220.783 191.74C221.103 191.5 221.375 191.236 221.599 190.948C221.823 190.644 221.983 190.324 222.079 189.988V186.7C221.919 186.3 221.711 185.94 221.455 185.62C221.199 185.284 220.903 184.996 220.567 184.756C220.247 184.516 219.903 184.332 219.535 184.204C219.167 184.06 218.799 183.988 218.431 183.988C217.855 183.988 217.335 184.116 216.871 184.372C216.423 184.612 216.039 184.94 215.719 185.356C215.399 185.756 215.151 186.212 214.975 186.724C214.799 187.236 214.711 187.764 214.711 188.308C214.711 188.884 214.807 189.428 214.999 189.94C215.207 190.436 215.487 190.876 215.839 191.26C216.191 191.628 216.599 191.924 217.063 192.148C217.543 192.372 218.063 192.484 218.623 192.484Z" fill="#141219"/>
<path d="M50.5497 233.5V221.98H57.8297V223.332H51.9737V226.94H56.8697V228.292H51.9737V232.148H57.8297V233.5H50.5497ZM65.1548 233.5V229.172C65.1548 228.762 65.1175 228.367 65.0428 227.988C64.9735 227.61 64.8481 227.271 64.6668 226.972C64.4908 226.668 64.2508 226.428 63.9468 226.252C63.6481 226.076 63.2695 225.988 62.8108 225.988C62.4535 225.988 62.1281 226.05 61.8348 226.172C61.5468 226.29 61.2988 226.471 61.0908 226.716C60.8828 226.962 60.7201 227.271 60.6028 227.644C60.4908 228.012 60.4348 228.447 60.4348 228.948L59.4988 228.66C59.4988 227.823 59.6481 227.106 59.9468 226.508C60.2508 225.906 60.6748 225.444 61.2188 225.124C61.7681 224.799 62.4135 224.636 63.1548 224.636C63.7148 224.636 64.1921 224.724 64.5868 224.9C64.9815 225.076 65.3095 225.311 65.5708 225.604C65.8321 225.892 66.0375 226.218 66.1868 226.58C66.3361 226.938 66.4401 227.303 66.4988 227.676C66.5628 228.044 66.5948 228.394 66.5948 228.724V233.5H65.1548ZM58.9948 233.5V224.86H60.2748V227.172H60.4348V233.5H58.9948ZM71.1887 233.732C70.1594 233.732 69.314 233.508 68.6527 233.06C67.9967 232.607 67.594 231.975 67.4447 231.164L68.9007 230.932C69.018 231.402 69.2874 231.775 69.7087 232.052C70.13 232.324 70.6527 232.46 71.2767 232.46C71.8687 232.46 72.3327 232.338 72.6687 232.092C73.0047 231.847 73.1727 231.514 73.1727 231.092C73.1727 230.847 73.1167 230.65 73.0047 230.5C72.8927 230.346 72.6607 230.202 72.3087 230.068C71.962 229.935 71.4367 229.775 70.7327 229.588C69.97 229.386 69.37 229.175 68.9327 228.956C68.4954 228.738 68.1834 228.484 67.9967 228.196C67.81 227.908 67.7167 227.559 67.7167 227.148C67.7167 226.642 67.8554 226.199 68.1327 225.82C68.41 225.436 68.7967 225.14 69.2927 224.932C69.794 224.724 70.3754 224.62 71.0367 224.62C71.6927 224.62 72.2794 224.724 72.7967 224.932C73.314 225.14 73.73 225.436 74.0447 225.82C74.3647 226.199 74.554 226.642 74.6127 227.148L73.1567 227.412C73.0874 226.948 72.8634 226.583 72.4847 226.316C72.1114 226.05 71.6287 225.908 71.0367 225.892C70.4767 225.871 70.0207 225.97 69.6687 226.188C69.322 226.407 69.1487 226.703 69.1487 227.076C69.1487 227.284 69.2127 227.463 69.3407 227.612C69.474 227.762 69.7167 227.903 70.0687 228.036C70.426 228.17 70.9434 228.322 71.6207 228.492C72.3834 228.684 72.9834 228.895 73.4207 229.124C73.8634 229.348 74.178 229.615 74.3647 229.924C74.5514 230.228 74.6447 230.604 74.6447 231.052C74.6447 231.884 74.338 232.54 73.7247 233.02C73.1114 233.495 72.266 233.732 71.1887 233.732ZM78.9391 233.724C78.3844 233.724 77.9071 233.636 77.5071 233.46C77.1124 233.284 76.7844 233.05 76.5231 232.756C76.2617 232.463 76.0564 232.138 75.9071 231.78C75.7577 231.423 75.6511 231.058 75.5871 230.684C75.5284 230.311 75.4991 229.962 75.4991 229.636V224.86H76.9391V229.188C76.9391 229.594 76.9764 229.986 77.0511 230.364C77.1257 230.743 77.2511 231.084 77.4271 231.388C77.6084 231.692 77.8484 231.932 78.1471 232.108C78.4511 232.284 78.8297 232.372 79.2831 232.372C79.6404 232.372 79.9657 232.311 80.2591 232.188C80.5524 232.066 80.8031 231.884 81.0111 231.644C81.2191 231.399 81.3791 231.09 81.4911 230.716C81.6031 230.343 81.6591 229.908 81.6591 229.412L82.5951 229.7C82.5951 230.532 82.4431 231.25 82.1391 231.852C81.8404 232.455 81.4164 232.919 80.8671 233.244C80.3231 233.564 79.6804 233.724 78.9391 233.724ZM81.8191 233.5V231.188H81.6591V224.86H83.0911V233.5H81.8191ZM84.5809 233.5V224.86H85.8529V226.948L85.6449 226.676C85.7463 226.41 85.8769 226.164 86.0369 225.94C86.2023 225.716 86.3863 225.532 86.5889 225.388C86.8129 225.207 87.0663 225.068 87.3489 224.972C87.6316 224.876 87.9196 224.82 88.2129 224.804C88.5063 224.783 88.7809 224.802 89.0369 224.86V226.196C88.7383 226.116 88.4103 226.095 88.0529 226.132C87.6956 226.17 87.3649 226.3 87.0609 226.524C86.7836 226.722 86.5676 226.962 86.4129 227.244C86.2636 227.527 86.1596 227.834 86.1009 228.164C86.0423 228.49 86.0129 228.823 86.0129 229.164V233.5H84.5809ZM93.3874 233.74C92.5394 233.74 91.7981 233.554 91.1634 233.18C90.5341 232.802 90.0434 232.276 89.6914 231.604C89.3394 230.927 89.1634 230.138 89.1634 229.236C89.1634 228.292 89.3368 227.476 89.6834 226.788C90.0301 226.095 90.5128 225.562 91.1314 225.188C91.7554 224.81 92.4861 224.62 93.3234 224.62C94.1928 224.62 94.9314 224.82 95.5394 225.22C96.1528 225.62 96.6114 226.191 96.9154 226.932C97.2248 227.674 97.3581 228.556 97.3154 229.58H95.8754V229.068C95.8594 228.007 95.6434 227.215 95.2274 226.692C94.8114 226.164 94.1928 225.9 93.3714 225.9C92.4914 225.9 91.8221 226.183 91.3634 226.748C90.9048 227.314 90.6754 228.124 90.6754 229.18C90.6754 230.199 90.9048 230.988 91.3634 231.548C91.8221 232.108 92.4754 232.388 93.3234 232.388C93.8941 232.388 94.3901 232.258 94.8114 231.996C95.2328 231.735 95.5634 231.359 95.8034 230.868L97.1714 231.34C96.8354 232.103 96.3288 232.695 95.6514 233.116C94.9794 233.532 94.2248 233.74 93.3874 233.74ZM90.1954 229.58V228.436H96.5794V229.58H90.1954ZM101.624 233.5V224.388C101.624 224.164 101.634 223.938 101.656 223.708C101.677 223.474 101.725 223.247 101.8 223.028C101.874 222.804 101.997 222.599 102.168 222.412C102.365 222.194 102.581 222.039 102.816 221.948C103.05 221.852 103.288 221.794 103.528 221.772C103.773 221.751 104.005 221.74 104.224 221.74H105.32V222.924H104.304C103.882 222.924 103.568 223.028 103.36 223.236C103.152 223.439 103.048 223.748 103.048 224.164V233.5H101.624ZM100.16 226.036V224.86H105.32V226.036H100.16ZM108.068 233.74C107.423 233.74 106.882 233.623 106.444 233.388C106.012 233.148 105.684 232.834 105.46 232.444C105.242 232.055 105.132 231.628 105.132 231.164C105.132 230.711 105.218 230.319 105.388 229.988C105.564 229.652 105.81 229.375 106.124 229.156C106.439 228.932 106.815 228.756 107.252 228.628C107.663 228.516 108.122 228.42 108.628 228.34C109.14 228.255 109.658 228.178 110.18 228.108C110.703 228.039 111.191 227.972 111.644 227.908L111.132 228.204C111.148 227.436 110.994 226.868 110.668 226.5C110.348 226.132 109.794 225.948 109.004 225.948C108.482 225.948 108.023 226.068 107.628 226.308C107.239 226.543 106.964 226.927 106.804 227.46L105.452 227.052C105.66 226.295 106.063 225.7 106.66 225.268C107.258 224.836 108.044 224.62 109.02 224.62C109.804 224.62 110.476 224.762 111.036 225.044C111.602 225.322 112.007 225.743 112.252 226.308C112.375 226.575 112.452 226.866 112.484 227.18C112.516 227.49 112.532 227.815 112.532 228.156V233.5H111.268V231.428L111.564 231.62C111.239 232.319 110.783 232.847 110.196 233.204C109.615 233.562 108.906 233.74 108.068 233.74ZM108.284 232.548C108.796 232.548 109.239 232.458 109.612 232.276C109.991 232.09 110.295 231.847 110.524 231.548C110.754 231.244 110.903 230.914 110.972 230.556C111.052 230.29 111.095 229.994 111.1 229.668C111.111 229.338 111.116 229.084 111.116 228.908L111.612 229.124C111.148 229.188 110.692 229.25 110.244 229.308C109.796 229.367 109.372 229.431 108.972 229.5C108.572 229.564 108.212 229.642 107.892 229.732C107.658 229.807 107.436 229.903 107.228 230.02C107.026 230.138 106.86 230.29 106.732 230.476C106.61 230.658 106.548 230.884 106.548 231.156C106.548 231.391 106.607 231.615 106.724 231.828C106.847 232.042 107.034 232.215 107.284 232.348C107.54 232.482 107.874 232.548 108.284 232.548ZM117.126 233.732C116.097 233.732 115.252 233.508 114.59 233.06C113.934 232.607 113.532 231.975 113.382 231.164L114.838 230.932C114.956 231.402 115.225 231.775 115.646 232.052C116.068 232.324 116.59 232.46 117.214 232.46C117.806 232.46 118.27 232.338 118.606 232.092C118.942 231.847 119.11 231.514 119.11 231.092C119.11 230.847 119.054 230.65 118.942 230.5C118.83 230.346 118.598 230.202 118.246 230.068C117.9 229.935 117.374 229.775 116.67 229.588C115.908 229.386 115.308 229.175 114.87 228.956C114.433 228.738 114.121 228.484 113.934 228.196C113.748 227.908 113.654 227.559 113.654 227.148C113.654 226.642 113.793 226.199 114.07 225.82C114.348 225.436 114.734 225.14 115.23 224.932C115.732 224.724 116.313 224.62 116.974 224.62C117.63 224.62 118.217 224.724 118.734 224.932C119.252 225.14 119.668 225.436 119.982 225.82C120.302 226.199 120.492 226.642 120.55 227.148L119.094 227.412C119.025 226.948 118.801 226.583 118.422 226.316C118.049 226.05 117.566 225.908 116.974 225.892C116.414 225.871 115.958 225.97 115.606 226.188C115.26 226.407 115.086 226.703 115.086 227.076C115.086 227.284 115.15 227.463 115.278 227.612C115.412 227.762 115.654 227.903 116.006 228.036C116.364 228.17 116.881 228.322 117.558 228.492C118.321 228.684 118.921 228.895 119.358 229.124C119.801 229.348 120.116 229.615 120.302 229.924C120.489 230.228 120.582 230.604 120.582 231.052C120.582 231.884 120.276 232.54 119.662 233.02C119.049 233.495 118.204 233.732 117.126 233.732ZM126.421 233.5C125.909 233.602 125.402 233.642 124.901 233.62C124.405 233.604 123.962 233.506 123.573 233.324C123.183 233.138 122.887 232.85 122.685 232.46C122.514 232.119 122.421 231.775 122.405 231.428C122.394 231.076 122.389 230.679 122.389 230.236V222.46H123.813V230.172C123.813 230.524 123.815 230.826 123.821 231.076C123.831 231.327 123.887 231.543 123.989 231.724C124.181 232.066 124.485 232.266 124.901 232.324C125.322 232.383 125.829 232.367 126.421 232.276V233.5ZM120.637 226.036V224.86H126.421V226.036H120.637ZM130.809 233.74C129.961 233.74 129.22 233.554 128.585 233.18C127.956 232.802 127.465 232.276 127.113 231.604C126.761 230.927 126.585 230.138 126.585 229.236C126.585 228.292 126.759 227.476 127.105 226.788C127.452 226.095 127.935 225.562 128.553 225.188C129.177 224.81 129.908 224.62 130.745 224.62C131.615 224.62 132.353 224.82 132.961 225.22C133.575 225.62 134.033 226.191 134.337 226.932C134.647 227.674 134.78 228.556 134.737 229.58H133.297V229.068C133.281 228.007 133.065 227.215 132.649 226.692C132.233 226.164 131.615 225.9 130.793 225.9C129.913 225.9 129.244 226.183 128.785 226.748C128.327 227.314 128.097 228.124 128.097 229.18C128.097 230.199 128.327 230.988 128.785 231.548C129.244 232.108 129.897 232.388 130.745 232.388C131.316 232.388 131.812 232.258 132.233 231.996C132.655 231.735 132.985 231.359 133.225 230.868L134.593 231.34C134.257 232.103 133.751 232.695 133.073 233.116C132.401 233.532 131.647 233.74 130.809 233.74ZM127.617 229.58V228.436H134.001V229.58H127.617ZM135.768 233.5V224.86H137.04V226.948L136.832 226.676C136.934 226.41 137.064 226.164 137.224 225.94C137.39 225.716 137.574 225.532 137.776 225.388C138 225.207 138.254 225.068 138.536 224.972C138.819 224.876 139.107 224.82 139.4 224.804C139.694 224.783 139.968 224.802 140.224 224.86V226.196C139.926 226.116 139.598 226.095 139.24 226.132C138.883 226.17 138.552 226.3 138.248 226.524C137.971 226.722 137.755 226.962 137.6 227.244C137.451 227.527 137.347 227.834 137.288 228.164C137.23 228.49 137.2 228.823 137.2 229.164V233.5H135.768ZM143.6 233.5V221.74H145.024V233.5H143.6ZM150.355 233.74C149.496 233.74 148.755 233.546 148.131 233.156C147.512 232.767 147.035 232.228 146.699 231.54C146.363 230.852 146.195 230.063 146.195 229.172C146.195 228.266 146.365 227.471 146.707 226.788C147.048 226.106 147.531 225.575 148.155 225.196C148.779 224.812 149.512 224.62 150.355 224.62C151.219 224.62 151.963 224.815 152.587 225.204C153.211 225.588 153.688 226.124 154.019 226.812C154.355 227.495 154.523 228.282 154.523 229.172C154.523 230.074 154.355 230.868 154.019 231.556C153.683 232.239 153.203 232.775 152.579 233.164C151.955 233.548 151.213 233.74 150.355 233.74ZM150.355 232.388C151.251 232.388 151.917 232.09 152.355 231.492C152.792 230.895 153.011 230.122 153.011 229.172C153.011 228.196 152.789 227.42 152.347 226.844C151.904 226.263 151.24 225.972 150.355 225.972C149.752 225.972 149.256 226.108 148.867 226.38C148.477 226.652 148.187 227.028 147.995 227.508C147.803 227.988 147.707 228.543 147.707 229.172C147.707 230.143 147.931 230.922 148.379 231.508C148.827 232.095 149.485 232.388 150.355 232.388ZM157.99 233.74C157.345 233.74 156.803 233.623 156.366 233.388C155.934 233.148 155.606 232.834 155.382 232.444C155.163 232.055 155.054 231.628 155.054 231.164C155.054 230.711 155.139 230.319 155.31 229.988C155.486 229.652 155.731 229.375 156.046 229.156C156.361 228.932 156.737 228.756 157.174 228.628C157.585 228.516 158.043 228.42 158.55 228.34C159.062 228.255 159.579 228.178 160.102 228.108C160.625 228.039 161.113 227.972 161.566 227.908L161.054 228.204C161.07 227.436 160.915 226.868 160.59 226.5C160.27 226.132 159.715 225.948 158.926 225.948C158.403 225.948 157.945 226.068 157.55 226.308C157.161 226.543 156.886 226.927 156.726 227.46L155.374 227.052C155.582 226.295 155.985 225.7 156.582 225.268C157.179 224.836 157.966 224.62 158.942 224.62C159.726 224.62 160.398 224.762 160.958 225.044C161.523 225.322 161.929 225.743 162.174 226.308C162.297 226.575 162.374 226.866 162.406 227.18C162.438 227.49 162.454 227.815 162.454 228.156V233.5H161.19V231.428L161.486 231.62C161.161 232.319 160.705 232.847 160.118 233.204C159.537 233.562 158.827 233.74 157.99 233.74ZM158.206 232.548C158.718 232.548 159.161 232.458 159.534 232.276C159.913 232.09 160.217 231.847 160.446 231.548C160.675 231.244 160.825 230.914 160.894 230.556C160.974 230.29 161.017 229.994 161.022 229.668C161.033 229.338 161.038 229.084 161.038 228.908L161.534 229.124C161.07 229.188 160.614 229.25 160.166 229.308C159.718 229.367 159.294 229.431 158.894 229.5C158.494 229.564 158.134 229.642 157.814 229.732C157.579 229.807 157.358 229.903 157.15 230.02C156.947 230.138 156.782 230.29 156.654 230.476C156.531 230.658 156.47 230.884 156.47 231.156C156.47 231.391 156.529 231.615 156.646 231.828C156.769 232.042 156.955 232.215 157.206 232.348C157.462 232.482 157.795 232.548 158.206 232.548ZM169.936 233.5V229.172C169.936 228.762 169.899 228.367 169.824 227.988C169.755 227.61 169.629 227.271 169.448 226.972C169.272 226.668 169.032 226.428 168.728 226.252C168.429 226.076 168.051 225.988 167.592 225.988C167.235 225.988 166.909 226.05 166.616 226.172C166.328 226.29 166.08 226.471 165.872 226.716C165.664 226.962 165.501 227.271 165.384 227.644C165.272 228.012 165.216 228.447 165.216 228.948L164.28 228.66C164.28 227.823 164.429 227.106 164.728 226.508C165.032 225.906 165.456 225.444 166 225.124C166.549 224.799 167.195 224.636 167.936 224.636C168.496 224.636 168.973 224.724 169.368 224.9C169.763 225.076 170.091 225.311 170.352 225.604C170.613 225.892 170.819 226.218 170.968 226.58C171.117 226.938 171.221 227.303 171.28 227.676C171.344 228.044 171.376 228.394 171.376 228.724V233.5H169.936ZM163.776 233.5V224.86H165.056V227.172H165.216V233.5H163.776ZM177.615 233.74C176.97 233.74 176.428 233.623 175.991 233.388C175.559 233.148 175.231 232.834 175.007 232.444C174.788 232.055 174.679 231.628 174.679 231.164C174.679 230.711 174.764 230.319 174.935 229.988C175.111 229.652 175.356 229.375 175.671 229.156C175.986 228.932 176.362 228.756 176.799 228.628C177.21 228.516 177.668 228.42 178.175 228.34C178.687 228.255 179.204 228.178 179.727 228.108C180.25 228.039 180.738 227.972 181.191 227.908L180.679 228.204C180.695 227.436 180.54 226.868 180.215 226.5C179.895 226.132 179.34 225.948 178.551 225.948C178.028 225.948 177.57 226.068 177.175 226.308C176.786 226.543 176.511 226.927 176.351 227.46L174.999 227.052C175.207 226.295 175.61 225.7 176.207 225.268C176.804 224.836 177.591 224.62 178.567 224.62C179.351 224.62 180.023 224.762 180.583 225.044C181.148 225.322 181.554 225.743 181.799 226.308C181.922 226.575 181.999 226.866 182.031 227.18C182.063 227.49 182.079 227.815 182.079 228.156V233.5H180.815V231.428L181.111 231.62C180.786 232.319 180.33 232.847 179.743 233.204C179.162 233.562 178.452 233.74 177.615 233.74ZM177.831 232.548C178.343 232.548 178.786 232.458 179.159 232.276C179.538 232.09 179.842 231.847 180.071 231.548C180.3 231.244 180.45 230.914 180.519 230.556C180.599 230.29 180.642 229.994 180.647 229.668C180.658 229.338 180.663 229.084 180.663 228.908L181.159 229.124C180.695 229.188 180.239 229.25 179.791 229.308C179.343 229.367 178.919 229.431 178.519 229.5C178.119 229.564 177.759 229.642 177.439 229.732C177.204 229.807 176.983 229.903 176.775 230.02C176.572 230.138 176.407 230.29 176.279 230.476C176.156 230.658 176.095 230.884 176.095 231.156C176.095 231.391 176.154 231.615 176.271 231.828C176.394 232.042 176.58 232.215 176.831 232.348C177.087 232.482 177.42 232.548 177.831 232.548ZM187.377 233.74C186.566 233.74 185.884 233.54 185.329 233.14C184.774 232.735 184.353 232.188 184.065 231.5C183.782 230.807 183.641 230.031 183.641 229.172C183.641 228.303 183.782 227.524 184.065 226.836C184.353 226.148 184.774 225.607 185.329 225.212C185.889 224.818 186.574 224.62 187.385 224.62C188.185 224.62 188.873 224.82 189.449 225.22C190.03 225.615 190.476 226.156 190.785 226.844C191.094 227.532 191.249 228.308 191.249 229.172C191.249 230.036 191.094 230.812 190.785 231.5C190.476 232.188 190.03 232.735 189.449 233.14C188.873 233.54 188.182 233.74 187.377 233.74ZM183.401 237.34V224.86H184.673V231.22H184.833V237.34H183.401ZM187.201 232.436C187.772 232.436 188.244 232.292 188.617 232.004C188.99 231.716 189.27 231.327 189.457 230.836C189.644 230.34 189.737 229.786 189.737 229.172C189.737 228.564 189.644 228.015 189.457 227.524C189.276 227.034 188.993 226.644 188.609 226.356C188.23 226.068 187.748 225.924 187.161 225.924C186.601 225.924 186.137 226.063 185.769 226.34C185.401 226.612 185.126 226.994 184.945 227.484C184.764 227.97 184.673 228.532 184.673 229.172C184.673 229.802 184.761 230.364 184.937 230.86C185.118 231.351 185.396 231.738 185.769 232.02C186.142 232.298 186.62 232.436 187.201 232.436ZM196.221 233.74C195.41 233.74 194.727 233.54 194.173 233.14C193.618 232.735 193.197 232.188 192.909 231.5C192.626 230.807 192.485 230.031 192.485 229.172C192.485 228.303 192.626 227.524 192.909 226.836C193.197 226.148 193.618 225.607 194.173 225.212C194.733 224.818 195.418 224.62 196.229 224.62C197.029 224.62 197.717 224.82 198.293 225.22C198.874 225.615 199.319 226.156 199.629 226.844C199.938 227.532 200.093 228.308 200.093 229.172C200.093 230.036 199.938 230.812 199.629 231.5C199.319 232.188 198.874 232.735 198.293 233.14C197.717 233.54 197.026 233.74 196.221 233.74ZM192.245 237.34V224.86H193.517V231.22H193.677V237.34H192.245ZM196.045 232.436C196.615 232.436 197.087 232.292 197.461 232.004C197.834 231.716 198.114 231.327 198.301 230.836C198.487 230.34 198.581 229.786 198.581 229.172C198.581 228.564 198.487 228.015 198.301 227.524C198.119 227.034 197.837 226.644 197.453 226.356C197.074 226.068 196.591 225.924 196.005 225.924C195.445 225.924 194.981 226.063 194.613 226.34C194.245 226.612 193.97 226.994 193.789 227.484C193.607 227.97 193.517 228.532 193.517 229.172C193.517 229.802 193.605 230.364 193.781 230.86C193.962 231.351 194.239 231.738 194.613 232.02C194.986 232.298 195.463 232.436 196.045 232.436ZM201.097 233.5V224.86H202.369V226.948L202.161 226.676C202.262 226.41 202.393 226.164 202.553 225.94C202.718 225.716 202.902 225.532 203.105 225.388C203.329 225.207 203.582 225.068 203.865 224.972C204.147 224.876 204.435 224.82 204.729 224.804C205.022 224.783 205.297 224.802 205.553 224.86V226.196C205.254 226.116 204.926 226.095 204.569 226.132C204.211 226.17 203.881 226.3 203.577 226.524C203.299 226.722 203.083 226.962 202.929 227.244C202.779 227.527 202.675 227.834 202.617 228.164C202.558 228.49 202.529 228.823 202.529 229.164V233.5H201.097ZM209.839 233.74C208.98 233.74 208.239 233.546 207.615 233.156C206.996 232.767 206.519 232.228 206.183 231.54C205.847 230.852 205.679 230.063 205.679 229.172C205.679 228.266 205.85 227.471 206.191 226.788C206.532 226.106 207.015 225.575 207.639 225.196C208.263 224.812 208.996 224.62 209.839 224.62C210.703 224.62 211.447 224.815 212.071 225.204C212.695 225.588 213.172 226.124 213.503 226.812C213.839 227.495 214.007 228.282 214.007 229.172C214.007 230.074 213.839 230.868 213.503 231.556C213.167 232.239 212.687 232.775 212.063 233.164C211.439 233.548 210.698 233.74 209.839 233.74ZM209.839 232.388C210.735 232.388 211.402 232.09 211.839 231.492C212.276 230.895 212.495 230.122 212.495 229.172C212.495 228.196 212.274 227.42 211.831 226.844C211.388 226.263 210.724 225.972 209.839 225.972C209.236 225.972 208.74 226.108 208.351 226.38C207.962 226.652 207.671 227.028 207.479 227.508C207.287 227.988 207.191 228.543 207.191 229.172C207.191 230.143 207.415 230.922 207.863 231.508C208.311 232.095 208.97 232.388 209.839 232.388ZM217.042 233.5L213.906 224.86H215.346L217.77 231.684L220.186 224.86H221.634L218.498 233.5H217.042ZM224.303 233.74C223.657 233.74 223.116 233.623 222.679 233.388C222.247 233.148 221.919 232.834 221.695 232.444C221.476 232.055 221.367 231.628 221.367 231.164C221.367 230.711 221.452 230.319 221.623 229.988C221.799 229.652 222.044 229.375 222.359 229.156C222.673 228.932 223.049 228.756 223.487 228.628C223.897 228.516 224.356 228.42 224.863 228.34C225.375 228.255 225.892 228.178 226.415 228.108C226.937 228.039 227.425 227.972 227.879 227.908L227.367 228.204C227.383 227.436 227.228 226.868 226.903 226.5C226.583 226.132 226.028 225.948 225.239 225.948C224.716 225.948 224.257 226.068 223.863 226.308C223.473 226.543 223.199 226.927 223.039 227.46L221.687 227.052C221.895 226.295 222.297 225.7 222.895 225.268C223.492 224.836 224.279 224.62 225.255 224.62C226.039 224.62 226.711 224.762 227.271 225.044C227.836 225.322 228.241 225.743 228.487 226.308C228.609 226.575 228.687 226.866 228.719 227.18C228.751 227.49 228.767 227.815 228.767 228.156V233.5H227.503V231.428L227.799 231.62C227.473 232.319 227.017 232.847 226.431 233.204C225.849 233.562 225.14 233.74 224.303 233.74ZM224.519 232.548C225.031 232.548 225.473 232.458 225.847 232.276C226.225 232.09 226.529 231.847 226.759 231.548C226.988 231.244 227.137 230.914 227.207 230.556C227.287 230.29 227.329 229.994 227.335 229.668C227.345 229.338 227.351 229.084 227.351 228.908L227.847 229.124C227.383 229.188 226.927 229.25 226.479 229.308C226.031 229.367 225.607 229.431 225.207 229.5C224.807 229.564 224.447 229.642 224.127 229.732C223.892 229.807 223.671 229.903 223.463 230.02C223.26 230.138 223.095 230.29 222.967 230.476C222.844 230.658 222.783 230.884 222.783 231.156C222.783 231.391 222.841 231.615 222.959 231.828C223.081 232.042 223.268 232.215 223.519 232.348C223.775 232.482 224.108 232.548 224.519 232.548ZM230.257 233.5V221.74H231.681V233.5H230.257ZM236.595 233.732C235.566 233.732 234.72 233.508 234.059 233.06C233.403 232.607 233 231.975 232.851 231.164L234.307 230.932C234.424 231.402 234.694 231.775 235.115 232.052C235.536 232.324 236.059 232.46 236.683 232.46C237.275 232.46 237.739 232.338 238.075 232.092C238.411 231.847 238.579 231.514 238.579 231.092C238.579 230.847 238.523 230.65 238.411 230.5C238.299 230.346 238.067 230.202 237.715 230.068C237.368 229.935 236.843 229.775 236.139 229.588C235.376 229.386 234.776 229.175 234.339 228.956C233.902 228.738 233.59 228.484 233.403 228.196C233.216 227.908 233.123 227.559 233.123 227.148C233.123 226.642 233.262 226.199 233.539 225.82C233.816 225.436 234.203 225.14 234.699 224.932C235.2 224.724 235.782 224.62 236.443 224.62C237.099 224.62 237.686 224.724 238.203 224.932C238.72 225.14 239.136 225.436 239.451 225.82C239.771 226.199 239.96 226.642 240.019 227.148L238.563 227.412C238.494 226.948 238.27 226.583 237.891 226.316C237.518 226.05 237.035 225.908 236.443 225.892C235.883 225.871 235.427 225.97 235.075 226.188C234.728 226.407 234.555 226.703 234.555 227.076C234.555 227.284 234.619 227.463 234.747 227.612C234.88 227.762 235.123 227.903 235.475 228.036C235.832 228.17 236.35 228.322 237.027 228.492C237.79 228.684 238.39 228.895 238.827 229.124C239.27 229.348 239.584 229.615 239.771 229.924C239.958 230.228 240.051 230.604 240.051 231.052C240.051 231.884 239.744 232.54 239.131 233.02C238.518 233.495 237.672 233.732 236.595 233.732ZM245.358 233.5L242.718 224.852L244.134 224.86L246.062 231.18L248.006 224.86H249.262L251.198 231.18L253.134 224.86H254.542L251.902 233.5H250.718L248.63 226.932L246.542 233.5H245.358ZM255.397 223.332V221.86H256.821V223.332H255.397ZM255.397 233.5V224.86H256.821V233.5H255.397ZM263.296 233.5C262.784 233.602 262.277 233.642 261.776 233.62C261.28 233.604 260.837 233.506 260.448 233.324C260.058 233.138 259.762 232.85 259.56 232.46C259.389 232.119 259.296 231.775 259.28 231.428C259.269 231.076 259.264 230.679 259.264 230.236V222.46H260.688V230.172C260.688 230.524 260.69 230.826 260.696 231.076C260.706 231.327 260.762 231.543 260.864 231.724C261.056 232.066 261.36 232.266 261.776 232.324C262.197 232.383 262.704 232.367 263.296 232.276V233.5ZM257.512 226.036V224.86H263.296V226.036H257.512ZM270.452 233.5V229.172C270.452 228.762 270.414 228.367 270.34 227.988C270.27 227.61 270.145 227.271 269.964 226.972C269.788 226.668 269.548 226.428 269.244 226.252C268.945 226.076 268.566 225.988 268.108 225.988C267.75 225.988 267.425 226.05 267.132 226.172C266.844 226.29 266.596 226.471 266.388 226.716C266.18 226.962 266.017 227.271 265.9 227.644C265.788 228.012 265.732 228.447 265.732 228.948L264.796 228.66C264.796 227.823 264.945 227.106 265.244 226.508C265.548 225.906 265.972 225.444 266.516 225.124C267.065 224.799 267.71 224.636 268.452 224.636C269.012 224.636 269.489 224.724 269.884 224.9C270.278 225.076 270.606 225.311 270.868 225.604C271.129 225.892 271.334 226.218 271.484 226.58C271.633 226.938 271.737 227.303 271.796 227.676C271.86 228.044 271.892 228.394 271.892 228.724V233.5H270.452ZM264.292 233.5V221.98H265.572V228.34H265.732V233.5H264.292ZM276.499 233.5V224.388C276.499 224.164 276.509 223.938 276.531 223.708C276.552 223.474 276.6 223.247 276.675 223.028C276.749 222.804 276.872 222.599 277.043 222.412C277.24 222.194 277.456 222.039 277.691 221.948C277.925 221.852 278.163 221.794 278.403 221.772C278.648 221.751 278.88 221.74 279.099 221.74H280.195V222.924H279.179C278.757 222.924 278.443 223.028 278.235 223.236C278.027 223.439 277.923 223.748 277.923 224.164V233.5H276.499ZM275.035 226.036V224.86H280.195V226.036H275.035ZM280.722 233.5V224.86H281.994V226.948L281.786 226.676C281.887 226.41 282.018 226.164 282.178 225.94C282.343 225.716 282.527 225.532 282.73 225.388C282.954 225.207 283.207 225.068 283.49 224.972C283.772 224.876 284.06 224.82 284.354 224.804C284.647 224.783 284.922 224.802 285.178 224.86V226.196C284.879 226.116 284.551 226.095 284.194 226.132C283.836 226.17 283.506 226.3 283.202 226.524C282.924 226.722 282.708 226.962 282.554 227.244C282.404 227.527 282.3 227.834 282.242 228.164C282.183 228.49 282.154 228.823 282.154 229.164V233.5H280.722ZM288.115 233.74C287.47 233.74 286.928 233.623 286.491 233.388C286.059 233.148 285.731 232.834 285.507 232.444C285.288 232.055 285.179 231.628 285.179 231.164C285.179 230.711 285.264 230.319 285.435 229.988C285.611 229.652 285.856 229.375 286.171 229.156C286.486 228.932 286.862 228.756 287.299 228.628C287.71 228.516 288.168 228.42 288.675 228.34C289.187 228.255 289.704 228.178 290.227 228.108C290.75 228.039 291.238 227.972 291.691 227.908L291.179 228.204C291.195 227.436 291.04 226.868 290.715 226.5C290.395 226.132 289.84 225.948 289.051 225.948C288.528 225.948 288.07 226.068 287.675 226.308C287.286 226.543 287.011 226.927 286.851 227.46L285.499 227.052C285.707 226.295 286.11 225.7 286.707 225.268C287.304 224.836 288.091 224.62 289.067 224.62C289.851 224.62 290.523 224.762 291.083 225.044C291.648 225.322 292.054 225.743 292.299 226.308C292.422 226.575 292.499 226.866 292.531 227.18C292.563 227.49 292.579 227.815 292.579 228.156V233.5H291.315V231.428L291.611 231.62C291.286 232.319 290.83 232.847 290.243 233.204C289.662 233.562 288.952 233.74 288.115 233.74ZM288.331 232.548C288.843 232.548 289.286 232.458 289.659 232.276C290.038 232.09 290.342 231.847 290.571 231.548C290.8 231.244 290.95 230.914 291.019 230.556C291.099 230.29 291.142 229.994 291.147 229.668C291.158 229.338 291.163 229.084 291.163 228.908L291.659 229.124C291.195 229.188 290.739 229.25 290.291 229.308C289.843 229.367 289.419 229.431 289.019 229.5C288.619 229.564 288.259 229.642 287.939 229.732C287.704 229.807 287.483 229.903 287.275 230.02C287.072 230.138 286.907 230.29 286.779 230.476C286.656 230.658 286.595 230.884 286.595 231.156C286.595 231.391 286.654 231.615 286.771 231.828C286.894 232.042 287.08 232.215 287.331 232.348C287.587 232.482 287.92 232.548 288.331 232.548ZM297.189 233.724C296.634 233.724 296.157 233.636 295.757 233.46C295.362 233.284 295.034 233.05 294.773 232.756C294.512 232.463 294.306 232.138 294.157 231.78C294.008 231.423 293.901 231.058 293.837 230.684C293.778 230.311 293.749 229.962 293.749 229.636V224.86H295.189V229.188C295.189 229.594 295.226 229.986 295.301 230.364C295.376 230.743 295.501 231.084 295.677 231.388C295.858 231.692 296.098 231.932 296.397 232.108C296.701 232.284 297.08 232.372 297.533 232.372C297.89 232.372 298.216 232.311 298.509 232.188C298.802 232.066 299.053 231.884 299.261 231.644C299.469 231.399 299.629 231.09 299.741 230.716C299.853 230.343 299.909 229.908 299.909 229.412L300.845 229.7C300.845 230.532 300.693 231.25 300.389 231.852C300.09 232.455 299.666 232.919 299.117 233.244C298.573 233.564 297.93 233.724 297.189 233.724ZM300.069 233.5V231.188H299.909V224.86H301.341V233.5H300.069ZM306.223 233.74C305.418 233.74 304.727 233.54 304.151 233.14C303.575 232.735 303.13 232.188 302.815 231.5C302.506 230.812 302.351 230.036 302.351 229.172C302.351 228.308 302.506 227.532 302.815 226.844C303.13 226.156 303.575 225.615 304.151 225.22C304.727 224.82 305.415 224.62 306.215 224.62C307.031 224.62 307.716 224.818 308.271 225.212C308.826 225.607 309.244 226.148 309.527 226.836C309.815 227.524 309.959 228.303 309.959 229.172C309.959 230.031 309.815 230.807 309.527 231.5C309.244 232.188 308.826 232.735 308.271 233.14C307.716 233.54 307.034 233.74 306.223 233.74ZM306.399 232.436C306.98 232.436 307.458 232.298 307.831 232.02C308.204 231.738 308.479 231.351 308.655 230.86C308.836 230.364 308.927 229.802 308.927 229.172C308.927 228.532 308.836 227.97 308.655 227.484C308.479 226.994 308.207 226.612 307.839 226.34C307.471 226.063 307.004 225.924 306.439 225.924C305.852 225.924 305.367 226.068 304.983 226.356C304.604 226.644 304.322 227.034 304.135 227.524C303.954 228.015 303.863 228.564 303.863 229.172C303.863 229.786 303.956 230.34 304.143 230.836C304.33 231.327 304.61 231.716 304.983 232.004C305.362 232.292 305.834 232.436 306.399 232.436ZM308.927 233.5V227.14H308.767V221.98H310.199V233.5H308.927ZM69.4495 255.74C68.6442 255.74 67.9535 255.54 67.3775 255.14C66.8015 254.735 66.3562 254.188 66.0415 253.5C65.7322 252.812 65.5775 252.036 65.5775 251.172C65.5775 250.308 65.7322 249.532 66.0415 248.844C66.3562 248.156 66.8015 247.615 67.3775 247.22C67.9535 246.82 68.6415 246.62 69.4415 246.62C70.2575 246.62 70.9428 246.818 71.4975 247.212C72.0522 247.607 72.4708 248.148 72.7535 248.836C73.0415 249.524 73.1855 250.303 73.1855 251.172C73.1855 252.031 73.0415 252.807 72.7535 253.5C72.4708 254.188 72.0522 254.735 71.4975 255.14C70.9428 255.54 70.2602 255.74 69.4495 255.74ZM69.6255 254.436C70.2068 254.436 70.6842 254.298 71.0575 254.02C71.4308 253.738 71.7055 253.351 71.8815 252.86C72.0628 252.364 72.1535 251.802 72.1535 251.172C72.1535 250.532 72.0628 249.97 71.8815 249.484C71.7055 248.994 71.4335 248.612 71.0655 248.34C70.6975 248.063 70.2308 247.924 69.6655 247.924C69.0788 247.924 68.5935 248.068 68.2095 248.356C67.8308 248.644 67.5482 249.034 67.3615 249.524C67.1802 250.015 67.0895 250.564 67.0895 251.172C67.0895 251.786 67.1828 252.34 67.3695 252.836C67.5562 253.327 67.8362 253.716 68.2095 254.004C68.5882 254.292 69.0602 254.436 69.6255 254.436ZM72.1535 255.5V249.14H71.9935V243.98H73.4255V255.5H72.1535ZM78.6609 255.74C77.8129 255.74 77.0715 255.554 76.4369 255.18C75.8075 254.802 75.3169 254.276 74.9649 253.604C74.6129 252.927 74.4369 252.138 74.4369 251.236C74.4369 250.292 74.6102 249.476 74.9569 248.788C75.3035 248.095 75.7862 247.562 76.4049 247.188C77.0289 246.81 77.7595 246.62 78.5969 246.62C79.4662 246.62 80.2049 246.82 80.8129 247.22C81.4262 247.62 81.8849 248.191 82.1889 248.932C82.4982 249.674 82.6315 250.556 82.5889 251.58H81.1489V251.068C81.1329 250.007 80.9169 249.215 80.5009 248.692C80.0849 248.164 79.4662 247.9 78.6449 247.9C77.7649 247.9 77.0955 248.183 76.6369 248.748C76.1782 249.314 75.9489 250.124 75.9489 251.18C75.9489 252.199 76.1782 252.988 76.6369 253.548C77.0955 254.108 77.7489 254.388 78.5969 254.388C79.1675 254.388 79.6635 254.258 80.0849 253.996C80.5062 253.735 80.8369 253.359 81.0769 252.868L82.4449 253.34C82.1089 254.103 81.6022 254.695 80.9249 255.116C80.2529 255.532 79.4982 255.74 78.6609 255.74ZM75.4689 251.58V250.436H81.8529V251.58H75.4689ZM88.444 255.5C87.932 255.602 87.4253 255.642 86.924 255.62C86.428 255.604 85.9853 255.506 85.596 255.324C85.2067 255.138 84.9107 254.85 84.708 254.46C84.5373 254.119 84.444 253.775 84.428 253.428C84.4173 253.076 84.412 252.679 84.412 252.236V244.46H85.836V252.172C85.836 252.524 85.8387 252.826 85.844 253.076C85.8547 253.327 85.9107 253.543 86.012 253.724C86.204 254.066 86.508 254.266 86.924 254.324C87.3453 254.383 87.852 254.367 88.444 254.276V255.5ZM82.66 248.036V246.86H88.444V248.036H82.66ZM92.8328 255.74C91.9848 255.74 91.2434 255.554 90.6088 255.18C89.9794 254.802 89.4888 254.276 89.1368 253.604C88.7848 252.927 88.6088 252.138 88.6088 251.236C88.6088 250.292 88.7821 249.476 89.1288 248.788C89.4754 248.095 89.9581 247.562 90.5768 247.188C91.2008 246.81 91.9314 246.62 92.7688 246.62C93.6381 246.62 94.3768 246.82 94.9848 247.22C95.5981 247.62 96.0568 248.191 96.3608 248.932C96.6701 249.674 96.8034 250.556 96.7608 251.58H95.3208V251.068C95.3048 250.007 95.0888 249.215 94.6728 248.692C94.2568 248.164 93.6381 247.9 92.8168 247.9C91.9368 247.9 91.2674 248.183 90.8088 248.748C90.3501 249.314 90.1208 250.124 90.1208 251.18C90.1208 252.199 90.3501 252.988 90.8088 253.548C91.2674 254.108 91.9208 254.388 92.7688 254.388C93.3394 254.388 93.8354 254.258 94.2568 253.996C94.6781 253.735 95.0088 253.359 95.2488 252.868L96.6168 253.34C96.2808 254.103 95.7741 254.695 95.0968 255.116C94.4248 255.532 93.6701 255.74 92.8328 255.74ZM89.6408 251.58V250.436H96.0248V251.58H89.6408ZM101.432 255.74C100.557 255.74 99.8132 255.546 99.1999 255.156C98.5919 254.762 98.1279 254.22 97.8079 253.532C97.4879 252.844 97.3225 252.06 97.3119 251.18C97.3225 250.279 97.4905 249.487 97.8159 248.804C98.1465 248.116 98.6185 247.58 99.2319 247.196C99.8452 246.812 100.584 246.62 101.448 246.62C102.36 246.62 103.144 246.844 103.8 247.292C104.461 247.74 104.904 248.354 105.128 249.132L103.72 249.556C103.539 249.055 103.243 248.666 102.832 248.388C102.427 248.111 101.96 247.972 101.432 247.972C100.84 247.972 100.352 248.111 99.9679 248.388C99.5839 248.66 99.2985 249.039 99.1119 249.524C98.9252 250.004 98.8292 250.556 98.8239 251.18C98.8345 252.14 99.0559 252.916 99.4879 253.508C99.9252 254.095 100.573 254.388 101.432 254.388C101.997 254.388 102.467 254.26 102.84 254.004C103.213 253.743 103.496 253.367 103.688 252.876L105.128 253.252C104.829 254.058 104.363 254.674 103.728 255.1C103.093 255.527 102.328 255.74 101.432 255.74ZM110.835 255.5C110.323 255.602 109.816 255.642 109.315 255.62C108.819 255.604 108.376 255.506 107.987 255.324C107.597 255.138 107.301 254.85 107.099 254.46C106.928 254.119 106.835 253.775 106.819 253.428C106.808 253.076 106.803 252.679 106.803 252.236V244.46H108.227V252.172C108.227 252.524 108.229 252.826 108.235 253.076C108.245 253.327 108.301 253.543 108.403 253.724C108.595 254.066 108.899 254.266 109.315 254.324C109.736 254.383 110.243 254.367 110.835 254.276V255.5ZM105.051 248.036V246.86H110.835V248.036H105.051ZM111.999 245.332V243.86H113.423V245.332H111.999ZM111.999 255.5V246.86H113.423V255.5H111.999ZM118.753 255.74C117.894 255.74 117.153 255.546 116.529 255.156C115.91 254.767 115.433 254.228 115.097 253.54C114.761 252.852 114.593 252.063 114.593 251.172C114.593 250.266 114.764 249.471 115.105 248.788C115.446 248.106 115.929 247.575 116.553 247.196C117.177 246.812 117.91 246.62 118.753 246.62C119.617 246.62 120.361 246.815 120.985 247.204C121.609 247.588 122.086 248.124 122.417 248.812C122.753 249.495 122.921 250.282 122.921 251.172C122.921 252.074 122.753 252.868 122.417 253.556C122.081 254.239 121.601 254.775 120.977 255.164C120.353 255.548 119.612 255.74 118.753 255.74ZM118.753 254.388C119.649 254.388 120.316 254.09 120.753 253.492C121.19 252.895 121.409 252.122 121.409 251.172C121.409 250.196 121.188 249.42 120.745 248.844C120.302 248.263 119.638 247.972 118.753 247.972C118.15 247.972 117.654 248.108 117.265 248.38C116.876 248.652 116.585 249.028 116.393 249.508C116.201 249.988 116.105 250.543 116.105 251.172C116.105 252.143 116.329 252.922 116.777 253.508C117.225 254.095 117.884 254.388 118.753 254.388ZM130.085 255.5V251.172C130.085 250.762 130.047 250.367 129.973 249.988C129.903 249.61 129.778 249.271 129.597 248.972C129.421 248.668 129.181 248.428 128.877 248.252C128.578 248.076 128.199 247.988 127.741 247.988C127.383 247.988 127.058 248.05 126.765 248.172C126.477 248.29 126.229 248.471 126.021 248.716C125.813 248.962 125.65 249.271 125.533 249.644C125.421 250.012 125.365 250.447 125.365 250.948L124.429 250.66C124.429 249.823 124.578 249.106 124.877 248.508C125.181 247.906 125.605 247.444 126.149 247.124C126.698 246.799 127.343 246.636 128.085 246.636C128.645 246.636 129.122 246.724 129.517 246.9C129.911 247.076 130.239 247.311 130.501 247.604C130.762 247.892 130.967 248.218 131.117 248.58C131.266 248.938 131.37 249.303 131.429 249.676C131.493 250.044 131.525 250.394 131.525 250.724V255.5H130.085ZM123.925 255.5V246.86H125.205V249.172H125.365V255.5H123.925ZM137.764 255.74C137.118 255.74 136.577 255.623 136.14 255.388C135.708 255.148 135.38 254.834 135.156 254.444C134.937 254.055 134.828 253.628 134.828 253.164C134.828 252.711 134.913 252.319 135.084 251.988C135.26 251.652 135.505 251.375 135.82 251.156C136.134 250.932 136.51 250.756 136.948 250.628C137.358 250.516 137.817 250.42 138.324 250.34C138.836 250.255 139.353 250.178 139.876 250.108C140.398 250.039 140.886 249.972 141.34 249.908L140.828 250.204C140.844 249.436 140.689 248.868 140.364 248.5C140.044 248.132 139.489 247.948 138.7 247.948C138.177 247.948 137.718 248.068 137.324 248.308C136.934 248.543 136.66 248.927 136.5 249.46L135.148 249.052C135.356 248.295 135.758 247.7 136.356 247.268C136.953 246.836 137.74 246.62 138.716 246.62C139.5 246.62 140.172 246.762 140.732 247.044C141.297 247.322 141.702 247.743 141.948 248.308C142.07 248.575 142.148 248.866 142.18 249.18C142.212 249.49 142.227 249.815 142.227 250.156V255.5H140.964V253.428L141.26 253.62C140.934 254.319 140.478 254.847 139.892 255.204C139.31 255.562 138.601 255.74 137.764 255.74ZM137.98 254.548C138.492 254.548 138.934 254.458 139.308 254.276C139.686 254.09 139.99 253.847 140.22 253.548C140.449 253.244 140.598 252.914 140.668 252.556C140.748 252.29 140.79 251.994 140.796 251.668C140.806 251.338 140.812 251.084 140.812 250.908L141.308 251.124C140.844 251.188 140.388 251.25 139.94 251.308C139.492 251.367 139.068 251.431 138.668 251.5C138.268 251.564 137.908 251.642 137.588 251.732C137.353 251.807 137.132 251.903 136.924 252.02C136.721 252.138 136.556 252.29 136.428 252.476C136.305 252.658 136.243 252.884 136.243 253.156C136.243 253.391 136.302 253.615 136.42 253.828C136.542 254.042 136.729 254.215 136.98 254.348C137.236 254.482 137.569 254.548 137.98 254.548ZM149.71 255.5V251.172C149.71 250.762 149.672 250.367 149.598 249.988C149.528 249.61 149.403 249.271 149.222 248.972C149.046 248.668 148.806 248.428 148.502 248.252C148.203 248.076 147.824 247.988 147.366 247.988C147.008 247.988 146.683 248.05 146.39 248.172C146.102 248.29 145.854 248.471 145.646 248.716C145.438 248.962 145.275 249.271 145.158 249.644C145.046 250.012 144.99 250.447 144.99 250.948L144.054 250.66C144.054 249.823 144.203 249.106 144.502 248.508C144.806 247.906 145.23 247.444 145.774 247.124C146.323 246.799 146.968 246.636 147.71 246.636C148.27 246.636 148.747 246.724 149.142 246.9C149.536 247.076 149.864 247.311 150.126 247.604C150.387 247.892 150.592 248.218 150.742 248.58C150.891 248.938 150.995 249.303 151.054 249.676C151.118 250.044 151.15 250.394 151.15 250.724V255.5H149.71ZM143.55 255.5V246.86H144.83V249.172H144.99V255.5H143.55ZM155.793 255.74C154.988 255.74 154.297 255.54 153.721 255.14C153.145 254.735 152.7 254.188 152.385 253.5C152.076 252.812 151.921 252.036 151.921 251.172C151.921 250.308 152.076 249.532 152.385 248.844C152.7 248.156 153.145 247.615 153.721 247.22C154.297 246.82 154.985 246.62 155.785 246.62C156.601 246.62 157.287 246.818 157.841 247.212C158.396 247.607 158.815 248.148 159.097 248.836C159.385 249.524 159.529 250.303 159.529 251.172C159.529 252.031 159.385 252.807 159.097 253.5C158.815 254.188 158.396 254.735 157.841 255.14C157.287 255.54 156.604 255.74 155.793 255.74ZM155.969 254.436C156.551 254.436 157.028 254.298 157.401 254.02C157.775 253.738 158.049 253.351 158.225 252.86C158.407 252.364 158.497 251.802 158.497 251.172C158.497 250.532 158.407 249.97 158.225 249.484C158.049 248.994 157.777 248.612 157.409 248.34C157.041 248.063 156.575 247.924 156.009 247.924C155.423 247.924 154.937 248.068 154.553 248.356C154.175 248.644 153.892 249.034 153.705 249.524C153.524 250.015 153.433 250.564 153.433 251.172C153.433 251.786 153.527 252.34 153.713 252.836C153.9 253.327 154.18 253.716 154.553 254.004C154.932 254.292 155.404 254.436 155.969 254.436ZM158.497 255.5V249.14H158.337V243.98H159.769V255.5H158.497ZM163.874 245.332V243.86H165.298V245.332H163.874ZM163.874 255.5V246.86H165.298V255.5H163.874ZM173.1 255.5V251.172C173.1 250.762 173.063 250.367 172.988 249.988C172.919 249.61 172.793 249.271 172.612 248.972C172.436 248.668 172.196 248.428 171.892 248.252C171.593 248.076 171.215 247.988 170.756 247.988C170.399 247.988 170.073 248.05 169.78 248.172C169.492 248.29 169.244 248.471 169.036 248.716C168.828 248.962 168.665 249.271 168.548 249.644C168.436 250.012 168.38 250.447 168.38 250.948L167.444 250.66C167.444 249.823 167.593 249.106 167.892 248.508C168.196 247.906 168.62 247.444 169.164 247.124C169.713 246.799 170.359 246.636 171.1 246.636C171.66 246.636 172.137 246.724 172.532 246.9C172.927 247.076 173.255 247.311 173.516 247.604C173.777 247.892 173.983 248.218 174.132 248.58C174.281 248.938 174.385 249.303 174.444 249.676C174.508 250.044 174.54 250.394 174.54 250.724V255.5H173.1ZM166.94 255.5V246.86H168.22V249.172H168.38V255.5H166.94ZM179.134 255.732C178.105 255.732 177.259 255.508 176.598 255.06C175.942 254.607 175.539 253.975 175.39 253.164L176.846 252.932C176.963 253.402 177.233 253.775 177.654 254.052C178.075 254.324 178.598 254.46 179.222 254.46C179.814 254.46 180.278 254.338 180.614 254.092C180.95 253.847 181.118 253.514 181.118 253.092C181.118 252.847 181.062 252.65 180.95 252.5C180.838 252.346 180.606 252.202 180.254 252.068C179.907 251.935 179.382 251.775 178.678 251.588C177.915 251.386 177.315 251.175 176.878 250.956C176.441 250.738 176.129 250.484 175.942 250.196C175.755 249.908 175.662 249.559 175.662 249.148C175.662 248.642 175.801 248.199 176.078 247.82C176.355 247.436 176.742 247.14 177.238 246.932C177.739 246.724 178.321 246.62 178.982 246.62C179.638 246.62 180.225 246.724 180.742 246.932C181.259 247.14 181.675 247.436 181.99 247.82C182.31 248.199 182.499 248.642 182.558 249.148L181.102 249.412C181.033 248.948 180.809 248.583 180.43 248.316C180.057 248.05 179.574 247.908 178.982 247.892C178.422 247.871 177.966 247.97 177.614 248.188C177.267 248.407 177.094 248.703 177.094 249.076C177.094 249.284 177.158 249.463 177.286 249.612C177.419 249.762 177.662 249.903 178.014 250.036C178.371 250.17 178.889 250.322 179.566 250.492C180.329 250.684 180.929 250.895 181.366 251.124C181.809 251.348 182.123 251.615 182.31 251.924C182.497 252.228 182.59 252.604 182.59 253.052C182.59 253.884 182.283 254.54 181.67 255.02C181.057 255.495 180.211 255.732 179.134 255.732ZM188.428 255.5C187.916 255.602 187.41 255.642 186.908 255.62C186.412 255.604 185.97 255.506 185.58 255.324C185.191 255.138 184.895 254.85 184.692 254.46C184.522 254.119 184.428 253.775 184.412 253.428C184.402 253.076 184.396 252.679 184.396 252.236V244.46H185.82V252.172C185.82 252.524 185.823 252.826 185.828 253.076C185.839 253.327 185.895 253.543 185.996 253.724C186.188 254.066 186.492 254.266 186.908 254.324C187.33 254.383 187.836 254.367 188.428 254.276V255.5ZM182.644 248.036V246.86H188.428V248.036H182.644ZM191.889 255.74C191.243 255.74 190.702 255.623 190.265 255.388C189.833 255.148 189.505 254.834 189.281 254.444C189.062 254.055 188.953 253.628 188.953 253.164C188.953 252.711 189.038 252.319 189.209 251.988C189.385 251.652 189.63 251.375 189.945 251.156C190.259 250.932 190.635 250.756 191.073 250.628C191.483 250.516 191.942 250.42 192.449 250.34C192.961 250.255 193.478 250.178 194.001 250.108C194.523 250.039 195.011 249.972 195.465 249.908L194.953 250.204C194.969 249.436 194.814 248.868 194.489 248.5C194.169 248.132 193.614 247.948 192.825 247.948C192.302 247.948 191.843 248.068 191.449 248.308C191.059 248.543 190.785 248.927 190.625 249.46L189.273 249.052C189.481 248.295 189.883 247.7 190.481 247.268C191.078 246.836 191.865 246.62 192.841 246.62C193.625 246.62 194.297 246.762 194.857 247.044C195.422 247.322 195.827 247.743 196.073 248.308C196.195 248.575 196.273 248.866 196.305 249.18C196.337 249.49 196.352 249.815 196.352 250.156V255.5H195.089V253.428L195.385 253.62C195.059 254.319 194.603 254.847 194.017 255.204C193.435 255.562 192.726 255.74 191.889 255.74ZM192.105 254.548C192.617 254.548 193.059 254.458 193.433 254.276C193.811 254.09 194.115 253.847 194.345 253.548C194.574 253.244 194.723 252.914 194.793 252.556C194.873 252.29 194.915 251.994 194.921 251.668C194.931 251.338 194.937 251.084 194.937 250.908L195.433 251.124C194.969 251.188 194.513 251.25 194.065 251.308C193.617 251.367 193.193 251.431 192.793 251.5C192.393 251.564 192.033 251.642 191.713 251.732C191.478 251.807 191.257 251.903 191.049 252.02C190.846 252.138 190.681 252.29 190.553 252.476C190.43 252.658 190.368 252.884 190.368 253.156C190.368 253.391 190.427 253.615 190.545 253.828C190.667 254.042 190.854 254.215 191.105 254.348C191.361 254.482 191.694 254.548 192.105 254.548ZM203.835 255.5V251.172C203.835 250.762 203.797 250.367 203.723 249.988C203.653 249.61 203.528 249.271 203.347 248.972C203.171 248.668 202.931 248.428 202.627 248.252C202.328 248.076 201.949 247.988 201.491 247.988C201.133 247.988 200.808 248.05 200.515 248.172C200.227 248.29 199.979 248.471 199.771 248.716C199.563 248.962 199.4 249.271 199.283 249.644C199.171 250.012 199.115 250.447 199.115 250.948L198.179 250.66C198.179 249.823 198.328 249.106 198.627 248.508C198.931 247.906 199.355 247.444 199.899 247.124C200.448 246.799 201.093 246.636 201.835 246.636C202.395 246.636 202.872 246.724 203.267 246.9C203.661 247.076 203.989 247.311 204.251 247.604C204.512 247.892 204.717 248.218 204.867 248.58C205.016 248.938 205.12 249.303 205.179 249.676C205.243 250.044 205.275 250.394 205.275 250.724V255.5H203.835ZM197.675 255.5V246.86H198.955V249.172H199.115V255.5H197.675ZM211.428 255.5C210.916 255.602 210.41 255.642 209.908 255.62C209.412 255.604 208.97 255.506 208.58 255.324C208.191 255.138 207.895 254.85 207.692 254.46C207.522 254.119 207.428 253.775 207.412 253.428C207.402 253.076 207.396 252.679 207.396 252.236V244.46H208.82V252.172C208.82 252.524 208.823 252.826 208.828 253.076C208.839 253.327 208.895 253.543 208.996 253.724C209.188 254.066 209.492 254.266 209.908 254.324C210.33 254.383 210.836 254.367 211.428 254.276V255.5ZM205.644 248.036V246.86H211.428V248.036H205.644ZM217.222 255.5L214.086 246.86H215.526L217.95 253.684L220.366 246.86H221.814L218.678 255.5H217.222ZM225.942 255.74C225.094 255.74 224.353 255.554 223.718 255.18C223.089 254.802 222.598 254.276 222.246 253.604C221.894 252.927 221.718 252.138 221.718 251.236C221.718 250.292 221.891 249.476 222.238 248.788C222.585 248.095 223.067 247.562 223.686 247.188C224.31 246.81 225.041 246.62 225.878 246.62C226.747 246.62 227.486 246.82 228.094 247.22C228.707 247.62 229.166 248.191 229.47 248.932C229.779 249.674 229.913 250.556 229.87 251.58H228.43V251.068C228.414 250.007 228.198 249.215 227.782 248.692C227.366 248.164 226.747 247.9 225.926 247.9C225.046 247.9 224.377 248.183 223.918 248.748C223.459 249.314 223.23 250.124 223.23 251.18C223.23 252.199 223.459 252.988 223.918 253.548C224.377 254.108 225.03 254.388 225.878 254.388C226.449 254.388 226.945 254.258 227.366 253.996C227.787 253.735 228.118 253.359 228.358 252.868L229.726 253.34C229.39 254.103 228.883 254.695 228.206 255.116C227.534 255.532 226.779 255.74 225.942 255.74ZM222.75 251.58V250.436H229.134V251.58H222.75ZM230.901 255.5V246.86H232.173V248.948L231.965 248.676C232.067 248.41 232.197 248.164 232.357 247.94C232.523 247.716 232.707 247.532 232.909 247.388C233.133 247.207 233.387 247.068 233.669 246.972C233.952 246.876 234.24 246.82 234.533 246.804C234.827 246.783 235.101 246.802 235.357 246.86V248.196C235.059 248.116 234.731 248.095 234.373 248.132C234.016 248.17 233.685 248.3 233.381 248.524C233.104 248.722 232.888 248.962 232.733 249.244C232.584 249.527 232.48 249.834 232.421 250.164C232.363 250.49 232.333 250.823 232.333 251.164V255.5H230.901ZM236.28 245.332V243.86H237.704V245.332H236.28ZM236.28 255.5V246.86H237.704V255.5H236.28ZM240.178 255.5V246.388C240.178 246.164 240.189 245.938 240.21 245.708C240.232 245.474 240.28 245.247 240.354 245.028C240.429 244.804 240.552 244.599 240.722 244.412C240.92 244.194 241.136 244.039 241.37 243.948C241.605 243.852 241.842 243.794 242.082 243.772C242.328 243.751 242.56 243.74 242.778 243.74H243.874V244.924H242.858C242.437 244.924 242.122 245.028 241.914 245.236C241.706 245.439 241.602 245.748 241.602 246.164V255.5H240.178ZM238.714 248.036V246.86H243.874V248.036H238.714ZM245.554 245.332V243.86H246.978V245.332H245.554ZM245.554 255.5V246.86H246.978V255.5H245.554ZM252.276 255.74C251.401 255.74 250.657 255.546 250.044 255.156C249.436 254.762 248.972 254.22 248.652 253.532C248.332 252.844 248.166 252.06 248.156 251.18C248.166 250.279 248.334 249.487 248.66 248.804C248.99 248.116 249.462 247.58 250.076 247.196C250.689 246.812 251.428 246.62 252.292 246.62C253.204 246.62 253.988 246.844 254.644 247.292C255.305 247.74 255.748 248.354 255.972 249.132L254.564 249.556C254.382 249.055 254.086 248.666 253.676 248.388C253.27 248.111 252.804 247.972 252.276 247.972C251.684 247.972 251.196 248.111 250.812 248.388C250.428 248.66 250.142 249.039 249.956 249.524C249.769 250.004 249.673 250.556 249.668 251.18C249.678 252.14 249.9 252.916 250.332 253.508C250.769 254.095 251.417 254.388 252.276 254.388C252.841 254.388 253.31 254.26 253.684 254.004C254.057 253.743 254.34 253.367 254.532 252.876L255.972 253.252C255.673 254.058 255.206 254.674 254.572 255.1C253.937 255.527 253.172 255.74 252.276 255.74ZM259.232 255.74C258.587 255.74 258.046 255.623 257.608 255.388C257.176 255.148 256.848 254.834 256.624 254.444C256.406 254.055 256.296 253.628 256.296 253.164C256.296 252.711 256.382 252.319 256.552 251.988C256.728 251.652 256.974 251.375 257.288 251.156C257.603 250.932 257.979 250.756 258.416 250.628C258.827 250.516 259.286 250.42 259.792 250.34C260.304 250.255 260.822 250.178 261.344 250.108C261.867 250.039 262.355 249.972 262.808 249.908L262.296 250.204C262.312 249.436 262.158 248.868 261.832 248.5C261.512 248.132 260.958 247.948 260.168 247.948C259.646 247.948 259.187 248.068 258.792 248.308C258.403 248.543 258.128 248.927 257.968 249.46L256.616 249.052C256.824 248.295 257.227 247.7 257.824 247.268C258.422 246.836 259.208 246.62 260.184 246.62C260.968 246.62 261.64 246.762 262.2 247.044C262.766 247.322 263.171 247.743 263.416 248.308C263.539 248.575 263.616 248.866 263.648 249.18C263.68 249.49 263.696 249.815 263.696 250.156V255.5H262.432V253.428L262.728 253.62C262.403 254.319 261.947 254.847 261.36 255.204C260.779 255.562 260.07 255.74 259.232 255.74ZM259.448 254.548C259.96 254.548 260.403 254.458 260.776 254.276C261.155 254.09 261.459 253.847 261.688 253.548C261.918 253.244 262.067 252.914 262.136 252.556C262.216 252.29 262.259 251.994 262.264 251.668C262.275 251.338 262.28 251.084 262.28 250.908L262.776 251.124C262.312 251.188 261.856 251.25 261.408 251.308C260.96 251.367 260.536 251.431 260.136 251.5C259.736 251.564 259.376 251.642 259.056 251.732C258.822 251.807 258.6 251.903 258.392 252.02C258.19 252.138 258.024 252.29 257.896 252.476C257.774 252.658 257.712 252.884 257.712 253.156C257.712 253.391 257.771 253.615 257.888 253.828C258.011 254.042 258.198 254.215 258.448 254.348C258.704 254.482 259.038 254.548 259.448 254.548ZM269.85 255.5C269.338 255.602 268.832 255.642 268.33 255.62C267.834 255.604 267.392 255.506 267.002 255.324C266.613 255.138 266.317 254.85 266.114 254.46C265.944 254.119 265.85 253.775 265.834 253.428C265.824 253.076 265.818 252.679 265.818 252.236V244.46H267.242V252.172C267.242 252.524 267.245 252.826 267.25 253.076C267.261 253.327 267.317 253.543 267.418 253.724C267.61 254.066 267.914 254.266 268.33 254.324C268.752 254.383 269.258 254.367 269.85 254.276V255.5ZM264.066 248.036V246.86H269.85V248.036H264.066ZM271.014 245.332V243.86H272.438V245.332H271.014ZM271.014 255.5V246.86H272.438V255.5H271.014ZM277.769 255.74C276.91 255.74 276.169 255.546 275.545 255.156C274.926 254.767 274.449 254.228 274.113 253.54C273.777 252.852 273.609 252.063 273.609 251.172C273.609 250.266 273.779 249.471 274.121 248.788C274.462 248.106 274.945 247.575 275.569 247.196C276.193 246.812 276.926 246.62 277.769 246.62C278.633 246.62 279.377 246.815 280.001 247.204C280.625 247.588 281.102 248.124 281.433 248.812C281.769 249.495 281.937 250.282 281.937 251.172C281.937 252.074 281.769 252.868 281.433 253.556C281.097 254.239 280.617 254.775 279.993 255.164C279.369 255.548 278.627 255.74 277.769 255.74ZM277.769 254.388C278.665 254.388 279.331 254.09 279.769 253.492C280.206 252.895 280.425 252.122 280.425 251.172C280.425 250.196 280.203 249.42 279.761 248.844C279.318 248.263 278.654 247.972 277.769 247.972C277.166 247.972 276.67 248.108 276.281 248.38C275.891 248.652 275.601 249.028 275.409 249.508C275.217 249.988 275.121 250.543 275.121 251.172C275.121 252.143 275.345 252.922 275.793 253.508C276.241 254.095 276.899 254.388 277.769 254.388ZM289.1 255.5V251.172C289.1 250.762 289.063 250.367 288.988 249.988C288.919 249.61 288.793 249.271 288.612 248.972C288.436 248.668 288.196 248.428 287.892 248.252C287.593 248.076 287.215 247.988 286.756 247.988C286.399 247.988 286.073 248.05 285.78 248.172C285.492 248.29 285.244 248.471 285.036 248.716C284.828 248.962 284.665 249.271 284.548 249.644C284.436 250.012 284.38 250.447 284.38 250.948L283.444 250.66C283.444 249.823 283.593 249.106 283.892 248.508C284.196 247.906 284.62 247.444 285.164 247.124C285.713 246.799 286.359 246.636 287.1 246.636C287.66 246.636 288.137 246.724 288.532 246.9C288.927 247.076 289.255 247.311 289.516 247.604C289.777 247.892 289.983 248.218 290.132 248.58C290.281 248.938 290.385 249.303 290.444 249.676C290.508 250.044 290.54 250.394 290.54 250.724V255.5H289.1ZM282.94 255.5V246.86H284.22V249.172H284.38V255.5H282.94ZM292.126 255.5V253.932H293.694V255.5H292.126Z" fill="#696969"/>
</g>
<defs>
<filter id="filter0_d_0_2151" x="0" y="0" width="360" height="360" filterUnits="userSpaceOnUse" color-interpolation-filters="sRGB">
<feFlood flood-opacity="0" result="BackgroundImageFix"/>
<feColorMatrix in="SourceAlpha" type="matrix" values="0 0 0 0 0 0 0 0 0 0 0 0 0 0 0 0 0 0 127 0" result="hardAlpha"/>
<feOffset/>
<feGaussianBlur stdDeviation="10"/>
<feComposite in2="hardAlpha" operator="out"/>
<feColorMatrix type="matrix" values="0 0 0 0 0 0 0 0 0 0 0 0 0 0 0 0 0 0 0.12 0"/>
<feBlend mode="normal" in2="BackgroundImageFix" result="effect1_dropShadow_0_2151"/>
<feBlend mode="normal" in="SourceGraphic" in2="effect1_dropShadow_0_2151" result="shape"/>
</filter>
</defs>
</svg>
