<svg width="314" height="35" viewBox="0 0 314 35" fill="none" xmlns="http://www.w3.org/2000/svg">
<path d="M28.6562 34.0801V9.79208L18.6242 28.2241H15.4562L5.37616 9.79208V34.0801H0.000156522V7.62939e-05H5.76016L17.0402 20.8321L28.3202 7.62939e-05H34.0802V34.0801H28.6562ZM51.0479 34.5601C49.0959 34.5601 47.3199 34.2241 45.7199 33.5521C44.1519 32.8481 42.7919 31.9041 41.6399 30.7201C40.4879 29.5041 39.5919 28.1281 38.9519 26.5921C38.3439 25.0241 38.0399 23.3601 38.0399 21.6001C38.0399 19.2321 38.5839 17.0721 39.6719 15.1201C40.7599 13.1361 42.2799 11.5521 44.2319 10.3681C46.1839 9.15208 48.4719 8.54408 51.0959 8.54408C53.7199 8.54408 55.9759 9.15208 57.8639 10.3681C59.7839 11.5521 61.2719 13.1201 62.3279 15.0721C63.3839 17.0241 63.9119 19.1201 63.9119 21.3601C63.9119 21.7441 63.8959 22.1121 63.8639 22.4641C63.8319 22.7841 63.7999 23.0561 63.7679 23.2801H43.6559C43.7519 24.7521 44.1519 26.0481 44.8559 27.1681C45.5919 28.2561 46.5199 29.1201 47.6399 29.7601C48.7599 30.3681 49.9599 30.6721 51.2399 30.6721C52.6479 30.6721 53.9759 30.3201 55.2239 29.6161C56.5039 28.9121 57.3679 27.9841 57.8159 26.8321L62.3279 28.1281C61.7839 29.3441 60.9519 30.4481 59.8319 31.4401C58.7439 32.4001 57.4479 33.1681 55.9439 33.7441C54.4399 34.2881 52.8079 34.5601 51.0479 34.5601ZM43.5119 19.7761H58.6799C58.5839 18.3361 58.1679 17.0721 57.4319 15.9841C56.7279 14.8641 55.8159 14.0001 54.6959 13.3921C53.6079 12.7521 52.3919 12.4321 51.0479 12.4321C49.7359 12.4321 48.5199 12.7521 47.3999 13.3921C46.3119 14.0001 45.4159 14.8641 44.7119 15.9841C44.0079 17.0721 43.6079 18.3361 43.5119 19.7761ZM78.5948 34.5601C76.6428 34.5601 74.8668 34.2241 73.2668 33.5521C71.6988 32.8481 70.3388 31.9041 69.1868 30.7201C68.0348 29.5041 67.1388 28.1281 66.4988 26.5921C65.8908 25.0241 65.5868 23.3601 65.5868 21.6001C65.5868 19.2321 66.1308 17.0721 67.2188 15.1201C68.3068 13.1361 69.8268 11.5521 71.7788 10.3681C73.7308 9.15208 76.0188 8.54408 78.6428 8.54408C81.2668 8.54408 83.5228 9.15208 85.4108 10.3681C87.3308 11.5521 88.8188 13.1201 89.8748 15.0721C90.9308 17.0241 91.4588 19.1201 91.4588 21.3601C91.4588 21.7441 91.4428 22.1121 91.4108 22.4641C91.3788 22.7841 91.3468 23.0561 91.3148 23.2801H71.2028C71.2988 24.7521 71.6988 26.0481 72.4028 27.1681C73.1388 28.2561 74.0668 29.1201 75.1868 29.7601C76.3068 30.3681 77.5068 30.6721 78.7868 30.6721C80.1948 30.6721 81.5228 30.3201 82.7708 29.6161C84.0508 28.9121 84.9148 27.9841 85.3628 26.8321L89.8748 28.1281C89.3308 29.3441 88.4988 30.4481 87.3788 31.4401C86.2908 32.4001 84.9948 33.1681 83.4908 33.7441C81.9868 34.2881 80.3548 34.5601 78.5948 34.5601ZM71.0588 19.7761H86.2268C86.1308 18.3361 85.7148 17.0721 84.9788 15.9841C84.2748 14.8641 83.3628 14.0001 82.2428 13.3921C81.1548 12.7521 79.9388 12.4321 78.5948 12.4321C77.2828 12.4321 76.0668 12.7521 74.9468 13.3921C73.8588 14.0001 72.9628 14.8641 72.2588 15.9841C71.5548 17.0721 71.1548 18.3361 71.0588 19.7761ZM108.499 32.7841C108.051 33.0081 107.491 33.2481 106.819 33.5041C106.147 33.7601 105.379 33.9841 104.515 34.1761C103.683 34.3681 102.819 34.4641 101.923 34.4641C100.835 34.4641 99.8273 34.2721 98.8993 33.8881C97.9713 33.5041 97.2193 32.8961 96.6433 32.0641C96.0993 31.2001 95.8273 30.0961 95.8273 28.7521V13.0561H92.5153V8.97608H95.8273V0.720076H101.107V8.97608H106.579V13.0561H101.107V27.0721C101.171 27.9361 101.443 28.5761 101.923 28.9921C102.435 29.4081 103.059 29.6161 103.795 29.6161C104.531 29.6161 105.235 29.4881 105.907 29.2321C106.579 28.9761 107.075 28.7681 107.395 28.6081L108.499 32.7841ZM133.296 34.5601C131.312 34.5601 129.536 34.2241 127.968 33.5521C126.4 32.8481 125.04 31.8881 123.888 30.6721C122.768 29.4561 121.904 28.0801 121.296 26.5441C120.688 24.9761 120.384 23.3121 120.384 21.5521C120.384 19.7921 120.688 18.1281 121.296 16.5601C121.904 14.9921 122.768 13.6161 123.888 12.4321C125.04 11.2161 126.4 10.2721 127.968 9.60008C129.568 8.89608 131.344 8.54408 133.296 8.54408C135.248 8.54408 137.008 8.89608 138.576 9.60008C140.176 10.2721 141.536 11.2161 142.656 12.4321C143.808 13.6161 144.688 14.9921 145.296 16.5601C145.904 18.1281 146.208 19.7921 146.208 21.5521C146.208 23.3121 145.904 24.9761 145.296 26.5441C144.688 28.0801 143.808 29.4561 142.656 30.6721C141.536 31.8881 140.176 32.8481 138.576 33.5521C137.008 34.2241 135.248 34.5601 133.296 34.5601ZM125.808 21.6001C125.808 23.2001 126.144 24.6401 126.816 25.9201C127.488 27.2001 128.384 28.2081 129.504 28.9441C130.624 29.6801 131.888 30.0481 133.296 30.0481C134.672 30.0481 135.92 29.6801 137.04 28.9441C138.192 28.1761 139.104 27.1521 139.776 25.8721C140.448 24.5601 140.784 23.1201 140.784 21.5521C140.784 19.9521 140.448 18.5121 139.776 17.2321C139.104 15.9521 138.192 14.9441 137.04 14.2081C135.92 13.4401 134.672 13.0561 133.296 13.0561C131.888 13.0561 130.624 13.4401 129.504 14.2081C128.384 14.9761 127.488 16.0001 126.816 17.2801C126.144 18.5281 125.808 19.9681 125.808 21.6001ZM149.651 24.3361V8.97608H154.931V23.2801C154.931 25.5201 155.331 27.2161 156.131 28.3681C156.963 29.4881 158.163 30.0481 159.731 30.0481C160.723 30.0481 161.683 29.8401 162.611 29.4241C163.571 29.0081 164.435 28.4001 165.203 27.6001C166.003 26.7681 166.643 25.7761 167.123 24.6241V8.97608H172.403V28.1281C172.403 28.7361 172.515 29.1681 172.739 29.4241C172.963 29.6801 173.331 29.8241 173.843 29.8561V34.0801C173.299 34.1761 172.851 34.2401 172.499 34.2721C172.147 34.3041 171.811 34.3201 171.491 34.3201C170.531 34.3201 169.731 34.0641 169.091 33.5521C168.451 33.0081 168.083 32.3201 167.987 31.4881L167.891 28.9921C166.771 30.8161 165.315 32.2081 163.523 33.1681C161.731 34.0961 159.763 34.5601 157.619 34.5601C154.995 34.5601 153.011 33.6961 151.667 31.9681C150.323 30.2401 149.651 27.6961 149.651 24.3361ZM192.253 13.5361C190.205 13.5681 188.381 14.0321 186.781 14.9281C185.213 15.8241 184.093 17.0881 183.421 18.7201V34.0801H178.141V8.97608H183.037V14.5921C183.901 12.8641 185.037 11.4881 186.445 10.4641C187.853 9.40808 189.341 8.83208 190.909 8.73608C191.229 8.73608 191.485 8.73608 191.677 8.73608C191.901 8.73608 192.093 8.75208 192.253 8.78408V13.5361ZM218.843 32.7841C218.395 33.0081 217.835 33.2481 217.163 33.5041C216.491 33.7601 215.723 33.9841 214.859 34.1761C214.027 34.3681 213.163 34.4641 212.267 34.4641C211.179 34.4641 210.171 34.2721 209.243 33.8881C208.315 33.5041 207.563 32.8961 206.987 32.0641C206.443 31.2001 206.171 30.0961 206.171 28.7521V13.0561H202.859V8.97608H206.171V0.720076H211.451V8.97608H216.923V13.0561H211.451V27.0721C211.515 27.9361 211.787 28.5761 212.267 28.9921C212.779 29.4081 213.403 29.6161 214.139 29.6161C214.875 29.6161 215.579 29.4881 216.251 29.2321C216.923 28.9761 217.419 28.7681 217.739 28.6081L218.843 32.7841ZM232.548 34.5601C230.596 34.5601 228.82 34.2241 227.22 33.5521C225.652 32.8481 224.292 31.9041 223.14 30.7201C221.988 29.5041 221.092 28.1281 220.452 26.5921C219.844 25.0241 219.54 23.3601 219.54 21.6001C219.54 19.2321 220.084 17.0721 221.172 15.1201C222.26 13.1361 223.78 11.5521 225.732 10.3681C227.684 9.15208 229.972 8.54408 232.596 8.54408C235.22 8.54408 237.476 9.15208 239.364 10.3681C241.284 11.5521 242.772 13.1201 243.828 15.0721C244.884 17.0241 245.412 19.1201 245.412 21.3601C245.412 21.7441 245.396 22.1121 245.364 22.4641C245.332 22.7841 245.3 23.0561 245.268 23.2801H225.156C225.252 24.7521 225.652 26.0481 226.356 27.1681C227.092 28.2561 228.02 29.1201 229.14 29.7601C230.26 30.3681 231.46 30.6721 232.74 30.6721C234.148 30.6721 235.476 30.3201 236.724 29.6161C238.004 28.9121 238.868 27.9841 239.316 26.8321L243.828 28.1281C243.284 29.3441 242.452 30.4481 241.332 31.4401C240.244 32.4001 238.948 33.1681 237.444 33.7441C235.94 34.2881 234.308 34.5601 232.548 34.5601ZM225.012 19.7761H240.18C240.084 18.3361 239.668 17.0721 238.932 15.9841C238.228 14.8641 237.316 14.0001 236.196 13.3921C235.108 12.7521 233.892 12.4321 232.548 12.4321C231.236 12.4321 230.02 12.7521 228.9 13.3921C227.812 14.0001 226.916 14.8641 226.212 15.9841C225.508 17.0721 225.108 18.3361 225.012 19.7761ZM246.895 26.7361C246.895 25.1361 247.343 23.7441 248.239 22.5601C249.167 21.3441 250.431 20.4161 252.031 19.7761C253.631 19.1041 255.487 18.7681 257.599 18.7681C258.719 18.7681 259.855 18.8481 261.007 19.0081C262.191 19.1681 263.231 19.4241 264.127 19.7761V18.1921C264.127 16.4321 263.599 15.0561 262.543 14.0641C261.487 13.0721 259.967 12.5761 257.983 12.5761C256.575 12.5761 255.247 12.8321 253.999 13.3441C252.751 13.8241 251.423 14.5121 250.015 15.4081L248.239 11.8561C249.903 10.7361 251.567 9.90408 253.231 9.36008C254.927 8.81608 256.703 8.54408 258.559 8.54408C261.919 8.54408 264.559 9.44008 266.479 11.2321C268.431 12.9921 269.407 15.5041 269.407 18.7681V28.1281C269.407 28.7361 269.503 29.1681 269.695 29.4241C269.919 29.6801 270.287 29.8241 270.799 29.8561V34.0801C270.319 34.1761 269.887 34.2401 269.503 34.2721C269.119 34.3041 268.799 34.3201 268.543 34.3201C267.423 34.3201 266.575 34.0481 265.999 33.5041C265.423 32.9601 265.087 32.3201 264.991 31.5841L264.847 30.1441C263.759 31.5521 262.367 32.6401 260.671 33.4081C258.975 34.1761 257.263 34.5601 255.535 34.5601C253.871 34.5601 252.383 34.2241 251.071 33.5521C249.759 32.8481 248.735 31.9041 247.999 30.7201C247.263 29.5361 246.895 28.2081 246.895 26.7361ZM262.879 28.2721C263.263 27.8561 263.567 27.4401 263.791 27.0241C264.015 26.6081 264.127 26.2401 264.127 25.9201V23.0401C263.231 22.6881 262.287 22.4321 261.295 22.2721C260.303 22.0801 259.327 21.9841 258.367 21.9841C256.447 21.9841 254.879 22.3681 253.663 23.1361C252.479 23.9041 251.887 24.9601 251.887 26.3041C251.887 27.0401 252.079 27.7441 252.463 28.4161C252.879 29.0881 253.455 29.6321 254.191 30.0481C254.959 30.4641 255.903 30.6721 257.023 30.6721C258.175 30.6721 259.279 30.4481 260.335 30.0001C261.391 29.5521 262.239 28.9761 262.879 28.2721ZM313.213 34.0801H307.933V20.0161C307.933 17.6801 307.549 15.9681 306.781 14.8801C306.013 13.7921 304.893 13.2481 303.421 13.2481C301.949 13.2481 300.573 13.8081 299.293 14.9281C298.045 16.0161 297.165 17.4401 296.653 19.2001V34.0801H291.373V20.0161C291.373 17.6801 290.989 15.9681 290.221 14.8801C289.453 13.7921 288.349 13.2481 286.909 13.2481C285.437 13.2481 284.061 13.7921 282.781 14.8801C281.533 15.9681 280.637 17.3921 280.093 19.1521V34.0801H274.813V8.97608H279.613V14.0161C280.605 12.2561 281.901 10.9121 283.501 9.98408C285.133 9.02408 286.989 8.54408 289.069 8.54408C291.149 8.54408 292.781 9.08808 293.965 10.1761C295.181 11.2641 295.933 12.6241 296.221 14.2561C297.309 12.4001 298.637 10.9921 300.205 10.0321C301.805 9.04008 303.629 8.54408 305.677 8.54408C307.149 8.54408 308.381 8.81608 309.373 9.36008C310.365 9.90408 311.133 10.6561 311.677 11.6161C312.221 12.5441 312.605 13.6321 312.829 14.8801C313.085 16.0961 313.213 17.3921 313.213 18.7681V34.0801Z" fill="#141219"/>
</svg>
