<svg width="821" height="105" viewBox="0 0 821 105" fill="none" xmlns="http://www.w3.org/2000/svg">
<path d="M284.894 26V12.836C284.894 12.508 284.906 12.148 284.93 11.756C284.954 11.356 285.022 10.96 285.134 10.568C285.246 10.176 285.45 9.82 285.746 9.5C286.114 9.092 286.51 8.812 286.934 8.66C287.366 8.5 287.79 8.412 288.206 8.396C288.622 8.372 288.986 8.36 289.298 8.36H290.918V10.712H289.418C288.866 10.712 288.454 10.852 288.182 11.132C287.918 11.404 287.786 11.764 287.786 12.212V26H284.894ZM282.806 15.308V13.04H290.918V15.308H282.806ZM298.26 26.36C296.948 26.36 295.796 26.076 294.804 25.508C293.812 24.94 293.036 24.152 292.476 23.144C291.924 22.136 291.648 20.976 291.648 19.664C291.648 18.248 291.92 17.02 292.464 15.98C293.008 14.932 293.764 14.12 294.732 13.544C295.7 12.968 296.82 12.68 298.092 12.68C299.436 12.68 300.576 12.996 301.512 13.628C302.456 14.252 303.156 15.136 303.612 16.28C304.068 17.424 304.24 18.772 304.128 20.324H301.26V19.268C301.252 17.86 301.004 16.832 300.516 16.184C300.028 15.536 299.26 15.212 298.212 15.212C297.028 15.212 296.148 15.58 295.572 16.316C294.996 17.044 294.708 18.112 294.708 19.52C294.708 20.832 294.996 21.848 295.572 22.568C296.148 23.288 296.988 23.648 298.092 23.648C298.804 23.648 299.416 23.492 299.928 23.18C300.448 22.86 300.848 22.4 301.128 21.8L303.984 22.664C303.488 23.832 302.72 24.74 301.68 25.388C300.648 26.036 299.508 26.36 298.26 26.36ZM293.796 20.324V18.14H302.712V20.324H293.796ZM310.195 26.36C309.259 26.36 308.467 26.184 307.819 25.832C307.171 25.472 306.679 24.996 306.343 24.404C306.015 23.812 305.851 23.16 305.851 22.448C305.851 21.824 305.955 21.264 306.163 20.768C306.371 20.264 306.691 19.832 307.123 19.472C307.555 19.104 308.115 18.804 308.803 18.572C309.323 18.404 309.931 18.252 310.627 18.116C311.331 17.98 312.091 17.856 312.907 17.744C313.731 17.624 314.591 17.496 315.487 17.36L314.455 17.948C314.463 17.052 314.263 16.392 313.855 15.968C313.447 15.544 312.759 15.332 311.791 15.332C311.207 15.332 310.643 15.468 310.099 15.74C309.555 16.012 309.175 16.48 308.959 17.144L306.319 16.316C306.639 15.22 307.247 14.34 308.143 13.676C309.047 13.012 310.263 12.68 311.791 12.68C312.943 12.68 313.955 12.868 314.827 13.244C315.707 13.62 316.359 14.236 316.783 15.092C317.015 15.548 317.155 16.016 317.203 16.496C317.251 16.968 317.275 17.484 317.275 18.044V26H314.743V23.192L315.163 23.648C314.579 24.584 313.895 25.272 313.111 25.712C312.335 26.144 311.363 26.36 310.195 26.36ZM310.771 24.056C311.427 24.056 311.987 23.94 312.451 23.708C312.915 23.476 313.283 23.192 313.555 22.856C313.835 22.52 314.023 22.204 314.119 21.908C314.271 21.54 314.355 21.12 314.371 20.648C314.395 20.168 314.407 19.78 314.407 19.484L315.295 19.748C314.423 19.884 313.675 20.004 313.051 20.108C312.427 20.212 311.891 20.312 311.443 20.408C310.995 20.496 310.599 20.596 310.255 20.708C309.919 20.828 309.635 20.968 309.403 21.128C309.171 21.288 308.991 21.472 308.863 21.68C308.743 21.888 308.683 22.132 308.683 22.412C308.683 22.732 308.763 23.016 308.923 23.264C309.083 23.504 309.315 23.696 309.619 23.84C309.931 23.984 310.315 24.056 310.771 24.056ZM327.995 26C327.139 26.16 326.299 26.228 325.475 26.204C324.659 26.188 323.927 26.04 323.279 25.76C322.631 25.472 322.139 25.02 321.803 24.404C321.507 23.844 321.351 23.272 321.335 22.688C321.319 22.104 321.311 21.444 321.311 20.708V9.44H324.191V20.54C324.191 21.06 324.195 21.516 324.203 21.908C324.219 22.3 324.303 22.62 324.455 22.868C324.743 23.348 325.203 23.616 325.835 23.672C326.467 23.728 327.187 23.696 327.995 23.576V26ZM318.959 15.308V13.04H327.995V15.308H318.959ZM335.642 26.372C334.682 26.372 333.89 26.212 333.266 25.892C332.642 25.572 332.146 25.164 331.778 24.668C331.41 24.172 331.138 23.644 330.962 23.084C330.786 22.524 330.67 21.996 330.614 21.5C330.566 20.996 330.542 20.588 330.542 20.276V13.04H333.47V19.28C333.47 19.68 333.498 20.132 333.554 20.636C333.61 21.132 333.738 21.612 333.938 22.076C334.146 22.532 334.45 22.908 334.85 23.204C335.258 23.5 335.806 23.648 336.494 23.648C336.862 23.648 337.226 23.588 337.586 23.468C337.946 23.348 338.27 23.144 338.558 22.856C338.854 22.56 339.09 22.156 339.266 21.644C339.442 21.132 339.53 20.484 339.53 19.7L341.246 20.432C341.246 21.536 341.03 22.536 340.598 23.432C340.174 24.328 339.546 25.044 338.714 25.58C337.882 26.108 336.858 26.372 335.642 26.372ZM339.878 26V21.98H339.53V13.04H342.434V26H339.878ZM345.805 26V13.04H348.361V16.196L348.049 15.788C348.209 15.356 348.421 14.964 348.685 14.612C348.957 14.252 349.281 13.956 349.657 13.724C349.977 13.508 350.329 13.34 350.713 13.22C351.105 13.092 351.505 13.016 351.913 12.992C352.321 12.96 352.717 12.976 353.101 13.04V15.74C352.717 15.628 352.273 15.592 351.769 15.632C351.273 15.672 350.825 15.812 350.425 16.052C350.025 16.268 349.697 16.544 349.441 16.88C349.193 17.216 349.009 17.6 348.889 18.032C348.769 18.456 348.709 18.916 348.709 19.412V26H345.805ZM361.049 26.36C359.737 26.36 358.585 26.076 357.593 25.508C356.601 24.94 355.825 24.152 355.265 23.144C354.713 22.136 354.437 20.976 354.437 19.664C354.437 18.248 354.709 17.02 355.253 15.98C355.797 14.932 356.553 14.12 357.521 13.544C358.489 12.968 359.609 12.68 360.881 12.68C362.225 12.68 363.365 12.996 364.301 13.628C365.245 14.252 365.945 15.136 366.401 16.28C366.857 17.424 367.029 18.772 366.917 20.324H364.049V19.268C364.041 17.86 363.793 16.832 363.305 16.184C362.817 15.536 362.049 15.212 361.001 15.212C359.817 15.212 358.937 15.58 358.361 16.316C357.785 17.044 357.497 18.112 357.497 19.52C357.497 20.832 357.785 21.848 358.361 22.568C358.937 23.288 359.777 23.648 360.881 23.648C361.593 23.648 362.205 23.492 362.717 23.18C363.237 22.86 363.637 22.4 363.917 21.8L366.773 22.664C366.277 23.832 365.509 24.74 364.469 25.388C363.437 26.036 362.297 26.36 361.049 26.36ZM356.585 20.324V18.14H365.501V20.324H356.585ZM374.598 26.36C372.998 26.36 371.698 26 370.698 25.28C369.698 24.56 369.09 23.548 368.874 22.244L371.826 21.788C371.978 22.428 372.314 22.932 372.834 23.3C373.354 23.668 374.01 23.852 374.802 23.852C375.498 23.852 376.034 23.716 376.41 23.444C376.794 23.164 376.986 22.784 376.986 22.304C376.986 22.008 376.914 21.772 376.77 21.596C376.634 21.412 376.33 21.236 375.858 21.068C375.386 20.9 374.662 20.688 373.686 20.432C372.598 20.144 371.734 19.836 371.094 19.508C370.454 19.172 369.994 18.776 369.714 18.32C369.434 17.864 369.294 17.312 369.294 16.664C369.294 15.856 369.506 15.152 369.93 14.552C370.354 13.952 370.946 13.492 371.706 13.172C372.466 12.844 373.362 12.68 374.394 12.68C375.402 12.68 376.294 12.836 377.07 13.148C377.854 13.46 378.486 13.904 378.966 14.48C379.446 15.056 379.742 15.732 379.854 16.508L376.902 17.036C376.83 16.484 376.578 16.048 376.146 15.728C375.722 15.408 375.154 15.228 374.442 15.188C373.762 15.148 373.214 15.252 372.798 15.5C372.382 15.74 372.174 16.08 372.174 16.52C372.174 16.768 372.258 16.98 372.426 17.156C372.594 17.332 372.93 17.508 373.434 17.684C373.946 17.86 374.706 18.076 375.714 18.332C376.746 18.596 377.57 18.9 378.186 19.244C378.81 19.58 379.258 19.984 379.53 20.456C379.81 20.928 379.95 21.5 379.95 22.172C379.95 23.476 379.474 24.5 378.522 25.244C377.578 25.988 376.27 26.36 374.598 26.36ZM391.007 26.36C390.071 26.36 389.279 26.184 388.631 25.832C387.983 25.472 387.491 24.996 387.155 24.404C386.827 23.812 386.663 23.16 386.663 22.448C386.663 21.824 386.767 21.264 386.975 20.768C387.183 20.264 387.503 19.832 387.935 19.472C388.367 19.104 388.927 18.804 389.615 18.572C390.135 18.404 390.743 18.252 391.439 18.116C392.143 17.98 392.903 17.856 393.719 17.744C394.543 17.624 395.403 17.496 396.299 17.36L395.267 17.948C395.275 17.052 395.075 16.392 394.667 15.968C394.259 15.544 393.571 15.332 392.603 15.332C392.019 15.332 391.455 15.468 390.911 15.74C390.367 16.012 389.987 16.48 389.771 17.144L387.131 16.316C387.451 15.22 388.059 14.34 388.955 13.676C389.859 13.012 391.075 12.68 392.603 12.68C393.755 12.68 394.767 12.868 395.639 13.244C396.519 13.62 397.171 14.236 397.595 15.092C397.827 15.548 397.967 16.016 398.015 16.496C398.063 16.968 398.087 17.484 398.087 18.044V26H395.555V23.192L395.975 23.648C395.391 24.584 394.707 25.272 393.923 25.712C393.147 26.144 392.175 26.36 391.007 26.36ZM391.583 24.056C392.239 24.056 392.799 23.94 393.263 23.708C393.727 23.476 394.095 23.192 394.367 22.856C394.647 22.52 394.835 22.204 394.931 21.908C395.083 21.54 395.167 21.12 395.183 20.648C395.207 20.168 395.219 19.78 395.219 19.484L396.107 19.748C395.235 19.884 394.487 20.004 393.863 20.108C393.239 20.212 392.703 20.312 392.255 20.408C391.807 20.496 391.411 20.596 391.067 20.708C390.731 20.828 390.447 20.968 390.215 21.128C389.983 21.288 389.803 21.472 389.675 21.68C389.555 21.888 389.495 22.132 389.495 22.412C389.495 22.732 389.575 23.016 389.735 23.264C389.895 23.504 390.127 23.696 390.431 23.84C390.743 23.984 391.127 24.056 391.583 24.056ZM410.175 26V19.76C410.175 19.352 410.147 18.9 410.091 18.404C410.035 17.908 409.903 17.432 409.695 16.976C409.495 16.512 409.191 16.132 408.783 15.836C408.383 15.54 407.839 15.392 407.151 15.392C406.783 15.392 406.419 15.452 406.059 15.572C405.699 15.692 405.371 15.9 405.075 16.196C404.787 16.484 404.555 16.884 404.379 17.396C404.203 17.9 404.115 18.548 404.115 19.34L402.399 18.608C402.399 17.504 402.611 16.504 403.035 15.608C403.467 14.712 404.099 14 404.931 13.472C405.763 12.936 406.787 12.668 408.003 12.668C408.963 12.668 409.755 12.828 410.379 13.148C411.003 13.468 411.499 13.876 411.867 14.372C412.235 14.868 412.507 15.396 412.683 15.956C412.859 16.516 412.971 17.048 413.019 17.552C413.075 18.048 413.103 18.452 413.103 18.764V26H410.175ZM401.187 26V13.04H403.767V17.06H404.115V26H401.187ZM421.22 26.36C420.028 26.36 418.988 26.06 418.1 25.46C417.212 24.86 416.524 24.044 416.036 23.012C415.548 21.98 415.304 20.816 415.304 19.52C415.304 18.208 415.548 17.04 416.036 16.016C416.532 14.984 417.232 14.172 418.136 13.58C419.04 12.98 420.104 12.68 421.328 12.68C422.56 12.68 423.592 12.98 424.424 13.58C425.264 14.172 425.9 14.984 426.332 16.016C426.764 17.048 426.98 18.216 426.98 19.52C426.98 20.808 426.764 21.972 426.332 23.012C425.9 24.044 425.256 24.86 424.4 25.46C423.544 26.06 422.484 26.36 421.22 26.36ZM421.664 23.768C422.44 23.768 423.064 23.592 423.536 23.24C424.016 22.88 424.364 22.38 424.58 21.74C424.804 21.1 424.916 20.36 424.916 19.52C424.916 18.672 424.804 17.932 424.58 17.3C424.364 16.66 424.024 16.164 423.56 15.812C423.096 15.452 422.496 15.272 421.76 15.272C420.984 15.272 420.344 15.464 419.84 15.848C419.336 16.224 418.964 16.736 418.724 17.384C418.484 18.024 418.364 18.736 418.364 19.52C418.364 20.312 418.48 21.032 418.712 21.68C418.952 22.32 419.316 22.828 419.804 23.204C420.292 23.58 420.912 23.768 421.664 23.768ZM424.916 26V16.904H424.556V8.72H427.472V26H424.916ZM441.869 26.36C440.605 26.36 439.545 26.06 438.689 25.46C437.833 24.86 437.189 24.044 436.757 23.012C436.325 21.972 436.109 20.808 436.109 19.52C436.109 18.216 436.325 17.048 436.757 16.016C437.189 14.984 437.821 14.172 438.653 13.58C439.493 12.98 440.529 12.68 441.761 12.68C442.985 12.68 444.045 12.98 444.941 13.58C445.845 14.172 446.545 14.984 447.041 16.016C447.537 17.04 447.785 18.208 447.785 19.52C447.785 20.816 447.541 21.98 447.053 23.012C446.565 24.044 445.877 24.86 444.989 25.46C444.101 26.06 443.061 26.36 441.869 26.36ZM435.617 26V8.72H438.533V16.904H438.173V26H435.617ZM441.425 23.768C442.177 23.768 442.797 23.58 443.285 23.204C443.773 22.828 444.133 22.32 444.365 21.68C444.605 21.032 444.725 20.312 444.725 19.52C444.725 18.736 444.605 18.024 444.365 17.384C444.125 16.736 443.753 16.224 443.249 15.848C442.745 15.464 442.105 15.272 441.329 15.272C440.593 15.272 439.993 15.452 439.529 15.812C439.065 16.164 438.721 16.66 438.497 17.3C438.281 17.932 438.173 18.672 438.173 19.52C438.173 20.36 438.281 21.1 438.497 21.74C438.721 22.38 439.069 22.88 439.541 23.24C440.021 23.592 440.649 23.768 441.425 23.768ZM456.322 26.36C455.01 26.36 453.858 26.076 452.866 25.508C451.874 24.94 451.098 24.152 450.538 23.144C449.986 22.136 449.71 20.976 449.71 19.664C449.71 18.248 449.982 17.02 450.526 15.98C451.07 14.932 451.826 14.12 452.794 13.544C453.762 12.968 454.882 12.68 456.154 12.68C457.498 12.68 458.638 12.996 459.574 13.628C460.518 14.252 461.218 15.136 461.674 16.28C462.13 17.424 462.302 18.772 462.19 20.324H459.322V19.268C459.314 17.86 459.066 16.832 458.578 16.184C458.09 15.536 457.322 15.212 456.274 15.212C455.09 15.212 454.21 15.58 453.634 16.316C453.058 17.044 452.77 18.112 452.77 19.52C452.77 20.832 453.058 21.848 453.634 22.568C454.21 23.288 455.05 23.648 456.154 23.648C456.866 23.648 457.478 23.492 457.99 23.18C458.51 22.86 458.91 22.4 459.19 21.8L462.046 22.664C461.55 23.832 460.782 24.74 459.742 25.388C458.71 26.036 457.57 26.36 456.322 26.36ZM451.858 20.324V18.14H460.774V20.324H451.858ZM473.48 26V19.76C473.48 19.352 473.452 18.9 473.396 18.404C473.34 17.908 473.208 17.432 473 16.976C472.8 16.512 472.496 16.132 472.088 15.836C471.688 15.54 471.144 15.392 470.456 15.392C470.088 15.392 469.724 15.452 469.364 15.572C469.004 15.692 468.676 15.9 468.38 16.196C468.092 16.484 467.86 16.884 467.684 17.396C467.508 17.9 467.42 18.548 467.42 19.34L465.704 18.608C465.704 17.504 465.916 16.504 466.34 15.608C466.772 14.712 467.404 14 468.236 13.472C469.068 12.936 470.092 12.668 471.308 12.668C472.268 12.668 473.06 12.828 473.684 13.148C474.308 13.468 474.804 13.876 475.172 14.372C475.54 14.868 475.812 15.396 475.988 15.956C476.164 16.516 476.276 17.048 476.324 17.552C476.38 18.048 476.408 18.452 476.408 18.764V26H473.48ZM464.492 26V13.04H467.072V17.06H467.42V26H464.492ZM485.22 26.36C483.908 26.36 482.756 26.076 481.764 25.508C480.772 24.94 479.996 24.152 479.436 23.144C478.884 22.136 478.608 20.976 478.608 19.664C478.608 18.248 478.88 17.02 479.424 15.98C479.968 14.932 480.724 14.12 481.692 13.544C482.66 12.968 483.78 12.68 485.052 12.68C486.396 12.68 487.536 12.996 488.472 13.628C489.416 14.252 490.116 15.136 490.572 16.28C491.028 17.424 491.2 18.772 491.088 20.324H488.22V19.268C488.212 17.86 487.964 16.832 487.476 16.184C486.988 15.536 486.22 15.212 485.172 15.212C483.988 15.212 483.108 15.58 482.532 16.316C481.956 17.044 481.668 18.112 481.668 19.52C481.668 20.832 481.956 21.848 482.532 22.568C483.108 23.288 483.948 23.648 485.052 23.648C485.764 23.648 486.376 23.492 486.888 23.18C487.408 22.86 487.808 22.4 488.088 21.8L490.944 22.664C490.448 23.832 489.68 24.74 488.64 25.388C487.608 26.036 486.468 26.36 485.22 26.36ZM480.756 20.324V18.14H489.672V20.324H480.756ZM494.894 26V12.836C494.894 12.508 494.906 12.148 494.93 11.756C494.954 11.356 495.022 10.96 495.134 10.568C495.246 10.176 495.45 9.82 495.746 9.5C496.114 9.092 496.51 8.812 496.934 8.66C497.366 8.5 497.79 8.412 498.206 8.396C498.622 8.372 498.986 8.36 499.298 8.36H500.918V10.712H499.418C498.866 10.712 498.454 10.852 498.182 11.132C497.918 11.404 497.786 11.764 497.786 12.212V26H494.894ZM492.806 15.308V13.04H500.918V15.308H492.806ZM503.438 11.072V8.42H506.33V11.072H503.438ZM503.438 26V13.04H506.33V26H503.438ZM517.534 26C516.678 26.16 515.838 26.228 515.014 26.204C514.198 26.188 513.466 26.04 512.818 25.76C512.17 25.472 511.678 25.02 511.342 24.404C511.046 23.844 510.89 23.272 510.874 22.688C510.858 22.104 510.85 21.444 510.85 20.708V9.44H513.73V20.54C513.73 21.06 513.734 21.516 513.742 21.908C513.758 22.3 513.842 22.62 513.994 22.868C514.282 23.348 514.742 23.616 515.374 23.672C516.006 23.728 516.726 23.696 517.534 23.576V26ZM508.498 15.308V13.04H517.534V15.308H508.498ZM525.325 26.36C523.725 26.36 522.425 26 521.425 25.28C520.425 24.56 519.817 23.548 519.601 22.244L522.553 21.788C522.705 22.428 523.041 22.932 523.561 23.3C524.081 23.668 524.737 23.852 525.529 23.852C526.225 23.852 526.761 23.716 527.137 23.444C527.521 23.164 527.713 22.784 527.713 22.304C527.713 22.008 527.641 21.772 527.497 21.596C527.361 21.412 527.057 21.236 526.585 21.068C526.113 20.9 525.389 20.688 524.413 20.432C523.325 20.144 522.461 19.836 521.821 19.508C521.181 19.172 520.721 18.776 520.441 18.32C520.161 17.864 520.021 17.312 520.021 16.664C520.021 15.856 520.233 15.152 520.657 14.552C521.081 13.952 521.673 13.492 522.433 13.172C523.193 12.844 524.089 12.68 525.121 12.68C526.129 12.68 527.021 12.836 527.797 13.148C528.581 13.46 529.213 13.904 529.693 14.48C530.173 15.056 530.469 15.732 530.581 16.508L527.629 17.036C527.557 16.484 527.305 16.048 526.873 15.728C526.449 15.408 525.881 15.228 525.169 15.188C524.489 15.148 523.941 15.252 523.525 15.5C523.109 15.74 522.901 16.08 522.901 16.52C522.901 16.768 522.985 16.98 523.153 17.156C523.321 17.332 523.657 17.508 524.161 17.684C524.673 17.86 525.433 18.076 526.441 18.332C527.473 18.596 528.297 18.9 528.913 19.244C529.537 19.58 529.985 19.984 530.257 20.456C530.537 20.928 530.677 21.5 530.677 22.172C530.677 23.476 530.201 24.5 529.249 25.244C528.305 25.988 526.997 26.36 525.325 26.36ZM533.785 26V23.036H536.749V26H533.785Z" fill="url(#paint0_linear_8174_17110)"/>
<path d="M284.914 94.24C282.45 94.24 280.226 93.76 278.242 92.8C276.258 91.84 274.546 90.544 273.106 88.912C271.666 87.248 270.546 85.392 269.746 83.344C268.978 81.264 268.594 79.136 268.594 76.96C268.594 74.688 269.01 72.528 269.842 70.48C270.674 68.4 271.826 66.56 273.298 64.96C274.77 63.328 276.498 62.048 278.482 61.12C280.498 60.16 282.674 59.68 285.01 59.68C287.442 59.68 289.65 60.176 291.634 61.168C293.65 62.16 295.362 63.488 296.77 65.152C298.21 66.816 299.314 68.672 300.082 70.72C300.882 72.768 301.282 74.864 301.282 77.008C301.282 79.28 300.866 81.456 300.034 83.536C299.234 85.584 298.098 87.424 296.626 89.056C295.154 90.656 293.41 91.92 291.394 92.848C289.41 93.776 287.25 94.24 284.914 94.24ZM274.066 76.96C274.066 78.56 274.322 80.112 274.834 81.616C275.346 83.12 276.066 84.464 276.994 85.648C277.954 86.8 279.106 87.712 280.45 88.384C281.794 89.056 283.298 89.392 284.962 89.392C286.69 89.392 288.226 89.04 289.57 88.336C290.914 87.632 292.034 86.688 292.93 85.504C293.858 84.288 294.562 82.944 295.042 81.472C295.522 79.968 295.762 78.464 295.762 76.96C295.762 75.36 295.506 73.824 294.994 72.352C294.514 70.848 293.794 69.52 292.834 68.368C291.874 67.184 290.722 66.256 289.378 65.584C288.066 64.912 286.594 64.576 284.962 64.576C283.234 64.576 281.698 64.928 280.354 65.632C279.01 66.336 277.874 67.28 276.946 68.464C276.018 69.648 275.298 70.976 274.786 72.448C274.306 73.92 274.066 75.424 274.066 76.96ZM304.936 84.256V68.896H310.216V83.2C310.216 85.44 310.616 87.136 311.416 88.288C312.248 89.408 313.448 89.968 315.016 89.968C316.008 89.968 316.968 89.76 317.896 89.344C318.856 88.928 319.72 88.32 320.488 87.52C321.288 86.688 321.928 85.696 322.408 84.544V68.896H327.688V88.048C327.688 88.656 327.8 89.088 328.024 89.344C328.248 89.6 328.616 89.744 329.128 89.776V94C328.584 94.096 328.136 94.16 327.784 94.192C327.432 94.224 327.096 94.24 326.776 94.24C325.816 94.24 325.016 93.984 324.376 93.472C323.736 92.928 323.368 92.24 323.272 91.408L323.176 88.912C322.056 90.736 320.6 92.128 318.808 93.088C317.016 94.016 315.048 94.48 312.904 94.48C310.28 94.48 308.296 93.616 306.952 91.888C305.608 90.16 304.936 87.616 304.936 84.256ZM347.538 73.456C345.49 73.488 343.666 73.952 342.066 74.848C340.498 75.744 339.378 77.008 338.706 78.64V94H333.426V68.896H338.322V74.512C339.186 72.784 340.322 71.408 341.73 70.384C343.138 69.328 344.626 68.752 346.194 68.656C346.514 68.656 346.77 68.656 346.962 68.656C347.186 68.656 347.378 68.672 347.538 68.704V73.456ZM360.832 94V59.92H375.136C376.672 59.92 378.08 60.24 379.36 60.88C380.64 61.52 381.76 62.368 382.72 63.424C383.68 64.48 384.416 65.664 384.928 66.976C385.44 68.288 385.696 69.632 385.696 71.008C385.696 72.896 385.264 74.704 384.4 76.432C383.568 78.128 382.368 79.504 380.8 80.56C379.264 81.616 377.472 82.144 375.424 82.144H366.208V94H360.832ZM366.208 77.392H375.088C376.112 77.392 377.008 77.12 377.776 76.576C378.544 76 379.136 75.232 379.552 74.272C380 73.312 380.224 72.224 380.224 71.008C380.224 69.76 379.968 68.656 379.456 67.696C378.944 66.736 378.272 66 377.44 65.488C376.64 64.944 375.76 64.672 374.8 64.672H366.208V77.392ZM403.178 73.456C401.13 73.488 399.306 73.952 397.706 74.848C396.138 75.744 395.018 77.008 394.346 78.64V94H389.066V68.896H393.962V74.512C394.826 72.784 395.962 71.408 397.37 70.384C398.778 69.328 400.266 68.752 401.834 68.656C402.154 68.656 402.41 68.656 402.602 68.656C402.826 68.656 403.018 68.672 403.178 68.704V73.456ZM416.831 94.48C414.847 94.48 413.071 94.144 411.503 93.472C409.935 92.768 408.575 91.808 407.423 90.592C406.303 89.376 405.439 88 404.831 86.464C404.223 84.896 403.919 83.232 403.919 81.472C403.919 79.712 404.223 78.048 404.831 76.48C405.439 74.912 406.303 73.536 407.423 72.352C408.575 71.136 409.935 70.192 411.503 69.52C413.103 68.816 414.879 68.464 416.831 68.464C418.783 68.464 420.543 68.816 422.111 69.52C423.711 70.192 425.071 71.136 426.191 72.352C427.343 73.536 428.223 74.912 428.831 76.48C429.439 78.048 429.743 79.712 429.743 81.472C429.743 83.232 429.439 84.896 428.831 86.464C428.223 88 427.343 89.376 426.191 90.592C425.071 91.808 423.711 92.768 422.111 93.472C420.543 94.144 418.783 94.48 416.831 94.48ZM409.343 81.52C409.343 83.12 409.679 84.56 410.351 85.84C411.023 87.12 411.919 88.128 413.039 88.864C414.159 89.6 415.423 89.968 416.831 89.968C418.207 89.968 419.455 89.6 420.575 88.864C421.727 88.096 422.639 87.072 423.311 85.792C423.983 84.48 424.319 83.04 424.319 81.472C424.319 79.872 423.983 78.432 423.311 77.152C422.639 75.872 421.727 74.864 420.575 74.128C419.455 73.36 418.207 72.976 416.831 72.976C415.423 72.976 414.159 73.36 413.039 74.128C411.919 74.896 411.023 75.92 410.351 77.2C409.679 78.448 409.343 79.888 409.343 81.52ZM431.842 81.472C431.842 79.072 432.322 76.896 433.282 74.944C434.274 72.96 435.618 71.392 437.314 70.24C439.01 69.056 440.962 68.464 443.17 68.464C445.09 68.464 446.818 68.96 448.354 69.952C449.922 70.944 451.138 72.176 452.002 73.648V58.96H457.282V88.048C457.282 88.656 457.394 89.088 457.618 89.344C457.842 89.6 458.21 89.744 458.722 89.776V94C457.73 94.16 456.962 94.24 456.418 94.24C455.426 94.24 454.578 93.952 453.874 93.376C453.202 92.8 452.85 92.112 452.818 91.312L452.77 89.44C451.81 91.04 450.514 92.288 448.882 93.184C447.25 94.048 445.554 94.48 443.794 94.48C442.066 94.48 440.466 94.144 438.994 93.472C437.554 92.8 436.29 91.856 435.202 90.64C434.146 89.424 433.314 88.032 432.706 86.464C432.13 84.896 431.842 83.232 431.842 81.472ZM452.002 84.976V78.4C451.65 77.376 451.074 76.464 450.274 75.664C449.506 74.832 448.626 74.176 447.634 73.696C446.674 73.216 445.714 72.976 444.754 72.976C443.634 72.976 442.61 73.216 441.682 73.696C440.786 74.176 440.002 74.816 439.33 75.616C438.69 76.416 438.194 77.328 437.842 78.352C437.49 79.376 437.314 80.448 437.314 81.568C437.314 82.72 437.506 83.808 437.89 84.832C438.274 85.824 438.818 86.72 439.522 87.52C440.258 88.288 441.09 88.896 442.018 89.344C442.978 89.76 444.018 89.968 445.138 89.968C445.842 89.968 446.546 89.84 447.25 89.584C447.986 89.328 448.674 88.976 449.314 88.528C449.986 88.08 450.546 87.552 450.994 86.944C451.474 86.336 451.81 85.68 452.002 84.976ZM462.748 84.256V68.896H468.028V83.2C468.028 85.44 468.428 87.136 469.228 88.288C470.06 89.408 471.26 89.968 472.828 89.968C473.82 89.968 474.78 89.76 475.708 89.344C476.668 88.928 477.532 88.32 478.3 87.52C479.1 86.688 479.74 85.696 480.22 84.544V68.896H485.5V88.048C485.5 88.656 485.612 89.088 485.836 89.344C486.06 89.6 486.428 89.744 486.94 89.776V94C486.396 94.096 485.948 94.16 485.596 94.192C485.244 94.224 484.908 94.24 484.588 94.24C483.628 94.24 482.828 93.984 482.188 93.472C481.548 92.928 481.18 92.24 481.084 91.408L480.988 88.912C479.868 90.736 478.412 92.128 476.62 93.088C474.828 94.016 472.86 94.48 470.716 94.48C468.092 94.48 466.108 93.616 464.764 91.888C463.42 90.16 462.748 87.616 462.748 84.256ZM502.614 94.48C500.662 94.48 498.886 94.144 497.286 93.472C495.718 92.768 494.358 91.808 493.206 90.592C492.054 89.376 491.158 87.984 490.518 86.416C489.91 84.848 489.606 83.184 489.606 81.424C489.606 79.056 490.134 76.896 491.19 74.944C492.278 72.992 493.782 71.424 495.702 70.24C497.654 69.056 499.958 68.464 502.614 68.464C505.174 68.464 507.398 69.04 509.286 70.192C511.206 71.312 512.614 72.816 513.51 74.704L508.374 76.336C507.798 75.28 506.982 74.464 505.926 73.888C504.902 73.28 503.766 72.976 502.518 72.976C501.11 72.976 499.83 73.344 498.678 74.08C497.558 74.784 496.662 75.776 495.99 77.056C495.35 78.304 495.03 79.76 495.03 81.424C495.03 83.024 495.366 84.48 496.038 85.792C496.71 87.072 497.606 88.096 498.726 88.864C499.878 89.6 501.158 89.968 502.566 89.968C503.43 89.968 504.262 89.824 505.062 89.536C505.894 89.216 506.614 88.8 507.222 88.288C507.83 87.744 508.262 87.152 508.518 86.512L513.702 88.048C513.158 89.296 512.342 90.4 511.254 91.36C510.198 92.32 508.934 93.088 507.462 93.664C506.022 94.208 504.406 94.48 502.614 94.48ZM531.019 92.704C530.571 92.928 530.011 93.168 529.339 93.424C528.667 93.68 527.899 93.904 527.035 94.096C526.203 94.288 525.339 94.384 524.443 94.384C523.355 94.384 522.347 94.192 521.419 93.808C520.491 93.424 519.739 92.816 519.163 91.984C518.619 91.12 518.347 90.016 518.347 88.672V72.976H515.035V68.896H518.347V60.64H523.627V68.896H529.099V72.976H523.627V86.992C523.691 87.856 523.963 88.496 524.443 88.912C524.955 89.328 525.579 89.536 526.315 89.536C527.051 89.536 527.755 89.408 528.427 89.152C529.099 88.896 529.595 88.688 529.915 88.528L531.019 92.704ZM542.604 94.48C540.492 94.48 538.492 94.144 536.604 93.472C534.716 92.768 533.1 91.728 531.756 90.352L533.724 86.8C535.164 88.08 536.604 89.008 538.044 89.584C539.516 90.16 540.972 90.448 542.412 90.448C543.884 90.448 545.084 90.176 546.012 89.632C546.94 89.056 547.404 88.224 547.404 87.136C547.404 86.336 547.164 85.744 546.684 85.36C546.204 84.976 545.5 84.64 544.572 84.352C543.676 84.064 542.588 83.744 541.308 83.392C539.516 82.848 538.012 82.288 536.796 81.712C535.58 81.104 534.668 80.368 534.06 79.504C533.452 78.64 533.148 77.536 533.148 76.192C533.148 74.56 533.564 73.168 534.396 72.016C535.228 70.864 536.38 69.984 537.852 69.376C539.356 68.768 541.084 68.464 543.036 68.464C544.86 68.464 546.54 68.752 548.076 69.328C549.644 69.872 551.02 70.736 552.204 71.92L549.948 75.424C548.828 74.4 547.676 73.648 546.492 73.168C545.34 72.688 544.092 72.448 542.748 72.448C541.98 72.448 541.244 72.544 540.54 72.736C539.836 72.896 539.244 73.216 538.764 73.696C538.316 74.144 538.092 74.784 538.092 75.616C538.092 76.288 538.284 76.832 538.668 77.248C539.052 77.664 539.628 78.016 540.396 78.304C541.164 78.592 542.108 78.912 543.228 79.264C545.18 79.84 546.844 80.416 548.22 80.992C549.596 81.536 550.652 82.256 551.388 83.152C552.156 84.016 552.54 85.216 552.54 86.752C552.54 89.184 551.628 91.088 549.804 92.464C548.012 93.808 545.612 94.48 542.604 94.48Z" fill="#141219"/>
<defs>
<linearGradient id="paint0_linear_8174_17110" x1="0" y1="16.5" x2="821" y2="16.5" gradientUnits="userSpaceOnUse">
<stop offset="0.11" stop-color="#CD6028"/>
<stop offset="1" stop-color="#3E6EB4"/>
</linearGradient>
</defs>
</svg>
