<svg width="165" height="108" viewBox="0 0 165 108" fill="none" xmlns="http://www.w3.org/2000/svg">
<path d="M3.27515 6.84686C5.08397 6.84686 6.55031 5.35161 6.55031 3.50711C6.55031 1.66262 5.08397 0.167358 3.27515 0.167358C1.46634 0.167358 0 1.66262 0 3.50711C0 5.35161 1.46634 6.84686 3.27515 6.84686Z" fill="#D8D8D8"/>
<path d="M29.6384 6.84686C31.4473 6.84686 32.9136 5.35161 32.9136 3.50711C32.9136 1.66262 31.4473 0.167358 29.6384 0.167358C27.8296 0.167358 26.3633 1.66262 26.3633 3.50711C26.3633 5.35161 27.8296 6.84686 29.6384 6.84686Z" fill="#D8D8D8"/>
<path d="M55.8416 6.67951C57.6504 6.67951 59.1167 5.18425 59.1167 3.33975C59.1167 1.49526 57.6504 0 55.8416 0C54.0327 0 52.5664 1.49526 52.5664 3.33975C52.5664 5.18425 54.0327 6.67951 55.8416 6.67951Z" fill="#D8D8D8"/>
<path d="M82.2048 7.01312C84.0137 7.01312 85.48 5.51787 85.48 3.67337C85.48 1.82888 84.0137 0.333618 82.2048 0.333618C80.396 0.333618 78.9297 1.82888 78.9297 3.67337C78.9297 5.51787 80.396 7.01312 82.2048 7.01312Z" fill="#D8D8D8"/>
<path d="M108.408 7.01312C110.217 7.01312 111.683 5.51787 111.683 3.67337C111.683 1.82888 110.217 0.333618 108.408 0.333618C106.599 0.333618 105.133 1.82888 105.133 3.67337C105.133 5.51787 106.599 7.01312 108.408 7.01312Z" fill="#D8D8D8"/>
<path d="M134.771 6.84686C136.58 6.84686 138.046 5.35161 138.046 3.50711C138.046 1.66262 136.58 0.167358 134.771 0.167358C132.962 0.167358 131.496 1.66262 131.496 3.50711C131.496 5.35161 132.962 6.84686 134.771 6.84686Z" fill="#D8D8D8"/>
<path d="M160.974 6.67951C162.783 6.67951 164.25 5.18425 164.25 3.33975C164.25 1.49526 162.783 0 160.974 0C159.166 0 157.699 1.49526 157.699 3.33975C157.699 5.18425 159.166 6.67951 160.974 6.67951Z" fill="#D8D8D8"/>
<path d="M3.27515 23.0439C5.08397 23.0439 6.55031 21.5486 6.55031 19.7041C6.55031 17.8596 5.08397 16.3644 3.27515 16.3644C1.46634 16.3644 0 17.8596 0 19.7041C0 21.5486 1.46634 23.0439 3.27515 23.0439Z" fill="#D8D8D8"/>
<path d="M29.6384 23.0439C31.4473 23.0439 32.9136 21.5486 32.9136 19.7041C32.9136 17.8596 31.4473 16.3644 29.6384 16.3644C27.8296 16.3644 26.3633 17.8596 26.3633 19.7041C26.3633 21.5486 27.8296 23.0439 29.6384 23.0439Z" fill="#D8D8D8"/>
<path d="M55.8416 22.8776C57.6504 22.8776 59.1167 21.3824 59.1167 19.5379C59.1167 17.6934 57.6504 16.1981 55.8416 16.1981C54.0327 16.1981 52.5664 17.6934 52.5664 19.5379C52.5664 21.3824 54.0327 22.8776 55.8416 22.8776Z" fill="#D8D8D8"/>
<path d="M82.2048 23.2111C84.0137 23.2111 85.48 21.7159 85.48 19.8714C85.48 18.0269 84.0137 16.5316 82.2048 16.5316C80.396 16.5316 78.9297 18.0269 78.9297 19.8714C78.9297 21.7159 80.396 23.2111 82.2048 23.2111Z" fill="#D8D8D8"/>
<path d="M108.408 23.2111C110.217 23.2111 111.683 21.7159 111.683 19.8714C111.683 18.0269 110.217 16.5316 108.408 16.5316C106.599 16.5316 105.133 18.0269 105.133 19.8714C105.133 21.7159 106.599 23.2111 108.408 23.2111Z" fill="#D8D8D8"/>
<path d="M134.771 23.0439C136.58 23.0439 138.046 21.5486 138.046 19.7041C138.046 17.8596 136.58 16.3644 134.771 16.3644C132.962 16.3644 131.496 17.8596 131.496 19.7041C131.496 21.5486 132.962 23.0439 134.771 23.0439Z" fill="#D8D8D8"/>
<path d="M160.974 22.8776C162.783 22.8776 164.25 21.3824 164.25 19.5379C164.25 17.6934 162.783 16.1981 160.974 16.1981C159.166 16.1981 157.699 17.6934 157.699 19.5379C157.699 21.3824 159.166 22.8776 160.974 22.8776Z" fill="#D8D8D8"/>
<path d="M3.43922 39.5755C5.24803 39.5755 6.71437 38.0802 6.71437 36.2357C6.71437 34.3913 5.24803 32.896 3.43922 32.896C1.6304 32.896 0.164062 34.3913 0.164062 36.2357C0.164062 38.0802 1.6304 39.5755 3.43922 39.5755Z" fill="#D8D8D8"/>
<path d="M29.8025 39.5755C31.6113 39.5755 33.0777 38.0802 33.0777 36.2357C33.0777 34.3913 31.6113 32.896 29.8025 32.896C27.9937 32.896 26.5273 34.3913 26.5273 36.2357C26.5273 38.0802 27.9937 39.5755 29.8025 39.5755Z" fill="#D8D8D8"/>
<path d="M56.0056 39.4091C57.8144 39.4091 59.2808 37.9139 59.2808 36.0694C59.2808 34.2249 57.8144 32.7296 56.0056 32.7296C54.1968 32.7296 52.7305 34.2249 52.7305 36.0694C52.7305 37.9139 54.1968 39.4091 56.0056 39.4091Z" fill="#D8D8D8"/>
<path d="M82.3689 39.7429C84.1777 39.7429 85.6441 38.2476 85.6441 36.4031C85.6441 34.5586 84.1777 33.0634 82.3689 33.0634C80.5601 33.0634 79.0938 34.5586 79.0938 36.4031C79.0938 38.2476 80.5601 39.7429 82.3689 39.7429Z" fill="#D8D8D8"/>
<path d="M108.572 39.7429C110.381 39.7429 111.847 38.2476 111.847 36.4031C111.847 34.5586 110.381 33.0634 108.572 33.0634C106.763 33.0634 105.297 34.5586 105.297 36.4031C105.297 38.2476 106.763 39.7429 108.572 39.7429Z" fill="#D8D8D8"/>
<path d="M134.935 39.5755C136.744 39.5755 138.21 38.0802 138.21 36.2357C138.21 34.3913 136.744 32.896 134.935 32.896C133.126 32.896 131.66 34.3913 131.66 36.2357C131.66 38.0802 133.126 39.5755 134.935 39.5755Z" fill="#D8D8D8"/>
<path d="M161.138 39.4092C162.947 39.4092 164.414 37.914 164.414 36.0695C164.414 34.225 162.947 32.7297 161.138 32.7297C159.33 32.7297 157.863 34.225 157.863 36.0695C157.863 37.914 159.33 39.4092 161.138 39.4092Z" fill="#D8D8D8"/>
<path d="M3.60328 56.4418C5.4121 56.4418 6.87843 54.9466 6.87843 53.1021C6.87843 51.2576 5.4121 49.7623 3.60328 49.7623C1.79446 49.7623 0.328125 51.2576 0.328125 53.1021C0.328125 54.9466 1.79446 56.4418 3.60328 56.4418Z" fill="#D8D8D8"/>
<path d="M29.9666 56.4418C31.7754 56.4418 33.2417 54.9466 33.2417 53.1021C33.2417 51.2576 31.7754 49.7623 29.9666 49.7623C28.1577 49.7623 26.6914 51.2576 26.6914 53.1021C26.6914 54.9466 28.1577 56.4418 29.9666 56.4418Z" fill="#D8D8D8"/>
<path d="M56.1697 56.2745C57.9785 56.2745 59.4448 54.7792 59.4448 52.9347C59.4448 51.0902 57.9785 49.595 56.1697 49.595C54.3609 49.595 52.8945 51.0902 52.8945 52.9347C52.8945 54.7792 54.3609 56.2745 56.1697 56.2745Z" fill="#D8D8D8"/>
<path d="M82.533 56.6091C84.3418 56.6091 85.8081 55.1138 85.8081 53.2693C85.8081 51.4248 84.3418 49.9296 82.533 49.9296C80.7241 49.9296 79.2578 51.4248 79.2578 53.2693C79.2578 55.1138 80.7241 56.6091 82.533 56.6091Z" fill="#D8D8D8"/>
<path d="M108.736 56.6091C110.545 56.6091 112.011 55.1138 112.011 53.2693C112.011 51.4248 110.545 49.9296 108.736 49.9296C106.927 49.9296 105.461 51.4248 105.461 53.2693C105.461 55.1138 106.927 56.6091 108.736 56.6091Z" fill="#D8D8D8"/>
<path d="M135.099 56.4418C136.908 56.4418 138.375 54.9466 138.375 53.1021C138.375 51.2576 136.908 49.7623 135.099 49.7623C133.291 49.7623 131.824 51.2576 131.824 53.1021C131.824 54.9466 133.291 56.4418 135.099 56.4418Z" fill="#D8D8D8"/>
<path d="M161.302 56.2745C163.111 56.2745 164.578 54.7792 164.578 52.9347C164.578 51.0902 163.111 49.595 161.302 49.595C159.494 49.595 158.027 51.0902 158.027 52.9347C158.027 54.7792 159.494 56.2745 161.302 56.2745Z" fill="#D8D8D8"/>
<path d="M3.27515 73.6415C5.08397 73.6415 6.55031 72.1463 6.55031 70.3018C6.55031 68.4573 5.08397 66.962 3.27515 66.962C1.46634 66.962 0 68.4573 0 70.3018C0 72.1463 1.46634 73.6415 3.27515 73.6415Z" fill="#D8D8D8"/>
<path d="M29.6384 73.6417C31.4473 73.6417 32.9136 72.1464 32.9136 70.3019C32.9136 68.4574 31.4473 66.9622 29.6384 66.9622C27.8296 66.9622 26.3633 68.4574 26.3633 70.3019C26.3633 72.1464 27.8296 73.6417 29.6384 73.6417Z" fill="#D8D8D8"/>
<path d="M55.8416 73.4745C57.6504 73.4745 59.1167 71.9793 59.1167 70.1348C59.1167 68.2903 57.6504 66.795 55.8416 66.795C54.0327 66.795 52.5664 68.2903 52.5664 70.1348C52.5664 71.9793 54.0327 73.4745 55.8416 73.4745Z" fill="#D8D8D8"/>
<path d="M82.2048 73.808C84.0137 73.808 85.48 72.3128 85.48 70.4683C85.48 68.6238 84.0137 67.1285 82.2048 67.1285C80.396 67.1285 78.9297 68.6238 78.9297 70.4683C78.9297 72.3128 80.396 73.808 82.2048 73.808Z" fill="#D8D8D8"/>
<path d="M108.408 73.808C110.217 73.808 111.683 72.3128 111.683 70.4683C111.683 68.6238 110.217 67.1285 108.408 67.1285C106.599 67.1285 105.133 68.6238 105.133 70.4683C105.133 72.3128 106.599 73.808 108.408 73.808Z" fill="#D8D8D8"/>
<path d="M134.771 73.6417C136.58 73.6417 138.046 72.1464 138.046 70.3019C138.046 68.4574 136.58 66.9622 134.771 66.9622C132.962 66.9622 131.496 68.4574 131.496 70.3019C131.496 72.1464 132.962 73.6417 134.771 73.6417Z" fill="#D8D8D8"/>
<path d="M160.974 73.4744C162.783 73.4744 164.25 71.9792 164.25 70.1347C164.25 68.2902 162.783 66.7949 160.974 66.7949C159.166 66.7949 157.699 68.2902 157.699 70.1347C157.699 71.9792 159.166 73.4744 160.974 73.4744Z" fill="#D8D8D8"/>
<path d="M3.27515 90.507C5.08397 90.507 6.55031 89.0118 6.55031 87.1673C6.55031 85.3228 5.08397 83.8275 3.27515 83.8275C1.46634 83.8275 0 85.3228 0 87.1673C0 89.0118 1.46634 90.507 3.27515 90.507Z" fill="#D8D8D8"/>
<path d="M29.6384 90.507C31.4473 90.507 32.9136 89.0118 32.9136 87.1673C32.9136 85.3228 31.4473 83.8275 29.6384 83.8275C27.8296 83.8275 26.3633 85.3228 26.3633 87.1673C26.3633 89.0118 27.8296 90.507 29.6384 90.507Z" fill="#D8D8D8"/>
<path d="M55.8416 90.3406C57.6504 90.3406 59.1167 88.8454 59.1167 87.0009C59.1167 85.1564 57.6504 83.6611 55.8416 83.6611C54.0327 83.6611 52.5664 85.1564 52.5664 87.0009C52.5664 88.8454 54.0327 90.3406 55.8416 90.3406Z" fill="#D8D8D8"/>
<path d="M82.2048 90.6743C84.0137 90.6743 85.48 89.179 85.48 87.3345C85.48 85.49 84.0137 83.9948 82.2048 83.9948C80.396 83.9948 78.9297 85.49 78.9297 87.3345C78.9297 89.179 80.396 90.6743 82.2048 90.6743Z" fill="#D8D8D8"/>
<path d="M108.408 90.6743C110.217 90.6743 111.683 89.179 111.683 87.3345C111.683 85.49 110.217 83.9948 108.408 83.9948C106.599 83.9948 105.133 85.49 105.133 87.3345C105.133 89.179 106.599 90.6743 108.408 90.6743Z" fill="#D8D8D8"/>
<path d="M134.771 90.507C136.58 90.507 138.046 89.0118 138.046 87.1673C138.046 85.3228 136.58 83.8275 134.771 83.8275C132.962 83.8275 131.496 85.3228 131.496 87.1673C131.496 89.0118 132.962 90.507 134.771 90.507Z" fill="#D8D8D8"/>
<path d="M160.974 90.3406C162.783 90.3406 164.25 88.8454 164.25 87.0009C164.25 85.1564 162.783 83.6611 160.974 83.6611C159.166 83.6611 157.699 85.1564 157.699 87.0009C157.699 88.8454 159.166 90.3406 160.974 90.3406Z" fill="#D8D8D8"/>
<path d="M3.27515 107.373C5.08397 107.373 6.55031 105.878 6.55031 104.033C6.55031 102.189 5.08397 100.694 3.27515 100.694C1.46634 100.694 0 102.189 0 104.033C0 105.878 1.46634 107.373 3.27515 107.373Z" fill="#D8D8D8"/>
<path d="M29.6384 107.373C31.4473 107.373 32.9136 105.878 32.9136 104.033C32.9136 102.189 31.4473 100.694 29.6384 100.694C27.8296 100.694 26.3633 102.189 26.3633 104.033C26.3633 105.878 27.8296 107.373 29.6384 107.373Z" fill="#D8D8D8"/>
<path d="M55.8416 107.206C57.6504 107.206 59.1167 105.711 59.1167 103.866C59.1167 102.022 57.6504 100.527 55.8416 100.527C54.0327 100.527 52.5664 102.022 52.5664 103.866C52.5664 105.711 54.0327 107.206 55.8416 107.206Z" fill="#D8D8D8"/>
<path d="M82.2048 107.541C84.0137 107.541 85.48 106.045 85.48 104.201C85.48 102.356 84.0137 100.861 82.2048 100.861C80.396 100.861 78.9297 102.356 78.9297 104.201C78.9297 106.045 80.396 107.541 82.2048 107.541Z" fill="#D8D8D8"/>
<path d="M108.408 107.541C110.217 107.541 111.683 106.045 111.683 104.201C111.683 102.356 110.217 100.861 108.408 100.861C106.599 100.861 105.133 102.356 105.133 104.201C105.133 106.045 106.599 107.541 108.408 107.541Z" fill="#D8D8D8"/>
<path d="M134.771 107.373C136.58 107.373 138.046 105.878 138.046 104.033C138.046 102.189 136.58 100.694 134.771 100.694C132.962 100.694 131.496 102.189 131.496 104.033C131.496 105.878 132.962 107.373 134.771 107.373Z" fill="#D8D8D8"/>
<path d="M160.974 107.206C162.783 107.206 164.25 105.711 164.25 103.866C164.25 102.022 162.783 100.526 160.974 100.526C159.166 100.526 157.699 102.022 157.699 103.866C157.699 105.711 159.166 107.206 160.974 107.206Z" fill="#D8D8D8"/>
</svg>
