<svg width="551" height="65" viewBox="0 0 551 65" fill="none" xmlns="http://www.w3.org/2000/svg">
<path d="M11.0051 16.1849C11.0051 16.9124 8.54006 17.4999 5.50254 17.4999C2.46502 17.4999 0 16.9124 0 16.1849C0 15.5349 1.97501 14.9999 4.56503 14.8899H6.44004C9.03256 14.9999 11.0051 15.5349 11.0051 16.1849Z" fill="#F0F7FE"/>
<path d="M5.50273 1.5C2.67771 1.5 0.387695 3.78752 0.387695 6.61253C0.387695 9.43755 5.50273 16.1851 5.50273 16.1851C5.50273 16.1851 10.6153 9.43755 10.6153 6.61253C10.6153 3.78752 8.32775 1.5 5.50273 1.5ZM5.50273 9.99756C3.63272 9.99756 2.11771 8.48255 2.11771 6.61253C2.11771 4.74252 3.63272 3.22751 5.50273 3.22751C7.37274 3.22751 8.88775 4.74252 8.88775 6.61253C8.88775 8.48255 7.37274 9.99756 5.50273 9.99756Z" fill="#CD6129"/>
<path d="M25.0051 15.08C24.0984 15.08 23.3251 14.9307 22.6851 14.632C22.0557 14.3227 21.5437 13.9013 21.1491 13.368C20.7651 12.8347 20.4824 12.232 20.3011 11.56C20.1197 10.8773 20.0291 10.168 20.0291 9.432V3.64H22.2371V9.432C22.2371 9.90133 22.2797 10.36 22.3651 10.808C22.4611 11.2453 22.6157 11.64 22.8291 11.992C23.0424 12.344 23.3251 12.6213 23.6771 12.824C24.0291 13.0267 24.4664 13.128 24.9891 13.128C25.5224 13.128 25.9651 13.0267 26.3171 12.824C26.6797 12.6107 26.9624 12.328 27.1651 11.976C27.3784 11.624 27.5331 11.2293 27.6291 10.792C27.7251 10.344 27.7731 9.89067 27.7731 9.432V3.64H29.9651V9.432C29.9651 10.2107 29.8691 10.9413 29.6771 11.624C29.4957 12.3067 29.2024 12.9093 28.7971 13.432C28.4024 13.944 27.8904 14.3493 27.2611 14.648C26.6317 14.936 25.8797 15.08 25.0051 15.08ZM31.7456 15V12.696H33.5056V15H31.7456ZM42.3633 6.616C42.2886 6.54133 42.15 6.44 41.9473 6.312C41.7553 6.184 41.5153 6.06133 41.2273 5.944C40.95 5.82667 40.646 5.72533 40.3153 5.64C39.9846 5.544 39.6486 5.496 39.3073 5.496C38.71 5.496 38.2566 5.608 37.9473 5.832C37.6486 6.056 37.4993 6.37067 37.4993 6.776C37.4993 7.08533 37.5953 7.33067 37.7873 7.512C37.9793 7.69333 38.2673 7.848 38.6513 7.976C39.0353 8.104 39.5153 8.24267 40.0913 8.392C40.838 8.57333 41.4833 8.79733 42.0273 9.064C42.582 9.32 43.0033 9.66133 43.2913 10.088C43.59 10.504 43.7393 11.0587 43.7393 11.752C43.7393 12.36 43.6273 12.8827 43.4033 13.32C43.1793 13.7467 42.87 14.0933 42.4753 14.36C42.0806 14.6267 41.6326 14.824 41.1313 14.952C40.63 15.0693 40.0966 15.128 39.5313 15.128C38.966 15.128 38.4006 15.0693 37.8353 14.952C37.27 14.8347 36.726 14.6693 36.2033 14.456C35.6806 14.232 35.2006 13.9653 34.7633 13.656L35.7393 11.752C35.8353 11.848 36.006 11.976 36.2513 12.136C36.4966 12.2853 36.7953 12.44 37.1473 12.6C37.4993 12.7493 37.8833 12.8773 38.2993 12.984C38.7153 13.0907 39.1366 13.144 39.5633 13.144C40.1606 13.144 40.614 13.0427 40.9233 12.84C41.2326 12.6373 41.3873 12.3493 41.3873 11.976C41.3873 11.6347 41.2646 11.368 41.0193 11.176C40.774 10.984 40.4326 10.8187 39.9953 10.68C39.558 10.5307 39.0406 10.3707 38.4433 10.2C37.7286 9.99733 37.1313 9.77333 36.6513 9.528C36.1713 9.272 35.814 8.952 35.5793 8.568C35.3446 8.184 35.2273 7.704 35.2273 7.128C35.2273 6.34933 35.4086 5.69867 35.7713 5.176C36.1446 4.64267 36.646 4.24267 37.2753 3.976C37.9046 3.69867 38.6033 3.56 39.3713 3.56C39.9046 3.56 40.406 3.61867 40.8753 3.736C41.3553 3.85333 41.8033 4.008 42.2193 4.2C42.6353 4.392 43.0086 4.6 43.3393 4.824L42.3633 6.616ZM45.1518 15V12.696H46.9118V15H45.1518ZM57.6933 15.08C56.8613 15.08 56.104 14.92 55.4213 14.6C54.7493 14.28 54.168 13.848 53.6773 13.304C53.1973 12.7493 52.824 12.1307 52.5573 11.448C52.2906 10.7547 52.1573 10.0453 52.1573 9.32C52.1573 8.56267 52.296 7.84267 52.5733 7.16C52.8613 6.46667 53.2506 5.85333 53.7413 5.32C54.2426 4.776 54.8293 4.34933 55.5013 4.04C56.184 3.72 56.9306 3.56 57.7413 3.56C58.5626 3.56 59.3093 3.72533 59.9813 4.056C60.664 4.38667 61.2453 4.82933 61.7253 5.384C62.2053 5.93867 62.5786 6.55733 62.8453 7.24C63.112 7.92267 63.2453 8.62667 63.2453 9.352C63.2453 10.0987 63.1066 10.8187 62.8293 11.512C62.552 12.1947 62.1626 12.808 61.6613 13.352C61.1706 13.8853 60.584 14.3067 59.9013 14.616C59.2293 14.9253 58.4933 15.08 57.6933 15.08ZM54.3973 9.32C54.3973 9.81067 54.472 10.2853 54.6213 10.744C54.7706 11.2027 54.984 11.6133 55.2613 11.976C55.5493 12.328 55.896 12.6107 56.3013 12.824C56.7173 13.0267 57.1866 13.128 57.7093 13.128C58.2426 13.128 58.7173 13.0213 59.1333 12.808C59.5493 12.584 59.896 12.2907 60.1733 11.928C60.4506 11.5547 60.6586 11.144 60.7973 10.696C60.9466 10.2373 61.0213 9.77867 61.0213 9.32C61.0213 8.82933 60.9413 8.36 60.7813 7.912C60.632 7.45333 60.4133 7.048 60.1253 6.696C59.848 6.33333 59.5013 6.05067 59.0853 5.848C58.68 5.63467 58.2213 5.528 57.7093 5.528C57.1653 5.528 56.6853 5.64 56.2693 5.864C55.864 6.07733 55.5226 6.36533 55.2453 6.728C54.968 7.09067 54.7546 7.496 54.6053 7.944C54.4666 8.392 54.3973 8.85067 54.3973 9.32ZM65.2431 15V8.696H64.1391V7.064H65.2431V6.856C65.2431 6.26933 65.3604 5.74133 65.5951 5.272C65.8297 4.80267 66.1604 4.42933 66.5871 4.152C67.0244 3.87467 67.5417 3.736 68.1391 3.736C68.5337 3.736 68.9124 3.78933 69.2751 3.896C69.6377 3.992 70.0111 4.12533 70.3951 4.296L69.9471 5.928C69.7124 5.8 69.4777 5.70933 69.2431 5.656C69.0084 5.592 68.7844 5.56 68.5711 5.56C68.3791 5.56 68.2084 5.592 68.0591 5.656C67.9097 5.72 67.7817 5.81067 67.6751 5.928C67.5791 6.03467 67.5044 6.16267 67.4511 6.312C67.4084 6.46133 67.3871 6.616 67.3871 6.776V7.064H69.4351V8.696H67.3871V15H65.2431ZM69.4351 8.696H68.3471V7.064H69.4351V6.552C69.4351 6.08267 69.5097 5.64533 69.6591 5.24C69.8191 4.83467 70.0431 4.47733 70.3311 4.168C70.6297 3.848 70.9924 3.60267 71.4191 3.432C71.8457 3.25067 72.3257 3.16 72.8591 3.16C73.2644 3.16 73.6431 3.20267 73.9951 3.288C74.3577 3.37333 74.6991 3.496 75.0191 3.656C75.3497 3.816 75.6644 3.99733 75.9631 4.2L75.0991 5.8C74.8324 5.55467 74.5124 5.35733 74.1391 5.208C73.7657 5.05867 73.3871 4.984 73.0031 4.984C72.6831 4.984 72.4164 5.05333 72.2031 5.192C72.0004 5.33067 71.8457 5.512 71.7391 5.736C71.6324 5.96 71.5791 6.20533 71.5791 6.472V7.064H76.0911V15H73.9471V8.696H71.5791V15H69.4351V8.696ZM81.9319 15.16C81.2493 15.16 80.6359 15.048 80.0919 14.824C79.5479 14.5893 79.0839 14.2693 78.6999 13.864C78.3159 13.448 78.0173 12.9787 77.8039 12.456C77.6013 11.9333 77.4999 11.384 77.4999 10.808C77.4999 10.0187 77.6759 9.29867 78.0279 8.648C78.3906 7.98667 78.9026 7.45867 79.5639 7.064C80.2253 6.66933 81.0093 6.472 81.9159 6.472C82.8226 6.472 83.6013 6.66933 84.2519 7.064C84.9026 7.45867 85.3879 7.976 85.7079 8.616L83.6119 9.256C83.4306 8.94667 83.1906 8.712 82.8919 8.552C82.5933 8.38133 82.2626 8.296 81.8999 8.296C81.4946 8.296 81.1213 8.40267 80.7799 8.616C80.4493 8.81867 80.1879 9.112 79.9959 9.496C79.8039 9.86933 79.7079 10.3067 79.7079 10.808C79.7079 11.2987 79.8039 11.736 79.9959 12.12C80.1986 12.4933 80.4653 12.792 80.7959 13.016C81.1266 13.2293 81.4946 13.336 81.8999 13.336C82.1559 13.336 82.3959 13.2933 82.6199 13.208C82.8546 13.1227 83.0626 13.0053 83.2439 12.856C83.4253 12.7067 83.5586 12.536 83.6439 12.344L85.7399 12.984C85.5479 13.4 85.2653 13.7733 84.8919 14.104C84.5293 14.4347 84.0973 14.696 83.5959 14.888C83.1053 15.0693 82.5506 15.16 81.9319 15.16ZM90.8691 15.16C90.1971 15.16 89.5891 15.048 89.0451 14.824C88.5011 14.5893 88.0371 14.2747 87.6531 13.88C87.2691 13.4747 86.9704 13.016 86.7571 12.504C86.5544 11.9813 86.4531 11.432 86.4531 10.856C86.4531 10.056 86.6291 9.32533 86.9811 8.664C87.3437 8.00267 87.8557 7.47467 88.5171 7.08C89.1891 6.67467 89.9784 6.472 90.8851 6.472C91.8024 6.472 92.5864 6.67467 93.2371 7.08C93.8877 7.47467 94.3837 8.00267 94.7251 8.664C95.0771 9.31467 95.2531 10.0187 95.2531 10.776C95.2531 10.904 95.2477 11.0373 95.2371 11.176C95.2264 11.304 95.2157 11.4107 95.2051 11.496H88.7251C88.7677 11.9227 88.8904 12.296 89.0931 12.616C89.3064 12.936 89.5731 13.1813 89.8931 13.352C90.2237 13.512 90.5757 13.592 90.9491 13.592C91.3757 13.592 91.7757 13.4907 92.1491 13.288C92.5331 13.0747 92.7944 12.7973 92.9331 12.456L94.7731 12.968C94.5704 13.3947 94.2771 13.7733 93.8931 14.104C93.5197 14.4347 93.0771 14.696 92.5651 14.888C92.0531 15.0693 91.4877 15.16 90.8691 15.16ZM88.6771 10.136H93.0611C93.0184 9.70933 92.8957 9.34133 92.6931 9.032C92.5011 8.712 92.2451 8.46667 91.9251 8.296C91.6051 8.11467 91.2477 8.024 90.8531 8.024C90.4691 8.024 90.1171 8.11467 89.7971 8.296C89.4877 8.46667 89.2317 8.712 89.0291 9.032C88.8371 9.34133 88.7197 9.70933 88.6771 10.136Z" fill="black"/>
<path d="M19.0051 17H95.5891V17.8H19.0051V17Z" fill="black"/>
<path d="M0.28 42L3.752 31.92H5.117L8.589 42H7.518L4.221 32.494H4.627L1.351 42H0.28ZM1.827 39.557V38.591H7.035V39.557H1.827ZM12.016 42.21C11.4467 42.21 10.9684 42.1073 10.581 41.902C10.1984 41.6967 9.91138 41.4237 9.72005 41.083C9.52871 40.7423 9.43305 40.3713 9.43305 39.97C9.43305 39.5593 9.51471 39.2093 9.67805 38.92C9.84605 38.626 10.0724 38.3857 10.357 38.199C10.6464 38.0123 10.98 37.87 11.358 37.772C11.7407 37.6787 12.163 37.597 12.625 37.527C13.0917 37.4523 13.5467 37.3893 13.99 37.338C14.438 37.282 14.83 37.2283 15.166 37.177L14.802 37.401C14.816 36.6543 14.6714 36.1013 14.368 35.742C14.0647 35.3827 13.5374 35.203 12.786 35.203C12.268 35.203 11.8294 35.3197 11.47 35.553C11.1154 35.7863 10.8657 36.155 10.721 36.659L9.72005 36.365C9.89271 35.6883 10.2404 35.1633 10.763 34.79C11.2857 34.4167 11.9647 34.23 12.8 34.23C13.4907 34.23 14.0764 34.3607 14.557 34.622C15.0424 34.8787 15.3854 35.252 15.586 35.742C15.6794 35.9613 15.74 36.2063 15.768 36.477C15.796 36.7477 15.81 37.023 15.81 37.303V42H14.893V40.103L15.159 40.215C14.9024 40.8637 14.5034 41.3583 13.962 41.699C13.4207 42.0397 12.772 42.21 12.016 42.21ZM12.135 41.321C12.6157 41.321 13.0357 41.2347 13.395 41.062C13.7544 40.8893 14.0437 40.6537 14.263 40.355C14.4824 40.0517 14.6247 39.711 14.69 39.333C14.746 39.0903 14.7764 38.8243 14.781 38.535C14.7857 38.241 14.788 38.0217 14.788 37.877L15.18 38.08C14.83 38.1267 14.4497 38.1733 14.039 38.22C13.633 38.2667 13.2317 38.3203 12.835 38.381C12.443 38.4417 12.0884 38.514 11.771 38.598C11.5564 38.6587 11.3487 38.745 11.148 38.857C10.9474 38.9643 10.7817 39.109 10.651 39.291C10.525 39.473 10.462 39.6993 10.462 39.97C10.462 40.1893 10.5157 40.4017 10.623 40.607C10.735 40.8123 10.9124 40.9827 11.155 41.118C11.4024 41.2533 11.729 41.321 12.135 41.321ZM20.5653 42.21C19.8607 42.21 19.2587 42.035 18.7593 41.685C18.26 41.3303 17.8773 40.852 17.6113 40.25C17.3453 39.648 17.2123 38.969 17.2123 38.213C17.2123 37.4617 17.343 36.785 17.6043 36.183C17.8703 35.581 18.2507 35.105 18.7453 34.755C19.24 34.405 19.8327 34.23 20.5233 34.23C21.2327 34.23 21.83 34.4027 22.3153 34.748C22.8007 35.0933 23.167 35.567 23.4143 36.169C23.6663 36.7663 23.7923 37.4477 23.7923 38.213C23.7923 38.9643 23.6687 39.6433 23.4213 40.25C23.174 40.852 22.81 41.3303 22.3293 41.685C21.8487 42.035 21.2607 42.21 20.5653 42.21ZM20.6703 41.251C21.207 41.251 21.6503 41.1203 22.0003 40.859C22.3503 40.5977 22.6117 40.2383 22.7843 39.781C22.957 39.319 23.0433 38.7963 23.0433 38.213C23.0433 37.6203 22.957 37.0977 22.7843 36.645C22.6117 36.1877 22.3503 35.8307 22.0003 35.574C21.655 35.3173 21.2187 35.189 20.6913 35.189C20.15 35.189 19.702 35.322 19.3473 35.588C18.9927 35.854 18.729 36.2157 18.5563 36.673C18.3883 37.1303 18.3043 37.6437 18.3043 38.213C18.3043 38.787 18.3907 39.305 18.5633 39.767C18.7407 40.2243 19.0043 40.586 19.3543 40.852C19.7043 41.118 20.143 41.251 20.6703 41.251ZM23.0433 42V36.309H22.9313V31.92H23.9673V42H23.0433ZM25.9312 42V34.44H26.8552V36.26L26.6732 36.022C26.7572 35.798 26.8668 35.5927 27.0022 35.406C27.1375 35.2147 27.2845 35.0583 27.4432 34.937C27.6392 34.7643 27.8678 34.6337 28.1292 34.545C28.3905 34.4517 28.6542 34.398 28.9202 34.384C29.1862 34.3653 29.4288 34.384 29.6482 34.44V35.406C29.3728 35.336 29.0718 35.3197 28.7452 35.357C28.4185 35.3943 28.1175 35.525 27.8422 35.749C27.5902 35.945 27.4012 36.1807 27.2752 36.456C27.1492 36.7267 27.0652 37.016 27.0232 37.324C26.9812 37.6273 26.9602 37.9283 26.9602 38.227V42H25.9312ZM31.1161 33.005V31.85H32.1451V33.005H31.1161ZM31.1161 42V34.44H32.1451V42H31.1161ZM34.3837 42V31.71H35.4127V42H34.3837ZM39.6743 42.21C39.1049 42.21 38.6266 42.1073 38.2393 41.902C37.8566 41.6967 37.5696 41.4237 37.3783 41.083C37.1869 40.7423 37.0913 40.3713 37.0913 39.97C37.0913 39.5593 37.1729 39.2093 37.3363 38.92C37.5043 38.626 37.7306 38.3857 38.0153 38.199C38.3046 38.0123 38.6383 37.87 39.0163 37.772C39.3989 37.6787 39.8213 37.597 40.2833 37.527C40.7499 37.4523 41.2049 37.3893 41.6483 37.338C42.0963 37.282 42.4883 37.2283 42.8243 37.177L42.4603 37.401C42.4743 36.6543 42.3296 36.1013 42.0263 35.742C41.7229 35.3827 41.1956 35.203 40.4443 35.203C39.9263 35.203 39.4876 35.3197 39.1283 35.553C38.7736 35.7863 38.5239 36.155 38.3792 36.659L37.3783 36.365C37.5509 35.6883 37.8986 35.1633 38.4213 34.79C38.9439 34.4167 39.6229 34.23 40.4583 34.23C41.1489 34.23 41.7346 34.3607 42.2153 34.622C42.7006 34.8787 43.0436 35.252 43.2443 35.742C43.3376 35.9613 43.3983 36.2063 43.4263 36.477C43.4543 36.7477 43.4683 37.023 43.4683 37.303V42H42.5513V40.103L42.8173 40.215C42.5606 40.8637 42.1616 41.3583 41.6203 41.699C41.0789 42.0397 40.4303 42.21 39.6743 42.21ZM39.7933 41.321C40.2739 41.321 40.6939 41.2347 41.0533 41.062C41.4126 40.8893 41.7019 40.6537 41.9213 40.355C42.1406 40.0517 42.2829 39.711 42.3483 39.333C42.4043 39.0903 42.4346 38.8243 42.4393 38.535C42.4439 38.241 42.4463 38.0217 42.4463 37.877L42.8383 38.08C42.4883 38.1267 42.1079 38.1733 41.6973 38.22C41.2913 38.2667 40.8899 38.3203 40.4933 38.381C40.1013 38.4417 39.7466 38.514 39.4293 38.598C39.2146 38.6587 39.0069 38.745 38.8063 38.857C38.6056 38.9643 38.4399 39.109 38.3093 39.291C38.1833 39.473 38.1203 39.6993 38.1203 39.97C38.1203 40.1893 38.1739 40.4017 38.2812 40.607C38.3933 40.8123 38.5706 40.9827 38.8133 41.118C39.0606 41.2533 39.3873 41.321 39.7933 41.321ZM50.7743 42V32.907H47.2533V31.92H55.3243V32.907H51.8033V42H50.7743ZM58.5247 42.21C57.7874 42.21 57.148 42.0467 56.6067 41.72C56.07 41.3933 55.6524 40.9337 55.3537 40.341C55.055 39.7483 54.9057 39.053 54.9057 38.255C54.9057 37.429 55.0527 36.715 55.3467 36.113C55.6407 35.511 56.0537 35.0467 56.5857 34.72C57.1224 34.3933 57.7547 34.23 58.4827 34.23C59.2294 34.23 59.8664 34.4027 60.3937 34.748C60.921 35.0887 61.32 35.5787 61.5907 36.218C61.8614 36.8573 61.985 37.6203 61.9617 38.507H60.9117V38.143C60.893 37.163 60.6807 36.4233 60.2747 35.924C59.8734 35.4247 59.2854 35.175 58.5107 35.175C57.6987 35.175 57.0757 35.4387 56.6417 35.966C56.2124 36.4933 55.9977 37.2447 55.9977 38.22C55.9977 39.172 56.2124 39.9117 56.6417 40.439C57.0757 40.9617 57.6894 41.223 58.4827 41.223C59.024 41.223 59.4954 41.0993 59.8967 40.852C60.3027 40.6 60.6224 40.2383 60.8557 39.767L61.8147 40.138C61.516 40.796 61.075 41.307 60.4917 41.671C59.913 42.0303 59.2574 42.21 58.5247 42.21ZM55.6337 38.507V37.646H61.4087V38.507H55.6337ZM66.6512 42.21C65.8905 42.21 65.2465 42.0397 64.7192 41.699C64.1918 41.3583 63.7905 40.8893 63.5152 40.292C63.2445 39.69 63.1045 38.9993 63.0952 38.22C63.1045 37.4267 63.2492 36.7313 63.5292 36.134C63.8092 35.532 64.2128 35.0653 64.7402 34.734C65.2675 34.398 65.9068 34.23 66.6582 34.23C67.4235 34.23 68.0885 34.4167 68.6532 34.79C69.2225 35.1633 69.6122 35.6743 69.8222 36.323L68.8142 36.645C68.6368 36.1923 68.3545 35.8423 67.9672 35.595C67.5845 35.343 67.1458 35.217 66.6512 35.217C66.0958 35.217 65.6362 35.3453 65.2722 35.602C64.9082 35.854 64.6375 36.2063 64.4602 36.659C64.2828 37.1117 64.1918 37.632 64.1872 38.22C64.1965 39.1253 64.4065 39.8533 64.8172 40.404C65.2278 40.95 65.8392 41.223 66.6512 41.223C67.1645 41.223 67.6008 41.1063 67.9602 40.873C68.3242 40.635 68.5995 40.2897 68.7862 39.837L69.8222 40.145C69.5422 40.817 69.1315 41.3303 68.5902 41.685C68.0488 42.035 67.4025 42.21 66.6512 42.21ZM76.7271 42V38.143C76.7271 37.723 76.6874 37.338 76.6081 36.988C76.5288 36.6333 76.4004 36.3253 76.2231 36.064C76.0504 35.798 75.8241 35.5927 75.5441 35.448C75.2688 35.3033 74.9328 35.231 74.5361 35.231C74.1721 35.231 73.8501 35.294 73.5701 35.42C73.2948 35.546 73.0614 35.728 72.8701 35.966C72.6834 36.1993 72.5411 36.484 72.4431 36.82C72.3451 37.156 72.2961 37.5387 72.2961 37.968L71.5681 37.807C71.5681 37.0323 71.7034 36.3813 71.9741 35.854C72.2448 35.3267 72.6181 34.9277 73.0941 34.657C73.5701 34.3863 74.1161 34.251 74.7321 34.251C75.1848 34.251 75.5791 34.321 75.9151 34.461C76.2558 34.601 76.5428 34.79 76.7761 35.028C77.0141 35.266 77.2054 35.539 77.3501 35.847C77.4948 36.1503 77.5998 36.4747 77.6651 36.82C77.7304 37.1607 77.7631 37.5013 77.7631 37.842V42H76.7271ZM71.2601 42V31.92H72.1911V37.611H72.2961V42H71.2601ZM85.0396 42V38.143C85.0396 37.723 84.9999 37.338 84.9206 36.988C84.8413 36.6333 84.7129 36.3253 84.5356 36.064C84.3629 35.798 84.1366 35.5927 83.8566 35.448C83.5813 35.3033 83.2453 35.231 82.8486 35.231C82.4846 35.231 82.1626 35.294 81.8826 35.42C81.6073 35.546 81.3739 35.728 81.1826 35.966C80.9959 36.1993 80.8536 36.484 80.7556 36.82C80.6576 37.156 80.6086 37.5387 80.6086 37.968L79.8806 37.807C79.8806 37.0323 80.0159 36.3813 80.2866 35.854C80.5573 35.3267 80.9306 34.9277 81.4066 34.657C81.8826 34.3863 82.4286 34.251 83.0446 34.251C83.4973 34.251 83.8916 34.321 84.2276 34.461C84.5683 34.601 84.8553 34.79 85.0886 35.028C85.3266 35.266 85.5179 35.539 85.6626 35.847C85.8073 36.1503 85.9123 36.4747 85.9776 36.82C86.0429 37.1607 86.0756 37.5013 86.0756 37.842V42H85.0396ZM79.5726 42V34.44H80.5036V36.302H80.6086V42H79.5726ZM91.0081 42.21C90.2568 42.21 89.6151 42.0397 89.0831 41.699C88.5511 41.3583 88.1428 40.887 87.8581 40.285C87.5734 39.683 87.4311 38.9923 87.4311 38.213C87.4311 37.4197 87.5758 36.7243 87.8651 36.127C88.1544 35.5297 88.5651 35.0653 89.0971 34.734C89.6338 34.398 90.2708 34.23 91.0081 34.23C91.7641 34.23 92.4081 34.4003 92.9401 34.741C93.4768 35.077 93.8851 35.546 94.1651 36.148C94.4498 36.7453 94.5921 37.4337 94.5921 38.213C94.5921 39.0063 94.4498 39.704 94.1651 40.306C93.8804 40.9033 93.4698 41.37 92.9331 41.706C92.3964 42.042 91.7548 42.21 91.0081 42.21ZM91.0081 41.223C91.8481 41.223 92.4734 40.9453 92.8841 40.39C93.2948 39.83 93.5001 39.1043 93.5001 38.213C93.5001 37.2983 93.2924 36.5703 92.8771 36.029C92.4664 35.4877 91.8434 35.217 91.0081 35.217C90.4434 35.217 89.9768 35.3453 89.6081 35.602C89.2441 35.854 88.9711 36.2063 88.7891 36.659C88.6118 37.107 88.5231 37.625 88.5231 38.213C88.5231 39.123 88.7331 39.8533 89.1531 40.404C89.5731 40.95 90.1914 41.223 91.0081 41.223ZM96.2763 42V31.71H97.3053V42H96.2763ZM102.561 42.21C101.809 42.21 101.168 42.0397 100.636 41.699C100.104 41.3583 99.6955 40.887 99.4108 40.285C99.1262 39.683 98.9838 38.9923 98.9838 38.213C98.9838 37.4197 99.1285 36.7243 99.4178 36.127C99.7072 35.5297 100.118 35.0653 100.65 34.734C101.186 34.398 101.823 34.23 102.561 34.23C103.317 34.23 103.961 34.4003 104.493 34.741C105.029 35.077 105.438 35.546 105.718 36.148C106.002 36.7453 106.145 37.4337 106.145 38.213C106.145 39.0063 106.002 39.704 105.718 40.306C105.433 40.9033 105.022 41.37 104.486 41.706C103.949 42.042 103.307 42.21 102.561 42.21ZM102.561 41.223C103.401 41.223 104.026 40.9453 104.437 40.39C104.847 39.83 105.053 39.1043 105.053 38.213C105.053 37.2983 104.845 36.5703 104.43 36.029C104.019 35.4877 103.396 35.217 102.561 35.217C101.996 35.217 101.529 35.3453 101.161 35.602C100.797 35.854 100.524 36.2063 100.342 36.659C100.164 37.107 100.076 37.625 100.076 38.213C100.076 39.123 100.286 39.8533 100.706 40.404C101.126 40.95 101.744 41.223 102.561 41.223ZM110.692 45.57C110.305 45.57 109.922 45.5117 109.544 45.395C109.171 45.283 108.825 45.1033 108.508 44.856C108.191 44.6133 107.925 44.296 107.71 43.904L108.641 43.386C108.851 43.806 109.145 44.107 109.523 44.289C109.906 44.4757 110.295 44.569 110.692 44.569C111.238 44.569 111.679 44.4663 112.015 44.261C112.356 44.0603 112.603 43.7617 112.757 43.365C112.911 42.9683 112.986 42.4737 112.981 41.881V39.865H113.1V34.44H114.017V41.895C114.017 42.1097 114.01 42.315 113.996 42.511C113.987 42.7117 113.966 42.9077 113.933 43.099C113.844 43.6637 113.66 44.128 113.38 44.492C113.105 44.856 112.741 45.1267 112.288 45.304C111.84 45.4813 111.308 45.57 110.692 45.57ZM110.622 42.21C109.917 42.21 109.315 42.035 108.816 41.685C108.317 41.3303 107.934 40.852 107.668 40.25C107.402 39.648 107.269 38.969 107.269 38.213C107.269 37.4617 107.4 36.785 107.661 36.183C107.927 35.581 108.307 35.105 108.802 34.755C109.297 34.405 109.889 34.23 110.58 34.23C111.289 34.23 111.887 34.4027 112.372 34.748C112.857 35.0933 113.224 35.567 113.471 36.169C113.723 36.7663 113.849 37.4477 113.849 38.213C113.849 38.9643 113.725 39.6433 113.478 40.25C113.231 40.852 112.867 41.3303 112.386 41.685C111.905 42.035 111.317 42.21 110.622 42.21ZM110.727 41.251C111.264 41.251 111.707 41.1203 112.057 40.859C112.407 40.5977 112.668 40.2383 112.841 39.781C113.014 39.319 113.1 38.7963 113.1 38.213C113.1 37.6203 113.014 37.0977 112.841 36.645C112.668 36.1877 112.407 35.8307 112.057 35.574C111.712 35.3173 111.275 35.189 110.748 35.189C110.207 35.189 109.759 35.322 109.404 35.588C109.049 35.854 108.786 36.2157 108.613 36.673C108.445 37.1303 108.361 37.6437 108.361 38.213C108.361 38.787 108.447 39.305 108.62 39.767C108.797 40.2243 109.061 40.586 109.411 40.852C109.761 41.118 110.2 41.251 110.727 41.251ZM116.114 33.005V31.85H117.143V33.005H116.114ZM116.114 42V34.44H117.143V42H116.114ZM122.441 42.21C121.703 42.21 121.064 42.0467 120.523 41.72C119.986 41.3933 119.568 40.9337 119.27 40.341C118.971 39.7483 118.822 39.053 118.822 38.255C118.822 37.429 118.969 36.715 119.263 36.113C119.557 35.511 119.97 35.0467 120.502 34.72C121.038 34.3933 121.671 34.23 122.399 34.23C123.145 34.23 123.782 34.4027 124.31 34.748C124.837 35.0887 125.236 35.5787 125.507 36.218C125.777 36.8573 125.901 37.6203 125.878 38.507H124.828V38.143C124.809 37.163 124.597 36.4233 124.191 35.924C123.789 35.4247 123.201 35.175 122.427 35.175C121.615 35.175 120.992 35.4387 120.558 35.966C120.128 36.4933 119.914 37.2447 119.914 38.22C119.914 39.172 120.128 39.9117 120.558 40.439C120.992 40.9617 121.605 41.223 122.399 41.223C122.94 41.223 123.411 41.0993 123.813 40.852C124.219 40.6 124.538 40.2383 124.772 39.767L125.731 40.138C125.432 40.796 124.991 41.307 124.408 41.671C123.829 42.0303 123.173 42.21 122.441 42.21ZM119.55 38.507V37.646H125.325V38.507H119.55ZM130.252 42.203C129.366 42.203 128.635 42.0117 128.061 41.629C127.492 41.2463 127.142 40.7143 127.011 40.033L128.061 39.858C128.173 40.2873 128.428 40.6303 128.824 40.887C129.226 41.139 129.72 41.265 130.308 41.265C130.882 41.265 131.335 41.146 131.666 40.908C131.998 40.6653 132.163 40.3363 132.163 39.921C132.163 39.6877 132.11 39.4987 132.002 39.354C131.9 39.2047 131.687 39.067 131.365 38.941C131.043 38.815 130.563 38.6657 129.923 38.493C129.237 38.3063 128.701 38.1197 128.313 37.933C127.926 37.7463 127.651 37.5317 127.487 37.289C127.324 37.0417 127.242 36.7407 127.242 36.386C127.242 35.9567 127.364 35.581 127.606 35.259C127.849 34.9323 128.185 34.6803 128.614 34.503C129.044 34.321 129.543 34.23 130.112 34.23C130.682 34.23 131.19 34.3233 131.638 34.51C132.091 34.692 132.455 34.9487 132.73 35.28C133.006 35.6113 133.169 35.9963 133.22 36.435L132.17 36.624C132.1 36.1807 131.879 35.8307 131.505 35.574C131.137 35.3127 130.668 35.1773 130.098 35.168C129.562 35.154 129.125 35.2567 128.789 35.476C128.453 35.6907 128.285 35.9777 128.285 36.337C128.285 36.5377 128.346 36.7103 128.467 36.855C128.589 36.995 128.808 37.128 129.125 37.254C129.447 37.38 129.905 37.5177 130.497 37.667C131.193 37.8443 131.739 38.031 132.135 38.227C132.532 38.423 132.814 38.654 132.982 38.92C133.15 39.186 133.234 39.515 133.234 39.907C133.234 40.621 132.968 41.1833 132.436 41.594C131.909 42 131.181 42.203 130.252 42.203ZM137.729 42V31.92H138.758V42H137.729ZM140.857 42V31.92H141.893L147.444 40.18V31.92H148.48V42H147.444L141.893 33.733V42H140.857ZM154.522 42.21C153.519 42.21 152.672 41.9883 151.981 41.545C151.29 41.097 150.768 40.4787 150.413 39.69C150.058 38.9013 149.881 37.9913 149.881 36.96C149.881 35.9287 150.058 35.0187 150.413 34.23C150.768 33.4413 151.29 32.8253 151.981 32.382C152.672 31.934 153.519 31.71 154.522 31.71C155.693 31.71 156.65 32.011 157.392 32.613C158.134 33.2103 158.643 34.013 158.918 35.021L157.868 35.294C157.653 34.496 157.268 33.8637 156.713 33.397C156.158 32.9303 155.427 32.697 154.522 32.697C153.733 32.697 153.078 32.8767 152.555 33.236C152.032 33.5953 151.638 34.097 151.372 34.741C151.111 35.3803 150.975 36.12 150.966 36.96C150.961 37.8 151.09 38.5397 151.351 39.179C151.617 39.8183 152.014 40.32 152.541 40.684C153.073 41.0433 153.733 41.223 154.522 41.223C155.427 41.223 156.158 40.9897 156.713 40.523C157.268 40.0517 157.653 39.4193 157.868 38.626L158.918 38.899C158.643 39.907 158.134 40.712 157.392 41.314C156.65 41.9113 155.693 42.21 154.522 42.21ZM159.625 43.463L159.688 42.952C159.875 42.966 160.01 42.9287 160.094 42.84C160.178 42.7513 160.229 42.6323 160.248 42.483C160.267 42.3337 160.271 42.1727 160.262 42H159.625V40.523H160.822V42.28C160.822 42.7093 160.712 43.0313 160.493 43.246C160.278 43.4607 159.989 43.533 159.625 43.463ZM4.053 61.21C3.423 61.21 2.86533 61.084 2.38 60.832C1.89933 60.58 1.52133 60.2277 1.246 59.775C0.975333 59.3177 0.84 58.7833 0.84 58.172C0.84 57.5467 0.991667 56.9913 1.295 56.506C1.59833 56.016 2.06033 55.645 2.681 55.393L2.667 55.799C2.149 55.6077 1.75467 55.295 1.484 54.861C1.21333 54.427 1.078 53.9463 1.078 53.419C1.078 52.859 1.20633 52.3783 1.463 51.977C1.71967 51.571 2.06967 51.2583 2.513 51.039C2.961 50.8197 3.47433 50.71 4.053 50.71C4.63167 50.71 5.145 50.8197 5.593 51.039C6.041 51.2583 6.39333 51.571 6.65 51.977C6.90667 52.3783 7.035 52.859 7.035 53.419C7.035 53.9463 6.90433 54.4247 6.643 54.854C6.38633 55.2833 5.992 55.5983 5.46 55.799L5.425 55.393C6.04567 55.6403 6.51 56.009 6.818 56.499C7.13067 56.989 7.287 57.5467 7.287 58.172C7.287 58.7833 7.14933 59.3177 6.874 59.775C6.59867 60.2277 6.21833 60.58 5.733 60.832C5.24767 61.084 4.68767 61.21 4.053 61.21ZM4.053 60.223C4.68767 60.223 5.20333 60.048 5.6 59.698C5.99667 59.3433 6.195 58.8347 6.195 58.172C6.195 57.5 5.999 56.9913 5.607 56.646C5.215 56.296 4.697 56.121 4.053 56.121C3.409 56.121 2.89333 56.296 2.506 56.646C2.11867 56.9913 1.925 57.5 1.925 58.172C1.925 58.8347 2.121 59.3433 2.513 59.698C2.905 60.048 3.41833 60.223 4.053 60.223ZM4.053 55.127C4.613 55.127 5.068 54.9847 5.418 54.7C5.768 54.4107 5.943 53.9837 5.943 53.419C5.943 52.8543 5.768 52.432 5.418 52.152C5.068 51.8673 4.613 51.725 4.053 51.725C3.493 51.725 3.038 51.8673 2.688 52.152C2.34267 52.432 2.17 52.8543 2.17 53.419C2.17 53.9837 2.34267 54.4107 2.688 54.7C3.038 54.9847 3.493 55.127 4.053 55.127ZM14.5848 61V51.907H11.0638V50.92H19.1348V51.907H15.6138V61H14.5848ZM25.7173 61V57.143C25.7173 56.723 25.6777 56.338 25.5983 55.988C25.519 55.6333 25.3907 55.3253 25.2133 55.064C25.0407 54.798 24.8143 54.5927 24.5343 54.448C24.259 54.3033 23.923 54.231 23.5263 54.231C23.1623 54.231 22.8403 54.294 22.5603 54.42C22.285 54.546 22.0517 54.728 21.8603 54.966C21.6737 55.1993 21.5313 55.484 21.4333 55.82C21.3353 56.156 21.2863 56.5387 21.2863 56.968L20.5583 56.807C20.5583 56.0323 20.6937 55.3813 20.9643 54.854C21.235 54.3267 21.6083 53.9277 22.0843 53.657C22.5603 53.3863 23.1063 53.251 23.7223 53.251C24.175 53.251 24.5693 53.321 24.9053 53.461C25.246 53.601 25.533 53.79 25.7663 54.028C26.0043 54.266 26.1957 54.539 26.3403 54.847C26.485 55.1503 26.59 55.4747 26.6553 55.82C26.7207 56.1607 26.7533 56.5013 26.7533 56.842V61H25.7173ZM20.2503 61V50.92H21.1813V56.611H21.2863V61H20.2503ZM31.7688 61.21C31.0315 61.21 30.3922 61.0467 29.8508 60.72C29.3142 60.3933 28.8965 59.9337 28.5978 59.341C28.2992 58.7483 28.1498 58.053 28.1498 57.255C28.1498 56.429 28.2968 55.715 28.5908 55.113C28.8848 54.511 29.2978 54.0467 29.8298 53.72C30.3665 53.3933 30.9988 53.23 31.7268 53.23C32.4735 53.23 33.1105 53.4027 33.6378 53.748C34.1652 54.0887 34.5642 54.5787 34.8348 55.218C35.1055 55.8573 35.2292 56.6203 35.2058 57.507H34.1558V57.143C34.1372 56.163 33.9248 55.4233 33.5188 54.924C33.1175 54.4247 32.5295 54.175 31.7548 54.175C30.9428 54.175 30.3198 54.4387 29.8858 54.966C29.4565 55.4933 29.2418 56.2447 29.2418 57.22C29.2418 58.172 29.4565 58.9117 29.8858 59.439C30.3198 59.9617 30.9335 60.223 31.7268 60.223C32.2682 60.223 32.7395 60.0993 33.1408 59.852C33.5468 59.6 33.8665 59.2383 34.0998 58.767L35.0588 59.138C34.7602 59.796 34.3192 60.307 33.7358 60.671C33.1572 61.0303 32.5015 61.21 31.7688 61.21ZM28.8778 57.507V56.646H34.6528V57.507H28.8778ZM43.601 61.21C42.8917 61.21 42.2524 61.0863 41.683 60.839C41.1137 60.5917 40.6284 60.2393 40.227 59.782C39.8304 59.3247 39.527 58.774 39.317 58.13C39.107 57.4813 39.002 56.758 39.002 55.96C39.002 54.9053 39.184 53.986 39.548 53.202C39.9167 52.4133 40.444 51.802 41.13 51.368C41.816 50.934 42.6397 50.717 43.601 50.717C44.6744 50.717 45.547 50.969 46.219 51.473C46.8957 51.9723 47.367 52.6443 47.633 53.489L46.597 53.741C46.3777 53.125 46.016 52.6327 45.512 52.264C45.0127 51.8953 44.3897 51.711 43.643 51.711C42.8544 51.7063 42.1987 51.8837 41.676 52.243C41.1534 52.5977 40.759 53.097 40.493 53.741C40.2317 54.3803 40.0987 55.12 40.094 55.96C40.0894 56.8 40.2177 57.5397 40.479 58.179C40.745 58.8137 41.1417 59.313 41.669 59.677C42.1964 60.0363 42.8544 60.2183 43.643 60.223C44.3664 60.223 44.9637 60.083 45.435 59.803C45.9064 59.523 46.2634 59.1217 46.506 58.599C46.7534 58.0763 46.8934 57.458 46.926 56.744H44.602V55.862H48.004C48.018 55.9693 48.025 56.0837 48.025 56.205C48.0297 56.3217 48.032 56.4057 48.032 56.457C48.032 57.367 47.8687 58.1813 47.542 58.9C47.2154 59.614 46.723 60.1787 46.065 60.594C45.4117 61.0047 44.5904 61.21 43.601 61.21ZM49.4331 61V53.44H50.3571V55.26L50.1751 55.022C50.2591 54.798 50.3688 54.5927 50.5041 54.406C50.6395 54.2147 50.7865 54.0583 50.9451 53.937C51.1411 53.7643 51.3698 53.6337 51.6311 53.545C51.8925 53.4517 52.1561 53.398 52.4221 53.384C52.6881 53.3653 52.9308 53.384 53.1501 53.44V54.406C52.8748 54.336 52.5738 54.3197 52.2471 54.357C51.9205 54.3943 51.6195 54.525 51.3441 54.749C51.0921 54.945 50.9031 55.1807 50.7771 55.456C50.6511 55.7267 50.5671 56.016 50.5251 56.324C50.4831 56.6273 50.4621 56.9283 50.4621 57.227V61H49.4331ZM57.5403 61.21C56.803 61.21 56.1637 61.0467 55.6223 60.72C55.0857 60.3933 54.668 59.9337 54.3693 59.341C54.0707 58.7483 53.9213 58.053 53.9213 57.255C53.9213 56.429 54.0683 55.715 54.3623 55.113C54.6563 54.511 55.0693 54.0467 55.6013 53.72C56.138 53.3933 56.7703 53.23 57.4983 53.23C58.245 53.23 58.882 53.4027 59.4093 53.748C59.9367 54.0887 60.3357 54.5787 60.6063 55.218C60.877 55.8573 61.0007 56.6203 60.9773 57.507H59.9273V57.143C59.9087 56.163 59.6963 55.4233 59.2903 54.924C58.889 54.4247 58.301 54.175 57.5263 54.175C56.7143 54.175 56.0913 54.4387 55.6573 54.966C55.228 55.4933 55.0133 56.2447 55.0133 57.22C55.0133 58.172 55.228 58.9117 55.6573 59.439C56.0913 59.9617 56.705 60.223 57.4983 60.223C58.0397 60.223 58.511 60.0993 58.9123 59.852C59.3183 59.6 59.638 59.2383 59.8713 58.767L60.8303 59.138C60.5317 59.796 60.0907 60.307 59.5073 60.671C58.9287 61.0303 58.273 61.21 57.5403 61.21ZM54.6493 57.507V56.646H60.4243V57.507H54.6493ZM65.7298 61.21C64.9924 61.21 64.3531 61.0467 63.8118 60.72C63.2751 60.3933 62.8574 59.9337 62.5588 59.341C62.2601 58.7483 62.1108 58.053 62.1108 57.255C62.1108 56.429 62.2578 55.715 62.5518 55.113C62.8458 54.511 63.2588 54.0467 63.7908 53.72C64.3274 53.3933 64.9598 53.23 65.6878 53.23C66.4344 53.23 67.0714 53.4027 67.5988 53.748C68.1261 54.0887 68.5251 54.5787 68.7958 55.218C69.0664 55.8573 69.1901 56.6203 69.1668 57.507H68.1168V57.143C68.0981 56.163 67.8858 55.4233 67.4798 54.924C67.0784 54.4247 66.4904 54.175 65.7158 54.175C64.9038 54.175 64.2808 54.4387 63.8468 54.966C63.4174 55.4933 63.2028 56.2447 63.2028 57.22C63.2028 58.172 63.4174 58.9117 63.8468 59.439C64.2808 59.9617 64.8944 60.223 65.6878 60.223C66.2291 60.223 66.7004 60.0993 67.1018 59.852C67.5078 59.6 67.8274 59.2383 68.0608 58.767L69.0198 59.138C68.7211 59.796 68.2801 60.307 67.6968 60.671C67.1181 61.0303 66.4624 61.21 65.7298 61.21ZM62.8388 57.507V56.646H68.6138V57.507H62.8388ZM75.9752 61V57.143C75.9752 56.723 75.9355 56.338 75.8562 55.988C75.7768 55.6333 75.6485 55.3253 75.4712 55.064C75.2985 54.798 75.0722 54.5927 74.7922 54.448C74.5168 54.3033 74.1808 54.231 73.7842 54.231C73.4202 54.231 73.0982 54.294 72.8182 54.42C72.5428 54.546 72.3095 54.728 72.1182 54.966C71.9315 55.1993 71.7892 55.484 71.6912 55.82C71.5932 56.156 71.5442 56.5387 71.5442 56.968L70.8162 56.807C70.8162 56.0323 70.9515 55.3813 71.2222 54.854C71.4928 54.3267 71.8662 53.9277 72.3422 53.657C72.8182 53.3863 73.3642 53.251 73.9802 53.251C74.4328 53.251 74.8272 53.321 75.1632 53.461C75.5038 53.601 75.7908 53.79 76.0242 54.028C76.2622 54.266 76.4535 54.539 76.5982 54.847C76.7428 55.1503 76.8478 55.4747 76.9132 55.82C76.9785 56.1607 77.0112 56.5013 77.0112 56.842V61H75.9752ZM70.5082 61V53.44H71.4392V55.302H71.5442V61H70.5082ZM78.6877 62.463L78.7507 61.952C78.9373 61.966 79.0727 61.9287 79.1567 61.84C79.2407 61.7513 79.292 61.6323 79.3107 61.483C79.3293 61.3337 79.334 61.1727 79.3247 61H78.6877V59.523H79.8847V61.28C79.8847 61.7093 79.775 62.0313 79.5557 62.246C79.341 62.4607 79.0517 62.533 78.6877 62.463ZM88.8491 61.21C88.1445 61.21 87.5098 61.0933 86.9451 60.86C86.3851 60.622 85.9208 60.286 85.5521 59.852C85.1881 59.418 84.9501 58.9023 84.8381 58.305L85.8881 58.13C86.0561 58.7833 86.4108 59.2967 86.9521 59.67C87.4935 60.0387 88.1398 60.223 88.8911 60.223C89.3858 60.223 89.8291 60.146 90.2211 59.992C90.6131 59.8333 90.9211 59.6093 91.1451 59.32C91.3691 59.0307 91.4811 58.6877 91.4811 58.291C91.4811 58.0297 91.4345 57.808 91.3411 57.626C91.2478 57.4393 91.1241 57.2853 90.9701 57.164C90.8161 57.0427 90.6481 56.9423 90.4661 56.863C90.2841 56.779 90.1068 56.7113 89.9341 56.66L87.3791 55.897C87.0711 55.8083 86.7865 55.6963 86.5251 55.561C86.2638 55.421 86.0351 55.2553 85.8391 55.064C85.6478 54.868 85.4985 54.6393 85.3911 54.378C85.2838 54.1167 85.2301 53.818 85.2301 53.482C85.2301 52.9127 85.3795 52.4203 85.6781 52.005C85.9768 51.5897 86.3851 51.27 86.9031 51.046C87.4211 50.822 88.0115 50.7123 88.6741 50.717C89.3461 50.717 89.9458 50.836 90.4731 51.074C91.0051 51.312 91.4438 51.6527 91.7891 52.096C92.1345 52.5347 92.3631 53.055 92.4751 53.657L91.3971 53.853C91.3271 53.4143 91.1661 53.034 90.9141 52.712C90.6621 52.39 90.3401 52.1427 89.9481 51.97C89.5608 51.7927 89.1338 51.7017 88.6671 51.697C88.2145 51.697 87.8108 51.774 87.4561 51.928C87.1061 52.0773 86.8285 52.2827 86.6231 52.544C86.4178 52.8053 86.3151 53.104 86.3151 53.44C86.3151 53.7807 86.4085 54.0537 86.5951 54.259C86.7865 54.4643 87.0198 54.6253 87.2951 54.742C87.5751 54.8587 87.8458 54.9543 88.1071 55.029L90.0811 55.61C90.2865 55.666 90.5268 55.7477 90.8021 55.855C91.0821 55.9577 91.3528 56.107 91.6141 56.303C91.8801 56.4943 92.0995 56.7463 92.2721 57.059C92.4448 57.3717 92.5311 57.7683 92.5311 58.249C92.5311 58.7157 92.4378 59.1333 92.2511 59.502C92.0691 59.8707 91.8101 60.181 91.4741 60.433C91.1428 60.685 90.7531 60.8763 90.3051 61.007C89.8618 61.1423 89.3765 61.21 88.8491 61.21ZM98.0921 61C97.6674 61.0887 97.2474 61.1237 96.8321 61.105C96.4214 61.0863 96.0528 60.9977 95.7261 60.839C95.4041 60.6803 95.1591 60.433 94.9911 60.097C94.8558 59.817 94.7811 59.5347 94.7671 59.25C94.7578 58.9607 94.7531 58.6317 94.7531 58.263V51.34H95.7751V58.221C95.7751 58.5383 95.7774 58.8043 95.7821 59.019C95.7914 59.229 95.8404 59.4157 95.9291 59.579C96.0971 59.8917 96.3631 60.0783 96.7271 60.139C97.0958 60.1997 97.5508 60.1857 98.0921 60.097V61ZM93.1361 54.322V53.44H98.0921V54.322H93.1361ZM102.507 61.21C101.77 61.21 101.13 61.0467 100.589 60.72C100.052 60.3933 99.6348 59.9337 99.3361 59.341C99.0375 58.7483 98.8881 58.053 98.8881 57.255C98.8881 56.429 99.0351 55.715 99.3291 55.113C99.6231 54.511 100.036 54.0467 100.568 53.72C101.105 53.3933 101.737 53.23 102.465 53.23C103.212 53.23 103.849 53.4027 104.376 53.748C104.903 54.0887 105.302 54.5787 105.573 55.218C105.844 55.8573 105.967 56.6203 105.944 57.507H104.894V57.143C104.875 56.163 104.663 55.4233 104.257 54.924C103.856 54.4247 103.268 54.175 102.493 54.175C101.681 54.175 101.058 54.4387 100.624 54.966C100.195 55.4933 99.9801 56.2447 99.9801 57.22C99.9801 58.172 100.195 58.9117 100.624 59.439C101.058 59.9617 101.672 60.223 102.465 60.223C103.006 60.223 103.478 60.0993 103.879 59.852C104.285 59.6 104.605 59.2383 104.838 58.767L105.797 59.138C105.498 59.796 105.057 60.307 104.474 60.671C103.895 61.0303 103.24 61.21 102.507 61.21ZM99.6161 57.507V56.646H105.391V57.507H99.6161ZM110.3 61V50.92H114.192C114.29 50.92 114.4 50.9247 114.521 50.934C114.647 50.9387 114.773 50.9527 114.899 50.976C115.427 51.0553 115.872 51.2397 116.236 51.529C116.605 51.8137 116.883 52.173 117.069 52.607C117.261 53.041 117.356 53.5217 117.356 54.049C117.356 54.8097 117.156 55.47 116.754 56.03C116.353 56.59 115.779 56.9423 115.032 57.087L114.675 57.171H111.329V61H110.3ZM116.404 61L114.416 56.898L115.403 56.52L117.587 61H116.404ZM111.329 56.191H114.164C114.248 56.191 114.346 56.1863 114.458 56.177C114.57 56.1677 114.68 56.1513 114.787 56.128C115.133 56.0533 115.415 55.911 115.634 55.701C115.858 55.491 116.024 55.2413 116.131 54.952C116.243 54.6627 116.299 54.3617 116.299 54.049C116.299 53.7363 116.243 53.4353 116.131 53.146C116.024 52.852 115.858 52.6 115.634 52.39C115.415 52.18 115.133 52.0377 114.787 51.963C114.68 51.9397 114.57 51.9257 114.458 51.921C114.346 51.9117 114.248 51.907 114.164 51.907H111.329V56.191ZM118.992 62.463L119.055 61.952C119.242 61.966 119.377 61.9287 119.461 61.84C119.545 61.7513 119.597 61.6323 119.615 61.483C119.634 61.3337 119.639 61.1727 119.629 61H118.992V59.523H120.189V61.28C120.189 61.7093 120.08 62.0313 119.86 62.246C119.646 62.4607 119.356 62.533 118.992 62.463ZM125.794 52.005V50.85H126.823V52.005H125.794ZM125.794 61V53.44H126.823V61H125.794ZM134.381 61V57.143C134.381 56.723 134.342 56.338 134.262 55.988C134.183 55.6333 134.055 55.3253 133.877 55.064C133.705 54.798 133.478 54.5927 133.198 54.448C132.923 54.3033 132.587 54.231 132.19 54.231C131.826 54.231 131.504 54.294 131.224 54.42C130.949 54.546 130.716 54.728 130.524 54.966C130.338 55.1993 130.195 55.484 130.097 55.82C129.999 56.156 129.95 56.5387 129.95 56.968L129.222 56.807C129.222 56.0323 129.358 55.3813 129.628 54.854C129.899 54.3267 130.272 53.9277 130.748 53.657C131.224 53.3863 131.77 53.251 132.386 53.251C132.839 53.251 133.233 53.321 133.569 53.461C133.91 53.601 134.197 53.79 134.43 54.028C134.668 54.266 134.86 54.539 135.004 54.847C135.149 55.1503 135.254 55.4747 135.319 55.82C135.385 56.1607 135.417 56.5013 135.417 56.842V61H134.381ZM128.914 61V53.44H129.845V55.302H129.95V61H128.914ZM144.153 61C143.728 61.0887 143.308 61.1237 142.893 61.105C142.482 61.0863 142.113 60.9977 141.787 60.839C141.465 60.6803 141.22 60.433 141.052 60.097C140.916 59.817 140.842 59.5347 140.828 59.25C140.818 58.9607 140.814 58.6317 140.814 58.263V51.34H141.836V58.221C141.836 58.5383 141.838 58.8043 141.843 59.019C141.852 59.229 141.901 59.4157 141.99 59.579C142.158 59.8917 142.424 60.0783 142.788 60.139C143.156 60.1997 143.611 60.1857 144.153 60.097V61ZM139.197 54.322V53.44H144.153V54.322H139.197ZM151.102 61V57.143C151.102 56.723 151.062 56.338 150.983 55.988C150.904 55.6333 150.775 55.3253 150.598 55.064C150.425 54.798 150.199 54.5927 149.919 54.448C149.644 54.3033 149.308 54.231 148.911 54.231C148.547 54.231 148.225 54.294 147.945 54.42C147.67 54.546 147.436 54.728 147.245 54.966C147.058 55.1993 146.916 55.484 146.818 55.82C146.72 56.156 146.671 56.5387 146.671 56.968L145.943 56.807C145.943 56.0323 146.078 55.3813 146.349 54.854C146.62 54.3267 146.993 53.9277 147.469 53.657C147.945 53.3863 148.491 53.251 149.107 53.251C149.56 53.251 149.954 53.321 150.29 53.461C150.631 53.601 150.918 53.79 151.151 54.028C151.389 54.266 151.58 54.539 151.725 54.847C151.87 55.1503 151.975 55.4747 152.04 55.82C152.105 56.1607 152.138 56.5013 152.138 56.842V61H151.102ZM145.635 61V50.92H146.566V56.611H146.671V61H145.635ZM157.154 61.21C156.416 61.21 155.777 61.0467 155.236 60.72C154.699 60.3933 154.281 59.9337 153.983 59.341C153.684 58.7483 153.535 58.053 153.535 57.255C153.535 56.429 153.682 55.715 153.976 55.113C154.27 54.511 154.683 54.0467 155.215 53.72C155.751 53.3933 156.384 53.23 157.112 53.23C157.858 53.23 158.495 53.4027 159.023 53.748C159.55 54.0887 159.949 54.5787 160.22 55.218C160.49 55.8573 160.614 56.6203 160.591 57.507H159.541V57.143C159.522 56.163 159.31 55.4233 158.904 54.924C158.502 54.4247 157.914 54.175 157.14 54.175C156.328 54.175 155.705 54.4387 155.271 54.966C154.841 55.4933 154.627 56.2447 154.627 57.22C154.627 58.172 154.841 58.9117 155.271 59.439C155.705 59.9617 156.318 60.223 157.112 60.223C157.653 60.223 158.124 60.0993 158.526 59.852C158.932 59.6 159.251 59.2383 159.485 58.767L160.444 59.138C160.145 59.796 159.704 60.307 159.121 60.671C158.542 61.0303 157.886 61.21 157.154 61.21ZM154.263 57.507V56.646H160.038V57.507H154.263ZM169.028 61.21C168.024 61.21 167.177 60.9883 166.487 60.545C165.796 60.097 165.273 59.4787 164.919 58.69C164.564 57.9013 164.387 56.9913 164.387 55.96C164.387 54.9287 164.564 54.0187 164.919 53.23C165.273 52.4413 165.796 51.8253 166.487 51.382C167.177 50.934 168.024 50.71 169.028 50.71C170.199 50.71 171.156 51.011 171.898 51.613C172.64 52.2103 173.148 53.013 173.424 54.021L172.374 54.294C172.159 53.496 171.774 52.8637 171.219 52.397C170.663 51.9303 169.933 51.697 169.028 51.697C168.239 51.697 167.583 51.8767 167.061 52.236C166.538 52.5953 166.144 53.097 165.878 53.741C165.616 54.3803 165.481 55.12 165.472 55.96C165.467 56.8 165.595 57.5397 165.857 58.179C166.123 58.8183 166.519 59.32 167.047 59.684C167.579 60.0433 168.239 60.223 169.028 60.223C169.933 60.223 170.663 59.9897 171.219 59.523C171.774 59.0517 172.159 58.4193 172.374 57.626L173.424 57.899C173.148 58.907 172.64 59.712 171.898 60.314C171.156 60.9113 170.199 61.21 169.028 61.21ZM175.108 52.005V50.85H176.137V52.005H175.108ZM175.108 61V53.44H176.137V61H175.108ZM182.352 61C181.927 61.0887 181.507 61.1237 181.092 61.105C180.681 61.0863 180.313 60.9977 179.986 60.839C179.664 60.6803 179.419 60.433 179.251 60.097C179.116 59.817 179.041 59.5347 179.027 59.25C179.018 58.9607 179.013 58.6317 179.013 58.263V51.34H180.035V58.221C180.035 58.5383 180.037 58.8043 180.042 59.019C180.051 59.229 180.1 59.4157 180.189 59.579C180.357 59.8917 180.623 60.0783 180.987 60.139C181.356 60.1997 181.811 60.1857 182.352 60.097V61ZM177.396 54.322V53.44H182.352V54.322H177.396ZM184.714 64.36L186.177 60.391L186.198 61.567L182.887 53.44H183.979L186.695 60.237H186.247L188.753 53.44H189.803L185.743 64.36H184.714ZM196.979 61.21C196.227 61.21 195.586 61.0397 195.054 60.699C194.522 60.3583 194.113 59.887 193.829 59.285C193.544 58.683 193.402 57.9923 193.402 57.213C193.402 56.4197 193.546 55.7243 193.836 55.127C194.125 54.5297 194.536 54.0653 195.068 53.734C195.604 53.398 196.241 53.23 196.979 53.23C197.735 53.23 198.379 53.4003 198.911 53.741C199.447 54.077 199.856 54.546 200.136 55.148C200.42 55.7453 200.563 56.4337 200.563 57.213C200.563 58.0063 200.42 58.704 200.136 59.306C199.851 59.9033 199.44 60.37 198.904 60.706C198.367 61.042 197.725 61.21 196.979 61.21ZM196.979 60.223C197.819 60.223 198.444 59.9453 198.855 59.39C199.265 58.83 199.471 58.1043 199.471 57.213C199.471 56.2983 199.263 55.5703 198.848 55.029C198.437 54.4877 197.814 54.217 196.979 54.217C196.414 54.217 195.947 54.3453 195.579 54.602C195.215 54.854 194.942 55.2063 194.76 55.659C194.582 56.107 194.494 56.625 194.494 57.213C194.494 58.123 194.704 58.8533 195.124 59.404C195.544 59.95 196.162 60.223 196.979 60.223ZM202.856 61V52.88C202.856 52.684 202.865 52.4903 202.884 52.299C202.907 52.1077 202.952 51.9257 203.017 51.753C203.082 51.5757 203.185 51.4123 203.325 51.263C203.479 51.095 203.647 50.9737 203.829 50.899C204.011 50.8197 204.2 50.7683 204.396 50.745C204.597 50.7217 204.793 50.71 204.984 50.71H205.95V51.578H205.054C204.662 51.578 204.368 51.6737 204.172 51.865C203.981 52.0563 203.885 52.3573 203.885 52.768V61H202.856ZM201.547 54.322V53.44H205.95V54.322H201.547ZM209.873 61V50.92H212.932C213.039 50.92 213.221 50.9223 213.478 50.927C213.739 50.9317 213.989 50.9503 214.227 50.983C214.992 51.0903 215.631 51.375 216.145 51.837C216.658 52.299 217.043 52.887 217.3 53.601C217.556 54.315 217.685 55.1013 217.685 55.96C217.685 56.8187 217.556 57.605 217.3 58.319C217.043 59.033 216.658 59.621 216.145 60.083C215.631 60.545 214.992 60.8297 214.227 60.937C213.993 60.965 213.744 60.9837 213.478 60.993C213.212 60.9977 213.03 61 212.932 61H209.873ZM210.937 60.013H212.932C213.123 60.013 213.328 60.0083 213.548 59.999C213.772 59.985 213.963 59.9617 214.122 59.929C214.71 59.8263 215.183 59.5883 215.543 59.215C215.907 58.8417 216.173 58.375 216.341 57.815C216.509 57.2503 216.593 56.632 216.593 55.96C216.593 55.2833 216.509 54.6627 216.341 54.098C216.173 53.5333 215.907 53.0667 215.543 52.698C215.179 52.3293 214.705 52.0937 214.122 51.991C213.963 51.9583 213.769 51.9373 213.541 51.928C213.317 51.914 213.114 51.907 212.932 51.907H210.937V60.013ZM222.436 61.21C221.684 61.21 221.043 61.0397 220.511 60.699C219.979 60.3583 219.57 59.887 219.286 59.285C219.001 58.683 218.859 57.9923 218.859 57.213C218.859 56.4197 219.003 55.7243 219.293 55.127C219.582 54.5297 219.993 54.0653 220.525 53.734C221.061 53.398 221.698 53.23 222.436 53.23C223.192 53.23 223.836 53.4003 224.368 53.741C224.904 54.077 225.313 54.546 225.593 55.148C225.877 55.7453 226.02 56.4337 226.02 57.213C226.02 58.0063 225.877 58.704 225.593 59.306C225.308 59.9033 224.897 60.37 224.361 60.706C223.824 61.042 223.182 61.21 222.436 61.21ZM222.436 60.223C223.276 60.223 223.901 59.9453 224.312 59.39C224.722 58.83 224.928 58.1043 224.928 57.213C224.928 56.2983 224.72 55.5703 224.305 55.029C223.894 54.4877 223.271 54.217 222.436 54.217C221.871 54.217 221.404 54.3453 221.036 54.602C220.672 54.854 220.399 55.2063 220.217 55.659C220.039 56.107 219.951 56.625 219.951 57.213C219.951 58.123 220.161 58.8533 220.581 59.404C221.001 59.95 221.619 60.223 222.436 60.223ZM229.335 61L226.591 53.44H227.634L229.867 59.656L232.086 53.44H233.143L230.399 61H229.335ZM237.325 61.21C236.588 61.21 235.949 61.0467 235.407 60.72C234.871 60.3933 234.453 59.9337 234.154 59.341C233.856 58.7483 233.706 58.053 233.706 57.255C233.706 56.429 233.853 55.715 234.147 55.113C234.441 54.511 234.854 54.0467 235.386 53.72C235.923 53.3933 236.555 53.23 237.283 53.23C238.03 53.23 238.667 53.4027 239.194 53.748C239.722 54.0887 240.121 54.5787 240.391 55.218C240.662 55.8573 240.786 56.6203 240.762 57.507H239.712V57.143C239.694 56.163 239.481 55.4233 239.075 54.924C238.674 54.4247 238.086 54.175 237.311 54.175C236.499 54.175 235.876 54.4387 235.442 54.966C235.013 55.4933 234.798 56.2447 234.798 57.22C234.798 58.172 235.013 58.9117 235.442 59.439C235.876 59.9617 236.49 60.223 237.283 60.223C237.825 60.223 238.296 60.0993 238.697 59.852C239.103 59.6 239.423 59.2383 239.656 58.767L240.615 59.138C240.317 59.796 239.876 60.307 239.292 60.671C238.714 61.0303 238.058 61.21 237.325 61.21ZM234.434 57.507V56.646H240.209V57.507H234.434ZM242.316 61V53.44H243.24V55.26L243.058 55.022C243.142 54.798 243.252 54.5927 243.387 54.406C243.522 54.2147 243.669 54.0583 243.828 53.937C244.024 53.7643 244.253 53.6337 244.514 53.545C244.775 53.4517 245.039 53.398 245.305 53.384C245.571 53.3653 245.814 53.384 246.033 53.44V54.406C245.758 54.336 245.457 54.3197 245.13 54.357C244.803 54.3943 244.502 54.525 244.227 54.749C243.975 54.945 243.786 55.1807 243.66 55.456C243.534 55.7267 243.45 56.016 243.408 56.324C243.366 56.6273 243.345 56.9283 243.345 57.227V61H242.316ZM254.245 61.21C253.241 61.21 252.394 60.9883 251.704 60.545C251.013 60.097 250.49 59.4787 250.136 58.69C249.781 57.9013 249.604 56.9913 249.604 55.96C249.604 54.9287 249.781 54.0187 250.136 53.23C250.49 52.4413 251.013 51.8253 251.704 51.382C252.394 50.934 253.241 50.71 254.245 50.71C255.416 50.71 256.373 51.011 257.115 51.613C257.857 52.2103 258.365 53.013 258.641 54.021L257.591 54.294C257.376 53.496 256.991 52.8637 256.436 52.397C255.88 51.9303 255.15 51.697 254.245 51.697C253.456 51.697 252.8 51.8767 252.278 52.236C251.755 52.5953 251.361 53.097 251.095 53.741C250.833 54.3803 250.698 55.12 250.689 55.96C250.684 56.8 250.812 57.5397 251.074 58.179C251.34 58.8183 251.736 59.32 252.264 59.684C252.796 60.0433 253.456 60.223 254.245 60.223C255.15 60.223 255.88 59.9897 256.436 59.523C256.991 59.0517 257.376 58.4193 257.591 57.626L258.641 57.899C258.365 58.907 257.857 59.712 257.115 60.314C256.373 60.9113 255.416 61.21 254.245 61.21ZM263.342 61.21C262.591 61.21 261.949 61.0397 261.417 60.699C260.885 60.3583 260.477 59.887 260.192 59.285C259.907 58.683 259.765 57.9923 259.765 57.213C259.765 56.4197 259.91 55.7243 260.199 55.127C260.488 54.5297 260.899 54.0653 261.431 53.734C261.968 53.398 262.605 53.23 263.342 53.23C264.098 53.23 264.742 53.4003 265.274 53.741C265.811 54.077 266.219 54.546 266.499 55.148C266.784 55.7453 266.926 56.4337 266.926 57.213C266.926 58.0063 266.784 58.704 266.499 59.306C266.214 59.9033 265.804 60.37 265.267 60.706C264.73 61.042 264.089 61.21 263.342 61.21ZM263.342 60.223C264.182 60.223 264.807 59.9453 265.218 59.39C265.629 58.83 265.834 58.1043 265.834 57.213C265.834 56.2983 265.626 55.5703 265.211 55.029C264.8 54.4877 264.177 54.217 263.342 54.217C262.777 54.217 262.311 54.3453 261.942 54.602C261.578 54.854 261.305 55.2063 261.123 55.659C260.946 56.107 260.857 56.625 260.857 57.213C260.857 58.123 261.067 58.8533 261.487 59.404C261.907 59.95 262.525 60.223 263.342 60.223ZM271.361 61.189C270.909 61.189 270.512 61.119 270.171 60.979C269.835 60.839 269.548 60.65 269.31 60.412C269.077 60.174 268.888 59.9033 268.743 59.6C268.599 59.292 268.494 58.9677 268.428 58.627C268.363 58.2817 268.33 57.9387 268.33 57.598V53.44H269.366V57.297C269.366 57.7123 269.406 58.0973 269.485 58.452C269.565 58.8067 269.691 59.117 269.863 59.383C270.041 59.6443 270.267 59.8473 270.542 59.992C270.822 60.1367 271.161 60.209 271.557 60.209C271.921 60.209 272.241 60.146 272.516 60.02C272.796 59.894 273.03 59.7143 273.216 59.481C273.408 59.243 273.552 58.956 273.65 58.62C273.748 58.2793 273.797 57.8967 273.797 57.472L274.525 57.633C274.525 58.4077 274.39 59.0587 274.119 59.586C273.849 60.1133 273.475 60.5123 272.999 60.783C272.523 61.0537 271.977 61.189 271.361 61.189ZM273.902 61V59.138H273.797V53.44H274.826V61H273.902ZM282.243 61V57.143C282.243 56.723 282.203 56.338 282.124 55.988C282.044 55.6333 281.916 55.3253 281.739 55.064C281.566 54.798 281.34 54.5927 281.06 54.448C280.784 54.3033 280.448 54.231 280.052 54.231C279.688 54.231 279.366 54.294 279.086 54.42C278.81 54.546 278.577 54.728 278.386 54.966C278.199 55.1993 278.057 55.484 277.959 55.82C277.861 56.156 277.812 56.5387 277.812 56.968L277.084 56.807C277.084 56.0323 277.219 55.3813 277.49 54.854C277.76 54.3267 278.134 53.9277 278.61 53.657C279.086 53.3863 279.632 53.251 280.248 53.251C280.7 53.251 281.095 53.321 281.431 53.461C281.771 53.601 282.058 53.79 282.292 54.028C282.53 54.266 282.721 54.539 282.866 54.847C283.01 55.1503 283.115 55.4747 283.181 55.82C283.246 56.1607 283.279 56.5013 283.279 56.842V61H282.243ZM276.776 61V53.44H277.707V55.302H277.812V61H276.776ZM289.211 61C288.787 61.0887 288.367 61.1237 287.951 61.105C287.541 61.0863 287.172 60.9977 286.845 60.839C286.523 60.6803 286.278 60.433 286.11 60.097C285.975 59.817 285.9 59.5347 285.886 59.25C285.877 58.9607 285.872 58.6317 285.872 58.263V51.34H286.894V58.221C286.894 58.5383 286.897 58.8043 286.901 59.019C286.911 59.229 286.96 59.4157 287.048 59.579C287.216 59.8917 287.482 60.0783 287.846 60.139C288.215 60.1997 288.67 60.1857 289.211 60.097V61ZM284.255 54.322V53.44H289.211V54.322H284.255ZM291.574 64.36L293.037 60.391L293.058 61.567L289.747 53.44H290.839L293.555 60.237H293.107L295.613 53.44H296.663L292.603 64.36H291.574ZM303.838 61.21C303.087 61.21 302.445 61.0397 301.913 60.699C301.381 60.3583 300.973 59.887 300.688 59.285C300.404 58.683 300.261 57.9923 300.261 57.213C300.261 56.4197 300.406 55.7243 300.695 55.127C300.985 54.5297 301.395 54.0653 301.927 53.734C302.464 53.398 303.101 53.23 303.838 53.23C304.594 53.23 305.238 53.4003 305.77 53.741C306.307 54.077 306.715 54.546 306.995 55.148C307.28 55.7453 307.422 56.4337 307.422 57.213C307.422 58.0063 307.28 58.704 306.995 59.306C306.711 59.9033 306.3 60.37 305.763 60.706C305.227 61.042 304.585 61.21 303.838 61.21ZM303.838 60.223C304.678 60.223 305.304 59.9453 305.714 59.39C306.125 58.83 306.33 58.1043 306.33 57.213C306.33 56.2983 306.123 55.5703 305.707 55.029C305.297 54.4877 304.674 54.217 303.838 54.217C303.274 54.217 302.807 54.3453 302.438 54.602C302.074 54.854 301.801 55.2063 301.619 55.659C301.442 56.107 301.353 56.625 301.353 57.213C301.353 58.123 301.563 58.8533 301.983 59.404C302.403 59.95 303.022 60.223 303.838 60.223ZM309.715 61V52.88C309.715 52.684 309.725 52.4903 309.743 52.299C309.767 52.1077 309.811 51.9257 309.876 51.753C309.942 51.5757 310.044 51.4123 310.184 51.263C310.338 51.095 310.506 50.9737 310.688 50.899C310.87 50.8197 311.059 50.7683 311.255 50.745C311.456 50.7217 311.652 50.71 311.843 50.71H312.809V51.578H311.913C311.521 51.578 311.227 51.6737 311.031 51.865C310.84 52.0563 310.744 52.3573 310.744 52.768V61H309.715ZM308.406 54.322V53.44H312.809V54.322H308.406ZM316.732 61V50.92H317.761V55.68L322.36 50.92H323.676L318.979 55.785L324.061 61H322.717L317.761 55.96V61H316.732ZM327.683 61.21C326.946 61.21 326.306 61.0467 325.765 60.72C325.228 60.3933 324.811 59.9337 324.512 59.341C324.213 58.7483 324.064 58.053 324.064 57.255C324.064 56.429 324.211 55.715 324.505 55.113C324.799 54.511 325.212 54.0467 325.744 53.72C326.281 53.3933 326.913 53.23 327.641 53.23C328.388 53.23 329.025 53.4027 329.552 53.748C330.079 54.0887 330.478 54.5787 330.749 55.218C331.02 55.8573 331.143 56.6203 331.12 57.507H330.07V57.143C330.051 56.163 329.839 55.4233 329.433 54.924C329.032 54.4247 328.444 54.175 327.669 54.175C326.857 54.175 326.234 54.4387 325.8 54.966C325.371 55.4933 325.156 56.2447 325.156 57.22C325.156 58.172 325.371 58.9117 325.8 59.439C326.234 59.9617 326.848 60.223 327.641 60.223C328.182 60.223 328.654 60.0993 329.055 59.852C329.461 59.6 329.781 59.2383 330.014 58.767L330.973 59.138C330.674 59.796 330.233 60.307 329.65 60.671C329.071 61.0303 328.416 61.21 327.683 61.21ZM324.792 57.507V56.646H330.567V57.507H324.792ZM337.928 61V57.143C337.928 56.723 337.889 56.338 337.809 55.988C337.73 55.6333 337.602 55.3253 337.424 55.064C337.252 54.798 337.025 54.5927 336.745 54.448C336.47 54.3033 336.134 54.231 335.737 54.231C335.373 54.231 335.051 54.294 334.771 54.42C334.496 54.546 334.263 54.728 334.071 54.966C333.885 55.1993 333.742 55.484 333.644 55.82C333.546 56.156 333.497 56.5387 333.497 56.968L332.769 56.807C332.769 56.0323 332.905 55.3813 333.175 54.854C333.446 54.3267 333.819 53.9277 334.295 53.657C334.771 53.3863 335.317 53.251 335.933 53.251C336.386 53.251 336.78 53.321 337.116 53.461C337.457 53.601 337.744 53.79 337.977 54.028C338.215 54.266 338.407 54.539 338.551 54.847C338.696 55.1503 338.801 55.4747 338.866 55.82C338.932 56.1607 338.964 56.5013 338.964 56.842V61H337.928ZM332.461 61V53.44H333.392V55.302H333.497V61H332.461ZM344.897 61C344.472 61.0887 344.052 61.1237 343.637 61.105C343.226 61.0863 342.857 60.9977 342.531 60.839C342.209 60.6803 341.964 60.433 341.796 60.097C341.66 59.817 341.586 59.5347 341.572 59.25C341.562 58.9607 341.558 58.6317 341.558 58.263V51.34H342.58V58.221C342.58 58.5383 342.582 58.8043 342.587 59.019C342.596 59.229 342.645 59.4157 342.734 59.579C342.902 59.8917 343.168 60.0783 343.532 60.139C343.9 60.1997 344.355 60.1857 344.897 60.097V61ZM339.941 54.322V53.44H344.897V54.322H339.941ZM348.909 61V60.783L354.418 51.907H349.049V50.92H356.105V51.158L350.624 60.02H356.056V61H348.909ZM357.929 52.005V50.85H358.958V52.005H357.929ZM357.929 61V53.44H358.958V61H357.929ZM364.451 61.21C363.756 61.21 363.168 61.035 362.687 60.685C362.207 60.3303 361.843 59.852 361.595 59.25C361.348 58.6433 361.224 57.9643 361.224 57.213C361.224 56.4477 361.348 55.7663 361.595 55.169C361.847 54.567 362.216 54.0933 362.701 53.748C363.187 53.4027 363.784 53.23 364.493 53.23C365.184 53.23 365.777 53.405 366.271 53.755C366.766 54.105 367.144 54.581 367.405 55.183C367.671 55.785 367.804 56.4617 367.804 57.213C367.804 57.969 367.671 58.648 367.405 59.25C367.139 59.852 366.757 60.3303 366.257 60.685C365.758 61.035 365.156 61.21 364.451 61.21ZM361.049 64.36V53.44H361.973V59.131H362.085V64.36H361.049ZM364.346 60.251C364.874 60.251 365.312 60.118 365.662 59.852C366.012 59.586 366.274 59.2243 366.446 58.767C366.624 58.305 366.712 57.787 366.712 57.213C366.712 56.6437 366.626 56.1303 366.453 55.673C366.281 55.2157 366.017 54.854 365.662 54.588C365.312 54.322 364.867 54.189 364.325 54.189C363.798 54.189 363.359 54.3173 363.009 54.574C362.664 54.8307 362.405 55.1877 362.232 55.645C362.06 56.0977 361.973 56.6203 361.973 57.213C361.973 57.7963 362.06 58.319 362.232 58.781C362.405 59.2383 362.666 59.5977 363.016 59.859C363.366 60.1203 363.81 60.251 364.346 60.251ZM376.225 61.21C375.222 61.21 374.375 60.9883 373.684 60.545C372.993 60.097 372.471 59.4787 372.116 58.69C371.761 57.9013 371.584 56.9913 371.584 55.96C371.584 54.9287 371.761 54.0187 372.116 53.23C372.471 52.4413 372.993 51.8253 373.684 51.382C374.375 50.934 375.222 50.71 376.225 50.71C377.396 50.71 378.353 51.011 379.095 51.613C379.837 52.2103 380.346 53.013 380.621 54.021L379.571 54.294C379.356 53.496 378.971 52.8637 378.416 52.397C377.861 51.9303 377.13 51.697 376.225 51.697C375.436 51.697 374.781 51.8767 374.258 52.236C373.735 52.5953 373.341 53.097 373.075 53.741C372.814 54.3803 372.678 55.12 372.669 55.96C372.664 56.8 372.793 57.5397 373.054 58.179C373.32 58.8183 373.717 59.32 374.244 59.684C374.776 60.0433 375.436 60.223 376.225 60.223C377.13 60.223 377.861 59.9897 378.416 59.523C378.971 59.0517 379.356 58.4193 379.571 57.626L380.621 57.899C380.346 58.907 379.837 59.712 379.095 60.314C378.353 60.9113 377.396 61.21 376.225 61.21ZM385.323 61.21C384.571 61.21 383.93 61.0397 383.398 60.699C382.866 60.3583 382.457 59.887 382.173 59.285C381.888 58.683 381.746 57.9923 381.746 57.213C381.746 56.4197 381.89 55.7243 382.18 55.127C382.469 54.5297 382.88 54.0653 383.412 53.734C383.948 53.398 384.585 53.23 385.323 53.23C386.079 53.23 386.723 53.4003 387.255 53.741C387.791 54.077 388.2 54.546 388.48 55.148C388.764 55.7453 388.907 56.4337 388.907 57.213C388.907 58.0063 388.764 58.704 388.48 59.306C388.195 59.9033 387.784 60.37 387.248 60.706C386.711 61.042 386.069 61.21 385.323 61.21ZM385.323 60.223C386.163 60.223 386.788 59.9453 387.199 59.39C387.609 58.83 387.815 58.1043 387.815 57.213C387.815 56.2983 387.607 55.5703 387.192 55.029C386.781 54.4877 386.158 54.217 385.323 54.217C384.758 54.217 384.291 54.3453 383.923 54.602C383.559 54.854 383.286 55.2063 383.104 55.659C382.926 56.107 382.838 56.625 382.838 57.213C382.838 58.123 383.048 58.8533 383.468 59.404C383.888 59.95 384.506 60.223 385.323 60.223ZM393.384 61.21C392.679 61.21 392.077 61.035 391.578 60.685C391.078 60.3303 390.696 59.852 390.43 59.25C390.164 58.648 390.031 57.969 390.031 57.213C390.031 56.4617 390.161 55.785 390.423 55.183C390.689 54.581 391.069 54.105 391.564 53.755C392.058 53.405 392.651 53.23 393.342 53.23C394.051 53.23 394.648 53.4027 395.134 53.748C395.619 54.0933 395.985 54.567 396.233 55.169C396.485 55.7663 396.611 56.4477 396.611 57.213C396.611 57.9643 396.487 58.6433 396.24 59.25C395.992 59.852 395.628 60.3303 395.148 60.685C394.667 61.035 394.079 61.21 393.384 61.21ZM393.489 60.251C394.025 60.251 394.469 60.1203 394.819 59.859C395.169 59.5977 395.43 59.2383 395.603 58.781C395.775 58.319 395.862 57.7963 395.862 57.213C395.862 56.6203 395.775 56.0977 395.603 55.645C395.43 55.1877 395.169 54.8307 394.819 54.574C394.473 54.3173 394.037 54.189 393.51 54.189C392.968 54.189 392.52 54.322 392.166 54.588C391.811 54.854 391.547 55.2157 391.375 55.673C391.207 56.1303 391.123 56.6437 391.123 57.213C391.123 57.787 391.209 58.305 391.382 58.767C391.559 59.2243 391.823 59.586 392.173 59.852C392.523 60.118 392.961 60.251 393.489 60.251ZM395.862 61V55.309H395.75V50.92H396.786V61H395.862ZM401.949 61.21C401.211 61.21 400.572 61.0467 400.031 60.72C399.494 60.3933 399.076 59.9337 398.778 59.341C398.479 58.7483 398.33 58.053 398.33 57.255C398.33 56.429 398.477 55.715 398.771 55.113C399.065 54.511 399.478 54.0467 400.01 53.72C400.546 53.3933 401.179 53.23 401.907 53.23C402.653 53.23 403.29 53.4027 403.818 53.748C404.345 54.0887 404.744 54.5787 405.015 55.218C405.285 55.8573 405.409 56.6203 405.386 57.507H404.336V57.143C404.317 56.163 404.105 55.4233 403.699 54.924C403.297 54.4247 402.709 54.175 401.935 54.175C401.123 54.175 400.5 54.4387 400.066 54.966C399.636 55.4933 399.422 56.2447 399.422 57.22C399.422 58.172 399.636 58.9117 400.066 59.439C400.5 59.9617 401.113 60.223 401.907 60.223C402.448 60.223 402.919 60.0993 403.321 59.852C403.727 59.6 404.046 59.2383 404.28 58.767L405.239 59.138C404.94 59.796 404.499 60.307 403.916 60.671C403.337 61.0303 402.681 61.21 401.949 61.21ZM399.058 57.507V56.646H404.833V57.507H399.058ZM411.499 61V52.068L409.602 53.209V52.054L411.499 50.92H412.542V61H411.499ZM418.515 50.717C419.149 50.717 419.723 50.871 420.237 51.179C420.755 51.4823 421.165 51.8977 421.469 52.425C421.772 52.9477 421.924 53.5357 421.924 54.189V57.689C421.924 58.361 421.772 58.963 421.469 59.495C421.165 60.027 420.75 60.447 420.223 60.755C419.7 61.0583 419.105 61.21 418.438 61.21C417.864 61.21 417.332 61.084 416.842 60.832C416.356 60.5753 415.955 60.223 415.638 59.775L416.422 59.124C416.636 59.4553 416.921 59.7213 417.276 59.922C417.635 60.1227 418.022 60.223 418.438 60.223C418.914 60.223 419.334 60.111 419.698 59.887C420.066 59.6583 420.356 59.3597 420.566 58.991C420.78 58.6177 420.888 58.214 420.888 57.78V55.582L421.14 55.876C420.85 56.338 420.465 56.7113 419.985 56.996C419.509 57.2807 418.986 57.423 418.417 57.423C417.796 57.423 417.234 57.2737 416.73 56.975C416.23 56.6763 415.834 56.275 415.54 55.771C415.25 55.267 415.106 54.7047 415.106 54.084C415.106 53.4633 415.26 52.8987 415.568 52.39C415.876 51.8767 416.289 51.4707 416.807 51.172C417.325 50.8687 417.894 50.717 418.515 50.717ZM418.515 51.711C418.076 51.711 417.677 51.8183 417.318 52.033C416.958 52.243 416.671 52.5277 416.457 52.887C416.247 53.2463 416.142 53.6453 416.142 54.084C416.142 54.5227 416.247 54.9217 416.457 55.281C416.667 55.6403 416.951 55.9273 417.311 56.142C417.67 56.352 418.069 56.457 418.508 56.457C418.946 56.457 419.345 56.352 419.705 56.142C420.069 55.9273 420.356 55.6403 420.566 55.281C420.78 54.9217 420.888 54.5227 420.888 54.084C420.888 53.65 420.78 53.2533 420.566 52.894C420.356 52.5347 420.071 52.2477 419.712 52.033C419.352 51.8183 418.953 51.711 418.515 51.711ZM427.196 50.717C427.831 50.717 428.405 50.871 428.918 51.179C429.436 51.4823 429.847 51.8977 430.15 52.425C430.454 52.9477 430.605 53.5357 430.605 54.189V57.689C430.605 58.361 430.454 58.963 430.15 59.495C429.847 60.027 429.432 60.447 428.904 60.755C428.382 61.0583 427.787 61.21 427.119 61.21C426.545 61.21 426.013 61.084 425.523 60.832C425.038 60.5753 424.637 60.223 424.319 59.775L425.103 59.124C425.318 59.4553 425.603 59.7213 425.957 59.922C426.317 60.1227 426.704 60.223 427.119 60.223C427.595 60.223 428.015 60.111 428.379 59.887C428.748 59.6583 429.037 59.3597 429.247 58.991C429.462 58.6177 429.569 58.214 429.569 57.78V55.582L429.821 55.876C429.532 56.338 429.147 56.7113 428.666 56.996C428.19 57.2807 427.668 57.423 427.098 57.423C426.478 57.423 425.915 57.2737 425.411 56.975C424.912 56.6763 424.515 56.275 424.221 55.771C423.932 55.267 423.787 54.7047 423.787 54.084C423.787 53.4633 423.941 52.8987 424.249 52.39C424.557 51.8767 424.97 51.4707 425.488 51.172C426.006 50.8687 426.576 50.717 427.196 50.717ZM427.196 51.711C426.758 51.711 426.359 51.8183 425.999 52.033C425.64 52.243 425.353 52.5277 425.138 52.887C424.928 53.2463 424.823 53.6453 424.823 54.084C424.823 54.5227 424.928 54.9217 425.138 55.281C425.348 55.6403 425.633 55.9273 425.992 56.142C426.352 56.352 426.751 56.457 427.189 56.457C427.628 56.457 428.027 56.352 428.386 56.142C428.75 55.9273 429.037 55.6403 429.247 55.281C429.462 54.9217 429.569 54.5227 429.569 54.084C429.569 53.65 429.462 53.2533 429.247 52.894C429.037 52.5347 428.753 52.2477 428.393 52.033C428.034 51.8183 427.635 51.711 427.196 51.711ZM435.85 61.21C435.229 61.21 434.669 61.0653 434.17 60.776C433.675 60.4867 433.283 60.0947 432.994 59.6C432.705 59.1007 432.56 58.5407 432.56 57.92V54C432.56 53.3793 432.705 52.8217 432.994 52.327C433.283 51.8277 433.675 51.4333 434.17 51.144C434.669 50.8547 435.229 50.71 435.85 50.71C436.471 50.71 437.028 50.8547 437.523 51.144C438.022 51.4333 438.417 51.8277 438.706 52.327C438.995 52.8217 439.14 53.3793 439.14 54V57.92C439.14 58.5407 438.995 59.1007 438.706 59.6C438.417 60.0947 438.022 60.4867 437.523 60.776C437.028 61.0653 436.471 61.21 435.85 61.21ZM435.85 60.216C436.265 60.216 436.643 60.1157 436.984 59.915C437.325 59.7097 437.595 59.4367 437.796 59.096C437.997 58.7553 438.097 58.3797 438.097 57.969V53.951C438.097 53.5357 437.997 53.1577 437.796 52.817C437.595 52.4763 437.325 52.2057 436.984 52.005C436.643 51.7997 436.265 51.697 435.85 51.697C435.435 51.697 435.057 51.7997 434.716 52.005C434.375 52.2057 434.105 52.4763 433.904 52.817C433.703 53.1577 433.603 53.5357 433.603 53.951V57.969C433.603 58.3797 433.703 58.7553 433.904 59.096C434.105 59.4367 434.375 59.7097 434.716 59.915C435.057 60.1157 435.435 60.216 435.85 60.216ZM442.862 61V52.068L440.965 53.209V52.054L442.862 50.92H443.905V61H442.862ZM446.196 61V59.803H447.393V61H446.196Z" fill="black"/>
</svg>
